<svg xmlns="http://www.w3.org/2000/svg" width="800" height="600" viewBox="0 0 800 600">
  <rect width="100%" height="100%" fill="white"/>
  <path d="M 186.24 579.80 L 191.97 579.78 L 197.96 579.78 L 203.61 579.88 L 209.55 579.92 L 215.42 579.78 L 221.18 579.78 L 227.01 579.92 L 232.75 579.78 L 238.55 579.94 L 244.51 579.86 L 250.25 579.89" fill="none" stroke="black" stroke-width="1"/>
  <path d="M 250.22 579.86 L 249.94 573.52 L 249.75 567.42 L 249.48 561.00 L 249.16 554.79 L 248.89 548.48 L 248.62 542.29 L 248.30 536.00 L 248.04 529.85 L 247.72 523.54 L 247.41 517.32 L 247.12 510.94 L 246.91 504.73 L 246.64 498.52 L 246.43 492.29 L 246.10 486.06 L 245.87 479.76 L 245.47 473.40 L 245.34 467.21 L 244.99 460.98 L 244.74 454.63 L 244.43 448.37 L 244.08 442.22 L 243.89 435.90" fill="none" stroke="black" stroke-width="1"/>
  <path d="M 244.17 435.74 L 244.08 438.38 L 243.94 441.47 L 244.06 444.38 L 244.19 447.05 L 244.08 449.94 L 243.87 452.88 L 244.10 455.91 L 244.00 458.49 L 244.08 461.39" fill="none" stroke="black" stroke-width="1"/>
  <path d="M 218.34 483.82 L 218.35 489.83 L 218.29 495.76 L 218.30 501.75 L 218.38 507.76 L 218.25 513.80 L 218.23 519.72 L 218.38 525.75 L 218.29 531.80" fill="none" stroke="black" stroke-width="1"/>
  <path d="M 205.79 519.42 L 205.40 512.62" fill="none" stroke="black" stroke-width="1"/>
  <path d="M 195.86 503.11 L 196.24 496.71" fill="none" stroke="black" stroke-width="1"/>
  <path d="M 192.69 483.92 L 192.68 489.98 L 192.65 495.93 L 192.72 501.90 L 192.66 507.93 L 192.69 513.90 L 192.62 519.87 L 192.62 525.97 L 192.64 531.88" fill="none" stroke="black" stroke-width="1"/>
  <path d="M 186.35 579.93 L 186.05 573.73 L 185.77 567.37 L 185.58 561.18 L 185.17 554.86 L 184.96 548.67 L 184.74 542.32 L 184.47 536.08 L 184.20 529.79 L 183.92 523.52 L 183.51 517.37 L 183.28 511.08 L 183.12 504.85 L 182.83 498.51 L 182.48 492.20 L 182.28 485.93 L 181.92 479.68 L 181.65 473.39 L 181.41 467.19 L 181.12 460.88 L 180.86 454.73 L 180.62 448.35 L 180.25 442.14 L 179.99 435.87" fill="none" stroke="black" stroke-width="1"/>
  <path d="M 179.87 435.93 L 178.98 429.65 L 178.04 423.42 L 177.28 417.29 L 176.26 411.00 L 175.53 404.79 L 174.58 398.54 L 173.61 392.39 L 172.81 386.08 L 171.84 379.92 L 171.03 373.76 L 170.14 367.58 L 169.20 361.27 L 168.25 355.11 L 167.41 348.79 L 166.62 342.64 L 165.61 336.37 L 164.79 330.21 L 163.94 323.92 L 162.98 317.72 L 162.19 311.44 L 161.27 305.27 L 160.40 299.14 L 159.51 292.93 L 158.50 286.67 L 157.66 280.33 L 156.79 274.17 L 155.93 267.98 L 154.96 261.80 L 154.14 255.59 L 153.21 249.21 L 152.45 243.04 L 151.40 236.78 L 150.65 230.66 L 149.80 224.41 L 148.83 218.13 L 148.00 212.02 L 147.13 205.73 L 146.16 199.43 L 145.28 193.28 L 144.43 187.12 L 143.47 180.80 L 142.65 174.57 L 141.72 168.39 L 140.91 162.26 L 139.95 156.06 L 139.03 149.78 L 138.20 143.48 L 137.32 137.31 L 136.41 131.10 L 135.46 124.79 L 134.54 118.73 L 133.79 112.47 L 132.92 106.24 L 131.97 99.98" fill="none" stroke="black" stroke-width="1"/>
  <path d="M 141.57 100.09 L 144.74 105.50 L 147.97 110.83 L 151.21 116.12 L 154.32 121.43 L 157.53 126.81 L 160.83 132.08 L 164.00 137.41 L 167.18 142.68 L 170.36 148.06 L 173.45 153.36 L 176.67 158.62 L 179.95 164.07 L 183.20 169.44 L 186.38 174.70 L 189.52 180.04" fill="none" stroke="black" stroke-width="1"/>
  <path d="M 189.44 179.97 L 192.68 174.68 L 195.86 169.39 L 199.01 164.06 L 202.26 158.60 L 205.38 153.30 L 208.72 148.07 L 211.85 142.58 L 215.10 137.34 L 218.30 132.04 L 221.46 126.67 L 224.69 121.31 L 227.79 116.08 L 230.99 110.70 L 234.27 105.42 L 237.48 100.05" fill="none" stroke="black" stroke-width="1"/>
  <path d="M 243.87 100.04 L 243.81 106.28 L 243.92 112.67 L 243.83 119.05 L 243.81 125.38 L 243.91 131.72 L 243.92 138.02 L 243.90 144.43 L 243.82 150.79 L 243.93 157.04 L 243.81 163.47 L 243.87 169.82 L 243.96 176.14 L 243.92 182.35 L 243.82 188.82 L 243.81 195.18 L 243.89 201.43 L 243.92 207.86 L 243.91 214.21 L 243.90 220.43 L 243.87 226.87 L 243.91 233.06 L 243.92 239.43 L 243.79 245.78 L 243.91 252.17 L 243.88 258.57 L 243.80 264.78 L 243.93 271.09 L 243.83 277.52 L 243.79 283.80 L 243.95 290.27 L 243.82 296.57 L 243.86 302.79 L 243.85 309.25 L 243.82 315.49 L 243.96 321.91 L 243.89 328.12 L 243.86 334.46 L 243.90 340.95 L 243.80 347.14 L 243.94 353.47 L 243.83 359.82 L 243.80 366.26 L 243.84 372.65 L 243.82 378.97 L 243.79 385.22 L 243.86 391.49 L 243.87 397.90 L 243.84 404.22 L 243.83 410.63 L 243.90 416.85 L 243.84 423.31 L 243.80 429.62 L 243.88 435.95" fill="none" stroke="black" stroke-width="1"/>
  <path d="M 243.83 435.97 L 250.07 435.92 L 256.24 435.92 L 262.37 435.96 L 268.55 436.04 L 274.76 435.98 L 281.07 435.98 L 287.16 435.93 L 293.41 435.90 L 299.51 435.96 L 305.78 435.93 L 311.96 436.03 L 318.15 435.95 L 324.28 436.01 L 330.64 435.88 L 336.70 435.95 L 342.98 436.03 L 349.10 435.91 L 355.40 436.05 L 361.62 436.00 L 367.72 436.06 L 373.97 435.94 L 380.21 436.02 L 386.38 436.03 L 392.56 435.99 L 398.70 436.03 L 404.86 435.91 L 411.14 435.89 L 417.23 436.02 L 423.42 435.96 L 429.73 436.03 L 435.88 435.97" fill="none" stroke="black" stroke-width="1"/>
  <path d="M 435.82 435.97 L 435.51 442.15 L 435.26 448.42 L 434.97 454.70 L 434.64 460.90 L 434.48 467.33 L 434.23 473.58 L 433.85 479.85 L 433.69 486.03 L 433.30 492.25 L 433.13 498.47 L 432.79 504.81 L 432.56 511.06 L 432.31 517.30 L 432.03 523.47 L 431.67 529.86 L 431.49 536.12 L 431.10 542.40 L 430.99 548.56 L 430.67 554.77 L 430.30 561.07 L 430.07 567.36 L 429.84 573.55 L 429.54 579.87" fill="none" stroke="black" stroke-width="1"/>
  <path d="M 429.54 579.96 L 435.98 580.00 L 442.28 579.91 L 448.64 579.99 L 455.08 579.85 L 461.46 579.86 L 467.81 579.98 L 474.30 579.92 L 480.63 579.94 L 487.03 579.84 L 493.47 579.86" fill="none" stroke="black" stroke-width="1"/>
  <path d="M 493.52 579.94 L 493.70 573.73 L 494.05 567.45 L 494.38 561.12 L 494.65 554.92 L 494.94 548.63 L 495.24 542.39 L 495.42 536.15 L 495.81 529.78 L 495.99 523.55 L 496.26 517.27 L 496.61 511.11 L 496.86 504.77 L 497.13 498.56 L 497.43 492.20 L 497.68 485.95 L 498.03 479.76 L 498.35 473.53 L 498.62 467.29 L 498.82 460.93 L 499.01 454.78 L 499.42 448.49 L 499.64 442.19 L 499.93 435.95" fill="none" stroke="black" stroke-width="1"/>
  <path d="M 499.91 435.99 L 500.74 429.78 L 501.75 423.58 L 502.59 417.39 L 503.48 411.19 L 504.32 404.80 L 505.20 398.64 L 506.20 392.37 L 507.10 386.12 L 507.92 380.05 L 508.84 373.84 L 509.69 367.54 L 510.55 361.33 L 511.44 355.15 L 512.40 348.95 L 513.23 342.56 L 514.09 336.38 L 515.06 330.18 L 515.88 323.87 L 516.68 317.73 L 517.65 311.55 L 518.44 305.22 L 519.41 299.05 L 520.28 292.79 L 521.18 286.65 L 522.11 280.43 L 522.92 274.15 L 523.78 268.00 L 524.72 261.69 L 525.63 255.51 L 526.45 249.21 L 527.32 243.07 L 528.24 236.83 L 529.13 230.58 L 530.10 224.36 L 531.05 218.16 L 531.81 212.03 L 532.82 205.81 L 533.57 199.54 L 534.50 193.29 L 535.48 187.00 L 536.22 180.86 L 537.24 174.69 L 538.07 168.37 L 538.88 162.20 L 539.86 155.86 L 540.69 149.63 L 541.51 143.40 L 542.43 137.30 L 543.41 131.01 L 544.25 124.86 L 545.11 118.54 L 546.02 112.32 L 546.92 106.22 L 547.81 99.93" fill="none" stroke="black" stroke-width="1"/>
  <path d="M 659.72 20.11 L 654.48 22.76 L 649.05 25.35 L 643.69 28.15 L 638.41 30.80 L 633.18 33.31 L 627.82 35.98 L 622.42 38.80 L 617.16 41.40 L 611.85 43.96 L 606.47 46.72 L 601.20 49.32 L 595.90 51.99" fill="none" stroke="black" stroke-width="1"/>
  <path d="M 595.78 52.05 L 589.41 52.03 L 582.95 51.97 L 576.61 52.05 L 570.18 52.07 L 563.73 51.96 L 557.43 52.05 L 551.01 52.14 L 544.59 52.08 L 538.13 52.14 L 531.88 52.03 L 525.32 52.02 L 519.01 51.96 L 512.57 51.96 L 506.15 52.12 L 499.89 52.13 L 493.43 52.07 L 486.94 52.06 L 480.60 51.97 L 474.29 52.11 L 467.85 52.00 L 461.40 52.02 L 455.01 52.11 L 448.73 52.04 L 442.29 52.07 L 435.91 51.96 L 429.39 52.10 L 423.06 52.07 L 416.60 51.99 L 410.25 52.03 L 403.85 52.10 L 397.38 51.97 L 391.05 52.11 L 384.74 51.95 L 378.21 52.11 L 371.83 51.96 L 365.56 52.09 L 359.07 52.14 L 352.62 52.07 L 346.28 52.09 L 339.80 52.11 L 333.52 52.14 L 327.09 52.11 L 320.65 51.96 L 314.27 52.08 L 307.94 52.01 L 301.51 52.03 L 295.19 52.05 L 288.70 52.12 L 282.38 52.01 L 275.91 52.05 L 269.55 52.11 L 263.22 52.01 L 256.75 52.11 L 250.40 52.08 L 243.87 51.96 L 237.60 52.12 L 231.13 52.02 L 224.68 51.98 L 218.43 51.96 L 211.86 52.09 L 205.49 52.13 L 199.22 52.09 L 192.78 52.10 L 186.30 52.04 L 180.01 51.94 L 173.50 52.11 L 167.14 52.11 L 160.83 52.08 L 154.47 51.96 L 148.00 52.03 L 141.61 52.09 L 135.16 52.10 L 128.71 52.03 L 122.41 51.97 L 115.94 51.97 L 109.55 51.94 L 103.16 51.97 L 96.82 52.04 L 90.45 52.06 L 84.01 52.04" fill="none" stroke="black" stroke-width="1"/>
  <path d="M 84.00 51.99 L 78.73 49.40 L 73.34 46.63 L 67.99 43.95 L 62.63 41.34 L 57.34 38.69 L 52.09 35.94 L 46.59 33.42 L 41.26 30.70 L 36.01 28.04 L 30.71 25.29 L 25.36 22.62 L 20.00 20.00" fill="none" stroke="black" stroke-width="1"/>
  <path d="M 84.21 180.17 L 83.47 182.88 L 82.53 185.65 L 81.61 188.17 L 80.42 190.87 L 79.27 193.33 L 78.23 196.17 L 77.21 198.80 L 75.98 201.31 L 74.53 204.16 L 73.24 206.58 L 72.39 209.51 L 70.99 212.16 L 69.81 214.64 L 68.92 217.68 L 68.08 220.15 L 67.71 222.69 L 66.68 225.33 L 66.27 228.15 L 66.17 230.63 L 66.03 233.47 L 66.03 236.13 L 66.87 238.67 L 67.16 241.62 L 67.84 244.11 L 69.23 246.82 L 70.64 249.58 L 72.01 252.09 L 73.78 254.28 L 75.18 256.06 L 76.62 258.30 L 78.22 260.05 L 80.14 261.90 L 82.15 263.95 L 83.81 266.05 L 86.00 268.02 L 88.16 269.92 L 90.36 272.23 L 92.59 274.18 L 94.89 275.98 L 97.14 278.21 L 99.86 279.78 L 101.99 282.17 L 104.40 283.93 L 107.06 286.07 L 109.00 288.02 L 111.73 289.94 L 114.07 291.89 L 116.22 293.86 L 118.79 295.79 L 120.87 297.91 L 123.43 299.85 L 125.82 302.00 L 127.49 303.97 L 130.00 305.97 L 132.00 307.81" fill="none" stroke="black" stroke-width="1"/>
  <path d="M 154.28 259.89 L 160.54 259.94 L 166.79 259.93 L 173.16 259.94 L 179.49 259.90 L 185.66 259.85 L 192.00 259.93 L 198.30 259.93 L 204.68 259.97 L 210.87 259.95 L 217.17 259.80 L 223.54 259.79 L 229.79 259.88 L 236.08 259.88 L 242.38 259.89 L 248.76 259.80 L 254.98 259.89 L 261.15 259.80 L 267.46 259.95 L 273.77 259.81 L 280.22 259.92 L 286.45 259.88 L 292.74 259.81 L 299.04 259.90 L 305.21 259.81 L 311.54 259.96 L 317.96 259.82 L 324.16 259.97 L 330.53 259.92 L 336.71 259.91 L 343.07 259.79 L 349.30 259.88 L 355.57 259.91 L 361.94 259.85 L 368.12 259.81 L 374.49 259.84 L 380.80 259.89 L 387.11 259.97 L 393.40 259.79 L 399.67 259.92 L 405.93 259.95 L 412.28 259.81 L 418.62 259.96 L 424.86 259.79 L 431.10 259.87 L 437.38 259.93 L 443.62 259.93 L 450.06 259.88 L 456.27 259.94 L 462.65 259.85 L 468.92 259.80 L 475.12 259.81 L 481.51 259.78 L 487.76 259.81 L 493.98 259.87 L 500.30 259.92 L 506.56 259.94 L 512.98 259.97 L 519.31 259.93 L 525.51 259.87" fill="none" stroke="black" stroke-width="1"/>
  <path d="M 486.99 276.08 L 480.93 275.92" fill="none" stroke="black" stroke-width="1"/>
  <path d="M 506.17 307.98 L 504.76 314.02 L 503.35 319.91 L 501.88 326.05 L 500.54 331.92 L 499.16 338.04 L 497.76 343.98 L 496.47 349.98 L 494.97 355.90 L 493.60 361.83 L 492.18 367.88 L 490.76 373.98 L 489.45 379.91 L 488.04 385.81 L 486.66 391.97 L 485.24 397.94 L 483.79 403.86" fill="none" stroke="black" stroke-width="1"/>
  <path d="M 483.86 404.00 L 482.43 398.07 L 481.05 392.03 L 479.66 385.94 L 478.30 379.90 L 476.83 373.96 L 475.55 367.94 L 474.13 361.88 L 472.69 356.02 L 471.23 349.85 L 469.79 343.95 L 468.41 337.92 L 467.12 331.87 L 465.61 325.85 L 464.21 319.90 L 462.95 313.86 L 461.46 307.86" fill="none" stroke="black" stroke-width="1"/>
  <path d="M 438.88 275.96 L 432.58 276.12" fill="none" stroke="black" stroke-width="1"/>
  <path d="M 390.69 275.92 L 384.38 275.81" fill="none" stroke="black" stroke-width="1"/>
  <path d="M 341.49 371.93 L 339.89 373.53 L 338.29 371.93 L 339.89 370.33 L 341.49 371.93" fill="none" stroke="black" stroke-width="1"/>
  <path d="M 339.86 314.34 L 342.09 314.82 L 344.49 315.47 L 346.95 315.97 L 349.36 316.38 L 351.86 316.84 L 354.35 317.17 L 356.84 317.58 L 359.37 317.92 L 361.94 318.25 L 364.32 318.73 L 366.79 319.16 L 369.12 319.70 L 371.36 320.27 L 373.66 320.93 L 375.78 321.74 L 377.84 322.51 L 379.78 323.51 L 381.58 324.54 L 383.15 325.80 L 384.76 327.12 L 386.05 328.77 L 387.34 330.30 L 388.35 332.11 L 389.36 334.02 L 390.20 336.19 L 390.94 338.19 L 391.55 340.36 L 392.16 342.71 L 392.56 345.10 L 393.12 347.49 L 393.46 350.04 L 393.92 352.42 L 394.27 354.86 L 394.66 357.43 L 395.00 359.82 L 395.42 362.39 L 395.79 364.90 L 396.32 367.24 L 396.83 369.47 L 397.45 371.85" fill="none" stroke="black" stroke-width="1"/>
  <path d="M 397.45 371.98 L 396.93 374.24 L 396.31 376.61 L 395.81 379.07 L 395.40 381.45 L 394.95 383.88 L 394.61 386.42 L 394.16 388.96 L 393.85 391.43 L 393.53 393.82 L 393.03 396.37 L 392.46 398.70 L 392.05 401.15 L 391.39 403.39 L 390.81 405.67 L 390.08 407.76 L 389.22 409.84 L 388.21 411.62 L 387.19 413.57 L 385.93 415.16 L 384.61 416.75 L 383.06 417.95 L 381.42 419.32 L 379.48 420.40 L 377.69 421.35 L 375.70 422.23 L 373.51 422.92 L 371.27 423.58 L 368.99 424.15 L 366.51 424.59 L 364.20 425.12 L 361.63 425.46 L 359.26 425.93 L 356.68 426.30 L 354.25 426.67 L 351.84 427.11 L 349.27 427.45 L 346.78 427.94 L 344.42 428.36 L 342.17 429.01 L 339.80 429.49" fill="none" stroke="black" stroke-width="1"/>
  <path d="M 339.89 429.55 L 337.51 429.05 L 335.27 428.41 L 332.87 427.97 L 330.43 427.49 L 327.98 427.09 L 325.46 426.69 L 322.87 426.29 L 320.46 425.93 L 318.03 425.51 L 315.52 425.10 L 313.09 424.58 L 310.74 424.12 L 308.43 423.46 L 306.21 422.88 L 304.17 422.07 L 302.04 421.29 L 300.27 420.18 L 298.32 419.26 L 296.75 417.90 L 295.14 416.68 L 293.79 415.03 L 292.57 413.50 L 291.56 411.56 L 290.54 409.78 L 289.68 407.72 L 288.96 405.62 L 288.34 403.33 L 287.73 401.11 L 287.16 398.65 L 286.75 396.34 L 286.37 393.91 L 285.94 391.41 L 285.50 388.91 L 285.19 386.43 L 284.71 384.00 L 284.41 381.47 L 283.86 379.08 L 283.50 376.64 L 282.87 374.39 L 282.36 372.03" fill="none" stroke="black" stroke-width="1"/>
  <path d="M 282.39 371.85 L 283.04 369.62 L 283.53 367.23 L 284.02 364.83 L 284.44 362.38 L 284.76 359.96 L 285.23 357.40 L 285.55 354.82 L 285.98 352.40 L 286.35 349.85 L 286.80 347.45 L 287.38 345.11 L 287.77 342.67 L 288.30 340.38 L 289.01 338.14 L 289.75 336.05 L 290.59 333.97 L 291.60 332.08 L 292.62 330.25 L 293.91 328.67 L 295.19 327.07 L 296.86 325.85 L 298.37 324.49 L 300.19 323.42 L 302.09 322.47 L 304.21 321.69 L 306.26 320.89 L 308.49 320.34 L 310.77 319.67 L 313.17 319.11 L 315.55 318.70 L 317.95 318.38 L 320.48 317.89 L 322.95 317.57 L 325.48 317.15 L 327.88 316.72 L 330.44 316.37 L 332.82 315.87 L 335.28 315.47 L 337.54 314.92 L 339.89 314.34" fill="none" stroke="black" stroke-width="1"/>
  <path d="M 343.35 275.68 L 336.54 275.58" fill="none" stroke="black" stroke-width="1"/>
  <path d="M 288.51 276.32 L 295.02 275.98" fill="none" stroke="black" stroke-width="1"/>
  <path d="M 247.12 275.98 L 240.57 275.61" fill="none" stroke="black" stroke-width="1"/>
  <path d="M 192.97 275.86 L 199.34 275.99" fill="none" stroke="black" stroke-width="1"/>
  <path d="M 218.35 307.86 L 216.92 313.93 L 215.64 319.89 L 214.06 325.94 L 212.82 331.93 L 211.39 337.90 L 209.87 343.95 L 208.59 349.84 L 207.06 355.89 L 205.78 361.94 L 204.29 367.96 L 202.91 373.91 L 201.52 379.85 L 200.19 385.98 L 198.71 391.98 L 197.29 397.86 L 195.94 403.94" fill="none" stroke="black" stroke-width="1"/>
  <path d="M 195.97 403.89 L 194.56 397.91 L 193.13 391.87 L 191.69 385.98 L 190.35 379.98 L 188.88 373.85 L 187.52 367.94 L 186.06 361.94 L 184.74 355.86 L 183.25 349.84 L 181.90 343.78 L 180.55 337.87 L 179.13 331.89 L 177.65 325.95 L 176.22 319.83 L 174.84 313.82 L 173.47 307.86" fill="none" stroke="black" stroke-width="1"/>
  <path d="M 160.79 291.97 L 167.17 291.97 L 173.44 292.05 L 179.58 292.05 L 185.98 291.98 L 192.29 291.93 L 198.50 292.06 L 204.75 292.05 L 211.08 291.90 L 217.34 291.92 L 223.59 291.98 L 230.01 291.97 L 236.25 291.91 L 242.56 291.98 L 248.72 291.95 L 255.15 292.03 L 261.39 291.95 L 267.63 292.02 L 273.90 291.97 L 280.16 291.88 L 286.49 291.89 L 292.89 291.97 L 299.00 291.96 L 305.45 291.97 L 311.58 292.03 L 317.98 291.88 L 324.16 292.03 L 330.46 291.94 L 336.82 292.02 L 343.07 291.93 L 349.33 291.97 L 355.73 291.90 L 361.96 292.04 L 368.26 291.94 L 374.61 292.02 L 380.78 291.95 L 387.08 291.94 L 393.43 291.87 L 399.72 292.01 L 405.91 291.88 L 412.33 291.89 L 418.59 291.96 L 424.79 291.97 L 431.02 292.02 L 437.31 292.01 L 443.72 291.92 L 449.91 292.00 L 456.27 291.88 L 462.52 291.92 L 468.86 291.92 L 475.09 291.99 L 481.35 291.94 L 487.72 291.92 L 494.01 291.92 L 500.32 292.01 L 506.57 292.01 L 512.87 291.92 L 519.12 291.93" fill="none" stroke="black" stroke-width="1"/>
  <path d="M 547.82 307.92 L 549.80 306.13 L 551.84 304.15 L 554.11 301.82 L 556.36 299.90 L 558.67 297.85 L 560.99 295.99 L 563.59 293.69 L 565.69 291.89 L 568.04 290.12 L 570.42 288.08 L 573.09 285.75 L 575.32 283.88 L 577.62 282.06 L 580.13 279.81 L 582.38 277.64 L 584.80 275.86 L 587.16 273.80 L 589.48 271.74 L 591.63 269.77 L 593.66 267.85 L 595.64 266.08 L 597.33 263.95 L 599.23 261.99 L 601.42 259.84 L 602.87 257.71 L 604.69 255.71 L 606.02 253.94 L 607.61 251.83 L 609.19 249.10 L 610.35 246.33 L 611.77 243.82 L 612.52 241.16 L 612.90 238.74 L 613.59 235.82 L 613.76 233.16 L 613.37 230.54 L 613.37 227.82 L 612.82 224.98 L 612.14 222.63 L 611.59 219.82 L 610.78 217.25 L 609.43 214.59 L 608.72 211.82 L 607.68 209.30 L 606.60 206.74 L 605.22 203.82 L 604.24 201.11 L 602.96 198.41 L 601.56 195.83 L 600.34 192.93 L 599.45 190.61 L 598.22 187.83 L 597.57 185.10 L 596.26 182.54 L 595.65 179.83" fill="none" stroke="black" stroke-width="1"/>
  <path d="M 538.24 100.08 L 535.06 105.41 L 531.91 110.82 L 528.64 115.99 L 525.39 121.32 L 522.28 126.64 L 519.06 132.00 L 515.90 137.29 L 512.73 142.66 L 509.38 148.10 L 506.28 153.36 L 503.08 158.62 L 499.96 164.10 L 496.69 169.40 L 493.50 174.76 L 490.30 180.01" fill="none" stroke="black" stroke-width="1"/>
  <path d="M 490.20 179.91 L 487.07 174.61 L 483.72 169.21 L 480.68 163.98 L 477.42 158.58 L 474.10 153.30 L 471.09 147.92 L 467.88 142.62 L 464.62 137.40 L 461.45 132.01 L 458.22 126.59 L 454.96 121.42 L 451.79 115.94 L 448.65 110.78 L 445.34 105.36 L 442.19 100.05" fill="none" stroke="black" stroke-width="1"/>
  <path d="M 435.87 99.98 L 435.80 106.24 L 435.91 112.57 L 435.86 119.01 L 435.97 125.26 L 435.96 131.75 L 435.90 138.01 L 435.81 144.42 L 435.82 150.59 L 435.94 156.98 L 435.94 163.41 L 435.95 169.66 L 435.79 175.97 L 435.87 182.31 L 435.81 188.66 L 435.82 194.98 L 435.83 201.40 L 435.92 207.78 L 435.89 214.11 L 435.81 220.43 L 435.98 226.64 L 435.95 233.11 L 435.90 239.46 L 435.96 245.67 L 435.83 252.10 L 435.91 258.44 L 435.97 264.73 L 435.94 270.98 L 435.84 277.33 L 435.84 283.66 L 435.87 290.06 L 435.97 296.44 L 435.89 302.82 L 435.86 309.13 L 435.95 315.41 L 435.91 321.81 L 435.93 328.06 L 435.87 334.35 L 435.95 340.73 L 436.00 347.09 L 435.83 353.54 L 435.95 359.84 L 435.82 366.15 L 435.95 372.42 L 435.84 378.72 L 435.92 385.07 L 435.95 391.42 L 435.98 397.79 L 435.88 404.13 L 435.82 410.51 L 435.99 416.83 L 435.89 423.10 L 435.99 429.43 L 435.91 435.82" fill="none" stroke="black" stroke-width="1"/>
  <path d="M 436.00 436.11 L 436.23 439.44 L 436.16 442.59 L 435.71 445.52 L 435.72 448.62 L 435.83 451.74 L 435.99 455.30 L 435.71 458.55 L 435.81 461.53" fill="none" stroke="black" stroke-width="1"/>
  <path d="M 461.52 483.82 L 461.42 489.81 L 461.48 495.75 L 461.50 501.79 L 461.44 507.82 L 461.47 513.96 L 461.46 519.88 L 461.49 525.97 L 461.44 531.92" fill="none" stroke="black" stroke-width="1"/>
  <path d="M 477.35 519.06 L 477.35 512.44" fill="none" stroke="black" stroke-width="1"/>
  <path d="M 487.02 531.88 L 487.04 525.84 L 487.07 519.93 L 487.01 513.88 L 487.12 507.90 L 487.12 501.85 L 487.15 495.78 L 487.01 489.85 L 487.10 483.86" fill="none" stroke="black" stroke-width="1"/>
  <path d="M 467.76 496.71 L 467.46 503.13" fill="none" stroke="black" stroke-width="1"/>
  <path d="M 499.92 461.70 L 499.69 458.85 L 499.85 455.72 L 499.89 453.08 L 499.94 449.94 L 499.91 447.16 L 499.68 444.22 L 499.60 441.32 L 499.53 438.43 L 499.59 435.74" fill="none" stroke="black" stroke-width="1"/>
  <path d="M 499.85 435.83 L 499.75 429.54 L 499.91 423.19 L 499.81 416.88 L 499.86 410.58 L 499.90 404.06 L 499.93 397.79 L 499.87 391.52 L 499.91 385.05 L 499.88 378.78 L 499.83 372.49 L 499.86 366.15 L 499.86 359.89 L 499.75 353.52 L 499.77 347.18 L 499.74 340.81 L 499.93 334.47 L 499.85 328.06 L 499.82 321.76 L 499.88 315.41 L 499.81 309.15 L 499.86 302.84 L 499.85 296.36 L 499.80 290.10 L 499.85 283.76 L 499.92 277.37 L 499.87 271.02 L 499.80 264.80 L 499.78 258.51 L 499.80 252.08 L 499.83 245.67 L 499.78 239.32 L 499.88 233.00 L 499.74 226.83 L 499.86 220.38 L 499.77 214.07 L 499.85 207.76 L 499.83 201.40 L 499.79 195.08 L 499.77 188.68 L 499.81 182.33 L 499.84 175.98 L 499.76 169.72 L 499.84 163.47 L 499.89 156.95 L 499.89 150.71 L 499.75 144.29 L 499.73 137.95 L 499.75 131.63 L 499.78 125.38 L 499.81 119.03 L 499.84 112.71 L 499.76 106.29 L 499.80 100.02" fill="none" stroke="black" stroke-width="1"/>
  <path d="M 489.49 128.97 L 490.62 135.25" fill="none" stroke="black" stroke-width="1"/>
  <path d="M 403.93 115.95 L 402.32 119.30 L 400.74 122.58 L 399.09 126.11 L 397.54 129.54 L 395.89 133.13 L 394.34 136.70 L 392.82 140.24 L 391.14 143.90 L 389.46 147.46 L 387.95 151.01 L 386.36 154.41 L 384.75 157.87 L 383.14 161.12 L 381.55 164.36 L 380.03 167.40 L 378.35 170.31 L 376.71 172.93 L 375.15 175.59 L 373.59 177.91 L 371.95 180.04 L 370.28 181.83 L 368.74 183.59 L 367.04 184.91 L 365.53 186.31 L 363.96 187.40 L 362.32 188.36 L 360.78 189.09 L 359.11 189.89 L 357.49 190.43 L 355.90 191.02 L 354.25 191.41 L 352.69 191.92 L 351.10 192.38 L 349.47 192.72 L 347.87 193.10 L 346.26 193.56 L 344.70 194.10 L 343.05 194.60 L 341.42 195.26 L 339.84 195.98" fill="none" stroke="black" stroke-width="1"/>
  <path d="M 339.82 196.03 L 338.20 195.29 L 336.63 194.64 L 334.97 194.19 L 333.44 193.58 L 331.76 193.19 L 330.26 192.71 L 328.58 192.27 L 327.07 191.90 L 325.41 191.40 L 323.89 190.98 L 322.38 190.35 L 320.70 189.83 L 319.13 189.09 L 317.51 188.29 L 315.99 187.29 L 314.32 186.23 L 312.81 184.90 L 311.12 183.50 L 309.43 181.81 L 307.93 179.95 L 306.35 177.75 L 304.72 175.49 L 303.04 172.79 L 301.52 170.21 L 299.89 167.20 L 298.31 164.27 L 296.78 161.11 L 295.10 157.79 L 293.46 154.44 L 291.89 150.94 L 290.31 147.48 L 288.67 143.84 L 287.09 140.26 L 285.46 136.65 L 283.78 132.99 L 282.25 129.50 L 280.56 125.98 L 279.03 122.55 L 277.49 119.15 L 275.82 115.93" fill="none" stroke="black" stroke-width="1"/>
  <path d="M 336.89 131.18 L 342.66 133.31" fill="none" stroke="black" stroke-width="1"/>
  <path d="M 336.95 146.96 L 342.93 148.71" fill="none" stroke="black" stroke-width="1"/>
  <path d="M 419.93 179.93 L 419.98 173.74 L 419.96 167.69 L 419.91 161.47 L 419.92 155.39 L 419.92 149.19 L 419.80 143.02 L 419.80 136.97 L 419.92 130.76 L 419.79 124.69 L 419.76 118.44 L 419.89 112.29 L 419.78 106.23 L 419.80 100.01" fill="none" stroke="black" stroke-width="1"/>
  <path d="M 419.91 100.07 L 416.27 105.23 L 412.55 110.16 L 409.05 115.35 L 405.44 120.43 L 401.77 125.53 L 398.19 130.61 L 394.52 135.65 L 390.92 140.66 L 387.12 145.91 L 383.55 150.91 L 379.91 155.99 L 376.24 161.01 L 372.68 166.13 L 368.99 171.31 L 365.49 176.30 L 361.68 181.41 L 358.10 186.55 L 354.53 191.57 L 350.95 196.62 L 347.16 201.84 L 343.56 206.84 L 339.96 211.95" fill="none" stroke="black" stroke-width="1"/>
  <path d="M 339.87 211.90 L 336.22 206.86 L 332.56 201.75 L 328.90 196.71 L 325.43 191.55 L 321.81 186.42 L 318.03 181.43 L 314.47 176.36 L 310.85 171.20 L 307.20 166.07 L 303.53 161.12 L 299.90 155.92 L 296.37 150.94 L 292.58 145.75 L 289.03 140.64 L 285.44 135.70 L 281.79 130.62 L 278.13 125.45 L 274.61 120.37 L 270.83 115.37 L 267.17 110.25 L 263.69 105.20 L 260.00 100.04" fill="none" stroke="black" stroke-width="1"/>
  <path d="M 259.90 99.96 L 259.96 106.21 L 259.92 112.19 L 259.95 118.42 L 259.81 124.62 L 259.86 130.79 L 259.88 136.89 L 259.81 143.00 L 259.95 149.15 L 259.86 155.37 L 259.80 161.50 L 259.91 167.63 L 259.89 173.73 L 259.84 179.95" fill="none" stroke="black" stroke-width="1"/>
  <path d="M 190.17 135.09 L 188.86 128.54" fill="none" stroke="black" stroke-width="1"/>
  <path d="M 179.87 100.09 L 179.89 106.44 L 179.90 112.79 L 179.92 119.03 L 179.97 125.42 L 179.91 131.81 L 179.80 138.18 L 179.96 144.43 L 179.88 150.72 L 179.89 157.05 L 179.92 163.40 L 179.97 169.81 L 179.93 176.04 L 179.98 182.44 L 179.98 188.76 L 179.87 195.20 L 179.97 201.52 L 179.84 207.71 L 180.00 214.14 L 179.93 220.55 L 180.02 226.80 L 180.02 233.20 L 179.93 239.41 L 179.88 245.81 L 179.89 252.05 L 180.04 258.52 L 180.00 264.86 L 179.87 271.17 L 179.93 277.54 L 179.99 283.79 L 180.00 290.19 L 180.05 296.48 L 179.97 302.87 L 179.88 309.12 L 179.94 315.41 L 179.91 321.77 L 180.02 328.06 L 179.92 334.50 L 179.91 340.76 L 180.07 347.20 L 180.06 353.41 L 180.08 359.80 L 180.08 366.16 L 179.93 372.45 L 179.90 378.86 L 179.99 385.20 L 179.96 391.58 L 179.99 397.83 L 179.93 404.08 L 180.03 410.53 L 180.03 416.89 L 179.94 423.24 L 180.09 429.54 L 180.02 435.84" fill="none" stroke="black" stroke-width="1"/>
  <path d="M 180.06 435.72 L 179.81 438.84 L 179.92 441.41 L 180.18 444.15 L 179.83 447.39 L 179.79 450.09 L 179.68 453.00 L 179.88 455.67 L 179.78 458.74 L 179.87 461.68" fill="none" stroke="black" stroke-width="1"/>
</svg>