<svg xmlns="http://www.w3.org/2000/svg" width="800" height="600" viewBox="0 0 800 600">
  <rect width="100%" height="100%" fill="white"/>
  <path d="M 90.31 557.48 L 89.74 556.64 L 89.33 555.73 L 88.86 554.89 L 88.32 554.22 L 87.75 553.58 L 87.28 552.85 L 86.80 552.11 L 86.23 551.52 L 85.77 550.76 L 85.20 550.12 L 84.76 549.41 L 84.19 548.54 L 83.80 547.52 L 83.24 546.68 L 82.71 545.46 L 82.35 544.43 L 81.87 542.99 L 81.55 541.69 L 81.13 539.95 L 80.85 538.34 L 80.50 536.32 L 80.27 534.33 L 80.11 531.96 L 79.79 529.71 L 79.59 527.09 L 79.40 524.60 L 79.30 521.81 L 79.07 519.10 L 78.88 516.16 L 78.79 513.32 L 78.72 510.34 L 78.54 507.36 L 78.47 504.32 L 78.31 501.33 L 78.10 498.40 L 78.07 495.33 L 77.85 492.42 L 77.80 489.48 L 77.62 486.74 L 77.49 483.88" fill="none" stroke="black" stroke-width="1"/>
  <path d="M 77.49 483.88 L 82.57 483.92 L 87.84 483.90 L 92.88 483.87 L 98.19 483.94 L 103.25 483.92" fill="none" stroke="black" stroke-width="1"/>
  <path d="M 103.10 483.83 L 102.92 486.62 L 102.82 489.45 L 102.61 492.35 L 102.59 495.31 L 102.42 498.25 L 102.38 501.31 L 102.31 504.43 L 102.18 507.35 L 102.03 510.35 L 101.97 513.32 L 101.77 516.16 L 101.72 519.12 L 101.53 521.84 L 101.42 524.62 L 101.20 527.25 L 101.05 529.74 L 100.81 532.06 L 100.59 534.36 L 100.40 536.45 L 100.02 538.38 L 99.66 540.12 L 99.33 541.73 L 99.00 543.17 L 98.52 544.47 L 98.11 545.58 L 97.63 546.71 L 97.17 547.65 L 96.66 548.57 L 96.11 549.32 L 95.64 550.14 L 95.06 550.86 L 94.59 551.54 L 94.11 552.18 L 93.52 552.86 L 92.99 553.49 L 92.46 554.22 L 91.98 554.98 L 91.43 555.72 L 90.85 556.66 L 90.44 557.47" fill="none" stroke="black" stroke-width="1"/>
  <path d="M 90.36 557.48 L 90.36 515.89" fill="none" stroke="black" stroke-width="1"/>
  <path d="M 93.37 521.88 L 93.92 528.22" fill="none" stroke="black" stroke-width="1"/>
  <path d="M 88.48 509.54 L 86.21 503.22" fill="none" stroke="black" stroke-width="1"/>
  <path d="M 58.30 474.33 L 64.59 474.36 L 70.68 474.36 L 77.04 474.26 L 83.31 474.26 L 89.46 474.29 L 95.66 474.25 L 101.91 474.34 L 108.14 474.30 L 114.50 474.26 L 120.71 474.28 L 126.96 474.30 L 133.08 474.43 L 139.30 474.33 L 145.62 474.39 L 151.87 474.28 L 158.07 474.26 L 164.33 474.31 L 170.51 474.33 L 176.75 474.42 L 183.01 474.36 L 189.25 474.36 L 195.43 474.38 L 201.71 474.40 L 208.08 474.38 L 214.22 474.34 L 220.41 474.40 L 226.79 474.29 L 232.89 474.44 L 239.21 474.33 L 245.34 474.40 L 251.69 474.33 L 257.85 474.31 L 264.19 474.30 L 270.34 474.45 L 276.61 474.42 L 282.76 474.41 L 288.99 474.46 L 295.40 474.42 L 301.55 474.37" fill="none" stroke="black" stroke-width="1"/>
  <path d="M 314.31 442.39 L 314.31 436.84 L 314.27 431.48 L 314.20 425.97 L 314.19 420.33 L 314.26 414.84 L 314.17 409.30 L 314.21 403.89" fill="none" stroke="black" stroke-width="1"/>
  <path d="M 333.43 407.24 L 333.24 410.54 L 333.69 413.64 L 333.34 416.74 L 333.37 420.10 L 333.57 423.11 L 333.41 426.49 L 333.69 429.69 L 333.54 432.73" fill="none" stroke="black" stroke-width="1"/>
  <path d="M 336.57 436.08 L 330.14 436.14" fill="none" stroke="black" stroke-width="1"/>
  <path d="M 339.80 429.49 L 342.17 429.01 L 344.42 428.36 L 346.78 427.94 L 349.27 427.45 L 351.84 427.11 L 354.25 426.67 L 356.68 426.30 L 359.26 425.93 L 361.63 425.46 L 364.20 425.12 L 366.51 424.59 L 368.99 424.15 L 371.27 423.58 L 373.51 422.92 L 375.70 422.23 L 377.69 421.35 L 379.48 420.40 L 381.42 419.32 L 383.06 417.95 L 384.61 416.75 L 385.93 415.16 L 387.19 413.57 L 388.21 411.62 L 389.22 409.84 L 390.08 407.76 L 390.81 405.67 L 391.39 403.39 L 392.05 401.15 L 392.46 398.70 L 393.03 396.37 L 393.53 393.82 L 393.85 391.43 L 394.16 388.96 L 394.61 386.42 L 394.95 383.88 L 395.40 381.45 L 395.81 379.07 L 396.31 376.61 L 396.93 374.24 L 397.45 371.98" fill="none" stroke="black" stroke-width="1"/>
  <path d="M 397.45 371.85 L 396.83 369.47 L 396.32 367.24 L 395.79 364.90 L 395.42 362.39 L 395.00 359.82 L 394.66 357.43 L 394.27 354.86 L 393.92 352.42 L 393.46 350.04 L 393.12 347.49 L 392.56 345.10 L 392.16 342.71 L 391.55 340.36 L 390.94 338.19 L 390.20 336.19 L 389.36 334.02 L 388.35 332.11 L 387.34 330.30 L 386.05 328.77 L 384.76 327.12 L 383.15 325.80 L 381.58 324.54 L 379.78 323.51 L 377.84 322.51 L 375.78 321.74 L 373.66 320.93 L 371.36 320.27 L 369.12 319.70 L 366.79 319.16 L 364.32 318.73 L 361.94 318.25 L 359.37 317.92 L 356.84 317.58 L 354.35 317.17 L 351.86 316.84 L 349.36 316.38 L 346.95 315.97 L 344.49 315.47 L 342.09 314.82 L 339.86 314.34" fill="none" stroke="black" stroke-width="1"/>
  <path d="M 339.89 314.34 L 337.54 314.92 L 335.28 315.47 L 332.82 315.87 L 330.44 316.37 L 327.88 316.72 L 325.48 317.15 L 322.95 317.57 L 320.48 317.89 L 317.95 318.38 L 315.55 318.70 L 313.17 319.11 L 310.77 319.67 L 308.49 320.34 L 306.26 320.89 L 304.21 321.69 L 302.09 322.47 L 300.19 323.42 L 298.37 324.49 L 296.86 325.85 L 295.19 327.07 L 293.91 328.67 L 292.62 330.25 L 291.60 332.08 L 290.59 333.97 L 289.75 336.05 L 289.01 338.14 L 288.30 340.38 L 287.77 342.67 L 287.38 345.11 L 286.80 347.45 L 286.35 349.85 L 285.98 352.40 L 285.55 354.82 L 285.23 357.40 L 284.76 359.96 L 284.44 362.38 L 284.02 364.83 L 283.53 367.23 L 283.04 369.62 L 282.39 371.85" fill="none" stroke="black" stroke-width="1"/>
  <path d="M 282.36 372.03 L 282.87 374.39 L 283.50 376.64 L 283.86 379.08 L 284.41 381.47 L 284.71 384.00 L 285.19 386.43 L 285.50 388.91 L 285.94 391.41 L 286.37 393.91 L 286.75 396.34 L 287.16 398.65 L 287.73 401.11 L 288.34 403.33 L 288.96 405.62 L 289.68 407.72 L 290.54 409.78 L 291.56 411.56 L 292.57 413.50 L 293.79 415.03 L 295.14 416.68 L 296.75 417.90 L 298.32 419.26 L 300.27 420.18 L 302.04 421.29 L 304.17 422.07 L 306.21 422.88 L 308.43 423.46 L 310.74 424.12 L 313.09 424.58 L 315.52 425.10 L 318.03 425.51 L 320.46 425.93 L 322.87 426.29 L 325.46 426.69 L 327.98 427.09 L 330.43 427.49 L 332.87 427.97 L 335.27 428.41 L 337.51 429.05 L 339.89 429.55" fill="none" stroke="black" stroke-width="1"/>
  <path d="M 352.63 442.34 L 353.61 442.95 L 354.55 443.38 L 355.58 443.89 L 356.47 444.54 L 357.47 445.22 L 358.40 445.79 L 359.38 446.40 L 360.32 447.05 L 361.22 447.65 L 362.25 448.28 L 363.19 448.77 L 364.17 449.41 L 365.07 449.81 L 366.09 450.39 L 366.98 450.72 L 368.01 451.15 L 368.96 451.49 L 369.94 451.66 L 370.88 451.73 L 371.86 451.84 L 372.72 451.80 L 373.77 451.65 L 374.72 451.46 L 375.69 451.15 L 376.66 450.74 L 377.61 450.38 L 378.47 449.86 L 379.52 449.40 L 380.49 448.78 L 381.44 448.26 L 382.45 447.60 L 383.35 447.03 L 384.29 446.35 L 385.26 445.77 L 386.21 445.21 L 387.18 444.52 L 388.04 443.99 L 389.09 443.35 L 390.09 442.81 L 391.01 442.31" fill="none" stroke="black" stroke-width="1"/>
  <path d="M 375.25 435.82 L 368.68 435.75" fill="none" stroke="black" stroke-width="1"/>
  <path d="M 371.89 432.66 L 371.88 429.75 L 371.93 427.11 L 371.96 423.88 L 371.83 421.22 L 371.74 418.43 L 371.88 415.57 L 371.60 412.61 L 371.90 409.67 L 371.80 407.04" fill="none" stroke="black" stroke-width="1"/>
  <path d="M 391.05 403.86 L 391.09 410.25 L 391.06 416.60 L 391.15 423.01 L 391.04 429.46 L 391.10 435.80 L 391.09 442.24" fill="none" stroke="black" stroke-width="1"/>
  <path d="M 391.15 442.36 L 392.13 442.84 L 393.05 443.39 L 393.93 444.05 L 394.96 444.57 L 395.87 445.22 L 396.86 445.81 L 397.81 446.45 L 398.76 447.08 L 399.67 447.66 L 400.66 448.31 L 401.54 448.86 L 402.56 449.44 L 403.49 450.00 L 404.47 450.42 L 405.41 450.84 L 406.38 451.20 L 407.40 451.49 L 408.29 451.70 L 409.27 451.73 L 410.20 451.88 L 411.13 451.75 L 412.12 451.70 L 413.14 451.44 L 414.04 451.20 L 414.99 450.77 L 415.97 450.43 L 416.85 449.92 L 417.89 449.45 L 418.87 448.81 L 419.82 448.32 L 420.73 447.70 L 421.75 447.09 L 422.71 446.40 L 423.68 445.82 L 424.59 445.26 L 425.61 444.58 L 426.59 444.03 L 427.54 443.41 L 428.47 442.81 L 429.47 442.37" fill="none" stroke="black" stroke-width="1"/>
  <path d="M 449.84 438.82 L 447.99 433.10" fill="none" stroke="black" stroke-width="1"/>
  <path d="M 448.49 432.52 L 448.50 429.25 L 448.52 426.21 L 448.34 423.00 L 448.39 419.63 L 448.39 416.67 L 448.61 413.49 L 448.73 410.41 L 448.72 407.11" fill="none" stroke="black" stroke-width="1"/>
  <path d="M 407.06 435.90 L 413.65 435.73" fill="none" stroke="black" stroke-width="1"/>
  <path d="M 410.50 432.94 L 410.33 430.05 L 410.62 427.39 L 410.37 424.09 L 410.31 421.28 L 410.50 418.67 L 410.36 415.77 L 410.46 412.75 L 410.14 410.09 L 410.20 407.06" fill="none" stroke="black" stroke-width="1"/>
  <path d="M 416.35 400.76 L 422.80 400.47" fill="none" stroke="black" stroke-width="1"/>
  <path d="M 429.38 404.01 L 429.33 410.44 L 429.45 416.84 L 429.49 423.25 L 429.49 429.57 L 429.46 436.03 L 429.49 442.32" fill="none" stroke="black" stroke-width="1"/>
  <path d="M 429.51 442.33 L 430.45 442.93 L 431.43 443.37 L 432.32 444.02 L 433.36 444.55 L 434.27 445.20 L 435.28 445.80 L 436.29 446.44 L 437.20 447.07 L 438.22 447.67 L 439.13 448.31 L 440.01 448.86 L 441.05 449.45 L 442.09 450.03 L 442.98 450.43 L 443.90 450.92 L 444.90 451.21 L 445.86 451.45 L 446.82 451.72 L 447.77 451.87 L 448.74 451.90 L 449.67 451.81 L 450.66 451.72 L 451.71 451.38 L 452.57 451.21 L 453.50 450.90 L 454.49 450.44 L 455.35 449.93 L 456.40 449.46 L 457.34 448.91 L 458.32 448.32 L 459.28 447.65 L 460.23 447.09 L 461.10 446.49 L 462.14 445.82 L 463.08 445.19 L 464.05 444.56 L 464.94 443.90 L 465.96 443.39 L 466.85 442.96 L 467.88 442.35" fill="none" stroke="black" stroke-width="1"/>
  <path d="M 467.88 442.35 L 467.86 435.98 L 467.97 429.47 L 467.96 423.16 L 467.85 416.77 L 467.96 410.47 L 467.92 403.99" fill="none" stroke="black" stroke-width="1"/>
  <path d="M 481.78 402.70 L 486.49 398.28" fill="none" stroke="black" stroke-width="1"/>
  <path d="M 486.83 406.97 L 486.99 409.76 L 486.64 412.72 L 487.11 415.43 L 486.81 418.57 L 486.65 421.49 L 486.97 424.15 L 486.97 427.17 L 486.88 430.08 L 486.93 432.88" fill="none" stroke="black" stroke-width="1"/>
  <path d="M 486.32 432.97 L 487.49 439.29" fill="none" stroke="black" stroke-width="1"/>
  <path d="M 467.93 442.37 L 468.79 442.82 L 469.83 443.40 L 470.78 444.04 L 471.74 444.56 L 472.75 445.09 L 473.64 445.80 L 474.68 446.38 L 475.54 447.06 L 476.53 447.74 L 477.44 448.28 L 478.47 448.92 L 479.35 449.41 L 480.22 449.93 L 481.25 450.38 L 482.24 450.85 L 483.16 451.15 L 484.10 451.38 L 485.07 451.65 L 486.09 451.65 L 486.98 451.83 L 487.96 451.70 L 488.90 451.64 L 489.83 451.31 L 490.82 451.14 L 491.72 450.66 L 492.74 450.37 L 493.68 449.96 L 494.66 449.39 L 495.55 448.77 L 496.59 448.26 L 497.58 447.60 L 498.52 447.03 L 499.39 446.46 L 500.44 445.77 L 501.37 445.14 L 502.37 444.52 L 503.24 444.00 L 504.30 443.35 L 505.32 442.83 L 506.22 442.32" fill="none" stroke="black" stroke-width="1"/>
  <path d="M 506.29 442.32 L 506.34 436.79 L 506.19 431.36 L 506.35 425.77 L 506.18 420.36 L 506.20 414.78 L 506.20 409.45 L 506.24 403.88" fill="none" stroke="black" stroke-width="1"/>
  <path d="M 525.49 407.15 L 525.43 409.97 L 525.74 412.80 L 525.48 415.64 L 525.34 418.43 L 525.47 421.56 L 525.37 424.47 L 525.50 427.30 L 525.50 430.07 L 525.69 432.90" fill="none" stroke="black" stroke-width="1"/>
  <path d="M 525.02 432.72 L 526.05 438.97" fill="none" stroke="black" stroke-width="1"/>
  <path d="M 506.21 442.27 L 507.08 442.78 L 508.13 443.32 L 509.04 443.94 L 510.06 444.50 L 510.98 445.10 L 511.98 445.75 L 512.99 446.46 L 513.90 447.02 L 514.93 447.68 L 515.83 448.26 L 516.71 448.93 L 517.75 449.40 L 518.74 449.93 L 519.67 450.39 L 520.60 450.80 L 521.60 451.16 L 522.49 451.36 L 523.52 451.67 L 524.45 451.76 L 525.44 451.85 L 526.45 451.72 L 527.36 451.66 L 528.29 451.48 L 529.28 451.15 L 530.16 450.72 L 531.20 450.37 L 532.10 449.87 L 533.12 449.38 L 534.09 448.80 L 535.04 448.24 L 535.91 447.63 L 536.96 447.00 L 537.92 446.35 L 538.88 445.72 L 539.86 445.13 L 540.79 444.46 L 541.80 443.81 L 542.71 443.28 L 543.68 442.74 L 544.63 442.23" fill="none" stroke="black" stroke-width="1"/>
  <path d="M 564.87 439.17 L 562.84 433.06" fill="none" stroke="black" stroke-width="1"/>
  <path d="M 563.61 432.79 L 563.46 429.85 L 563.82 427.09 L 563.68 424.07 L 563.94 421.40 L 563.75 418.68 L 563.85 415.53 L 563.72 413.02 L 563.72 410.24 L 563.97 407.13" fill="none" stroke="black" stroke-width="1"/>
  <path d="M 550.75 400.16 L 544.80 401.34" fill="none" stroke="black" stroke-width="1"/>
  <path d="M 544.56 403.98 L 544.60 410.29 L 544.60 416.78 L 544.57 423.10 L 544.51 429.46 L 544.61 435.82 L 544.60 442.23" fill="none" stroke="black" stroke-width="1"/>
  <path d="M 544.57 442.31 L 545.54 442.93 L 546.50 443.35 L 547.53 443.92 L 548.43 444.53 L 549.47 445.10 L 550.36 445.78 L 551.35 446.33 L 552.29 447.05 L 553.15 447.75 L 554.21 448.28 L 555.09 448.88 L 556.14 449.42 L 557.02 449.98 L 558.07 450.40 L 558.98 450.77 L 559.99 451.18 L 560.86 451.35 L 561.92 451.69 L 562.80 451.87 L 563.84 451.87 L 564.87 451.72 L 565.76 451.69 L 566.78 451.41 L 567.67 451.19 L 568.72 450.76 L 569.59 450.42 L 570.50 449.96 L 571.50 449.44 L 572.50 448.92 L 573.42 448.31 L 574.32 447.79 L 575.33 447.08 L 576.36 446.39 L 577.24 445.81 L 578.25 445.17 L 579.15 444.57 L 580.10 443.95 L 581.07 443.40 L 581.99 442.92 L 582.98 442.36" fill="none" stroke="black" stroke-width="1"/>
  <path d="M 582.98 442.34 L 583.04 436.79 L 582.92 431.31 L 582.98 425.91 L 583.00 420.25 L 583.07 414.86 L 582.92 409.32 L 583.01 403.85" fill="none" stroke="black" stroke-width="1"/>
  <path d="M 621.41 397.53 L 58.37 397.53" fill="none" stroke="black" stroke-width="1"/>
  <path d="M 58.30 403.95 L 64.62 404.03 L 70.98 403.93 L 77.36 404.01 L 83.69 403.87 L 89.87 404.00 L 96.19 403.98 L 102.54 403.97 L 108.92 403.94 L 115.29 404.02 L 121.57 403.93 L 127.85 403.93 L 134.23 403.89 L 140.47 404.00 L 146.87 403.95 L 153.19 404.03 L 159.55 403.95 L 165.84 403.88 L 172.15 403.90 L 178.44 403.87 L 184.84 403.90 L 191.19 403.99 L 197.48 403.89 L 203.77 403.98 L 210.08 403.90 L 216.43 404.03 L 222.86 403.98 L 229.03 404.03 L 235.52 404.04 L 241.72 403.89 L 248.04 403.93 L 254.45 404.03 L 260.81 404.01 L 267.16 403.99 L 273.34 403.87 L 279.77 403.95 L 286.06 404.04 L 292.43 403.92 L 298.76 404.02 L 305.12 404.00 L 311.38 403.95 L 317.77 403.93 L 324.04 404.04 L 330.25 403.89 L 336.74 403.92 L 343.02 403.98 L 349.27 404.01 L 355.55 404.02 L 361.90 403.86 L 368.38 403.89 L 374.60 403.96 L 380.96 403.88 L 387.20 403.86 L 393.53 403.99 L 399.89 403.88 L 406.21 403.95 L 412.57 403.99 L 419.00 404.00 L 425.31 403.95 L 431.49 403.91 L 437.90 403.97 L 444.26 403.93 L 450.60 404.01 L 456.81 403.86 L 463.10 403.89 L 469.53 403.96 L 475.81 403.94 L 482.09 403.98 L 488.41 404.00 L 494.89 403.87 L 501.16 404.01 L 507.39 404.00 L 513.88 403.85 L 520.05 403.89 L 526.36 404.00 L 532.74 403.90 L 539.08 403.95 L 545.44 403.95 L 551.80 403.97 L 558.01 403.90 L 564.39 403.88 L 570.75 404.03 L 576.99 403.95 L 583.29 403.98 L 589.64 403.90 L 596.05 404.00 L 602.36 403.89 L 608.64 404.00 L 615.04 403.87 L 621.34 403.94" fill="none" stroke="black" stroke-width="1"/>
  <path d="M 621.41 442.31 L 58.37 442.31" fill="none" stroke="black" stroke-width="1"/>
  <path d="M 83.89 442.28 L 83.83 435.94 L 84.02 429.59 L 83.87 423.09 L 84.05 416.83 L 84.01 410.43 L 84.03 404.02" fill="none" stroke="black" stroke-width="1"/>
  <path d="M 96.72 400.48 L 103.08 400.63" fill="none" stroke="black" stroke-width="1"/>
  <path d="M 96.78 379.51 L 90.39 377.39" fill="none" stroke="black" stroke-width="1"/>
  <path d="M 99.94 356.02 L 95.92 352.03 L 91.91 348.05 L 87.96 344.03 L 83.95 340.00 L 79.96 336.07 L 75.87 332.03 L 71.85 328.11 L 67.93 324.03" fill="none" stroke="black" stroke-width="1"/>
  <path d="M 87.14 327.31 L 93.27 327.44" fill="none" stroke="black" stroke-width="1"/>
  <path d="M 106.16 330.13 L 112.82 330.83" fill="none" stroke="black" stroke-width="1"/>
  <path d="M 109.73 317.42 L 113.17 317.27 L 116.11 317.69 L 119.18 317.48 L 122.50 317.60" fill="none" stroke="black" stroke-width="1"/>
  <path d="M 132.00 307.81 L 130.00 305.97 L 127.49 303.97 L 125.82 302.00 L 123.43 299.85 L 120.87 297.91 L 118.79 295.79 L 116.22 293.86 L 114.07 291.89 L 111.73 289.94 L 109.00 288.02 L 107.06 286.07 L 104.40 283.93 L 101.99 282.17 L 99.86 279.78 L 97.14 278.21 L 94.89 275.98 L 92.59 274.18 L 90.36 272.23 L 88.16 269.92 L 86.00 268.02 L 83.81 266.05 L 82.15 263.95 L 80.14 261.90 L 78.22 260.05 L 76.62 258.30 L 75.18 256.06 L 73.78 254.28 L 72.01 252.09 L 70.64 249.58 L 69.23 246.82 L 67.84 244.11 L 67.16 241.62 L 66.87 238.67 L 66.03 236.13 L 66.03 233.47 L 66.17 230.63 L 66.27 228.15 L 66.68 225.33 L 67.71 222.69 L 68.08 220.15 L 68.92 217.68 L 69.81 214.64 L 70.99 212.16 L 72.39 209.51 L 73.24 206.58 L 74.53 204.16 L 75.98 201.31 L 77.21 198.80 L 78.23 196.17 L 79.27 193.33 L 80.42 190.87 L 81.61 188.17 L 82.53 185.65 L 83.47 182.88 L 84.21 180.17" fill="none" stroke="black" stroke-width="1"/>
  <path d="M 190.17 135.09 L 188.86 128.54" fill="none" stroke="black" stroke-width="1"/>
  <path d="M 179.87 100.09 L 179.89 106.44 L 179.90 112.79 L 179.92 119.03 L 179.97 125.42 L 179.91 131.81 L 179.80 138.18 L 179.96 144.43 L 179.88 150.72 L 179.89 157.05 L 179.92 163.40 L 179.97 169.81 L 179.93 176.04 L 179.98 182.44 L 179.98 188.76 L 179.87 195.20 L 179.97 201.52 L 179.84 207.71 L 180.00 214.14 L 179.93 220.55 L 180.02 226.80 L 180.02 233.20 L 179.93 239.41 L 179.88 245.81 L 179.89 252.05 L 180.04 258.52 L 180.00 264.86 L 179.87 271.17 L 179.93 277.54 L 179.99 283.79 L 180.00 290.19 L 180.05 296.48 L 179.97 302.87 L 179.88 309.12 L 179.94 315.41 L 179.91 321.77 L 180.02 328.06 L 179.92 334.50 L 179.91 340.76 L 180.07 347.20 L 180.06 353.41 L 180.08 359.80 L 180.08 366.16 L 179.93 372.45 L 179.90 378.86 L 179.99 385.20 L 179.96 391.58 L 179.99 397.83 L 179.93 404.08 L 180.03 410.53 L 180.03 416.89 L 179.94 423.24 L 180.09 429.54 L 180.02 435.84" fill="none" stroke="black" stroke-width="1"/>
  <path d="M 179.99 435.87 L 180.25 442.14 L 180.62 448.35 L 180.86 454.73 L 181.12 460.88 L 181.41 467.19 L 181.65 473.39 L 181.92 479.68 L 182.28 485.93 L 182.48 492.20 L 182.83 498.51 L 183.12 504.85 L 183.28 511.08 L 183.51 517.37 L 183.92 523.52 L 184.20 529.79 L 184.47 536.08 L 184.74 542.32 L 184.96 548.67 L 185.17 554.86 L 185.58 561.18 L 185.77 567.37 L 186.05 573.73 L 186.35 579.93" fill="none" stroke="black" stroke-width="1"/>
  <path d="M 186.24 579.80 L 191.97 579.78 L 197.96 579.78 L 203.61 579.88 L 209.55 579.92 L 215.42 579.78 L 221.18 579.78 L 227.01 579.92 L 232.75 579.78 L 238.55 579.94 L 244.51 579.86 L 250.25 579.89" fill="none" stroke="black" stroke-width="1"/>
  <path d="M 250.22 579.86 L 249.94 573.52 L 249.75 567.42 L 249.48 561.00 L 249.16 554.79 L 248.89 548.48 L 248.62 542.29 L 248.30 536.00 L 248.04 529.85 L 247.72 523.54 L 247.41 517.32 L 247.12 510.94 L 246.91 504.73 L 246.64 498.52 L 246.43 492.29 L 246.10 486.06 L 245.87 479.76 L 245.47 473.40 L 245.34 467.21 L 244.99 460.98 L 244.74 454.63 L 244.43 448.37 L 244.08 442.22 L 243.89 435.90" fill="none" stroke="black" stroke-width="1"/>
  <path d="M 244.17 435.74 L 244.08 438.38 L 243.94 441.47 L 244.06 444.38 L 244.19 447.05 L 244.08 449.94 L 243.87 452.88 L 244.10 455.91 L 244.00 458.49 L 244.08 461.39" fill="none" stroke="black" stroke-width="1"/>
  <path d="M 253.44 436.04 L 259.86 436.09" fill="none" stroke="black" stroke-width="1"/>
  <path d="M 256.79 432.62 L 256.76 429.49 L 256.64 426.16 L 256.74 422.91 L 256.85 419.62 L 256.93 416.68 L 256.86 413.54 L 256.87 410.36 L 256.95 407.12" fill="none" stroke="black" stroke-width="1"/>
  <path d="M 275.91 403.85 L 276.00 409.25 L 275.88 414.79 L 275.87 420.38 L 276.02 425.78 L 275.98 431.25 L 275.92 436.75 L 275.94 442.30" fill="none" stroke="black" stroke-width="1"/>
  <path d="M 291.99 435.56 L 298.34 435.47" fill="none" stroke="black" stroke-width="1"/>
  <path d="M 294.96 432.74 L 295.18 429.87 L 295.02 426.90 L 295.06 424.12 L 294.71 421.35 L 294.75 418.62 L 295.14 415.77 L 294.75 412.48 L 294.96 410.08 L 294.95 407.01" fill="none" stroke="black" stroke-width="1"/>
  <path d="M 293.95 402.81 L 289.78 398.11" fill="none" stroke="black" stroke-width="1"/>
  <path d="M 269.06 380.30 L 263.98 376.73" fill="none" stroke="black" stroke-width="1"/>
  <path d="M 231.08 391.09 L 231.18 385.22 L 231.05 379.40 L 231.20 373.53 L 231.10 367.69 L 231.08 361.80 L 231.19 355.94" fill="none" stroke="black" stroke-width="1"/>
  <path d="M 231.12 358.86 L 225.05 358.82" fill="none" stroke="black" stroke-width="1"/>
  <path d="M 224.76 355.86 L 224.68 361.89 L 224.76 367.70 L 224.72 373.74 L 224.64 379.63 L 224.64 385.64 L 224.66 391.52 L 224.71 397.50" fill="none" stroke="black" stroke-width="1"/>
  <path d="M 225.04 401.65 L 230.92 399.20" fill="none" stroke="black" stroke-width="1"/>
  <path d="M 237.51 403.89 L 237.52 410.19 L 237.50 416.67 L 237.60 423.06 L 237.53 429.52 L 237.54 435.78 L 237.57 442.25" fill="none" stroke="black" stroke-width="1"/>
  <path d="M 216.98 438.66 L 219.70 433.03" fill="none" stroke="black" stroke-width="1"/>
  <path d="M 218.27 432.84 L 218.50 429.46 L 218.15 426.46 L 218.30 423.26 L 218.27 419.97 L 218.35 416.87 L 218.34 413.87 L 218.16 410.42 L 218.27 407.36" fill="none" stroke="black" stroke-width="1"/>
  <path d="M 211.90 403.77 L 211.88 400.71 L 212.11 397.25 L 212.04 393.99 L 211.91 390.97 L 212.10 388.12 L 212.05 384.61 L 211.86 381.75 L 211.74 378.55 L 211.99 375.36 L 211.82 372.00 L 211.88 368.56 L 211.57 365.62 L 211.77 362.59 L 211.57 359.34 L 211.72 356.07" fill="none" stroke="black" stroke-width="1"/>
  <path d="M 199.29 379.04 L 192.89 377.93" fill="none" stroke="black" stroke-width="1"/>
  <path d="M 179.91 375.37 L 180.04 368.52" fill="none" stroke="black" stroke-width="1"/>
  <path d="M 182.04 361.31 L 177.74 356.55" fill="none" stroke="black" stroke-width="1"/>
  <path d="M 195.33 333.09 L 196.18 326.73" fill="none" stroke="black" stroke-width="1"/>
  <path d="M 195.96 323.95 L 194.30 329.26 L 192.77 334.69 L 191.20 339.90 L 189.49 345.18 L 187.90 350.67 L 186.27 355.93" fill="none" stroke="black" stroke-width="1"/>
  <path d="M 179.93 355.94 L 179.93 403.92" fill="none" stroke="black" stroke-width="1"/>
  <path d="M 192.48 419.79 L 189.04 419.74 L 185.99 419.76 L 183.07 419.67 L 179.74 420.13 L 176.67 420.08 L 173.16 419.87 L 170.08 420.00 L 167.00 420.10" fill="none" stroke="black" stroke-width="1"/>
  <path d="M 179.87 407.04 L 179.75 410.03 L 180.07 413.47 L 180.23 416.51 L 180.24 419.82 L 180.24 422.89 L 180.30 426.03 L 180.29 429.62 L 180.18 432.61" fill="none" stroke="black" stroke-width="1"/>
  <path d="M 180.39 432.51 L 179.99 439.12" fill="none" stroke="black" stroke-width="1"/>
  <path d="M 199.12 442.32 L 198.17 442.78 L 197.21 443.37 L 196.20 443.98 L 195.30 444.56 L 194.41 445.24 L 193.39 445.82 L 192.37 446.54 L 191.49 447.10 L 190.48 447.66 L 189.58 448.35 L 188.64 449.00 L 187.68 449.49 L 186.74 450.07 L 185.77 450.49 L 184.86 450.93 L 183.85 451.27 L 182.96 451.51 L 181.94 451.78 L 180.94 451.94 L 180.02 451.96 L 179.12 451.96 L 178.10 451.78 L 177.19 451.54 L 176.17 451.26 L 175.26 450.91 L 174.24 450.48 L 173.31 449.95 L 172.31 449.48 L 171.25 448.96 L 170.37 448.33 L 169.36 447.75 L 168.44 447.09 L 167.42 446.44 L 166.50 445.80 L 165.45 445.11 L 164.57 444.54 L 163.53 444.03 L 162.63 443.35 L 161.69 442.78 L 160.70 442.29" fill="none" stroke="black" stroke-width="1"/>
  <path d="M 142.45 439.06 L 141.38 432.91" fill="none" stroke="black" stroke-width="1"/>
  <path d="M 141.73 432.67 L 141.51 430.01 L 141.83 426.80 L 141.68 424.13 L 141.36 421.33 L 141.28 418.21 L 141.42 415.39 L 141.25 412.89 L 141.57 410.04 L 141.36 406.97" fill="none" stroke="black" stroke-width="1"/>
  <path d="M 147.77 404.16 L 147.88 401.36 L 147.79 398.25 L 147.98 395.25 L 147.89 392.05 L 147.62 389.05 L 148.04 385.99 L 147.73 382.94 L 147.67 380.18 L 148.10 376.83 L 147.95 374.05 L 147.82 370.87 L 147.85 367.87 L 147.76 365.07 L 148.06 362.10 L 147.83 359.05 L 147.91 355.95" fill="none" stroke="black" stroke-width="1"/>
  <path d="M 141.47 355.86 L 139.85 350.50 L 138.23 345.16 L 136.67 339.86 L 135.01 334.55 L 133.51 329.32 L 131.88 323.95" fill="none" stroke="black" stroke-width="1"/>
  <path d="M 122.35 339.94 L 122.35 355.94" fill="none" stroke="black" stroke-width="1"/>
  <path d="M 122.37 355.86 L 121.83 359.00 L 121.46 362.17 L 120.99 365.53 L 120.61 368.80 L 120.30 372.15 L 119.80 375.64 L 119.33 379.16 L 119.00 382.51 L 118.58 385.91 L 118.19 389.30 L 117.79 392.57 L 117.32 395.84 L 116.87 398.96 L 116.37 402.00 L 115.88 404.84 L 115.32 407.63 L 114.64 410.14 L 114.14 412.58 L 113.44 414.68 L 112.78 416.72 L 111.94 418.32 L 111.25 419.94 L 110.37 421.06 L 109.55 422.35 L 108.70 423.15 L 107.71 424.08 L 106.70 424.77 L 105.77 425.29 L 104.79 425.74 L 103.75 426.11 L 102.70 426.48 L 101.68 426.69 L 100.67 426.98 L 99.59 427.17 L 98.54 427.48 L 97.51 427.70 L 96.41 428.10 L 95.47 428.43 L 94.54 429.01 L 93.50 429.49" fill="none" stroke="black" stroke-width="1"/>
  <path d="M 93.54 429.49 L 92.58 429.03 L 91.56 428.44 L 90.57 427.99 L 89.50 427.73 L 88.40 427.45 L 87.38 427.20 L 86.24 426.93 L 85.25 426.73 L 84.12 426.48 L 83.14 426.16 L 82.17 425.76 L 81.10 425.35 L 80.15 424.69 L 79.16 424.16 L 78.36 423.22 L 77.37 422.43 L 76.52 421.28 L 75.75 420.03 L 75.13 418.41 L 74.35 416.81 L 73.85 414.77 L 73.20 412.68 L 72.64 410.22 L 72.26 407.73 L 71.80 404.93 L 71.50 402.10 L 71.12 398.94 L 70.88 395.95 L 70.54 392.74 L 70.37 389.41 L 70.22 386.09 L 69.92 382.63 L 69.64 379.25 L 69.50 375.75 L 69.25 372.32 L 69.06 368.92 L 68.82 365.69 L 68.57 362.28 L 68.24 359.12 L 67.99 355.99" fill="none" stroke="black" stroke-width="1"/>
  <path d="M 77.56 355.94 L 282.30 355.94" fill="none" stroke="black" stroke-width="1"/>
  <path d="M 275.95 355.95 L 275.97 359.16 L 275.94 362.26" fill="none" stroke="black" stroke-width="1"/>
  <path d="M 275.98 362.42 L 269.73 362.47 L 263.51 362.42 L 257.46 362.42 L 251.27 362.33 L 244.98 362.43 L 238.80 362.37 L 232.60 362.35 L 226.35 362.37 L 220.29 362.38 L 214.08 362.34 L 207.86 362.43 L 201.67 362.40 L 195.44 362.32 L 189.16 362.40 L 183.05 362.35 L 176.79 362.33 L 170.60 362.37 L 164.57 362.40 L 158.27 362.29 L 152.10 362.42 L 145.95 362.30 L 139.72 362.42 L 133.48 362.36 L 127.40 362.34 L 121.14 362.40 L 114.83 362.29 L 108.81 362.24 L 102.60 362.27 L 96.26 362.33 L 90.18 362.25 L 83.94 362.32" fill="none" stroke="black" stroke-width="1"/>
  <path d="M 83.98 362.25 L 84.10 359.05 L 84.03 355.86" fill="none" stroke="black" stroke-width="1"/>
  <path d="M 90.28 359.30 L 93.36 359.30 L 96.50 359.28 L 99.64 359.40 L 102.92 359.07 L 105.89 359.23 L 109.21 359.20 L 112.28 359.38 L 115.18 359.09 L 118.75 359.34 L 121.49 359.52 L 124.82 359.53 L 128.18 359.19 L 131.04 359.35 L 134.43 359.38 L 137.17 359.12 L 140.45 359.21 L 143.76 359.18 L 147.10 359.44 L 150.16 359.08 L 152.92 359.10 L 156.33 359.35 L 159.64 359.05 L 162.34 359.19 L 165.94 359.47 L 169.00 359.50 L 172.00 359.12 L 174.90 359.06 L 178.40 359.47 L 181.68 359.04 L 184.79 359.30 L 187.73 359.08 L 190.90 359.42 L 194.03 359.18 L 197.13 359.16 L 200.44 359.48 L 203.39 359.39 L 206.41 359.24 L 209.51 359.42 L 213.01 359.51 L 216.17 359.48 L 219.19 359.21 L 222.29 359.51 L 225.38 359.43 L 228.80 359.34 L 231.63 359.28 L 234.86 359.21 L 237.97 359.29 L 240.90 359.50 L 244.27 359.19 L 247.54 359.39 L 250.64 359.12 L 253.75 359.38 L 257.08 359.34 L 259.84 359.21 L 263.20 359.45 L 266.52 359.14 L 269.44 359.26" fill="none" stroke="black" stroke-width="1"/>
  <path d="M 272.94 343.23 L 266.20 342.76" fill="none" stroke="black" stroke-width="1"/>
  <path d="M 304.62 334.19 L 298.11 332.98" fill="none" stroke="black" stroke-width="1"/>
  <path d="M 291.90 339.94 L 291.90 355.94" fill="none" stroke="black" stroke-width="1"/>
  <path d="M 291.84 355.85 L 291.51 358.96 L 291.27 362.16 L 291.08 365.40 L 290.78 368.81 L 290.53 372.19 L 290.35 375.65 L 290.19 379.14 L 289.93 382.54 L 289.62 385.88 L 289.49 389.33 L 289.24 392.56 L 288.98 395.88 L 288.62 399.04 L 288.37 402.04 L 288.05 404.88 L 287.61 407.68 L 287.08 410.17 L 286.68 412.64 L 286.04 414.68 L 285.53 416.78 L 284.91 418.47 L 284.13 420.00 L 283.28 421.28 L 282.52 422.40 L 281.64 423.20 L 280.73 424.12 L 279.80 424.69 L 278.79 425.32 L 277.76 425.72 L 276.76 426.13 L 275.74 426.40 L 274.66 426.70 L 273.69 426.99 L 272.53 427.17 L 271.41 427.45 L 270.41 427.69 L 269.43 428.05 L 268.35 428.40 L 267.28 428.99 L 266.38 429.45" fill="none" stroke="black" stroke-width="1"/>
  <path d="M 266.34 429.53 L 265.31 428.94 L 264.37 428.47 L 263.41 428.13 L 262.33 427.75 L 261.33 427.53 L 260.25 427.22 L 259.17 427.01 L 258.16 426.74 L 257.09 426.37 L 256.09 426.17 L 255.00 425.84 L 254.06 425.35 L 253.09 424.79 L 252.12 424.15 L 251.27 423.32 L 250.28 422.41 L 249.34 421.21 L 248.58 420.01 L 247.89 418.33 L 247.05 416.78 L 246.31 414.66 L 245.69 412.64 L 245.08 410.24 L 244.51 407.68 L 243.95 404.85 L 243.46 402.04 L 243.01 399.00 L 242.51 395.88 L 242.12 392.53 L 241.65 389.33 L 241.22 385.92 L 240.83 382.54 L 240.50 379.18 L 240.03 375.65 L 239.70 372.27 L 239.22 368.81 L 238.75 365.42 L 238.38 362.16 L 237.85 359.02 L 237.46 355.85" fill="none" stroke="black" stroke-width="1"/>
  <path d="M 237.52 355.94 L 237.52 339.94" fill="none" stroke="black" stroke-width="1"/>
  <path d="M 234.32 355.94 L 234.32 461.51" fill="none" stroke="black" stroke-width="1"/>
  <path d="M 243.92 474.30 L 243.92 483.90" fill="none" stroke="black" stroke-width="1"/>
  <path d="M 264.86 503.56 L 267.42 509.10" fill="none" stroke="black" stroke-width="1"/>
  <path d="M 273.14 528.69 L 272.41 522.32" fill="none" stroke="black" stroke-width="1"/>
  <path d="M 269.51 515.89 L 269.51 557.48" fill="none" stroke="black" stroke-width="1"/>
  <path d="M 269.57 557.56 L 270.11 556.65 L 270.56 555.79 L 270.99 555.08 L 271.60 554.25 L 272.13 553.55 L 272.66 552.86 L 273.16 552.25 L 273.73 551.50 L 274.24 550.80 L 274.79 550.08 L 275.37 549.31 L 275.81 548.48 L 276.38 547.47 L 276.79 546.59 L 277.31 545.49 L 277.69 544.33 L 278.14 542.88 L 278.50 541.58 L 278.80 539.89 L 279.20 538.23 L 279.43 536.23 L 279.78 534.22 L 280.06 532.00 L 280.24 529.62 L 280.46 527.01 L 280.62 524.52 L 280.72 521.83 L 280.92 519.05 L 281.08 516.22 L 281.18 513.29 L 281.32 510.34 L 281.40 507.36 L 281.52 504.35 L 281.60 501.36 L 281.66 498.46 L 281.82 495.40 L 282.00 492.53 L 282.06 489.58 L 282.12 486.82 L 282.34 483.99" fill="none" stroke="black" stroke-width="1"/>
  <path d="M 282.25 483.95 L 277.15 483.96 L 272.08 483.95 L 266.87 483.99 L 261.84 483.98 L 256.64 483.94" fill="none" stroke="black" stroke-width="1"/>
  <path d="M 256.74 483.83 L 256.98 486.63 L 257.03 489.43 L 257.10 492.37 L 257.27 495.28 L 257.29 498.26 L 257.48 501.28 L 257.50 504.20 L 257.69 507.31 L 257.74 510.22 L 257.91 513.26 L 258.07 516.20 L 258.16 519.05 L 258.30 521.70 L 258.46 524.54 L 258.58 527.08 L 258.84 529.65 L 259.05 531.90 L 259.30 534.27 L 259.61 536.31 L 259.88 538.29 L 260.21 539.93 L 260.58 541.63 L 260.93 543.08 L 261.39 544.37 L 261.82 545.45 L 262.30 546.62 L 262.84 547.63 L 263.27 548.48 L 263.74 549.34 L 264.30 550.06 L 264.79 550.71 L 265.35 551.46 L 265.83 552.13 L 266.43 552.79 L 266.90 553.56 L 267.49 554.15 L 268.09 554.85 L 268.53 555.66 L 268.95 556.55 L 269.52 557.41" fill="none" stroke="black" stroke-width="1"/>
  <path d="M 218.29 531.80 L 218.38 525.75 L 218.23 519.72 L 218.25 513.80 L 218.38 507.76 L 218.30 501.75 L 218.29 495.76 L 218.35 489.83 L 218.34 483.82" fill="none" stroke="black" stroke-width="1"/>
  <path d="M 211.92 483.90 L 211.92 474.30" fill="none" stroke="black" stroke-width="1"/>
  <path d="M 227.89 483.94 L 226.75 487.97 L 225.67 491.93 L 224.49 496.23 L 223.48 500.40 L 222.39 504.70 L 221.31 509.16 L 220.25 513.65 L 219.13 517.98 L 218.01 522.38 L 216.95 526.67 L 215.92 530.89 L 214.76 535.00 L 213.64 538.87 L 212.53 542.77 L 211.37 546.19 L 210.27 549.77 L 209.13 552.81 L 207.96 555.79 L 206.81 558.12 L 205.60 560.61 L 204.37 562.30 L 203.17 564.09 L 201.95 565.31 L 200.68 566.38 L 199.32 567.10 L 198.14 567.69 L 196.91 567.88 L 195.57 568.22 L 194.35 568.21 L 192.97 568.19 L 191.75 567.91 L 190.35 567.81 L 189.05 567.49 L 187.73 567.29 L 186.49 567.00 L 185.11 566.84 L 183.84 566.73 L 182.51 566.67 L 181.24 566.82 L 179.92 567.00" fill="none" stroke="black" stroke-width="1"/>
  <path d="M 179.95 567.02 L 178.57 566.82 L 177.37 566.70 L 175.98 566.82 L 174.76 566.87 L 173.41 567.05 L 172.14 567.33 L 170.92 567.65 L 169.52 567.85 L 168.19 567.99 L 166.90 568.24 L 165.59 568.27 L 164.30 568.27 L 163.09 568.02 L 161.73 567.74 L 160.49 567.00 L 159.19 566.43 L 157.98 565.29 L 156.71 564.14 L 155.56 562.32 L 154.27 560.65 L 153.10 558.16 L 151.91 555.82 L 150.66 552.82 L 149.59 549.80 L 148.55 546.22 L 147.33 542.79 L 146.16 538.85 L 145.10 535.01 L 143.93 530.89 L 142.90 526.66 L 141.81 522.32 L 140.72 517.96 L 139.63 513.61 L 138.54 509.12 L 137.44 504.75 L 136.36 500.35 L 135.35 496.08 L 134.17 491.86 L 132.97 487.90 L 131.95 483.87" fill="none" stroke="black" stroke-width="1"/>
  <path d="M 115.95 474.30 L 115.95 483.90" fill="none" stroke="black" stroke-width="1"/>
  <path d="M 147.94 483.90 L 147.94 474.30" fill="none" stroke="black" stroke-width="1"/>
  <path d="M 147.94 496.70 L 179.93 515.89" fill="none" stroke="black" stroke-width="1"/>
  <path d="M 179.93 515.89 L 218.32 515.89" fill="none" stroke="black" stroke-width="1"/>
  <path d="M 218.40 515.89 L 217.71 514.44 L 217.18 512.92 L 216.58 511.33 L 216.05 509.81 L 215.58 508.15 L 214.98 506.63 L 214.40 504.99 L 213.91 503.42 L 213.30 501.78 L 212.82 500.26 L 212.18 498.64 L 211.67 497.19 L 210.96 495.75 L 210.41 494.27 L 209.73 493.01 L 209.01 491.57 L 208.27 490.40 L 207.42 489.14 L 206.52 488.17 L 205.62 487.04 L 204.68 486.18 L 203.57 485.31 L 202.47 484.64 L 201.30 483.91 L 200.15 483.26 L 198.85 482.78 L 197.60 482.29 L 196.25 481.86 L 194.82 481.45 L 193.55 481.10 L 192.23 480.69 L 190.79 480.43 L 189.43 480.14 L 187.99 479.80 L 186.66 479.55 L 185.22 479.15 L 183.86 478.73 L 182.49 478.43 L 181.15 478.01 L 179.86 477.57" fill="none" stroke="black" stroke-width="1"/>
  <path d="M 179.93 477.50 L 179.93 515.89" fill="none" stroke="black" stroke-width="1"/>
  <path d="M 179.93 515.89 L 211.92 496.70" fill="none" stroke="black" stroke-width="1"/>
  <path d="M 196.24 496.71 L 195.86 503.11" fill="none" stroke="black" stroke-width="1"/>
  <path d="M 190.04 506.22 L 189.17 499.72" fill="none" stroke="black" stroke-width="1"/>
  <path d="M 193.53 519.99 L 198.45 524.74" fill="none" stroke="black" stroke-width="1"/>
  <path d="M 192.64 531.88 L 192.62 525.97 L 192.62 519.87 L 192.69 513.90 L 192.66 507.93 L 192.72 501.90 L 192.65 495.93 L 192.68 489.98 L 192.69 483.92" fill="none" stroke="black" stroke-width="1"/>
  <path d="M 179.93 487.10 L 178.30 487.87 L 176.62 488.59 L 174.91 489.28 L 173.18 489.94 L 171.45 490.61 L 169.74 491.30 L 168.06 492.02 L 166.43 492.79 L 164.86 493.62 L 163.38 494.54 L 162.00 495.56 L 160.74 496.70 L 159.60 497.96 L 158.58 499.34 L 157.67 500.82 L 156.83 502.39 L 156.06 504.02 L 155.34 505.70 L 154.66 507.41 L 153.99 509.14 L 153.32 510.87 L 152.63 512.58 L 151.91 514.26 L 151.14 515.89" fill="none" stroke="black" stroke-width="1"/>
  <path d="M 151.14 515.89 L 151.91 517.52 L 152.63 519.20 L 153.32 520.92 L 153.99 522.65 L 154.66 524.38 L 155.34 526.09 L 156.06 527.77 L 156.83 529.40 L 157.67 530.96 L 158.58 532.44 L 159.60 533.82 L 160.74 535.09 L 162.00 536.22 L 163.38 537.24 L 164.86 538.16 L 166.43 539.00 L 168.06 539.77 L 169.74 540.49 L 171.45 541.17 L 173.18 541.84 L 174.91 542.51 L 176.62 543.20 L 178.30 543.92 L 179.93 544.68" fill="none" stroke="black" stroke-width="1"/>
  <path d="M 179.93 544.68 L 181.56 543.92 L 183.24 543.20 L 184.96 542.51 L 186.69 541.84 L 188.42 541.17 L 190.13 540.49 L 191.81 539.77 L 193.44 539.00 L 195.00 538.16 L 196.48 537.24 L 197.86 536.22 L 199.13 535.09 L 200.26 533.82 L 201.28 532.44 L 202.20 530.96 L 203.04 529.40 L 203.81 527.77 L 204.53 526.09 L 205.21 524.38 L 205.88 522.65 L 206.55 520.92 L 207.24 519.20 L 207.96 517.52 L 208.73 515.89" fill="none" stroke="black" stroke-width="1"/>
  <path d="M 208.73 515.89 L 207.96 514.26 L 207.24 512.58 L 206.55 510.87 L 205.88 509.14 L 205.21 507.41 L 204.53 505.70 L 203.81 504.02 L 203.04 502.39 L 202.20 500.82 L 201.28 499.34 L 200.26 497.96 L 199.13 496.70 L 197.86 495.56 L 196.48 494.54 L 195.00 493.62 L 193.44 492.79 L 191.81 492.02 L 190.13 491.30 L 188.42 490.61 L 186.69 489.94 L 184.96 489.28 L 183.24 488.59 L 181.56 487.87 L 179.93 487.10" fill="none" stroke="black" stroke-width="1"/>
  <path d="M 179.81 493.57 L 179.91 500.00" fill="none" stroke="black" stroke-width="1"/>
  <path d="M 169.81 507.72 L 164.04 504.52" fill="none" stroke="black" stroke-width="1"/>
  <path d="M 141.54 515.89 L 179.93 515.89" fill="none" stroke="black" stroke-width="1"/>
  <path d="M 179.93 515.89 L 147.94 535.09" fill="none" stroke="black" stroke-width="1"/>
  <path d="M 168.49 529.38 L 171.85 534.67" fill="none" stroke="black" stroke-width="1"/>
  <path d="M 179.99 554.20 L 181.37 553.71 L 182.60 553.33 L 184.01 553.01 L 185.29 552.61 L 186.61 552.19 L 188.04 551.96 L 189.37 551.61 L 190.80 551.33 L 192.07 550.92 L 193.54 550.66 L 194.95 550.22 L 196.21 549.89 L 197.55 549.40 L 198.77 548.97 L 200.05 548.43 L 201.20 547.84 L 202.24 547.14 L 203.45 546.44 L 204.55 545.55 L 205.49 544.70 L 206.39 543.72 L 207.28 542.60 L 208.14 541.31 L 208.85 540.17 L 209.52 538.87 L 210.25 537.47 L 210.96 536.06 L 211.50 534.56 L 212.04 533.08 L 212.66 531.49 L 213.30 529.92 L 213.75 528.33 L 214.28 526.78 L 214.81 525.13 L 215.31 523.54 L 215.89 521.94 L 216.40 520.48 L 217.02 518.84 L 217.71 517.36 L 218.24 515.87" fill="none" stroke="black" stroke-width="1"/>
  <path d="M 205.40 512.62 L 205.79 519.42" fill="none" stroke="black" stroke-width="1"/>
  <path d="M 211.92 535.09 L 179.93 515.89" fill="none" stroke="black" stroke-width="1"/>
  <path d="M 179.93 515.89 L 179.93 554.28" fill="none" stroke="black" stroke-width="1"/>
  <path d="M 179.89 554.23 L 178.67 553.84 L 177.28 553.37 L 175.87 553.09 L 174.58 552.64 L 173.28 552.23 L 171.83 552.00 L 170.51 551.77 L 169.07 551.37 L 167.73 551.05 L 166.33 550.70 L 164.98 550.29 L 163.66 549.94 L 162.40 549.53 L 161.09 549.02 L 159.85 548.37 L 158.66 547.89 L 157.53 547.15 L 156.40 546.49 L 155.31 545.60 L 154.36 544.76 L 153.38 543.68 L 152.56 542.66 L 151.83 541.53 L 150.97 540.23 L 150.27 538.82 L 149.56 537.53 L 149.02 536.02 L 148.29 534.62 L 147.69 533.01 L 147.12 531.56 L 146.51 529.88 L 146.01 528.39 L 145.54 526.75 L 144.93 525.19 L 144.36 523.55 L 143.84 522.01 L 143.28 520.51 L 142.69 518.90 L 142.12 517.45 L 141.46 515.93" fill="none" stroke="black" stroke-width="1"/>
  <path d="M 141.47 515.90 L 142.03 514.36 L 142.71 512.95 L 143.28 511.46 L 143.86 509.86 L 144.47 508.26 L 144.96 506.69 L 145.43 505.15 L 146.05 503.51 L 146.68 501.90 L 147.16 500.37 L 147.68 498.79 L 148.34 497.32 L 149.07 495.87 L 149.62 494.42 L 150.25 492.98 L 151.03 491.73 L 151.84 490.47 L 152.63 489.30 L 153.60 488.24 L 154.43 487.19 L 155.49 486.33 L 156.48 485.45 L 157.55 484.81 L 158.74 484.03 L 159.97 483.42 L 161.18 482.87 L 162.49 482.34 L 163.75 481.92 L 165.06 481.54 L 166.43 481.12 L 167.83 480.72 L 169.17 480.42 L 170.49 480.11 L 171.93 479.75 L 173.23 479.43 L 174.68 479.07 L 175.98 478.62 L 177.38 478.31 L 178.59 477.78 L 179.99 477.41" fill="none" stroke="black" stroke-width="1"/>
  <path d="M 179.97 467.94 L 181.90 467.51 L 183.93 467.05 L 185.95 466.85 L 188.09 466.76 L 190.16 466.88 L 192.36 466.82 L 194.59 466.81 L 196.67 466.97 L 198.72 466.93 L 200.91 466.94 L 202.94 466.74 L 205.02 466.49 L 206.96 465.91 L 208.89 465.34 L 210.58 464.30 L 212.45 463.24 L 214.00 461.59 L 215.61 459.92 L 216.91 457.53 L 218.28 455.14 L 219.40 451.94 L 220.41 448.72 L 221.19 444.80 L 222.05 440.82 L 222.58 436.35 L 223.29 431.72 L 223.82 426.64 L 224.21 421.66 L 224.65 416.25 L 224.91 410.92 L 225.28 405.39 L 225.46 399.74 L 225.75 394.10 L 225.96 388.38 L 226.23 382.79 L 226.48 377.12 L 226.84 371.75 L 227.12 366.20 L 227.62 361.06 L 227.96 355.88" fill="none" stroke="black" stroke-width="1"/>
  <path d="M 227.84 355.98 L 231.91 352.04 L 235.89 348.01 L 239.87 343.86 L 243.81 339.90 L 247.90 336.00 L 251.89 331.92 L 255.91 327.95 L 259.86 323.87" fill="none" stroke="black" stroke-width="1"/>
  <path d="M 192.97 275.86 L 199.34 275.99" fill="none" stroke="black" stroke-width="1"/>
  <path d="M 240.57 275.61 L 247.12 275.98" fill="none" stroke="black" stroke-width="1"/>
  <path d="M 288.51 276.32 L 295.02 275.98" fill="none" stroke="black" stroke-width="1"/>
  <path d="M 336.54 275.58 L 343.35 275.68" fill="none" stroke="black" stroke-width="1"/>
  <path d="M 330.34 323.96 L 324.13 323.97 L 317.89 323.91 L 311.48 323.87 L 305.28 323.86 L 298.99 323.99 L 292.79 323.89 L 286.42 323.92 L 280.28 323.90 L 273.95 323.92 L 267.61 323.95 L 261.36 323.90 L 255.17 324.04 L 248.79 323.94 L 242.62 323.89 L 236.30 323.87 L 229.98 324.05 L 223.78 323.95 L 217.55 323.96 L 211.28 323.98 L 205.02 323.99 L 198.81 324.02 L 192.49 324.02 L 186.14 323.95 L 179.98 323.99 L 173.68 323.93 L 167.29 324.00 L 161.12 324.01 L 154.84 323.89 L 148.51 324.01 L 142.29 323.94 L 136.10 323.88 L 129.83 323.93 L 123.55 323.90 L 117.16 323.91 L 110.91 323.88 L 104.62 323.90 L 98.45 324.04 L 92.14 323.89 L 85.98 324.06 L 79.60 324.07 L 73.30 323.97 L 67.11 324.03 L 60.88 324.02 L 54.53 324.00 L 48.37 324.05 L 41.98 323.99 L 35.70 323.99 L 29.49 323.98" fill="none" stroke="black" stroke-width="1"/>
  <path d="M 36.02 346.37 L 42.44 346.46 L 48.85 346.41 L 55.26 346.30 L 61.71 346.46 L 67.97 346.37 L 74.40 346.40 L 80.71 346.43 L 87.17 346.37 L 93.57 346.37 L 99.96 346.46 L 106.30 346.31 L 112.76 346.39 L 119.27 346.33 L 125.55 346.27 L 131.93 346.34 L 138.46 346.32 L 144.74 346.27 L 151.20 346.39 L 157.61 346.31 L 163.99 346.39 L 170.32 346.40 L 176.74 346.29 L 183.23 346.36 L 189.49 346.39 L 195.96 346.37 L 202.41 346.39 L 208.72 346.27 L 215.04 346.39 L 221.61 346.37 L 227.89 346.38 L 234.38 346.37 L 240.66 346.32 L 247.20 346.44 L 253.60 346.40 L 259.96 346.31 L 266.21 346.35 L 272.76 346.29 L 279.03 346.40 L 285.57 346.43 L 291.90 346.33 L 298.37 346.37 L 304.76 346.35 L 310.99 346.26 L 317.39 346.29 L 323.88 346.35" fill="none" stroke="black" stroke-width="1"/>
  <path d="M 314.21 336.81 L 307.85 336.89 L 301.43 336.87 L 295.01 336.74 L 288.55 336.73 L 282.17 336.88 L 275.88 336.89 L 269.45 336.74 L 263.12 336.82 L 256.67 336.78 L 250.18 336.77 L 243.86 336.89 L 237.50 336.71 L 230.99 336.72 L 224.73 336.84 L 218.34 336.70 L 211.88 336.86 L 205.49 336.70 L 199.16 336.87 L 192.63 336.86 L 186.31 336.87 L 179.87 336.69 L 173.50 336.79 L 167.12 336.78 L 160.72 336.86 L 154.29 336.73 L 147.83 336.85 L 141.58 336.86 L 135.13 336.77 L 128.79 336.81 L 122.26 336.75 L 116.00 336.72 L 109.51 336.78 L 103.14 336.84 L 96.76 336.69 L 90.36 336.83 L 83.89 336.84 L 77.58 336.81 L 71.06 336.73 L 64.69 336.84 L 58.25 336.66 L 51.89 336.74 L 45.56 336.75" fill="none" stroke="black" stroke-width="1"/>
  <path d="M 55.40 343.21 L 61.40 343.41" fill="none" stroke="black" stroke-width="1"/>
  <path d="M 67.97 339.94 L 67.97 355.94" fill="none" stroke="black" stroke-width="1"/>
  <path d="M 35.96 356.02 L 42.21 356.03 L 48.50 356.06 L 54.77 356.04 L 60.95 356.02 L 67.33 356.07 L 73.60 355.99 L 79.77 355.98 L 86.02 355.95 L 92.32 356.04 L 98.53 355.91 L 104.81 355.95 L 111.03 355.88 L 117.31 355.89 L 123.57 355.96 L 129.96 356.02 L 136.20 355.97 L 142.37 355.88 L 148.67 355.96 L 154.92 355.94 L 161.25 355.99 L 167.51 356.03 L 173.75 355.90 L 179.99 355.92 L 186.14 355.93 L 192.55 355.88 L 198.64 355.87 L 204.93 355.85 L 211.16 355.88 L 217.54 355.82 L 223.86 355.99 L 229.95 355.99 L 236.38 355.94 L 242.60 355.83 L 248.86 355.89 L 255.12 355.82 L 261.25 355.96 L 267.53 355.94 L 273.76 355.92 L 280.09 355.88 L 286.33 355.79 L 292.60 355.96 L 298.88 355.95 L 305.19 355.85 L 311.46 355.85 L 317.67 355.85 L 323.93 355.85" fill="none" stroke="black" stroke-width="1"/>
  <path d="M 341.49 371.93 L 339.89 370.33 L 338.29 371.93 L 339.89 373.53 L 341.49 371.93" fill="none" stroke="black" stroke-width="1"/>
  <path d="M 358.99 400.12 L 352.51 401.70" fill="none" stroke="black" stroke-width="1"/>
  <path d="M 352.74 403.86 L 352.71 409.38 L 352.62 414.82 L 352.66 420.46 L 352.63 425.89 L 352.54 431.46 L 352.53 436.81 L 352.60 442.40" fill="none" stroke="black" stroke-width="1"/>
  <path d="M 352.71 442.41 L 351.71 443.01 L 350.79 443.45 L 349.85 444.01 L 348.87 444.62 L 347.90 445.18 L 346.95 445.87 L 345.90 446.56 L 345.03 447.14 L 344.10 447.83 L 343.11 448.37 L 342.19 448.89 L 341.18 449.50 L 340.27 449.94 L 339.26 450.48 L 338.28 450.88 L 337.34 451.25 L 336.37 451.59 L 335.42 451.76 L 334.51 451.88 L 333.50 451.94 L 332.62 451.83 L 331.58 451.75 L 330.68 451.47 L 329.65 451.24 L 328.74 450.84 L 327.73 450.46 L 326.86 449.97 L 325.81 449.48 L 324.83 448.86 L 323.89 448.34 L 322.85 447.62 L 321.97 447.10 L 321.10 446.44 L 320.05 445.82 L 319.14 445.23 L 318.12 444.57 L 317.12 444.00 L 316.20 443.39 L 315.32 442.85 L 314.28 442.35" fill="none" stroke="black" stroke-width="1"/>
  <path d="M 314.37 442.25 L 313.39 442.70 L 312.45 443.31 L 311.51 443.87 L 310.52 444.51 L 309.61 445.14 L 308.59 445.78 L 307.63 446.47 L 306.66 447.08 L 305.70 447.71 L 304.73 448.33 L 303.70 448.91 L 302.81 449.49 L 301.94 450.01 L 300.88 450.49 L 299.93 450.93 L 298.95 451.29 L 297.97 451.62 L 297.03 451.81 L 296.00 451.96 L 295.11 452.00 L 294.11 451.90 L 293.18 451.82 L 292.24 451.62 L 291.26 451.32 L 290.29 450.84 L 289.34 450.54 L 288.36 450.12 L 287.42 449.55 L 286.40 449.01 L 285.51 448.41 L 284.56 447.77 L 283.59 447.17 L 282.54 446.60 L 281.67 445.89 L 280.69 445.18 L 279.75 444.63 L 278.70 444.03 L 277.84 443.45 L 276.91 442.88 L 275.92 442.40" fill="none" stroke="black" stroke-width="1"/>
  <path d="M 275.84 442.40 L 274.95 442.85 L 273.92 443.43 L 273.05 444.02 L 272.01 444.60 L 271.02 445.22 L 270.09 445.84 L 269.13 446.48 L 268.18 447.10 L 267.14 447.64 L 266.26 448.33 L 265.31 448.82 L 264.35 449.45 L 263.49 449.97 L 262.43 450.43 L 261.39 450.85 L 260.52 451.20 L 259.59 451.40 L 258.60 451.70 L 257.69 451.71 L 256.69 451.88 L 255.71 451.86 L 254.77 451.69 L 253.82 451.46 L 252.85 451.19 L 251.83 450.71 L 250.94 450.41 L 250.06 450.02 L 249.02 449.43 L 248.02 448.94 L 247.10 448.30 L 246.16 447.67 L 245.18 447.07 L 244.32 446.35 L 243.27 445.80 L 242.30 445.08 L 241.35 444.55 L 240.37 444.05 L 239.43 443.38 L 238.55 442.91 L 237.52 442.34" fill="none" stroke="black" stroke-width="1"/>
  <path d="M 237.53 442.31 L 236.66 442.90 L 235.60 443.36 L 234.69 444.03 L 233.67 444.54 L 232.65 445.23 L 231.74 445.80 L 230.73 446.39 L 229.81 447.08 L 228.77 447.75 L 227.88 448.32 L 226.90 448.84 L 225.95 449.47 L 224.93 449.95 L 224.02 450.46 L 223.04 450.92 L 222.09 451.24 L 221.10 451.45 L 220.17 451.75 L 219.14 451.88 L 218.25 451.93 L 217.21 451.80 L 216.34 451.75 L 215.36 451.56 L 214.43 451.24 L 213.49 450.80 L 212.52 450.47 L 211.48 449.94 L 210.62 449.48 L 209.58 448.97 L 208.72 448.34 L 207.84 447.75 L 206.82 447.10 L 205.94 446.38 L 204.92 445.82 L 203.88 445.18 L 203.02 444.57 L 202.09 444.01 L 201.11 443.39 L 200.25 442.78 L 199.21 442.34" fill="none" stroke="black" stroke-width="1"/>
  <path d="M 199.14 442.32 L 199.22 435.87 L 199.15 429.61 L 199.13 423.11 L 199.08 416.76 L 199.27 410.30 L 199.19 404.00" fill="none" stroke="black" stroke-width="1"/>
  <path d="M 205.70 410.36 L 203.60 412.45 L 201.31 414.86 L 199.33 416.62 L 196.87 419.10 L 195.02 421.18 L 192.60 423.03 L 190.66 425.06 L 188.66 427.14 L 186.58 429.37 L 184.40 431.74 L 182.14 433.67 L 179.92 435.82" fill="none" stroke="black" stroke-width="1"/>
  <path d="M 180.06 435.72 L 179.81 438.84 L 179.92 441.41 L 180.18 444.15 L 179.83 447.39 L 179.79 450.09 L 179.68 453.00 L 179.88 455.67 L 179.78 458.74 L 179.87 461.68" fill="none" stroke="black" stroke-width="1"/>
  <path d="M 179.87 467.87 L 177.83 467.52 L 175.91 466.98 L 173.91 466.76 L 171.75 466.70 L 169.53 466.77 L 167.47 466.76 L 165.32 466.83 L 163.17 466.91 L 160.96 466.94 L 158.92 466.89 L 156.79 466.74 L 154.82 466.43 L 152.91 465.89 L 150.94 465.28 L 149.21 464.19 L 147.38 463.18 L 145.87 461.60 L 144.22 459.87 L 142.91 457.39 L 141.55 455.09 L 140.40 451.85 L 139.43 448.67 L 138.55 444.65 L 137.79 440.78 L 137.17 436.17 L 136.55 431.67 L 136.12 426.56 L 135.63 421.62 L 135.31 416.30 L 134.93 410.87 L 134.74 405.20 L 134.38 399.70 L 134.14 393.98 L 133.89 388.35 L 133.58 382.70 L 133.37 377.08 L 132.98 371.57 L 132.74 366.16 L 132.38 360.95 L 131.90 355.85" fill="none" stroke="black" stroke-width="1"/>
  <path d="M 128.74 356.00 L 128.80 361.92 L 128.74 367.66 L 128.69 373.50 L 128.65 379.46 L 128.62 385.34 L 128.69 391.15" fill="none" stroke="black" stroke-width="1"/>
  <path d="M 135.22 397.49 L 135.22 391.48 L 135.25 385.61 L 135.10 379.61 L 135.06 373.73 L 135.10 367.79 L 135.08 361.83 L 135.09 355.85" fill="none" stroke="black" stroke-width="1"/>
  <path d="M 134.93 359.35 L 128.65 359.57" fill="none" stroke="black" stroke-width="1"/>
  <path d="M 125.55 355.94 L 125.55 461.51" fill="none" stroke="black" stroke-width="1"/>
  <path d="M 122.29 442.37 L 122.27 436.81 L 122.29 431.39 L 122.29 425.85 L 122.35 420.38 L 122.41 414.84 L 122.30 409.44 L 122.37 403.92" fill="none" stroke="black" stroke-width="1"/>
  <path d="M 103.39 407.31 L 103.34 410.71 L 103.12 413.65 L 103.32 416.95 L 103.05 419.97 L 103.26 422.89 L 103.32 426.01 L 103.11 429.31 L 103.17 432.49" fill="none" stroke="black" stroke-width="1"/>
  <path d="M 102.01 433.45 L 105.01 438.99" fill="none" stroke="black" stroke-width="1"/>
  <path d="M 83.93 442.39 L 84.94 442.91 L 85.85 443.43 L 86.88 444.06 L 87.76 444.60 L 88.81 445.16 L 89.67 445.85 L 90.58 446.51 L 91.58 447.12 L 92.52 447.66 L 93.50 448.36 L 94.52 448.94 L 95.41 449.49 L 96.31 449.94 L 97.32 450.47 L 98.28 450.84 L 99.24 451.24 L 100.14 451.43 L 101.16 451.75 L 102.15 451.77 L 103.08 451.92 L 104.01 451.90 L 105.01 451.74 L 105.96 451.53 L 106.94 451.22 L 107.91 450.79 L 108.87 450.44 L 109.90 449.97 L 110.80 449.45 L 111.80 448.93 L 112.74 448.30 L 113.76 447.60 L 114.68 447.06 L 115.66 446.50 L 116.61 445.78 L 117.61 445.19 L 118.55 444.52 L 119.59 443.93 L 120.49 443.33 L 121.37 442.87 L 122.42 442.28" fill="none" stroke="black" stroke-width="1"/>
  <path d="M 122.45 442.30 L 123.36 442.75 L 124.35 443.34 L 125.30 443.93 L 126.25 444.52 L 127.27 445.08 L 128.15 445.77 L 129.19 446.49 L 130.05 447.05 L 130.92 447.62 L 131.95 448.28 L 132.97 448.92 L 133.86 449.42 L 134.77 449.88 L 135.76 450.41 L 136.66 450.80 L 137.67 451.18 L 138.62 451.47 L 139.58 451.69 L 140.62 451.82 L 141.49 451.87 L 142.49 451.69 L 143.41 451.69 L 144.31 451.42 L 145.34 451.18 L 146.21 450.80 L 147.26 450.41 L 148.17 449.85 L 149.19 449.42 L 150.15 448.83 L 151.13 448.28 L 152.04 447.64 L 153.06 447.05 L 154.10 446.43 L 154.99 445.77 L 155.92 445.12 L 156.93 444.52 L 157.83 443.90 L 158.86 443.34 L 159.73 442.73 L 160.79 442.30" fill="none" stroke="black" stroke-width="1"/>
  <path d="M 160.74 442.27 L 160.68 436.80 L 160.71 431.33 L 160.72 425.73 L 160.64 420.25 L 160.70 414.92 L 160.65 409.37 L 160.70 403.88" fill="none" stroke="black" stroke-width="1"/>
  <path d="M 160.68 401.53 L 167.05 400.45" fill="none" stroke="black" stroke-width="1"/>
  <path d="M 166.02 381.21 L 162.10 375.70" fill="none" stroke="black" stroke-width="1"/>
  <path d="M 154.33 410.26 L 156.49 412.57 L 158.32 414.67 L 160.63 416.53 L 162.66 418.58 L 164.73 420.75 L 167.05 422.98 L 169.30 425.13 L 171.32 427.20 L 173.23 429.63 L 175.43 431.34 L 177.74 433.72 L 179.75 435.78" fill="none" stroke="black" stroke-width="1"/>
  <path d="M 179.87 435.93 L 178.98 429.65 L 178.04 423.42 L 177.28 417.29 L 176.26 411.00 L 175.53 404.79 L 174.58 398.54 L 173.61 392.39 L 172.81 386.08 L 171.84 379.92 L 171.03 373.76 L 170.14 367.58 L 169.20 361.27 L 168.25 355.11 L 167.41 348.79 L 166.62 342.64 L 165.61 336.37 L 164.79 330.21 L 163.94 323.92 L 162.98 317.72 L 162.19 311.44 L 161.27 305.27 L 160.40 299.14 L 159.51 292.93 L 158.50 286.67 L 157.66 280.33 L 156.79 274.17 L 155.93 267.98 L 154.96 261.80 L 154.14 255.59 L 153.21 249.21 L 152.45 243.04 L 151.40 236.78 L 150.65 230.66 L 149.80 224.41 L 148.83 218.13 L 148.00 212.02 L 147.13 205.73 L 146.16 199.43 L 145.28 193.28 L 144.43 187.12 L 143.47 180.80 L 142.65 174.57 L 141.72 168.39 L 140.91 162.26 L 139.95 156.06 L 139.03 149.78 L 138.20 143.48 L 137.32 137.31 L 136.41 131.10 L 135.46 124.79 L 134.54 118.73 L 133.79 112.47 L 132.92 106.24 L 131.97 99.98" fill="none" stroke="black" stroke-width="1"/>
  <path d="M 141.57 100.09 L 144.74 105.50 L 147.97 110.83 L 151.21 116.12 L 154.32 121.43 L 157.53 126.81 L 160.83 132.08 L 164.00 137.41 L 167.18 142.68 L 170.36 148.06 L 173.45 153.36 L 176.67 158.62 L 179.95 164.07 L 183.20 169.44 L 186.38 174.70 L 189.52 180.04" fill="none" stroke="black" stroke-width="1"/>
  <path d="M 189.44 179.97 L 192.68 174.68 L 195.86 169.39 L 199.01 164.06 L 202.26 158.60 L 205.38 153.30 L 208.72 148.07 L 211.85 142.58 L 215.10 137.34 L 218.30 132.04 L 221.46 126.67 L 224.69 121.31 L 227.79 116.08 L 230.99 110.70 L 234.27 105.42 L 237.48 100.05" fill="none" stroke="black" stroke-width="1"/>
  <path d="M 243.87 100.04 L 243.81 106.28 L 243.92 112.67 L 243.83 119.05 L 243.81 125.38 L 243.91 131.72 L 243.92 138.02 L 243.90 144.43 L 243.82 150.79 L 243.93 157.04 L 243.81 163.47 L 243.87 169.82 L 243.96 176.14 L 243.92 182.35 L 243.82 188.82 L 243.81 195.18 L 243.89 201.43 L 243.92 207.86 L 243.91 214.21 L 243.90 220.43 L 243.87 226.87 L 243.91 233.06 L 243.92 239.43 L 243.79 245.78 L 243.91 252.17 L 243.88 258.57 L 243.80 264.78 L 243.93 271.09 L 243.83 277.52 L 243.79 283.80 L 243.95 290.27 L 243.82 296.57 L 243.86 302.79 L 243.85 309.25 L 243.82 315.49 L 243.96 321.91 L 243.89 328.12 L 243.86 334.46 L 243.90 340.95 L 243.80 347.14 L 243.94 353.47 L 243.83 359.82 L 243.80 366.26 L 243.84 372.65 L 243.82 378.97 L 243.79 385.22 L 243.86 391.49 L 243.87 397.90 L 243.84 404.22 L 243.83 410.63 L 243.90 416.85 L 243.84 423.31 L 243.80 429.62 L 243.88 435.95" fill="none" stroke="black" stroke-width="1"/>
  <path d="M 243.83 435.97 L 250.07 435.92 L 256.24 435.92 L 262.37 435.96 L 268.55 436.04 L 274.76 435.98 L 281.07 435.98 L 287.16 435.93 L 293.41 435.90 L 299.51 435.96 L 305.78 435.93 L 311.96 436.03 L 318.15 435.95 L 324.28 436.01 L 330.64 435.88 L 336.70 435.95 L 342.98 436.03 L 349.10 435.91 L 355.40 436.05 L 361.62 436.00 L 367.72 436.06 L 373.97 435.94 L 380.21 436.02 L 386.38 436.03 L 392.56 435.99 L 398.70 436.03 L 404.86 435.91 L 411.14 435.89 L 417.23 436.02 L 423.42 435.96 L 429.73 436.03 L 435.88 435.97" fill="none" stroke="black" stroke-width="1"/>
  <path d="M 435.82 435.97 L 435.51 442.15 L 435.26 448.42 L 434.97 454.70 L 434.64 460.90 L 434.48 467.33 L 434.23 473.58 L 433.85 479.85 L 433.69 486.03 L 433.30 492.25 L 433.13 498.47 L 432.79 504.81 L 432.56 511.06 L 432.31 517.30 L 432.03 523.47 L 431.67 529.86 L 431.49 536.12 L 431.10 542.40 L 430.99 548.56 L 430.67 554.77 L 430.30 561.07 L 430.07 567.36 L 429.84 573.55 L 429.54 579.87" fill="none" stroke="black" stroke-width="1"/>
  <path d="M 429.54 579.96 L 435.98 580.00 L 442.28 579.91 L 448.64 579.99 L 455.08 579.85 L 461.46 579.86 L 467.81 579.98 L 474.30 579.92 L 480.63 579.94 L 487.03 579.84 L 493.47 579.86" fill="none" stroke="black" stroke-width="1"/>
  <path d="M 493.52 579.94 L 493.70 573.73 L 494.05 567.45 L 494.38 561.12 L 494.65 554.92 L 494.94 548.63 L 495.24 542.39 L 495.42 536.15 L 495.81 529.78 L 495.99 523.55 L 496.26 517.27 L 496.61 511.11 L 496.86 504.77 L 497.13 498.56 L 497.43 492.20 L 497.68 485.95 L 498.03 479.76 L 498.35 473.53 L 498.62 467.29 L 498.82 460.93 L 499.01 454.78 L 499.42 448.49 L 499.64 442.19 L 499.93 435.95" fill="none" stroke="black" stroke-width="1"/>
  <path d="M 499.91 435.99 L 500.74 429.78 L 501.75 423.58 L 502.59 417.39 L 503.48 411.19 L 504.32 404.80 L 505.20 398.64 L 506.20 392.37 L 507.10 386.12 L 507.92 380.05 L 508.84 373.84 L 509.69 367.54 L 510.55 361.33 L 511.44 355.15 L 512.40 348.95 L 513.23 342.56 L 514.09 336.38 L 515.06 330.18 L 515.88 323.87 L 516.68 317.73 L 517.65 311.55 L 518.44 305.22 L 519.41 299.05 L 520.28 292.79 L 521.18 286.65 L 522.11 280.43 L 522.92 274.15 L 523.78 268.00 L 524.72 261.69 L 525.63 255.51 L 526.45 249.21 L 527.32 243.07 L 528.24 236.83 L 529.13 230.58 L 530.10 224.36 L 531.05 218.16 L 531.81 212.03 L 532.82 205.81 L 533.57 199.54 L 534.50 193.29 L 535.48 187.00 L 536.22 180.86 L 537.24 174.69 L 538.07 168.37 L 538.88 162.20 L 539.86 155.86 L 540.69 149.63 L 541.51 143.40 L 542.43 137.30 L 543.41 131.01 L 544.25 124.86 L 545.11 118.54 L 546.02 112.32 L 546.92 106.22 L 547.81 99.93" fill="none" stroke="black" stroke-width="1"/>
  <path d="M 538.24 100.08 L 535.06 105.41 L 531.91 110.82 L 528.64 115.99 L 525.39 121.32 L 522.28 126.64 L 519.06 132.00 L 515.90 137.29 L 512.73 142.66 L 509.38 148.10 L 506.28 153.36 L 503.08 158.62 L 499.96 164.10 L 496.69 169.40 L 493.50 174.76 L 490.30 180.01" fill="none" stroke="black" stroke-width="1"/>
  <path d="M 490.20 179.91 L 487.07 174.61 L 483.72 169.21 L 480.68 163.98 L 477.42 158.58 L 474.10 153.30 L 471.09 147.92 L 467.88 142.62 L 464.62 137.40 L 461.45 132.01 L 458.22 126.59 L 454.96 121.42 L 451.79 115.94 L 448.65 110.78 L 445.34 105.36 L 442.19 100.05" fill="none" stroke="black" stroke-width="1"/>
  <path d="M 489.49 128.97 L 490.62 135.25" fill="none" stroke="black" stroke-width="1"/>
  <path d="M 499.80 100.02 L 499.76 106.29 L 499.84 112.71 L 499.81 119.03 L 499.78 125.38 L 499.75 131.63 L 499.73 137.95 L 499.75 144.29 L 499.89 150.71 L 499.89 156.95 L 499.84 163.47 L 499.76 169.72 L 499.84 175.98 L 499.81 182.33 L 499.77 188.68 L 499.79 195.08 L 499.83 201.40 L 499.85 207.76 L 499.77 214.07 L 499.86 220.38 L 499.74 226.83 L 499.88 233.00 L 499.78 239.32 L 499.83 245.67 L 499.80 252.08 L 499.78 258.51 L 499.80 264.80 L 499.87 271.02 L 499.92 277.37 L 499.85 283.76 L 499.80 290.10 L 499.85 296.36 L 499.86 302.84 L 499.81 309.15 L 499.88 315.41 L 499.82 321.76 L 499.85 328.06 L 499.93 334.47 L 499.74 340.81 L 499.77 347.18 L 499.75 353.52 L 499.86 359.89 L 499.86 366.15 L 499.83 372.49 L 499.88 378.78 L 499.91 385.05 L 499.87 391.52 L 499.93 397.79 L 499.90 404.06 L 499.86 410.58 L 499.81 416.88 L 499.91 423.19 L 499.75 429.54 L 499.85 435.83" fill="none" stroke="black" stroke-width="1"/>
  <path d="M 499.59 435.74 L 499.53 438.43 L 499.60 441.32 L 499.68 444.22 L 499.91 447.16 L 499.94 449.94 L 499.89 453.08 L 499.85 455.72 L 499.69 458.85 L 499.92 461.70" fill="none" stroke="black" stroke-width="1"/>
  <path d="M 487.10 483.86 L 487.01 489.85 L 487.15 495.78 L 487.12 501.85 L 487.12 507.90 L 487.01 513.88 L 487.07 519.93 L 487.04 525.84 L 487.02 531.88" fill="none" stroke="black" stroke-width="1"/>
  <path d="M 477.35 512.44 L 477.35 519.06" fill="none" stroke="black" stroke-width="1"/>
  <path d="M 461.44 531.92 L 461.49 525.97 L 461.46 519.88 L 461.47 513.96 L 461.44 507.82 L 461.50 501.79 L 461.48 495.75 L 461.42 489.81 L 461.52 483.82" fill="none" stroke="black" stroke-width="1"/>
  <path d="M 467.76 496.71 L 467.46 503.13" fill="none" stroke="black" stroke-width="1"/>
  <path d="M 435.81 461.53 L 435.71 458.55 L 435.99 455.30 L 435.83 451.74 L 435.72 448.62 L 435.71 445.52 L 436.16 442.59 L 436.23 439.44 L 436.00 436.11" fill="none" stroke="black" stroke-width="1"/>
  <path d="M 435.91 435.82 L 435.99 429.43 L 435.89 423.10 L 435.99 416.83 L 435.82 410.51 L 435.88 404.13 L 435.98 397.79 L 435.95 391.42 L 435.92 385.07 L 435.84 378.72 L 435.95 372.42 L 435.82 366.15 L 435.95 359.84 L 435.83 353.54 L 436.00 347.09 L 435.95 340.73 L 435.87 334.35 L 435.93 328.06 L 435.91 321.81 L 435.95 315.41 L 435.86 309.13 L 435.89 302.82 L 435.97 296.44 L 435.87 290.06 L 435.84 283.66 L 435.84 277.33 L 435.94 270.98 L 435.97 264.73 L 435.91 258.44 L 435.83 252.10 L 435.96 245.67 L 435.90 239.46 L 435.95 233.11 L 435.98 226.64 L 435.81 220.43 L 435.89 214.11 L 435.92 207.78 L 435.83 201.40 L 435.82 194.98 L 435.81 188.66 L 435.87 182.31 L 435.79 175.97 L 435.95 169.66 L 435.94 163.41 L 435.94 156.98 L 435.82 150.59 L 435.81 144.42 L 435.90 138.01 L 435.96 131.75 L 435.97 125.26 L 435.86 119.01 L 435.91 112.57 L 435.80 106.24 L 435.87 99.98" fill="none" stroke="black" stroke-width="1"/>
  <path d="M 403.93 115.95 L 402.32 119.30 L 400.74 122.58 L 399.09 126.11 L 397.54 129.54 L 395.89 133.13 L 394.34 136.70 L 392.82 140.24 L 391.14 143.90 L 389.46 147.46 L 387.95 151.01 L 386.36 154.41 L 384.75 157.87 L 383.14 161.12 L 381.55 164.36 L 380.03 167.40 L 378.35 170.31 L 376.71 172.93 L 375.15 175.59 L 373.59 177.91 L 371.95 180.04 L 370.28 181.83 L 368.74 183.59 L 367.04 184.91 L 365.53 186.31 L 363.96 187.40 L 362.32 188.36 L 360.78 189.09 L 359.11 189.89 L 357.49 190.43 L 355.90 191.02 L 354.25 191.41 L 352.69 191.92 L 351.10 192.38 L 349.47 192.72 L 347.87 193.10 L 346.26 193.56 L 344.70 194.10 L 343.05 194.60 L 341.42 195.26 L 339.84 195.98" fill="none" stroke="black" stroke-width="1"/>
  <path d="M 339.82 196.03 L 338.20 195.29 L 336.63 194.64 L 334.97 194.19 L 333.44 193.58 L 331.76 193.19 L 330.26 192.71 L 328.58 192.27 L 327.07 191.90 L 325.41 191.40 L 323.89 190.98 L 322.38 190.35 L 320.70 189.83 L 319.13 189.09 L 317.51 188.29 L 315.99 187.29 L 314.32 186.23 L 312.81 184.90 L 311.12 183.50 L 309.43 181.81 L 307.93 179.95 L 306.35 177.75 L 304.72 175.49 L 303.04 172.79 L 301.52 170.21 L 299.89 167.20 L 298.31 164.27 L 296.78 161.11 L 295.10 157.79 L 293.46 154.44 L 291.89 150.94 L 290.31 147.48 L 288.67 143.84 L 287.09 140.26 L 285.46 136.65 L 283.78 132.99 L 282.25 129.50 L 280.56 125.98 L 279.03 122.55 L 277.49 119.15 L 275.82 115.93" fill="none" stroke="black" stroke-width="1"/>
  <path d="M 336.89 131.18 L 342.66 133.31" fill="none" stroke="black" stroke-width="1"/>
  <path d="M 336.95 146.96 L 342.93 148.71" fill="none" stroke="black" stroke-width="1"/>
  <path d="M 259.84 179.95 L 259.89 173.73 L 259.91 167.63 L 259.80 161.50 L 259.86 155.37 L 259.95 149.15 L 259.81 143.00 L 259.88 136.89 L 259.86 130.79 L 259.81 124.62 L 259.95 118.42 L 259.92 112.19 L 259.96 106.21 L 259.90 99.96" fill="none" stroke="black" stroke-width="1"/>
  <path d="M 260.00 100.04 L 263.69 105.20 L 267.17 110.25 L 270.83 115.37 L 274.61 120.37 L 278.13 125.45 L 281.79 130.62 L 285.44 135.70 L 289.03 140.64 L 292.58 145.75 L 296.37 150.94 L 299.90 155.92 L 303.53 161.12 L 307.20 166.07 L 310.85 171.20 L 314.47 176.36 L 318.03 181.43 L 321.81 186.42 L 325.43 191.55 L 328.90 196.71 L 332.56 201.75 L 336.22 206.86 L 339.87 211.90" fill="none" stroke="black" stroke-width="1"/>
  <path d="M 339.96 211.95 L 343.56 206.84 L 347.16 201.84 L 350.95 196.62 L 354.53 191.57 L 358.10 186.55 L 361.68 181.41 L 365.49 176.30 L 368.99 171.31 L 372.68 166.13 L 376.24 161.01 L 379.91 155.99 L 383.55 150.91 L 387.12 145.91 L 390.92 140.66 L 394.52 135.65 L 398.19 130.61 L 401.77 125.53 L 405.44 120.43 L 409.05 115.35 L 412.55 110.16 L 416.27 105.23 L 419.91 100.07" fill="none" stroke="black" stroke-width="1"/>
  <path d="M 419.80 100.01 L 419.78 106.23 L 419.89 112.29 L 419.76 118.44 L 419.79 124.69 L 419.92 130.76 L 419.80 136.97 L 419.80 143.02 L 419.92 149.19 L 419.92 155.39 L 419.91 161.47 L 419.96 167.69 L 419.98 173.74 L 419.93 179.93" fill="none" stroke="black" stroke-width="1"/>
  <path d="M 384.38 275.81 L 390.69 275.92" fill="none" stroke="black" stroke-width="1"/>
  <path d="M 432.58 276.12 L 438.88 275.96" fill="none" stroke="black" stroke-width="1"/>
  <path d="M 461.46 307.86 L 462.95 313.86 L 464.21 319.90 L 465.61 325.85 L 467.12 331.87 L 468.41 337.92 L 469.79 343.95 L 471.23 349.85 L 472.69 356.02 L 474.13 361.88 L 475.55 367.94 L 476.83 373.96 L 478.30 379.90 L 479.66 385.94 L 481.05 392.03 L 482.43 398.07 L 483.86 404.00" fill="none" stroke="black" stroke-width="1"/>
  <path d="M 483.79 403.86 L 485.24 397.94 L 486.66 391.97 L 488.04 385.81 L 489.45 379.91 L 490.76 373.98 L 492.18 367.88 L 493.60 361.83 L 494.97 355.90 L 496.47 349.98 L 497.76 343.98 L 499.16 338.04 L 500.54 331.92 L 501.88 326.05 L 503.35 319.91 L 504.76 314.02 L 506.17 307.98" fill="none" stroke="black" stroke-width="1"/>
  <path d="M 480.93 275.92 L 486.99 276.08" fill="none" stroke="black" stroke-width="1"/>
  <path d="M 525.51 259.87 L 519.31 259.93 L 512.98 259.97 L 506.56 259.94 L 500.30 259.92 L 493.98 259.87 L 487.76 259.81 L 481.51 259.78 L 475.12 259.81 L 468.92 259.80 L 462.65 259.85 L 456.27 259.94 L 450.06 259.88 L 443.62 259.93 L 437.38 259.93 L 431.10 259.87 L 424.86 259.79 L 418.62 259.96 L 412.28 259.81 L 405.93 259.95 L 399.67 259.92 L 393.40 259.79 L 387.11 259.97 L 380.80 259.89 L 374.49 259.84 L 368.12 259.81 L 361.94 259.85 L 355.57 259.91 L 349.30 259.88 L 343.07 259.79 L 336.71 259.91 L 330.53 259.92 L 324.16 259.97 L 317.96 259.82 L 311.54 259.96 L 305.21 259.81 L 299.04 259.90 L 292.74 259.81 L 286.45 259.88 L 280.22 259.92 L 273.77 259.81 L 267.46 259.95 L 261.15 259.80 L 254.98 259.89 L 248.76 259.80 L 242.38 259.89 L 236.08 259.88 L 229.79 259.88 L 223.54 259.79 L 217.17 259.80 L 210.87 259.95 L 204.68 259.97 L 198.30 259.93 L 192.00 259.93 L 185.66 259.85 L 179.49 259.90 L 173.16 259.94 L 166.79 259.93 L 160.54 259.94 L 154.28 259.89" fill="none" stroke="black" stroke-width="1"/>
  <path d="M 173.47 307.86 L 174.84 313.82 L 176.22 319.83 L 177.65 325.95 L 179.13 331.89 L 180.55 337.87 L 181.90 343.78 L 183.25 349.84 L 184.74 355.86 L 186.06 361.94 L 187.52 367.94 L 188.88 373.85 L 190.35 379.98 L 191.69 385.98 L 193.13 391.87 L 194.56 397.91 L 195.97 403.89" fill="none" stroke="black" stroke-width="1"/>
  <path d="M 195.94 403.94 L 197.29 397.86 L 198.71 391.98 L 200.19 385.98 L 201.52 379.85 L 202.91 373.91 L 204.29 367.96 L 205.78 361.94 L 207.06 355.89 L 208.59 349.84 L 209.87 343.95 L 211.39 337.90 L 212.82 331.93 L 214.06 325.94 L 215.64 319.89 L 216.92 313.93 L 218.35 307.86" fill="none" stroke="black" stroke-width="1"/>
  <path d="M 221.45 326.29 L 215.20 328.10" fill="none" stroke="black" stroke-width="1"/>
  <path d="M 218.32 339.94 L 218.32 355.94" fill="none" stroke="black" stroke-width="1"/>
  <path d="M 218.26 355.98 L 217.64 360.47 L 217.06 364.96 L 216.54 369.80 L 215.94 374.47 L 215.41 379.39 L 214.87 384.30 L 214.36 389.34 L 213.82 394.20 L 213.37 399.11 L 212.74 403.95 L 212.16 408.62 L 211.60 413.31 L 210.96 417.75 L 210.35 422.06 L 209.73 425.95 L 208.96 429.97 L 208.23 433.39 L 207.39 436.80 L 206.46 439.63 L 205.60 442.32 L 204.65 444.35 L 203.55 446.39 L 202.46 447.80 L 201.29 449.15 L 200.06 450.06 L 198.84 450.84 L 197.51 451.24 L 196.26 451.68 L 194.82 451.87 L 193.56 451.91 L 192.23 451.86 L 190.80 451.76 L 189.43 451.66 L 188.02 451.45 L 186.62 451.32 L 185.25 451.22 L 183.80 451.30 L 182.53 451.29 L 181.16 451.59 L 179.90 451.91" fill="none" stroke="black" stroke-width="1"/>
  <path d="M 179.90 451.82 L 178.62 451.42 L 177.28 451.21 L 175.87 451.18 L 174.57 451.13 L 173.25 451.33 L 171.82 451.36 L 170.35 451.58 L 169.05 451.67 L 167.74 451.74 L 166.30 451.83 L 164.95 451.72 L 163.63 451.60 L 162.41 451.12 L 161.05 450.76 L 159.82 449.95 L 158.61 449.07 L 157.43 447.63 L 156.35 446.31 L 155.30 444.20 L 154.31 442.25 L 153.34 439.39 L 152.51 436.73 L 151.70 433.32 L 150.93 429.90 L 150.19 425.99 L 149.52 422.00 L 148.97 417.56 L 148.26 413.25 L 147.64 408.52 L 147.10 403.89 L 146.52 399.11 L 146.00 394.15 L 145.45 389.27 L 144.92 384.25 L 144.41 379.37 L 143.84 374.43 L 143.18 369.71 L 142.70 364.92 L 142.01 360.34 L 141.48 355.94" fill="none" stroke="black" stroke-width="1"/>
  <path d="M 141.54 355.94 L 141.54 339.94" fill="none" stroke="black" stroke-width="1"/>
  <path d="M 165.92 342.63 L 162.34 337.24" fill="none" stroke="black" stroke-width="1"/>
  <path d="M 160.79 291.97 L 167.17 291.97 L 173.44 292.05 L 179.58 292.05 L 185.98 291.98 L 192.29 291.93 L 198.50 292.06 L 204.75 292.05 L 211.08 291.90 L 217.34 291.92 L 223.59 291.98 L 230.01 291.97 L 236.25 291.91 L 242.56 291.98 L 248.72 291.95 L 255.15 292.03 L 261.39 291.95 L 267.63 292.02 L 273.90 291.97 L 280.16 291.88 L 286.49 291.89 L 292.89 291.97 L 299.00 291.96 L 305.45 291.97 L 311.58 292.03 L 317.98 291.88 L 324.16 292.03 L 330.46 291.94 L 336.82 292.02 L 343.07 291.93 L 349.33 291.97 L 355.73 291.90 L 361.96 292.04 L 368.26 291.94 L 374.61 292.02 L 380.78 291.95 L 387.08 291.94 L 393.43 291.87 L 399.72 292.01 L 405.91 291.88 L 412.33 291.89 L 418.59 291.96 L 424.79 291.97 L 431.02 292.02 L 437.31 292.01 L 443.72 291.92 L 449.91 292.00 L 456.27 291.88 L 462.52 291.92 L 468.86 291.92 L 475.09 291.99 L 481.35 291.94 L 487.72 291.92 L 494.01 291.92 L 500.32 292.01 L 506.57 292.01 L 512.87 291.92 L 519.12 291.93" fill="none" stroke="black" stroke-width="1"/>
  <path d="M 547.82 307.92 L 549.80 306.13 L 551.84 304.15 L 554.11 301.82 L 556.36 299.90 L 558.67 297.85 L 560.99 295.99 L 563.59 293.69 L 565.69 291.89 L 568.04 290.12 L 570.42 288.08 L 573.09 285.75 L 575.32 283.88 L 577.62 282.06 L 580.13 279.81 L 582.38 277.64 L 584.80 275.86 L 587.16 273.80 L 589.48 271.74 L 591.63 269.77 L 593.66 267.85 L 595.64 266.08 L 597.33 263.95 L 599.23 261.99 L 601.42 259.84 L 602.87 257.71 L 604.69 255.71 L 606.02 253.94 L 607.61 251.83 L 609.19 249.10 L 610.35 246.33 L 611.77 243.82 L 612.52 241.16 L 612.90 238.74 L 613.59 235.82 L 613.76 233.16 L 613.37 230.54 L 613.37 227.82 L 612.82 224.98 L 612.14 222.63 L 611.59 219.82 L 610.78 217.25 L 609.43 214.59 L 608.72 211.82 L 607.68 209.30 L 606.60 206.74 L 605.22 203.82 L 604.24 201.11 L 602.96 198.41 L 601.56 195.83 L 600.34 192.93 L 599.45 190.61 L 598.22 187.83 L 597.57 185.10 L 596.26 182.54 L 595.65 179.83" fill="none" stroke="black" stroke-width="1"/>
  <path d="M 659.72 20.11 L 654.48 22.76 L 649.05 25.35 L 643.69 28.15 L 638.41 30.80 L 633.18 33.31 L 627.82 35.98 L 622.42 38.80 L 617.16 41.40 L 611.85 43.96 L 606.47 46.72 L 601.20 49.32 L 595.90 51.99" fill="none" stroke="black" stroke-width="1"/>
  <path d="M 595.78 52.05 L 589.41 52.03 L 582.95 51.97 L 576.61 52.05 L 570.18 52.07 L 563.73 51.96 L 557.43 52.05 L 551.01 52.14 L 544.59 52.08 L 538.13 52.14 L 531.88 52.03 L 525.32 52.02 L 519.01 51.96 L 512.57 51.96 L 506.15 52.12 L 499.89 52.13 L 493.43 52.07 L 486.94 52.06 L 480.60 51.97 L 474.29 52.11 L 467.85 52.00 L 461.40 52.02 L 455.01 52.11 L 448.73 52.04 L 442.29 52.07 L 435.91 51.96 L 429.39 52.10 L 423.06 52.07 L 416.60 51.99 L 410.25 52.03 L 403.85 52.10 L 397.38 51.97 L 391.05 52.11 L 384.74 51.95 L 378.21 52.11 L 371.83 51.96 L 365.56 52.09 L 359.07 52.14 L 352.62 52.07 L 346.28 52.09 L 339.80 52.11 L 333.52 52.14 L 327.09 52.11 L 320.65 51.96 L 314.27 52.08 L 307.94 52.01 L 301.51 52.03 L 295.19 52.05 L 288.70 52.12 L 282.38 52.01 L 275.91 52.05 L 269.55 52.11 L 263.22 52.01 L 256.75 52.11 L 250.40 52.08 L 243.87 51.96 L 237.60 52.12 L 231.13 52.02 L 224.68 51.98 L 218.43 51.96 L 211.86 52.09 L 205.49 52.13 L 199.22 52.09 L 192.78 52.10 L 186.30 52.04 L 180.01 51.94 L 173.50 52.11 L 167.14 52.11 L 160.83 52.08 L 154.47 51.96 L 148.00 52.03 L 141.61 52.09 L 135.16 52.10 L 128.71 52.03 L 122.41 51.97 L 115.94 51.97 L 109.55 51.94 L 103.16 51.97 L 96.82 52.04 L 90.45 52.06 L 84.01 52.04" fill="none" stroke="black" stroke-width="1"/>
  <path d="M 84.00 51.99 L 78.73 49.40 L 73.34 46.63 L 67.99 43.95 L 62.63 41.34 L 57.34 38.69 L 52.09 35.94 L 46.59 33.42 L 41.26 30.70 L 36.01 28.04 L 30.71 25.29 L 25.36 22.62 L 20.00 20.00" fill="none" stroke="black" stroke-width="1"/>
</svg>