<svg xmlns="http://www.w3.org/2000/svg" width="800" height="600" viewBox="0 0 800 600">
  <rect width="100%" height="100%" fill="white"/>
  <path d="M 109.75 499.19 L 109.47 493.34 L 109.01 487.33 L 108.67 481.36 L 108.31 475.55 L 108.02 469.63 L 107.60 463.67 L 107.25 457.79 L 107.00 451.78 L 106.63 445.89 L 106.34 440.02 L 105.99 434.07 L 105.60 428.07 L 105.32 422.31 L 104.84 416.29 L 104.58 410.35 L 104.19 404.55 L 103.89 398.63 L 103.57 392.68 L 103.16 386.76 L 102.77 380.79 L 102.56 374.88 L 102.23 369.02 L 101.83 363.07 L 101.41 357.04 L 101.04 351.18 L 100.80 345.29 L 100.47 339.32 L 100.13 333.47 L 99.81 327.54 L 99.38 321.67 L 99.01 315.71 L 98.75 309.81 L 98.36 303.93 L 97.99 298.01 L 97.65 292.06 L 97.35 286.18 L 97.04 280.14 L 96.68 274.31 L 96.30 268.33 L 95.97 262.47 L 95.64 256.51 L 95.19 250.56 L 94.91 244.67" fill="none" stroke="black" stroke-width="1"/>
  <path d="M 79.89 220.65 L 79.93 215.58 L 79.95 210.30 L 79.89 205.23 L 79.86 200.08 L 79.87 195.02 L 79.99 189.86 L 79.96 184.72" fill="none" stroke="black" stroke-width="1"/>
  <path d="M 43.92 229.78 L 43.88 224.11 L 43.90 218.47 L 43.86 212.84 L 43.91 207.33 L 43.90 201.74 L 44.01 196.03 L 43.90 190.42 L 43.94 184.85" fill="none" stroke="black" stroke-width="1"/>
  <path d="M 20.05 184.70 L 26.07 184.63 L 32.01 184.73 L 38.09 184.64 L 44.07 184.79 L 50.01 184.71 L 55.90 184.78 L 61.90 184.63 L 68.00 184.68 L 73.98 184.76 L 79.97 184.68 L 85.81 184.66 L 91.87 184.66 L 97.80 184.67 L 103.79 184.66 L 109.79 184.74 L 115.86 184.78 L 121.82 184.77 L 127.73 184.75 L 133.87 184.63 L 139.83 184.76 L 145.77 184.77 L 151.81 184.66 L 157.67 184.74 L 163.73 184.75 L 169.78 184.70 L 175.74 184.62 L 181.63 184.63 L 187.61 184.63 L 193.63 184.69 L 199.71 184.73 L 205.61 184.77 L 211.57 184.74 L 217.64 184.69 L 223.59 184.75 L 229.59 184.67 L 235.52 184.63 L 241.58 184.66 L 247.61 184.69 L 253.44 184.79 L 259.54 184.76 L 265.40 184.73 L 271.51 184.67 L 277.39 184.64 L 283.45 184.65 L 289.47 184.67 L 295.48 184.70 L 301.37 184.70 L 307.30 184.74 L 313.45 184.72 L 319.33 184.66 L 325.41 184.66 L 331.29 184.72 L 337.32 184.63 L 343.26 184.65 L 349.33 184.73 L 355.28 184.71 L 361.24 184.72 L 367.19 184.65 L 373.16 184.63 L 379.16 184.63 L 385.28 184.72 L 391.26 184.62 L 397.20 184.79 L 403.12 184.71 L 409.18 184.64 L 415.13 184.66 L 421.08 184.67 L 427.08 184.73 L 433.11 184.72 L 439.11 184.74 L 445.02 184.71 L 451.09 184.69 L 456.97 184.79 L 463.08 184.64 L 468.98 184.62 L 475.00 184.64 L 480.96 184.70 L 486.93 184.79 L 492.93 184.75 L 498.99 184.64 L 505.01 184.66 L 510.94 184.71 L 516.87 184.72 L 522.91 184.65 L 528.91 184.77 L 534.84 184.75 L 540.89 184.68 L 546.82 184.69 L 552.83 184.66 L 558.89 184.73 L 564.70 184.73 L 570.72 184.77 L 576.68 184.77 L 582.77 184.80 L 588.75 184.73 L 594.71 184.73 L 600.74 184.69 L 606.76 184.63 L 612.71 184.76 L 618.66 184.72" fill="none" stroke="black" stroke-width="1"/>
  <path d="M 618.79 169.88 L 612.72 169.95 L 606.84 169.92 L 600.91 169.87 L 594.88 169.82 L 588.88 169.91 L 582.88 169.89 L 576.96 169.81 L 570.84 169.95 L 564.85 169.95 L 558.83 169.96 L 552.89 169.85 L 546.94 169.86 L 540.95 169.91 L 535.05 169.81 L 528.96 169.96 L 522.97 169.95 L 517.07 169.83 L 511.00 169.94 L 505.06 169.86 L 499.03 169.80 L 493.11 169.86 L 487.16 169.84 L 481.15 169.84 L 475.12 169.96 L 469.04 169.91 L 463.04 169.93 L 457.11 169.83 L 451.21 169.83 L 445.15 169.91 L 439.24 169.85 L 433.18 169.82 L 427.25 169.87 L 421.19 169.96 L 415.31 169.88 L 409.22 169.89 L 403.27 169.81 L 397.25 169.93 L 391.33 169.91 L 385.21 169.91 L 379.35 169.92 L 373.40 169.96 L 367.42 169.86 L 361.41 169.84 L 355.32 169.79 L 349.41 169.91 L 343.46 169.85 L 337.31 169.89 L 331.40 169.82 L 325.42 169.86 L 319.38 169.82 L 313.50 169.92 L 307.38 169.92 L 301.56 169.93 L 295.41 169.89 L 289.52 169.84 L 283.45 169.86 L 277.55 169.88 L 271.46 169.91 L 265.64 169.92 L 259.55 169.95 L 253.65 169.81 L 247.55 169.96 L 241.58 169.94 L 235.59 169.95 L 229.61 169.84 L 223.55 169.88 L 217.67 169.84 L 211.66 169.82 L 205.66 169.95 L 199.72 169.86 L 193.78 169.94 L 187.73 169.92 L 181.73 169.89 L 175.72 169.93 L 169.84 169.83 L 163.74 169.87 L 157.77 169.81 L 151.73 169.82 L 145.89 169.82 L 139.78 169.93 L 133.76 169.80 L 127.92 169.87 L 121.82 169.78 L 115.95 169.80 L 109.96 169.85 L 103.87 169.81 L 97.89 169.88 L 91.94 169.92 L 85.98 169.88 L 79.91 169.92 L 73.98 169.81 L 68.06 169.93 L 62.03 169.92 L 55.94 169.86 L 49.95 169.92 L 44.07 169.79 L 38.00 169.81 L 32.05 169.92 L 26.11 169.89 L 20.08 169.86" fill="none" stroke="black" stroke-width="1"/>
  <path d="M 34.78 140.09 L 37.41 139.65 L 39.90 139.01 L 42.30 138.75 L 44.61 138.41 L 47.17 137.85 L 49.83 137.17 L 52.10 136.73 L 54.78 136.08 L 57.36 135.50 L 59.75 134.77 L 62.29 134.64 L 64.88 133.87 L 67.35 133.60 L 69.99 132.88 L 72.41 132.44 L 75.03 132.07 L 77.42 131.70 L 79.93 131.34 L 82.56 131.20 L 84.90 130.96 L 87.45 130.72 L 90.01 130.95 L 92.53 130.82 L 94.96 130.73 L 97.57 130.79 L 100.21 131.44 L 102.47 131.46 L 104.87 131.90 L 107.45 132.43 L 109.97 132.81 L 112.24 133.59 L 114.90 134.05 L 117.47 134.65 L 119.90 135.39 L 122.40 136.32 L 124.96 136.82 L 127.25 137.47 L 129.90 138.45 L 132.46 139.18 L 135.17 139.90 L 137.39 140.55 L 139.95 141.59 L 142.34 142.29 L 145.17 143.03 L 147.44 143.91 L 149.87 144.37 L 152.53 145.35 L 154.94 145.98" fill="none" stroke="black" stroke-width="1"/>
  <path d="M 139.88 109.81 L 142.19 109.32 L 144.73 109.17 L 146.74 108.92 L 149.20 108.54 L 151.58 108.18 L 154.04 107.85 L 156.16 107.15 L 158.53 107.00 L 160.63 106.65 L 163.39 106.20 L 165.42 105.82 L 167.85 105.36 L 170.33 104.98 L 172.37 104.47 L 175.06 104.36 L 177.17 103.77 L 179.71 103.53 L 181.95 102.95 L 183.93 102.71 L 186.50 102.39 L 188.97 101.97 L 190.99 102.00 L 193.69 101.80 L 195.83 101.37 L 198.18 101.18 L 200.68 101.15 L 203.02 100.99 L 205.16 100.88 L 207.27 100.69 L 209.62 100.80 L 212.13 101.04 L 214.51 101.06 L 216.63 101.46 L 219.03 101.51 L 221.29 101.55 L 223.87 102.02 L 226.07 102.64 L 228.35 102.76 L 230.99 103.39 L 233.23 103.66 L 235.46 104.40 L 238.01 104.92 L 240.36 105.10 L 242.61 105.83 L 245.00 106.65 L 247.27 107.12 L 249.86 107.60 L 251.99 108.35 L 254.20 109.00 L 256.88 109.81 L 259.09 110.41 L 261.37 111.09 L 263.91 112.00 L 265.90 112.66 L 268.38 113.06 L 270.75 113.87 L 273.16 114.76 L 275.53 115.21 L 277.82 115.91 L 280.13 116.56 L 282.45 116.95 L 284.91 117.99 L 287.07 118.58 L 289.51 118.98" fill="none" stroke="black" stroke-width="1"/>
  <path d="M 274.68 80.22 L 277.40 79.66 L 279.89 79.69 L 282.07 79.06 L 284.74 78.91 L 287.37 78.32 L 289.79 78.36 L 292.11 77.67 L 294.77 77.34 L 297.35 76.88 L 299.98 76.55 L 302.33 75.95 L 304.79 75.67 L 307.42 75.50 L 309.65 75.06 L 312.12 74.27 L 314.81 74.05 L 317.31 73.53 L 319.87 73.51 L 322.45 73.21 L 324.86 72.64 L 327.16 72.47 L 330.03 72.14 L 332.28 71.87 L 334.95 71.59 L 337.37 71.48 L 340.22 71.50 L 342.48 71.24 L 345.10 71.06 L 347.79 71.19 L 350.25 71.25 L 352.61 71.15 L 355.33 71.20 L 357.85 71.66 L 360.71 71.87 L 363.01 71.68 L 365.66 72.13 L 368.30 72.69 L 370.65 72.75 L 373.33 73.09 L 376.07 73.73 L 378.50 74.10 L 381.43 74.59 L 384.07 75.21 L 386.54 75.85 L 389.32 76.24 L 391.76 77.00 L 394.25 77.81 L 397.06 78.33 L 399.69 78.81 L 402.34 79.77 L 404.74 80.42 L 407.60 81.02 L 410.32 81.59 L 413.04 82.44 L 415.41 83.02 L 418.15 83.76 L 420.88 84.54 L 423.64 85.20 L 426.12 85.80 L 428.68 86.40 L 431.37 87.02 L 434.00 87.56 L 436.54 88.13 L 439.19 88.78" fill="none" stroke="black" stroke-width="1"/>
  <path d="M 408.95 55.85 L 406.22 55.42 L 403.13 54.94 L 400.37 54.13 L 397.77 53.87 L 394.90 53.15 L 392.09 52.54 L 389.22 52.23 L 386.59 51.66 L 383.68 51.01 L 381.00 50.68 L 378.44 49.75 L 375.42 49.36 L 372.76 48.84 L 369.99 48.12 L 366.95 47.52 L 364.24 47.11 L 361.67 46.41 L 358.74 45.96 L 355.93 45.34 L 353.06 45.04 L 350.16 44.53 L 347.43 44.10 L 344.66 43.73 L 341.87 43.28 L 339.17 43.17 L 336.08 42.82 L 333.69 42.19 L 330.68 41.98 L 327.92 41.98 L 324.91 41.57 L 322.47 41.51 L 319.47 41.27 L 316.69 41.37 L 313.92 41.12 L 311.15 41.36 L 308.25 41.24 L 305.42 41.30 L 302.40 41.74 L 299.79 41.67 L 297.02 41.80 L 294.21 42.00 L 291.32 42.31 L 288.80 42.62 L 285.79 42.81 L 282.92 43.29 L 280.17 43.70 L 277.39 43.75 L 274.54 44.14 L 271.89 44.72 L 269.06 45.12 L 265.91 45.42 L 263.30 45.66 L 260.33 46.01 L 257.63 46.54 L 255.00 47.02 L 252.05 47.21 L 249.23 47.47 L 246.45 47.86 L 243.65 48.45 L 240.80 48.68 L 238.00 48.80 L 235.38 49.32 L 232.60 49.38 L 229.56 49.92" fill="none" stroke="black" stroke-width="1"/>
  <path d="M 169.88 100.92 L 167.66 100.61 L 165.39 100.08 L 162.61 99.31 L 160.47 98.89 L 158.32 98.10 L 155.81 97.82 L 153.20 97.02 L 151.06 96.62 L 148.85 95.84 L 146.58 95.58 L 144.04 94.74 L 141.65 94.26 L 139.19 93.60 L 136.71 92.94 L 134.72 92.60 L 132.23 91.94 L 129.79 91.46 L 127.70 90.79 L 125.14 90.57 L 122.83 89.81 L 120.27 89.58 L 118.30 88.96 L 115.55 88.28 L 113.42 88.02 L 111.07 87.77 L 108.80 87.27 L 106.29 86.96 L 104.04 86.69 L 101.76 86.30 L 99.28 86.43 L 96.95 86.14 L 94.66 85.98 L 92.27 85.98 L 89.92 86.09 L 87.57 86.12 L 85.30 85.97 L 82.81 85.89 L 80.59 86.04 L 78.23 86.25 L 75.96 86.58 L 73.41 86.76 L 71.31 87.30 L 68.92 87.55 L 66.63 87.65 L 64.47 87.83 L 61.92 88.23 L 59.45 88.90 L 57.31 89.06 L 55.19 89.42 L 52.52 89.96 L 50.33 90.09 L 47.99 90.66 L 45.78 91.18 L 43.24 91.25 L 40.99 91.99 L 38.67 92.30 L 36.26 92.90 L 34.17 93.04 L 31.82 93.36 L 29.35 93.85 L 27.10 94.12 L 24.51 94.37 L 22.34 95.05 L 20.02 95.16" fill="none" stroke="black" stroke-width="1"/>
  <path d="M 20.06 20.13 L 26.04 20.08 L 32.05 20.09 L 38.08 20.16 L 44.03 20.06 L 50.06 20.12 L 56.04 20.11 L 61.92 20.21 L 68.00 20.19 L 73.86 20.06 L 80.00 20.15 L 85.92 20.21 L 91.99 20.14 L 97.97 20.19 L 103.87 20.07 L 109.81 20.14 L 115.80 20.05 L 121.92 20.17 L 127.87 20.18 L 133.74 20.15 L 139.78 20.19 L 145.81 20.10 L 151.81 20.16 L 157.83 20.13 L 163.74 20.17 L 169.65 20.10 L 175.69 20.05 L 181.64 20.08 L 187.73 20.04 L 193.62 20.13 L 199.60 20.06 L 205.73 20.16 L 211.70 20.04 L 217.71 20.10 L 223.69 20.12 L 229.54 20.08 L 235.50 20.15 L 241.56 20.14 L 247.52 20.19 L 253.53 20.11 L 259.45 20.03 L 265.53 20.14 L 271.52 20.16 L 277.42 20.17 L 283.54 20.14 L 289.42 20.13 L 295.42 20.14 L 301.37 20.02 L 307.46 20.07 L 313.37 20.10 L 319.33 20.10 L 325.41 20.10 L 331.41 20.06 L 337.38 20.13 L 343.29 20.15 L 349.38 20.07 L 355.26 20.15 L 361.30 20.16 L 367.37 20.15 L 373.32 20.03 L 379.21 20.15 L 385.19 20.17 L 391.25 20.09 L 397.26 20.17 L 403.24 20.19 L 409.22 20.07 L 415.17 20.17 L 421.20 20.03 L 427.19 20.06 L 433.06 20.07 L 439.16 20.12 L 445.12 20.18 L 451.03 20.06 L 457.14 20.03 L 463.03 20.11 L 468.98 20.06 L 475.11 20.18 L 480.98 20.15 L 487.00 20.03 L 492.99 20.15 L 498.93 20.06 L 505.06 20.14 L 510.98 20.01 L 516.94 20.01 L 522.96 20.16 L 528.85 20.02 L 534.97 20.01 L 540.85 20.02 L 546.81 20.12 L 552.84 20.17 L 558.80 20.15 L 564.77 20.07 L 570.81 20.00 L 576.81 20.07 L 582.77 20.05 L 588.74 20.12 L 594.80 20.01 L 600.73 20.12 L 606.68 20.10 L 612.76 20.05 L 618.73 20.08" fill="none" stroke="black" stroke-width="1"/>
  <path d="M 618.93 70.87 L 616.51 70.35 L 614.03 69.31 L 611.46 68.83 L 609.09 68.09 L 606.70 67.28 L 603.99 66.55 L 601.54 65.54 L 599.19 64.76 L 596.51 64.17 L 593.88 63.51 L 591.34 62.62 L 589.04 61.84 L 586.71 61.15 L 584.23 60.20 L 581.57 59.70 L 578.99 59.16 L 576.54 58.40 L 574.09 57.89 L 571.55 57.32 L 568.91 56.93 L 566.60 56.55 L 564.25 56.28 L 561.72 55.96 L 559.10 55.83 L 556.64 55.93 L 554.16 55.88 L 551.58 55.83 L 549.04 55.88 L 546.34 56.28 L 544.06 56.43 L 541.52 56.72 L 538.85 57.05 L 536.52 57.51 L 533.84 57.99 L 531.72 58.56 L 528.98 58.93 L 526.45 59.30 L 523.98 60.16 L 521.44 60.53 L 519.09 60.96 L 516.48 61.80 L 513.89 62.18 L 511.32 62.72 L 509.10 63.20 L 506.35 63.73 L 503.92 64.33 L 501.12 64.50 L 498.81 65.05" fill="none" stroke="black" stroke-width="1"/>
  <path d="M 558.81 130.66 L 556.59 129.87 L 554.33 129.66 L 551.75 128.78 L 549.47 128.22 L 547.31 127.72 L 544.92 126.99 L 542.53 125.96 L 540.13 125.48 L 537.71 124.68 L 535.61 124.26 L 533.22 123.38 L 530.80 122.62 L 528.60 122.07 L 525.93 121.33 L 523.66 120.33 L 521.47 119.82 L 519.18 119.34 L 516.79 118.30 L 514.69 117.79 L 512.13 117.25 L 509.90 116.91 L 507.36 116.13 L 504.96 115.62 L 502.79 115.10 L 500.52 114.72 L 498.06 114.21 L 495.66 113.79 L 493.44 113.55 L 491.09 113.24 L 488.59 113.05 L 486.50 113.09 L 484.08 112.76 L 481.56 112.59 L 479.23 112.80 L 477.00 112.85 L 474.72 112.85 L 472.31 113.14 L 470.09 113.29 L 467.73 113.43 L 465.34 113.72 L 463.07 114.18 L 460.48 114.44 L 458.09 115.00 L 455.95 115.17 L 453.57 115.84 L 451.16 116.33 L 449.05 116.61 L 446.56 117.04 L 444.41 117.44 L 441.72 117.88 L 439.54 118.39 L 437.17 119.15 L 434.78 119.77 L 432.61 120.06 L 430.01 120.66 L 427.77 121.31 L 425.61 121.66 L 423.11 122.22 L 420.58 122.82 L 418.38 123.36 L 415.94 123.64 L 413.77 124.43 L 411.15 124.62 L 408.99 125.11" fill="none" stroke="black" stroke-width="1"/>
  <path d="M 445.06 244.65 L 444.99 249.56 L 444.97 254.62 L 445.06 259.59" fill="none" stroke="black" stroke-width="1"/>
  <path d="M 463.00 244.70 L 462.89 250.55 L 462.63 256.35 L 462.53 262.26 L 462.40 268.11 L 462.34 273.98 L 462.10 279.81 L 461.96 285.51 L 461.89 291.34 L 461.71 297.27 L 461.56 303.11 L 461.43 308.96 L 461.36 314.72 L 461.15 320.64 L 460.89 326.40 L 460.76 332.38 L 460.64 338.09 L 460.64 344.04 L 460.43 349.84 L 460.29 355.62 L 460.16 361.55 L 459.89 367.30 L 459.79 373.29 L 459.76 379.00 L 459.53 384.98 L 459.46 390.78 L 459.22 396.61 L 459.13 402.34 L 458.93 408.26 L 458.77 414.13 L 458.70 419.92 L 458.44 425.72 L 458.37 431.59 L 458.24 437.48 L 458.12 443.39 L 457.97 449.07 L 457.80 455.03 L 457.64 460.90 L 457.54 466.61 L 457.45 472.60 L 457.25 478.28 L 457.09 484.20" fill="none" stroke="black" stroke-width="1"/>
  <path d="M 457.01 484.23 L 462.71 484.28 L 468.36 484.20 L 474.03 484.22 L 479.82 484.15 L 485.46 484.27 L 491.16 484.17 L 496.91 484.23 L 502.49 484.16 L 508.19 484.15 L 513.90 484.14" fill="none" stroke="black" stroke-width="1"/>
  <path d="M 513.92 484.21 L 514.30 478.30 L 514.57 472.59 L 515.08 466.69 L 515.29 460.85 L 515.83 455.00 L 516.08 449.09 L 516.41 443.24 L 516.80 437.48 L 517.18 431.68 L 517.59 425.78 L 518.00 420.00 L 518.22 414.08 L 518.71 408.27 L 519.05 402.36 L 519.46 396.57 L 519.70 390.73 L 520.10 384.84 L 520.49 378.97 L 520.82 373.27 L 521.21 367.43 L 521.65 361.47 L 521.99 355.67 L 522.26 349.90 L 522.76 344.05 L 523.14 338.14 L 523.49 332.27 L 523.83 326.46 L 524.23 320.66 L 524.56 314.85 L 524.81 308.98 L 525.21 303.12 L 525.54 297.23 L 525.98 291.33 L 526.38 285.47 L 526.65 279.65 L 527.11 273.79 L 527.50 268.00 L 527.78 262.24 L 528.22 256.34 L 528.45 250.55 L 528.90 244.65" fill="none" stroke="black" stroke-width="1"/>
  <path d="M 552.96 214.77 L 553.11 215.82 L 553.19 216.92 L 553.26 217.98 L 553.30 219.15 L 553.29 220.36 L 553.36 221.42 L 553.45 222.64 L 553.40 223.71 L 553.38 224.81 L 553.47 225.97 L 553.48 227.09 L 553.61 228.18 L 553.81 229.25 L 553.88 230.28 L 554.05 231.35 L 554.31 232.26 L 554.65 233.13 L 554.96 234.07 L 555.33 234.82 L 555.86 235.68 L 556.50 236.41 L 557.05 237.06 L 557.73 237.61 L 558.49 238.24 L 559.37 238.66 L 560.15 239.25 L 561.02 239.64 L 561.97 240.12 L 562.94 240.49 L 563.92 240.91 L 564.86 241.22 L 565.94 241.63 L 566.98 242.05 L 567.99 242.33 L 568.92 242.74 L 570.02 243.04 L 570.99 243.39 L 572.00 243.80 L 572.88 244.16 L 573.86 244.65" fill="none" stroke="black" stroke-width="1"/>
  <path d="M 573.77 244.61 L 574.88 244.16 L 575.95 243.77 L 577.05 243.47 L 578.27 243.01 L 579.44 242.60 L 580.66 242.31 L 581.90 241.98 L 583.06 241.61 L 584.31 241.27 L 585.43 240.89 L 586.57 240.47 L 587.71 240.11 L 588.80 239.66 L 589.85 239.24 L 590.78 238.82 L 591.78 238.23 L 592.65 237.60 L 593.47 237.05 L 594.07 236.45 L 594.84 235.67 L 595.38 234.94 L 595.87 234.06 L 596.15 233.13 L 596.59 232.25 L 596.82 231.21 L 597.05 230.27 L 597.24 229.14 L 597.32 228.15 L 597.46 227.02 L 597.44 225.94 L 597.53 224.86 L 597.48 223.67 L 597.50 222.51 L 597.47 221.38 L 597.43 220.30 L 597.49 219.09 L 597.44 217.93 L 597.57 216.86 L 597.64 215.76 L 597.79 214.71" fill="none" stroke="black" stroke-width="1"/>
  <path d="M 573.78 214.64 L 573.74 208.68 L 573.87 202.67 L 573.77 196.75 L 573.90 190.76 L 573.90 184.72" fill="none" stroke="black" stroke-width="1"/>
  <path d="M 618.74 349.44 L 20.00 349.44" fill="none" stroke="black" stroke-width="1"/>
  <path d="M 25.98 229.73 L 26.16 230.79 L 26.22 231.87 L 26.22 233.04 L 26.38 234.10 L 26.49 235.32 L 26.50 236.38 L 26.49 237.54 L 26.59 238.67 L 26.69 239.72 L 26.72 240.94 L 26.78 242.04 L 26.90 243.15 L 26.99 244.24 L 27.18 245.26 L 27.45 246.26 L 27.59 247.24 L 27.84 248.14 L 28.18 249.05 L 28.49 249.90 L 28.96 250.65 L 29.46 251.33 L 29.98 252.03 L 30.61 252.67 L 31.20 253.21 L 31.94 253.73 L 32.59 254.21 L 33.27 254.72 L 34.12 255.09 L 34.89 255.46 L 35.74 255.87 L 36.57 256.28 L 37.42 256.58 L 38.30 256.96 L 39.12 257.28 L 40.04 257.62 L 40.82 257.98 L 41.61 258.43 L 42.46 258.74 L 43.29 259.17 L 44.02 259.58" fill="none" stroke="black" stroke-width="1"/>
  <path d="M 44.02 259.57 L 45.02 259.18 L 45.87 258.73 L 46.86 258.44 L 47.83 257.98 L 48.85 257.63 L 49.85 257.27 L 50.90 257.00 L 51.89 256.57 L 52.87 256.22 L 53.89 255.85 L 54.88 255.51 L 55.82 255.07 L 56.71 254.61 L 57.63 254.20 L 58.44 253.78 L 59.28 253.19 L 59.96 252.59 L 60.72 252.02 L 61.31 251.41 L 61.90 250.64 L 62.32 249.83 L 62.80 249.04 L 63.07 248.19 L 63.45 247.23 L 63.75 246.31 L 63.89 245.25 L 63.95 244.26 L 64.17 243.15 L 64.18 241.97 L 64.33 240.94 L 64.29 239.82 L 64.41 238.68 L 64.35 237.55 L 64.46 236.39 L 64.57 235.28 L 64.53 234.12 L 64.67 233.00 L 64.66 231.89 L 64.74 230.87 L 64.89 229.75" fill="none" stroke="black" stroke-width="1"/>
  <path d="M 61.85 220.68 L 62.03 221.81 L 62.11 222.83 L 62.12 223.99 L 62.28 225.07 L 62.33 226.25 L 62.40 227.36 L 62.49 228.55 L 62.52 229.65 L 62.57 230.87 L 62.65 231.93 L 62.78 233.08 L 62.85 234.14 L 62.95 235.27 L 63.14 236.26 L 63.41 237.18 L 63.56 238.24 L 63.82 239.06 L 64.15 240.05 L 64.47 240.85 L 64.93 241.66 L 65.43 242.38 L 65.95 243.04 L 66.47 243.67 L 67.17 244.22 L 67.89 244.75 L 68.55 245.22 L 69.33 245.70 L 70.06 246.10 L 70.90 246.49 L 71.67 246.87 L 72.49 247.24 L 73.34 247.59 L 74.12 248.02 L 75.03 248.28 L 75.96 248.57 L 76.71 248.99 L 77.49 249.41 L 78.35 249.74 L 79.04 250.14 L 79.90 250.58" fill="none" stroke="black" stroke-width="1"/>
  <path d="M 79.82 250.57 L 80.69 250.16 L 81.68 249.74 L 82.62 249.30 L 83.65 248.99 L 84.73 248.68 L 85.67 248.30 L 86.76 248.04 L 87.71 247.61 L 88.71 247.24 L 89.73 246.90 L 90.73 246.45 L 91.66 246.13 L 92.60 245.74 L 93.48 245.27 L 94.28 244.76 L 95.13 244.27 L 95.84 243.76 L 96.58 243.10 L 97.12 242.37 L 97.77 241.72 L 98.30 240.86 L 98.68 240.11 L 98.93 239.20 L 99.34 238.30 L 99.63 237.34 L 99.79 236.32 L 99.93 235.30 L 100.08 234.20 L 100.09 233.16 L 100.24 231.98 L 100.26 230.76 L 100.34 229.71 L 100.34 228.58 L 100.40 227.41 L 100.48 226.30 L 100.48 225.12 L 100.60 224.01 L 100.62 222.88 L 100.70 221.74 L 100.86 220.72" fill="none" stroke="black" stroke-width="1"/>
  <path d="M 169.68 259.60 L 169.66 254.54 L 169.58 249.59 L 169.62 244.67" fill="none" stroke="black" stroke-width="1"/>
  <path d="M 175.71 259.64 L 174.93 263.34 L 174.31 267.18 L 173.49 271.04 L 172.62 274.83 L 171.63 278.67 L 170.77 282.54 L 169.74 286.45 L 168.87 290.26 L 167.88 294.13 L 167.06 297.95 L 166.20 301.81 L 165.45 305.57 L 164.86 309.28 L 164.19 313.07 L 163.79 316.77 L 163.38 320.40 L 163.33 324.06 L 163.16 327.53 L 163.49 331.05 L 163.66 334.41 L 164.34 337.73 L 164.95 341.01 L 165.89 344.25 L 166.96 347.36 L 168.21 350.35 L 169.56 353.50 L 171.05 356.42 L 172.62 359.47 L 174.40 362.45 L 176.01 365.33 L 177.73 368.19 L 179.62 371.12 L 181.41 373.99 L 183.31 376.87 L 185.13 379.73 L 186.95 382.64 L 188.69 385.57 L 190.43 388.47 L 192.10 391.50 L 193.61 394.40" fill="none" stroke="black" stroke-width="1"/>
  <path d="M 244.49 400.30 L 242.92 397.35 L 241.29 394.41 L 239.54 391.55 L 237.77 388.66 L 235.85 385.89 L 234.08 383.00 L 232.14 380.10 L 230.33 377.36 L 228.54 374.48 L 226.68 371.68 L 224.93 368.74 L 223.25 365.89 L 221.66 362.87 L 220.19 359.93 L 218.87 356.92 L 217.62 353.75 L 216.69 350.53 L 215.68 347.27 L 215.14 343.85 L 214.50 340.43 L 214.34 336.73 L 214.19 333.20 L 214.36 329.38 L 214.64 325.61 L 215.20 321.65 L 215.72 317.73 L 216.45 313.73 L 217.30 309.62 L 218.25 305.53 L 219.23 301.34 L 220.26 297.12 L 221.40 292.95 L 222.53 288.83 L 223.65 284.53 L 224.69 280.41 L 225.86 276.12 L 226.85 271.95 L 227.89 267.80 L 228.74 263.74 L 229.60 259.62" fill="none" stroke="black" stroke-width="1"/>
  <path d="M 277.45 244.70 L 277.40 249.60 L 277.43 254.71 L 277.46 259.60" fill="none" stroke="black" stroke-width="1"/>
  <path d="M 283.37 259.62 L 282.57 263.81 L 281.70 268.10 L 280.69 272.43 L 279.73 276.76 L 278.74 281.12 L 277.60 285.50 L 276.57 289.83 L 275.42 294.28 L 274.40 298.72 L 273.33 303.00 L 272.36 307.24 L 271.45 311.60 L 270.61 315.85 L 269.90 320.02 L 269.31 324.11 L 268.81 328.17 L 268.62 332.06 L 268.31 335.99 L 268.36 339.66 L 268.52 343.40 L 268.97 346.91 L 269.52 350.36 L 270.46 353.64 L 271.23 356.92 L 272.39 360.10 L 273.53 363.14 L 274.91 366.03 L 276.28 369.10 L 277.80 372.05 L 279.37 374.87 L 281.11 377.71 L 282.67 380.52 L 284.29 383.38 L 286.06 386.12 L 287.79 388.98 L 289.40 391.75 L 291.02 394.63 L 292.57 397.47 L 293.94 400.47 L 295.45 403.36" fill="none" stroke="black" stroke-width="1"/>
  <path d="M 349.24 439.25 L 343.31 439.20 L 337.24 439.21 L 331.30 439.29 L 325.35 439.26 L 319.29 439.26 L 313.32 439.35 L 307.33 439.27 L 301.39 439.39 L 295.36 439.24 L 289.37 439.33" fill="none" stroke="black" stroke-width="1"/>
  <path d="M 289.47 439.24 L 290.72 444.82 L 291.91 450.46 L 293.00 456.11 L 294.26 461.67 L 295.51 467.38 L 296.63 473.08 L 297.79 478.73 L 299.03 484.19 L 300.27 489.86 L 301.36 495.46 L 302.70 501.09 L 303.77 506.78 L 304.98 512.40 L 306.15 518.04 L 307.38 523.71 L 308.63 529.36 L 309.79 534.90 L 311.05 540.59 L 312.27 546.18 L 313.35 551.84 L 314.52 557.43 L 315.79 563.14 L 316.94 568.75 L 318.25 574.43 L 319.39 579.98" fill="none" stroke="black" stroke-width="1"/>
  <path d="M 319.45 580.00 L 320.62 574.32 L 321.79 568.66 L 322.94 563.19 L 324.16 557.41 L 325.49 551.83 L 326.57 546.22 L 327.77 540.52 L 329.03 534.92 L 330.13 529.39 L 331.31 523.66 L 332.49 518.12 L 333.83 512.38 L 334.87 506.77 L 336.09 501.18 L 337.38 495.58 L 338.52 489.86 L 339.73 484.31 L 340.94 478.61 L 342.02 473.12 L 343.37 467.52 L 344.50 461.84 L 345.60 456.13 L 346.77 450.48 L 347.98 444.91 L 349.24 439.29" fill="none" stroke="black" stroke-width="1"/>
  <path d="M 340.31 469.22 L 334.42 469.13 L 328.45 469.11 L 322.40 469.16 L 316.34 469.08 L 310.47 469.18 L 304.48 469.19 L 298.50 469.12" fill="none" stroke="black" stroke-width="1"/>
  <path d="M 307.35 514.11 L 312.08 514.06 L 316.91 514.14 L 321.66 514.15 L 326.53 513.99 L 331.30 514.05" fill="none" stroke="black" stroke-width="1"/>
  <path d="M 457.11 484.09 L 459.46 488.25 L 461.98 492.47 L 464.35 496.76 L 466.67 500.99 L 469.10 505.18" fill="none" stroke="black" stroke-width="1"/>
  <path d="M 469.09 505.10 L 474.52 505.12 L 480.08 505.11 L 485.56 505.12 L 491.06 505.22 L 496.51 505.22 L 501.96 505.16" fill="none" stroke="black" stroke-width="1"/>
  <path d="M 501.90 505.18 L 504.28 500.98 L 506.71 496.75 L 509.03 492.67 L 511.52 488.40 L 513.87 484.23" fill="none" stroke="black" stroke-width="1"/>
  <path d="M 454.01 409.35 L 455.07 403.45 L 456.25 397.58 L 457.17 391.77 L 458.22 385.86 L 459.44 380.02 L 460.43 373.99 L 461.60 368.21 L 462.57 362.29 L 463.60 356.46 L 464.73 350.49 L 465.80 344.70 L 466.81 338.87 L 467.96 332.84 L 469.07 326.95 L 470.06 321.20 L 471.09 315.33 L 472.21 309.31 L 473.38 303.50 L 474.47 297.58 L 475.39 291.81 L 476.58 285.92 L 477.60 279.95 L 478.66 274.06 L 479.71 268.23 L 480.82 262.36 L 481.97 256.41 L 482.89 250.66 L 484.03 244.70" fill="none" stroke="black" stroke-width="1"/>
  <path d="M 483.99 244.68 L 477.94 244.73 L 472.01 244.70 L 465.98 244.63 L 460.04 244.67 L 454.05 244.74 L 447.99 244.61 L 442.07 244.75 L 436.17 244.59 L 430.05 244.74 L 424.08 244.60 L 418.22 244.72 L 412.14 244.77 L 406.11 244.71 L 400.18 244.73 L 394.11 244.75 L 388.24 244.77 L 382.22 244.74 L 376.19 244.60 L 370.22 244.72 L 364.30 244.65 L 358.28 244.67 L 352.36 244.68 L 346.30 244.75 L 340.38 244.65 L 334.33 244.69 L 328.37 244.74 L 322.45 244.65 L 316.40 244.74 L 310.45 244.71 L 304.35 244.60 L 298.48 244.75 L 292.43 244.66 L 286.39 244.62 L 280.54 244.60 L 274.39 244.72 L 268.43 244.76 L 262.56 244.72 L 256.54 244.73 L 250.48 244.68 L 244.59 244.58 L 238.50 244.74 L 232.55 244.74 L 226.65 244.71 L 220.69 244.60 L 214.64 244.67 L 208.66 244.72 L 202.62 244.73 L 196.59 244.67 L 190.69 244.61 L 184.64 244.61 L 178.66 244.58 L 172.68 244.61 L 166.75 244.67 L 160.79 244.69 L 154.77 244.67" fill="none" stroke="black" stroke-width="1"/>
  <path d="M 154.76 244.58 L 155.91 250.46 L 156.87 256.41 L 157.93 262.21 L 159.05 268.07 L 160.16 274.06 L 161.14 279.81 L 162.16 285.78 L 163.31 291.67 L 164.44 297.61 L 165.39 303.49 L 166.48 309.22 L 167.58 315.11 L 168.57 321.05 L 169.79 326.94 L 170.72 332.93 L 171.85 338.76 L 172.94 344.69 L 174.03 350.49 L 175.01 356.29 L 176.13 362.28 L 177.23 368.15 L 178.24 373.95 L 179.37 379.89 L 180.43 385.76 L 181.52 391.65 L 182.58 397.52 L 183.66 403.41 L 184.69 409.33" fill="none" stroke="black" stroke-width="1"/>
  <path d="M 184.60 409.29 L 184.63 415.31 L 184.61 421.27 L 184.74 427.24 L 184.75 433.17 L 184.74 439.22" fill="none" stroke="black" stroke-width="1"/>
  <path d="M 184.66 439.32 L 190.51 439.25 L 196.29 439.28 L 202.30 439.38 L 208.06 439.28 L 213.92 439.39 L 219.81 439.26 L 225.69 439.30 L 231.53 439.37 L 237.33 439.36 L 243.33 439.27 L 249.18 439.31 L 254.89 439.38 L 260.77 439.34 L 266.65 439.36 L 272.60 439.30 L 278.43 439.37 L 284.20 439.29 L 290.04 439.38 L 296.03 439.25 L 301.85 439.28 L 307.64 439.35 L 313.44 439.29 L 319.47 439.27 L 325.21 439.37 L 331.11 439.27 L 336.90 439.24 L 342.79 439.30 L 348.66 439.31 L 354.45 439.39 L 360.47 439.24 L 366.29 439.31 L 372.18 439.35 L 378.00 439.36 L 383.88 439.34 L 389.72 439.35 L 395.45 439.25 L 401.39 439.40 L 407.24 439.27 L 413.04 439.28 L 419.03 439.41 L 424.86 439.25 L 430.74 439.32 L 436.48 439.37 L 442.39 439.39 L 448.26 439.34 L 454.12 439.32" fill="none" stroke="black" stroke-width="1"/>
  <path d="M 454.14 439.19 L 454.07 433.30 L 454.03 427.23 L 454.14 421.25 L 454.02 415.36 L 454.03 409.31" fill="none" stroke="black" stroke-width="1"/>
  <path d="M 445.19 394.31 L 444.01 391.29 L 442.93 388.40 L 441.67 385.44 L 440.42 382.59 L 439.08 379.64 L 437.77 376.84 L 436.49 374.05 L 435.08 371.11 L 433.77 368.29 L 432.46 365.35 L 431.23 362.38 L 430.02 359.51 L 428.91 356.48 L 427.87 353.55 L 426.98 350.53 L 426.11 347.43 L 425.52 344.22 L 424.86 341.09 L 424.48 337.82 L 424.21 334.50 L 424.14 330.97 L 424.24 327.62 L 424.54 323.97 L 424.89 320.48 L 425.49 316.73 L 426.03 313.13 L 426.74 309.41 L 427.57 305.62 L 428.50 301.79 L 429.40 297.98 L 430.47 294.21 L 431.40 290.27 L 432.39 286.43 L 433.48 282.53 L 434.58 278.62 L 435.52 274.81 L 436.46 270.98 L 437.41 267.14 L 438.19 263.40 L 439.06 259.58" fill="none" stroke="black" stroke-width="1"/>
  <path d="M 433.21 259.71 L 433.26 254.71 L 433.17 249.69 L 433.10 244.74" fill="none" stroke="black" stroke-width="1"/>
  <path d="M 391.25 244.58 L 391.25 249.54 L 391.15 254.61 L 391.17 259.61" fill="none" stroke="black" stroke-width="1"/>
  <path d="M 385.23 259.58 L 384.36 263.63 L 383.57 267.76 L 382.65 271.95 L 381.63 276.09 L 380.52 280.28 L 379.54 284.51 L 378.48 288.76 L 377.41 292.94 L 376.42 297.11 L 375.36 301.33 L 374.40 305.47 L 373.50 309.62 L 372.78 313.62 L 371.96 317.74 L 371.42 321.68 L 370.84 325.63 L 370.58 329.50 L 370.26 333.23 L 370.34 336.93 L 370.34 340.46 L 370.68 343.93 L 371.16 347.31 L 371.87 350.48 L 372.64 353.79 L 373.63 356.88 L 374.67 359.98 L 375.90 362.98 L 377.12 365.94 L 378.43 368.90 L 379.88 371.74 L 381.35 374.65 L 382.84 377.42 L 384.31 380.17 L 385.87 383.07 L 387.44 385.87 L 388.86 388.74 L 390.20 391.55 L 391.70 394.49 L 393.03 397.47 L 394.27 400.39" fill="none" stroke="black" stroke-width="1"/>
  <path d="M 373.30 388.41 L 367.64 388.33 L 361.93 388.49 L 356.25 388.39 L 350.64 388.40 L 344.93 388.42 L 339.31 388.38 L 333.57 388.40 L 327.91 388.45 L 322.16 388.37 L 316.53 388.39 L 310.85 388.34 L 305.17 388.42 L 299.56 388.39 L 293.80 388.43 L 288.16 388.31 L 282.50 388.29 L 276.78 388.41 L 271.14 388.33 L 265.51 388.35" fill="none" stroke="black" stroke-width="1"/>
  <path d="M 265.45 388.28 L 265.42 382.24 L 265.44 376.25 L 265.53 370.28 L 265.41 364.34 L 265.41 358.29 L 265.55 352.34 L 265.54 346.33 L 265.47 340.46 L 265.40 334.43 L 265.47 328.38 L 265.50 322.42 L 265.45 316.46 L 265.50 310.59 L 265.50 304.54" fill="none" stroke="black" stroke-width="1"/>
  <path d="M 265.43 304.53 L 271.37 304.55 L 277.47 304.55 L 283.36 304.50 L 289.40 304.48 L 295.30 304.54 L 301.35 304.51 L 307.32 304.62 L 313.30 304.55 L 319.23 304.61 L 325.37 304.48 L 331.23 304.55 L 337.29 304.64 L 343.21 304.53 L 349.29 304.66 L 355.31 304.61 L 361.20 304.68 L 367.24 304.57 L 373.19 304.60" fill="none" stroke="black" stroke-width="1"/>
  <path d="M 373.30 304.59 L 373.31 310.53 L 373.33 316.51 L 373.31 322.59 L 373.21 328.57 L 373.29 334.47 L 373.31 340.54 L 373.24 346.48 L 373.32 352.48 L 373.32 358.42 L 373.33 364.33 L 373.19 370.38 L 373.23 376.37 L 373.31 382.32 L 373.25 388.34" fill="none" stroke="black" stroke-width="1"/>
  <path d="M 355.35 370.38 L 355.75 369.47 L 356.28 368.59 L 356.84 367.74 L 357.28 366.81 L 357.77 365.88 L 358.31 365.02 L 358.81 364.18 L 359.35 363.23 L 359.83 362.32 L 360.37 361.44 L 360.77 360.54 L 361.34 359.65 L 361.72 358.81 L 362.25 357.87 L 362.64 356.92 L 363.06 356.07 L 363.42 355.13 L 363.74 354.28 L 364.01 353.42 L 364.27 352.49 L 364.52 351.60 L 364.64 350.69 L 364.68 349.73 L 364.85 348.89 L 364.94 348.03 L 364.94 347.08 L 364.94 346.26 L 364.93 345.28 L 364.95 344.43 L 364.85 343.47 L 364.79 342.60 L 364.73 341.67 L 364.64 340.74 L 364.58 339.86 L 364.45 338.89 L 364.45 338.06 L 364.35 337.20 L 364.35 336.25 L 364.31 335.36 L 364.32 334.44" fill="none" stroke="black" stroke-width="1"/>
  <path d="M 364.30 334.53 L 363.63 333.51 L 362.87 332.66 L 362.24 331.63 L 361.55 330.68 L 360.99 329.58 L 360.28 328.64 L 359.73 327.69 L 359.04 326.59 L 358.39 325.50 L 357.76 324.57 L 357.00 323.53 L 356.41 322.63 L 355.61 321.73 L 354.94 320.80 L 354.04 319.94 L 353.30 319.14 L 352.46 318.38 L 351.45 317.69 L 350.32 317.15 L 349.35 316.49 L 348.19 316.12 L 346.96 315.58 L 345.72 315.20 L 344.32 314.93 L 342.91 314.64 L 341.46 314.48 L 339.99 314.41 L 338.44 314.20 L 336.84 314.05 L 335.30 314.05 L 333.64 314.07 L 332.09 313.96 L 330.54 313.92 L 328.84 313.91 L 327.19 313.92 L 325.61 313.84 L 324.10 313.77 L 322.44 313.71 L 320.87 313.52 L 319.38 313.47" fill="none" stroke="black" stroke-width="1"/>
  <path d="M 319.36 313.46 L 317.85 313.64 L 316.29 313.69 L 314.74 313.82 L 313.11 313.81 L 311.44 313.93 L 309.88 313.87 L 308.30 313.90 L 306.63 313.92 L 304.96 313.94 L 303.41 314.00 L 301.88 314.02 L 300.27 314.15 L 298.73 314.31 L 297.24 314.43 L 295.83 314.65 L 294.39 314.86 L 293.10 315.18 L 291.74 315.51 L 290.58 315.89 L 289.35 316.42 L 288.25 317.06 L 287.25 317.61 L 286.36 318.38 L 285.40 319.06 L 284.51 319.95 L 283.77 320.72 L 283.12 321.61 L 282.30 322.54 L 281.66 323.44 L 280.95 324.49 L 280.26 325.47 L 279.68 326.51 L 279.04 327.54 L 278.43 328.56 L 277.83 329.52 L 277.17 330.59 L 276.60 331.61 L 275.86 332.56 L 275.21 333.56 L 274.43 334.43" fill="none" stroke="black" stroke-width="1"/>
  <path d="M 274.45 334.45 L 274.43 335.30 L 274.40 336.25 L 274.43 337.19 L 274.29 338.06 L 274.31 338.98 L 274.14 339.86 L 274.11 340.75 L 273.99 341.67 L 273.90 342.50 L 273.85 343.47 L 273.81 344.29 L 273.75 345.28 L 273.73 346.19 L 273.73 347.08 L 273.77 347.95 L 273.81 348.88 L 273.94 349.82 L 274.02 350.69 L 274.16 351.53 L 274.39 352.49 L 274.63 353.34 L 274.93 354.28 L 275.33 355.11 L 275.62 356.08 L 275.99 357.01 L 276.44 357.87 L 276.95 358.78 L 277.37 359.67 L 277.89 360.55 L 278.37 361.46 L 278.90 362.37 L 279.41 363.25 L 279.96 364.10 L 280.47 365.04 L 280.97 365.96 L 281.52 366.83 L 281.94 367.77 L 282.54 368.62 L 283.09 369.60 L 283.49 370.42" fill="none" stroke="black" stroke-width="1"/>
  <path d="M 283.44 370.40 L 284.28 370.98 L 285.23 371.64 L 286.15 372.31 L 287.02 372.94 L 287.89 373.64 L 288.80 374.28 L 289.67 374.90 L 290.59 375.64 L 291.47 376.28 L 292.38 376.97 L 293.18 377.53 L 294.16 378.25 L 295.06 378.89 L 295.95 379.47 L 296.77 380.01 L 297.74 380.58 L 298.65 380.99 L 299.53 381.57 L 300.49 381.98 L 301.33 382.40 L 302.22 382.70 L 303.12 383.06 L 304.04 383.24 L 304.92 383.57 L 305.89 383.84 L 306.72 383.95 L 307.62 384.15 L 308.53 384.23 L 309.43 384.35 L 310.33 384.43 L 311.26 384.52 L 312.13 384.59 L 313.09 384.74 L 313.94 384.73 L 314.86 384.88 L 315.74 384.88 L 316.73 384.90 L 317.54 385.07 L 318.53 385.15 L 319.35 385.32" fill="none" stroke="black" stroke-width="1"/>
  <path d="M 319.33 385.36 L 320.26 385.30 L 321.14 385.11 L 322.10 385.06 L 322.94 384.93 L 323.78 384.86 L 324.74 384.78 L 325.70 384.67 L 326.55 384.64 L 327.46 384.62 L 328.35 384.49 L 329.24 384.39 L 330.15 384.28 L 331.12 384.10 L 331.95 384.01 L 332.90 383.88 L 333.76 383.63 L 334.68 383.34 L 335.55 383.12 L 336.49 382.79 L 337.35 382.46 L 338.25 381.98 L 339.15 381.62 L 340.04 381.09 L 340.94 380.62 L 341.91 380.01 L 342.74 379.50 L 343.63 378.85 L 344.53 378.27 L 345.49 377.62 L 346.32 376.97 L 347.29 376.37 L 348.11 375.63 L 348.98 374.98 L 349.90 374.26 L 350.72 373.65 L 351.69 372.90 L 352.64 372.21 L 353.48 371.59 L 354.43 370.93 L 355.27 370.33" fill="none" stroke="black" stroke-width="1"/>
  <path d="M 343.38 403.35 L 342.11 400.32 L 340.80 397.46 L 339.37 394.59 L 337.95 391.74 L 336.54 388.98 L 334.95 386.12 L 333.41 383.37 L 331.90 380.52 L 330.40 377.79 L 328.94 374.88 L 327.52 371.97 L 326.17 369.11 L 324.85 366.22 L 323.71 363.16 L 322.67 360.00 L 321.68 356.94 L 320.93 353.71 L 320.19 350.39 L 319.80 346.88 L 319.37 343.43 L 319.27 339.74 L 319.29 336.02 L 319.63 332.15 L 319.87 328.21 L 320.47 324.18 L 320.99 320.06 L 321.68 315.94 L 322.54 311.65 L 323.42 307.28 L 324.41 303.06 L 325.44 298.71 L 326.47 294.34 L 327.56 289.96 L 328.61 285.57 L 329.68 281.16 L 330.71 276.83 L 331.64 272.54 L 332.65 268.18 L 333.48 264.03 L 334.32 259.71" fill="none" stroke="black" stroke-width="1"/>
  <path d="M 379.22 244.66 L 379.23 249.70 L 379.21 254.76 L 379.16 259.68" fill="none" stroke="black" stroke-width="1"/>
  <path d="M 340.36 259.66 L 340.34 254.57 L 340.41 249.63 L 340.33 244.64" fill="none" stroke="black" stroke-width="1"/>
  <path d="M 328.34 244.63 L 328.33 249.59 L 328.42 254.60 L 328.42 259.69" fill="none" stroke="black" stroke-width="1"/>
  <path d="M 289.48 244.73 L 289.49 249.64 L 289.47 254.76 L 289.36 259.65" fill="none" stroke="black" stroke-width="1"/>
  <path d="M 235.60 259.68 L 235.54 254.64 L 235.51 249.67 L 235.53 244.59" fill="none" stroke="black" stroke-width="1"/>
  <path d="M 223.59 244.57 L 223.56 249.65 L 223.54 254.55 L 223.58 259.64" fill="none" stroke="black" stroke-width="1"/>
  <path d="M 181.68 259.56 L 181.73 254.55 L 181.68 249.54 L 181.74 244.58" fill="none" stroke="black" stroke-width="1"/>
  <path d="M 169.68 244.58 L 169.84 250.42 L 170.01 256.43 L 170.11 262.42 L 170.31 268.24 L 170.46 274.14 L 170.43 280.12 L 170.67 286.00 L 170.87 291.99 L 170.85 297.82 L 171.13 303.81 L 171.26 309.73 L 171.35 315.70 L 171.49 321.64 L 171.62 327.52 L 171.82 333.47 L 171.89 339.25 L 172.04 345.24 L 172.09 351.22 L 172.37 357.04 L 172.49 362.92 L 172.59 368.87 L 172.75 374.77 L 172.81 380.69 L 173.00 386.61 L 173.21 392.69 L 173.31 398.53 L 173.34 404.38 L 173.50 410.41 L 173.73 416.26 L 173.90 422.13 L 173.91 428.09 L 174.05 433.98 L 174.28 440.00 L 174.43 445.99 L 174.50 451.90 L 174.75 457.81 L 174.79 463.63 L 174.87 469.53 L 175.11 475.54 L 175.14 481.52 L 175.45 487.39 L 175.58 493.30 L 175.64 499.19" fill="none" stroke="black" stroke-width="1"/>
  <path d="M 175.61 499.14 L 172.61 503.33 L 169.74 507.62 L 166.68 511.76 L 163.73 515.93 L 160.74 520.16" fill="none" stroke="black" stroke-width="1"/>
  <path d="M 160.77 520.03 L 155.59 520.08 L 150.54 519.96 L 145.25 519.98 L 140.15 520.10 L 134.96 520.12 L 129.80 520.09 L 124.70 520.09" fill="none" stroke="black" stroke-width="1"/>
  <path d="M 124.74 520.02 L 121.68 515.82 L 118.81 511.74 L 115.85 507.49 L 112.80 503.33 L 109.83 499.19" fill="none" stroke="black" stroke-width="1"/>
  <path d="M 109.84 499.15 L 115.27 499.11 L 120.74 499.11 L 126.24 499.17 L 131.75 499.20 L 137.27 499.08 L 142.75 499.11 L 148.35 499.05 L 153.84 499.15 L 159.25 499.06 L 164.80 499.10 L 170.26 499.04 L 175.75 499.07" fill="none" stroke="black" stroke-width="1"/>
</svg>