<svg xmlns="http://www.w3.org/2000/svg" width="800" height="600" viewBox="0 0 800 600">
  <rect width="100%" height="100%" fill="white"/>
  <path d="M 79.03 506.26 L 84.36 503.93 L 89.77 501.64 L 95.09 499.41 L 100.56 497.03 L 105.89 494.79 L 111.21 492.47 L 116.59 490.23 L 121.95 487.87 L 127.37 485.63 L 132.66 483.41 L 138.09 481.10 L 143.51 478.82 L 148.74 476.43 L 154.26 474.25 L 159.48 471.93 L 164.99 469.69 L 170.23 467.28 L 175.68 464.96 L 180.98 462.79 L 186.40 460.39 L 191.78 458.20 L 197.07 455.82 L 202.42 453.60 L 207.81 451.28 L 213.25 449.06 L 218.59 446.64 L 223.92 444.36 L 229.39 442.13 L 234.72 439.82 L 240.06 437.53 L 245.41 435.20 L 250.74 433.00 L 256.12 430.60 L 261.63 428.28 L 266.85 426.12 L 272.31 423.84 L 277.73 421.43 L 282.95 419.25 L 288.32 416.94 L 293.74 414.62 L 299.14 412.34 L 304.42 409.99 L 309.82 407.68 L 315.30 405.52 L 320.60 403.17" fill="none" stroke="black" stroke-width="1"/>
  <path d="M 320.61 403.15 L 314.96 404.48 L 309.31 405.81 L 303.76 407.21 L 298.16 408.66 L 292.51 409.94 L 286.86 411.39 L 281.23 412.69 L 275.63 414.18 L 270.11 415.50 L 264.34 416.92 L 258.87 418.29 L 253.13 419.52 L 247.51 420.93 L 241.97 422.39 L 236.38 423.74 L 230.79 425.10 L 225.03 426.35 L 219.51 427.80 L 213.85 429.24 L 208.27 430.51 L 202.65 431.96 L 197.07 433.32 L 191.39 434.64 L 185.82 435.99 L 180.16 437.46 L 174.43 438.69 L 168.96 440.09 L 163.30 441.51 L 157.61 442.90 L 151.95 444.28 L 146.35 445.50 L 140.87 446.90 L 135.15 448.33 L 129.57 449.63 L 123.87 450.98 L 118.26 452.47 L 112.67 453.73 L 107.04 455.17 L 101.45 456.57 L 95.92 457.95 L 90.30 459.27 L 84.54 460.61 L 78.98 462.01" fill="none" stroke="black" stroke-width="1"/>
  <path d="M 152.59 462.06 L 152.72 467.83 L 152.85 473.56 L 153.18 479.18 L 153.33 484.87 L 153.39 490.71 L 153.61 496.42 L 153.88 502.04 L 153.89 507.78 L 154.13 513.41 L 154.28 519.28 L 154.43 524.87 L 154.61 530.64 L 154.84 536.30 L 154.94 542.08 L 155.18 547.75 L 155.32 553.44 L 155.51 559.22" fill="none" stroke="black" stroke-width="1"/>
  <path d="M 155.51 559.34 L 161.13 558.75 L 166.65 557.97 L 172.27 557.39 L 177.74 556.71 L 183.45 556.13 L 188.97 555.49 L 194.44 554.86 L 200.00 554.04 L 205.65 553.47" fill="none" stroke="black" stroke-width="1"/>
  <path d="M 205.61 553.46 L 209.59 552.53 L 213.45 551.49 L 217.40 550.55" fill="none" stroke="black" stroke-width="1"/>
  <path d="M 217.42 550.46 L 222.92 551.22 L 228.58 551.99 L 234.10 552.70 L 239.49 553.49 L 245.11 554.20 L 250.68 555.03 L 256.13 555.77 L 261.73 556.45" fill="none" stroke="black" stroke-width="1"/>
  <path d="M 249.95 556.34 L 249.89 560.81 L 249.82 565.18" fill="none" stroke="black" stroke-width="1"/>
  <path d="M 249.94 565.20 L 245.44 565.19 L 240.99 565.29" fill="none" stroke="black" stroke-width="1"/>
  <path d="M 240.99 565.16 L 240.95 559.26 L 241.01 553.38" fill="none" stroke="black" stroke-width="1"/>
  <path d="M 261.64 556.28 L 261.47 550.51 L 261.31 544.86 L 261.14 539.09 L 260.88 533.46 L 260.80 527.71 L 260.62 521.92 L 260.38 516.21 L 260.29 510.57 L 260.17 504.82 L 259.96 499.18 L 259.71 493.39 L 259.62 487.74 L 259.45 481.88 L 259.28 476.23 L 259.04 470.56 L 258.83 464.87 L 258.71 459.07" fill="none" stroke="black" stroke-width="1"/>
  <path d="M 281.97 432.62 L 288.21 432.64" fill="none" stroke="black" stroke-width="1"/>
  <path d="M 249.85 388.48 L 248.36 385.63 L 246.72 382.64 L 245.01 379.79 L 243.29 376.90 L 241.50 374.04 L 239.70 371.23 L 237.84 368.39 L 236.07 365.56 L 234.22 362.69 L 232.53 359.87 L 230.94 357.03 L 229.19 354.10 L 227.64 351.10 L 226.18 348.22 L 224.85 345.13 L 223.62 342.18 L 222.56 339.12 L 221.64 335.93 L 221.04 332.71 L 220.37 329.44 L 220.20 326.13 L 219.88 322.67 L 220.04 319.25 L 220.09 315.65 L 220.50 312.07 L 220.89 308.43 L 221.55 304.70 L 222.13 301.05 L 222.87 297.35 L 223.71 293.55 L 224.52 289.79 L 225.50 285.98 L 226.35 282.23 L 227.37 278.38 L 228.22 274.58 L 229.19 270.80 L 230.05 267.06 L 230.85 263.27 L 231.46 259.49 L 232.22 255.85" fill="none" stroke="black" stroke-width="1"/>
  <path d="M 238.10 255.77 L 238.16 250.84 L 238.10 245.91 L 238.17 241.02" fill="none" stroke="black" stroke-width="1"/>
  <path d="M 241.10 235.19 L 241.46 240.84 L 241.74 246.59 L 242.14 252.33 L 242.42 258.06 L 242.62 263.83 L 242.94 269.68 L 243.32 275.30 L 243.76 281.08 L 243.96 286.72 L 244.37 292.48 L 244.68 298.18 L 244.90 304.06 L 245.20 309.83 L 245.60 315.41 L 245.84 321.14 L 246.20 326.95 L 246.49 332.75 L 246.89 338.41" fill="none" stroke="black" stroke-width="1"/>
  <path d="M 246.95 338.34 L 247.16 338.78 L 247.24 339.24 L 247.30 339.63 L 247.53 340.17 L 247.75 340.67 L 247.82 341.11 L 248.01 341.57 L 248.10 342.05 L 248.24 342.49 L 248.39 342.99 L 248.53 343.53 L 248.68 343.91 L 248.82 344.42 L 248.97 344.80 L 249.10 345.31 L 249.26 345.67 L 249.35 346.06 L 249.55 346.49 L 249.67 346.88 L 249.84 347.26 L 249.91 347.56 L 250.14 347.97 L 250.29 348.28 L 250.44 348.63 L 250.65 348.99 L 250.73 349.25 L 250.87 349.53 L 251.03 349.83 L 251.20 350.08 L 251.33 350.39 L 251.45 350.73 L 251.63 350.94 L 251.86 351.19 L 251.93 351.48 L 252.17 351.79 L 252.23 352.02 L 252.37 352.22 L 252.53 352.58 L 252.65 352.95 L 252.83 353.15" fill="none" stroke="black" stroke-width="1"/>
  <path d="M 252.76 353.00 L 252.90 352.67 L 253.12 352.43 L 253.38 352.13 L 253.56 351.88 L 253.89 351.63 L 254.05 351.35 L 254.33 351.12 L 254.55 350.82 L 254.83 350.63 L 255.03 350.28 L 255.30 350.05 L 255.45 349.73 L 255.70 349.38 L 255.78 349.16 L 255.96 348.85 L 255.97 348.54 L 255.93 348.17 L 255.99 347.89 L 255.90 347.53 L 255.82 347.18 L 255.65 346.72 L 255.42 346.42 L 255.09 346.09 L 254.81 345.60 L 254.48 345.17 L 254.04 344.73 L 253.66 344.26 L 253.14 343.84 L 252.69 343.39 L 252.14 342.91 L 251.62 342.50 L 251.08 341.98 L 250.47 341.46 L 250.00 341.03 L 249.49 340.50 L 248.93 340.09 L 248.43 339.71 L 247.91 339.16 L 247.49 338.66 L 246.97 338.26" fill="none" stroke="black" stroke-width="1"/>
  <path d="M 241.03 344.28 L 240.95 350.13 L 240.99 356.13 L 241.07 361.92 L 240.99 367.84 L 240.95 373.68 L 240.98 379.64 L 241.04 385.54 L 240.94 391.49 L 241.06 397.33 L 241.05 403.25 L 240.97 409.05 L 240.95 414.99 L 240.91 420.83 L 241.00 426.68 L 240.99 432.55 L 240.96 438.48 L 241.04 444.41 L 240.90 450.35 L 240.95 456.18 L 240.89 462.13 L 241.00 467.93 L 240.91 473.80 L 240.95 479.82 L 240.92 485.54 L 240.94 491.44 L 240.99 497.38 L 241.02 503.22 L 240.95 509.17 L 241.00 515.16 L 240.89 521.00 L 241.02 526.92 L 240.99 532.81 L 241.03 538.59 L 241.01 544.45 L 240.95 550.42" fill="none" stroke="black" stroke-width="1"/>
  <path d="M 232.18 553.43 L 232.25 557.79 L 232.18 562.29" fill="none" stroke="black" stroke-width="1"/>
  <path d="M 232.10 562.17 L 227.65 562.16 L 223.37 562.22" fill="none" stroke="black" stroke-width="1"/>
  <path d="M 223.42 562.29 L 223.37 558.39 L 223.43 554.36 L 223.36 550.50" fill="none" stroke="black" stroke-width="1"/>
  <path d="M 217.46 550.47 L 217.30 544.86 L 217.15 539.28 L 216.91 533.83 L 216.84 528.18 L 216.60 522.54 L 216.57 517.03 L 216.32 511.55 L 216.22 505.85 L 215.97 500.35 L 215.88 494.71 L 215.59 489.27 L 215.53 483.66 L 215.32 478.13 L 215.16 472.52 L 214.99 467.00 L 214.87 461.46 L 214.75 455.76 L 214.53 450.26" fill="none" stroke="black" stroke-width="1"/>
  <path d="M 214.58 450.30 L 210.55 451.19 L 206.71 452.26 L 202.65 453.16" fill="none" stroke="black" stroke-width="1"/>
  <path d="M 202.65 453.18 L 202.75 458.71 L 203.07 464.34 L 203.11 469.83 L 203.28 475.35 L 203.44 481.01 L 203.66 486.61 L 203.82 492.20 L 203.99 497.67 L 204.24 503.28 L 204.35 508.86 L 204.59 514.43 L 204.64 519.91 L 204.91 525.59 L 204.95 531.08 L 205.27 536.69 L 205.30 542.18 L 205.55 547.68 L 205.72 553.34" fill="none" stroke="black" stroke-width="1"/>
  <path d="M 205.52 547.45 L 205.65 544.57 L 206.08 541.72 L 206.08 538.77 L 206.40 536.00 L 206.90 533.17 L 206.93 530.33 L 207.43 527.51 L 207.82 524.59 L 207.69 521.73 L 208.22 518.89 L 208.27 515.94 L 208.88 513.12 L 209.13 510.22 L 209.29 507.58 L 209.52 504.76 L 209.81 501.87 L 210.02 498.72 L 210.38 495.93 L 210.60 493.17 L 210.65 490.44 L 211.15 487.25 L 211.55 484.70 L 211.83 481.61 L 211.79 478.71 L 212.18 475.95 L 212.60 473.18 L 212.80 470.48 L 213.09 467.56 L 213.24 464.40 L 213.61 461.68 L 213.87 458.85 L 214.15 455.93 L 214.29 453.21" fill="none" stroke="black" stroke-width="1"/>
  <path d="M 214.35 462.09 L 214.27 465.06 L 213.74 467.99 L 213.76 470.48 L 213.61 473.47 L 213.14 476.13 L 213.28 479.29 L 212.73 482.15 L 212.59 484.71 L 212.36 487.63 L 212.43 490.28 L 211.94 493.57 L 211.70 496.41 L 211.54 499.07 L 211.60 501.90 L 211.39 504.70 L 210.78 507.70 L 210.63 510.56 L 210.67 513.38 L 210.49 516.28 L 210.20 519.12 L 209.94 521.53 L 209.74 524.62 L 209.72 527.38 L 209.45 530.46 L 209.29 533.03 L 208.93 535.92 L 208.84 538.75 L 208.46 541.64" fill="none" stroke="black" stroke-width="1"/>
  <path d="M 217.44 538.76 L 222.61 539.03 L 227.81 539.45 L 232.88 539.81 L 238.17 540.12 L 243.34 540.57 L 248.48 540.84 L 253.67 541.28 L 258.79 541.58" fill="none" stroke="black" stroke-width="1"/>
  <path d="M 314.71 521.02 L 309.17 518.79 L 303.73 516.74 L 298.36 514.44 L 292.96 512.34 L 287.41 510.11 L 281.93 507.91 L 276.42 505.66 L 270.99 503.54 L 265.56 501.36 L 260.21 499.23 L 254.63 497.00 L 249.22 494.82 L 243.72 492.60 L 238.23 490.48 L 232.80 488.28 L 227.43 486.03 L 222.02 483.97 L 216.48 481.78 L 210.98 479.58 L 205.54 477.36 L 200.17 475.27 L 194.58 472.98 L 189.28 470.92 L 183.81 468.59 L 178.29 466.48 L 172.80 464.23 L 167.33 462.08 L 161.96 459.91 L 156.55 457.74 L 150.92 455.63 L 145.61 453.39 L 140.11 451.24 L 134.64 449.10 L 129.22 446.77 L 123.75 444.71 L 118.32 442.50 L 112.81 440.26 L 107.33 438.16 L 101.86 435.99 L 96.46 433.69 L 90.92 431.51 L 85.52 429.37 L 80.01 427.16 L 74.66 425.04 L 69.13 422.77 L 63.65 420.68 L 58.32 418.41 L 52.85 416.34 L 47.37 414.12 L 41.80 411.94 L 36.47 409.72 L 30.93 407.64 L 25.53 405.41 L 20.04 403.20" fill="none" stroke="black" stroke-width="1"/>
  <path d="M 20.13 403.09 L 25.57 400.95 L 30.86 398.88 L 36.34 396.71 L 41.69 394.75 L 47.19 392.56 L 52.53 390.51 L 57.98 388.44 L 63.40 386.20 L 68.84 384.22 L 74.20 382.06 L 79.58 380.03 L 85.03 377.94 L 90.47 375.81 L 95.96 373.69 L 101.21 371.57 L 106.69 369.47 L 112.10 367.41 L 117.56 365.26 L 122.95 363.12 L 128.32 360.98 L 133.73 358.99 L 139.18 356.94 L 144.57 354.78 L 150.05 352.63 L 155.35 350.57 L 160.85 348.48 L 166.29 346.32 L 171.55 344.16 L 177.00 342.10 L 182.51 340.04 L 187.89 337.93 L 193.31 335.81 L 198.75 333.72 L 204.12 331.67 L 209.48 329.61 L 214.87 327.45 L 220.35 325.28 L 225.76 323.18 L 231.15 321.19 L 236.45 319.08 L 241.94 316.86 L 247.38 314.80 L 252.73 312.79 L 258.12 310.64 L 263.53 308.52 L 268.98 306.35 L 274.43 304.40 L 279.89 302.15 L 285.23 300.11" fill="none" stroke="black" stroke-width="1"/>
  <path d="M 300.01 308.83 L 294.81 309.50 L 289.71 310.26 L 284.57 311.02 L 279.39 311.73" fill="none" stroke="black" stroke-width="1"/>
  <path d="M 261.67 314.73 L 256.56 315.49 L 251.30 316.13 L 246.10 316.94 L 240.94 317.66" fill="none" stroke="black" stroke-width="1"/>
  <path d="M 220.47 320.74 L 216.09 321.41 L 211.58 322.13 L 207.05 322.91 L 202.66 323.59" fill="none" stroke="black" stroke-width="1"/>
  <path d="M 182.04 326.55 L 177.08 327.56 L 172.15 328.40 L 167.32 329.42" fill="none" stroke="black" stroke-width="1"/>
  <path d="M 158.61 300.09 L 164.39 299.33 L 170.18 298.60 L 175.98 297.81 L 181.81 296.86 L 187.60 296.10 L 193.28 295.29 L 199.22 294.56 L 204.85 293.86 L 210.78 292.97 L 216.51 292.21 L 222.37 291.49 L 228.13 290.69 L 233.90 289.89 L 239.68 289.00 L 245.42 288.22 L 251.20 287.45 L 256.96 286.67 L 262.82 286.00 L 268.55 285.19 L 274.48 284.44 L 280.28 283.60 L 285.96 282.83 L 291.84 282.05 L 297.58 281.17 L 303.34 280.46 L 309.07 279.62 L 314.96 278.78 L 320.69 278.07 L 326.45 277.22 L 332.29 276.48" fill="none" stroke="black" stroke-width="1"/>
  <path d="M 338.30 279.44 L 344.07 280.23 L 350.00 280.98 L 355.65 281.77 L 361.57 282.54 L 367.31 283.36 L 373.15 284.19 L 378.97 284.87 L 384.75 285.62 L 390.50 286.49 L 396.32 287.18 L 402.16 287.96 L 408.02 288.76 L 413.73 289.53 L 419.60 290.40 L 425.33 291.07 L 431.23 291.99 L 436.98 292.65 L 442.74 293.52 L 448.59 294.21 L 454.48 295.07 L 460.19 295.86 L 465.97 296.67 L 471.75 297.31 L 477.55 298.11 L 483.41 298.89 L 489.30 299.65 L 495.07 300.48 L 500.84 301.20 L 506.67 302.10 L 512.40 302.76 L 518.29 303.64 L 524.06 304.32 L 529.84 305.16 L 535.70 305.95" fill="none" stroke="black" stroke-width="1"/>
  <path d="M 520.91 329.52 L 515.55 331.44 L 510.00 333.58 L 504.61 335.40 L 499.27 337.43 L 493.77 339.41 L 488.35 341.53 L 483.00 343.54 L 477.60 345.39 L 472.09 347.40 L 466.77 349.49 L 461.41 351.33 L 455.88 353.36 L 450.46 355.43 L 445.18 357.35 L 439.72 359.32 L 434.24 361.31 L 428.85 363.29 L 423.46 365.33 L 418.02 367.25 L 412.58 369.32 L 407.24 371.31 L 401.75 373.36 L 396.33 375.23 L 390.92 377.26 L 385.57 379.22 L 380.19 381.18 L 374.61 383.24 L 369.25 385.20 L 363.86 387.30 L 358.51 389.17 L 353.08 391.29 L 347.62 393.21 L 342.15 395.20 L 336.77 397.26 L 331.29 399.10 L 325.95 401.08 L 320.53 403.16" fill="none" stroke="black" stroke-width="1"/>
  <path d="M 320.51 403.10 L 315.02 401.16 L 309.58 399.01 L 304.00 397.04 L 298.47 395.04 L 293.02 392.98 L 287.52 391.03 L 282.10 389.03 L 276.67 386.99 L 271.05 384.99 L 265.58 383.02 L 260.14 380.99 L 254.72 378.94 L 249.19 377.06 L 243.70 374.92 L 238.18 372.95 L 232.65 370.92 L 227.12 368.95 L 221.74 366.89 L 216.29 365.04 L 210.79 362.93 L 205.29 360.99 L 199.69 359.03 L 194.20 356.98 L 188.79 354.93 L 183.23 352.97 L 177.89 350.85 L 172.27 349.00 L 166.87 346.94 L 161.38 344.85 L 155.82 342.92 L 150.33 340.90 L 144.83 338.83 L 139.34 336.95 L 133.97 334.78 L 128.35 332.83 L 122.91 330.87 L 117.45 328.84 L 111.87 326.85 L 106.44 324.84 L 100.95 322.82 L 95.54 320.83 L 89.97 318.84 L 84.43 316.88 L 79.02 314.80" fill="none" stroke="black" stroke-width="1"/>
  <path d="M 79.07 270.53 L 84.24 273.37 L 89.35 276.24 L 94.47 279.08 L 99.65 281.75 L 104.77 284.63 L 109.97 287.52 L 115.02 290.24 L 120.21 293.13 L 125.27 295.95 L 130.48 298.80 L 135.54 301.56 L 140.79 304.30 L 145.90 307.21 L 151.09 310.10 L 156.14 312.92 L 161.32 315.75 L 166.52 318.46 L 171.68 321.39 L 176.75 324.10 L 181.93 326.86 L 187.09 329.71 L 192.14 332.63 L 197.22 335.45 L 202.42 338.18 L 207.55 341.08 L 212.77 343.92 L 217.81 346.72 L 222.98 349.47 L 228.11 352.28 L 233.30 355.16 L 238.49 357.90 L 243.49 360.84 L 248.65 363.57 L 253.90 366.41 L 258.90 369.24 L 264.14 372.06 L 269.31 374.94 L 274.39 377.76 L 279.56 380.61 L 284.66 383.36 L 289.75 386.26 L 295.02 389.02 L 300.13 391.91 L 305.25 394.67 L 310.41 397.50 L 315.60 400.34 L 320.65 403.10" fill="none" stroke="black" stroke-width="1"/>
  <path d="M 320.61 403.12 L 326.31 404.40 L 332.07 405.65 L 337.77 406.83 L 343.46 408.13 L 349.16 409.41 L 354.93 410.73 L 360.62 411.93 L 366.34 413.24 L 372.12 414.57 L 377.77 415.67 L 383.62 417.09 L 389.21 418.35 L 394.92 419.57 L 400.76 420.80 L 406.47 422.04 L 412.25 423.34 L 417.88 424.65 L 423.64 425.88 L 429.27 427.18 L 435.15 428.42 L 440.75 429.65 L 446.47 430.97 L 452.26 432.18 L 457.92 433.51 L 463.74 434.78 L 469.38 435.96 L 475.13 437.23 L 480.88 438.44 L 486.50 439.74 L 492.31 441.04 L 497.98 442.31 L 503.74 443.56 L 509.50 444.76 L 515.21 446.15 L 520.91 447.37" fill="none" stroke="black" stroke-width="1"/>
  <path d="M 565.07 476.80 L 559.44 476.81 L 553.83 476.82 L 548.35 476.89 L 542.69 476.82 L 537.07 476.92 L 531.52 476.80 L 525.82 476.88 L 520.25 476.85 L 514.68 476.94 L 509.08 476.88" fill="none" stroke="black" stroke-width="1"/>
  <path d="M 520.91 491.52 L 515.59 489.23 L 510.28 486.92 L 505.05 484.58 L 499.74 482.16 L 494.52 479.85 L 489.35 477.54 L 483.98 475.22 L 478.82 472.97 L 473.48 470.59 L 468.18 468.28 L 462.94 465.95 L 457.67 463.57 L 452.29 461.32 L 447.08 458.98 L 441.91 456.57 L 436.49 454.30 L 431.34 451.95 L 425.98 449.71 L 420.67 447.27 L 415.46 444.96 L 410.19 442.69 L 404.85 440.35 L 399.58 437.96 L 394.30 435.70 L 389.10 433.38 L 383.86 431.08 L 378.51 428.65 L 373.32 426.38 L 367.98 424.06 L 362.82 421.81 L 357.47 419.34 L 352.19 417.03 L 347.00 414.80 L 341.69 412.46 L 336.47 410.09 L 331.09 407.83 L 325.93 405.53 L 320.58 403.13" fill="none" stroke="black" stroke-width="1"/>
  <path d="M 320.61 403.10 L 324.96 399.19 L 329.37 395.37 L 333.61 391.55 L 338.01 387.79 L 342.38 383.80 L 346.80 380.06 L 351.01 376.18 L 355.52 372.43 L 359.80 368.45 L 364.14 364.77 L 368.43 360.86 L 372.86 357.07 L 377.13 353.19 L 381.57 349.27 L 385.95 345.42 L 390.24 341.62 L 394.57 337.74 L 399.05 333.94 L 403.39 330.19 L 407.62 326.34 L 412.02 322.38 L 416.31 318.53 L 420.68 314.78 L 425.13 310.92 L 429.52 307.01 L 433.75 303.29 L 438.15 299.35 L 442.61 295.50 L 446.82 291.63 L 451.27 287.87 L 455.67 283.97 L 460.01 280.17 L 464.35 276.29 L 468.72 272.43 L 473.05 268.72 L 477.34 264.89 L 481.69 261.01 L 486.02 257.08 L 490.44 253.33 L 494.80 249.43 L 499.13 245.56 L 503.49 241.75 L 507.79 237.92 L 512.27 234.01 L 516.62 230.23 L 520.90 226.40" fill="none" stroke="black" stroke-width="1"/>
  <path d="M 514.97 241.14 L 514.87 246.91 L 514.61 252.61 L 514.51 258.43 L 514.38 264.18 L 514.32 269.96 L 514.09 275.70 L 513.95 281.31 L 513.88 287.05 L 513.70 292.88 L 513.56 298.63 L 513.43 304.39 L 513.36 310.05 L 513.15 315.89 L 512.90 321.56 L 512.77 327.44 L 512.65 333.06 L 512.65 338.91 L 512.45 344.62 L 512.31 350.31 L 512.18 356.15 L 511.92 361.81 L 511.82 367.70 L 511.79 373.32 L 511.56 379.21 L 511.49 384.91 L 511.25 390.65 L 511.17 396.29 L 510.96 402.12 L 510.81 407.90 L 510.74 413.59 L 510.49 419.30 L 510.42 425.08 L 510.29 430.87 L 510.17 436.69 L 510.03 442.28 L 509.86 448.15 L 509.69 453.93 L 509.60 459.55 L 509.51 465.43 L 509.31 471.03 L 509.15 476.86" fill="none" stroke="black" stroke-width="1"/>
  <path d="M 509.18 476.74 L 511.49 480.84 L 513.97 485.00 L 516.31 489.22 L 518.59 493.38 L 520.97 497.50" fill="none" stroke="black" stroke-width="1"/>
  <path d="M 520.96 497.42 L 526.31 497.44 L 531.78 497.43 L 537.17 497.45 L 542.59 497.54 L 547.95 497.54 L 553.32 497.48" fill="none" stroke="black" stroke-width="1"/>
  <path d="M 553.26 497.50 L 555.60 493.37 L 557.99 489.21 L 560.27 485.20 L 562.72 480.99 L 565.04 476.89" fill="none" stroke="black" stroke-width="1"/>
  <path d="M 565.09 476.86 L 565.47 471.05 L 565.72 465.43 L 566.23 459.63 L 566.44 453.87 L 566.96 448.12 L 567.21 442.30 L 567.54 436.54 L 567.92 430.87 L 568.29 425.17 L 568.70 419.36 L 569.10 413.67 L 569.32 407.85 L 569.80 402.13 L 570.14 396.31 L 570.54 390.62 L 570.78 384.87 L 571.17 379.07 L 571.56 373.29 L 571.88 367.68 L 572.27 361.94 L 572.70 356.07 L 573.03 350.36 L 573.29 344.68 L 573.79 338.92 L 574.16 333.10 L 574.51 327.33 L 574.84 321.62 L 575.24 315.90 L 575.56 310.19 L 575.80 304.41 L 576.20 298.65 L 576.52 292.84 L 576.95 287.04 L 577.35 281.27 L 577.62 275.54 L 578.07 269.78 L 578.45 264.07 L 578.73 258.41 L 579.16 252.60 L 579.39 246.90 L 579.83 241.10" fill="none" stroke="black" stroke-width="1"/>
  <path d="M 623.99 241.06 L 625.08 240.62 L 626.14 240.23 L 627.22 239.94 L 628.42 239.49 L 629.57 239.08 L 630.77 238.79 L 631.99 238.47 L 633.14 238.11 L 634.36 237.76 L 635.47 237.40 L 636.59 236.98 L 637.71 236.63 L 638.78 236.19 L 639.82 235.77 L 640.74 235.36 L 641.72 234.78 L 642.57 234.16 L 643.37 233.62 L 643.97 233.03 L 644.73 232.26 L 645.25 231.54 L 645.74 230.68 L 646.02 229.76 L 646.45 228.89 L 646.68 227.86 L 646.91 226.94 L 647.09 225.83 L 647.17 224.86 L 647.30 223.74 L 647.29 222.68 L 647.37 221.62 L 647.32 220.45 L 647.35 219.31 L 647.32 218.19 L 647.28 217.13 L 647.33 215.94 L 647.29 214.80 L 647.42 213.75 L 647.48 212.67 L 647.63 211.63" fill="none" stroke="black" stroke-width="1"/>
  <path d="M 624.12 182.12 L 624.12 188.05 L 623.99 193.96 L 624.09 199.78 L 623.96 205.69 L 624.00 211.56" fill="none" stroke="black" stroke-width="1"/>
  <path d="M 603.51 211.69 L 603.66 212.72 L 603.73 213.80 L 603.81 214.85 L 603.85 215.99 L 603.83 217.19 L 603.90 218.23 L 604.00 219.44 L 603.94 220.49 L 603.92 221.57 L 604.01 222.71 L 604.02 223.81 L 604.15 224.88 L 604.34 225.94 L 604.42 226.96 L 604.58 228.01 L 604.84 228.90 L 605.17 229.76 L 605.48 230.68 L 605.84 231.43 L 606.36 232.27 L 606.99 232.99 L 607.53 233.62 L 608.21 234.17 L 608.96 234.78 L 609.82 235.20 L 610.59 235.78 L 611.44 236.16 L 612.38 236.64 L 613.33 237.01 L 614.29 237.41 L 615.22 237.72 L 616.28 238.13 L 617.31 238.53 L 618.30 238.81 L 619.21 239.22 L 620.30 239.52 L 621.25 239.85 L 622.24 240.26 L 623.12 240.61 L 624.08 241.09" fill="none" stroke="black" stroke-width="1"/>
  <path d="M 668.25 344.23 L 78.98 344.23" fill="none" stroke="black" stroke-width="1"/>
  <path d="M 78.98 403.15 L 520.93 403.15" fill="none" stroke="black" stroke-width="1"/>
  <path d="M 506.14 403.15 L 506.14 409.10 L 506.25 414.90 L 506.15 420.78 L 506.19 426.76 L 506.26 432.56" fill="none" stroke="black" stroke-width="1"/>
  <path d="M 506.23 432.69 L 500.47 432.70 L 494.69 432.75 L 488.87 432.74 L 483.23 432.69 L 477.43 432.62 L 471.70 432.77 L 465.81 432.65 L 460.10 432.63 L 454.34 432.76 L 448.49 432.61 L 442.85 432.71 L 437.11 432.70 L 431.31 432.72 L 425.59 432.71 L 419.79 432.67 L 414.06 432.60 L 408.14 432.76 L 402.44 432.68 L 396.67 432.67 L 390.87 432.60 L 385.17 432.64 L 379.36 432.73 L 373.71 432.63 L 367.78 432.66 L 362.07 432.71 L 356.37 432.65 L 350.65 432.62 L 344.75 432.74 L 339.01 432.66 L 333.32 432.74 L 327.59 432.66 L 321.73 432.73 L 315.94 432.71 L 310.15 432.74 L 304.54 432.67 L 298.78 432.64 L 292.87 432.72 L 287.17 432.74 L 281.42 432.67 L 275.64 432.62 L 269.83 432.75 L 264.07 432.64 L 258.40 432.74 L 252.49 432.64 L 246.80 432.62 L 241.04 432.69" fill="none" stroke="black" stroke-width="1"/>
  <path d="M 241.11 432.59 L 241.13 426.63 L 241.12 420.79 L 240.99 414.92 L 241.01 409.06 L 240.98 403.13" fill="none" stroke="black" stroke-width="1"/>
  <path d="M 241.07 403.17 L 240.06 397.35 L 238.99 391.55 L 237.95 385.77 L 236.88 379.98 L 235.83 374.20 L 234.72 368.35 L 233.72 362.64 L 232.64 356.87 L 231.54 350.97 L 230.57 345.26 L 229.51 339.55 L 228.43 333.72 L 227.32 327.98 L 226.40 322.09 L 225.21 316.29 L 224.23 310.44 L 223.14 304.64 L 222.07 299.00 L 221.14 293.22 L 220.03 287.38 L 218.89 281.58 L 217.89 275.70 L 216.92 270.04 L 215.83 264.15 L 214.73 258.37 L 213.69 252.67 L 212.74 246.81 L 211.61 241.03" fill="none" stroke="black" stroke-width="1"/>
  <path d="M 211.62 241.11 L 217.54 241.13 L 223.41 241.12 L 229.24 241.05 L 235.13 241.03 L 241.01 241.06 L 246.98 241.05 L 252.77 241.11 L 258.71 241.18 L 264.66 241.17 L 270.54 241.11 L 276.50 241.04 L 282.36 241.15 L 288.17 241.18 L 294.02 241.19 L 300.02 241.03 L 305.82 241.12 L 311.78 241.17 L 317.71 241.17 L 323.48 241.20 L 329.35 241.17 L 335.40 241.05 L 341.16 241.07 L 347.10 241.10 L 353.06 241.19 L 358.83 241.05 L 364.84 241.16 L 370.69 241.19 L 376.65 241.09 L 382.48 241.18 L 388.34 241.13 L 394.29 241.09 L 400.12 241.20 L 406.09 241.13 L 411.91 241.11 L 417.83 241.10 L 423.66 241.16 L 429.54 241.05 L 435.47 241.19 L 441.39 241.21 L 447.18 241.19 L 453.15 241.17 L 458.98 241.15 L 464.92 241.21 L 470.90 241.16 L 476.67 241.05 L 482.54 241.18 L 488.56 241.04 L 494.37 241.19 L 500.21 241.06 L 506.16 241.18 L 512.06 241.11 L 517.90 241.08 L 523.85 241.14 L 529.68 241.17 L 535.63 241.13" fill="none" stroke="black" stroke-width="1"/>
  <path d="M 535.68 241.14 L 534.55 247.01 L 533.65 252.67 L 532.51 258.53 L 531.42 264.30 L 530.38 270.04 L 529.34 275.84 L 528.34 281.72 L 527.17 287.51 L 526.26 293.19 L 525.19 299.01 L 524.03 304.73 L 522.94 310.66 L 521.92 316.43 L 520.94 322.09 L 519.86 327.89 L 518.73 333.83 L 517.73 339.56 L 516.67 345.26 L 515.56 351.14 L 514.55 356.88 L 513.59 362.70 L 512.44 368.39 L 511.47 374.32 L 510.27 380.08 L 509.24 385.89 L 508.33 391.60 L 507.16 397.39 L 506.13 403.19" fill="none" stroke="black" stroke-width="1"/>
  <path d="M 544.43 411.98 L 538.64 411.24 L 533.01 410.41 L 527.18 409.47 L 521.55 408.75 L 515.77 407.82 L 510.06 407.11 L 504.26 406.24 L 498.53 405.49 L 492.83 404.61 L 487.22 403.78 L 481.49 403.06 L 475.60 402.27 L 469.88 401.41 L 464.23 400.61 L 458.48 399.83 L 452.83 398.87 L 447.01 398.07 L 441.35 397.27 L 435.51 396.52 L 429.88 395.64 L 424.08 394.92 L 418.48 393.97 L 412.62 393.26 L 406.93 392.39 L 401.29 391.61 L 395.44 390.82 L 389.67 389.98 L 384.00 389.15 L 378.27 388.34 L 372.52 387.58 L 366.79 386.68 L 361.11 385.85 L 355.37 384.99 L 349.67 384.19 L 343.92 383.47 L 338.20 382.61" fill="none" stroke="black" stroke-width="1"/>
  <path d="M 338.35 382.59 L 339.48 388.21 L 340.43 393.99 L 341.44 399.64 L 342.51 405.38 L 343.50 410.95 L 344.53 416.62 L 345.64 422.36 L 346.68 428.14 L 347.66 433.74 L 348.77 439.43 L 349.78 445.14 L 350.93 450.87 L 351.95 456.51 L 352.94 462.15" fill="none" stroke="black" stroke-width="1"/>
  <path d="M 352.94 462.05 L 358.18 459.92 L 363.50 457.80 L 368.76 455.71 L 373.92 453.68 L 379.31 451.59 L 384.44 449.45 L 389.80 447.31 L 394.97 445.21 L 400.31 443.10 L 405.55 441.04 L 410.83 438.92 L 416.12 436.83 L 421.29 434.63 L 426.57 432.59" fill="none" stroke="black" stroke-width="1"/>
  <path d="M 403.19 432.50 L 402.39 438.35" fill="none" stroke="black" stroke-width="1"/>
  <path d="M 403.02 432.65 L 401.78 438.19 L 400.58 443.67 L 399.43 449.23 L 398.35 454.85 L 397.24 460.43 L 395.91 465.95 L 394.85 471.35 L 393.66 476.97 L 392.47 482.42 L 391.34 488.05 L 390.07 493.57 L 388.87 499.07 L 387.85 504.59 L 386.53 510.23 L 385.37 515.69 L 384.20 521.33 L 383.12 526.78 L 381.88 532.29 L 380.70 537.89 L 379.64 543.41 L 378.33 548.91 L 377.13 554.60 L 376.00 559.98 L 374.84 565.55 L 373.69 571.14" fill="none" stroke="black" stroke-width="1"/>
  <path d="M 373.64 571.12 L 372.51 565.66 L 371.22 560.07 L 370.09 554.55 L 368.84 548.93 L 367.69 543.43 L 366.63 537.85 L 365.43 532.35 L 364.19 526.76 L 363.05 521.30 L 361.82 515.74 L 360.61 510.16 L 359.46 504.61 L 358.26 499.07 L 357.21 493.48 L 355.89 487.94 L 354.82 482.43 L 353.60 476.85 L 352.38 471.47 L 351.24 465.91 L 350.13 460.30 L 348.91 454.68 L 347.66 449.21 L 346.59 443.65 L 345.42 438.10 L 344.18 432.60" fill="none" stroke="black" stroke-width="1"/>
  <path d="M 344.09 432.69 L 349.99 432.60 L 355.92 432.76 L 361.77 432.63 L 367.66 432.72 L 373.54 432.63 L 379.51 432.63 L 385.36 432.65 L 391.20 432.58 L 397.18 432.57 L 403.01 432.61" fill="none" stroke="black" stroke-width="1"/>
  <path d="M 397.24 397.28 L 396.00 394.31 L 394.71 391.49 L 393.30 388.66 L 391.90 385.86 L 390.51 383.15 L 388.95 380.33 L 387.43 377.62 L 385.95 374.82 L 384.47 372.13 L 383.03 369.26 L 381.64 366.40 L 380.31 363.59 L 379.01 360.74 L 377.89 357.73 L 376.87 354.62 L 375.89 351.61 L 375.15 348.43 L 374.42 345.16 L 374.04 341.71 L 373.61 338.31 L 373.52 334.68 L 373.53 331.02 L 373.87 327.21 L 374.10 323.33 L 374.70 319.37 L 375.21 315.32 L 375.89 311.26 L 376.74 307.04 L 377.60 302.74 L 378.58 298.58 L 379.59 294.30 L 380.60 290.00 L 381.68 285.68 L 382.71 281.37 L 383.76 277.03 L 384.77 272.77 L 385.69 268.54 L 386.69 264.26 L 387.51 260.16 L 388.33 255.91" fill="none" stroke="black" stroke-width="1"/>
  <path d="M 394.28 255.87 L 394.26 250.86 L 394.32 246.00 L 394.24 241.09" fill="none" stroke="black" stroke-width="1"/>
  <path d="M 382.52 255.89 L 382.53 250.89 L 382.44 245.96 L 382.45 241.08" fill="none" stroke="black" stroke-width="1"/>
  <path d="M 388.27 246.93 L 388.35 252.52 L 388.58 258.15 L 388.71 263.79 L 388.92 269.43 L 388.98 274.98 L 389.20 280.66 L 389.26 286.27 L 389.48 291.89 L 389.51 297.42 L 389.67 303.06 L 389.89 308.76 L 389.97 314.34 L 390.15 319.93 L 390.25 325.51 L 390.35 331.12 L 390.49 336.77 L 390.73 342.41 L 390.79 348.04 L 391.07 353.65 L 391.08 359.22 L 391.27 364.87" fill="none" stroke="black" stroke-width="1"/>
  <path d="M 408.95 364.79 L 408.13 365.37 L 407.19 366.02 L 406.36 366.64 L 405.42 367.32 L 404.47 368.06 L 403.66 368.66 L 402.75 369.37 L 401.90 370.00 L 401.10 370.73 L 400.14 371.32 L 399.33 371.97 L 398.37 372.60 L 397.49 373.17 L 396.61 373.81 L 395.80 374.32 L 394.85 374.92 L 393.96 375.38 L 393.08 375.90 L 392.20 376.25 L 391.31 376.72 L 390.47 377.05 L 389.54 377.38 L 388.69 377.59 L 387.77 377.88 L 386.93 378.13 L 386.00 378.25 L 385.18 378.34 L 384.23 378.52 L 383.33 378.63 L 382.45 378.72 L 381.58 378.85 L 380.68 378.87 L 379.84 378.90 L 378.90 379.01 L 377.96 379.09 L 377.13 379.15 L 376.30 379.28 L 375.36 379.33 L 374.49 379.52 L 373.58 379.58" fill="none" stroke="black" stroke-width="1"/>
  <path d="M 373.59 379.54 L 372.78 379.37 L 371.82 379.30 L 371.02 379.12 L 370.04 379.11 L 369.18 379.10 L 368.27 378.96 L 367.44 378.97 L 366.49 378.82 L 365.63 378.75 L 364.72 378.67 L 363.83 378.58 L 362.94 378.46 L 362.06 378.38 L 361.17 378.19 L 360.35 378.08 L 359.40 377.82 L 358.52 377.50 L 357.63 377.32 L 356.74 376.96 L 355.86 376.67 L 355.04 376.25 L 354.09 375.85 L 353.22 375.28 L 352.33 374.88 L 351.38 374.32 L 350.57 373.78 L 349.69 373.21 L 348.81 372.59 L 347.84 371.88 L 347.05 371.32 L 346.16 370.64 L 345.29 370.01 L 344.38 369.29 L 343.53 368.68 L 342.64 368.04 L 341.77 367.36 L 340.92 366.74 L 340.01 366.07 L 339.08 365.43 L 338.25 364.85" fill="none" stroke="black" stroke-width="1"/>
  <path d="M 338.30 364.87 L 337.91 364.07 L 337.36 363.11 L 336.78 362.27 L 336.37 361.34 L 335.83 360.49 L 335.33 359.58 L 334.83 358.66 L 334.29 357.82 L 333.79 356.95 L 333.26 356.05 L 332.79 355.16 L 332.28 354.29 L 331.87 353.42 L 331.37 352.53 L 330.92 351.67 L 330.56 350.76 L 330.27 349.81 L 329.88 348.99 L 329.58 348.06 L 329.35 347.22 L 329.12 346.28 L 328.99 345.45 L 328.91 344.60 L 328.78 343.68 L 328.73 342.76 L 328.70 341.91 L 328.70 341.03 L 328.72 340.13 L 328.78 339.16 L 328.81 338.36 L 328.87 337.39 L 328.95 336.58 L 329.07 335.68 L 329.11 334.80 L 329.26 333.93 L 329.25 333.03 L 329.39 332.17 L 329.36 331.25 L 329.39 330.31 L 329.41 329.48" fill="none" stroke="black" stroke-width="1"/>
  <path d="M 329.39 329.46 L 330.16 328.60 L 330.79 327.62 L 331.52 326.68 L 332.09 325.68 L 332.73 324.62 L 333.33 323.67 L 333.93 322.67 L 334.55 321.66 L 335.13 320.64 L 335.80 319.67 L 336.50 318.64 L 337.13 317.76 L 337.94 316.84 L 338.58 315.96 L 339.31 315.21 L 340.18 314.33 L 341.13 313.66 L 342.00 312.90 L 342.99 312.36 L 344.07 311.73 L 345.28 311.20 L 346.42 310.84 L 347.77 310.51 L 349.03 310.20 L 350.45 309.99 L 351.84 309.77 L 353.30 309.65 L 354.81 309.50 L 356.40 309.37 L 357.91 309.35 L 359.44 309.28 L 361.08 309.27 L 362.72 309.25 L 364.27 309.22 L 365.81 309.28 L 367.46 309.16 L 369.06 309.17 L 370.58 309.04 L 372.12 309.00 L 373.60 308.82" fill="none" stroke="black" stroke-width="1"/>
  <path d="M 373.62 308.83 L 375.09 308.87 L 376.64 309.06 L 378.27 309.12 L 379.76 309.19 L 381.31 309.27 L 382.94 309.26 L 384.61 309.27 L 386.13 309.31 L 387.66 309.42 L 389.30 309.39 L 390.81 309.40 L 392.39 309.55 L 393.91 309.75 L 395.36 309.82 L 396.78 309.98 L 398.17 310.26 L 399.54 310.53 L 400.77 310.91 L 401.98 311.43 L 403.12 311.80 L 404.08 312.45 L 405.19 312.98 L 406.18 313.66 L 407.01 314.41 L 407.73 315.20 L 408.62 316.04 L 409.28 316.95 L 410.07 317.84 L 410.65 318.72 L 411.40 319.75 L 412.02 320.67 L 412.66 321.74 L 413.34 322.82 L 413.88 323.76 L 414.58 324.69 L 415.12 325.76 L 415.81 326.70 L 416.43 327.71 L 417.17 328.55 L 417.83 329.55" fill="none" stroke="black" stroke-width="1"/>
  <path d="M 417.85 329.47 L 417.84 330.37 L 417.89 331.25 L 417.88 332.18 L 417.98 333.02 L 417.98 333.85 L 418.11 334.80 L 418.17 335.66 L 418.25 336.58 L 418.31 337.50 L 418.38 338.36 L 418.47 339.30 L 418.46 340.13 L 418.46 341.10 L 418.46 341.91 L 418.47 342.84 L 418.38 343.68 L 418.21 344.52 L 418.17 345.46 L 418.05 346.35 L 417.81 347.22 L 417.55 348.14 L 417.28 348.99 L 416.97 349.83 L 416.61 350.76 L 416.21 351.59 L 415.82 352.52 L 415.29 353.45 L 414.92 354.28 L 414.36 355.15 L 413.96 356.04 L 413.44 356.91 L 412.96 357.80 L 412.43 358.74 L 411.94 359.56 L 411.41 360.41 L 410.92 361.32 L 410.49 362.23 L 409.95 363.08 L 409.42 363.95 L 409.03 364.84" fill="none" stroke="black" stroke-width="1"/>
  <path d="M 426.65 382.51 L 426.70 376.58 L 426.63 370.73 L 426.58 364.84 L 426.72 358.88 L 426.71 353.07 L 426.72 347.22 L 426.63 341.31 L 426.70 335.47 L 426.69 329.50 L 426.60 323.69 L 426.70 317.80 L 426.72 311.82 L 426.70 305.93 L 426.69 300.09" fill="none" stroke="black" stroke-width="1"/>
  <path d="M 426.59 300.10 L 420.73 300.07 L 414.79 300.17 L 408.98 300.11 L 403.07 300.16 L 397.08 300.03 L 391.25 300.13 L 385.29 300.05 L 379.52 299.98 L 373.48 300.10 L 367.64 300.05 L 361.76 300.12 L 355.88 300.01 L 349.92 300.04 L 344.12 299.98 L 338.17 300.00 L 332.38 300.05 L 326.38 300.05 L 320.53 300.03" fill="none" stroke="black" stroke-width="1"/>
  <path d="M 320.60 300.04 L 320.59 306.00 L 320.55 311.77 L 320.60 317.64 L 320.57 323.51 L 320.50 329.46 L 320.57 335.39 L 320.64 341.17 L 320.65 347.08 L 320.51 352.94 L 320.51 358.90 L 320.62 364.74 L 320.54 370.62 L 320.52 376.51 L 320.55 382.45" fill="none" stroke="black" stroke-width="1"/>
  <path d="M 320.61 382.52 L 326.15 382.50 L 331.70 382.58 L 337.32 382.47 L 342.90 382.49 L 348.45 382.60 L 354.12 382.57 L 359.64 382.59 L 365.23 382.51 L 370.82 382.56 L 376.36 382.54 L 382.03 382.62 L 387.59 382.57 L 393.24 382.56 L 398.77 382.60 L 404.39 382.57 L 409.91 382.56 L 415.50 382.66 L 421.12 382.50 L 426.69 382.58" fill="none" stroke="black" stroke-width="1"/>
  <path d="M 447.33 394.37 L 446.11 391.50 L 444.80 388.56 L 443.33 385.67 L 442.01 382.90 L 440.61 380.08 L 439.06 377.33 L 437.53 374.48 L 436.08 371.77 L 434.62 369.04 L 433.17 366.17 L 431.74 363.38 L 430.45 360.47 L 429.26 357.56 L 428.04 354.60 L 427.02 351.55 L 426.05 348.51 L 425.29 345.26 L 424.59 342.13 L 424.11 338.81 L 423.78 335.39 L 423.78 331.91 L 423.70 328.27 L 424.02 324.60 L 424.27 320.79 L 424.85 316.90 L 425.37 313.03 L 426.19 308.97 L 426.89 305.04 L 427.77 300.95 L 428.72 296.88 L 429.77 292.73 L 430.74 288.62 L 431.79 284.51 L 432.84 280.32 L 433.80 276.16 L 434.89 272.04 L 435.90 267.97 L 436.80 263.84 L 437.58 259.78 L 438.43 255.79" fill="none" stroke="black" stroke-width="1"/>
  <path d="M 432.46 255.89 L 432.51 251.04 L 432.53 246.07 L 432.52 241.10" fill="none" stroke="black" stroke-width="1"/>
  <path d="M 444.36 241.03 L 444.36 245.90 L 444.26 250.89 L 444.28 255.82" fill="none" stroke="black" stroke-width="1"/>
  <path d="M 447.22 255.78 L 447.36 261.52 L 447.55 267.23 L 447.68 273.00 L 447.77 278.74 L 447.94 284.50 L 448.04 290.26 L 448.21 296.11 L 448.41 301.78 L 448.48 307.45 L 448.74 313.33 L 448.77 318.96 L 448.90 324.72 L 449.07 330.62 L 449.24 336.36 L 449.31 342.02 L 449.58 347.79 L 449.63 353.46 L 449.85 359.29 L 449.98 365.05 L 450.09 370.83 L 450.25 376.55" fill="none" stroke="black" stroke-width="1"/>
  <path d="M 497.45 388.39 L 496.29 385.42 L 495.22 382.57 L 493.98 379.66 L 492.75 376.85 L 491.43 373.95 L 490.14 371.20 L 488.88 368.44 L 487.49 365.56 L 486.20 362.78 L 484.92 359.88 L 483.70 356.96 L 482.52 354.14 L 481.42 351.15 L 480.40 348.27 L 479.53 345.30 L 478.67 342.25 L 478.09 339.09 L 477.43 336.01 L 477.06 332.79 L 476.80 329.52 L 476.73 326.05 L 476.83 322.75 L 477.12 319.16 L 477.46 315.73 L 478.05 312.04 L 478.59 308.49 L 479.29 304.83 L 480.10 301.10 L 481.02 297.33 L 481.90 293.59 L 482.96 289.87 L 483.87 286.00 L 484.85 282.21 L 485.92 278.38 L 487.01 274.53 L 487.93 270.78 L 488.86 267.01 L 489.79 263.23 L 490.56 259.55 L 491.41 255.79" fill="none" stroke="black" stroke-width="1"/>
  <path d="M 485.66 255.92 L 485.71 251.00 L 485.61 246.06 L 485.55 241.18" fill="none" stroke="black" stroke-width="1"/>
  <path d="M 497.31 241.10 L 497.25 245.93 L 497.23 250.91 L 497.32 255.80" fill="none" stroke="black" stroke-width="1"/>
  <path d="M 497.34 264.64 L 497.55 270.20 L 497.61 275.94 L 497.74 281.50 L 497.96 287.23 L 498.02 292.69 L 498.18 298.38 L 498.21 304.06 L 498.52 309.74 L 498.66 315.27 L 498.70 320.90 L 498.86 326.58 L 499.05 332.21 L 499.16 337.79 L 499.33 343.36 L 499.32 349.11 L 499.62 354.72 L 499.69 360.38 L 499.75 365.90 L 499.90 371.54 L 500.16 377.25 L 500.29 382.86 L 500.36 388.42" fill="none" stroke="black" stroke-width="1"/>
  <path d="M 518.10 344.09 L 524.01 344.17" fill="none" stroke="black" stroke-width="1"/>
  <path d="M 508.96 334.35 L 503.41 336.42" fill="none" stroke="black" stroke-width="1"/>
  <path d="M 476.80 332.40 L 476.81 326.54" fill="none" stroke="black" stroke-width="1"/>
  <path d="M 464.51 319.09 L 459.45 322.01" fill="none" stroke="black" stroke-width="1"/>
  <path d="M 434.12 329.95 L 431.01 334.81" fill="none" stroke="black" stroke-width="1"/>
  <path d="M 417.79 326.63 L 417.68 320.71" fill="none" stroke="black" stroke-width="1"/>
  <path d="M 405.27 316.72 L 400.92 312.95" fill="none" stroke="black" stroke-width="1"/>
  <path d="M 344.08 255.86 L 344.19 251.05 L 344.21 246.00 L 344.20 241.17" fill="none" stroke="black" stroke-width="1"/>
  <path d="M 338.26 235.18 L 344.01 235.98 L 349.96 236.79 L 355.75 237.47 L 361.54 238.38 L 367.28 239.11 L 373.12 239.89 L 378.97 240.68 L 384.70 241.44 L 390.56 242.20 L 396.25 242.92 L 402.16 243.79 L 407.96 244.62 L 413.83 245.37 L 419.49 246.20 L 425.43 246.96 L 431.09 247.73 L 436.95 248.50 L 442.73 249.20 L 448.60 250.00 L 454.47 250.83 L 460.17 251.64 L 466.02 252.30 L 471.89 253.22 L 477.66 253.92 L 483.38 254.69 L 489.14 255.43 L 495.09 256.31 L 500.86 256.98 L 506.61 257.82 L 512.37 258.61 L 518.30 259.43 L 524.11 260.22 L 529.78 261.02 L 535.68 261.75" fill="none" stroke="black" stroke-width="1"/>
  <path d="M 520.84 285.37 L 515.86 288.36 L 510.81 291.26 L 505.75 294.18 L 500.82 297.12 L 495.73 300.13 L 490.77 302.95 L 485.74 306.05 L 480.72 308.84 L 475.69 311.86 L 470.83 314.73 L 465.67 317.77 L 460.79 320.65 L 455.73 323.58 L 450.77 326.57 L 445.76 329.59 L 440.65 332.45 L 435.75 335.39 L 430.76 338.26 L 425.66 341.31 L 420.74 344.29 L 415.69 347.20 L 410.59 350.15 L 405.67 353.11 L 400.69 356.08 L 395.66 358.96 L 390.61 361.97 L 385.53 364.90 L 380.63 367.77 L 375.62 370.71 L 370.58 373.61 L 365.64 376.56 L 360.53 379.56 L 355.57 382.45 L 350.53 385.36 L 345.56 388.29 L 340.52 391.33 L 335.45 394.21 L 330.50 397.28 L 325.48 400.15 L 320.50 403.08" fill="none" stroke="black" stroke-width="1"/>
  <path d="M 317.69 382.53 L 317.59 376.68 L 317.51 370.91 L 317.54 365.02 L 317.42 359.29 L 317.29 353.47 L 317.29 347.58 L 317.20 341.74 L 317.19 335.88 L 317.09 330.17 L 317.01 324.40 L 316.86 318.43 L 316.90 312.70 L 316.80 306.83 L 316.73 300.96 L 316.56 295.13 L 316.51 289.38 L 316.38 283.61 L 316.44 277.70 L 316.25 271.96 L 316.28 266.07 L 316.20 260.22 L 316.16 254.39 L 316.02 248.57 L 315.97 242.79 L 315.91 236.99 L 315.82 231.18 L 315.74 225.41 L 315.63 219.49 L 315.55 213.70 L 315.52 207.87 L 315.47 202.07 L 315.36 196.33 L 315.27 190.35 L 315.16 184.64 L 315.06 178.73 L 315.12 172.89 L 315.06 167.10 L 314.87 161.35 L 314.91 155.45 L 314.84 149.61 L 314.72 143.85" fill="none" stroke="black" stroke-width="1"/>
  <path d="M 329.34 137.92 L 323.56 138.85 L 317.88 139.76 L 312.27 140.86 L 306.50 141.73 L 300.76 142.62 L 295.09 143.59 L 289.40 144.64 L 283.71 145.53 L 278.11 146.55 L 272.31 147.49 L 266.69 148.45 L 260.95 149.32 L 255.25 150.29 L 249.48 151.20 L 243.77 152.20 L 238.16 153.11 L 232.41 154.04 L 226.74 155.04 L 220.92 156.04 L 215.36 157.02 L 209.54 157.82 L 203.97 158.82 L 198.12 159.82 L 192.53 160.66 L 186.75 161.73 L 181.13 162.56 L 175.44 163.53 L 169.75 164.61 L 164.06 165.41 L 158.20 166.35 L 152.58 167.39" fill="none" stroke="black" stroke-width="1"/>
  <path d="M 152.73 167.39 L 152.90 173.11 L 153.21 178.83 L 153.32 184.61 L 153.52 190.35 L 153.72 196.07 L 153.92 201.91 L 154.22 207.73 L 154.47 213.44 L 154.63 219.22 L 154.92 224.91 L 155.09 230.68 L 155.34 236.33 L 155.53 242.13 L 155.62 247.89 L 155.95 253.59 L 156.15 259.44 L 156.37 265.23 L 156.54 270.85 L 156.72 276.67 L 157.01 282.33 L 157.10 288.18 L 157.47 294.00 L 157.51 299.59 L 157.76 305.35 L 157.95 311.19 L 158.18 316.94 L 158.47 322.63 L 158.62 328.44 L 158.89 334.12 L 159.09 339.90 L 159.23 345.74 L 159.53 351.44 L 159.78 357.17 L 159.93 362.89 L 160.06 368.59 L 160.43 374.43 L 160.49 380.13 L 160.83 385.90 L 160.91 391.73 L 161.24 397.42 L 161.40 403.19" fill="none" stroke="black" stroke-width="1"/>
  <path d="M 161.50 403.13 L 167.21 403.77 L 173.07 404.46 L 178.81 405.09 L 184.64 405.74 L 190.29 406.27 L 196.07 407.02 L 201.86 407.54 L 207.65 408.19 L 213.38 408.82 L 219.14 409.56 L 224.87 410.21 L 230.58 410.77 L 236.49 411.41 L 242.19 412.14 L 247.89 412.79 L 253.74 413.45 L 259.56 413.98 L 265.29 414.64 L 271.07 415.24 L 276.70 415.93 L 282.58 416.59 L 288.23 417.15 L 294.04 417.94 L 299.79 418.42 L 305.57 419.17 L 311.32 419.86 L 317.14 420.46 L 322.94 421.11 L 328.69 421.72 L 334.45 422.39 L 340.22 422.89 L 345.97 423.60 L 351.65 424.26 L 357.42 424.96 L 363.21 425.45 L 369.01 426.23 L 374.68 426.75 L 380.60 427.48 L 386.20 428.06 L 391.96 428.69 L 397.89 429.30 L 403.55 430.00 L 409.28 430.71 L 415.03 431.23 L 420.87 431.91 L 426.62 432.58" fill="none" stroke="black" stroke-width="1"/>
  <path d="M 426.74 432.60 L 432.32 431.58 L 437.97 430.69 L 443.63 429.64 L 449.18 428.72 L 454.84 427.67 L 460.29 426.80 L 465.89 425.65 L 471.59 424.71 L 477.23 423.81 L 482.80 422.83 L 488.32 421.82 L 493.92 420.80 L 499.55 419.76 L 505.19 418.88 L 510.90 417.82 L 516.47 416.87 L 522.01 415.96 L 527.64 414.88 L 533.30 414.04 L 538.80 413.03 L 544.45 411.99" fill="none" stroke="black" stroke-width="1"/>
  <path d="M 544.59 412.05 L 544.67 406.29 L 544.95 400.50 L 545.02 394.75 L 545.22 389.02 L 545.26 383.26 L 545.50 377.56 L 545.64 371.79 L 545.66 366.13 L 545.81 360.33 L 546.01 354.63 L 546.26 348.87 L 546.27 343.07 L 546.40 337.30 L 546.58 331.61 L 546.67 325.89 L 546.90 320.00 L 547.07 314.40 L 547.16 308.64 L 547.39 302.88 L 547.47 297.07 L 547.59 291.26 L 547.79 285.62 L 547.94 279.78 L 548.05 274.05 L 548.23 268.42 L 548.27 262.66 L 548.54 256.79 L 548.71 251.10 L 548.86 245.27 L 548.93 239.55 L 549.13 233.80 L 549.25 228.08 L 549.39 222.35 L 549.57 216.55 L 549.62 210.91 L 549.79 205.04 L 549.86 199.34 L 550.00 193.65 L 550.19 187.83 L 550.38 182.13" fill="none" stroke="black" stroke-width="1"/>
  <path d="M 550.32 182.16 L 544.73 180.97 L 539.06 179.93 L 533.31 178.76 L 527.63 177.69 L 522.00 176.49 L 516.25 175.42 L 510.71 174.20 L 505.09 173.04 L 499.37 172.05 L 493.73 170.90 L 487.93 169.70 L 482.42 168.51 L 476.62 167.51 L 470.96 166.30 L 465.31 165.11 L 459.64 164.09 L 454.07 162.97 L 448.33 161.72 L 442.64 160.70 L 437.01 159.47 L 431.37 158.39 L 425.67 157.17 L 419.96 156.07 L 414.35 154.87 L 408.73 153.87 L 402.98 152.63 L 397.29 151.47 L 391.63 150.41 L 385.99 149.30 L 380.46 148.16 L 374.68 147.03 L 369.05 145.83 L 363.41 144.69 L 357.79 143.65 L 351.98 142.46 L 346.43 141.36 L 340.65 140.26 L 335.14 139.11 L 329.39 137.96" fill="none" stroke="black" stroke-width="1"/>
  <path d="M 329.42 138.03 L 329.54 143.89 L 329.79 149.62 L 330.06 155.56 L 330.30 161.35 L 330.48 167.19 L 330.65 172.91 L 330.94 178.74 L 331.04 184.51 L 331.28 190.34 L 331.60 196.18 L 331.72 201.99 L 331.98 207.94 L 332.07 213.66 L 332.28 219.49 L 332.55 225.30 L 332.74 231.07 L 332.99 237.01 L 333.17 242.76 L 333.42 248.63 L 333.66 254.50 L 333.88 260.16 L 333.97 266.15 L 334.31 271.92 L 334.44 277.68 L 334.67 283.48 L 334.80 289.32 L 334.99 295.20 L 335.35 300.96 L 335.47 306.82 L 335.70 312.69 L 335.90 318.46 L 336.04 324.32 L 336.27 330.04 L 336.61 335.84 L 336.66 341.74 L 336.96 347.47 L 337.22 353.30 L 337.40 359.19 L 337.60 364.93 L 337.86 370.84 L 337.98 376.66 L 338.21 382.46" fill="none" stroke="black" stroke-width="1"/>
  <path d="M 338.30 382.46 L 332.65 383.09 L 326.93 383.75 L 321.26 384.39 L 315.44 385.10 L 309.75 385.81 L 304.03 386.40 L 298.37 387.10 L 292.75 387.74 L 287.01 388.41 L 281.20 389.17 L 275.64 389.84 L 269.92 390.54 L 264.11 391.17 L 258.50 391.83 L 252.84 392.49 L 247.06 393.19 L 241.44 393.85 L 235.61 394.53 L 229.89 395.20 L 224.19 395.86 L 218.61 396.53 L 212.81 397.24 L 207.18 397.82 L 201.49 398.51 L 195.79 399.21 L 190.01 399.87 L 184.38 400.45 L 178.69 401.25 L 172.89 401.85 L 167.20 402.50 L 161.54 403.18" fill="none" stroke="black" stroke-width="1"/>
  <path d="M 161.52 403.21 L 163.73 404.35 L 165.94 405.57 L 168.19 406.72 L 170.35 407.96 L 172.50 409.19 L 174.76 410.35 L 177.03 411.58 L 179.18 412.74 L 181.35 413.86 L 183.59 415.13 L 185.84 416.30 L 188.01 417.51 L 190.20 418.64 L 192.42 419.86 L 194.58 421.09 L 196.84 422.19 L 199.02 423.40 L 201.26 424.47 L 203.52 425.63 L 205.68 426.70 L 207.96 427.86 L 210.10 428.88 L 212.37 429.95 L 214.53 431.01 L 216.77 431.99 L 218.95 433.10 L 221.10 434.08 L 223.38 435.16 L 225.62 436.26 L 227.81 437.19 L 230.02 438.22 L 232.24 439.22 L 234.50 440.16 L 236.67 441.23 L 238.80 442.33 L 241.10 443.25 L 243.39 444.19 L 245.52 445.28 L 247.72 446.37 L 249.95 447.33" fill="none" stroke="black" stroke-width="1"/>
  <path d="M 249.89 447.34 L 255.57 448.23 L 261.30 448.96 L 267.14 449.87 L 272.82 450.69 L 278.55 451.42 L 284.29 452.24 L 289.93 453.15 L 295.78 453.96 L 301.40 454.68 L 307.22 455.60 L 312.93 456.36 L 318.63 457.18 L 324.40 457.89 L 330.07 458.77 L 335.93 459.54 L 341.59 460.47 L 347.29 461.26 L 353.04 462.06" fill="none" stroke="black" stroke-width="1"/>
  <path d="M 353.08 462.01 L 358.97 462.08 L 364.86 462.08 L 370.63 461.98 L 376.59 462.06 L 382.55 462.01 L 388.43 462.03 L 394.23 462.12" fill="none" stroke="black" stroke-width="1"/>
  <path d="M 376.26 441.61 L 370.34 441.65" fill="none" stroke="black" stroke-width="1"/>
  <path d="M 359.21 432.59 L 359.17 426.71" fill="none" stroke="black" stroke-width="1"/>
  <path d="M 343.03 444.96 L 345.71 450.43" fill="none" stroke="black" stroke-width="1"/>
  <path d="M 332.52 423.96 L 326.69 423.56" fill="none" stroke="black" stroke-width="1"/>
  <path d="M 320.79 420.80 L 320.51 415.23" fill="none" stroke="black" stroke-width="1"/>
  <path d="M 315.83 421.25 L 313.93 426.52" fill="none" stroke="black" stroke-width="1"/>
  <path d="M 316.31 439.10 L 312.54 443.52" fill="none" stroke="black" stroke-width="1"/>
  <path d="M 299.99 420.64 L 300.24 414.59" fill="none" stroke="black" stroke-width="1"/>
  <path d="M 306.28 412.13 L 311.84 412.22" fill="none" stroke="black" stroke-width="1"/>
  <path d="M 334.96 410.51 L 329.54 408.08" fill="none" stroke="black" stroke-width="1"/>
  <path d="M 322.05 403.15 L 320.58 404.63 L 319.11 403.15 L 320.58 401.68 L 322.05 403.15" fill="none" stroke="black" stroke-width="1"/>
  <path d="M 320.65 403.12 L 316.05 399.43 L 311.57 395.95 L 307.04 392.29 L 302.47 388.73 L 297.83 385.12 L 293.36 381.42 L 288.69 377.76 L 284.19 374.17 L 279.68 370.63 L 275.00 366.98 L 270.42 363.42 L 265.91 359.82 L 261.35 356.19 L 256.76 352.58 L 252.25 349.01 L 247.63 345.38 L 243.09 341.75 L 238.56 338.04 L 234.03 334.44 L 229.52 330.94 L 224.89 327.25 L 220.38 323.59 L 215.73 320.03 L 211.15 316.48 L 206.58 312.81 L 202.08 309.26 L 197.56 305.55 L 192.92 302.07 L 188.39 298.35 L 183.93 294.77 L 179.38 291.15 L 174.69 287.57 L 170.25 283.95 L 165.57 280.36 L 160.99 276.72 L 156.45 273.13 L 151.89 269.51 L 147.38 265.95 L 142.85 262.25 L 138.34 258.71 L 133.79 254.96 L 129.10 251.47 L 124.53 247.84 L 119.99 244.22 L 115.47 240.58 L 110.95 237.04 L 106.36 233.36 L 101.76 229.74 L 97.24 226.09 L 92.60 222.58 L 88.11 218.92 L 83.55 215.39 L 78.99 211.70" fill="none" stroke="black" stroke-width="1"/>
  <path d="M 84.87 226.41 L 85.04 227.45 L 85.11 228.52 L 85.11 229.67 L 85.27 230.72 L 85.37 231.91 L 85.37 232.96 L 85.37 234.10 L 85.47 235.21 L 85.56 236.25 L 85.59 237.44 L 85.66 238.53 L 85.77 239.62 L 85.86 240.69 L 86.05 241.69 L 86.32 242.68 L 86.46 243.64 L 86.70 244.53 L 87.03 245.42 L 87.34 246.26 L 87.80 247.01 L 88.29 247.67 L 88.81 248.36 L 89.42 248.99 L 90.01 249.52 L 90.73 250.03 L 91.38 250.51 L 92.05 251.01 L 92.88 251.37 L 93.64 251.73 L 94.47 252.13 L 95.29 252.55 L 96.12 252.84 L 97.00 253.21 L 97.80 253.52 L 98.71 253.86 L 99.47 254.22 L 100.25 254.65 L 101.09 254.96 L 101.91 255.38 L 102.62 255.78" fill="none" stroke="black" stroke-width="1"/>
  <path d="M 102.62 255.78 L 103.61 255.40 L 104.44 254.96 L 105.42 254.67 L 106.37 254.21 L 107.38 253.87 L 108.36 253.52 L 109.40 253.25 L 110.36 252.83 L 111.33 252.48 L 112.34 252.12 L 113.31 251.78 L 114.24 251.36 L 115.11 250.90 L 116.02 250.49 L 116.82 250.08 L 117.64 249.50 L 118.31 248.91 L 119.06 248.35 L 119.64 247.75 L 120.22 246.99 L 120.64 246.19 L 121.11 245.41 L 121.37 244.58 L 121.75 243.63 L 122.04 242.72 L 122.18 241.69 L 122.24 240.71 L 122.45 239.61 L 122.46 238.45 L 122.61 237.45 L 122.57 236.34 L 122.69 235.22 L 122.63 234.10 L 122.74 232.97 L 122.84 231.87 L 122.81 230.73 L 122.94 229.63 L 122.93 228.54 L 123.01 227.53 L 123.16 226.43" fill="none" stroke="black" stroke-width="1"/>
  <path d="M 137.93 217.48 L 137.96 212.49 L 137.98 207.29 L 137.93 202.30 L 137.90 197.23 L 137.90 192.25 L 138.02 187.17 L 137.99 182.11" fill="none" stroke="black" stroke-width="1"/>
  <path d="M 173.23 196.70 L 176.14 196.59 L 178.65 196.00 L 181.39 195.84 L 184.44 195.17 L 187.01 194.93 L 189.97 194.51 L 192.83 194.40 L 195.65 194.07 L 198.19 193.77 L 200.91 193.49 L 203.85 192.98 L 206.68 192.79 L 209.36 192.56 L 212.09 192.14 L 215.11 191.57 L 217.85 191.26 L 220.55 191.05" fill="none" stroke="black" stroke-width="1"/>
  <path d="M 220.17 188.21 L 223.11 187.85 L 225.60 187.21 L 228.57 186.41 L 231.30 185.91 L 234.06 185.11 L 236.91 184.78 L 239.53 184.12 L 242.47 183.49 L 245.03 182.95 L 247.84 182.53 L 250.74 181.77 L 253.17 181.29 L 256.15 180.94 L 258.73 180.01 L 261.78 179.49 L 264.45 179.03" fill="none" stroke="black" stroke-width="1"/>
  <path d="M 261.67 173.11 L 264.31 172.46 L 267.42 171.78 L 269.81 171.49 L 272.91 170.84 L 275.52 170.21 L 278.35 169.65 L 281.19 168.79 L 283.75 168.13 L 286.45 167.82 L 289.32 166.90 L 292.26 166.56 L 295.20 165.71 L 297.90 165.48 L 300.67 164.65 L 303.48 164.06 L 305.92 163.42 L 308.74 162.73 L 311.58 162.08 L 314.48 161.65" fill="none" stroke="black" stroke-width="1"/>
  <path d="M 320.60 182.16 L 320.54 187.88 L 320.58 193.77 L 320.67 199.62 L 320.53 205.46 L 320.54 211.11 L 320.58 216.98 L 320.53 222.83 L 320.60 228.54 L 320.58 234.41 L 320.51 240.18 L 320.57 246.07 L 320.69 251.73 L 320.58 257.61 L 320.59 263.47 L 320.60 269.21 L 320.57 275.12 L 320.67 280.91 L 320.53 286.62 L 320.65 292.42 L 320.65 298.25 L 320.56 304.08 L 320.53 309.91 L 320.59 315.73 L 320.68 321.45 L 320.63 327.30 L 320.65 333.08 L 320.57 338.81 L 320.62 344.72 L 320.55 350.54 L 320.60 356.24 L 320.55 362.10 L 320.62 367.83 L 320.53 373.69 L 320.59 379.47 L 320.66 385.30 L 320.58 391.08 L 320.63 396.87 L 320.67 402.76 L 320.60 408.56 L 320.58 414.40 L 320.54 420.13 L 320.57 425.92 L 320.61 431.75 L 320.58 437.58 L 320.54 443.43 L 320.64 449.13 L 320.55 454.94 L 320.62 460.82 L 320.68 466.61 L 320.65 472.36 L 320.52 478.24 L 320.60 484.05 L 320.60 489.75 L 320.66 495.55 L 320.62 501.36 L 320.53 507.19 L 320.62 512.99 L 320.60 518.87 L 320.53 524.67 L 320.60 530.41 L 320.60 536.30 L 320.54 541.99 L 320.56 547.76 L 320.60 553.58 L 320.56 559.43 L 320.61 565.25" fill="none" stroke="black" stroke-width="1"/>
  <path d="M 299.88 580.00 L 299.94 574.19 L 299.87 568.35 L 299.93 562.53 L 299.93 556.73 L 299.89 550.91 L 299.84 545.23 L 299.95 539.29 L 299.87 533.63 L 299.86 527.78 L 299.96 521.95 L 299.86 516.11 L 299.87 510.43 L 299.90 504.50 L 299.97 498.68 L 300.00 492.95 L 300.00 487.10 L 299.91 481.28 L 300.01 475.57 L 299.91 469.81 L 300.01 463.85 L 299.88 458.10 L 299.92 452.34 L 300.03 446.46 L 300.02 440.75 L 299.92 434.82 L 299.93 429.07 L 299.89 423.24 L 300.05 417.44 L 300.04 411.66 L 300.04 405.91 L 299.92 400.09 L 300.07 394.26 L 300.00 388.48" fill="none" stroke="black" stroke-width="1"/>
  <path d="M 299.92 394.28 L 298.38 391.38 L 296.77 388.48 L 295.05 385.67 L 293.31 382.83 L 291.42 380.10 L 289.67 377.26 L 287.76 374.40 L 285.99 371.70 L 284.23 368.87 L 282.39 366.11 L 280.67 363.22 L 279.02 360.42 L 277.46 357.45 L 276.00 354.55 L 274.70 351.59 L 273.47 348.47 L 272.56 345.30 L 271.56 342.09 L 271.03 338.73 L 270.41 335.36 L 270.25 331.72 L 270.10 328.25 L 270.26 324.48 L 270.54 320.78 L 271.09 316.88 L 271.61 313.02 L 272.32 309.09 L 273.16 305.04 L 274.10 301.01 L 275.06 296.89 L 276.08 292.74 L 277.19 288.63 L 278.31 284.58 L 279.41 280.34 L 280.44 276.29 L 281.58 272.07 L 282.56 267.96 L 283.58 263.88 L 284.42 259.88 L 285.26 255.83" fill="none" stroke="black" stroke-width="1"/>
  <path d="M 291.17 255.88 L 291.12 250.93 L 291.08 246.04 L 291.10 241.04" fill="none" stroke="black" stroke-width="1"/>
  <path d="M 279.36 241.02 L 279.32 246.01 L 279.30 250.84 L 279.34 255.85" fill="none" stroke="black" stroke-width="1"/>
  <path d="M 285.18 229.27 L 285.43 235.03 L 285.77 240.78 L 286.13 246.51 L 286.43 252.21 L 286.91 258.00 L 287.11 263.73 L 287.54 269.42 L 287.81 275.14 L 288.20 280.89 L 288.45 286.67 L 288.85 292.34 L 289.24 298.14 L 289.50 303.76 L 289.75 309.44 L 290.25 315.27 L 290.53 321.06 L 290.78 326.70 L 291.17 332.45" fill="none" stroke="black" stroke-width="1"/>
  <path d="M 273.52 385.53 L 273.36 379.65 L 273.29 373.90 L 273.38 368.04 L 273.26 362.18 L 273.10 356.50 L 273.01 350.51 L 272.94 344.78 L 272.89 338.94 L 272.79 333.07 L 272.73 327.27 L 272.74 321.58 L 272.58 315.64 L 272.50 309.92 L 272.41 304.00 L 272.32 298.27 L 272.33 292.42 L 272.22 286.50 L 272.17 280.83 L 272.15 274.90 L 271.99 269.03 L 271.97 263.35 L 271.84 257.42 L 271.84 251.58 L 271.75 245.89 L 271.58 239.96 L 271.64 234.19 L 271.56 228.40 L 271.38 222.55 L 271.40 216.79 L 271.27 210.93 L 271.28 205.00 L 271.09 199.26 L 271.13 193.40 L 270.95 187.67 L 270.88 181.70 L 270.77 176.02 L 270.73 170.17 L 270.66 164.26 L 270.61 158.50 L 270.52 152.67" fill="none" stroke="black" stroke-width="1"/>
  <path d="M 308.64 146.86 L 305.66 147.32 L 303.18 148.23 L 300.28 148.56 L 297.71 149.38 L 294.61 150.20 L 291.89 150.50 L 289.42 151.28 L 286.66 152.08 L 283.85 152.49 L 281.08 153.00 L 278.31 153.83 L 275.29 154.35 L 272.76 154.96 L 269.93 155.37 L 267.02 156.02 L 264.20 156.73 L 261.32 157.33 L 258.52 157.97 L 255.94 158.72" fill="none" stroke="black" stroke-width="1"/>
  <path d="M 255.56 164.36 L 252.61 165.03 L 250.10 165.59 L 247.53 166.16 L 244.57 166.72 L 241.90 167.36 L 239.28 167.77 L 236.18 168.19 L 233.72 168.80 L 230.91 169.46 L 228.38 169.89 L 225.39 170.49 L 222.79 170.91 L 219.80 171.45 L 217.27 172.34 L 214.47 172.61 L 211.80 173.29" fill="none" stroke="black" stroke-width="1"/>
  <path d="M 211.56 176.31 L 208.98 176.57 L 206.07 176.97 L 203.52 177.19 L 200.51 177.74 L 197.85 177.91 L 195.14 178.55 L 192.36 178.77 L 189.32 179.40 L 186.85 179.47 L 183.77 179.99 L 181.20 180.09 L 178.50 180.75 L 175.77 180.85 L 172.83 181.50 L 170.25 181.66 L 167.43 182.07" fill="none" stroke="black" stroke-width="1"/>
  <path d="M 167.43 176.12 L 169.29 178.37 L 171.07 180.76 L 172.93 182.74 L 174.55 185.17 L 176.45 187.32 L 178.23 189.82 L 180.15 191.97 L 181.83 194.19 L 183.73 196.71 L 185.58 199.07 L 187.64 201.27 L 189.45 203.46 L 191.18 205.67" fill="none" stroke="black" stroke-width="1"/>
  <path d="M 179.29 211.43 L 181.91 211.04 L 185.03 210.91 L 187.73 210.56 L 190.31 210.43 L 193.38 209.78 L 195.98 209.69 L 199.00 209.52 L 201.37 209.00 L 204.34 208.51 L 207.32 208.29 L 210.05 207.96 L 212.62 207.82 L 215.64 207.32 L 218.06 207.42 L 221.25 206.83 L 223.66 206.78 L 226.56 206.22 L 229.50 205.83 L 232.15 205.71" fill="none" stroke="black" stroke-width="1"/>
  <path d="M 232.18 202.05 L 237.96 203.33" fill="none" stroke="black" stroke-width="1"/>
  <path d="M 237.92 194.08 L 236.09 191.74 L 234.28 189.63 L 232.44 187.22 L 230.66 184.76 L 228.89 182.92 L 227.01 180.64 L 225.04 177.93 L 223.41 176.03 L 221.46 173.39 L 219.94 171.09 L 217.77 168.86 L 216.18 166.94 L 214.38 164.50" fill="none" stroke="black" stroke-width="1"/>
  <path d="M 247.13 195.84 L 252.44 197.70" fill="none" stroke="black" stroke-width="1"/>
  <path d="M 262.33 189.41 L 266.62 192.91" fill="none" stroke="black" stroke-width="1"/>
  <path d="M 276.66 184.77 L 282.35 185.70" fill="none" stroke="black" stroke-width="1"/>
  <path d="M 261.66 185.04 L 259.78 182.67 L 258.00 180.43 L 256.34 178.21 L 254.51 175.99 L 252.44 173.68 L 250.54 171.29 L 248.70 169.40 L 247.28 167.11 L 245.42 164.70 L 243.27 162.67 L 241.45 160.09 L 239.63 157.76 L 237.94 155.72" fill="none" stroke="black" stroke-width="1"/>
  <path d="M 226.35 158.61 L 226.44 164.28 L 226.50 170.07 L 226.52 175.89 L 226.72 181.55 L 226.67 187.39 L 226.76 193.04 L 226.87 198.81 L 226.92 204.54 L 226.94 210.36 L 227.12 216.13 L 227.11 221.79 L 227.20 227.57 L 227.25 233.40 L 227.29 239.05 L 227.45 244.78 L 227.49 250.54 L 227.51 256.23 L 227.65 261.99 L 227.69 267.86 L 227.74 273.47 L 227.77 279.28 L 227.90 284.97 L 228.07 290.81 L 228.06 296.62 L 228.07 302.20 L 228.22 307.99 L 228.23 313.72 L 228.27 319.51 L 228.36 325.30 L 228.49 330.96 L 228.55 336.68 L 228.69 342.45 L 228.77 348.33 L 228.80 353.95 L 228.77 359.76 L 228.83 365.50 L 229.00 371.28 L 228.98 376.99 L 229.07 382.82 L 229.20 388.49" fill="none" stroke="black" stroke-width="1"/>
  <path d="M 202.77 344.20 L 203.27 344.59 L 203.69 345.11 L 204.21 345.53 L 204.70 346.04 L 205.26 346.43 L 205.76 346.98 L 206.24 347.50 L 206.82 347.92 L 207.32 348.33 L 207.87 348.86 L 208.37 349.25 L 208.85 349.78 L 209.23 350.29 L 209.74 350.67 L 210.19 351.06 L 210.51 351.54 L 210.74 351.97 L 211.11 352.36 L 211.24 352.72 L 211.51 353.13 L 211.57 353.43 L 211.69 353.84 L 211.70 354.22 L 211.68 354.50 L 211.57 354.77 L 211.50 355.12 L 211.26 355.33 L 211.19 355.71 L 210.98 356.04 L 210.79 356.27 L 210.54 356.52 L 210.34 356.81 L 210.03 357.08 L 209.85 357.35 L 209.58 357.71 L 209.39 357.89 L 209.25 358.16 L 208.96 358.45 L 208.77 358.68 L 208.62 359.02" fill="none" stroke="black" stroke-width="1"/>
  <path d="M 208.54 358.96 L 208.43 358.75 L 208.25 358.38 L 208.15 358.08 L 207.97 357.83 L 207.85 357.58 L 207.68 357.28 L 207.61 357.00 L 207.40 356.74 L 207.24 356.40 L 207.11 356.19 L 206.93 355.97 L 206.83 355.63 L 206.66 355.41 L 206.54 355.05 L 206.37 354.73 L 206.25 354.43 L 206.04 354.07 L 205.96 353.77 L 205.87 353.48 L 205.67 353.06 L 205.58 352.69 L 205.38 352.30 L 205.25 351.87 L 205.09 351.48 L 204.91 350.99 L 204.80 350.62 L 204.69 350.10 L 204.50 349.73 L 204.30 349.30 L 204.21 348.82 L 204.00 348.42 L 203.91 347.89 L 203.76 347.38 L 203.62 346.95 L 203.48 346.46 L 203.32 346.02 L 203.19 345.56 L 203.02 345.10 L 202.91 344.62 L 202.73 344.20" fill="none" stroke="black" stroke-width="1"/>
  <path d="M 202.66 344.21 L 202.25 338.50 L 202.04 332.72 L 201.61 327.01 L 201.37 321.38 L 201.11 315.50 L 200.67 309.89 L 200.44 304.14 L 200.05 298.46 L 199.78 292.68 L 199.37 286.89 L 199.10 281.16 L 198.77 275.48 L 198.38 269.70 L 198.11 264.03 L 197.83 258.24 L 197.37 252.63 L 197.16 246.74 L 196.81 241.10" fill="none" stroke="black" stroke-width="1"/>
  <path d="M 226.30 255.80 L 226.28 250.83 L 226.19 245.96 L 226.23 241.12" fill="none" stroke="black" stroke-width="1"/>
  <path d="M 226.29 241.03 L 226.45 246.78 L 226.62 252.69 L 226.72 258.58 L 226.91 264.31 L 227.06 270.12 L 227.03 276.00 L 227.27 281.79 L 227.46 287.68 L 227.45 293.43 L 227.73 299.32 L 227.85 305.15 L 227.94 311.02 L 228.07 316.86 L 228.21 322.65 L 228.40 328.51 L 228.47 334.20 L 228.61 340.09 L 228.66 345.98 L 228.94 351.71 L 229.06 357.49 L 229.16 363.35 L 229.32 369.15 L 229.37 374.98 L 229.56 380.81 L 229.77 386.79 L 229.86 392.54 L 229.90 398.30 L 230.05 404.24 L 230.28 409.99 L 230.45 415.77 L 230.46 421.63 L 230.60 427.43 L 230.82 433.35 L 230.97 439.25 L 231.04 445.06 L 231.28 450.89 L 231.32 456.61 L 231.40 462.42 L 231.64 468.33 L 231.67 474.21 L 231.97 479.99 L 232.10 485.81 L 232.16 491.61" fill="none" stroke="black" stroke-width="1"/>
  <path d="M 232.13 491.56 L 229.17 495.68 L 226.36 499.90 L 223.35 503.98 L 220.44 508.08 L 217.50 512.25" fill="none" stroke="black" stroke-width="1"/>
  <path d="M 217.53 512.12 L 212.43 512.17 L 207.46 512.05 L 202.25 512.07 L 197.23 512.18 L 192.12 512.21 L 187.04 512.18 L 182.02 512.18" fill="none" stroke="black" stroke-width="1"/>
  <path d="M 182.07 512.11 L 179.05 507.98 L 176.23 503.96 L 173.32 499.78 L 170.32 495.69 L 167.39 491.60" fill="none" stroke="black" stroke-width="1"/>
  <path d="M 167.32 491.61 L 167.03 485.86 L 166.59 479.94 L 166.25 474.06 L 165.90 468.34 L 165.61 462.51 L 165.20 456.65 L 164.85 450.87 L 164.61 444.95 L 164.24 439.16 L 163.95 433.38 L 163.61 427.52 L 163.23 421.62 L 162.96 415.94 L 162.48 410.02 L 162.22 404.17 L 161.84 398.46 L 161.55 392.64 L 161.23 386.78 L 160.83 380.96 L 160.44 375.08 L 160.24 369.26 L 159.91 363.50 L 159.52 357.64 L 159.10 351.71 L 158.74 345.94 L 158.50 340.14 L 158.18 334.27 L 157.85 328.51 L 157.53 322.68 L 157.10 316.90 L 156.75 311.03 L 156.48 305.23 L 156.10 299.43 L 155.73 293.62 L 155.41 287.76 L 155.10 281.97 L 154.80 276.03 L 154.45 270.29 L 154.07 264.40 L 153.75 258.63 L 153.42 252.76 L 152.98 246.91 L 152.70 241.11" fill="none" stroke="black" stroke-width="1"/>
  <path d="M 158.49 255.86 L 164.22 255.08 L 170.04 254.25 L 175.93 253.48 L 181.69 252.66 L 187.52 252.00 L 193.26 251.24 L 198.96 250.31 L 204.85 249.62 L 210.70 248.87 L 216.41 248.07 L 222.26 247.31 L 227.96 246.44 L 233.83 245.59 L 239.63 244.93 L 245.36 244.06 L 251.28 243.30 L 257.05 242.48 L 262.78 241.72 L 268.65 240.95 L 274.37 240.21 L 280.15 239.36 L 286.03 238.69 L 291.77 237.87 L 297.50 237.02 L 303.43 236.28 L 309.13 235.55 L 314.86 234.69 L 320.80 233.89 L 326.48 233.20 L 332.32 232.35" fill="none" stroke="black" stroke-width="1"/>
  <path d="M 332.36 241.14 L 332.31 245.97 L 332.34 250.99 L 332.37 255.81" fill="none" stroke="black" stroke-width="1"/>
  <path d="M 338.18 255.83 L 337.40 259.95 L 336.54 264.18 L 335.55 268.44 L 334.60 272.69 L 333.63 276.99 L 332.50 281.30 L 331.50 285.56 L 330.36 289.94 L 329.36 294.31 L 328.30 298.52 L 327.35 302.69 L 326.45 306.99 L 325.63 311.16 L 324.93 315.27 L 324.35 319.30 L 323.86 323.29 L 323.67 327.12 L 323.36 330.99 L 323.42 334.60 L 323.57 338.28 L 324.01 341.73 L 324.55 345.13 L 325.48 348.36 L 326.24 351.59 L 327.38 354.72 L 328.50 357.71 L 329.86 360.56 L 331.21 363.58 L 332.70 366.48 L 334.25 369.25 L 335.96 372.05 L 337.50 374.82 L 339.09 377.63 L 340.83 380.33 L 342.54 383.14 L 344.12 385.87 L 345.72 388.70 L 347.24 391.50 L 348.59 394.45 L 350.08 397.30" fill="none" stroke="black" stroke-width="1"/>
  <path d="M 358.89 353.06 L 358.83 358.91 L 358.83 364.88 L 358.92 370.68 L 358.85 376.66 L 358.87 382.49 L 358.92 388.39 L 358.95 394.25 L 358.82 400.29 L 358.91 406.14 L 358.83 412.01 L 358.95 417.83 L 358.93 423.74 L 358.93 429.61 L 358.79 435.64 L 358.78 441.37 L 358.81 447.32 L 358.78 453.29 L 358.77 459.15 L 358.76 465.10 L 358.87 470.83 L 358.92 476.75 L 358.90 482.68 L 358.84 488.67 L 358.85 494.44 L 358.80 500.41 L 358.79 506.26 L 358.84 512.14 L 358.87 518.00 L 358.85 523.98 L 358.83 529.83 L 358.74 535.74 L 358.82 541.62" fill="none" stroke="black" stroke-width="1"/>
  <path d="M 385.36 506.23 L 380.66 506.18 L 375.87 506.33 L 371.19 506.32 L 366.44 506.25 L 361.79 506.29" fill="none" stroke="black" stroke-width="1"/>
  <path d="M 373.58 506.31 L 367.97 504.75 L 362.42 502.97 L 356.82 501.39 L 351.10 499.76 L 345.51 498.13 L 339.83 496.41 L 334.29 494.78 L 328.77 493.24 L 322.99 491.61 L 317.48 489.89 L 311.88 488.22 L 306.21 486.73 L 300.63 485.04 L 294.95 483.30 L 289.47 481.83 L 283.74 480.17 L 278.18 478.46 L 272.64 476.76 L 266.94 475.11 L 261.31 473.63 L 255.79 471.96 L 250.09 470.25 L 244.43 468.73 L 238.88 467.03 L 233.36 465.43 L 227.71 463.80 L 221.99 462.15 L 216.39 460.41 L 210.76 458.87 L 205.20 457.13 L 199.55 455.53 L 193.97 453.98 L 188.34 452.23 L 182.69 450.67 L 177.07 448.96 L 171.52 447.41 L 165.94 445.67 L 160.23 444.05 L 154.62 442.50 L 149.16 440.84 L 143.54 439.09 L 137.79 437.52 L 132.28 435.93 L 126.72 434.18 L 120.97 432.64 L 115.43 430.98 L 109.88 429.37 L 104.20 427.65 L 98.53 426.09 L 93.03 424.49 L 87.29 422.88 L 81.69 421.11 L 76.14 419.60 L 70.54 417.96 L 64.96 416.30 L 59.35 414.60 L 53.65 413.04 L 48.13 411.42 L 42.52 409.72 L 36.90 408.10 L 31.27 406.39 L 25.55 404.84 L 20.01 403.15" fill="none" stroke="black" stroke-width="1"/>
  <path d="M 20.00 403.16 L 25.05 406.07 L 30.18 409.02 L 35.32 411.87 L 40.51 414.64 L 45.61 417.62 L 50.82 420.46 L 55.87 423.28 L 61.06 426.22 L 66.07 429.07 L 71.35 432.06 L 76.43 434.91 L 81.54 437.76 L 86.73 440.64 L 91.83 443.55 L 96.92 446.38 L 102.11 449.27 L 107.11 452.09 L 112.31 455.06 L 117.36 457.87 L 122.55 460.80 L 127.73 463.76 L 132.75 466.61 L 137.91 469.46 L 143.05 472.35 L 148.16 475.14 L 153.32 478.06 L 158.43 480.90 L 163.49 483.91 L 168.66 486.78 L 173.80 489.63 L 178.92 492.52 L 184.04 495.32 L 189.22 498.23 L 194.36 501.09 L 199.36 504.10 L 204.55 506.91 L 209.70 509.81 L 214.86 512.76 L 220.00 515.50 L 224.97 518.47 L 230.27 521.37 L 235.30 524.28 L 240.46 527.02 L 245.62 530.03 L 250.63 532.91 L 255.81 535.74" fill="none" stroke="black" stroke-width="1"/>
  <path d="M 246.93 541.64 L 246.86 535.95 L 246.85 530.18 L 247.01 524.59 L 246.98 518.85 L 246.92 513.22 L 246.97 507.40 L 246.87 501.84 L 246.94 496.02 L 246.99 490.43 L 246.96 484.75 L 246.99 479.00 L 246.89 473.31 L 246.92 467.58 L 247.04 461.88 L 246.97 456.23" fill="none" stroke="black" stroke-width="1"/>
  <path d="M 249.83 468.06 L 249.86 472.49 L 249.88 476.83" fill="none" stroke="black" stroke-width="1"/>
  <path d="M 249.86 476.83 L 249.63 476.92 L 249.25 477.15 L 248.94 477.35 L 248.63 477.51 L 248.32 477.65 L 247.99 477.89 L 247.69 478.07 L 247.35 478.28 L 247.12 478.41 L 246.72 478.66 L 246.42 478.75 L 246.10 479.01 L 245.72 479.13 L 245.51 479.31 L 245.31 479.51 L 244.95 479.55 L 244.77 479.64 L 244.43 479.70 L 244.19 479.64 L 243.97 479.76 L 243.83 479.81 L 243.56 479.70 L 243.29 479.70 L 243.20 479.54 L 243.08 479.40 L 242.89 479.30 L 242.69 479.17 L 242.60 479.00 L 242.55 478.80 L 242.35 478.64 L 242.31 478.42 L 242.10 478.26 L 241.96 478.05 L 241.87 477.87 L 241.74 477.61 L 241.63 477.48 L 241.42 477.22 L 241.38 477.12 L 241.29 476.87 L 241.11 476.79" fill="none" stroke="black" stroke-width="1"/>
  <path d="M 240.98 476.76 L 241.07 472.35 L 241.11 467.90" fill="none" stroke="black" stroke-width="1"/>
  <path d="M 235.18 464.98 L 235.19 469.42 L 235.07 473.95" fill="none" stroke="black" stroke-width="1"/>
  <path d="M 235.12 473.80 L 234.84 473.97 L 234.52 474.12 L 234.23 474.30 L 233.90 474.49 L 233.58 474.68 L 233.27 474.89 L 232.97 475.09 L 232.64 475.28 L 232.35 475.53 L 232.01 475.67 L 231.63 475.92 L 231.40 476.03 L 231.03 476.20 L 230.81 476.34 L 230.58 476.54 L 230.25 476.58 L 230.04 476.58 L 229.73 476.74 L 229.47 476.85 L 229.26 476.79 L 229.14 476.68 L 228.85 476.74 L 228.63 476.59 L 228.48 476.58 L 228.38 476.41 L 228.16 476.33 L 228.04 476.26 L 227.86 476.02 L 227.71 475.87 L 227.59 475.66 L 227.48 475.50 L 227.34 475.27 L 227.18 475.04 L 227.09 474.87 L 226.94 474.67 L 226.83 474.48 L 226.65 474.36 L 226.57 474.11 L 226.51 473.94 L 226.28 473.78" fill="none" stroke="black" stroke-width="1"/>
  <path d="M 226.27 473.95 L 226.28 469.47 L 226.25 464.98" fill="none" stroke="black" stroke-width="1"/>
  <path d="M 229.22 453.25 L 229.30 458.99 L 229.21 464.67 L 229.24 470.31 L 229.25 476.03 L 229.30 481.66 L 229.28 487.40 L 229.19 493.12 L 229.25 498.83 L 229.15 504.51 L 229.25 510.15 L 229.16 515.97 L 229.19 521.54 L 229.18 527.33 L 229.30 532.96 L 229.24 538.70" fill="none" stroke="black" stroke-width="1"/>
  <path d="M 238.06 526.89 L 238.46 526.78 L 238.96 526.61 L 239.41 526.42 L 239.88 526.35 L 240.30 526.25 L 240.81 526.10 L 241.25 525.99 L 241.74 525.85 L 242.27 525.71 L 242.67 525.60 L 243.04 525.52 L 243.58 525.34 L 244.05 525.12 L 244.47 525.05 L 244.97 524.84 L 245.33 524.72 L 245.69 524.49 L 246.15 524.36 L 246.53 524.21 L 246.91 523.94 L 247.22 523.63 L 247.62 523.47 L 247.91 523.25 L 248.28 522.95 L 248.66 522.62 L 248.90 522.39 L 249.14 522.07 L 249.49 521.79 L 249.77 521.51 L 250.05 521.17 L 250.28 520.79 L 250.60 520.54 L 250.86 520.21 L 251.14 519.90 L 251.37 519.50 L 251.69 519.26 L 251.99 519.02 L 252.24 518.63 L 252.49 518.25 L 252.82 518.03" fill="none" stroke="black" stroke-width="1"/>
  <path d="M 240.80 517.90 L 241.92 515.20 L 243.00 512.93 L 243.88 510.30 L 244.85 507.49 L 246.08 504.94 L 246.76 502.27 L 247.95 499.50 L 249.01 497.02 L 249.92 494.53" fill="none" stroke="black" stroke-width="1"/>
  <path d="M 252.75 491.51 L 247.77 490.99 L 242.86 490.61 L 237.99 490.13 L 233.12 489.67 L 228.25 489.17 L 223.31 488.68" fill="none" stroke="black" stroke-width="1"/>
  <path d="M 223.35 488.56 L 223.24 490.29 L 223.28 491.91 L 223.25 493.64 L 223.10 495.40 L 222.93 497.17 L 222.87 498.98 L 222.66 500.73 L 222.62 502.57 L 222.54 504.26 L 222.40 506.13 L 222.37 507.77 L 222.25 509.58 L 222.31 511.30 L 222.22 512.86 L 222.30 514.43 L 222.36 515.92 L 222.45 517.36 L 222.70 518.68 L 223.02 519.88 L 223.30 521.08 L 223.71 522.05 L 224.18 523.09 L 224.68 524.00 L 225.31 524.74 L 226.04 525.50 L 226.65 526.10 L 227.44 526.65 L 228.15 527.24 L 228.90 527.79 L 229.77 528.20 L 230.54 528.71 L 231.47 529.06 L 232.34 529.49 L 233.19 529.88 L 234.10 530.38 L 234.90 530.71 L 235.75 531.10 L 236.55 531.64 L 237.30 532.17 L 238.10 532.70" fill="none" stroke="black" stroke-width="1"/>
  <path d="M 238.06 532.88 L 238.85 532.41 L 239.60 532.10 L 240.35 531.86 L 241.26 531.48 L 242.10 531.19 L 242.97 530.96 L 243.87 530.65 L 244.69 530.46 L 245.60 530.16 L 246.39 529.91 L 247.28 529.56 L 248.01 529.25 L 248.68 528.84 L 249.52 528.40 L 250.24 527.86 L 250.86 527.28 L 251.47 526.50 L 251.99 525.84 L 252.45 524.86 L 252.87 524.00 L 253.10 522.81 L 253.47 521.71 L 253.64 520.32 L 253.82 519.03 L 253.86 517.60 L 253.97 516.01 L 253.92 514.29 L 253.95 512.73 L 253.79 510.96 L 253.81 509.27 L 253.68 507.46 L 253.59 505.68 L 253.52 503.93 L 253.35 502.05 L 253.16 500.21 L 253.12 498.45 L 253.11 496.72 L 252.95 494.93 L 252.94 493.32 L 252.89 491.59" fill="none" stroke="black" stroke-width="1"/>
  <path d="M 258.71 482.73 L 253.59 481.92 L 248.45 481.28 L 243.21 480.50 L 238.02 479.77 L 232.95 479.16 L 227.73 478.40 L 222.63 477.58 L 217.51 476.89" fill="none" stroke="black" stroke-width="1"/>
  <path d="M 211.27 476.55 L 205.66 477.04" fill="none" stroke="black" stroke-width="1"/>
  <path d="M 211.71 470.82 L 211.63 473.58 L 211.32 476.65 L 211.20 479.41 L 210.96 482.18 L 211.17 484.92 L 211.03 487.59 L 210.49 490.51 L 210.49 493.37 L 210.38 495.96 L 210.16 499.09 L 209.97 501.95 L 210.15 504.56 L 210.02 507.43 L 209.71 510.17 L 209.65 513.30 L 209.61 515.72 L 209.48 518.84 L 209.12 521.53 L 209.21 524.16 L 209.03 527.22 L 208.71 530.02" fill="none" stroke="black" stroke-width="1"/>
  <path d="M 208.53 523.94 L 208.80 518.06" fill="none" stroke="black" stroke-width="1"/>
  <path d="M 196.74 521.21 L 197.54 518.88 L 198.62 516.24 L 199.55 513.46 L 200.82 511.02 L 201.59 508.87 L 202.56 506.17" fill="none" stroke="black" stroke-width="1"/>
  <path d="M 208.89 503.06 L 207.84 509.01" fill="none" stroke="black" stroke-width="1"/>
  <path d="M 202.83 497.46 L 202.39 500.38 L 201.59 502.95 L 201.09 505.56 L 200.59 508.52 L 200.37 510.94 L 199.54 513.98 L 199.00 516.53 L 198.61 519.01 L 198.32 521.75 L 197.55 524.85 L 197.37 527.15 L 196.65 530.06" fill="none" stroke="black" stroke-width="1"/>
  <path d="M 199.92 526.73 L 199.58 524.04 L 199.10 521.31 L 199.17 518.77 L 198.95 516.12 L 198.66 513.37 L 198.06 510.71 L 197.91 508.30 L 197.34 505.62 L 197.16 502.89 L 196.95 500.25" fill="none" stroke="black" stroke-width="1"/>
  <path d="M 199.05 503.71 L 200.74 497.62" fill="none" stroke="black" stroke-width="1"/>
  <path d="M 200.37 503.51 L 199.10 509.10" fill="none" stroke="black" stroke-width="1"/>
  <path d="M 202.27 510.50 L 197.32 513.72" fill="none" stroke="black" stroke-width="1"/>
  <path d="M 196.81 515.06 L 196.42 515.59 L 195.92 516.28 L 195.51 516.96 L 195.03 517.57 L 194.64 518.25 L 194.15 518.89 L 193.77 519.60 L 193.26 520.21 L 192.77 520.93 L 192.37 521.52 L 191.87 522.15 L 191.48 522.79 L 191.13 523.32 L 190.60 523.98 L 190.12 524.45 L 189.71 525.08 L 189.31 525.50 L 188.83 526.06 L 188.31 526.48 L 187.94 526.88 L 187.42 527.14 L 187.06 527.53 L 186.55 527.84 L 186.18 528.04 L 185.82 528.23 L 185.30 528.42 L 184.87 528.58 L 184.42 528.70 L 183.94 528.87 L 183.54 528.91 L 183.10 528.94 L 182.66 529.08 L 182.18 529.11 L 181.78 529.23 L 181.34 529.26 L 180.90 529.39 L 180.43 529.49 L 180.02 529.59 L 179.59 529.65 L 179.14 529.84" fill="none" stroke="black" stroke-width="1"/>
  <path d="M 179.20 529.78 L 179.25 523.99 L 179.17 518.01 L 179.18 512.06 L 179.09 506.27 L 179.18 500.46 L 179.22 494.47 L 179.14 488.63" fill="none" stroke="black" stroke-width="1"/>
  <path d="M 187.92 473.94 L 187.91 469.45 L 188.01 465.00" fill="none" stroke="black" stroke-width="1"/>
  <path d="M 179.19 465.03 L 179.22 469.55 L 179.24 473.94" fill="none" stroke="black" stroke-width="1"/>
  <path d="M 179.12 473.89 L 179.26 474.10 L 179.41 474.20 L 179.56 474.42 L 179.68 474.55 L 179.80 474.67 L 179.93 474.93 L 180.13 475.12 L 180.19 475.31 L 180.28 475.53 L 180.44 475.67 L 180.55 475.91 L 180.72 476.01 L 180.84 476.19 L 181.01 476.31 L 181.13 476.43 L 181.34 476.54 L 181.60 476.53 L 181.70 476.69 L 181.90 476.74 L 182.12 476.75 L 182.43 476.69 L 182.58 476.69 L 182.76 476.66 L 183.10 476.55 L 183.30 476.48 L 183.65 476.32 L 184.03 476.10 L 184.24 476.03 L 184.51 475.92 L 184.85 475.70 L 185.22 475.59 L 185.47 475.33 L 185.73 475.21 L 186.10 474.96 L 186.36 474.80 L 186.72 474.59 L 186.97 474.36 L 187.33 474.24 L 187.55 474.07 L 187.93 473.94" fill="none" stroke="black" stroke-width="1"/>
  <path d="M 202.75 476.74 L 197.51 477.35 L 192.26 478.06 L 186.99 478.80 L 181.82 479.46 L 176.54 480.11 L 171.29 480.81 L 166.03 481.46 L 160.75 482.07 L 155.52 482.71" fill="none" stroke="black" stroke-width="1"/>
  <path d="M 161.57 467.93 L 161.50 472.35 L 161.53 476.81" fill="none" stroke="black" stroke-width="1"/>
  <path d="M 161.56 476.87 L 161.65 476.98 L 161.84 477.20 L 162.05 477.45 L 162.10 477.56 L 162.17 477.81 L 162.35 477.95 L 162.40 478.07 L 162.59 478.35 L 162.70 478.63 L 162.84 478.73 L 163.00 478.93 L 163.11 479.09 L 163.17 479.29 L 163.40 479.39 L 163.63 479.52 L 163.72 479.63 L 163.83 479.74 L 164.08 479.79 L 164.24 479.80 L 164.49 479.84 L 164.65 479.88 L 164.96 479.78 L 165.17 479.64 L 165.48 479.62 L 165.84 479.48 L 166.04 479.38 L 166.30 479.23 L 166.63 479.06 L 166.97 478.94 L 167.25 478.70 L 167.65 478.47 L 167.88 478.31 L 168.17 478.04 L 168.52 477.91 L 168.84 477.78 L 169.15 477.51 L 169.41 477.37 L 169.77 477.14 L 170.11 477.02 L 170.37 476.81" fill="none" stroke="black" stroke-width="1"/>
  <path d="M 170.31 476.82 L 170.27 472.33 L 170.28 467.94" fill="none" stroke="black" stroke-width="1"/>
  <path d="M 167.40 462.13 L 167.32 467.86 L 167.33 473.50 L 167.43 479.24 L 167.46 484.75 L 167.41 490.44 L 167.44 496.12 L 167.45 501.84 L 167.32 507.47 L 167.30 513.16 L 167.41 518.98 L 167.37 524.50 L 167.34 530.29 L 167.36 535.96 L 167.35 541.60" fill="none" stroke="black" stroke-width="1"/>
  <path d="M 179.11 535.79 L 178.33 535.24 L 177.59 534.71 L 176.80 534.24 L 175.96 533.77 L 175.14 533.27 L 174.27 532.92 L 173.50 532.55 L 172.57 532.09 L 171.76 531.57 L 170.90 531.21 L 170.09 530.65 L 169.30 530.24 L 168.62 529.72 L 167.82 529.09 L 167.08 528.48 L 166.50 527.72 L 165.92 526.84 L 165.38 526.06 L 164.96 525.06 L 164.51 524.04 L 164.23 522.82 L 163.92 521.63 L 163.66 520.30 L 163.57 518.87 L 163.58 517.32 L 163.43 515.81 L 163.49 514.25 L 163.45 512.53 L 163.51 510.75 L 163.59 509.08 L 163.76 507.24 L 163.79 505.53 L 163.85 503.79 L 164.03 501.94 L 164.23 500.13 L 164.25 498.37 L 164.41 496.54 L 164.42 494.88 L 164.43 493.28 L 164.48 491.53" fill="none" stroke="black" stroke-width="1"/>
  <path d="M 164.48 491.53 L 169.95 491.07 L 175.21 490.61 L 180.67 490.10 L 186.03 489.65 L 191.53 489.11 L 196.87 488.59" fill="none" stroke="black" stroke-width="1"/>
  <path d="M 196.91 488.56 L 196.87 490.15 L 196.97 491.88 L 197.06 493.61 L 197.17 495.33 L 197.34 497.13 L 197.43 498.85 L 197.51 500.60 L 197.71 502.38 L 197.76 504.08 L 197.95 505.88 L 198.04 507.62 L 198.11 509.29 L 198.18 510.96 L 198.13 512.56 L 198.07 514.10 L 197.95 515.64 L 197.76 517.10 L 197.53 518.47 L 197.22 519.76 L 196.81 521.00 L 196.30 522.02 L 195.75 523.19 L 195.13 524.19 L 194.40 525.09 L 193.54 525.86 L 192.80 526.73 L 191.87 527.46 L 191.02 528.19 L 189.99 528.93 L 189.09 529.50 L 188.16 530.19 L 187.07 530.72 L 186.12 531.23 L 185.01 531.91 L 183.92 532.53 L 182.98 533.12 L 181.95 533.78 L 181.01 534.40 L 180.12 535.13 L 179.17 535.80" fill="none" stroke="black" stroke-width="1"/>
  <path d="M 196.76 556.35 L 195.34 560.74 L 193.84 565.17" fill="none" stroke="black" stroke-width="1"/>
  <path d="M 193.89 565.21 L 189.42 565.25 L 185.07 565.16" fill="none" stroke="black" stroke-width="1"/>
  <path d="M 185.10 565.17 L 185.12 560.88 L 185.00 556.45" fill="none" stroke="black" stroke-width="1"/>
  <path d="M 173.31 559.38 L 171.71 563.75 L 170.25 568.09" fill="none" stroke="black" stroke-width="1"/>
  <path d="M 170.32 568.20 L 165.95 568.14 L 161.40 568.06" fill="none" stroke="black" stroke-width="1"/>
  <path d="M 161.56 568.09 L 161.43 563.77 L 161.43 559.37" fill="none" stroke="black" stroke-width="1"/>
  <path d="M 155.54 541.56 L 160.71 541.27 L 166.03 540.87 L 171.28 540.59 L 176.48 540.38 L 181.68 539.93 L 186.89 539.62 L 192.16 539.28 L 197.48 539.08 L 202.67 538.73" fill="none" stroke="black" stroke-width="1"/>
  <path d="M 202.71 535.60 L 202.26 532.84 L 201.82 530.17 L 200.84 527.33 L 200.48 524.51 L 199.84 521.77 L 199.58 519.20 L 198.76 516.17 L 198.06 513.37 L 197.92 510.90 L 197.37 508.01 L 196.49 505.45 L 195.87 502.64 L 195.54 499.65 L 194.69 497.07 L 194.53 494.23 L 193.82 491.49" fill="none" stroke="black" stroke-width="1"/>
  <path d="M 194.11 491.32 L 192.67 494.12 L 191.85 496.85 L 190.52 499.18 L 189.08 502.22 L 188.21 504.87 L 186.92 507.15 L 185.49 510.00 L 184.34 512.86 L 183.47 515.42 L 182.07 518.07" fill="none" stroke="black" stroke-width="1"/>
  <path d="M 179.09 529.89 L 178.74 529.76 L 178.20 529.62 L 177.80 529.49 L 177.29 529.40 L 176.88 529.33 L 176.37 529.20 L 175.96 529.10 L 175.44 529.00 L 174.96 528.94 L 174.52 528.79 L 174.01 528.64 L 173.61 528.55 L 173.18 528.42 L 172.73 528.27 L 172.27 528.10 L 171.88 527.92 L 171.46 527.70 L 171.07 527.48 L 170.64 527.13 L 170.31 526.94 L 169.99 526.62 L 169.61 526.29 L 169.23 525.87 L 168.95 525.53 L 168.71 525.03 L 168.34 524.70 L 168.14 524.17 L 167.76 523.79 L 167.47 523.38 L 167.21 522.84 L 167.02 522.31 L 166.67 521.85 L 166.38 521.29 L 166.13 520.86 L 165.77 520.41 L 165.59 519.87 L 165.23 519.33 L 165.04 518.90 L 164.78 518.39 L 164.47 517.98" fill="none" stroke="black" stroke-width="1"/>
  <path d="M 167.36 518.25 L 168.46 515.65 L 168.95 512.80 L 170.16 510.20 L 170.84 507.78 L 171.98 505.18 L 172.82 502.32 L 173.90 499.68 L 174.64 497.02 L 175.68 494.39 L 176.40 491.74" fill="none" stroke="black" stroke-width="1"/>
  <path d="M 167.40 491.57 L 172.74 491.53 L 178.13 491.53 L 183.54 491.59 L 188.96 491.62 L 194.40 491.50 L 199.79 491.53 L 205.30 491.47 L 210.71 491.57 L 216.03 491.48 L 221.49 491.52 L 226.86 491.46 L 232.27 491.49" fill="none" stroke="black" stroke-width="1"/>
  <path d="M 235.34 491.34 L 234.45 493.92 L 233.35 496.78 L 232.38 499.33 L 231.18 501.99 L 230.41 504.53 L 229.10 507.13 L 228.21 509.79 L 227.22 512.31 L 226.11 515.05" fill="none" stroke="black" stroke-width="1"/>
  <path d="M 223.39 515.05 L 223.66 515.56 L 223.97 515.97 L 224.33 516.39 L 224.53 516.94 L 224.73 517.39 L 225.08 517.93 L 225.35 518.51 L 225.63 518.93 L 225.84 519.44 L 226.18 519.92 L 226.53 520.33 L 226.75 520.87 L 227.01 521.36 L 227.34 521.78 L 227.66 522.25 L 227.96 522.62 L 228.35 522.92 L 228.62 523.37 L 228.95 523.72 L 229.32 524.02 L 229.67 524.31 L 230.08 524.55 L 230.49 524.71 L 230.89 524.98 L 231.35 525.11 L 231.74 525.32 L 232.18 525.47 L 232.62 525.59 L 233.01 525.67 L 233.52 525.82 L 234.05 525.89 L 234.43 526.01 L 234.96 526.16 L 235.36 526.19 L 235.77 526.31 L 236.27 526.38 L 236.69 526.51 L 237.18 526.59 L 237.64 526.68 L 238.07 526.84" fill="none" stroke="black" stroke-width="1"/>
  <path d="M 238.12 526.86 L 238.12 521.42 L 238.15 515.99 L 238.16 510.55 L 238.10 505.08 L 238.07 499.65 L 237.95 494.19 L 238.02 488.65" fill="none" stroke="black" stroke-width="1"/>
  <path d="M 211.55 491.74 L 205.64 491.70" fill="none" stroke="black" stroke-width="1"/>
  <path d="M 202.68 491.37 L 202.27 494.30 L 201.42 496.70 L 200.89 499.68 L 200.36 502.62 L 199.77 505.11 L 199.46 507.87 L 198.86 510.69 L 198.57 513.71 L 197.57 516.54 L 197.30 519.13 L 196.94 521.84 L 196.11 524.60 L 195.49 527.45 L 194.90 530.03 L 194.40 533.09 L 194.00 535.79" fill="none" stroke="black" stroke-width="1"/>
  <path d="M 190.93 538.74 L 191.01 533.16 L 190.89 527.80 L 191.00 522.24 L 190.96 516.73 L 190.97 511.26 L 190.90 505.66 L 190.84 500.12 L 190.90 494.75 L 190.93 489.23 L 190.86 483.68 L 190.87 478.22 L 190.89 472.63 L 190.94 467.11 L 191.00 461.67 L 190.92 456.11" fill="none" stroke="black" stroke-width="1"/>
  <path d="M 185.01 394.39 L 184.92 388.54 L 184.86 382.80 L 184.74 376.96 L 184.77 371.11 L 184.59 365.30 L 184.63 359.49 L 184.55 353.70 L 184.40 347.92 L 184.43 342.12 L 184.36 336.27 L 184.19 330.33 L 184.20 324.54 L 184.12 318.74 L 183.91 312.94 L 183.96 307.22 L 183.77 301.38 L 183.72 295.51 L 183.75 289.72 L 183.66 283.84 L 183.54 277.98 L 183.43 272.17 L 183.47 266.38 L 183.25 260.55 L 183.31 254.85 L 183.20 248.98 L 183.03 243.14 L 183.08 237.27 L 182.93 231.52 L 182.97 225.64 L 182.76 219.83 L 182.69 214.02 L 182.68 208.23 L 182.59 202.51 L 182.53 196.62 L 182.53 190.84 L 182.33 185.00 L 182.30 179.10 L 182.32 173.39 L 182.16 167.52" fill="none" stroke="black" stroke-width="1"/>
  <path d="M 191.07 170.44 L 192.90 172.77 L 194.43 175.11 L 196.61 177.20 L 198.14 179.33 L 199.83 181.61 L 201.62 184.08 L 203.74 186.29 L 205.49 188.56 L 207.32 190.61 L 208.84 193.19 L 210.66 195.53 L 212.38 197.71 L 214.35 199.84" fill="none" stroke="black" stroke-width="1"/>
  <path d="M 223.21 208.44 L 217.04 208.58" fill="none" stroke="black" stroke-width="1"/>
  <path d="M 208.83 215.26 L 202.83 214.20" fill="none" stroke="black" stroke-width="1"/>
  <path d="M 192.82 222.75 L 188.88 218.29" fill="none" stroke="black" stroke-width="1"/>
  <path d="M 177.79 229.21 L 174.87 224.21" fill="none" stroke="black" stroke-width="1"/>
  <path d="M 158.56 217.55 L 158.41 218.55 L 158.32 219.67 L 158.31 220.78 L 158.19 221.87 L 158.19 223.04 L 158.11 224.12 L 158.05 225.28 L 158.05 226.39 L 157.97 227.43 L 157.96 228.63 L 157.81 229.79 L 157.79 230.81 L 157.65 231.89 L 157.51 232.89 L 157.35 233.90 L 157.07 234.85 L 156.66 235.73 L 156.42 236.63 L 156.04 237.36 L 155.52 238.21 L 154.88 238.85 L 154.35 239.57 L 153.62 240.22 L 152.93 240.72 L 152.08 241.20 L 151.30 241.70 L 150.43 242.17 L 149.51 242.56 L 148.59 242.87 L 147.60 243.31 L 146.60 243.65 L 145.63 244.01 L 144.69 244.43 L 143.62 244.68 L 142.69 245.06 L 141.62 245.37 L 140.61 245.67 L 139.69 246.10 L 138.71 246.52 L 137.86 246.92" fill="none" stroke="black" stroke-width="1"/>
  <path d="M 137.93 246.93 L 137.09 246.50 L 136.41 246.11 L 135.56 245.78 L 134.80 245.36 L 134.06 244.95 L 133.14 244.67 L 132.24 244.41 L 131.48 243.99 L 130.65 243.65 L 129.84 243.28 L 129.08 242.91 L 128.25 242.52 L 127.53 242.13 L 126.76 241.66 L 126.11 241.19 L 125.40 240.67 L 124.72 240.13 L 124.21 239.51 L 123.69 238.86 L 123.21 238.16 L 122.74 237.36 L 122.43 236.57 L 122.11 235.60 L 121.85 234.79 L 121.71 233.75 L 121.44 232.83 L 121.25 231.87 L 121.15 230.75 L 121.09 229.71 L 120.96 228.57 L 120.88 227.53 L 120.83 226.34 L 120.80 225.25 L 120.71 224.07 L 120.65 222.99 L 120.59 221.83 L 120.44 220.76 L 120.42 219.62 L 120.35 218.62 L 120.17 217.51" fill="none" stroke="black" stroke-width="1"/>
  <path d="M 102.53 226.46 L 102.48 220.88 L 102.50 215.33 L 102.47 209.79 L 102.52 204.36 L 102.51 198.87 L 102.61 193.24 L 102.50 187.73 L 102.54 182.24" fill="none" stroke="black" stroke-width="1"/>
  <path d="M 79.03 182.09 L 84.96 182.02 L 90.80 182.12 L 96.79 182.04 L 102.67 182.18 L 108.51 182.10 L 114.32 182.17 L 120.22 182.02 L 126.22 182.07 L 132.11 182.16 L 138.01 182.07 L 143.75 182.05 L 149.71 182.05 L 155.55 182.07 L 161.45 182.05 L 167.35 182.13 L 173.32 182.17 L 179.19 182.16 L 185.00 182.15 L 191.05 182.03 L 196.91 182.15 L 202.76 182.17 L 208.71 182.05 L 214.48 182.14 L 220.44 182.14 L 226.39 182.10 L 232.25 182.02 L 238.05 182.03 L 243.94 182.02 L 249.86 182.09 L 255.84 182.12 L 261.66 182.16 L 267.52 182.13 L 273.49 182.08 L 279.35 182.15 L 285.26 182.06 L 291.09 182.02 L 297.06 182.06 L 302.99 182.09 L 308.73 182.18 L 314.73 182.15 L 320.50 182.13 L 326.51 182.07 L 332.30 182.03 L 338.26 182.05 L 344.18 182.06 L 350.11 182.09 L 355.90 182.10 L 361.74 182.13 L 367.79 182.12 L 373.58 182.06 L 379.56 182.05 L 385.35 182.11 L 391.28 182.02 L 397.13 182.04 L 403.10 182.12 L 408.95 182.10 L 414.82 182.12 L 420.68 182.04 L 426.55 182.03 L 432.46 182.02 L 438.48 182.11 L 444.37 182.02 L 450.22 182.18 L 456.04 182.10 L 462.00 182.04 L 467.87 182.05 L 473.72 182.06 L 479.62 182.12 L 485.55 182.11 L 491.46 182.13 L 497.28 182.10 L 503.25 182.08 L 509.04 182.18 L 515.05 182.04 L 520.86 182.02 L 526.79 182.04 L 532.65 182.10 L 538.52 182.19 L 544.43 182.15 L 550.39 182.04 L 556.32 182.06 L 562.15 182.10 L 567.99 182.11 L 573.93 182.04 L 579.84 182.17 L 585.67 182.14 L 591.64 182.08 L 597.47 182.09 L 603.38 182.05 L 609.35 182.13 L 615.07 182.13 L 620.99 182.16 L 626.85 182.16 L 632.85 182.19 L 638.74 182.12 L 644.60 182.13 L 650.54 182.08 L 656.46 182.03 L 662.31 182.15 L 668.17 182.11" fill="none" stroke="black" stroke-width="1"/>
  <path d="M 668.30 167.51 L 662.32 167.58 L 656.54 167.55 L 650.70 167.50 L 644.77 167.45 L 638.86 167.53 L 632.95 167.52 L 627.13 167.44 L 621.10 167.58 L 615.21 167.58 L 609.29 167.59 L 603.44 167.48 L 597.58 167.49 L 591.69 167.54 L 585.89 167.44 L 579.89 167.59 L 573.99 167.57 L 568.19 167.46 L 562.21 167.57 L 556.37 167.48 L 550.43 167.43 L 544.61 167.49 L 538.75 167.46 L 532.84 167.47 L 526.90 167.58 L 520.92 167.54 L 515.01 167.55 L 509.17 167.46 L 503.37 167.46 L 497.40 167.54 L 491.59 167.48 L 485.62 167.45 L 479.79 167.50 L 473.82 167.59 L 468.04 167.50 L 462.04 167.52 L 456.19 167.44 L 450.27 167.55 L 444.44 167.53 L 438.41 167.54 L 432.65 167.55 L 426.79 167.59 L 420.90 167.49 L 414.99 167.47 L 409.00 167.42 L 403.18 167.54 L 397.32 167.48 L 391.27 167.52 L 385.45 167.45 L 379.57 167.49 L 373.62 167.45 L 367.84 167.55 L 361.82 167.55 L 356.09 167.56 L 350.04 167.52 L 344.23 167.47 L 338.26 167.49 L 332.46 167.51 L 326.46 167.54 L 320.73 167.55 L 314.74 167.58 L 308.94 167.44 L 302.93 167.58 L 297.05 167.56 L 291.16 167.58 L 285.27 167.47 L 279.32 167.51 L 273.52 167.47 L 267.61 167.45 L 261.71 167.58 L 255.85 167.49 L 250.02 167.56 L 244.05 167.55 L 238.16 167.51 L 232.23 167.55 L 226.45 167.46 L 220.45 167.50 L 214.58 167.44 L 208.63 167.44 L 202.88 167.45 L 196.86 167.56 L 190.94 167.43 L 185.20 167.50 L 179.19 167.41 L 173.41 167.43 L 167.52 167.48 L 161.52 167.44 L 155.64 167.51 L 149.79 167.55 L 143.92 167.51 L 137.94 167.54 L 132.11 167.44 L 126.29 167.56 L 120.35 167.55 L 114.35 167.49 L 108.46 167.54 L 102.67 167.42 L 96.69 167.44 L 90.84 167.55 L 85.00 167.52 L 79.06 167.49" fill="none" stroke="black" stroke-width="1"/>
  <path d="M 93.52 138.19 L 96.12 137.75 L 98.57 137.13 L 100.93 136.87 L 103.20 136.54 L 105.73 135.98 L 108.34 135.32 L 110.57 134.88 L 113.22 134.24 L 115.75 133.67 L 118.10 132.95 L 120.60 132.83 L 123.15 132.07 L 125.58 131.80 L 128.18 131.10 L 130.56 130.66 L 133.14 130.29 L 135.50 129.93 L 137.97 129.58 L 140.55 129.45 L 142.86 129.20 L 145.37 128.97 L 147.88 129.19 L 150.36 129.06 L 152.76 128.98 L 155.32 129.04 L 157.92 129.68 L 160.15 129.69 L 162.51 130.13 L 165.05 130.65 L 167.53 131.03 L 169.77 131.79 L 172.38 132.25 L 174.91 132.83 L 177.31 133.56 L 179.76 134.48 L 182.28 134.97 L 184.54 135.62 L 187.14 136.58 L 189.66 137.29 L 192.33 138.00 L 194.51 138.65 L 197.03 139.67 L 199.39 140.35 L 202.17 141.09 L 204.41 141.95 L 206.80 142.41 L 209.41 143.37 L 211.78 143.99" fill="none" stroke="black" stroke-width="1"/>
  <path d="M 196.96 108.39 L 199.24 107.91 L 201.74 107.76 L 203.72 107.51 L 206.14 107.14 L 208.48 106.78 L 210.90 106.46 L 212.99 105.77 L 215.32 105.62 L 217.39 105.28 L 220.10 104.84 L 222.10 104.46 L 224.49 104.01 L 226.94 103.64 L 228.94 103.13 L 231.59 103.03 L 233.67 102.44 L 236.17 102.21 L 238.37 101.64 L 240.32 101.40 L 242.84 101.09 L 245.28 100.67 L 247.27 100.70 L 249.92 100.51 L 252.03 100.09 L 254.34 99.90 L 256.81 99.86 L 259.11 99.70 L 261.22 99.60 L 263.29 99.42 L 265.60 99.52 L 268.07 99.75 L 270.41 99.78 L 272.50 100.17 L 274.86 100.22 L 277.09 100.26 L 279.62 100.73 L 281.79 101.33 L 284.04 101.45 L 286.63 102.07 L 288.84 102.34 L 291.04 103.06 L 293.54 103.58 L 295.85 103.75 L 298.07 104.47 L 300.42 105.28 L 302.66 105.74 L 305.21 106.21 L 307.30 106.95 L 309.47 107.59 L 312.11 108.39 L 314.29 108.98 L 316.53 109.65 L 319.03 110.54 L 320.99 111.19 L 323.43 111.59 L 325.77 112.39 L 328.14 113.27 L 330.47 113.71 L 332.73 114.39 L 335.00 115.03 L 337.28 115.41 L 339.70 116.44 L 341.82 117.02 L 344.23 117.41" fill="none" stroke="black" stroke-width="1"/>
  <path d="M 329.64 79.26 L 332.31 78.72 L 334.76 78.74 L 336.91 78.12 L 339.54 77.98 L 342.12 77.40 L 344.50 77.44 L 346.78 76.76 L 349.41 76.43 L 351.94 75.98 L 354.54 75.66 L 356.84 75.06 L 359.26 74.79 L 361.86 74.62 L 364.05 74.19 L 366.48 73.41 L 369.13 73.19 L 371.58 72.69 L 374.11 72.67 L 376.65 72.37 L 379.01 71.80 L 381.28 71.64 L 384.11 71.31 L 386.33 71.05 L 388.95 70.77 L 391.33 70.67 L 394.14 70.68 L 396.36 70.43 L 398.94 70.25 L 401.59 70.38 L 404.00 70.44 L 406.33 70.34 L 409.01 70.39 L 411.48 70.84 L 414.30 71.05 L 416.56 70.86 L 419.18 71.30 L 421.77 71.86 L 424.09 71.91 L 426.72 72.25 L 429.42 72.88 L 431.81 73.25 L 434.69 73.72 L 437.29 74.34 L 439.73 74.96 L 442.46 75.35 L 444.86 76.10 L 447.32 76.89 L 450.08 77.41 L 452.66 77.87 L 455.28 78.82 L 457.63 79.46 L 460.45 80.05 L 463.13 80.62 L 465.81 81.46 L 468.14 82.02 L 470.83 82.75 L 473.52 83.52 L 476.24 84.17 L 478.68 84.76 L 481.20 85.35 L 483.84 85.96 L 486.44 86.49 L 488.93 87.05 L 491.54 87.69" fill="none" stroke="black" stroke-width="1"/>
  <path d="M 461.78 55.28 L 459.09 54.86 L 456.05 54.39 L 453.34 53.59 L 450.78 53.33 L 447.95 52.63 L 445.18 52.02 L 442.36 51.72 L 439.77 51.16 L 436.91 50.52 L 434.27 50.19 L 431.75 49.28 L 428.78 48.90 L 426.16 48.39 L 423.44 47.67 L 420.44 47.08 L 417.77 46.68 L 415.25 45.99 L 412.36 45.55 L 409.60 44.94 L 406.77 44.64 L 403.92 44.14 L 401.23 43.72 L 398.51 43.36 L 395.76 42.91 L 393.11 42.81 L 390.06 42.45 L 387.70 41.84 L 384.74 41.63 L 382.03 41.63 L 379.07 41.23 L 376.67 41.17 L 373.72 40.93 L 370.98 41.03 L 368.25 40.79 L 365.53 41.02 L 362.67 40.90 L 359.89 40.97 L 356.92 41.39 L 354.35 41.33 L 351.62 41.45 L 348.86 41.65 L 346.01 41.96 L 343.53 42.27 L 340.56 42.45 L 337.74 42.92 L 335.03 43.32 L 332.30 43.38 L 329.50 43.76 L 326.89 44.33 L 324.10 44.72 L 321.00 45.02 L 318.43 45.25 L 315.51 45.60 L 312.85 46.12 L 310.26 46.59 L 307.36 46.78 L 304.58 47.03 L 301.85 47.42 L 299.10 48.00 L 296.29 48.23 L 293.53 48.35 L 290.96 48.86 L 288.22 48.92 L 285.23 49.45" fill="none" stroke="black" stroke-width="1"/>
  <path d="M 226.49 99.64 L 224.30 99.34 L 222.07 98.81 L 219.34 98.06 L 217.23 97.64 L 215.11 96.87 L 212.65 96.59 L 210.08 95.80 L 207.97 95.41 L 205.80 94.64 L 203.56 94.38 L 201.06 93.56 L 198.70 93.08 L 196.28 92.44 L 193.84 91.78 L 191.89 91.45 L 189.44 90.80 L 187.04 90.33 L 184.98 89.67 L 182.46 89.45 L 180.18 88.71 L 177.67 88.48 L 175.72 87.87 L 173.02 87.20 L 170.93 86.94 L 168.62 86.70 L 166.38 86.21 L 163.91 85.90 L 161.69 85.64 L 159.45 85.25 L 157.01 85.38 L 154.71 85.09 L 152.46 84.93 L 150.11 84.94 L 147.79 85.05 L 145.48 85.07 L 143.25 84.93 L 140.80 84.85 L 138.62 84.99 L 136.29 85.20 L 134.06 85.52 L 131.54 85.71 L 129.49 86.23 L 127.13 86.48 L 124.87 86.58 L 122.75 86.75 L 120.24 87.15 L 117.81 87.81 L 115.70 87.97 L 113.62 88.32 L 110.99 88.86 L 108.83 88.98 L 106.53 89.54 L 104.36 90.05 L 101.85 90.13 L 99.64 90.85 L 97.36 91.16 L 94.99 91.75 L 92.93 91.88 L 90.61 92.20 L 88.18 92.68 L 85.97 92.95 L 83.42 93.20 L 81.29 93.86 L 79.01 93.97" fill="none" stroke="black" stroke-width="1"/>
  <path d="M 79.04 20.13 L 84.92 20.08 L 90.84 20.09 L 96.78 20.16 L 102.63 20.06 L 108.57 20.12 L 114.45 20.11 L 120.24 20.21 L 126.22 20.19 L 131.99 20.06 L 138.03 20.14 L 143.86 20.21 L 149.83 20.13 L 155.72 20.19 L 161.52 20.07 L 167.37 20.14 L 173.27 20.05 L 179.29 20.17 L 185.15 20.18 L 190.92 20.15 L 196.86 20.18 L 202.80 20.10 L 208.71 20.16 L 214.64 20.12 L 220.45 20.17 L 226.26 20.10 L 232.20 20.05 L 238.07 20.08 L 244.06 20.04 L 249.86 20.13 L 255.74 20.06 L 261.78 20.15 L 267.65 20.04 L 273.56 20.09 L 279.45 20.11 L 285.21 20.07 L 291.07 20.14 L 297.04 20.14 L 302.90 20.19 L 308.82 20.10 L 314.65 20.03 L 320.63 20.13 L 326.52 20.15 L 332.33 20.17 L 338.36 20.13 L 344.14 20.13 L 350.04 20.14 L 355.91 20.02 L 361.90 20.07 L 367.71 20.10 L 373.58 20.10 L 379.56 20.10 L 385.47 20.06 L 391.34 20.13 L 397.16 20.15 L 403.15 20.07 L 408.94 20.15 L 414.88 20.16 L 420.86 20.14 L 426.71 20.03 L 432.51 20.15 L 438.39 20.17 L 444.36 20.09 L 450.27 20.17 L 456.15 20.19 L 462.04 20.07 L 467.90 20.17 L 473.84 20.03 L 479.73 20.06 L 485.51 20.07 L 491.51 20.12 L 497.37 20.17 L 503.19 20.06 L 509.21 20.03 L 515.00 20.11 L 520.86 20.06 L 526.90 20.18 L 532.67 20.15 L 538.60 20.03 L 544.48 20.15 L 550.34 20.06 L 556.37 20.14 L 562.19 20.01 L 568.06 20.01 L 573.99 20.15 L 579.78 20.02 L 585.80 20.01 L 591.59 20.02 L 597.46 20.12 L 603.39 20.16 L 609.26 20.15 L 615.13 20.07 L 621.08 20.00 L 626.98 20.06 L 632.84 20.05 L 638.73 20.11 L 644.69 20.00 L 650.52 20.11 L 656.38 20.09 L 662.36 20.05 L 668.24 20.08" fill="none" stroke="black" stroke-width="1"/>
  <path d="M 668.44 70.07 L 666.05 69.56 L 663.62 68.53 L 661.08 68.06 L 658.75 67.32 L 656.40 66.53 L 653.73 65.81 L 651.32 64.82 L 649.01 64.06 L 646.38 63.47 L 643.78 62.82 L 641.28 61.94 L 639.02 61.18 L 636.72 60.50 L 634.28 59.56 L 631.67 59.07 L 629.13 58.54 L 626.72 57.80 L 624.30 57.29 L 621.81 56.73 L 619.21 56.35 L 616.93 55.98 L 614.62 55.71 L 612.14 55.39 L 609.55 55.27 L 607.13 55.36 L 604.69 55.31 L 602.15 55.26 L 599.66 55.31 L 596.99 55.71 L 594.75 55.86 L 592.25 56.14 L 589.63 56.47 L 587.33 56.92 L 584.69 57.39 L 582.61 57.95 L 579.91 58.31 L 577.42 58.68 L 574.99 59.53 L 572.49 59.89 L 570.17 60.31 L 567.61 61.14 L 565.06 61.51 L 562.53 62.05 L 560.35 62.52 L 557.64 63.04 L 555.24 63.63 L 552.49 63.79 L 550.22 64.34" fill="none" stroke="black" stroke-width="1"/>
  <path d="M 609.26 128.91 L 607.08 128.13 L 604.86 127.92 L 602.32 127.06 L 600.07 126.50 L 597.95 126.01 L 595.60 125.29 L 593.24 124.28 L 590.89 123.81 L 588.51 123.03 L 586.43 122.61 L 584.08 121.75 L 581.70 120.99 L 579.54 120.45 L 576.90 119.73 L 574.68 118.74 L 572.52 118.24 L 570.26 117.77 L 567.92 116.75 L 565.85 116.24 L 563.33 115.72 L 561.13 115.37 L 558.63 114.61 L 556.27 114.11 L 554.14 113.60 L 551.90 113.23 L 549.48 112.72 L 547.12 112.30 L 544.93 112.07 L 542.62 111.77 L 540.16 111.58 L 538.10 111.61 L 535.72 111.29 L 533.24 111.13 L 530.95 111.34 L 528.76 111.38 L 526.50 111.38 L 524.13 111.67 L 521.95 111.81 L 519.63 111.95 L 517.27 112.23 L 515.04 112.69 L 512.49 112.95 L 510.14 113.49 L 508.04 113.67 L 505.69 114.32 L 503.32 114.80 L 501.24 115.09 L 498.79 115.51 L 496.68 115.90 L 494.03 116.33 L 491.89 116.83 L 489.55 117.58 L 487.20 118.19 L 485.06 118.48 L 482.51 119.07 L 480.30 119.71 L 478.18 120.06 L 475.72 120.60 L 473.22 121.19 L 471.06 121.73 L 468.66 122.00 L 466.52 122.78 L 463.94 122.96 L 461.81 123.45" fill="none" stroke="black" stroke-width="1"/>
</svg>