<svg xmlns="http://www.w3.org/2000/svg" width="800" height="600" viewBox="0 0 800 600">
  <rect width="100%" height="100%" fill="white"/>
  <path d="M 49.57 152.62 L 52.16 145.74 L 54.63 139.06 L 57.07 132.35 L 59.61 125.58 L 62.09 118.80" fill="none" stroke="black" stroke-width="1"/>
  <path d="M 62.25 118.78 L 63.74 126.39 L 65.11 134.35 L 66.46 142.04 L 68.01 149.73 L 69.22 157.47 L 70.77 165.14" fill="none" stroke="black" stroke-width="1"/>
  <path d="M 83.29 148.37 L 79.01 142.48 L 74.97 136.36 L 70.63 130.48 L 66.36 124.69 L 62.27 118.62" fill="none" stroke="black" stroke-width="1"/>
  <path d="M 104.42 110.32 L 104.76 111.83 L 105.24 113.34 L 105.65 114.85 L 106.02 116.49 L 106.46 118.02 L 106.78 119.70 L 107.19 121.38 L 107.54 122.93 L 107.82 124.59 L 108.31 126.12 L 108.73 127.63 L 109.10 129.23 L 109.56 130.79 L 109.93 132.21 L 110.31 133.61 L 110.81 135.00 L 111.35 136.31 L 111.75 137.55 L 112.33 138.66 L 112.77 139.81 L 113.41 140.67 L 113.87 141.75 L 114.35 142.56 L 115.05 143.41 L 115.63 144.10 L 116.30 144.83 L 117.02 145.39 L 117.59 146.06 L 118.31 146.70 L 118.92 147.16 L 119.60 147.64 L 120.27 148.17 L 120.95 148.76 L 121.64 149.15 L 122.26 149.59 L 122.99 150.15 L 123.68 150.59 L 124.33 151.21 L 124.96 151.68 L 125.64 152.39" fill="none" stroke="black" stroke-width="1"/>
  <path d="M 125.66 152.40 L 123.96 151.24 L 122.52 150.28 L 120.73 149.25 L 119.11 148.17 L 117.21 147.07 L 115.55 146.05 L 113.86 144.95 L 111.95 143.94 L 110.08 142.96 L 108.43 141.82 L 106.81 140.88 L 105.10 139.71 L 103.69 138.58 L 102.07 137.60 L 100.80 136.45 L 99.47 135.49 L 98.48 134.52 L 97.40 133.38 L 96.64 132.22 L 95.98 131.28 L 95.56 130.32 L 95.29 129.18 L 95.37 128.11 L 95.24 127.09 L 95.44 126.11 L 95.74 124.99 L 96.29 123.94 L 96.65 122.90 L 97.20 121.76 L 97.87 120.81 L 98.55 119.69 L 99.28 118.73 L 99.98 117.63 L 100.76 116.64 L 101.37 115.47 L 102.21 114.55 L 102.90 113.61 L 103.51 112.47 L 104.08 111.52 L 104.53 110.38" fill="none" stroke="black" stroke-width="1"/>
  <path d="M 104.36 110.39 L 107.58 109.18 L 110.69 108.13 L 113.82 106.92 L 117.02 105.66 L 120.21 104.38 L 123.36 103.08 L 126.58 101.76 L 129.69 100.46 L 132.90 99.06 L 136.02 97.90 L 139.12 96.76 L 142.35 95.49 L 145.57 94.47 L 148.69 93.32 L 151.75 92.49 L 155.02 91.47 L 158.31 90.73 L 161.36 90.05 L 164.58 89.49 L 167.70 89.13 L 170.80 88.91 L 174.04 88.77 L 177.20 88.86 L 180.39 88.92 L 183.60 89.13 L 186.74 89.48 L 190.03 89.97 L 193.09 90.38 L 196.36 91.03 L 199.44 91.51 L 202.60 92.12 L 205.79 92.79 L 209.03 93.49 L 212.14 94.13 L 215.21 94.86 L 218.49 95.44 L 221.67 95.96 L 224.85 96.63 L 228.13 97.17 L 231.20 97.61" fill="none" stroke="black" stroke-width="1"/>
  <path d="M 231.25 97.63 L 234.42 97.47 L 237.57 97.56 L 240.71 97.49 L 243.88 97.40 L 247.03 97.24 L 250.20 97.19 L 253.39 97.12 L 256.52 96.96 L 259.61 96.77 L 262.83 96.76 L 265.95 96.63 L 269.15 96.62 L 272.39 96.51 L 275.47 96.59 L 278.56 96.69 L 281.79 96.70 L 285.02 96.86 L 288.12 96.99 L 291.31 97.23 L 294.45 97.50 L 297.63 97.90 L 300.78 98.25 L 303.98 98.68 L 307.12 99.23 L 310.26 99.84 L 313.46 100.38 L 316.51 101.09 L 319.80 101.67 L 323.08 102.48 L 326.15 103.07 L 329.36 103.79 L 332.49 104.53 L 335.73 105.35 L 338.84 106.02 L 341.96 106.73 L 345.19 107.50 L 348.25 108.29 L 351.53 108.92 L 354.66 109.50 L 357.88 110.25" fill="none" stroke="black" stroke-width="1"/>
  <path d="M 357.75 110.21 L 361.95 111.76 L 366.30 113.16 L 370.58 114.57 L 375.00 116.08 L 379.34 117.55 L 383.78 118.98 L 388.06 120.41 L 392.59 121.88 L 396.97 123.42 L 401.35 124.78 L 405.65 126.27 L 410.01 127.71 L 414.31 129.18 L 418.49 130.67 L 422.61 132.22 L 426.74 133.67 L 430.76 135.22 L 434.69 136.74 L 438.45 138.29 L 442.29 139.87 L 445.84 141.61 L 449.47 143.09 L 452.90 144.62 L 456.29 146.38 L 459.51 147.93 L 462.82 149.72 L 465.99 151.43 L 469.11 153.11 L 472.13 154.74 L 475.23 156.54 L 478.21 158.17 L 481.24 159.98 L 484.32 161.64 L 487.21 163.43 L 490.13 165.15 L 493.20 166.88 L 496.15 168.48 L 499.28 170.31 L 502.50 171.94 L 505.51 173.72" fill="none" stroke="black" stroke-width="1"/>
  <path d="M 511.99 173.65 L 509.88 175.76 L 507.77 173.65 L 509.88 171.54 L 511.99 173.65" fill="none" stroke="black" stroke-width="1"/>
  <path d="M 495.18 169.46 L 493.07 171.57 L 490.96 169.46 L 493.07 167.35 L 495.18 169.46" fill="none" stroke="black" stroke-width="1"/>
  <path d="M 492.88 215.86 L 493.50 216.93 L 494.22 217.94 L 495.01 219.00 L 495.65 219.97 L 496.41 221.02 L 497.14 221.96 L 497.80 222.94 L 498.64 223.94 L 499.34 225.06 L 500.11 225.94 L 500.93 227.07 L 501.52 227.98 L 502.14 228.92 L 502.83 230.09 L 503.43 231.27 L 503.99 232.29 L 504.36 233.35 L 504.97 234.60 L 505.27 235.70 L 505.72 237.06 L 505.88 238.28 L 506.23 239.67 L 506.44 240.94 L 506.52 242.42 L 506.65 243.80 L 506.63 245.29 L 506.69 246.65 L 506.59 248.25 L 506.50 249.72 L 506.45 251.28 L 506.26 252.87 L 506.25 254.35 L 506.13 255.79 L 506.02 257.43 L 505.91 259.02 L 505.80 260.51 L 505.59 262.07 L 505.63 263.55 L 505.64 264.99 L 505.56 266.54" fill="none" stroke="black" stroke-width="1"/>
  <path d="M 484.62 249.70 L 483.73 249.39 L 482.93 248.84 L 482.02 248.30 L 481.24 247.96 L 480.36 247.52 L 479.55 247.06 L 478.58 246.66 L 477.86 246.15 L 476.94 245.78 L 476.17 245.25 L 475.22 244.91 L 474.48 244.38 L 473.70 243.86 L 472.79 243.53 L 472.02 243.13 L 471.10 242.73 L 470.32 242.27 L 469.41 241.99 L 468.68 241.71 L 467.72 241.31 L 466.77 241.12 L 466.02 240.71 L 465.30 240.56 L 464.33 240.18 L 463.52 239.82 L 462.63 239.71 L 461.66 239.45 L 460.93 239.28 L 460.01 239.00 L 459.24 238.88 L 458.26 238.62 L 457.54 238.51 L 456.80 238.26 L 455.84 238.14 L 454.90 237.96 L 454.14 237.76 L 453.35 237.55 L 452.44 237.37 L 451.67 237.12 L 450.74 236.96" fill="none" stroke="black" stroke-width="1"/>
  <path d="M 450.70 215.74 L 450.79 216.91 L 450.64 217.87 L 450.60 218.83 L 450.49 220.01 L 450.41 221.17 L 450.29 222.14 L 450.29 223.09 L 450.07 224.28 L 450.07 225.41 L 449.88 226.42 L 449.74 227.39 L 449.76 228.55 L 449.81 229.52 L 449.74 230.69 L 449.81 231.88 L 449.85 232.82 L 449.92 233.85 L 450.15 234.95 L 450.45 235.99 L 450.67 237.07 L 451.15 238.16 L 451.42 239.19 L 451.94 240.18 L 452.40 241.31 L 453.05 242.49 L 453.56 243.43 L 454.13 244.59 L 454.85 245.54 L 455.45 246.50 L 456.25 247.65 L 456.97 248.62 L 457.71 249.76 L 458.48 250.90 L 459.20 251.87 L 460.00 253.04 L 460.68 253.98 L 461.27 255.08 L 462.10 256.09 L 462.83 257.16 L 463.43 258.20" fill="none" stroke="black" stroke-width="1"/>
  <path d="M 526.85 279.17 L 522.61 283.46 L 518.22 287.51 L 513.97 291.84" fill="none" stroke="black" stroke-width="1"/>
  <path d="M 516.30 305.03 L 520.28 312.48" fill="none" stroke="black" stroke-width="1"/>
  <path d="M 530.97 321.52 L 526.79 325.69 L 522.33 329.91 L 518.17 334.12" fill="none" stroke="black" stroke-width="1"/>
  <path d="M 512.85 346.94 L 515.28 355.03" fill="none" stroke="black" stroke-width="1"/>
  <path d="M 530.99 363.58 L 526.62 367.87 L 522.47 372.15 L 518.23 376.27" fill="none" stroke="black" stroke-width="1"/>
  <path d="M 488.77 350.65 L 492.16 352.59 L 495.18 354.94 L 497.95 357.31 L 501.20 359.12" fill="none" stroke="black" stroke-width="1"/>
  <path d="M 501.46 372.03 L 500.21 372.25 L 498.93 372.54 L 497.76 372.94 L 496.39 373.17 L 495.03 373.58 L 493.85 373.86 L 492.66 374.13 L 491.32 374.57 L 489.92 374.90 L 488.78 375.25 L 487.57 375.48 L 486.24 375.85 L 485.08 376.13 L 483.71 376.30 L 482.55 376.54 L 481.17 376.57 L 479.83 376.54 L 478.63 376.61 L 477.45 376.49 L 476.10 376.35 L 474.78 376.09 L 473.56 375.77 L 472.40 375.35 L 471.03 374.90 L 469.65 374.38 L 468.50 373.80 L 467.21 373.03 L 465.96 372.51 L 464.79 371.84 L 463.43 371.08 L 462.19 370.34 L 460.90 369.57 L 459.56 368.82 L 458.37 368.02 L 457.20 367.25 L 455.83 366.49 L 454.55 365.67 L 453.30 365.03 L 451.99 364.41 L 450.77 363.69" fill="none" stroke="black" stroke-width="1"/>
  <path d="M 445.18 353.97 L 439.18 348.09" fill="none" stroke="black" stroke-width="1"/>
  <path d="M 459.22 333.92 L 462.29 335.86 L 465.86 337.88 L 468.83 340.32 L 472.10 342.31" fill="none" stroke="black" stroke-width="1"/>
  <path d="M 445.08 389.02 L 447.67 397.23" fill="none" stroke="black" stroke-width="1"/>
  <path d="M 438.10 405.78 L 442.35 410.21 L 446.54 414.42" fill="none" stroke="black" stroke-width="1"/>
  <path d="M 454.93 410.12 L 452.81 405.84 L 450.84 401.60" fill="none" stroke="black" stroke-width="1"/>
  <path d="M 467.60 397.37 L 469.71 401.79 L 471.75 405.98" fill="none" stroke="black" stroke-width="1"/>
  <path d="M 467.54 410.21 L 470.39 404.60 L 473.09 398.96 L 475.95 393.17" fill="none" stroke="black" stroke-width="1"/>
  <path d="M 484.54 401.66 L 482.57 406.02 L 480.38 410.16" fill="none" stroke="black" stroke-width="1"/>
  <path d="M 480.16 410.19 L 484.29 415.67 L 488.59 421.38 L 492.93 427.01" fill="none" stroke="black" stroke-width="1"/>
  <path d="M 509.82 418.57 L 514.10 414.33 L 518.34 410.09 L 522.57 405.76" fill="none" stroke="black" stroke-width="1"/>
  <path d="M 577.41 448.11 L 522.51 473.45" fill="none" stroke="black" stroke-width="1"/>
  <path d="M 524.02 472.30 L 529.51 465.89" fill="none" stroke="black" stroke-width="1"/>
  <path d="M 534.58 475.45 L 527.54 471.27" fill="none" stroke="black" stroke-width="1"/>
  <path d="M 526.40 471.70 L 518.65 475.14" fill="none" stroke="black" stroke-width="1"/>
  <path d="M 518.29 477.67 L 585.85 469.23" fill="none" stroke="black" stroke-width="1"/>
  <path d="M 594.30 486.12 L 522.51 481.90" fill="none" stroke="black" stroke-width="1"/>
  <path d="M 526.73 486.12 L 590.08 503.01" fill="none" stroke="black" stroke-width="1"/>
  <path d="M 543.62 498.76 L 543.62 493.08 L 543.77 487.51 L 543.66 481.78" fill="none" stroke="black" stroke-width="1"/>
  <path d="M 539.31 481.95 L 539.28 490.29" fill="none" stroke="black" stroke-width="1"/>
  <path d="M 539.51 490.48 L 539.43 498.79" fill="none" stroke="black" stroke-width="1"/>
  <path d="M 526.72 494.52 L 521.08 497.32 L 515.43 500.32 L 509.72 503.13" fill="none" stroke="black" stroke-width="1"/>
  <path d="M 501.40 511.48 L 501.19 511.81 L 500.98 512.36 L 500.67 512.84 L 500.55 513.29 L 500.34 513.73 L 500.13 514.26 L 499.81 514.65 L 499.70 515.23 L 499.53 515.75 L 499.28 516.19 L 498.98 516.63 L 498.85 517.11 L 498.53 517.61 L 498.43 517.96 L 498.10 518.38 L 498.01 518.72 L 497.72 519.12 L 497.59 519.36 L 497.43 519.56 L 497.17 519.87 L 496.97 520.09 L 496.75 520.21 L 496.62 520.44 L 496.34 520.42 L 496.24 520.58 L 495.93 520.51 L 495.76 520.54 L 495.52 520.51 L 495.21 520.58 L 495.11 520.45 L 494.83 520.29 L 494.70 520.34 L 494.44 520.18 L 494.29 520.22 L 494.20 520.22 L 493.88 520.10 L 493.55 520.02 L 493.46 520.02 L 493.19 520.00 L 493.05 520.00" fill="none" stroke="black" stroke-width="1"/>
  <path d="M 493.07 519.90 L 492.59 519.80 L 492.16 519.48 L 491.77 519.30 L 491.20 519.06 L 490.77 518.76 L 490.20 518.64 L 489.80 518.55 L 489.20 518.22 L 488.77 518.11 L 488.21 517.80 L 487.64 517.63 L 487.26 517.39 L 486.75 517.09 L 486.38 516.97 L 485.95 516.87 L 485.60 516.55 L 485.26 516.40 L 484.94 516.13 L 484.69 515.88 L 484.43 515.72 L 484.31 515.43 L 484.09 515.30 L 483.96 515.10 L 483.89 514.88 L 483.97 514.66 L 483.82 514.47 L 483.92 514.17 L 483.84 514.05 L 483.92 513.96 L 483.93 513.63 L 483.96 513.34 L 484.07 513.22 L 484.05 513.06 L 484.22 512.80 L 484.23 512.62 L 484.36 512.39 L 484.50 512.15 L 484.47 511.97 L 484.43 511.71 L 484.52 511.56" fill="none" stroke="black" stroke-width="1"/>
  <path d="M 484.51 511.58 L 484.73 511.02 L 484.92 510.70 L 485.09 510.32 L 485.34 509.76 L 485.66 509.29 L 485.75 508.79 L 485.84 508.38 L 486.16 507.81 L 486.46 507.38 L 486.57 506.84 L 486.83 506.40 L 486.98 505.92 L 487.09 505.57 L 487.39 505.06 L 487.66 504.61 L 487.81 504.30 L 487.91 503.96 L 488.22 503.65 L 488.48 503.44 L 488.64 503.14 L 488.79 503.03 L 489.06 502.79 L 489.23 502.67 L 489.48 502.57 L 489.67 502.43 L 489.90 502.48 L 490.19 502.55 L 490.33 502.48 L 490.50 502.58 L 490.75 502.54 L 490.90 502.49 L 491.18 502.64 L 491.42 502.58 L 491.60 502.76 L 491.83 502.84 L 492.03 502.88 L 492.23 502.95 L 492.45 502.96 L 492.63 502.95 L 492.88 502.98" fill="none" stroke="black" stroke-width="1"/>
  <path d="M 492.97 502.92 L 493.40 503.20 L 493.87 503.34 L 494.26 503.63 L 494.82 503.76 L 495.34 503.94 L 495.81 504.18 L 496.23 504.34 L 496.81 504.59 L 497.29 504.68 L 497.79 505.01 L 498.32 505.23 L 498.73 505.43 L 499.21 505.67 L 499.59 505.85 L 499.93 506.17 L 500.36 506.27 L 500.61 506.43 L 501.01 506.69 L 501.21 506.84 L 501.51 507.12 L 501.73 507.28 L 501.85 507.54 L 501.84 507.64 L 502.03 507.97 L 501.96 508.26 L 502.09 508.39 L 502.10 508.63 L 502.06 508.82 L 502.05 509.03 L 501.96 509.24 L 501.76 509.42 L 501.81 509.67 L 501.78 509.88 L 501.65 510.10 L 501.52 510.26 L 501.49 510.52 L 501.37 510.69 L 501.37 510.95 L 501.39 511.14 L 501.31 511.38" fill="none" stroke="black" stroke-width="1"/>
  <path d="M 497.17 511.46 L 496.81 511.82 L 496.42 512.21 L 496.02 512.61 L 495.61 513.02 L 495.20 513.43 L 494.80 513.83 L 494.41 514.22 L 494.04 514.58 L 493.71 514.92 L 493.41 515.22 L 493.15 515.48 L 492.95 515.68 L 492.80 515.83 L 492.70 515.92 L 492.65 515.98 L 492.64 515.99 L 492.65 515.98 L 492.69 515.94 L 492.74 515.89 L 492.79 515.84 L 492.85 515.78 L 492.90 515.73 L 492.94 515.69 L 492.95 515.68" fill="none" stroke="black" stroke-width="1"/>
  <path d="M 492.95 515.68 L 488.73 511.46" fill="none" stroke="black" stroke-width="1"/>
  <path d="M 488.73 511.46 L 492.95 507.23" fill="none" stroke="black" stroke-width="1"/>
  <path d="M 492.95 507.23 L 497.17 511.46" fill="none" stroke="black" stroke-width="1"/>
  <path d="M 497.21 515.65 L 488.80 515.68" fill="none" stroke="black" stroke-width="1"/>
  <path d="M 488.78 515.63 L 488.73 507.34" fill="none" stroke="black" stroke-width="1"/>
  <path d="M 488.74 507.24 L 497.10 507.18" fill="none" stroke="black" stroke-width="1"/>
  <path d="M 497.33 507.13 L 497.06 515.60" fill="none" stroke="black" stroke-width="1"/>
  <path d="M 492.34 518.06 L 485.34 513.26" fill="none" stroke="black" stroke-width="1"/>
  <path d="M 480.35 524.23 L 480.81 524.54 L 481.16 524.65 L 481.66 524.75 L 481.93 525.10 L 482.41 525.34 L 482.68 525.56 L 483.06 525.69 L 483.43 526.03 L 483.84 526.33 L 484.19 526.48 L 484.60 526.66 L 484.98 526.92 L 485.38 527.07 L 485.80 527.33 L 486.30 527.61 L 486.67 527.69 L 487.11 527.90 L 487.60 528.00 L 488.02 528.10 L 488.61 528.24 L 489.05 528.40 L 489.70 528.40 L 490.36 528.57 L 490.87 528.50 L 491.58 528.62 L 492.11 528.54 L 492.77 528.51 L 493.40 528.54 L 494.06 528.64 L 494.72 528.50 L 495.36 528.55 L 496.06 528.45 L 496.85 528.45 L 497.42 528.39 L 498.05 528.36 L 498.77 528.33 L 499.43 528.28 L 500.10 528.29 L 500.73 528.29 L 501.40 528.27" fill="none" stroke="black" stroke-width="1"/>
  <path d="M 488.61 536.89 L 485.88 539.54 L 483.29 541.88 L 481.27 544.39 L 478.76 546.55 L 476.00 549.34" fill="none" stroke="black" stroke-width="1"/>
  <path d="M 476.24 540.85 L 474.04 543.91 L 471.70 547.24 L 470.03 550.53 L 467.67 553.83" fill="none" stroke="black" stroke-width="1"/>
  <path d="M 459.42 544.96 L 461.80 541.76 L 463.71 538.65 L 465.72 535.16 L 467.67 532.28" fill="none" stroke="black" stroke-width="1"/>
  <path d="M 442.16 557.87 L 440.07 564.18 L 438.06 570.68" fill="none" stroke="black" stroke-width="1"/>
  <path d="M 433.77 566.02 L 430.79 564.83 L 427.94 563.38 L 425.16 561.81" fill="none" stroke="black" stroke-width="1"/>
  <path d="M 450.70 566.32 L 450.24 566.90 L 449.88 567.65 L 449.54 568.36 L 449.10 569.06 L 448.69 569.87 L 448.34 570.52 L 447.97 571.17 L 447.57 572.00 L 447.10 572.83 L 446.81 573.44 L 446.37 574.21 L 446.01 574.83 L 445.50 575.43 L 445.19 576.12 L 444.69 576.63 L 444.31 577.27 L 443.79 577.78 L 443.37 578.24 L 442.99 578.51 L 442.36 579.00 L 441.93 579.15 L 441.27 579.52 L 440.68 579.65 L 440.09 579.82 L 439.36 579.77 L 438.86 579.95 L 438.25 580.00 L 437.58 579.95 L 436.93 579.97 L 436.26 579.84 L 435.57 579.81 L 434.92 579.67 L 434.37 579.47 L 433.57 579.47 L 432.99 579.30 L 432.23 579.29 L 431.53 579.15 L 430.90 579.15 L 430.29 579.15 L 429.61 579.11" fill="none" stroke="black" stroke-width="1"/>
  <path d="M 429.64 579.02 L 429.84 578.56 L 430.04 578.20 L 430.29 577.94 L 430.41 577.44 L 430.59 576.96 L 430.76 576.72 L 430.84 576.35 L 431.11 576.00 L 431.21 575.74 L 431.47 575.26 L 431.63 574.79 L 431.85 574.48 L 432.01 573.95 L 432.26 573.64 L 432.38 573.28 L 432.72 572.70 L 432.91 572.08 L 433.24 571.65 L 433.66 571.01 L 433.84 570.46 L 434.14 569.77 L 434.51 569.11 L 434.85 568.25 L 435.26 567.61 L 435.73 566.74 L 436.07 566.00 L 436.44 565.21 L 436.93 564.30 L 437.30 563.34 L 437.82 562.54 L 438.17 561.67 L 438.73 560.73 L 439.30 559.71 L 439.65 558.90 L 440.00 557.91 L 440.56 557.08 L 440.95 556.16 L 441.46 555.30 L 441.98 554.44 L 442.33 553.57" fill="none" stroke="black" stroke-width="1"/>
  <path d="M 433.79 545.36 L 429.53 538.87 L 425.38 532.62" fill="none" stroke="black" stroke-width="1"/>
  <path d="M 438.12 536.85 L 435.21 531.23 L 432.56 525.47 L 429.61 519.81" fill="none" stroke="black" stroke-width="1"/>
  <path d="M 429.51 524.23 L 426.81 518.44 L 423.90 512.94 L 421.13 507.16" fill="none" stroke="black" stroke-width="1"/>
  <path d="M 450.73 486.18 L 446.47 479.80 L 442.38 473.49" fill="none" stroke="black" stroke-width="1"/>
  <path d="M 438.09 452.32 L 433.86 446.75 L 429.55 441.10 L 425.26 435.51" fill="none" stroke="black" stroke-width="1"/>
  <path d="M 452.88 427.00 L 450.77 429.11 L 448.66 427.00 L 450.77 424.89 L 452.88 427.00" fill="none" stroke="black" stroke-width="1"/>
  <path d="M 435.76 414.90 L 440.90 422.04" fill="none" stroke="black" stroke-width="1"/>
  <path d="M 433.80 426.97 L 429.61 419.80 L 425.47 412.82 L 421.18 405.76" fill="none" stroke="black" stroke-width="1"/>
  <path d="M 431.99 388.31 L 427.19 380.85" fill="none" stroke="black" stroke-width="1"/>
  <path d="M 429.57 384.83 L 425.38 377.87 L 421.01 370.79 L 416.86 363.59" fill="none" stroke="black" stroke-width="1"/>
  <path d="M 426.50 345.92 L 423.80 338.18" fill="none" stroke="black" stroke-width="1"/>
  <path d="M 421.16 342.43 L 418.40 335.35 L 415.46 328.46 L 412.75 321.44" fill="none" stroke="black" stroke-width="1"/>
  <path d="M 425.37 308.67 L 422.63 302.93 L 419.81 297.35 L 416.90 291.77" fill="none" stroke="black" stroke-width="1"/>
  <path d="M 428.32 296.06 L 430.73 304.54" fill="none" stroke="black" stroke-width="1"/>
  <path d="M 435.09 305.83 L 441.15 311.75" fill="none" stroke="black" stroke-width="1"/>
  <path d="M 442.25 300.42 L 443.95 301.08 L 445.66 301.75 L 447.44 302.51 L 449.09 303.20 L 450.80 303.97 L 452.55 304.72 L 454.31 305.60 L 456.01 306.25 L 457.77 307.04 L 459.46 307.75 L 461.22 308.36 L 462.88 309.16 L 464.71 309.92 L 466.28 310.44 L 467.90 310.99 L 469.62 311.54 L 471.25 312.01 L 472.91 312.40 L 474.39 312.77 L 476.12 312.98 L 477.65 313.11 L 479.25 313.23 L 480.74 313.23 L 482.30 313.20 L 483.77 313.19 L 485.30 312.94 L 486.66 312.65 L 488.25 312.49 L 489.67 312.23 L 491.16 311.91 L 492.72 311.53 L 494.05 311.24 L 495.46 310.77 L 496.94 310.54 L 498.32 310.16 L 499.82 309.85 L 501.40 309.49 L 502.73 309.24 L 504.16 308.87 L 505.66 308.74" fill="none" stroke="black" stroke-width="1"/>
  <path d="M 496.91 308.68 L 493.62 306.48 L 490.63 304.14 L 487.80 302.48 L 484.59 300.05" fill="none" stroke="black" stroke-width="1"/>
  <path d="M 476.16 287.60 L 472.90 285.17 L 469.54 283.70 L 466.61 281.24 L 463.48 279.23" fill="none" stroke="black" stroke-width="1"/>
  <path d="M 444.15 270.35 L 440.16 263.00" fill="none" stroke="black" stroke-width="1"/>
  <path d="M 433.28 262.27 L 434.51 254.20" fill="none" stroke="black" stroke-width="1"/>
  <path d="M 433.90 249.71 L 429.74 244.18 L 425.39 238.37 L 421.20 232.77" fill="none" stroke="black" stroke-width="1"/>
  <path d="M 416.17 231.50 L 409.68 225.94" fill="none" stroke="black" stroke-width="1"/>
  <path d="M 404.64 235.13 L 411.57 239.47" fill="none" stroke="black" stroke-width="1"/>
  <path d="M 416.96 249.72 L 419.65 255.34 L 422.50 260.74 L 425.38 266.40" fill="none" stroke="black" stroke-width="1"/>
  <path d="M 412.69 258.14 L 411.50 257.88 L 410.54 257.36 L 409.40 256.96 L 408.33 256.70 L 407.20 256.47 L 406.08 256.10 L 404.99 255.77 L 403.83 255.52 L 402.62 255.23 L 401.59 254.91 L 400.57 254.61 L 399.40 254.21 L 398.39 253.86 L 397.27 253.38 L 396.13 252.99 L 395.24 252.37 L 394.20 251.64 L 393.32 251.12 L 392.44 250.37 L 391.55 249.60 L 390.78 248.67 L 389.94 247.75 L 389.24 246.63 L 388.48 245.62 L 387.75 244.49 L 387.13 243.26 L 386.50 242.11 L 385.88 240.72 L 385.38 239.47 L 384.70 238.05 L 384.12 236.63 L 383.56 235.29 L 383.04 233.80 L 382.43 232.50 L 381.81 231.03 L 381.30 229.72 L 380.77 228.42 L 380.13 227.01 L 379.52 225.69 L 378.90 224.42" fill="none" stroke="black" stroke-width="1"/>
  <path d="M 382.91 223.96 L 379.97 222.36 L 377.34 221.31 L 374.60 219.79" fill="none" stroke="black" stroke-width="1"/>
  <path d="M 378.93 215.94 L 384.51 221.51 L 390.21 227.03 L 395.94 232.64" fill="none" stroke="black" stroke-width="1"/>
  <path d="M 391.46 236.78 L 388.67 235.52 L 386.04 233.98 L 383.44 232.53" fill="none" stroke="black" stroke-width="1"/>
  <path d="M 383.12 232.70 L 383.58 233.45 L 383.95 234.01 L 384.40 234.55 L 384.75 235.34 L 385.09 235.99 L 385.53 236.69 L 385.82 237.32 L 386.30 238.05 L 386.59 238.77 L 387.09 239.40 L 387.55 240.06 L 387.89 240.72 L 388.34 241.28 L 388.73 242.01 L 389.30 242.54 L 389.62 243.25 L 390.04 243.91 L 390.56 244.43 L 391.18 244.97 L 391.58 245.53 L 392.23 246.07 L 392.68 246.55 L 393.15 247.04 L 393.85 247.49 L 394.36 247.95 L 395.08 248.37 L 395.62 248.68 L 396.36 249.21 L 396.91 249.68 L 397.67 250.00 L 398.45 250.48 L 399.01 250.78 L 399.59 251.24 L 400.35 251.54 L 400.98 251.91 L 401.69 252.31 L 402.35 252.81 L 403.01 253.10 L 403.59 253.49 L 404.30 253.92" fill="none" stroke="black" stroke-width="1"/>
  <path d="M 400.54 243.68 L 408.14 247.29" fill="none" stroke="black" stroke-width="1"/>
  <path d="M 408.49 249.64 L 401.39 246.77 L 394.44 243.87 L 387.36 241.16" fill="none" stroke="black" stroke-width="1"/>
  <path d="M 400.09 241.13 L 393.73 237.87 L 387.55 234.71 L 381.22 231.62 L 374.82 228.42" fill="none" stroke="black" stroke-width="1"/>
  <path d="M 379.00 228.53 L 372.66 226.45 L 366.35 224.22" fill="none" stroke="black" stroke-width="1"/>
  <path d="M 374.69 220.06 L 368.43 218.10 L 362.15 215.89" fill="none" stroke="black" stroke-width="1"/>
  <path d="M 370.53 207.52 L 374.71 211.69 L 378.94 215.85" fill="none" stroke="black" stroke-width="1"/>
  <path d="M 380.14 217.01 L 386.14 222.94" fill="none" stroke="black" stroke-width="1"/>
  <path d="M 378.92 224.17 L 378.67 223.46 L 378.41 222.89 L 378.20 222.23 L 377.76 221.55 L 377.45 220.91 L 377.02 220.18 L 376.52 219.39 L 376.26 218.79 L 376.01 218.07 L 375.54 217.43 L 375.17 216.66 L 374.93 216.10 L 374.69 215.57 L 374.48 214.85 L 374.28 214.35 L 374.27 213.68 L 374.33 213.18 L 374.35 212.62 L 374.54 212.16 L 374.79 211.70 L 375.17 211.23 L 375.63 210.94 L 376.12 210.70 L 376.82 210.32 L 377.62 210.18 L 378.32 209.81 L 379.23 209.70 L 380.04 209.39 L 381.02 209.20 L 381.93 209.03 L 383.00 208.79 L 383.92 208.72 L 384.89 208.56 L 385.96 208.42 L 387.02 208.23 L 387.98 208.11 L 388.94 208.00 L 389.91 207.78 L 390.71 207.55 L 391.69 207.38" fill="none" stroke="black" stroke-width="1"/>
  <path d="M 391.67 207.44 L 392.43 207.01 L 393.26 206.58 L 394.04 206.25 L 394.74 205.70 L 395.48 205.29 L 396.14 204.79 L 396.77 204.32 L 397.53 203.89 L 398.29 203.33 L 398.95 202.99 L 399.64 202.55 L 400.46 202.11 L 401.32 201.60 L 402.11 201.26 L 403.15 200.82 L 403.94 200.46 L 404.90 200.03 L 406.01 199.71 L 407.28 199.41 L 408.38 199.04 L 409.65 198.65 L 411.07 198.44 L 412.55 198.09 L 414.05 197.91 L 415.63 197.56 L 417.27 197.43 L 419.07 197.31 L 420.68 197.00 L 422.45 196.90 L 424.23 196.60 L 426.03 196.35 L 427.86 196.23 L 429.64 195.97 L 431.53 195.86 L 433.34 195.72 L 435.18 195.48 L 437.02 195.24 L 438.76 195.10 L 440.41 194.92 L 442.22 194.68" fill="none" stroke="black" stroke-width="1"/>
  <path d="M 442.27 194.69 L 441.51 196.76 L 440.52 198.93 L 439.69 201.05 L 438.67 203.17 L 437.67 205.19 L 436.77 207.41 L 435.71 209.63 L 434.86 211.65 L 433.86 213.85 L 432.97 215.89 L 432.12 217.91 L 431.15 220.13 L 430.31 222.15 L 429.43 224.36 L 428.55 226.60 L 427.86 228.60 L 427.14 230.76 L 426.46 232.83 L 425.86 234.87 L 425.29 237.06 L 424.73 239.23 L 424.36 241.29 L 423.98 243.39 L 423.65 245.52 L 423.50 247.66 L 423.12 249.74 L 422.90 251.75 L 422.73 253.96 L 422.68 256.18 L 422.45 258.18 L 422.23 260.35 L 422.23 262.40 L 422.06 264.61 L 422.04 266.62 L 422.07 268.72 L 421.84 270.84 L 421.68 272.94 L 421.58 275.06 L 421.42 277.28 L 421.23 279.28" fill="none" stroke="black" stroke-width="1"/>
  <path d="M 421.20 279.29 L 420.61 282.11 L 419.84 284.78 L 419.06 287.48 L 418.36 290.30 L 417.54 293.16 L 416.81 295.84 L 416.04 298.52 L 415.25 301.38 L 414.51 304.12 L 413.71 306.91 L 413.01 309.74 L 412.27 312.43 L 411.54 315.21 L 410.96 317.91 L 410.52 320.55 L 409.84 323.34 L 409.52 326.01 L 408.96 328.72 L 408.57 331.45 L 408.37 334.03 L 408.18 336.67 L 408.11 339.26 L 408.10 341.89 L 408.14 344.42 L 408.38 346.93 L 408.41 349.52 L 408.70 352.12 L 408.87 354.58 L 409.11 357.05 L 409.46 359.60 L 409.72 362.18 L 410.15 364.61 L 410.61 367.01 L 410.86 369.60 L 411.26 372.05 L 411.56 374.60 L 411.83 377.15 L 412.19 379.62 L 412.32 382.10 L 412.70 384.67" fill="none" stroke="black" stroke-width="1"/>
  <path d="M 412.83 384.69 L 412.92 387.14 L 413.18 389.84 L 413.27 392.44 L 413.45 395.10 L 413.52 397.75 L 413.66 400.43 L 413.64 403.20 L 413.86 405.77 L 414.08 408.31 L 414.09 411.08 L 414.29 413.68 L 414.38 416.31 L 414.69 418.89 L 414.77 421.40 L 415.08 423.91 L 415.31 426.31 L 415.75 428.67 L 416.02 430.99 L 416.54 433.22 L 416.94 435.38 L 417.41 437.31 L 418.11 439.45 L 418.79 441.45 L 419.49 443.23 L 420.26 444.93 L 421.06 446.78 L 421.81 448.41 L 422.76 450.15 L 423.74 451.89 L 424.56 453.38 L 425.54 454.86 L 426.43 456.53 L 427.46 458.09 L 428.32 459.64 L 429.17 461.28 L 430.20 462.77 L 431.10 464.47 L 432.03 465.97 L 432.91 467.66 L 433.77 469.29" fill="none" stroke="black" stroke-width="1"/>
  <path d="M 433.72 469.12 L 433.20 470.80 L 432.80 472.53 L 432.17 474.23 L 431.76 475.96 L 431.15 477.73 L 430.65 479.42 L 430.11 481.21 L 429.53 482.88 L 428.95 484.55 L 428.44 486.33 L 428.00 488.07 L 427.44 489.75 L 427.08 491.42 L 426.57 493.15 L 426.14 494.84 L 425.89 496.49 L 425.55 498.09 L 425.45 499.77 L 425.35 501.45 L 425.30 502.98 L 425.29 504.58 L 425.47 506.11 L 425.78 507.75 L 425.93 509.16 L 426.19 510.71 L 426.63 512.15 L 427.18 513.69 L 427.52 515.09 L 427.93 516.54 L 428.54 518.00 L 428.97 519.35 L 429.65 520.88 L 430.12 522.26 L 430.79 523.76 L 431.39 525.26 L 431.92 526.64 L 432.58 528.21 L 432.98 529.54 L 433.35 531.09 L 433.92 532.46" fill="none" stroke="black" stroke-width="1"/>
  <path d="M 433.71 532.67 L 434.13 533.69 L 434.50 534.84 L 434.83 535.95 L 435.20 537.10 L 435.58 538.23 L 435.85 539.40 L 436.14 540.63 L 436.49 541.72 L 436.76 542.89 L 437.16 544.02 L 437.56 545.13 L 437.88 546.25 L 438.34 547.31 L 438.71 548.38 L 439.28 549.49 L 439.68 550.37 L 440.29 551.38 L 440.83 552.18 L 441.56 552.96 L 442.19 553.77 L 443.03 554.49 L 443.80 555.13 L 444.80 555.62 L 445.63 556.26 L 446.70 556.69 L 447.63 557.21 L 448.62 557.60 L 449.77 558.03 L 450.91 558.26 L 452.02 558.74 L 453.26 559.06 L 454.33 559.39 L 455.47 559.79 L 456.66 560.01 L 457.75 560.45 L 458.99 560.65 L 460.11 560.87 L 461.26 561.33 L 462.39 561.66 L 463.44 562.11" fill="none" stroke="black" stroke-width="1"/>
  <path d="M 463.37 562.10 L 463.90 561.87 L 464.67 561.73 L 465.24 561.60 L 465.99 561.42 L 466.71 561.40 L 467.33 561.14 L 467.95 560.98 L 468.67 560.87 L 469.45 560.82 L 470.01 560.59 L 470.65 560.43 L 471.32 560.26 L 471.97 560.01 L 472.60 559.86 L 473.10 559.63 L 473.83 559.37 L 474.52 558.99 L 475.00 558.75 L 475.48 558.38 L 476.11 557.99 L 476.55 557.59 L 477.13 557.06 L 477.58 556.57 L 478.07 555.98 L 478.44 555.28 L 478.96 554.79 L 479.49 554.02 L 479.80 553.50 L 480.16 552.88 L 480.61 552.13 L 480.91 551.48 L 481.40 550.73 L 481.80 550.08 L 482.18 549.31 L 482.63 548.62 L 482.96 547.89 L 483.25 547.16 L 483.76 546.51 L 484.13 545.91 L 484.59 545.19" fill="none" stroke="black" stroke-width="1"/>
  <path d="M 484.47 545.31 L 485.71 544.79 L 487.04 544.50 L 488.41 544.00 L 489.67 543.76 L 491.01 543.40 L 492.33 543.04 L 493.67 542.69 L 495.00 542.34 L 496.34 541.99 L 497.65 541.62 L 499.08 541.13 L 500.26 540.86 L 501.57 540.45 L 502.80 540.03 L 503.90 539.46 L 505.26 539.11 L 506.33 538.67 L 507.60 538.07 L 508.62 537.38 L 509.79 536.88 L 510.94 536.26 L 511.83 535.54 L 512.82 534.79 L 513.73 534.05 L 514.66 533.15 L 515.51 532.44 L 516.42 531.62 L 517.20 530.74 L 517.91 529.76 L 518.83 528.97 L 519.57 528.18 L 520.41 527.17 L 521.31 526.17 L 521.97 525.34 L 522.76 524.55 L 523.55 523.52 L 524.44 522.69 L 525.16 521.74 L 525.94 520.91 L 526.82 520.01" fill="none" stroke="black" stroke-width="1"/>
  <path d="M 526.77 519.79 L 527.67 519.37 L 528.51 519.02 L 529.30 518.58 L 530.33 518.34 L 531.24 517.97 L 532.20 517.71 L 533.14 517.41 L 534.09 517.09 L 535.04 516.89 L 535.95 516.45 L 536.87 515.98 L 537.74 515.74 L 538.58 515.39 L 539.44 514.93 L 540.18 514.56 L 541.00 513.98 L 541.72 513.33 L 542.38 512.85 L 543.07 512.28 L 543.55 511.50 L 544.04 510.59 L 544.48 509.91 L 544.80 508.99 L 545.20 508.09 L 545.42 507.17 L 545.75 506.10 L 545.83 505.11 L 546.15 503.96 L 546.38 502.85 L 546.46 501.73 L 546.54 500.66 L 546.70 499.42 L 546.89 498.22 L 546.92 497.10 L 547.09 495.84 L 547.15 494.78 L 547.22 493.57 L 547.43 492.52 L 547.66 491.31 L 547.80 490.34" fill="none" stroke="black" stroke-width="1"/>
  <path d="M 547.85 490.34 L 547.86 490.71 L 547.90 491.09 L 547.95 491.50 L 548.00 491.91 L 548.06 492.32 L 548.11 492.72 L 548.15 493.10 L 548.16 493.47 L 548.14 493.81 L 548.09 494.11 L 548.00 494.36 L 547.85 494.56 L 547.64 494.71 L 547.39 494.81 L 547.09 494.86 L 546.75 494.88 L 546.39 494.86 L 546.00 494.83 L 545.60 494.78 L 545.19 494.72 L 544.78 494.66 L 544.38 494.61 L 543.99 494.58 L 543.62 494.56" fill="none" stroke="black" stroke-width="1"/>
  <path d="M 546.92 492.67 L 540.03 487.93" fill="none" stroke="black" stroke-width="1"/>
  <path d="M 539.40 486.12 L 539.37 486.48 L 539.30 486.87 L 539.20 487.27 L 539.09 487.68 L 538.97 488.09 L 538.87 488.49 L 538.80 488.88 L 538.78 489.25 L 538.81 489.58 L 538.91 489.88 L 539.11 490.14 L 539.40 490.34 L 539.81 490.49 L 540.32 490.59 L 540.92 490.64 L 541.59 490.65 L 542.32 490.64 L 543.10 490.61 L 543.90 490.56 L 544.72 490.50 L 545.54 490.44 L 546.34 490.39 L 547.12 490.36 L 547.85 490.34" fill="none" stroke="black" stroke-width="1"/>
  <path d="M 547.85 490.25 L 547.35 489.70 L 547.06 488.98 L 546.77 488.46 L 546.35 487.69 L 546.14 487.10 L 545.70 486.37 L 545.45 485.73 L 545.06 485.05 L 544.83 484.36 L 544.39 483.75 L 544.15 483.10 L 543.66 482.46 L 543.35 481.93 L 542.83 481.20 L 542.25 480.70 L 541.86 479.98 L 541.34 479.42 L 540.71 478.83 L 540.12 478.23 L 539.35 477.74 L 538.53 477.35 L 537.74 476.72 L 536.78 476.36 L 535.93 475.78 L 534.93 475.24 L 533.93 474.89 L 532.82 474.41 L 531.79 474.04 L 530.59 473.65 L 529.56 473.23 L 528.50 472.84 L 527.26 472.43 L 526.12 471.98 L 524.93 471.65 L 523.83 471.28 L 522.62 470.86 L 521.38 470.44 L 520.36 470.05 L 519.36 469.72 L 518.19 469.22" fill="none" stroke="black" stroke-width="1"/>
  <path d="M 514.06 473.56 L 509.69 479.77 L 505.52 486.11" fill="none" stroke="black" stroke-width="1"/>
  <path d="M 497.22 477.65 L 501.54 471.28 L 505.69 464.95" fill="none" stroke="black" stroke-width="1"/>
  <path d="M 501.40 465.00 L 502.10 465.37 L 502.80 465.76 L 503.51 466.16 L 504.21 466.57 L 504.91 466.98 L 505.62 467.38 L 506.32 467.77 L 507.03 468.13 L 507.73 468.47 L 508.43 468.77 L 509.14 469.02 L 509.84 469.23 L 510.54 469.37 L 511.25 469.47 L 511.95 469.52 L 512.66 469.54 L 513.36 469.53 L 514.06 469.49 L 514.77 469.44 L 515.47 469.38 L 516.18 469.33 L 516.88 469.28 L 517.58 469.24 L 518.29 469.23" fill="none" stroke="black" stroke-width="1"/>
  <path d="M 518.31 469.22 L 517.36 468.68 L 516.61 468.34 L 515.72 467.79 L 514.91 467.40 L 514.18 466.93 L 513.21 466.43 L 512.24 465.95 L 511.51 465.45 L 510.75 464.98 L 509.81 464.48 L 508.85 464.11 L 508.11 463.56 L 507.30 463.04 L 506.42 462.70 L 505.47 462.43 L 504.72 461.94 L 503.79 461.60 L 503.02 461.30 L 502.19 461.14 L 501.33 460.80 L 500.45 460.61 L 499.64 460.46 L 498.72 460.39 L 497.95 460.27 L 497.18 460.17 L 496.26 460.20 L 495.42 460.33 L 494.58 460.21 L 493.76 460.25 L 492.89 460.30 L 492.15 460.46 L 491.20 460.43 L 490.31 460.51 L 489.52 460.58 L 488.64 460.65 L 487.83 460.72 L 487.04 460.67 L 486.15 460.82 L 485.36 460.94 L 484.46 460.86" fill="none" stroke="black" stroke-width="1"/>
  <path d="M 484.44 460.70 L 479.28 464.96 L 473.93 469.19 L 468.61 473.49 L 463.49 477.60" fill="none" stroke="black" stroke-width="1"/>
  <path d="M 463.38 477.62 L 460.52 471.92 L 457.75 466.35 L 454.88 460.70" fill="none" stroke="black" stroke-width="1"/>
  <path d="M 467.56 452.31 L 470.48 457.89 L 473.22 463.68 L 475.97 469.22" fill="none" stroke="black" stroke-width="1"/>
  <path d="M 476.88 467.60 L 483.54 462.71" fill="none" stroke="black" stroke-width="1"/>
  <path d="M 479.30 463.58 L 472.67 457.99" fill="none" stroke="black" stroke-width="1"/>
  <path d="M 469.44 461.66 L 474.20 468.36" fill="none" stroke="black" stroke-width="1"/>
  <path d="M 474.07 465.52 L 477.93 472.98" fill="none" stroke="black" stroke-width="1"/>
  <path d="M 470.96 470.75 L 464.32 475.85" fill="none" stroke="black" stroke-width="1"/>
  <path d="M 459.19 477.77 L 456.30 472.18 L 453.67 466.52 L 450.83 460.72" fill="none" stroke="black" stroke-width="1"/>
  <path d="M 450.65 460.75 L 450.11 459.71 L 449.70 458.65 L 449.22 457.58 L 448.57 456.55 L 448.01 455.41 L 447.34 454.44 L 446.63 453.39 L 446.08 452.34 L 445.56 451.21 L 444.88 450.24 L 444.30 449.29 L 443.80 448.14 L 443.45 447.07 L 442.92 446.04 L 442.53 444.97 L 442.33 443.93 L 442.14 443.00 L 442.09 441.83 L 442.27 440.78 L 442.28 439.72 L 442.53 438.76 L 442.95 437.60 L 443.41 436.51 L 444.05 435.49 L 444.84 434.43 L 445.51 433.37 L 446.43 432.37 L 447.25 431.25 L 448.24 430.17 L 449.20 429.12 L 450.30 428.13 L 451.26 427.00 L 452.41 425.89 L 453.38 424.88 L 454.46 423.92 L 455.48 422.75 L 456.45 421.76 L 457.47 420.63 L 458.34 419.68 L 459.28 418.51" fill="none" stroke="black" stroke-width="1"/>
  <path d="M 463.49 418.54 L 467.60 424.09 L 471.81 429.70 L 476.16 435.45" fill="none" stroke="black" stroke-width="1"/>
  <path d="M 482.41 422.79 L 480.30 420.68 L 478.19 422.79 L 480.30 424.90 L 482.41 422.79" fill="none" stroke="black" stroke-width="1"/>
  <path d="M 476.12 414.38 L 477.07 415.42 L 477.91 416.49 L 478.88 417.42 L 479.88 418.60 L 481.00 419.74 L 481.95 420.70 L 482.89 421.71 L 484.04 422.81 L 485.07 423.78 L 486.08 424.92 L 486.99 426.06 L 488.00 427.02 L 488.87 428.17 L 489.72 429.13 L 490.48 430.23 L 491.15 431.24 L 491.65 432.35 L 492.24 433.35 L 492.46 434.39 L 492.90 435.47 L 493.07 436.51 L 493.08 437.58 L 493.06 438.72 L 492.83 439.70 L 492.56 440.78 L 492.23 441.82 L 491.71 442.75 L 491.36 443.93 L 490.70 444.95 L 490.28 446.05 L 489.71 447.11 L 489.07 448.18 L 488.50 449.16 L 487.82 450.30 L 487.27 451.37 L 486.59 452.42 L 486.13 453.49 L 485.46 454.54 L 484.96 455.68 L 484.51 456.66" fill="none" stroke="black" stroke-width="1"/>
  <path d="M 484.50 452.34 L 514.06 477.67" fill="none" stroke="black" stroke-width="1"/>
  <path d="M 509.85 481.99 L 505.74 488.30 L 501.43 494.65" fill="none" stroke="black" stroke-width="1"/>
  <path d="M 492.83 490.31 L 493.68 489.66 L 494.58 489.12 L 495.43 488.60 L 496.39 488.05 L 497.32 487.58 L 498.24 487.05 L 499.28 486.48 L 500.09 486.06 L 500.90 485.67 L 501.93 485.04 L 502.72 484.54 L 503.72 483.94 L 504.60 483.37 L 505.44 482.70 L 506.32 481.93 L 507.07 481.27 L 507.86 480.38 L 508.57 479.61 L 509.31 478.59 L 509.93 477.65 L 510.55 476.47 L 511.12 475.38 L 511.67 474.06 L 512.16 472.81 L 512.57 471.30 L 513.08 470.01 L 513.51 468.51 L 513.90 467.02 L 514.26 465.48 L 514.65 463.89 L 514.92 462.16 L 515.36 460.68 L 515.74 459.05 L 516.05 457.43 L 516.41 455.93 L 516.75 454.20 L 517.10 452.67 L 517.48 451.04 L 517.77 449.64 L 518.27 448.00" fill="none" stroke="black" stroke-width="1"/>
  <path d="M 518.19 448.20 L 519.02 446.00 L 519.97 444.05 L 520.83 442.14 L 521.88 440.04 L 522.95 438.19 L 523.86 436.12 L 524.85 434.20 L 525.85 432.22 L 526.70 430.27 L 527.80 428.28 L 528.69 426.16 L 529.68 424.24 L 530.61 422.21 L 531.41 420.02 L 532.19 417.74 L 532.95 415.58 L 533.55 413.17 L 534.26 410.85 L 534.71 408.39 L 535.27 405.76 L 535.72 403.00 L 535.95 400.27 L 536.20 397.38 L 536.34 394.43 L 536.48 391.25 L 536.49 388.29 L 536.38 385.18 L 536.44 381.93 L 536.35 378.69 L 536.26 375.40 L 536.05 372.01 L 536.00 368.76 L 535.83 365.41 L 535.70 362.09 L 535.53 358.83 L 535.41 355.43 L 535.19 352.04 L 535.20 348.86 L 535.12 345.73 L 535.11 342.43" fill="none" stroke="black" stroke-width="1"/>
  <path d="M 535.16 342.52 L 535.51 340.47 L 535.67 338.31 L 535.95 336.33 L 536.30 334.10 L 536.55 332.04 L 536.99 329.89 L 537.34 327.86 L 537.71 325.69 L 537.93 323.68 L 538.39 321.48 L 538.72 319.50 L 538.99 317.27 L 539.20 315.26 L 539.44 313.06 L 539.50 310.85 L 539.71 308.85 L 539.67 306.80 L 539.74 304.63 L 539.64 302.48 L 539.48 300.41 L 539.18 298.29 L 538.89 296.18 L 538.54 294.07 L 538.01 291.95 L 537.43 289.94 L 536.89 287.71 L 536.31 285.55 L 535.58 283.47 L 534.83 281.36 L 534.13 279.23 L 533.39 277.19 L 532.60 274.98 L 531.93 272.82 L 531.03 270.74 L 530.28 268.71 L 529.48 266.49 L 528.82 264.42 L 528.00 262.25 L 527.22 260.02 L 526.64 258.00" fill="none" stroke="black" stroke-width="1"/>
  <path d="M 526.69 258.11 L 526.38 256.31 L 525.87 254.71 L 525.36 253.07 L 525.09 251.29 L 524.61 249.68 L 524.32 247.84 L 524.01 246.18 L 523.56 244.39 L 523.19 242.75 L 522.78 240.95 L 522.30 239.25 L 521.99 237.53 L 521.62 235.71 L 521.16 234.15 L 520.62 232.58 L 520.28 230.81 L 519.77 229.26 L 519.35 227.53 L 518.91 225.98 L 518.34 224.32 L 517.91 222.65 L 517.25 221.19 L 516.68 219.66 L 516.08 218.14 L 515.50 216.71 L 514.86 215.14 L 514.18 213.75 L 513.59 212.19 L 512.82 210.72 L 512.28 209.27 L 511.64 207.73 L 510.95 206.37 L 510.20 204.84 L 509.62 203.49 L 508.88 201.92 L 508.29 200.60 L 507.56 199.05 L 506.97 197.69 L 506.35 196.22 L 505.69 194.75" fill="none" stroke="black" stroke-width="1"/>
  <path d="M 505.63 194.83 L 506.38 194.49 L 506.97 193.96 L 507.69 193.41 L 508.43 193.06 L 509.19 192.60 L 509.96 192.15 L 510.60 191.77 L 511.50 191.23 L 512.34 190.71 L 513.01 190.32 L 513.77 189.75 L 514.44 189.43 L 515.08 188.93 L 515.73 188.57 L 516.32 188.06 L 516.84 187.77 L 517.18 187.29 L 517.71 187.02 L 517.99 186.57 L 518.29 186.35 L 518.51 186.16 L 518.55 185.75 L 518.57 185.49 L 518.52 185.24 L 518.28 184.91 L 518.26 184.78 L 517.95 184.63 L 517.82 184.37 L 517.56 184.12 L 517.23 183.99 L 516.99 183.70 L 516.57 183.64 L 516.12 183.40 L 515.87 183.29 L 515.43 183.00 L 515.18 182.94 L 514.91 182.78 L 514.57 182.57 L 514.36 182.49 L 514.07 182.18" fill="none" stroke="black" stroke-width="1"/>
  <path d="M 514.17 182.17 L 512.22 181.62 L 510.37 181.23 L 508.52 180.79 L 506.60 180.17 L 504.73 179.56 L 502.85 179.04 L 501.03 178.49 L 499.11 177.90 L 497.20 177.31 L 495.35 176.79 L 493.55 176.35 L 491.58 175.77 L 489.76 175.25 L 487.77 174.88 L 485.78 174.53 L 483.92 174.19 L 481.92 173.91 L 480.01 173.73 L 477.93 173.76 L 476.03 173.57 L 473.88 173.70 L 471.97 173.73 L 469.79 173.92 L 467.84 174.19 L 465.66 174.48 L 463.65 174.88 L 461.65 175.25 L 459.42 175.77 L 457.33 176.32 L 455.16 176.79 L 453.12 177.39 L 450.88 177.90 L 448.85 178.53 L 446.59 179.05 L 444.32 179.73 L 442.30 180.17 L 440.20 180.75 L 438.03 181.23 L 435.79 181.62 L 433.78 182.17" fill="none" stroke="black" stroke-width="1"/>
  <path d="M 433.81 182.03 L 433.64 182.26 L 433.31 182.43 L 433.10 182.64 L 432.70 182.80 L 432.25 182.90 L 432.02 183.15 L 431.78 183.37 L 431.32 183.49 L 431.02 183.63 L 430.66 183.85 L 430.25 184.05 L 430.08 184.22 L 429.98 184.37 L 429.64 184.64 L 429.61 184.83 L 429.38 185.10 L 429.39 185.46 L 429.36 185.62 L 429.56 185.93 L 429.62 186.21 L 429.95 186.44 L 430.21 186.89 L 430.61 187.36 L 431.08 187.64 L 431.63 187.94 L 432.19 188.46 L 432.92 188.99 L 433.49 189.32 L 434.13 189.74 L 434.92 190.22 L 435.61 190.57 L 436.43 191.13 L 437.12 191.65 L 437.98 192.06 L 438.73 192.57 L 439.51 192.98 L 440.13 193.43 L 440.98 193.89 L 441.53 194.38 L 442.32 194.77" fill="none" stroke="black" stroke-width="1"/>
  <path d="M 478.22 169.46 L 476.11 171.57 L 474.00 169.46 L 476.11 167.35 L 478.22 169.46" fill="none" stroke="black" stroke-width="1"/>
  <path d="M 461.22 169.37 L 459.11 171.48 L 457.00 169.37 L 459.11 167.26 L 461.22 169.37" fill="none" stroke="black" stroke-width="1"/>
  <path d="M 444.47 173.65 L 442.36 175.76 L 440.25 173.65 L 442.36 171.54 L 444.47 173.65" fill="none" stroke="black" stroke-width="1"/>
  <path d="M 433.86 194.16 L 425.47 195.62" fill="none" stroke="black" stroke-width="1"/>
  <path d="M 416.97 198.99 L 411.25 201.93 L 405.59 204.72 L 399.92 207.44" fill="none" stroke="black" stroke-width="1"/>
  <path d="M 395.51 205.95 L 387.68 208.93" fill="none" stroke="black" stroke-width="1"/>
  <path d="M 399.30 209.63 L 392.11 213.91" fill="none" stroke="black" stroke-width="1"/>
  <path d="M 389.64 212.09 L 385.36 219.46" fill="none" stroke="black" stroke-width="1"/>
  <path d="M 387.32 211.50 L 393.56 207.17 L 400.00 203.09" fill="none" stroke="black" stroke-width="1"/>
  <path d="M 408.81 204.78 L 416.52 201.39" fill="none" stroke="black" stroke-width="1"/>
  <path d="M 416.98 199.85 L 425.38 198.32" fill="none" stroke="black" stroke-width="1"/>
  <path d="M 433.80 190.59 L 431.76 190.99 L 429.63 191.48 L 427.66 191.86 L 425.56 192.46 L 423.60 192.96 L 421.53 193.49 L 419.53 193.96 L 417.51 194.54 L 415.52 195.12 L 413.47 195.55 L 411.39 196.05 L 409.37 196.51 L 407.19 197.00 L 405.17 197.36 L 402.90 197.62 L 400.82 198.08 L 398.55 198.31 L 396.30 198.62 L 393.93 198.82 L 391.57 198.94 L 389.16 199.06 L 386.59 199.02 L 384.00 199.07 L 381.40 198.90 L 378.78 198.80 L 376.03 198.59 L 373.18 198.29 L 370.52 198.15 L 367.80 197.89 L 364.91 197.60 L 362.07 197.35 L 359.23 196.99 L 356.41 196.62 L 353.54 196.36 L 350.68 195.98 L 347.85 195.74 L 344.92 195.53 L 342.21 195.17 L 339.32 194.91 L 336.67 194.69" fill="none" stroke="black" stroke-width="1"/>
  <path d="M 336.77 194.67 L 333.68 194.76 L 330.43 194.75 L 327.17 194.81 L 324.09 194.91 L 320.92 195.09 L 317.75 195.12 L 314.65 195.20 L 311.42 195.35 L 308.33 195.43 L 305.08 195.55 L 301.99 195.57 L 298.74 195.68 L 295.64 195.65 L 292.40 195.72 L 289.13 195.76 L 286.06 195.61 L 282.85 195.52 L 279.72 195.32 L 276.66 195.17 L 273.38 194.81 L 270.30 194.44 L 267.03 194.06 L 263.86 193.52 L 260.69 193.09 L 257.62 192.45 L 254.35 191.94 L 251.17 191.25 L 248.00 190.65 L 244.83 189.87 L 241.66 189.25 L 238.54 188.52 L 235.31 187.79 L 232.18 186.99 L 228.97 186.31 L 225.85 185.66 L 222.62 184.83 L 219.55 184.05 L 216.28 183.41 L 213.09 182.76 L 209.93 182.08" fill="none" stroke="black" stroke-width="1"/>
  <path d="M 209.97 181.99 L 208.59 182.29 L 207.04 182.49 L 205.61 182.89 L 204.13 183.11 L 202.72 183.58 L 201.24 183.80 L 199.77 184.06 L 198.36 184.50 L 196.87 184.83 L 195.47 185.17 L 194.12 185.40 L 192.55 185.76 L 191.21 185.87 L 189.61 186.21 L 188.14 186.44 L 186.61 186.48 L 185.17 186.60 L 183.56 186.51 L 182.03 186.39 L 180.43 186.25 L 178.83 185.99 L 177.22 185.68 L 175.58 185.33 L 173.95 184.81 L 172.38 184.38 L 170.61 183.71 L 168.93 182.96 L 167.22 182.43 L 165.50 181.67 L 163.80 181.01 L 162.17 180.24 L 160.36 179.50 L 158.65 178.61 L 156.91 177.96 L 155.08 177.18 L 153.47 176.44 L 151.75 175.75 L 150.04 174.99 L 148.22 174.21 L 146.64 173.65" fill="none" stroke="black" stroke-width="1"/>
  <path d="M 146.63 173.51 L 145.80 173.36 L 144.90 173.15 L 143.91 172.96 L 143.07 172.87 L 142.02 172.80 L 141.20 172.64 L 140.22 172.48 L 139.31 172.43 L 138.37 172.31 L 137.45 172.19 L 136.45 171.94 L 135.65 171.89 L 134.68 171.70 L 133.95 171.49 L 133.10 171.21 L 132.38 170.94 L 131.63 170.53 L 130.99 170.22 L 130.45 169.71 L 129.81 169.29 L 129.47 168.69 L 128.87 168.11 L 128.47 167.52 L 128.14 166.72 L 127.98 166.05 L 127.59 165.15 L 127.31 164.35 L 127.17 163.44 L 127.00 162.55 L 126.85 161.63 L 126.84 160.62 L 126.59 159.76 L 126.40 158.84 L 126.36 157.86 L 126.33 157.02 L 126.11 155.97 L 125.99 155.03 L 125.82 154.13 L 125.54 153.31 L 125.43 152.39" fill="none" stroke="black" stroke-width="1"/>
  <path d="M 167.71 80.62 L 164.43 81.56 L 161.38 82.42 L 158.16 83.40 L 155.04 84.40 L 151.97 85.43 L 148.70 86.48 L 145.59 87.48 L 142.37 88.58 L 139.21 89.53 L 136.03 90.64 L 132.77 91.51 L 129.69 92.57 L 126.58 93.38 L 123.36 94.29 L 120.08 95.06 L 117.03 95.74 L 113.92 96.36 L 110.69 96.83 L 107.43 97.29 L 104.36 97.50 L 101.33 97.57 L 98.04 97.68 L 94.94 97.49 L 91.71 97.43 L 88.51 97.01 L 85.39 96.82 L 82.27 96.33 L 79.07 95.94 L 75.92 95.46 L 72.75 94.85 L 69.66 94.22 L 66.43 93.64 L 63.22 93.06 L 60.11 92.38 L 56.94 91.85 L 53.80 91.14 L 50.73 90.60 L 47.48 90.01 L 44.28 89.51 L 41.16 89.05" fill="none" stroke="black" stroke-width="1"/>
  <path d="M 20.00 110.31 L 26.43 110.18 L 32.60 110.00 L 38.99 109.80 L 45.28 109.62 L 51.57 109.24 L 57.98 109.14 L 64.37 108.84 L 70.58 108.64 L 76.97 108.40 L 83.21 108.13 L 89.67 107.87 L 95.95 107.63 L 102.35 107.33 L 108.65 107.18 L 114.94 106.91 L 121.21 106.77 L 127.67 106.45 L 133.93 106.29 L 140.18 106.21 L 146.59 106.08 L 152.92 105.84 L 159.37 105.83 L 165.65 105.60 L 171.92 105.63 L 178.18 105.72 L 184.50 105.77 L 190.91 105.70 L 197.27 105.83 L 203.64 106.09 L 209.92 106.14 L 216.29 106.54 L 222.62 106.66 L 228.92 106.97 L 235.25 107.48 L 241.64 107.67 L 247.93 108.17 L 254.33 108.61 L 260.50 109.12 L 266.95 109.65 L 273.33 110.26 L 279.62 110.91 L 285.96 111.37 L 292.20 111.95 L 298.72 112.53 L 304.98 113.26 L 311.25 113.95 L 317.55 114.54 L 324.00 115.25 L 330.43 116.05 L 336.60 116.69 L 343.02 117.28 L 349.33 117.87 L 355.67 118.71 L 362.04 119.30 L 368.29 119.89 L 374.83 120.65 L 381.06 121.22 L 387.41 121.71 L 393.71 122.30 L 400.07 123.01" fill="none" stroke="black" stroke-width="1"/>
  <path d="M 378.89 76.42 L 376.08 75.52 L 373.40 74.62 L 370.68 73.67 L 367.87 72.64 L 365.12 71.60 L 362.33 70.55 L 359.52 69.52 L 356.79 68.45 L 353.96 67.35 L 351.25 66.39 L 348.49 65.34 L 345.74 64.46 L 343.03 63.49 L 340.25 62.73 L 337.47 62.00 L 334.82 61.28 L 332.16 60.85 L 329.44 60.19 L 326.88 59.73 L 324.12 59.53 L 321.61 59.45 L 318.89 59.35 L 316.23 59.37 L 313.73 59.61 L 311.07 59.81 L 308.62 60.22 L 306.01 60.58 L 303.56 61.11 L 301.02 61.68 L 298.54 62.21 L 296.03 62.82 L 293.53 63.43 L 291.08 64.09 L 288.53 64.71 L 285.97 65.24 L 283.53 65.95 L 281.02 66.41 L 278.51 67.10 L 275.93 67.59 L 273.46 68.07" fill="none" stroke="black" stroke-width="1"/>
  <path d="M 285.90 139.82 L 287.68 133.00 L 289.42 126.22 L 290.94 119.52 L 292.68 112.66 L 294.39 106.03" fill="none" stroke="black" stroke-width="1"/>
  <path d="M 294.43 105.95 L 295.79 113.05 L 297.25 120.02 L 298.60 127.10 L 299.90 134.20 L 301.42 141.35 L 302.81 148.30" fill="none" stroke="black" stroke-width="1"/>
  <path d="M 400.07 123.04 L 406.34 123.53 L 412.64 124.27 L 419.08 124.82 L 425.37 125.58 L 431.68 126.21 L 438.09 126.78 L 444.32 127.43 L 450.74 128.03 L 457.11 128.83 L 463.43 129.50 L 469.72 130.17 L 476.12 130.92 L 482.38 131.64 L 488.81 132.16 L 495.13 132.95 L 501.41 133.63 L 507.70 134.24 L 514.14 134.86 L 520.49 135.38 L 526.88 135.87 L 533.15 136.56 L 539.38 136.94 L 545.87 137.42 L 552.15 137.99 L 558.47 138.39 L 564.94 138.64 L 571.16 139.07 L 577.59 139.41 L 583.85 139.52 L 590.15 139.72 L 596.39 139.89 L 602.74 139.73 L 609.15 139.90 L 615.56 139.78 L 621.89 139.82 L 628.14 139.64 L 634.55 139.41 L 640.67 139.18 L 647.13 139.04 L 653.43 138.69 L 659.68 138.41 L 666.11 138.16 L 672.35 137.73 L 678.69 137.49 L 685.09 137.08 L 691.46 136.78 L 697.75 136.37 L 704.07 135.87 L 710.29 135.52 L 716.84 134.93 L 723.05 134.61 L 729.46 134.28 L 735.72 133.89 L 742.03 133.38 L 748.46 132.94 L 754.61 132.68 L 761.02 132.24 L 767.36 131.99 L 773.78 131.61 L 780.00 131.29" fill="none" stroke="black" stroke-width="1"/>
  <path d="M 737.78 152.55 L 737.34 156.11 L 737.10 159.90 L 736.86 163.70 L 736.65 167.52 L 736.44 171.52 L 736.33 175.30 L 736.19 179.25 L 736.05 183.11 L 735.76 187.02 L 735.71 190.85 L 735.37 194.57 L 735.19 198.39 L 734.92 202.01 L 734.40 205.63 L 733.95 209.02 L 733.25 212.46 L 732.53 215.50 L 731.62 218.75 L 730.64 221.62 L 729.41 224.39 L 727.90 226.77 L 726.57 229.31 L 724.78 231.46 L 723.15 233.58 L 721.27 235.33 L 719.25 237.32 L 717.04 238.92 L 714.99 240.64 L 712.68 242.05 L 710.46 243.65 L 707.99 245.03 L 705.75 246.48 L 703.38 247.93 L 700.98 249.23 L 698.73 250.63 L 696.25 252.01 L 694.01 253.54 L 691.65 254.95 L 689.51 256.53 L 687.28 258.16" fill="none" stroke="black" stroke-width="1"/>
  <path d="M 687.32 258.06 L 684.04 258.61 L 680.52 259.03 L 677.02 259.50 L 673.65 260.17 L 670.14 260.82 L 666.76 261.42 L 663.30 261.99 L 659.85 262.70 L 656.52 263.40 L 652.96 263.92 L 649.66 264.48 L 646.12 265.01 L 642.74 265.58 L 639.34 265.90 L 636.10 266.24 L 632.66 266.51 L 629.26 266.54 L 626.09 266.76 L 622.95 266.76 L 619.68 266.58 L 616.49 266.36 L 613.42 265.91 L 610.45 265.33 L 607.31 264.81 L 604.41 264.07 L 601.32 263.35 L 598.41 262.38 L 595.42 261.61 L 592.59 260.68 L 589.59 259.66 L 586.72 258.57 L 583.80 257.59 L 580.90 256.45 L 578.03 255.46 L 575.13 254.34 L 572.25 253.36 L 569.43 252.36 L 566.44 251.37 L 563.38 250.56 L 560.57 249.55" fill="none" stroke="black" stroke-width="1"/>
  <path d="M 560.40 249.70 L 558.25 247.02 L 556.04 244.25 L 553.78 241.57 L 551.48 238.86 L 549.25 236.08 L 546.80 233.50 L 544.37 230.93 L 542.09 228.15 L 539.69 225.57 L 537.44 222.78 L 535.07 220.19 L 532.94 217.37 L 530.75 214.59 L 528.67 211.89 L 526.69 209.08 L 524.74 206.32 L 522.95 203.51 L 521.21 200.63 L 519.81 197.61 L 518.19 194.79 L 516.93 191.90 L 515.73 188.79 L 514.71 185.81 L 513.77 182.64 L 513.09 179.45 L 512.23 176.38 L 511.58 173.29 L 511.01 170.02 L 510.55 166.78 L 510.03 163.59 L 509.59 160.24 L 509.20 157.12 L 508.88 153.85 L 508.42 150.64 L 508.15 147.34 L 507.62 144.16 L 507.25 140.89 L 506.70 137.71 L 506.16 134.64 L 505.57 131.33" fill="none" stroke="black" stroke-width="1"/>
  <path d="M 526.64 122.84 L 528.83 129.94 L 530.83 137.01 L 532.89 143.86 L 535.17 151.07 L 537.21 157.92 L 539.38 165.05" fill="none" stroke="black" stroke-width="1"/>
  <path d="M 547.77 173.54 L 548.25 175.29 L 548.97 177.00 L 549.61 178.75 L 550.04 180.57 L 550.61 182.44 L 551.06 184.21 L 551.50 185.92 L 552.05 187.87 L 552.66 189.63 L 553.08 191.49 L 553.75 193.24 L 554.19 195.03 L 554.92 196.85 L 555.44 198.43 L 556.22 200.11 L 556.87 201.65 L 557.59 203.19 L 558.54 204.63 L 559.59 206.03 L 560.50 207.33 L 561.61 208.59 L 562.77 209.71 L 564.07 210.67 L 565.34 211.80 L 566.70 212.75 L 568.13 213.65 L 569.74 214.49 L 571.12 215.32 L 572.64 216.21 L 574.23 216.86 L 575.91 217.58 L 577.44 218.31 L 579.03 218.94 L 580.67 219.72 L 582.37 220.41 L 583.89 221.16 L 585.44 221.96 L 587.04 222.66 L 588.64 223.41 L 590.07 224.28" fill="none" stroke="black" stroke-width="1"/>
  <path d="M 589.99 224.39 L 592.75 223.97 L 595.61 223.65 L 598.54 223.28 L 601.41 223.09 L 604.27 222.84 L 607.32 222.63 L 610.28 222.36 L 613.25 222.19 L 616.16 222.04 L 619.13 221.71 L 621.97 221.38 L 624.88 221.10 L 627.54 220.75 L 630.43 220.28 L 633.16 219.62 L 635.69 219.19 L 638.07 218.44 L 640.59 217.74 L 642.86 216.89 L 645.06 215.87 L 646.98 214.62 L 649.04 213.51 L 650.88 212.23 L 652.59 210.73 L 654.28 209.20 L 655.77 207.59 L 657.20 206.00 L 658.67 204.18 L 660.07 202.34 L 661.37 200.56 L 662.77 198.75 L 663.94 196.81 L 665.27 195.00 L 666.46 193.02 L 667.79 191.16 L 669.00 189.25 L 670.31 187.50 L 671.65 185.58 L 673.00 183.75 L 674.47 182.09" fill="none" stroke="black" stroke-width="1"/>
  <path d="M 674.59 181.96 L 674.10 180.52 L 673.48 178.94 L 673.18 177.46 L 672.64 175.80 L 672.31 174.12 L 671.94 172.59 L 671.55 171.05 L 671.29 169.36 L 670.98 167.79 L 670.55 166.17 L 670.12 164.69 L 669.63 163.06 L 668.99 161.60 L 668.41 160.09 L 667.54 158.62 L 666.76 157.31 L 665.78 156.01 L 664.59 154.76 L 663.29 153.54 L 661.78 152.49 L 659.96 151.40 L 658.24 150.55 L 656.26 149.73 L 654.07 148.90 L 651.61 148.09 L 649.36 147.48 L 646.73 146.96 L 644.24 146.24 L 641.64 145.63 L 638.81 145.15 L 635.91 144.57 L 633.19 144.13 L 630.33 143.55 L 627.50 143.15 L 624.63 142.65 L 621.85 142.15 L 619.21 141.56 L 616.34 141.09 L 613.68 140.58 L 611.11 139.91" fill="none" stroke="black" stroke-width="1"/>
  <path d="M 611.19 139.86 L 609.07 139.78 L 606.89 139.72 L 604.64 139.64 L 602.44 139.34 L 600.16 139.01 L 597.90 138.82 L 595.64 138.50 L 593.34 138.27 L 590.96 138.04 L 588.83 137.79 L 586.59 137.59 L 584.42 137.48 L 582.25 137.57 L 580.17 137.44 L 578.13 137.69 L 576.16 137.76 L 574.23 138.28 L 572.44 138.56 L 570.86 139.16 L 569.07 139.93 L 567.57 141.05 L 566.10 141.94 L 564.92 143.31 L 563.49 144.53 L 562.21 146.11 L 561.17 147.59 L 560.16 149.32 L 559.08 151.01 L 558.03 152.85 L 557.16 154.71 L 556.27 156.60 L 555.34 158.57 L 554.35 160.56 L 553.56 162.51 L 552.79 164.54 L 551.77 166.40 L 550.72 168.35 L 549.89 170.17 L 548.94 172.01 L 547.86 173.70" fill="none" stroke="black" stroke-width="1"/>
  <path d="M 518.36 156.83 L 519.91 149.98 L 521.79 143.32 L 523.48 136.56 L 525.00 129.71 L 526.69 122.92" fill="none" stroke="black" stroke-width="1"/>
  <path d="M 695.62 139.89 L 696.96 147.64 L 698.09 155.53 L 699.24 163.36 L 700.53 171.08 L 701.77 179.08 L 702.91 186.86 L 704.16 194.63" fill="none" stroke="black" stroke-width="1"/>
  <path d="M 687.11 182.18 L 688.48 175.23 L 689.94 168.04 L 691.41 160.89 L 692.79 153.80 L 694.35 146.76 L 695.70 139.80" fill="none" stroke="black" stroke-width="1"/>
  <path d="M 695.72 139.79 L 699.95 146.47 L 704.26 153.33 L 708.22 160.10 L 712.46 166.91 L 716.75 173.59" fill="none" stroke="black" stroke-width="1"/>
</svg>