<svg xmlns="http://www.w3.org/2000/svg" width="800" height="600" viewBox="0 0 800 600">
  <rect width="100%" height="100%" fill="white"/>
  <path d="M 68.01 175.23 L 70.47 168.71 L 72.80 162.38 L 75.12 156.03 L 77.52 149.62 L 79.87 143.19" fill="none" stroke="black" stroke-width="1"/>
  <path d="M 80.02 143.17 L 81.44 150.38 L 82.73 157.92 L 84.01 165.20 L 85.48 172.49 L 86.62 179.82 L 88.09 187.09" fill="none" stroke="black" stroke-width="1"/>
  <path d="M 99.95 171.20 L 95.90 165.62 L 92.07 159.82 L 87.96 154.26 L 83.91 148.77 L 80.04 143.02" fill="none" stroke="black" stroke-width="1"/>
  <path d="M 68.08 94.69 L 75.95 95.63" fill="none" stroke="black" stroke-width="1"/>
  <path d="M 87.88 87.24 L 87.88 86.83 L 87.86 86.42 L 87.80 86.05 L 87.82 85.57 L 87.89 85.23 L 87.76 84.70 L 87.76 84.26 L 87.70 83.84 L 87.61 83.33 L 87.64 82.97 L 87.67 82.58 L 87.61 82.13 L 87.56 81.64 L 87.60 81.32 L 87.74 80.93 L 87.64 80.56 L 87.72 80.19 L 87.74 79.85 L 87.90 79.58 L 87.90 79.21 L 88.13 78.94 L 88.14 78.64 L 88.32 78.41 L 88.44 78.14 L 88.68 77.98 L 88.80 77.70 L 89.12 77.60 L 89.20 77.30 L 89.33 77.07 L 89.64 76.93 L 89.93 76.76 L 90.10 76.59 L 90.30 76.34 L 90.56 76.25 L 90.87 76.08 L 91.02 75.90 L 91.21 75.79 L 91.46 75.55 L 91.67 75.28 L 91.88 75.16" fill="none" stroke="black" stroke-width="1"/>
  <path d="M 91.97 75.08 L 92.46 75.28 L 92.81 75.47 L 93.20 75.69 L 93.74 75.87 L 94.16 76.12 L 94.71 76.26 L 95.09 76.53 L 95.70 76.66 L 96.12 76.91 L 96.66 77.06 L 97.00 77.17 L 97.57 77.45 L 97.93 77.60 L 98.37 77.85 L 98.81 78.01 L 99.05 78.25 L 99.27 78.43 L 99.57 78.65 L 99.84 78.93 L 99.88 79.05 L 99.95 79.26 L 99.97 79.45 L 99.89 79.69 L 99.85 79.86 L 99.74 80.09 L 99.57 80.27 L 99.40 80.43 L 99.16 80.68 L 98.80 80.94 L 98.66 81.09 L 98.35 81.33 L 98.10 81.50 L 97.92 81.62 L 97.51 81.91 L 97.12 82.11 L 96.94 82.32 L 96.74 82.48 L 96.41 82.73 L 96.13 83.01 L 95.96 83.14" fill="none" stroke="black" stroke-width="1"/>
  <path d="M 95.93 83.12 L 95.84 83.33 L 95.97 83.54 L 95.92 83.67 L 96.07 83.98 L 96.02 84.23 L 96.19 84.44 L 96.24 84.69 L 96.33 84.90 L 96.41 85.19 L 96.45 85.36 L 96.41 85.48 L 96.53 85.79 L 96.57 85.99 L 96.55 86.19 L 96.45 86.37 L 96.47 86.55 L 96.47 86.80 L 96.29 86.86 L 96.12 86.88 L 95.97 87.10 L 95.71 87.10 L 95.50 87.26 L 95.27 87.36 L 94.89 87.35 L 94.56 87.41 L 94.17 87.39 L 93.86 87.37 L 93.36 87.39 L 92.88 87.44 L 92.49 87.35 L 92.14 87.43 L 91.57 87.30 L 91.08 87.23 L 90.65 87.23 L 90.19 87.17 L 89.73 87.17 L 89.31 87.22 L 88.84 87.13 L 88.47 87.01 L 88.00 87.11" fill="none" stroke="black" stroke-width="1"/>
  <path d="M 59.98 67.12 L 31.98 83.12" fill="none" stroke="black" stroke-width="1"/>
  <path d="M 43.93 106.63 L 51.96 107.51" fill="none" stroke="black" stroke-width="1"/>
  <path d="M 60.04 115.01 L 63.00 115.45 L 66.03 115.92 L 69.11 116.49 L 72.01 117.00 L 74.99 117.67 L 78.00 118.17 L 80.94 118.82 L 83.98 119.36 L 87.03 119.92 L 89.97 120.51 L 92.97 121.09 L 95.95 121.54 L 98.98 121.91 L 101.94 122.38 L 104.89 122.56 L 107.93 122.95 L 110.98 123.01 L 113.92 123.19 L 117.03 123.08 L 119.91 123.01 L 122.81 122.82 L 125.90 122.39 L 128.96 121.94 L 131.90 121.35 L 134.79 120.70 L 137.90 119.98 L 140.95 119.12 L 143.90 118.35 L 146.81 117.34 L 149.90 116.52 L 152.91 115.47 L 155.90 114.57 L 158.95 113.52 L 161.90 112.58 L 164.99 111.58 L 167.90 110.61 L 170.86 109.67 L 173.90 108.73 L 176.79 107.92 L 179.90 107.03" fill="none" stroke="black" stroke-width="1"/>
  <path d="M 195.82 91.57 L 188.02 90.58" fill="none" stroke="black" stroke-width="1"/>
  <path d="M 228.15 91.95 L 235.96 89.77" fill="none" stroke="black" stroke-width="1"/>
  <path d="M 224.34 96.86 L 231.39 101.11" fill="none" stroke="black" stroke-width="1"/>
  <path d="M 233.49 98.07 L 238.84 91.76" fill="none" stroke="black" stroke-width="1"/>
  <path d="M 247.88 95.01 L 246.99 95.58 L 246.27 96.30 L 245.55 96.89 L 244.62 97.71 L 243.68 98.50 L 242.96 99.18 L 242.15 100.00 L 241.29 100.66 L 240.56 101.30 L 239.63 102.12 L 238.71 102.87 L 237.99 103.49 L 237.09 104.14 L 236.39 104.73 L 235.57 105.25 L 234.83 105.79 L 234.09 106.22 L 233.32 106.62 L 232.50 106.82 L 231.89 107.18 L 231.15 107.20 L 230.53 107.42 L 229.97 107.48 L 229.25 107.39 L 228.70 107.24 L 228.02 107.13 L 227.46 106.94 L 226.83 106.70 L 226.18 106.36 L 225.68 106.13 L 225.23 105.80 L 224.55 105.48 L 224.11 105.20 L 223.43 104.79 L 222.85 104.51 L 222.30 104.13 L 221.68 103.83 L 221.16 103.53 L 220.53 103.20 L 219.99 103.04" fill="none" stroke="black" stroke-width="1"/>
  <path d="M 219.93 103.03 L 219.96 102.35 L 219.88 101.82 L 219.92 101.09 L 219.74 100.59 L 219.53 99.95 L 219.55 99.34 L 219.41 98.65 L 219.35 98.08 L 219.27 97.54 L 219.18 96.84 L 219.21 96.15 L 219.06 95.61 L 219.13 95.11 L 219.05 94.41 L 219.11 93.84 L 219.16 93.26 L 219.24 92.72 L 219.45 92.16 L 219.67 91.73 L 219.93 91.13 L 220.19 90.54 L 220.65 90.17 L 221.11 89.61 L 221.57 89.28 L 222.09 88.89 L 222.67 88.44 L 223.21 88.05 L 223.89 87.64 L 224.50 87.21 L 225.21 86.88 L 225.90 86.45 L 226.59 86.13 L 227.22 85.80 L 227.99 85.39 L 228.76 84.94 L 229.39 84.65 L 230.08 84.25 L 230.73 83.90 L 231.31 83.44 L 231.99 83.11" fill="none" stroke="black" stroke-width="1"/>
  <path d="M 231.92 83.06 L 232.46 83.33 L 233.16 83.45 L 233.81 83.68 L 234.45 83.81 L 235.20 84.05 L 235.78 84.15 L 236.33 84.25 L 237.12 84.49 L 237.88 84.75 L 238.44 84.84 L 238.97 85.08 L 239.71 85.21 L 240.41 85.53 L 240.93 85.61 L 241.40 85.79 L 242.05 86.05 L 242.58 86.22 L 243.06 86.55 L 243.44 86.91 L 243.94 87.12 L 244.29 87.38 L 244.66 87.77 L 244.96 88.19 L 245.24 88.48 L 245.39 88.81 L 245.71 89.25 L 245.78 89.69 L 246.09 90.06 L 246.17 90.49 L 246.40 90.90 L 246.56 91.44 L 246.68 91.77 L 246.79 92.12 L 246.94 92.64 L 246.99 93.02 L 247.20 93.51 L 247.42 93.96 L 247.50 94.36 L 247.69 94.77 L 247.86 95.18" fill="none" stroke="black" stroke-width="1"/>
  <path d="M 247.96 135.12 L 250.63 136.17 L 253.30 137.30 L 255.96 138.49 L 258.63 139.71 L 261.30 140.93 L 263.96 142.12 L 266.63 143.25 L 269.30 144.30 L 271.96 145.24 L 274.63 146.04 L 277.29 146.68 L 279.96 147.12 L 282.63 147.34 L 285.29 147.38 L 287.96 147.24 L 290.63 146.97 L 293.29 146.58 L 295.96 146.12 L 298.63 145.59 L 301.29 145.04 L 303.96 144.49 L 306.63 143.97 L 309.29 143.50 L 311.96 143.12" fill="none" stroke="black" stroke-width="1"/>
  <path d="M 291.85 163.10 L 293.53 156.64 L 295.18 150.22 L 296.62 143.87 L 298.26 137.38 L 299.88 131.09" fill="none" stroke="black" stroke-width="1"/>
  <path d="M 299.92 131.02 L 301.21 137.75 L 302.60 144.35 L 303.87 151.05 L 305.10 157.78 L 306.54 164.55 L 307.86 171.13" fill="none" stroke="black" stroke-width="1"/>
  <path d="M 299.96 167.11 L 311.96 155.12" fill="none" stroke="black" stroke-width="1"/>
  <path d="M 311.96 155.12 L 323.96 163.11" fill="none" stroke="black" stroke-width="1"/>
  <path d="M 335.97 114.27 L 343.83 116.32" fill="none" stroke="black" stroke-width="1"/>
  <path d="M 351.97 83.14 L 352.19 83.25 L 352.36 83.59 L 352.47 83.92 L 352.72 84.12 L 352.88 84.45 L 353.06 84.70 L 353.23 85.00 L 353.39 85.29 L 353.58 85.59 L 353.74 85.85 L 353.91 86.01 L 354.10 86.36 L 354.38 86.50 L 354.50 86.77 L 354.80 86.83 L 354.94 87.05 L 355.10 87.19 L 355.44 87.16 L 355.72 87.10 L 356.00 87.07 L 356.35 86.92 L 356.63 86.75 L 357.06 86.60 L 357.34 86.23 L 357.81 85.79 L 358.09 85.53 L 358.38 85.15 L 358.90 84.71 L 359.43 84.31 L 359.73 83.79 L 360.14 83.40 L 360.58 82.81 L 361.05 82.21 L 361.44 81.81 L 361.95 81.38 L 362.30 80.82 L 362.65 80.42 L 363.14 79.88 L 363.52 79.52 L 363.95 79.02" fill="none" stroke="black" stroke-width="1"/>
  <path d="M 371.71 100.25 L 364.03 97.91" fill="none" stroke="black" stroke-width="1"/>
  <path d="M 379.92 103.06 L 377.25 102.20 L 374.71 101.35 L 372.14 100.45 L 369.48 99.47 L 366.87 98.49 L 364.23 97.50 L 361.57 96.52 L 358.98 95.50 L 356.30 94.47 L 353.74 93.55 L 351.13 92.56 L 348.51 91.72 L 345.95 90.81 L 343.32 90.09 L 340.68 89.40 L 338.17 88.71 L 335.66 88.31 L 333.08 87.68 L 330.66 87.25 L 328.05 87.06 L 325.67 86.98 L 323.09 86.89 L 320.57 86.90 L 318.20 87.13 L 315.68 87.32 L 313.36 87.71 L 310.89 88.05 L 308.57 88.56 L 306.16 89.09 L 303.81 89.59 L 301.44 90.17 L 299.07 90.75 L 296.75 91.38 L 294.33 91.96 L 291.91 92.47 L 289.60 93.14 L 287.22 93.57 L 284.84 94.23 L 282.40 94.69 L 280.06 95.14" fill="none" stroke="black" stroke-width="1"/>
  <path d="M 271.88 111.15 L 269.76 111.89 L 267.84 112.42 L 265.90 113.15 L 263.76 113.81 L 261.66 114.63 L 259.63 115.25 L 257.51 115.92 L 255.51 116.72 L 253.41 117.46 L 251.39 118.15 L 249.35 118.74 L 247.32 119.50 L 245.36 120.15 L 243.31 120.72 L 241.36 121.18 L 239.39 121.77 L 237.41 122.07 L 235.58 122.59 L 233.71 122.80 L 231.90 123.14 L 230.14 123.17 L 228.38 123.39 L 226.72 123.38 L 224.99 123.37 L 223.35 123.35 L 221.72 123.12 L 220.12 122.91 L 218.53 122.70 L 216.87 122.48 L 215.40 122.16 L 213.87 121.76 L 212.32 121.53 L 210.73 121.17 L 209.25 120.87 L 207.72 120.52 L 206.17 120.22 L 204.67 120.01 L 203.06 119.64 L 201.48 119.39 L 199.89 119.17" fill="none" stroke="black" stroke-width="1"/>
  <path d="M 179.97 155.12 L 177.62 154.79 L 175.26 154.50 L 172.88 154.21 L 170.49 153.93 L 168.10 153.65 L 165.72 153.37 L 163.36 153.07 L 161.01 152.75 L 158.69 152.40 L 156.41 152.01 L 154.17 151.59 L 151.97 151.12 L 149.83 150.59 L 147.74 150.01 L 145.69 149.40 L 143.68 148.75 L 141.69 148.07 L 139.72 147.37 L 137.77 146.65 L 135.83 145.93 L 133.88 145.21 L 131.93 144.50 L 129.96 143.80 L 127.98 143.12" fill="none" stroke="black" stroke-width="1"/>
  <path d="M 120.07 135.21 L 119.64 136.29 L 119.10 137.19 L 118.52 138.28 L 117.87 139.17 L 117.07 140.04 L 116.50 141.15 L 115.75 142.09 L 115.09 143.12 L 114.40 144.04 L 113.75 145.10 L 113.12 145.99 L 112.60 147.08 L 112.26 148.06 L 111.74 149.06 L 111.45 150.11 L 111.27 151.04 L 111.39 152.01 L 111.31 153.02 L 111.57 154.10 L 111.97 155.01 L 112.59 155.91 L 113.31 157.00 L 114.34 158.08 L 115.27 159.00 L 116.53 159.91 L 117.74 161.00 L 119.27 161.93 L 120.60 163.00 L 122.23 164.10 L 123.76 165.00 L 125.32 166.08 L 127.09 167.00 L 128.90 167.96 L 130.50 169.00 L 132.08 169.97 L 133.87 171.01 L 135.40 172.03 L 137.10 173.01 L 138.47 173.91 L 140.07 175.01" fill="none" stroke="black" stroke-width="1"/>
  <path d="M 140.06 175.01 L 139.41 174.34 L 138.82 173.89 L 138.20 173.30 L 137.55 172.88 L 136.85 172.35 L 136.27 171.94 L 135.62 171.57 L 134.98 171.01 L 134.33 170.51 L 133.69 170.05 L 133.12 169.61 L 132.43 169.01 L 131.89 168.37 L 131.21 167.84 L 130.58 167.16 L 130.03 166.50 L 129.37 165.70 L 128.91 164.93 L 128.47 163.90 L 127.86 163.09 L 127.45 162.01 L 126.90 160.95 L 126.53 159.78 L 126.01 158.53 L 125.54 157.22 L 125.18 155.89 L 124.83 154.55 L 124.39 153.07 L 124.04 151.56 L 123.65 150.13 L 123.18 148.68 L 122.92 147.10 L 122.58 145.64 L 122.20 144.04 L 121.89 142.46 L 121.47 141.00 L 121.13 139.45 L 120.73 138.02 L 120.28 136.59 L 119.96 135.16" fill="none" stroke="black" stroke-width="1"/>
  <path d="M 119.90 135.23 L 122.95 134.08 L 125.90 133.09 L 128.87 131.94 L 131.90 130.75 L 134.91 129.54 L 137.89 128.30 L 140.95 127.05 L 143.89 125.82 L 146.94 124.50 L 149.89 123.40 L 152.83 122.31 L 155.89 121.11 L 158.94 120.15 L 161.89 119.06 L 164.79 118.27 L 167.89 117.31 L 171.00 116.61 L 173.89 115.96 L 176.94 115.43 L 179.90 115.09 L 182.83 114.88 L 185.90 114.75 L 188.90 114.83 L 191.91 114.89 L 194.96 115.09 L 197.93 115.43 L 201.04 115.89 L 203.94 116.27 L 207.04 116.89 L 209.95 117.34 L 212.95 117.92 L 215.97 118.56 L 219.03 119.22 L 221.99 119.83 L 224.89 120.52 L 228.00 121.07 L 231.01 121.56 L 234.02 122.19 L 237.13 122.71 L 240.03 123.13" fill="none" stroke="black" stroke-width="1"/>
  <path d="M 240.08 123.14 L 243.08 122.99 L 246.07 123.07 L 249.04 123.01 L 252.05 122.92 L 255.03 122.77 L 258.03 122.72 L 261.06 122.66 L 264.01 122.51 L 266.94 122.33 L 270.00 122.32 L 272.95 122.19 L 275.98 122.19 L 279.05 122.08 L 281.96 122.16 L 284.89 122.25 L 287.95 122.26 L 291.01 122.41 L 293.94 122.54 L 296.97 122.76 L 299.94 123.02 L 302.95 123.40 L 305.94 123.73 L 308.97 124.14 L 311.94 124.65 L 314.91 125.23 L 317.94 125.74 L 320.83 126.42 L 323.95 126.97 L 327.06 127.73 L 329.96 128.30 L 333.00 128.98 L 335.97 129.68 L 339.04 130.45 L 341.98 131.09 L 344.93 131.76 L 347.99 132.49 L 350.90 133.24 L 354.00 133.84 L 356.96 134.38 L 360.01 135.10" fill="none" stroke="black" stroke-width="1"/>
  <path d="M 359.89 135.06 L 363.87 136.52 L 367.99 137.85 L 372.04 139.19 L 376.23 140.61 L 380.34 142.01 L 384.55 143.36 L 388.60 144.72 L 392.89 146.10 L 397.04 147.57 L 401.19 148.86 L 405.26 150.27 L 409.38 151.63 L 413.46 153.03 L 417.42 154.43 L 421.32 155.90 L 425.24 157.28 L 429.04 158.74 L 432.77 160.18 L 436.32 161.65 L 439.96 163.15 L 443.33 164.79 L 446.76 166.20 L 450.01 167.65 L 453.22 169.31 L 456.27 170.79 L 459.40 172.48 L 462.41 174.09 L 465.36 175.69 L 468.22 177.24 L 471.16 178.93 L 473.98 180.48 L 476.85 182.19 L 479.77 183.76 L 482.51 185.46 L 485.27 187.09 L 488.18 188.73 L 490.98 190.25 L 493.94 191.98 L 496.99 193.52 L 499.83 195.21" fill="none" stroke="black" stroke-width="1"/>
  <path d="M 505.98 195.14 L 503.98 193.14 L 501.98 195.14 L 503.98 197.14 L 505.98 195.14" fill="none" stroke="black" stroke-width="1"/>
  <path d="M 511.88 187.15 L 517.23 192.53 L 522.63 197.76 L 528.02 203.17" fill="none" stroke="black" stroke-width="1"/>
  <path d="M 530.25 206.46 L 525.60 199.94" fill="none" stroke="black" stroke-width="1"/>
  <path d="M 487.87 235.12 L 488.47 236.13 L 489.14 237.09 L 489.89 238.10 L 490.50 239.01 L 491.22 240.01 L 491.91 240.89 L 492.54 241.82 L 493.33 242.77 L 493.99 243.83 L 494.73 244.67 L 495.50 245.74 L 496.06 246.60 L 496.64 247.49 L 497.30 248.59 L 497.86 249.72 L 498.40 250.68 L 498.75 251.68 L 499.32 252.87 L 499.61 253.91 L 500.04 255.19 L 500.19 256.35 L 500.52 257.67 L 500.72 258.87 L 500.80 260.28 L 500.92 261.58 L 500.90 262.99 L 500.96 264.28 L 500.86 265.80 L 500.78 267.19 L 500.73 268.66 L 500.55 270.17 L 500.54 271.57 L 500.42 272.93 L 500.32 274.49 L 500.22 276.00 L 500.11 277.41 L 499.92 278.89 L 499.95 280.29 L 499.96 281.65 L 499.88 283.12" fill="none" stroke="black" stroke-width="1"/>
  <path d="M 480.05 267.17 L 479.21 266.88 L 478.45 266.36 L 477.59 265.84 L 476.85 265.52 L 476.02 265.10 L 475.25 264.66 L 474.33 264.29 L 473.65 263.81 L 472.78 263.46 L 472.05 262.96 L 471.15 262.64 L 470.45 262.13 L 469.71 261.64 L 468.85 261.33 L 468.12 260.95 L 467.25 260.57 L 466.51 260.13 L 465.65 259.86 L 464.96 259.60 L 464.05 259.22 L 463.15 259.04 L 462.44 258.66 L 461.76 258.51 L 460.83 258.15 L 460.07 257.81 L 459.23 257.71 L 458.31 257.46 L 457.62 257.30 L 456.74 257.03 L 456.01 256.92 L 455.09 256.68 L 454.40 256.57 L 453.70 256.33 L 452.79 256.22 L 451.91 256.05 L 451.18 255.86 L 450.43 255.66 L 449.57 255.50 L 448.85 255.25 L 447.97 255.10" fill="none" stroke="black" stroke-width="1"/>
  <path d="M 447.93 235.00 L 448.01 236.12 L 447.87 237.02 L 447.84 237.93 L 447.73 239.05 L 447.65 240.15 L 447.54 241.07 L 447.54 241.97 L 447.33 243.09 L 447.33 244.17 L 447.15 245.12 L 447.02 246.04 L 447.04 247.14 L 447.08 248.05 L 447.01 249.16 L 447.08 250.29 L 447.13 251.18 L 447.19 252.16 L 447.41 253.20 L 447.69 254.18 L 447.90 255.21 L 448.36 256.24 L 448.61 257.22 L 449.10 258.15 L 449.54 259.22 L 450.15 260.34 L 450.63 261.23 L 451.17 262.33 L 451.86 263.23 L 452.43 264.13 L 453.18 265.23 L 453.87 266.14 L 454.57 267.22 L 455.29 268.31 L 455.98 269.22 L 456.73 270.33 L 457.37 271.22 L 457.94 272.26 L 458.72 273.22 L 459.42 274.23 L 459.99 275.22" fill="none" stroke="black" stroke-width="1"/>
  <path d="M 437.95 279.76 L 441.72 286.73" fill="none" stroke="black" stroke-width="1"/>
  <path d="M 431.42 279.08 L 432.59 271.44" fill="none" stroke="black" stroke-width="1"/>
  <path d="M 432.01 267.18 L 428.08 261.94 L 423.96 256.44 L 419.99 251.13" fill="none" stroke="black" stroke-width="1"/>
  <path d="M 415.22 249.93 L 409.08 244.67" fill="none" stroke="black" stroke-width="1"/>
  <path d="M 399.25 229.21 L 392.44 233.27" fill="none" stroke="black" stroke-width="1"/>
  <path d="M 390.10 231.55 L 386.04 238.52" fill="none" stroke="black" stroke-width="1"/>
  <path d="M 386.78 241.82 L 381.09 236.21" fill="none" stroke="black" stroke-width="1"/>
  <path d="M 375.85 238.84 L 378.45 240.28 L 380.93 241.28 L 383.72 242.79" fill="none" stroke="black" stroke-width="1"/>
  <path d="M 384.22 250.91 L 386.69 252.28 L 389.17 253.74 L 391.82 254.94" fill="none" stroke="black" stroke-width="1"/>
  <path d="M 396.06 251.01 L 390.63 245.70 L 385.24 240.47 L 379.95 235.19" fill="none" stroke="black" stroke-width="1"/>
  <path d="M 379.96 235.11 L 375.96 231.17 L 372.00 227.22" fill="none" stroke="black" stroke-width="1"/>
  <path d="M 364.06 235.15 L 370.01 237.24 L 375.94 239.10" fill="none" stroke="black" stroke-width="1"/>
  <path d="M 368.04 243.03 L 374.01 245.15 L 380.02 247.12" fill="none" stroke="black" stroke-width="1"/>
  <path d="M 376.06 247.02 L 382.12 250.05 L 388.11 252.97 L 393.97 255.96 L 399.99 259.05" fill="none" stroke="black" stroke-width="1"/>
  <path d="M 404.31 253.37 L 410.87 257.48" fill="none" stroke="black" stroke-width="1"/>
  <path d="M 407.62 264.88 L 400.42 261.47" fill="none" stroke="black" stroke-width="1"/>
  <path d="M 403.98 271.16 L 403.31 270.76 L 402.76 270.39 L 402.14 270.12 L 401.51 269.64 L 400.84 269.26 L 400.24 268.91 L 399.52 268.63 L 398.97 268.19 L 398.44 267.91 L 397.71 267.46 L 396.98 267.15 L 396.46 266.70 L 395.76 266.20 L 395.25 265.91 L 394.56 265.51 L 394.09 265.08 L 393.42 264.65 L 392.98 264.19 L 392.55 263.73 L 391.93 263.22 L 391.55 262.69 L 390.97 262.18 L 390.47 261.68 L 390.07 261.06 L 389.77 260.38 L 389.24 259.89 L 388.86 259.20 L 388.44 258.66 L 388.11 258.04 L 387.68 257.41 L 387.21 256.81 L 386.94 256.13 L 386.48 255.44 L 386.20 254.85 L 385.79 254.19 L 385.46 253.57 L 385.14 252.82 L 384.71 252.31 L 384.35 251.77 L 383.92 251.07" fill="none" stroke="black" stroke-width="1"/>
  <path d="M 387.93 259.08 L 394.64 261.65 L 401.23 264.40 L 407.94 267.11" fill="none" stroke="black" stroke-width="1"/>
  <path d="M 415.97 267.19 L 418.52 272.51 L 421.22 277.63 L 423.94 282.99" fill="none" stroke="black" stroke-width="1"/>
  <path d="M 411.93 275.17 L 410.80 274.91 L 409.89 274.43 L 408.82 274.05 L 407.79 273.80 L 406.72 273.58 L 405.67 273.23 L 404.63 272.92 L 403.53 272.68 L 402.39 272.41 L 401.41 272.10 L 400.44 271.82 L 399.34 271.44 L 398.38 271.11 L 397.32 270.66 L 396.25 270.29 L 395.40 269.70 L 394.42 269.01 L 393.58 268.52 L 392.75 267.80 L 391.91 267.07 L 391.18 266.20 L 390.38 265.32 L 389.72 264.26 L 389.00 263.31 L 388.31 262.23 L 387.72 261.07 L 387.13 259.98 L 386.54 258.67 L 386.06 257.48 L 385.41 256.13 L 384.86 254.79 L 384.33 253.52 L 383.84 252.11 L 383.27 250.88 L 382.68 249.49 L 382.19 248.25 L 381.69 247.01 L 381.09 245.68 L 380.51 244.43 L 379.93 243.23" fill="none" stroke="black" stroke-width="1"/>
  <path d="M 379.94 242.99 L 379.71 242.32 L 379.46 241.78 L 379.26 241.15 L 378.84 240.51 L 378.55 239.90 L 378.14 239.21 L 377.67 238.46 L 377.42 237.90 L 377.18 237.21 L 376.74 236.60 L 376.39 235.88 L 376.16 235.35 L 375.94 234.84 L 375.74 234.16 L 375.55 233.69 L 375.54 233.05 L 375.59 232.58 L 375.62 232.05 L 375.80 231.61 L 376.03 231.18 L 376.39 230.74 L 376.83 230.46 L 377.29 230.23 L 377.96 229.87 L 378.71 229.73 L 379.37 229.39 L 380.23 229.29 L 381.00 228.99 L 381.93 228.81 L 382.79 228.65 L 383.81 228.42 L 384.68 228.35 L 385.60 228.21 L 386.61 228.07 L 387.61 227.89 L 388.52 227.78 L 389.44 227.67 L 390.35 227.46 L 391.11 227.25 L 392.04 227.09" fill="none" stroke="black" stroke-width="1"/>
  <path d="M 392.02 227.15 L 392.74 226.74 L 393.53 226.33 L 394.26 226.02 L 394.92 225.49 L 395.63 225.11 L 396.25 224.64 L 396.85 224.18 L 397.57 223.78 L 398.29 223.25 L 398.92 222.93 L 399.57 222.52 L 400.34 222.09 L 401.16 221.62 L 401.90 221.29 L 402.89 220.87 L 403.64 220.53 L 404.55 220.12 L 405.60 219.83 L 406.80 219.54 L 407.84 219.19 L 409.05 218.82 L 410.39 218.62 L 411.80 218.29 L 413.21 218.11 L 414.72 217.79 L 416.27 217.67 L 417.97 217.55 L 419.50 217.26 L 421.17 217.16 L 422.86 216.88 L 424.56 216.64 L 426.30 216.52 L 427.99 216.28 L 429.77 216.17 L 431.49 216.05 L 433.23 215.82 L 434.97 215.59 L 436.62 215.45 L 438.19 215.29 L 439.90 215.06" fill="none" stroke="black" stroke-width="1"/>
  <path d="M 431.98 214.56 L 424.03 215.95" fill="none" stroke="black" stroke-width="1"/>
  <path d="M 415.98 219.14 L 410.56 221.93 L 405.20 224.57 L 399.83 227.15" fill="none" stroke="black" stroke-width="1"/>
  <path d="M 395.66 225.74 L 388.24 228.56" fill="none" stroke="black" stroke-width="1"/>
  <path d="M 387.90 230.99 L 393.81 226.89 L 399.91 223.03" fill="none" stroke="black" stroke-width="1"/>
  <path d="M 408.25 224.63 L 415.55 221.42" fill="none" stroke="black" stroke-width="1"/>
  <path d="M 415.99 219.96 L 423.94 218.51" fill="none" stroke="black" stroke-width="1"/>
  <path d="M 431.92 211.19 L 429.99 211.56 L 427.97 212.03 L 426.10 212.39 L 424.11 212.96 L 422.26 213.43 L 420.30 213.93 L 418.41 214.37 L 416.50 214.92 L 414.61 215.48 L 412.67 215.89 L 410.69 216.35 L 408.78 216.79 L 406.72 217.25 L 404.80 217.60 L 402.66 217.85 L 400.69 218.28 L 398.53 218.50 L 396.41 218.79 L 394.16 218.98 L 391.92 219.09 L 389.64 219.21 L 387.21 219.17 L 384.75 219.22 L 382.29 219.05 L 379.81 218.96 L 377.20 218.76 L 374.51 218.48 L 371.99 218.34 L 369.42 218.10 L 366.67 217.83 L 363.99 217.58 L 361.30 217.25 L 358.63 216.89 L 355.90 216.65 L 353.20 216.29 L 350.52 216.06 L 347.74 215.86 L 345.18 215.52 L 342.44 215.28 L 339.92 215.07" fill="none" stroke="black" stroke-width="1"/>
  <path d="M 340.02 215.05 L 337.10 215.13 L 334.02 215.12 L 330.93 215.18 L 328.02 215.27 L 325.01 215.45 L 322.01 215.48 L 319.07 215.55 L 316.01 215.69 L 313.08 215.77 L 310.01 215.88 L 307.08 215.90 L 304.00 216.01 L 301.07 215.98 L 298.00 216.04 L 294.90 216.08 L 291.99 215.94 L 288.95 215.85 L 285.99 215.66 L 283.09 215.52 L 279.98 215.18 L 277.07 214.83 L 273.97 214.47 L 270.97 213.96 L 267.97 213.55 L 265.06 212.94 L 261.96 212.46 L 258.95 211.81 L 255.95 211.24 L 252.95 210.50 L 249.94 209.92 L 246.98 209.23 L 243.93 208.53 L 240.96 207.78 L 237.92 207.13 L 234.97 206.52 L 231.91 205.73 L 229.00 205.00 L 225.90 204.39 L 222.88 203.76 L 219.89 203.13" fill="none" stroke="black" stroke-width="1"/>
  <path d="M 219.93 203.04 L 218.62 203.32 L 217.15 203.51 L 215.80 203.89 L 214.40 204.10 L 213.06 204.55 L 211.66 204.75 L 210.27 205.00 L 208.93 205.42 L 207.52 205.73 L 206.19 206.06 L 204.92 206.27 L 203.43 206.61 L 202.16 206.72 L 200.64 207.04 L 199.26 207.26 L 197.81 207.29 L 196.44 207.41 L 194.91 207.32 L 193.47 207.21 L 191.95 207.08 L 190.43 206.83 L 188.92 206.53 L 187.36 206.20 L 185.81 205.71 L 184.32 205.30 L 182.65 204.67 L 181.06 203.96 L 179.44 203.45 L 177.81 202.74 L 176.20 202.11 L 174.66 201.38 L 172.94 200.68 L 171.32 199.83 L 169.68 199.22 L 167.95 198.48 L 166.41 197.78 L 164.79 197.13 L 163.17 196.41 L 161.44 195.67 L 159.95 195.14" fill="none" stroke="black" stroke-width="1"/>
  <path d="M 159.94 195.01 L 159.15 194.87 L 158.30 194.66 L 157.36 194.49 L 156.57 194.40 L 155.57 194.34 L 154.79 194.19 L 153.87 194.03 L 153.00 193.99 L 152.12 193.87 L 151.24 193.76 L 150.30 193.52 L 149.54 193.47 L 148.62 193.29 L 147.93 193.09 L 147.12 192.83 L 146.44 192.58 L 145.73 192.19 L 145.13 191.90 L 144.61 191.41 L 144.01 191.01 L 143.69 190.44 L 143.12 189.90 L 142.73 189.34 L 142.43 188.58 L 142.27 187.94 L 141.90 187.09 L 141.64 186.33 L 141.50 185.47 L 141.35 184.62 L 141.20 183.76 L 141.19 182.80 L 140.96 181.98 L 140.78 181.11 L 140.74 180.18 L 140.71 179.39 L 140.50 178.40 L 140.39 177.51 L 140.23 176.66 L 139.97 175.87 L 139.86 175.00" fill="none" stroke="black" stroke-width="1"/>
  <path d="M 151.97 159.12 L 167.97 147.12" fill="none" stroke="black" stroke-width="1"/>
  <path d="M 167.97 147.12 L 183.97 159.12" fill="none" stroke="black" stroke-width="1"/>
  <path d="M 167.97 171.11 L 167.97 147.12" fill="none" stroke="black" stroke-width="1"/>
  <path d="M 144.02 98.75 L 135.98 99.55" fill="none" stroke="black" stroke-width="1"/>
  <path d="M 115.88 119.13 L 108.04 118.82" fill="none" stroke="black" stroke-width="1"/>
  <path d="M 100.06 115.19 L 98.17 115.72 L 96.05 116.45 L 94.15 117.21 L 92.04 117.82 L 90.07 118.51 L 88.03 119.26 L 86.01 120.09 L 84.02 120.71 L 81.93 121.45 L 80.01 122.13 L 77.92 122.84 L 76.00 123.47 L 73.88 124.08 L 71.99 124.68 L 69.91 125.25 L 67.98 125.72 L 66.06 126.14 L 63.97 126.54 L 61.89 126.83 L 59.97 127.08 L 58.07 127.18 L 55.97 127.32 L 54.06 127.31 L 51.97 127.29 L 49.92 127.12 L 47.97 127.04 L 45.88 126.93 L 43.97 126.61 L 42.00 126.26 L 39.98 126.06 L 37.95 125.79 L 35.98 125.42 L 33.87 125.07 L 31.99 124.75 L 29.88 124.48 L 27.99 124.10 L 25.92 123.77 L 24.00 123.52 L 22.04 123.18 L 20.00 123.04" fill="none" stroke="black" stroke-width="1"/>
  <path d="M 40.01 135.15 L 46.09 135.02 L 51.94 134.86 L 57.99 134.67 L 63.95 134.50 L 69.90 134.13 L 75.98 134.04 L 82.03 133.76 L 87.91 133.57 L 93.96 133.34 L 99.87 133.09 L 105.99 132.84 L 111.94 132.61 L 118.00 132.33 L 123.97 132.19 L 129.93 131.93 L 135.86 131.80 L 141.98 131.50 L 147.91 131.35 L 153.83 131.27 L 159.90 131.14 L 165.90 130.92 L 172.01 130.91 L 177.95 130.69 L 183.89 130.71 L 189.82 130.81 L 195.81 130.86 L 201.88 130.79 L 207.90 130.91 L 213.93 131.16 L 219.88 131.20 L 225.92 131.58 L 231.91 131.69 L 237.88 131.99 L 243.87 132.47 L 249.93 132.65 L 255.88 133.12 L 261.94 133.54 L 267.79 134.02 L 273.89 134.53 L 279.93 135.10 L 285.90 135.72 L 291.90 136.16 L 297.81 136.70 L 303.98 137.26 L 309.91 137.94 L 315.86 138.59 L 321.81 139.16 L 327.93 139.83 L 334.02 140.58 L 339.86 141.19 L 345.94 141.76 L 351.92 142.31 L 357.92 143.10 L 363.95 143.66 L 369.88 144.23 L 376.07 144.94 L 381.97 145.49 L 387.99 145.95 L 393.95 146.51 L 399.98 147.18" fill="none" stroke="black" stroke-width="1"/>
  <path d="M 399.98 147.20 L 405.91 147.67 L 411.88 148.37 L 417.98 148.89 L 423.94 149.61 L 429.91 150.21 L 435.99 150.75 L 441.88 151.37 L 447.96 151.93 L 453.99 152.70 L 459.98 153.33 L 465.94 153.96 L 472.00 154.67 L 477.93 155.35 L 484.03 155.85 L 490.01 156.59 L 495.95 157.24 L 501.91 157.82 L 508.01 158.40 L 514.03 158.89 L 520.08 159.36 L 526.01 160.02 L 531.92 160.38 L 538.06 160.83 L 544.01 161.37 L 550.00 161.75 L 556.12 161.98 L 562.01 162.39 L 568.11 162.71 L 574.04 162.82 L 580.01 163.01 L 585.92 163.17 L 591.93 163.02 L 598.00 163.17 L 604.07 163.06 L 610.06 163.10 L 615.98 162.93 L 622.06 162.71 L 627.85 162.50 L 633.96 162.36 L 639.94 162.03 L 645.86 161.77 L 651.94 161.53 L 657.85 161.12 L 663.86 160.89 L 669.92 160.50 L 675.95 160.22 L 681.91 159.83 L 687.90 159.36 L 693.79 159.03 L 700.00 158.47 L 705.88 158.17 L 711.94 157.85 L 717.87 157.48 L 723.85 157.00 L 729.94 156.58 L 735.76 156.34 L 741.83 155.93 L 747.84 155.69 L 753.92 155.32 L 759.81 155.02" fill="none" stroke="black" stroke-width="1"/>
  <path d="M 780.00 135.03 L 778.64 135.84 L 777.22 136.74 L 775.96 137.73 L 774.47 138.59 L 773.09 139.56 L 771.74 140.53 L 770.32 141.48 L 769.01 142.48 L 767.52 143.32 L 766.27 144.39 L 764.81 145.27 L 763.52 146.21 L 762.08 147.00 L 760.73 147.86 L 759.40 148.60 L 757.89 149.28 L 756.37 149.83 L 755.00 150.42 L 753.50 150.79 L 752.03 151.22 L 750.44 151.34 L 748.99 151.63 L 747.32 151.67 L 745.87 151.70 L 744.21 151.57 L 742.70 151.48 L 741.14 151.15 L 739.49 151.04 L 737.97 150.79 L 736.24 150.44 L 734.59 150.13 L 732.96 149.73 L 731.26 149.37 L 729.69 148.99 L 728.00 148.59 L 726.41 148.26 L 724.86 148.03 L 723.15 147.62 L 721.43 147.31 L 719.92 147.12" fill="none" stroke="black" stroke-width="1"/>
  <path d="M 735.76 127.74 L 743.73 126.65" fill="none" stroke="black" stroke-width="1"/>
  <path d="M 755.87 120.19 L 763.79 118.16" fill="none" stroke="black" stroke-width="1"/>
  <path d="M 687.92 67.12 L 671.92 83.12" fill="none" stroke="black" stroke-width="1"/>
  <path d="M 671.92 83.12 L 639.93 95.12" fill="none" stroke="black" stroke-width="1"/>
  <path d="M 655.93 123.26 L 663.98 122.89" fill="none" stroke="black" stroke-width="1"/>
  <path d="M 696.07 142.06 L 703.99 144.00" fill="none" stroke="black" stroke-width="1"/>
  <path d="M 711.90 186.40 L 704.00 187.72" fill="none" stroke="black" stroke-width="1"/>
  <path d="M 719.83 175.15 L 719.40 178.53 L 719.18 182.12 L 718.95 185.72 L 718.75 189.34 L 718.55 193.13 L 718.46 196.70 L 718.32 200.44 L 718.19 204.10 L 717.91 207.81 L 717.86 211.43 L 717.54 214.95 L 717.37 218.57 L 717.12 222.00 L 716.63 225.43 L 716.20 228.64 L 715.53 231.89 L 714.85 234.78 L 713.99 237.85 L 713.06 240.58 L 711.90 243.20 L 710.47 245.45 L 709.20 247.85 L 707.51 249.89 L 705.96 251.90 L 704.18 253.56 L 702.28 255.44 L 700.18 256.96 L 698.24 258.58 L 696.06 259.92 L 693.95 261.44 L 691.61 262.75 L 689.49 264.12 L 687.24 265.49 L 684.97 266.72 L 682.84 268.05 L 680.49 269.36 L 678.37 270.81 L 676.13 272.14 L 674.11 273.64 L 672.00 275.18" fill="none" stroke="black" stroke-width="1"/>
  <path d="M 648.18 260.52 L 655.85 258.00" fill="none" stroke="black" stroke-width="1"/>
  <path d="M 623.99 266.72 L 615.97 267.65" fill="none" stroke="black" stroke-width="1"/>
  <path d="M 639.85 263.22 L 645.93 261.13 L 651.85 259.22 L 657.88 257.18 L 663.97 255.15" fill="none" stroke="black" stroke-width="1"/>
  <path d="M 671.83 215.17 L 678.63 219.09 L 685.30 223.05 L 691.92 227.16" fill="none" stroke="black" stroke-width="1"/>
  <path d="M 687.98 215.01 L 686.80 207.66 L 685.71 200.28 L 684.54 192.70 L 683.32 185.39 L 682.24 177.97 L 681.16 170.51 L 679.89 163.17" fill="none" stroke="black" stroke-width="1"/>
  <path d="M 665.81 175.14 L 663.81 177.14 L 661.81 175.14 L 663.81 173.14 L 665.81 175.14" fill="none" stroke="black" stroke-width="1"/>
  <path d="M 671.83 203.22 L 673.13 196.64 L 674.51 189.83 L 675.91 183.06 L 677.21 176.34 L 678.69 169.68 L 679.97 163.08" fill="none" stroke="black" stroke-width="1"/>
  <path d="M 679.99 163.07 L 684.00 169.40 L 688.08 175.90 L 691.83 182.30 L 695.85 188.75 L 699.91 195.08" fill="none" stroke="black" stroke-width="1"/>
  <path d="M 696.40 200.99 L 703.39 205.06" fill="none" stroke="black" stroke-width="1"/>
  <path d="M 703.84 215.22 L 699.82 220.20 L 695.76 225.09 L 691.94 229.97 L 687.86 235.04" fill="none" stroke="black" stroke-width="1"/>
  <path d="M 683.41 240.84 L 676.53 245.25" fill="none" stroke="black" stroke-width="1"/>
  <path d="M 672.03 275.09 L 668.93 275.61 L 665.59 276.00 L 662.28 276.45 L 659.09 277.09 L 655.76 277.70 L 652.56 278.27 L 649.28 278.81 L 646.02 279.48 L 642.86 280.15 L 639.49 280.63 L 636.37 281.17 L 633.01 281.67 L 629.81 282.21 L 626.59 282.51 L 623.52 282.83 L 620.26 283.09 L 617.05 283.12 L 614.04 283.33 L 611.07 283.33 L 607.97 283.16 L 604.95 282.95 L 602.04 282.52 L 599.23 281.97 L 596.25 281.48 L 593.51 280.78 L 590.58 280.10 L 587.82 279.18 L 584.99 278.45 L 582.32 277.57 L 579.47 276.60 L 576.75 275.57 L 573.99 274.64 L 571.24 273.56 L 568.53 272.63 L 565.78 271.57 L 563.05 270.64 L 560.38 269.69 L 557.55 268.75 L 554.65 267.98 L 551.99 267.02" fill="none" stroke="black" stroke-width="1"/>
  <path d="M 559.83 255.15 L 566.43 252.52 L 573.33 249.68 L 579.94 247.10" fill="none" stroke="black" stroke-width="1"/>
  <path d="M 571.96 244.09 L 564.09 242.39" fill="none" stroke="black" stroke-width="1"/>
  <path d="M 563.93 235.11 L 547.94 223.11" fill="none" stroke="black" stroke-width="1"/>
  <path d="M 541.40 224.09 L 546.89 230.03" fill="none" stroke="black" stroke-width="1"/>
  <path d="M 556.78 212.72 L 563.10 217.51" fill="none" stroke="black" stroke-width="1"/>
  <path d="M 563.81 202.31 L 571.69 203.68" fill="none" stroke="black" stroke-width="1"/>
  <path d="M 579.75 202.83 L 583.29 202.55 L 587.06 201.91 L 590.89 201.15 L 595.07 201.04 L 598.83 200.72 L 602.30 199.90 L 606.25 199.22 L 609.99 199.12 L 613.55 198.47 L 617.36 198.31 L 620.99 197.41 L 625.23 196.87 L 628.43 196.58 L 632.71 196.25 L 636.26 195.78 L 640.04 195.16" fill="none" stroke="black" stroke-width="1"/>
  <path d="M 645.33 198.05 L 650.63 192.13" fill="none" stroke="black" stroke-width="1"/>
  <path d="M 636.40 217.03 L 643.44 213.00" fill="none" stroke="black" stroke-width="1"/>
  <path d="M 651.93 215.11 L 635.93 231.11" fill="none" stroke="black" stroke-width="1"/>
  <path d="M 623.76 214.88 L 620.66 212.87 L 617.84 210.18 L 614.77 207.79 L 612.01 205.63 L 608.94 203.34 L 605.72 200.70 L 602.62 198.90 L 599.89 196.19 L 597.02 193.93 L 593.86 191.58 L 590.62 189.13 L 587.87 186.98" fill="none" stroke="black" stroke-width="1"/>
  <path d="M 567.99 194.92 L 572.01 195.73 L 575.27 195.88 L 578.99 196.56 L 583.15 197.11 L 586.51 197.84 L 590.45 197.96 L 593.85 198.44 L 598.05 199.30 L 601.50 199.54 L 605.54 199.93 L 608.96 200.57 L 612.82 201.18 L 616.34 201.61 L 620.37 202.54 L 623.74 203.04 L 627.78 203.37" fill="none" stroke="black" stroke-width="1"/>
  <path d="M 615.63 195.42 L 612.69 196.69 L 609.39 198.26 L 606.01 199.88 L 603.23 201.73 L 600.03 202.98" fill="none" stroke="black" stroke-width="1"/>
  <path d="M 608.20 211.00 L 607.71 207.57 L 606.88 204.45 L 606.15 200.68 L 605.76 197.39 L 605.06 193.89 L 604.89 190.82 L 604.16 187.31" fill="none" stroke="black" stroke-width="1"/>
  <path d="M 592.16 182.99 L 594.20 185.84 L 596.24 189.29 L 598.28 192.46 L 600.65 195.62 L 602.60 198.57 L 604.83 201.69 L 606.97 204.85 L 608.91 207.91 L 611.09 210.81 L 613.65 214.06 L 615.62 216.93 L 617.51 219.94 L 619.82 223.33" fill="none" stroke="black" stroke-width="1"/>
  <path d="M 599.68 227.37 L 600.91 223.95 L 602.51 220.51 L 603.90 216.91 L 604.91 213.14 L 606.63 209.62 L 607.53 206.05 L 609.16 203.03 L 610.12 199.57 L 611.92 195.85 L 612.90 192.41 L 614.76 189.02 L 615.90 185.29 L 617.09 181.83 L 618.61 178.23 L 619.81 174.82" fill="none" stroke="black" stroke-width="1"/>
  <path d="M 607.84 178.99 L 606.20 182.58 L 604.39 185.82 L 602.48 189.37 L 600.35 192.30 L 598.72 196.22 L 597.11 199.30 L 595.13 202.86 L 593.19 206.43 L 591.29 209.93 L 589.62 212.77 L 587.71 216.39 L 586.08 220.03 L 584.02 223.22" fill="none" stroke="black" stroke-width="1"/>
  <path d="M 591.79 215.38 L 594.79 212.89 L 597.73 210.97 L 601.05 208.91 L 603.90 206.75 L 607.42 204.51 L 610.49 202.36 L 613.64 200.06 L 616.59 197.87 L 619.48 195.94 L 623.15 193.23 L 625.79 191.42 L 628.78 189.02 L 632.16 186.89" fill="none" stroke="black" stroke-width="1"/>
  <path d="M 630.31 182.72 L 633.32 175.17" fill="none" stroke="black" stroke-width="1"/>
  <path d="M 633.89 163.11 L 631.89 161.11 L 629.89 163.11 L 631.89 165.11 L 633.89 163.11" fill="none" stroke="black" stroke-width="1"/>
  <path d="M 623.30 133.03 L 616.27 137.09" fill="none" stroke="black" stroke-width="1"/>
  <path d="M 581.90 155.13 L 579.90 153.13 L 577.90 155.13 L 579.90 157.13 L 581.90 155.13" fill="none" stroke="black" stroke-width="1"/>
  <path d="M 568.17 108.26 L 575.78 105.23" fill="none" stroke="black" stroke-width="1"/>
  <path d="M 581.79 106.64 L 585.42 100.05" fill="none" stroke="black" stroke-width="1"/>
  <path d="M 579.89 91.15 L 580.63 91.58 L 581.59 91.94 L 582.59 92.29 L 583.44 92.73 L 584.40 93.07 L 585.37 93.52 L 586.40 93.93 L 587.31 94.32 L 588.32 94.82 L 589.22 95.11 L 590.05 95.50 L 591.03 95.90 L 591.92 96.29 L 592.67 96.69 L 593.48 96.98 L 594.09 97.49 L 594.63 97.92 L 595.23 98.28 L 595.72 98.77 L 596.03 99.08 L 596.26 99.52 L 596.44 99.87 L 596.38 100.33 L 596.50 100.67 L 596.43 101.14 L 596.29 101.47 L 596.14 101.98 L 595.85 102.27 L 595.59 102.70 L 595.25 103.07 L 594.89 103.59 L 594.55 103.87 L 594.08 104.37 L 593.81 104.67 L 593.49 105.08 L 593.09 105.47 L 592.80 105.87 L 592.45 106.27 L 592.19 106.61 L 591.95 107.07" fill="none" stroke="black" stroke-width="1"/>
  <path d="M 592.05 107.07 L 591.20 107.63 L 590.43 108.35 L 589.64 108.95 L 588.81 109.75 L 587.98 110.51 L 587.18 111.21 L 586.27 111.89 L 585.56 112.69 L 584.73 113.53 L 583.94 114.14 L 583.09 114.83 L 582.32 115.50 L 581.39 116.22 L 580.70 116.74 L 579.78 117.17 L 579.08 117.79 L 578.35 118.12 L 577.47 118.62 L 576.56 119.00 L 575.87 119.18 L 574.99 119.18 L 574.27 119.42 L 573.50 119.34 L 572.67 119.39 L 571.80 119.18 L 571.08 119.13 L 570.20 119.01 L 569.49 118.69 L 568.69 118.52 L 567.91 118.12 L 567.13 117.73 L 566.33 117.47 L 565.43 117.09 L 564.74 116.79 L 563.97 116.55 L 563.16 116.13 L 562.47 115.71 L 561.58 115.53 L 560.73 115.22 L 559.99 115.04" fill="none" stroke="black" stroke-width="1"/>
  <path d="M 479.88 123.04 L 477.86 123.69 L 475.88 124.32 L 473.99 124.94 L 471.88 125.71 L 469.80 126.32 L 467.88 127.16 L 465.77 127.98 L 463.87 128.62 L 461.82 129.41 L 459.87 130.06 L 457.91 130.78 L 455.87 131.42 L 453.97 132.00 L 451.87 132.65 L 449.77 133.10 L 447.87 133.70 L 445.91 134.23 L 443.87 134.53 L 441.99 134.79 L 439.88 135.09 L 437.92 135.22 L 435.89 135.35 L 434.01 135.41 L 431.90 135.34 L 429.98 135.31 L 427.92 135.10 L 426.00 134.87 L 423.94 134.69 L 421.96 134.53 L 419.96 134.15 L 418.03 133.85 L 415.97 133.54 L 413.91 133.11 L 411.99 132.89 L 410.12 132.63 L 408.01 132.26 L 406.10 132.05 L 404.03 131.69 L 402.08 131.55 L 400.05 131.23" fill="none" stroke="black" stroke-width="1"/>
  <path d="M 415.84 118.62 L 423.97 119.49" fill="none" stroke="black" stroke-width="1"/>
  <path d="M 443.96 102.81 L 451.96 103.67" fill="none" stroke="black" stroke-width="1"/>
  <path d="M 380.07 195.05 L 381.16 195.42 L 382.06 195.96 L 383.13 196.59 L 384.06 197.04 L 385.04 197.73 L 386.06 198.21 L 387.03 198.86 L 388.05 199.40 L 389.00 199.91 L 390.05 200.55 L 391.08 201.12 L 392.04 201.57 L 393.08 201.97 L 394.04 202.41 L 395.04 202.63 L 396.04 202.98 L 397.05 203.09 L 398.03 203.22 L 398.98 203.13 L 400.03 203.05 L 401.14 202.64 L 402.03 202.42 L 403.14 201.90 L 404.03 201.39 L 405.07 200.66 L 406.03 200.02 L 407.01 199.24 L 408.04 198.40 L 409.01 197.51 L 410.04 196.57 L 411.06 195.61 L 412.04 194.63 L 413.03 193.52 L 414.04 192.65 L 414.99 191.60 L 416.04 190.68 L 416.96 189.71 L 418.05 188.81 L 419.03 187.99 L 420.05 187.11" fill="none" stroke="black" stroke-width="1"/>
  <path d="M 442.03 195.14 L 440.03 193.14 L 438.03 195.14 L 440.03 197.14 L 442.03 195.14" fill="none" stroke="black" stroke-width="1"/>
  <path d="M 457.89 191.08 L 455.89 189.08 L 453.89 191.08 L 455.89 193.08 L 457.89 191.08" fill="none" stroke="black" stroke-width="1"/>
  <path d="M 473.99 191.17 L 471.99 189.17 L 469.99 191.17 L 471.99 193.17 L 473.99 191.17" fill="none" stroke="black" stroke-width="1"/>
  <path d="M 490.06 191.17 L 488.06 189.17 L 486.06 191.17 L 488.06 193.17 L 490.06 191.17" fill="none" stroke="black" stroke-width="1"/>
  <path d="M 480.03 175.21 L 486.47 177.49 L 492.72 179.98 L 499.20 182.44 L 505.49 184.79 L 511.96 187.13" fill="none" stroke="black" stroke-width="1"/>
  <path d="M 511.87 187.06 L 512.78 187.19 L 513.88 187.56 L 514.97 187.98 L 515.89 188.21 L 516.79 188.66 L 517.90 188.94 L 518.78 189.34 L 519.90 189.69 L 520.96 190.02 L 521.91 190.40 L 522.95 190.65 L 523.92 191.01 L 525.03 191.22 L 525.93 191.45 L 526.90 191.62 L 527.93 191.68 L 528.96 191.65 L 529.94 191.62 L 530.84 191.47 L 531.94 191.21 L 533.05 190.83 L 533.94 190.42 L 534.88 189.83 L 535.93 189.29 L 536.88 188.64 L 537.93 187.87 L 538.96 187.03 L 539.92 186.24 L 540.87 185.40 L 541.91 184.43 L 542.99 183.55 L 543.90 182.53 L 544.86 181.52 L 545.89 180.59 L 546.90 179.60 L 547.89 178.67 L 548.92 177.64 L 549.88 176.83 L 550.77 175.92 L 551.87 175.13" fill="none" stroke="black" stroke-width="1"/>
  <path d="M 552.50 183.04 L 551.39 190.99" fill="none" stroke="black" stroke-width="1"/>
  <path d="M 539.95 195.18 L 540.97 193.58 L 541.87 191.84 L 542.65 190.13 L 543.65 188.28 L 544.62 186.51 L 545.35 184.59 L 546.09 182.75 L 547.03 180.86 L 547.91 179.00 L 548.75 177.20 L 549.58 175.44 L 550.58 173.70 L 551.60 172.10 L 552.56 170.45 L 553.54 169.06 L 554.75 167.56 L 556.10 166.41 L 557.23 165.11 L 558.62 164.26 L 560.04 163.21 L 561.73 162.47 L 563.23 161.91 L 564.93 161.64 L 566.75 161.15 L 568.61 161.09 L 570.55 160.84 L 572.52 160.97 L 574.57 160.88 L 576.63 160.99 L 578.75 161.18 L 580.77 161.42 L 583.02 161.63 L 585.20 161.85 L 587.34 162.15 L 589.48 162.33 L 591.64 162.64 L 593.72 162.93 L 595.85 163.00 L 597.92 163.06 L 599.93 163.14" fill="none" stroke="black" stroke-width="1"/>
  <path d="M 599.85 163.18 L 602.29 163.82 L 604.81 164.30 L 607.52 164.75 L 610.02 165.31 L 612.66 165.78 L 615.38 166.26 L 618.06 166.64 L 620.77 167.18 L 623.34 167.59 L 626.09 168.14 L 628.77 168.60 L 631.23 169.18 L 633.59 169.86 L 636.08 170.35 L 638.21 170.94 L 640.54 171.70 L 642.62 172.49 L 644.50 173.26 L 646.12 174.07 L 647.84 175.10 L 649.28 176.09 L 650.51 177.25 L 651.64 178.44 L 652.56 179.66 L 653.30 180.90 L 654.12 182.30 L 654.67 183.72 L 655.28 185.12 L 655.74 186.66 L 656.15 188.06 L 656.56 189.59 L 656.85 191.08 L 657.10 192.67 L 657.47 194.13 L 657.82 195.59 L 658.13 197.17 L 658.64 198.75 L 658.93 200.15 L 659.51 201.65 L 659.98 203.01" fill="none" stroke="black" stroke-width="1"/>
  <path d="M 659.86 203.13 L 658.47 204.71 L 657.19 206.44 L 655.93 208.26 L 654.68 209.91 L 653.54 211.73 L 652.27 213.48 L 651.15 215.36 L 649.89 217.08 L 648.78 218.91 L 647.46 220.62 L 646.23 222.31 L 644.90 224.05 L 643.50 225.78 L 642.15 227.29 L 640.74 228.81 L 639.14 230.26 L 637.52 231.68 L 635.78 232.90 L 633.83 233.95 L 632.01 235.13 L 629.92 236.09 L 627.78 236.90 L 625.39 237.56 L 623.13 238.27 L 620.74 238.68 L 618.15 239.31 L 615.41 239.75 L 612.90 240.08 L 610.14 240.35 L 607.45 240.66 L 604.64 240.97 L 601.88 241.12 L 599.06 241.27 L 596.26 241.53 L 593.37 241.73 L 590.67 241.97 L 587.95 242.15 L 585.17 242.50 L 582.46 242.80 L 579.85 243.20" fill="none" stroke="black" stroke-width="1"/>
  <path d="M 579.93 243.09 L 578.58 242.27 L 577.06 241.56 L 575.54 240.90 L 574.07 240.14 L 572.64 239.43 L 571.02 238.78 L 569.47 238.03 L 567.96 237.44 L 566.51 236.75 L 564.93 236.06 L 563.41 235.45 L 561.97 234.61 L 560.67 233.82 L 559.15 233.03 L 557.79 232.17 L 556.50 231.27 L 555.30 230.20 L 554.07 229.29 L 552.98 228.23 L 551.92 227.04 L 551.06 225.81 L 550.07 224.49 L 549.16 223.12 L 548.49 221.66 L 547.87 220.20 L 547.13 218.61 L 546.64 217.12 L 545.95 215.39 L 545.53 213.69 L 544.89 212.04 L 544.49 210.28 L 543.92 208.60 L 543.40 206.77 L 542.98 205.14 L 542.55 203.47 L 542.02 201.69 L 541.60 199.97 L 541.00 198.31 L 540.31 196.69 L 539.86 195.04" fill="none" stroke="black" stroke-width="1"/>
  <path d="M 531.91 186.99 L 529.86 180.24 L 527.93 173.76 L 525.77 166.93 L 523.82 160.44 L 521.93 153.74 L 519.85 147.02" fill="none" stroke="black" stroke-width="1"/>
  <path d="M 519.90 147.09 L 518.29 153.53 L 516.86 160.01 L 515.26 166.42 L 513.48 172.73 L 512.01 179.21" fill="none" stroke="black" stroke-width="1"/>
  <path d="M 520.02 175.21 L 526.72 177.87 L 533.24 180.55 L 540.00 183.07" fill="none" stroke="black" stroke-width="1"/>
  <path d="M 533.95 171.11 L 531.95 173.11 L 529.95 171.11 L 531.95 169.11 L 533.95 171.11" fill="none" stroke="black" stroke-width="1"/>
  <path d="M 528.06 175.23 L 521.00 172.29 L 514.03 169.27 L 507.09 166.08 L 499.97 163.08" fill="none" stroke="black" stroke-width="1"/>
  <path d="M 500.46 160.95 L 507.48 164.78" fill="none" stroke="black" stroke-width="1"/>
  <path d="M 511.99 163.14 L 511.22 163.02 L 510.38 162.79 L 509.59 162.74 L 508.77 162.49 L 508.03 162.26 L 507.16 162.22 L 506.40 162.16 L 505.55 161.96 L 504.83 161.86 L 503.94 161.69 L 503.14 161.47 L 502.33 161.37 L 501.51 161.24 L 500.72 160.99 L 499.87 160.84 L 499.11 160.52 L 498.35 160.15 L 497.51 159.93 L 496.64 159.49 L 495.91 159.21 L 495.11 158.75 L 494.31 158.33 L 493.43 157.77 L 492.71 157.32 L 491.99 156.78 L 491.11 156.19 L 490.30 155.48 L 489.52 154.97 L 488.66 154.35 L 487.93 153.68 L 487.25 152.93 L 486.34 152.36 L 485.63 151.74 L 484.75 151.01 L 484.02 150.35 L 483.16 149.68 L 482.27 149.05 L 481.56 148.38 L 480.86 147.72 L 479.97 147.14" fill="none" stroke="black" stroke-width="1"/>
  <path d="M 483.92 154.96 L 492.47 155.49" fill="none" stroke="black" stroke-width="1"/>
  <path d="M 499.90 155.06 L 500.45 158.19 L 500.97 161.10 L 501.49 164.11 L 501.84 167.21 L 502.34 170.22 L 502.60 173.34 L 503.03 176.39 L 503.33 179.49 L 503.70 182.44 L 504.12 185.61 L 504.61 188.63 L 505.05 191.70 L 505.59 194.80 L 506.20 197.72 L 507.01 200.63 L 507.66 203.66 L 508.55 206.66 L 509.52 209.48 L 510.65 212.43 L 511.85 215.16 L 513.39 217.83 L 514.71 220.69 L 516.36 223.43 L 518.05 226.08 L 519.90 228.69 L 521.78 231.36 L 523.74 233.91 L 525.82 236.55 L 527.83 239.22 L 530.08 241.67 L 532.21 244.31 L 534.49 246.76 L 536.64 249.39 L 538.95 251.82 L 541.27 254.27 L 543.38 256.90 L 545.55 259.47 L 547.70 262.01 L 549.79 264.63 L 551.82 267.17" fill="none" stroke="black" stroke-width="1"/>
  <path d="M 520.05 295.08 L 516.03 299.14 L 511.88 302.98 L 507.85 307.08" fill="none" stroke="black" stroke-width="1"/>
  <path d="M 510.05 319.57 L 513.82 326.63" fill="none" stroke="black" stroke-width="1"/>
  <path d="M 523.95 335.19 L 519.99 339.14 L 515.77 343.14 L 511.83 347.13" fill="none" stroke="black" stroke-width="1"/>
  <path d="M 506.79 359.27 L 509.09 366.93" fill="none" stroke="black" stroke-width="1"/>
  <path d="M 523.97 375.02 L 519.83 379.09 L 515.90 383.14 L 511.89 387.04" fill="none" stroke="black" stroke-width="1"/>
  <path d="M 503.92 427.10 L 507.97 423.09 L 511.99 419.08 L 515.99 414.98" fill="none" stroke="black" stroke-width="1"/>
  <path d="M 567.93 455.09 L 515.94 479.09" fill="none" stroke="black" stroke-width="1"/>
  <path d="M 517.37 478.00 L 522.57 471.93" fill="none" stroke="black" stroke-width="1"/>
  <path d="M 527.37 480.98 L 520.71 477.02" fill="none" stroke="black" stroke-width="1"/>
  <path d="M 519.62 477.43 L 512.28 480.68" fill="none" stroke="black" stroke-width="1"/>
  <path d="M 511.94 483.08 L 575.93 475.09" fill="none" stroke="black" stroke-width="1"/>
  <path d="M 583.93 491.08 L 515.94 487.08" fill="none" stroke="black" stroke-width="1"/>
  <path d="M 519.94 491.08 L 579.93 507.08" fill="none" stroke="black" stroke-width="1"/>
  <path d="M 539.06 497.29 L 532.53 492.80" fill="none" stroke="black" stroke-width="1"/>
  <path d="M 531.94 491.08 L 531.91 491.43 L 531.84 491.80 L 531.75 492.18 L 531.64 492.57 L 531.53 492.95 L 531.44 493.33 L 531.37 493.70 L 531.35 494.05 L 531.38 494.37 L 531.47 494.65 L 531.66 494.89 L 531.94 495.08 L 532.32 495.22 L 532.81 495.32 L 533.37 495.36 L 534.01 495.38 L 534.70 495.37 L 535.44 495.33 L 536.20 495.29 L 536.97 495.23 L 537.75 495.18 L 538.51 495.13 L 539.24 495.10 L 539.94 495.08" fill="none" stroke="black" stroke-width="1"/>
  <path d="M 539.94 495.00 L 539.47 494.48 L 539.19 493.80 L 538.91 493.30 L 538.52 492.57 L 538.32 492.02 L 537.90 491.32 L 537.66 490.72 L 537.29 490.08 L 537.08 489.42 L 536.66 488.84 L 536.43 488.23 L 535.97 487.61 L 535.68 487.11 L 535.18 486.42 L 534.64 485.95 L 534.26 485.27 L 533.77 484.74 L 533.18 484.18 L 532.61 483.62 L 531.89 483.15 L 531.11 482.78 L 530.37 482.19 L 529.45 481.84 L 528.64 481.29 L 527.70 480.78 L 526.75 480.45 L 525.71 479.99 L 524.73 479.65 L 523.59 479.28 L 522.61 478.87 L 521.61 478.51 L 520.44 478.12 L 519.36 477.69 L 518.23 477.38 L 517.19 477.03 L 516.04 476.63 L 514.87 476.23 L 513.90 475.87 L 512.95 475.55 L 511.84 475.08" fill="none" stroke="black" stroke-width="1"/>
  <path d="M 507.93 479.19 L 503.80 485.07 L 499.85 491.08" fill="none" stroke="black" stroke-width="1"/>
  <path d="M 491.98 483.06 L 496.08 477.03 L 500.01 471.03" fill="none" stroke="black" stroke-width="1"/>
  <path d="M 495.94 471.09 L 496.61 471.43 L 497.27 471.80 L 497.94 472.18 L 498.61 472.57 L 499.27 472.96 L 499.94 473.34 L 500.61 473.70 L 501.27 474.05 L 501.94 474.37 L 502.61 474.65 L 503.27 474.89 L 503.94 475.09 L 504.61 475.23 L 505.27 475.32 L 505.94 475.37 L 506.61 475.38 L 507.27 475.37 L 507.94 475.34 L 508.61 475.29 L 509.27 475.23 L 509.94 475.18 L 510.61 475.13 L 511.27 475.10 L 511.94 475.09" fill="none" stroke="black" stroke-width="1"/>
  <path d="M 511.96 475.08 L 511.06 474.57 L 510.35 474.25 L 509.51 473.72 L 508.74 473.36 L 508.05 472.91 L 507.13 472.43 L 506.21 471.98 L 505.52 471.50 L 504.81 471.06 L 503.91 470.59 L 503.00 470.24 L 502.30 469.72 L 501.53 469.23 L 500.70 468.91 L 499.80 468.64 L 499.09 468.19 L 498.21 467.86 L 497.48 467.58 L 496.69 467.43 L 495.88 467.10 L 495.04 466.92 L 494.28 466.78 L 493.41 466.72 L 492.68 466.60 L 491.95 466.50 L 491.08 466.53 L 490.28 466.66 L 489.48 466.55 L 488.71 466.58 L 487.89 466.63 L 487.19 466.78 L 486.29 466.75 L 485.44 466.83 L 484.69 466.89 L 483.86 466.96 L 483.10 467.02 L 482.34 466.98 L 481.50 467.12 L 480.76 467.23 L 479.90 467.16" fill="none" stroke="black" stroke-width="1"/>
  <path d="M 479.88 467.01 L 474.99 471.04 L 469.92 475.05 L 464.89 479.12 L 460.04 483.02" fill="none" stroke="black" stroke-width="1"/>
  <path d="M 459.94 483.03 L 457.22 477.64 L 454.60 472.36 L 451.89 467.01" fill="none" stroke="black" stroke-width="1"/>
  <path d="M 465.67 467.92 L 470.18 474.27" fill="none" stroke="black" stroke-width="1"/>
  <path d="M 460.83 481.35 L 467.12 476.53" fill="none" stroke="black" stroke-width="1"/>
  <path d="M 473.71 478.64 L 470.06 471.58" fill="none" stroke="black" stroke-width="1"/>
  <path d="M 468.73 464.45 L 475.02 469.74" fill="none" stroke="black" stroke-width="1"/>
  <path d="M 479.03 468.91 L 472.72 473.54" fill="none" stroke="black" stroke-width="1"/>
  <path d="M 471.86 475.08 L 469.25 469.83 L 466.66 464.35 L 463.89 459.06" fill="none" stroke="black" stroke-width="1"/>
  <path d="M 472.04 443.10 L 467.92 437.65 L 463.93 432.34 L 460.04 427.08" fill="none" stroke="black" stroke-width="1"/>
  <path d="M 456.06 427.05 L 455.16 428.16 L 454.34 429.06 L 453.38 430.13 L 452.45 431.07 L 451.49 432.18 L 450.47 433.08 L 449.55 434.04 L 448.46 435.09 L 447.54 436.17 L 446.50 437.10 L 445.60 438.09 L 444.66 439.11 L 443.88 440.18 L 443.02 441.12 L 442.38 442.13 L 441.63 443.13 L 441.03 444.10 L 440.59 445.13 L 440.19 446.23 L 439.95 447.14 L 439.94 448.14 L 439.77 449.13 L 439.82 450.24 L 440.00 451.13 L 440.19 452.11 L 440.56 453.12 L 441.06 454.10 L 441.39 455.12 L 441.86 456.20 L 442.41 457.11 L 443.06 458.02 L 443.56 459.10 L 444.08 460.09 L 444.74 461.08 L 445.38 462.00 L 445.91 463.07 L 446.52 464.06 L 446.98 465.06 L 447.37 466.07 L 447.88 467.06" fill="none" stroke="black" stroke-width="1"/>
  <path d="M 448.05 467.03 L 450.74 472.52 L 453.23 477.88 L 455.96 483.17" fill="none" stroke="black" stroke-width="1"/>
  <path d="M 447.96 491.14 L 443.92 485.10 L 440.05 479.12" fill="none" stroke="black" stroke-width="1"/>
  <path d="M 435.99 459.07 L 431.98 453.79 L 427.89 448.45 L 423.83 443.15" fill="none" stroke="black" stroke-width="1"/>
  <path d="M 449.99 435.09 L 447.99 437.09 L 445.99 435.09 L 447.99 433.09 L 449.99 435.09" fill="none" stroke="black" stroke-width="1"/>
  <path d="M 448.06 411.03 L 449.93 415.05 L 451.93 419.10" fill="none" stroke="black" stroke-width="1"/>
  <path d="M 443.99 423.18 L 440.01 419.19 L 435.99 415.00" fill="none" stroke="black" stroke-width="1"/>
  <path d="M 433.78 423.63 L 438.65 430.40" fill="none" stroke="black" stroke-width="1"/>
  <path d="M 431.92 435.06 L 427.96 428.28 L 424.03 421.67 L 419.97 414.97" fill="none" stroke="black" stroke-width="1"/>
  <path d="M 430.20 398.45 L 425.66 391.38" fill="none" stroke="black" stroke-width="1"/>
  <path d="M 427.92 395.16 L 423.95 388.56 L 419.80 381.86 L 415.87 375.03" fill="none" stroke="black" stroke-width="1"/>
  <path d="M 425.01 358.30 L 422.45 350.97" fill="none" stroke="black" stroke-width="1"/>
  <path d="M 419.95 355.00 L 417.34 348.28 L 414.55 341.76 L 411.99 335.12" fill="none" stroke="black" stroke-width="1"/>
  <path d="M 423.94 323.02 L 421.34 317.58 L 418.67 312.29 L 415.92 307.01" fill="none" stroke="black" stroke-width="1"/>
  <path d="M 426.74 311.07 L 429.02 319.11" fill="none" stroke="black" stroke-width="1"/>
  <path d="M 433.14 320.33 L 438.88 325.94" fill="none" stroke="black" stroke-width="1"/>
  <path d="M 439.93 315.21 L 441.54 315.83 L 443.15 316.47 L 444.84 317.19 L 446.41 317.84 L 448.02 318.57 L 449.68 319.27 L 451.34 320.11 L 452.95 320.73 L 454.62 321.48 L 456.22 322.15 L 457.89 322.73 L 459.47 323.49 L 461.19 324.21 L 462.68 324.70 L 464.22 325.21 L 465.85 325.74 L 467.39 326.18 L 468.96 326.55 L 470.37 326.91 L 472.00 327.10 L 473.45 327.23 L 474.96 327.34 L 476.38 327.33 L 477.86 327.31 L 479.24 327.30 L 480.70 327.06 L 481.99 326.79 L 483.49 326.64 L 484.84 326.39 L 486.25 326.09 L 487.72 325.73 L 488.99 325.45 L 490.32 325.00 L 491.72 324.79 L 493.03 324.43 L 494.45 324.14 L 495.94 323.80 L 497.20 323.56 L 498.56 323.21 L 499.98 323.08" fill="none" stroke="black" stroke-width="1"/>
  <path d="M 491.69 323.03 L 488.58 320.94 L 485.75 318.73 L 483.06 317.16 L 480.03 314.86" fill="none" stroke="black" stroke-width="1"/>
  <path d="M 472.04 303.06 L 468.96 300.76 L 465.77 299.37 L 463.00 297.04 L 460.03 295.13" fill="none" stroke="black" stroke-width="1"/>
  <path d="M 456.00 346.94 L 458.90 348.77 L 462.29 350.68 L 465.10 353.00 L 468.20 354.88" fill="none" stroke="black" stroke-width="1"/>
  <path d="M 483.98 362.78 L 487.19 364.62 L 490.05 366.84 L 492.68 369.09 L 495.75 370.80" fill="none" stroke="black" stroke-width="1"/>
  <path d="M 496.01 383.03 L 494.81 383.24 L 493.60 383.51 L 492.50 383.90 L 491.20 384.11 L 489.92 384.49 L 488.80 384.76 L 487.67 385.02 L 486.40 385.44 L 485.07 385.75 L 483.99 386.08 L 482.85 386.30 L 481.59 386.64 L 480.49 386.91 L 479.19 387.08 L 478.10 387.30 L 476.79 387.33 L 475.51 387.30 L 474.38 387.36 L 473.26 387.25 L 471.98 387.12 L 470.73 386.87 L 469.58 386.57 L 468.48 386.17 L 467.18 385.75 L 465.87 385.26 L 464.78 384.70 L 463.56 383.98 L 462.38 383.48 L 461.27 382.85 L 459.98 382.13 L 458.81 381.42 L 457.59 380.70 L 456.32 379.99 L 455.19 379.23 L 454.09 378.51 L 452.79 377.78 L 451.58 377.00 L 450.39 376.40 L 449.15 375.81 L 447.99 375.13" fill="none" stroke="black" stroke-width="1"/>
  <path d="M 442.70 365.92 L 437.02 360.36" fill="none" stroke="black" stroke-width="1"/>
  <path d="M 442.61 399.12 L 445.05 406.89" fill="none" stroke="black" stroke-width="1"/>
  <path d="M 463.93 407.03 L 465.93 411.22 L 467.86 415.18" fill="none" stroke="black" stroke-width="1"/>
  <path d="M 463.87 419.19 L 466.58 413.88 L 469.13 408.53 L 471.84 403.05" fill="none" stroke="black" stroke-width="1"/>
  <path d="M 479.98 411.09 L 478.11 415.22 L 476.04 419.14" fill="none" stroke="black" stroke-width="1"/>
  <path d="M 475.83 419.17 L 479.74 424.36 L 483.81 429.77 L 487.92 435.10" fill="none" stroke="black" stroke-width="1"/>
  <path d="M 477.96 431.10 L 475.96 429.10 L 473.96 431.10 L 475.96 433.10 L 477.96 431.10" fill="none" stroke="black" stroke-width="1"/>
  <path d="M 472.00 423.14 L 472.90 424.13 L 473.70 425.14 L 474.61 426.02 L 475.56 427.13 L 476.62 428.22 L 477.52 429.13 L 478.41 430.08 L 479.50 431.12 L 480.48 432.04 L 481.44 433.12 L 482.30 434.20 L 483.25 435.11 L 484.08 436.20 L 484.88 437.11 L 485.61 438.15 L 486.24 439.11 L 486.71 440.16 L 487.27 441.11 L 487.47 442.09 L 487.89 443.11 L 488.06 444.10 L 488.07 445.11 L 488.04 446.19 L 487.83 447.12 L 487.57 448.14 L 487.26 449.12 L 486.77 450.01 L 486.43 451.13 L 485.81 452.10 L 485.41 453.14 L 484.87 454.14 L 484.27 455.15 L 483.73 456.08 L 483.08 457.16 L 482.56 458.18 L 481.92 459.16 L 481.48 460.18 L 480.85 461.17 L 480.37 462.25 L 479.95 463.18" fill="none" stroke="black" stroke-width="1"/>
  <path d="M 479.94 459.09 L 507.94 483.08" fill="none" stroke="black" stroke-width="1"/>
  <path d="M 503.95 487.18 L 500.06 493.15 L 495.97 499.16" fill="none" stroke="black" stroke-width="1"/>
  <path d="M 487.83 495.05 L 488.64 494.44 L 489.49 493.92 L 490.29 493.44 L 491.20 492.91 L 492.08 492.46 L 492.95 491.96 L 493.94 491.43 L 494.71 491.03 L 495.48 490.66 L 496.44 490.06 L 497.20 489.59 L 498.14 489.02 L 498.98 488.48 L 499.78 487.84 L 500.60 487.12 L 501.32 486.49 L 502.06 485.65 L 502.74 484.92 L 503.44 483.95 L 504.02 483.07 L 504.61 481.94 L 505.15 480.91 L 505.67 479.67 L 506.14 478.48 L 506.52 477.05 L 507.00 475.82 L 507.42 474.41 L 507.78 472.99 L 508.13 471.54 L 508.49 470.03 L 508.75 468.40 L 509.16 466.99 L 509.52 465.45 L 509.82 463.91 L 510.16 462.49 L 510.48 460.86 L 510.81 459.40 L 511.17 457.86 L 511.45 456.53 L 511.93 454.98" fill="none" stroke="black" stroke-width="1"/>
  <path d="M 511.85 455.17 L 512.63 453.09 L 513.54 451.24 L 514.35 449.43 L 515.34 447.44 L 516.35 445.69 L 517.21 443.73 L 518.16 441.91 L 519.10 440.04 L 519.91 438.19 L 520.95 436.31 L 521.79 434.29 L 522.73 432.47 L 523.61 430.56 L 524.37 428.48 L 525.11 426.32 L 525.83 424.28 L 526.40 422.00 L 527.06 419.79 L 527.50 417.47 L 528.02 414.97 L 528.45 412.36 L 528.67 409.78 L 528.90 407.04 L 529.04 404.24 L 529.17 401.23 L 529.18 398.43 L 529.07 395.48 L 529.14 392.41 L 529.04 389.34 L 528.97 386.22 L 528.76 383.01 L 528.71 379.93 L 528.55 376.75 L 528.43 373.61 L 528.28 370.53 L 528.16 367.31 L 527.95 364.10 L 527.96 361.08 L 527.88 358.12 L 527.87 354.99" fill="none" stroke="black" stroke-width="1"/>
  <path d="M 527.92 355.08 L 528.25 353.13 L 528.40 351.09 L 528.67 349.22 L 529.00 347.10 L 529.24 345.15 L 529.66 343.12 L 529.98 341.19 L 530.34 339.14 L 530.54 337.24 L 530.98 335.15 L 531.29 333.28 L 531.54 331.17 L 531.75 329.26 L 531.98 327.18 L 532.03 325.08 L 532.23 323.19 L 532.19 321.25 L 532.26 319.20 L 532.17 317.16 L 532.01 315.20 L 531.73 313.19 L 531.45 311.19 L 531.12 309.19 L 530.62 307.18 L 530.07 305.28 L 529.56 303.17 L 529.01 301.12 L 528.32 299.15 L 527.61 297.16 L 526.95 295.13 L 526.24 293.21 L 525.49 291.11 L 524.86 289.06 L 524.01 287.09 L 523.30 285.17 L 522.54 283.07 L 521.91 281.11 L 521.14 279.05 L 520.40 276.95 L 519.85 275.03" fill="none" stroke="black" stroke-width="1"/>
  <path d="M 519.90 275.13 L 519.61 273.43 L 519.13 271.92 L 518.63 270.36 L 518.38 268.67 L 517.93 267.15 L 517.65 265.41 L 517.36 263.84 L 516.93 262.14 L 516.58 260.58 L 516.20 258.88 L 515.74 257.27 L 515.44 255.65 L 515.10 253.92 L 514.66 252.44 L 514.15 250.95 L 513.83 249.28 L 513.34 247.81 L 512.94 246.17 L 512.53 244.70 L 511.99 243.13 L 511.58 241.55 L 510.95 240.17 L 510.42 238.72 L 509.85 237.27 L 509.30 235.92 L 508.69 234.44 L 508.05 233.12 L 507.49 231.64 L 506.76 230.25 L 506.25 228.88 L 505.64 227.42 L 504.99 226.13 L 504.28 224.69 L 503.73 223.40 L 503.03 221.91 L 502.47 220.66 L 501.78 219.20 L 501.22 217.91 L 500.64 216.52 L 500.01 215.12" fill="none" stroke="black" stroke-width="1"/>
  <path d="M 499.95 215.20 L 500.67 214.88 L 501.22 214.38 L 501.91 213.86 L 502.60 213.53 L 503.33 213.09 L 504.05 212.66 L 504.66 212.30 L 505.51 211.79 L 506.30 211.30 L 506.94 210.93 L 507.66 210.39 L 508.29 210.08 L 508.90 209.61 L 509.52 209.28 L 510.07 208.78 L 510.56 208.51 L 510.89 208.05 L 511.39 207.80 L 511.65 207.38 L 511.94 207.17 L 512.15 206.99 L 512.19 206.60 L 512.20 206.36 L 512.16 206.11 L 511.93 205.81 L 511.92 205.68 L 511.62 205.54 L 511.49 205.29 L 511.25 205.06 L 510.94 204.94 L 510.71 204.66 L 510.31 204.60 L 509.89 204.37 L 509.65 204.27 L 509.23 204.00 L 509.00 203.94 L 508.74 203.79 L 508.42 203.59 L 508.22 203.52 L 507.94 203.22" fill="none" stroke="black" stroke-width="1"/>
  <path d="M 508.04 203.21 L 506.19 202.69 L 504.44 202.32 L 502.69 201.90 L 500.88 201.32 L 499.10 200.74 L 497.32 200.25 L 495.60 199.73 L 493.77 199.17 L 491.97 198.61 L 490.22 198.12 L 488.51 197.70 L 486.64 197.15 L 484.92 196.66 L 483.04 196.31 L 481.15 195.97 L 479.39 195.65 L 477.50 195.39 L 475.68 195.22 L 473.72 195.25 L 471.91 195.06 L 469.88 195.19 L 468.07 195.22 L 466.01 195.39 L 464.16 195.65 L 462.09 195.92 L 460.20 196.31 L 458.30 196.65 L 456.19 197.15 L 454.21 197.67 L 452.15 198.12 L 450.22 198.68 L 448.10 199.17 L 446.17 199.76 L 444.03 200.25 L 441.88 200.90 L 439.97 201.32 L 437.98 201.86 L 435.92 202.32 L 433.81 202.69 L 431.91 203.21" fill="none" stroke="black" stroke-width="1"/>
  <path d="M 431.93 203.08 L 431.77 203.29 L 431.46 203.46 L 431.26 203.66 L 430.88 203.80 L 430.46 203.90 L 430.23 204.14 L 430.01 204.35 L 429.57 204.46 L 429.29 204.59 L 428.95 204.80 L 428.56 204.99 L 428.40 205.16 L 428.30 205.29 L 427.98 205.55 L 427.96 205.73 L 427.73 205.98 L 427.75 206.32 L 427.71 206.47 L 427.91 206.77 L 427.96 207.04 L 428.27 207.25 L 428.52 207.68 L 428.90 208.13 L 429.35 208.39 L 429.86 208.67 L 430.40 209.16 L 431.09 209.67 L 431.62 209.98 L 432.24 210.38 L 432.98 210.83 L 433.63 211.17 L 434.41 211.70 L 435.07 212.19 L 435.88 212.58 L 436.59 213.06 L 437.33 213.45 L 437.92 213.88 L 438.72 214.31 L 439.24 214.78 L 439.99 215.14" fill="none" stroke="black" stroke-width="1"/>
  <path d="M 439.95 215.07 L 439.22 217.03 L 438.28 219.09 L 437.50 221.09 L 436.53 223.10 L 435.59 225.01 L 434.73 227.11 L 433.73 229.22 L 432.92 231.13 L 431.98 233.22 L 431.14 235.14 L 430.33 237.06 L 429.41 239.16 L 428.61 241.08 L 427.78 243.17 L 426.95 245.29 L 426.29 247.18 L 425.62 249.23 L 424.97 251.19 L 424.40 253.12 L 423.86 255.20 L 423.33 257.26 L 422.98 259.20 L 422.62 261.19 L 422.31 263.21 L 422.16 265.24 L 421.81 267.21 L 421.60 269.11 L 421.44 271.20 L 421.39 273.30 L 421.17 275.20 L 420.96 277.25 L 420.97 279.20 L 420.80 281.29 L 420.79 283.20 L 420.81 285.18 L 420.59 287.19 L 420.44 289.18 L 420.35 291.19 L 420.20 293.29 L 420.02 295.19" fill="none" stroke="black" stroke-width="1"/>
  <path d="M 419.99 295.20 L 419.43 297.87 L 418.70 300.40 L 417.96 302.95 L 417.30 305.63 L 416.52 308.33 L 415.83 310.87 L 415.10 313.40 L 414.35 316.12 L 413.65 318.71 L 412.90 321.36 L 412.23 324.03 L 411.53 326.58 L 410.84 329.22 L 410.29 331.77 L 409.87 334.27 L 409.23 336.91 L 408.92 339.44 L 408.39 342.01 L 408.03 344.59 L 407.84 347.03 L 407.65 349.54 L 407.59 351.99 L 407.58 354.48 L 407.62 356.87 L 407.84 359.26 L 407.87 361.71 L 408.15 364.17 L 408.31 366.50 L 408.54 368.84 L 408.87 371.26 L 409.11 373.70 L 409.52 376.00 L 409.96 378.27 L 410.20 380.73 L 410.57 383.05 L 410.86 385.47 L 411.11 387.88 L 411.45 390.22 L 411.58 392.57 L 411.94 395.00" fill="none" stroke="black" stroke-width="1"/>
  <path d="M 412.06 395.02 L 412.14 397.34 L 412.39 399.89 L 412.48 402.36 L 412.64 404.88 L 412.72 407.39 L 412.85 409.92 L 412.83 412.55 L 413.04 414.99 L 413.25 417.39 L 413.25 420.02 L 413.45 422.47 L 413.53 424.97 L 413.82 427.41 L 413.90 429.79 L 414.19 432.17 L 414.40 434.44 L 414.82 436.68 L 415.08 438.87 L 415.57 440.98 L 415.95 443.03 L 416.39 444.86 L 417.06 446.88 L 417.71 448.78 L 418.37 450.47 L 419.09 452.08 L 419.85 453.83 L 420.57 455.37 L 421.46 457.02 L 422.40 458.67 L 423.17 460.08 L 424.10 461.47 L 424.94 463.06 L 425.91 464.54 L 426.73 466.01 L 427.54 467.56 L 428.51 468.97 L 429.36 470.58 L 430.24 472.00 L 431.08 473.60 L 431.89 475.14" fill="none" stroke="black" stroke-width="1"/>
  <path d="M 431.84 474.99 L 431.35 476.57 L 430.97 478.21 L 430.38 479.83 L 429.99 481.47 L 429.41 483.14 L 428.94 484.74 L 428.42 486.44 L 427.88 488.01 L 427.33 489.59 L 426.84 491.28 L 426.43 492.93 L 425.89 494.53 L 425.56 496.10 L 425.07 497.74 L 424.67 499.34 L 424.43 500.91 L 424.10 502.42 L 424.01 504.02 L 423.92 505.60 L 423.87 507.06 L 423.86 508.57 L 424.03 510.02 L 424.32 511.57 L 424.47 512.91 L 424.72 514.37 L 425.13 515.74 L 425.65 517.19 L 425.97 518.52 L 426.36 519.89 L 426.94 521.28 L 427.35 522.56 L 427.99 524.01 L 428.43 525.31 L 429.07 526.73 L 429.64 528.15 L 430.14 529.46 L 430.76 530.95 L 431.14 532.20 L 431.49 533.67 L 432.03 534.98" fill="none" stroke="black" stroke-width="1"/>
  <path d="M 431.84 535.17 L 432.23 536.14 L 432.59 537.23 L 432.89 538.28 L 433.25 539.36 L 433.60 540.44 L 433.87 541.55 L 434.14 542.71 L 434.47 543.75 L 434.72 544.85 L 435.10 545.92 L 435.48 546.97 L 435.79 548.04 L 436.22 549.04 L 436.57 550.05 L 437.11 551.10 L 437.49 551.94 L 438.07 552.89 L 438.58 553.65 L 439.27 554.39 L 439.87 555.16 L 440.66 555.84 L 441.39 556.44 L 442.34 556.91 L 443.12 557.51 L 444.14 557.92 L 445.02 558.42 L 445.96 558.79 L 447.05 559.19 L 448.12 559.41 L 449.18 559.86 L 450.35 560.16 L 451.36 560.48 L 452.45 560.86 L 453.58 561.07 L 454.61 561.48 L 455.77 561.67 L 456.83 561.88 L 457.93 562.32 L 459.00 562.63 L 459.99 563.05" fill="none" stroke="black" stroke-width="1"/>
  <path d="M 459.93 563.05 L 460.43 562.83 L 461.15 562.70 L 461.70 562.57 L 462.41 562.40 L 463.09 562.39 L 463.67 562.14 L 464.27 561.99 L 464.95 561.89 L 465.68 561.84 L 466.21 561.61 L 466.83 561.46 L 467.46 561.30 L 468.08 561.07 L 468.67 560.93 L 469.14 560.70 L 469.84 560.46 L 470.48 560.10 L 470.95 559.87 L 471.40 559.53 L 471.99 559.15 L 472.41 558.78 L 472.96 558.27 L 473.39 557.81 L 473.85 557.25 L 474.20 556.59 L 474.69 556.12 L 475.19 555.39 L 475.49 554.90 L 475.83 554.31 L 476.26 553.61 L 476.54 552.99 L 477.00 552.28 L 477.38 551.66 L 477.74 550.93 L 478.16 550.28 L 478.48 549.59 L 478.75 548.89 L 479.24 548.28 L 479.59 547.71 L 480.02 547.04" fill="none" stroke="black" stroke-width="1"/>
  <path d="M 479.91 547.14 L 481.08 546.66 L 482.34 546.38 L 483.65 545.91 L 484.83 545.67 L 486.10 545.33 L 487.35 545.00 L 488.62 544.66 L 489.88 544.33 L 491.16 544.00 L 492.39 543.65 L 493.75 543.18 L 494.87 542.93 L 496.11 542.54 L 497.28 542.14 L 498.32 541.61 L 499.60 541.27 L 500.61 540.86 L 501.81 540.28 L 502.79 539.63 L 503.89 539.16 L 504.98 538.57 L 505.83 537.89 L 506.77 537.18 L 507.62 536.48 L 508.51 535.63 L 509.31 534.96 L 510.17 534.18 L 510.91 533.35 L 511.58 532.42 L 512.45 531.67 L 513.15 530.92 L 513.95 529.96 L 514.80 529.02 L 515.43 528.23 L 516.17 527.49 L 516.92 526.51 L 517.77 525.72 L 518.44 524.82 L 519.19 524.04 L 520.02 523.19" fill="none" stroke="black" stroke-width="1"/>
  <path d="M 519.97 522.97 L 520.83 522.57 L 521.62 522.24 L 522.37 521.83 L 523.34 521.60 L 524.21 521.25 L 525.12 521.00 L 526.01 520.72 L 526.90 520.42 L 527.81 520.23 L 528.66 519.81 L 529.54 519.37 L 530.37 519.14 L 531.16 518.81 L 531.97 518.37 L 532.67 518.02 L 533.45 517.47 L 534.14 516.85 L 534.76 516.40 L 535.41 515.87 L 535.87 515.12 L 536.33 514.26 L 536.75 513.61 L 537.05 512.74 L 537.43 511.90 L 537.63 511.02 L 537.95 510.01 L 538.03 509.07 L 538.33 507.99 L 538.54 506.93 L 538.62 505.87 L 538.70 504.86 L 538.85 503.69 L 539.03 502.55 L 539.06 501.48 L 539.21 500.29 L 539.28 499.29 L 539.34 498.14 L 539.54 497.14 L 539.76 496.00 L 539.89 495.09" fill="none" stroke="black" stroke-width="1"/>
  <path d="M 539.94 495.08 L 539.95 495.43 L 539.98 495.80 L 540.03 496.18 L 540.08 496.57 L 540.14 496.95 L 540.19 497.33 L 540.22 497.70 L 540.23 498.05 L 540.22 498.36 L 540.17 498.65 L 540.08 498.89 L 539.94 499.08 L 539.74 499.22 L 539.50 499.31 L 539.22 499.36 L 538.90 499.38 L 538.55 499.37 L 538.19 499.33 L 537.81 499.29 L 537.42 499.23 L 537.03 499.18 L 536.65 499.13 L 536.28 499.10 L 535.94 499.08" fill="none" stroke="black" stroke-width="1"/>
  <path d="M 535.94 503.06 L 535.94 497.68 L 536.07 492.41 L 535.97 486.98" fill="none" stroke="black" stroke-width="1"/>
  <path d="M 531.85 487.14 L 531.82 495.03" fill="none" stroke="black" stroke-width="1"/>
  <path d="M 532.04 495.22 L 531.96 503.09" fill="none" stroke="black" stroke-width="1"/>
  <path d="M 519.93 499.05 L 514.59 501.69 L 509.24 504.53 L 503.82 507.19" fill="none" stroke="black" stroke-width="1"/>
  <path d="M 495.95 515.10 L 495.75 515.41 L 495.54 515.93 L 495.26 516.39 L 495.14 516.82 L 494.94 517.23 L 494.74 517.73 L 494.44 518.10 L 494.34 518.66 L 494.17 519.15 L 493.94 519.56 L 493.65 519.98 L 493.53 520.43 L 493.23 520.91 L 493.13 521.24 L 492.82 521.64 L 492.73 521.96 L 492.46 522.34 L 492.34 522.57 L 492.19 522.76 L 491.94 523.05 L 491.75 523.26 L 491.55 523.38 L 491.42 523.59 L 491.15 523.57 L 491.06 523.72 L 490.76 523.66 L 490.61 523.69 L 490.37 523.66 L 490.09 523.72 L 489.98 523.60 L 489.72 523.45 L 489.60 523.50 L 489.35 523.35 L 489.21 523.38 L 489.13 523.38 L 488.82 523.27 L 488.51 523.19 L 488.43 523.19 L 488.17 523.17 L 488.04 523.17" fill="none" stroke="black" stroke-width="1"/>
  <path d="M 488.05 523.08 L 487.60 522.98 L 487.20 522.68 L 486.82 522.51 L 486.29 522.28 L 485.87 522.00 L 485.34 521.89 L 484.96 521.80 L 484.39 521.49 L 483.99 521.38 L 483.45 521.09 L 482.91 520.93 L 482.55 520.70 L 482.07 520.42 L 481.72 520.30 L 481.32 520.21 L 480.98 519.91 L 480.66 519.76 L 480.36 519.51 L 480.12 519.27 L 479.88 519.12 L 479.76 518.84 L 479.55 518.72 L 479.43 518.53 L 479.37 518.33 L 479.44 518.11 L 479.30 517.93 L 479.39 517.66 L 479.32 517.54 L 479.39 517.46 L 479.40 517.14 L 479.43 516.86 L 479.53 516.75 L 479.51 516.60 L 479.67 516.36 L 479.68 516.18 L 479.81 515.96 L 479.94 515.74 L 479.91 515.57 L 479.87 515.32 L 479.96 515.18" fill="none" stroke="black" stroke-width="1"/>
  <path d="M 479.95 515.20 L 480.15 514.67 L 480.34 514.37 L 480.50 514.01 L 480.73 513.48 L 481.04 513.03 L 481.12 512.55 L 481.21 512.17 L 481.51 511.62 L 481.79 511.22 L 481.90 510.71 L 482.15 510.29 L 482.29 509.84 L 482.39 509.51 L 482.68 509.02 L 482.93 508.59 L 483.07 508.30 L 483.17 507.98 L 483.47 507.68 L 483.71 507.49 L 483.86 507.20 L 484.00 507.10 L 484.26 506.87 L 484.42 506.76 L 484.66 506.67 L 484.83 506.53 L 485.06 506.58 L 485.33 506.64 L 485.46 506.58 L 485.62 506.67 L 485.86 506.64 L 486.00 506.59 L 486.26 506.73 L 486.50 506.68 L 486.67 506.85 L 486.88 506.92 L 487.07 506.96 L 487.26 507.03 L 487.47 507.03 L 487.64 507.03 L 487.87 507.05" fill="none" stroke="black" stroke-width="1"/>
  <path d="M 487.96 506.99 L 488.37 507.26 L 488.81 507.39 L 489.18 507.67 L 489.71 507.79 L 490.20 507.96 L 490.65 508.19 L 491.05 508.34 L 491.60 508.58 L 492.05 508.67 L 492.52 508.98 L 493.03 509.18 L 493.41 509.38 L 493.87 509.60 L 494.23 509.77 L 494.55 510.08 L 494.96 510.17 L 495.20 510.32 L 495.58 510.57 L 495.77 510.71 L 496.05 510.97 L 496.26 511.13 L 496.37 511.37 L 496.37 511.46 L 496.54 511.77 L 496.48 512.06 L 496.60 512.18 L 496.60 512.40 L 496.57 512.58 L 496.56 512.78 L 496.47 512.99 L 496.29 513.16 L 496.33 513.39 L 496.31 513.59 L 496.18 513.79 L 496.06 513.95 L 496.03 514.20 L 495.92 514.36 L 495.92 514.60 L 495.94 514.78 L 495.86 515.01" fill="none" stroke="black" stroke-width="1"/>
  <path d="M 491.94 515.08 L 491.60 515.43 L 491.23 515.79 L 490.85 516.18 L 490.46 516.56 L 490.07 516.95 L 489.69 517.33 L 489.32 517.70 L 488.98 518.04 L 488.66 518.36 L 488.38 518.65 L 488.13 518.89 L 487.94 519.08 L 487.80 519.22 L 487.71 519.31 L 487.66 519.36 L 487.65 519.38 L 487.66 519.37 L 487.69 519.33 L 487.74 519.28 L 487.79 519.23 L 487.85 519.18 L 487.90 519.13 L 487.93 519.09 L 487.94 519.08" fill="none" stroke="black" stroke-width="1"/>
  <path d="M 487.94 519.08 L 483.94 515.08" fill="none" stroke="black" stroke-width="1"/>
  <path d="M 483.94 515.08 L 487.94 511.08" fill="none" stroke="black" stroke-width="1"/>
  <path d="M 487.94 511.08 L 491.94 515.08" fill="none" stroke="black" stroke-width="1"/>
  <path d="M 491.97 519.06 L 484.01 519.08" fill="none" stroke="black" stroke-width="1"/>
  <path d="M 483.99 519.04 L 483.95 511.18" fill="none" stroke="black" stroke-width="1"/>
  <path d="M 483.96 511.09 L 491.87 511.03" fill="none" stroke="black" stroke-width="1"/>
  <path d="M 492.09 510.98 L 491.83 519.01" fill="none" stroke="black" stroke-width="1"/>
  <path d="M 487.36 521.34 L 480.73 516.79" fill="none" stroke="black" stroke-width="1"/>
  <path d="M 476.01 527.18 L 476.44 527.47 L 476.77 527.58 L 477.25 527.68 L 477.50 528.00 L 477.96 528.23 L 478.22 528.44 L 478.58 528.57 L 478.93 528.88 L 479.31 529.17 L 479.65 529.31 L 480.03 529.48 L 480.39 529.73 L 480.77 529.87 L 481.17 530.12 L 481.65 530.38 L 481.99 530.46 L 482.41 530.66 L 482.87 530.75 L 483.28 530.85 L 483.83 530.98 L 484.25 531.13 L 484.87 531.13 L 485.49 531.29 L 485.98 531.22 L 486.64 531.34 L 487.15 531.26 L 487.77 531.23 L 488.36 531.26 L 488.99 531.35 L 489.62 531.23 L 490.23 531.28 L 490.89 531.18 L 491.63 531.18 L 492.17 531.12 L 492.77 531.09 L 493.45 531.06 L 494.08 531.01 L 494.71 531.02 L 495.31 531.02 L 495.94 531.01" fill="none" stroke="black" stroke-width="1"/>
  <path d="M 483.83 539.17 L 481.25 541.68 L 478.79 543.89 L 476.88 546.28 L 474.51 548.32 L 471.89 550.96" fill="none" stroke="black" stroke-width="1"/>
  <path d="M 472.11 542.92 L 470.03 545.82 L 467.82 548.98 L 466.24 552.09 L 464.00 555.21" fill="none" stroke="black" stroke-width="1"/>
  <path d="M 456.19 546.82 L 458.44 543.78 L 460.25 540.83 L 462.16 537.53 L 464.00 534.80" fill="none" stroke="black" stroke-width="1"/>
  <path d="M 436.01 539.13 L 433.26 533.81 L 430.75 528.36 L 427.95 523.00" fill="none" stroke="black" stroke-width="1"/>
  <path d="M 427.85 527.18 L 425.30 521.70 L 422.55 516.49 L 419.92 511.02" fill="none" stroke="black" stroke-width="1"/>
  <path d="M 423.94 535.13 L 427.88 541.05 L 431.91 547.19" fill="none" stroke="black" stroke-width="1"/>
  <path d="M 423.74 562.77 L 426.37 564.26 L 429.07 565.63 L 431.89 566.76" fill="none" stroke="black" stroke-width="1"/>
  <path d="M 435.96 571.17 L 437.86 565.01 L 439.84 559.04" fill="none" stroke="black" stroke-width="1"/>
  <path d="M 440.00 554.97 L 439.66 555.79 L 439.18 556.60 L 438.70 557.42 L 438.33 558.29 L 437.80 559.08 L 437.46 560.02 L 437.13 560.78 L 436.59 561.75 L 436.06 562.64 L 435.72 563.46 L 435.23 564.22 L 434.88 565.13 L 434.42 566.00 L 434.07 566.74 L 433.75 567.44 L 433.31 568.27 L 432.92 568.87 L 432.60 569.68 L 432.24 570.31 L 431.96 570.96 L 431.79 571.49 L 431.40 572.09 L 431.08 572.50 L 430.90 573.09 L 430.58 573.64 L 430.47 573.98 L 430.22 574.27 L 430.07 574.77 L 429.87 575.07 L 429.72 575.51 L 429.47 575.96 L 429.38 576.21 L 429.12 576.54 L 429.05 576.89 L 428.88 577.12 L 428.71 577.58 L 428.60 578.05 L 428.36 578.30 L 428.17 578.63 L 427.98 579.07" fill="none" stroke="black" stroke-width="1"/>
  <path d="M 427.95 579.15 L 428.59 579.20 L 429.18 579.20 L 429.77 579.19 L 430.43 579.32 L 431.15 579.33 L 431.71 579.50 L 432.46 579.50 L 432.98 579.68 L 433.60 579.82 L 434.25 579.85 L 434.89 579.98 L 435.50 579.95 L 436.14 580.00 L 436.71 579.96 L 437.19 579.79 L 437.88 579.83 L 438.44 579.67 L 438.99 579.54 L 439.62 579.19 L 440.03 579.05 L 440.62 578.59 L 440.99 578.33 L 441.38 577.90 L 441.88 577.41 L 442.24 576.81 L 442.71 576.32 L 443.00 575.67 L 443.49 575.11 L 443.83 574.52 L 444.24 573.79 L 444.52 573.21 L 444.97 572.42 L 445.34 571.63 L 445.69 571.02 L 446.02 570.41 L 446.41 569.64 L 446.83 568.98 L 447.15 568.30 L 447.49 567.59 L 447.92 567.04" fill="none" stroke="black" stroke-width="1"/>
</svg>