<svg xmlns="http://www.w3.org/2000/svg" width="800" height="600" viewBox="0 0 800 600">
  <rect width="100%" height="100%" fill="white"/>
  <path d="M 20.08 466.17 L 635.45 466.17" fill="none" stroke="black" stroke-width="1"/>
  <path d="M 635.47 466.20 L 633.93 466.68 L 632.46 467.06 L 631.07 467.36 L 629.54 467.83 L 628.06 468.12 L 626.69 468.56 L 625.26 468.95 L 623.86 469.27 L 622.38 469.69 L 620.99 470.01 L 619.47 470.41 L 618.05 470.80 L 616.59 471.20 L 614.98 471.70 L 613.28 472.23 L 611.76 472.73 L 610.05 473.30 L 608.31 473.94 L 606.46 474.65 L 604.61 475.36 L 602.67 476.26 L 600.56 477.04 L 598.31 477.98 L 596.14 478.97 L 593.83 480.12 L 591.45 481.10 L 588.95 482.25 L 586.57 483.37 L 584.00 484.51 L 581.60 485.72 L 579.16 486.97 L 576.64 488.11 L 574.26 489.26 L 571.77 490.48 L 569.41 491.60 L 567.08 492.76 L 564.83 493.78 L 562.66 494.92 L 560.65 495.96 L 558.61 496.88 L 556.76 497.74 L 554.91 498.67 L 553.23 499.53 L 551.48 500.36 L 549.85 501.14 L 548.25 501.96 L 546.79 502.79 L 545.20 503.50 L 543.80 504.19 L 542.27 504.99 L 540.79 505.72 L 539.41 506.45 L 537.97 507.14 L 536.58 507.90 L 535.10 508.71 L 533.74 509.35 L 532.21 510.13 L 530.84 510.83 L 529.25 511.56 L 527.83 512.35" fill="none" stroke="black" stroke-width="1"/>
  <path d="M 527.68 512.27 L 526.70 511.71 L 525.55 511.07 L 524.41 510.59 L 523.45 509.92 L 522.43 509.39 L 521.36 508.79 L 520.23 508.18 L 519.27 507.67 L 518.20 507.07 L 517.18 506.54 L 516.20 506.03 L 515.07 505.37 L 513.97 504.84 L 512.93 504.16 L 511.88 503.61 L 510.76 502.88 L 509.68 502.21 L 508.54 501.51 L 507.34 500.69 L 506.27 500.03 L 505.05 499.18 L 503.97 498.42 L 502.88 497.47 L 501.66 496.69 L 500.52 495.73 L 499.32 494.85 L 498.08 493.94 L 496.96 492.95 L 495.68 491.90 L 494.56 491.00 L 493.36 490.01 L 492.11 489.03 L 490.93 488.14 L 489.61 487.08 L 488.32 486.04 L 487.04 485.17 L 485.66 484.17 L 484.40 483.32 L 483.06 482.36 L 481.67 481.57 L 480.26 480.69 L 478.85 479.91 L 477.42 479.02 L 475.92 478.30 L 474.47 477.47 L 472.90 476.74 L 471.27 476.03 L 469.82 475.20 L 468.25 474.45 L 466.68 473.70 L 465.09 472.88 L 463.52 472.20 L 461.99 471.53 L 460.34 470.72 L 458.75 470.02 L 457.17 469.23 L 455.60 468.56 L 454.02 467.73 L 452.47 467.04 L 450.92 466.21" fill="none" stroke="black" stroke-width="1"/>
  <path d="M 466.16 466.08 L 465.45 466.46 L 464.70 466.92 L 463.94 467.27 L 463.36 467.61 L 462.80 467.87 L 462.08 468.22 L 461.52 468.49 L 460.81 468.80 L 460.18 469.19 L 459.51 469.43 L 458.87 469.81 L 458.13 470.17 L 457.41 470.54 L 456.63 471.07 L 455.77 471.71 L 454.96 472.21 L 454.01 472.85 L 453.07 473.65 L 452.05 474.63 L 450.91 475.46 L 449.63 476.54 L 448.46 477.66 L 447.05 478.88 L 445.74 480.24 L 444.22 481.71 L 442.81 483.11 L 441.25 484.69 L 439.71 486.21 L 438.01 487.84 L 436.48 489.49 L 434.74 491.22 L 433.17 492.87 L 431.51 494.52 L 429.83 496.29 L 428.15 497.97 L 426.51 499.70 L 424.91 501.38 L 423.24 503.01 L 421.70 504.59 L 420.09 506.18 L 418.53 507.63 L 417.00 509.26 L 415.52 510.86 L 413.92 512.33 L 412.30 513.83 L 410.83 515.40 L 409.29 516.88 L 407.74 518.47 L 406.16 520.08 L 404.66 521.54 L 403.12 523.15 L 401.57 524.62 L 400.06 526.19 L 398.48 527.69 L 396.90 529.26 L 395.39 530.76 L 393.77 532.28 L 392.30 533.83 L 390.82 535.36 L 389.22 536.91" fill="none" stroke="black" stroke-width="1"/>
  <path d="M 389.29 537.00 L 387.77 536.10 L 386.21 535.20 L 384.71 534.29 L 383.13 533.49 L 381.63 532.67 L 380.04 531.82 L 378.58 531.00 L 376.96 530.17 L 375.40 529.39 L 373.88 528.49 L 372.30 527.63 L 370.80 526.75 L 369.30 525.87 L 367.72 524.91 L 366.18 524.00 L 364.64 522.94 L 363.07 521.95 L 361.56 520.80 L 360.01 519.67 L 358.48 518.45 L 356.97 517.22 L 355.41 515.83 L 353.94 514.35 L 352.34 512.94 L 350.85 511.44 L 349.27 509.84 L 347.74 508.20 L 346.20 506.59 L 344.69 504.98 L 343.13 503.27 L 341.63 501.60 L 340.06 499.93 L 338.46 498.27 L 336.99 496.65 L 335.40 495.13 L 333.92 493.47 L 332.45 491.98 L 330.85 490.48 L 329.26 489.18 L 327.77 487.72 L 326.16 486.45 L 324.69 485.20 L 323.21 484.00 L 321.61 482.83 L 320.04 481.78 L 318.53 480.59 L 317.05 479.47 L 315.44 478.46 L 313.84 477.43 L 312.36 476.40 L 310.86 475.32 L 309.27 474.38 L 307.79 473.37 L 306.19 472.38 L 304.60 471.39 L 303.10 470.37 L 301.56 469.39 L 300.02 468.33 L 298.56 467.24 L 296.93 466.22" fill="none" stroke="black" stroke-width="1"/>
  <path d="M 327.77 466.24 L 327.07 466.97 L 326.25 467.70 L 325.54 468.30 L 324.77 469.05 L 324.11 469.78 L 323.32 470.33 L 322.52 470.93 L 321.87 471.60 L 321.12 472.20 L 320.41 472.91 L 319.65 473.68 L 318.92 474.29 L 318.06 474.96 L 317.38 475.79 L 316.62 476.65 L 315.77 477.46 L 314.99 478.42 L 314.08 479.35 L 313.22 480.46 L 312.29 481.50 L 311.44 482.72 L 310.43 483.88 L 309.52 485.13 L 308.53 486.41 L 307.64 487.67 L 306.59 489.10 L 305.50 490.59 L 304.59 491.94 L 303.53 493.43 L 302.52 494.94 L 301.42 496.49 L 300.37 498.09 L 299.19 499.65 L 298.14 501.39 L 296.98 503.08 L 295.81 504.85 L 294.56 506.71 L 293.38 508.47 L 292.19 510.30 L 290.83 512.25 L 289.38 514.27 L 288.11 516.36 L 286.61 518.66 L 285.18 520.91 L 283.68 523.30 L 282.11 525.78 L 280.59 528.24 L 278.92 530.84 L 277.23 533.46 L 275.67 535.98 L 274.00 538.49 L 272.40 541.07 L 270.83 543.58 L 269.17 545.99 L 267.66 548.28 L 266.01 550.63 L 264.47 552.78 L 262.97 554.85 L 261.49 556.72 L 260.11 558.55 L 258.68 560.18 L 257.39 561.70 L 256.17 563.05 L 254.78 564.43 L 253.61 565.57 L 252.26 566.81 L 250.98 567.90 L 249.80 568.92 L 248.61 569.92 L 247.39 570.83 L 246.23 571.69 L 245.01 572.61 L 243.84 573.41 L 242.65 574.35 L 241.43 575.29 L 240.27 576.11 L 239.05 576.99 L 237.88 577.97 L 236.72 579.04 L 235.44 580.00" fill="none" stroke="black" stroke-width="1"/>
  <path d="M 235.45 579.93 L 234.30 579.34 L 232.97 578.77 L 231.66 578.31 L 230.46 577.70 L 229.12 577.23 L 227.94 576.68 L 226.75 576.26 L 225.42 575.68 L 224.14 575.09 L 222.90 574.65 L 221.73 574.12 L 220.40 573.55 L 219.15 572.94 L 217.93 572.36 L 216.64 571.73 L 215.49 571.02 L 214.29 570.21 L 213.10 569.51 L 211.92 568.69 L 210.77 567.79 L 209.58 566.95 L 208.54 565.92 L 207.49 564.89 L 206.43 564.00 L 205.46 562.91 L 204.41 561.98 L 203.38 560.97 L 202.43 559.84 L 201.36 558.77 L 200.46 557.56 L 199.42 556.26 L 198.46 555.11 L 197.49 553.78 L 196.39 552.46 L 195.38 550.99 L 194.21 549.59 L 192.98 548.10 L 191.88 546.47 L 190.68 544.84 L 189.37 543.07 L 188.02 541.14 L 186.66 539.26 L 185.21 537.07 L 183.79 534.97 L 182.25 532.66 L 180.79 530.32 L 179.24 527.89 L 177.68 525.42 L 176.17 522.84 L 174.50 520.37 L 172.80 517.92 L 171.26 515.30 L 169.57 512.84 L 168.01 510.31 L 166.41 507.95 L 164.78 505.51 L 163.22 503.22 L 161.58 501.00 L 160.04 498.91 L 158.45 496.91 L 156.95 495.03 L 155.37 493.21 L 153.85 491.45 L 152.29 489.76 L 150.78 488.13 L 149.22 486.53 L 147.65 484.93 L 146.15 483.47 L 144.63 482.01 L 143.08 480.54 L 141.53 479.13 L 140.01 477.68 L 138.41 476.18 L 136.94 474.85 L 135.43 473.42 L 133.87 472.00 L 132.34 470.63 L 130.80 469.09 L 129.25 467.62 L 127.73 466.08" fill="none" stroke="black" stroke-width="1"/>
  <path d="M 97.00 447.71 L 66.23 450.78" fill="none" stroke="black" stroke-width="1"/>
  <path d="M 93.94 389.55 L 100.06 388.95" fill="none" stroke="black" stroke-width="1"/>
  <path d="M 127.77 367.71 L 123.37 367.97 L 118.91 368.22 L 114.41 368.48 L 109.88 368.74 L 105.35 368.99 L 100.85 369.25 L 96.39 369.50 L 91.99 369.76 L 87.68 370.02 L 83.47 370.27 L 79.39 370.53 L 75.46 370.79 L 71.70 371.04 L 68.09 371.30 L 64.60 371.56 L 61.22 371.81 L 57.93 372.07 L 54.70 372.33 L 51.51 372.58 L 48.34 372.84 L 45.18 373.09 L 41.99 373.35 L 38.76 373.61 L 35.47 373.86" fill="none" stroke="black" stroke-width="1"/>
  <path d="M 20.08 343.10 L 25.71 342.85 L 31.33 342.62 L 36.93 342.40 L 42.53 342.18 L 48.13 341.97 L 53.73 341.75 L 59.35 341.52 L 64.98 341.27 L 70.63 341.00 L 76.31 340.71 L 82.02 340.38 L 87.77 340.02 L 93.56 339.61 L 99.39 339.17 L 105.25 338.70 L 111.13 338.20 L 117.04 337.67 L 122.96 337.13 L 128.90 336.58 L 134.84 336.03 L 140.78 335.48 L 146.71 334.93 L 152.63 334.39 L 158.54 333.87" fill="none" stroke="black" stroke-width="1"/>
  <path d="M 173.92 355.40 L 112.39 358.48" fill="none" stroke="black" stroke-width="1"/>
  <path d="M 84.67 327.35 L 78.56 328.07" fill="none" stroke="black" stroke-width="1"/>
  <path d="M 125.29 298.69 L 130.36 295.08" fill="none" stroke="black" stroke-width="1"/>
  <path d="M 171.11 313.58 L 176.73 311.07" fill="none" stroke="black" stroke-width="1"/>
  <path d="M 227.67 314.82 L 231.00 309.68" fill="none" stroke="black" stroke-width="1"/>
  <path d="M 313.92 373.86 L 312.38 375.40 L 310.84 373.86 L 312.38 372.33 L 313.92 373.86" fill="none" stroke="black" stroke-width="1"/>
  <path d="M 192.31 382.43 L 186.30 383.76" fill="none" stroke="black" stroke-width="1"/>
  <path d="M 204.69 395.40 L 199.56 395.66 L 194.44 395.91 L 189.31 396.17 L 184.18 396.43 L 179.05 396.68 L 173.92 396.94 L 168.79 397.20 L 163.67 397.45 L 158.54 397.71 L 153.41 397.97 L 148.28 398.22 L 143.15 398.48 L 138.03 398.73 L 132.90 398.99 L 127.77 399.25 L 122.64 399.50 L 117.51 399.76 L 112.39 400.02 L 107.26 400.27 L 102.13 400.53 L 97.00 400.79 L 91.87 401.04 L 86.75 401.30 L 81.62 401.56 L 76.49 401.81 L 71.36 402.07 L 66.23 402.32 L 61.11 402.58 L 55.98 402.84 L 50.85 403.09 L 45.72 403.35 L 40.59 403.61 L 35.47 403.86 L 30.34 404.12 L 25.21 404.38 L 20.08 404.63" fill="none" stroke="black" stroke-width="1"/>
  <path d="M 41.63 414.08 L 47.77 413.64" fill="none" stroke="black" stroke-width="1"/>
  <path d="M 53.93 435.59 L 60.08 435.21" fill="none" stroke="black" stroke-width="1"/>
  <path d="M 20.13 466.18 L 21.64 467.15 L 23.24 468.25 L 24.76 469.13 L 26.38 470.19 L 27.91 471.06 L 29.55 472.06 L 31.16 472.92 L 32.73 473.91 L 34.23 474.85 L 35.89 475.80 L 37.43 476.85 L 39.03 477.78 L 40.59 478.90 L 42.11 479.91 L 43.64 481.07 L 45.13 482.24 L 46.68 483.45 L 48.06 484.82 L 49.53 486.31 L 50.89 487.73 L 52.21 489.46 L 53.61 491.06 L 54.85 493.02 L 56.25 494.84 L 57.57 496.80 L 58.82 498.95 L 60.00 501.11 L 61.32 503.28 L 62.55 505.55 L 63.76 507.72 L 65.02 509.98 L 66.16 512.16 L 67.28 514.41 L 68.52 516.49 L 69.60 518.59 L 70.86 520.60 L 72.09 522.41 L 73.17 524.37 L 74.26 525.99 L 75.48 527.71 L 76.60 529.14 L 77.76 530.61 L 78.92 531.98 L 79.98 533.20 L 81.00 534.29 L 82.16 535.53 L 83.28 536.63 L 84.30 537.66 L 85.37 538.72 L 86.42 539.64 L 87.55 540.55 L 88.52 541.53 L 89.59 542.52 L 90.62 543.38 L 91.66 544.32 L 92.72 545.25 L 93.83 546.19 L 94.84 547.19 L 95.89 548.31 L 96.97 549.27" fill="none" stroke="black" stroke-width="1"/>
  <path d="M 97.07 549.25 L 98.08 547.64 L 99.20 546.19 L 100.25 544.76 L 101.32 543.18 L 102.39 541.78 L 103.42 540.20 L 104.38 538.78 L 105.52 537.22 L 106.56 535.77 L 107.63 534.22 L 108.62 532.74 L 109.75 531.20 L 110.80 529.76 L 111.89 528.13 L 113.05 526.60 L 114.07 524.99 L 115.13 523.30 L 116.29 521.77 L 117.36 520.17 L 118.56 518.45 L 119.81 516.59 L 120.94 514.91 L 122.16 513.08 L 123.43 511.12 L 124.63 509.07 L 125.99 507.16 L 127.28 505.19 L 128.60 503.11 L 129.90 501.07 L 131.22 499.06 L 132.45 497.02 L 133.80 495.08 L 135.06 493.19 L 136.32 491.26 L 137.47 489.53 L 138.74 487.69 L 139.93 485.98 L 141.01 484.44 L 142.10 483.04 L 143.11 481.59 L 144.15 480.38 L 145.02 479.18 L 145.87 478.22 L 146.78 477.14 L 147.56 476.23 L 148.41 475.39 L 149.18 474.59 L 149.94 473.88 L 150.71 473.27 L 151.39 472.54 L 152.06 471.85 L 152.80 471.31 L 153.41 470.72 L 154.20 470.12 L 154.90 469.53 L 155.60 468.90 L 156.37 468.33 L 157.03 467.61 L 157.72 466.95 L 158.53 466.16" fill="none" stroke="black" stroke-width="1"/>
  <path d="M 146.30 442.21 L 152.31 440.90" fill="none" stroke="black" stroke-width="1"/>
  <path d="M 138.54 426.17 L 137.00 424.63 L 135.46 426.17 L 137.00 427.71 L 138.54 426.17" fill="none" stroke="black" stroke-width="1"/>
  <path d="M 173.92 456.94 L 198.54 453.86" fill="none" stroke="black" stroke-width="1"/>
  <path d="M 250.84 426.17 L 312.38 420.02" fill="none" stroke="black" stroke-width="1"/>
  <path d="M 309.30 413.86 L 253.92 416.94" fill="none" stroke="black" stroke-width="1"/>
  <path d="M 281.61 404.63 L 303.15 401.56" fill="none" stroke="black" stroke-width="1"/>
  <path d="M 324.93 405.82 L 330.60 403.44" fill="none" stroke="black" stroke-width="1"/>
  <path d="M 352.38 389.25 L 373.92 386.17" fill="none" stroke="black" stroke-width="1"/>
  <path d="M 389.30 456.94 L 401.61 463.09" fill="none" stroke="black" stroke-width="1"/>
  <path d="M 401.61 456.94 L 407.76 435.40" fill="none" stroke="black" stroke-width="1"/>
  <path d="M 404.68 420.02 L 413.91 389.25" fill="none" stroke="black" stroke-width="1"/>
  <path d="M 421.95 397.84 L 418.19 392.97" fill="none" stroke="black" stroke-width="1"/>
  <path d="M 413.90 379.93 L 417.02 376.92 L 419.98 373.89" fill="none" stroke="black" stroke-width="1"/>
  <path d="M 420.12 373.80 L 423.19 370.66 L 426.18 367.62 L 429.29 364.66" fill="none" stroke="black" stroke-width="1"/>
  <path d="M 432.45 364.72 L 436.50 361.59 L 440.59 358.64 L 444.62 355.47" fill="none" stroke="black" stroke-width="1"/>
  <path d="M 441.58 355.18 L 439.44 355.48 L 437.61 355.58 L 435.49 355.43" fill="none" stroke="black" stroke-width="1"/>
  <path d="M 432.44 349.30 L 432.91 349.08 L 433.36 348.68 L 433.76 348.36 L 434.29 348.09 L 434.77 347.78 L 435.21 347.51 L 435.75 347.24 L 436.13 346.93 L 436.61 346.58 L 437.05 346.34 L 437.56 346.13 L 437.97 345.74 L 438.38 345.51 L 438.89 345.12 L 439.28 344.72 L 439.81 344.46 L 440.27 344.05 L 440.73 343.77 L 441.21 343.46 L 441.65 343.02 L 442.15 342.70 L 442.57 342.22 L 442.94 341.83 L 443.48 341.36 L 443.99 340.93 L 444.40 340.47 L 444.80 340.01 L 445.31 339.54 L 445.72 339.08 L 446.22 338.59 L 446.75 338.18 L 447.13 337.63 L 447.55 337.16 L 448.04 336.66 L 448.55 336.21 L 448.95 335.69 L 449.42 335.25 L 449.87 334.73 L 450.26 334.26 L 450.78 333.80" fill="none" stroke="black" stroke-width="1"/>
  <path d="M 441.68 349.03 L 441.93 349.97 L 441.82 351.56 L 441.83 352.54" fill="none" stroke="black" stroke-width="1"/>
  <path d="M 440.03 352.28 L 438.49 350.75 L 436.95 352.28 L 438.49 353.82 L 440.03 352.28" fill="none" stroke="black" stroke-width="1"/>
  <path d="M 447.84 349.20 L 447.97 348.81 L 448.13 348.28 L 448.20 347.88 L 448.43 347.34 L 448.51 346.86 L 448.72 346.38 L 448.90 345.94 L 449.01 345.42 L 449.18 344.92 L 449.31 344.47 L 449.48 344.00 L 449.60 343.53 L 449.72 343.11 L 449.90 342.62 L 450.02 342.19 L 450.19 341.74 L 450.28 341.32 L 450.50 340.90 L 450.58 340.43 L 450.80 340.10 L 450.98 339.78 L 451.11 339.36 L 451.20 338.98 L 451.42 338.67 L 451.57 338.31 L 451.73 338.02 L 451.85 337.66 L 452.05 337.41 L 452.19 337.07 L 452.37 336.81 L 452.56 336.52 L 452.69 336.23 L 452.79 335.94 L 453.01 335.66 L 453.13 335.35 L 453.33 335.08 L 453.53 334.86 L 453.65 334.49 L 453.89 334.14 L 453.97 333.88" fill="none" stroke="black" stroke-width="1"/>
  <path d="M 463.20 306.08 L 462.11 310.24 L 461.13 314.29 L 460.12 318.44" fill="none" stroke="black" stroke-width="1"/>
  <path d="M 453.91 315.33 L 455.88 310.27 L 458.05 305.10 L 460.07 300.06" fill="none" stroke="black" stroke-width="1"/>
  <path d="M 475.36 290.76 L 471.64 286.21 L 467.66 281.58 L 464.00 276.91 L 460.10 272.24" fill="none" stroke="black" stroke-width="1"/>
  <path d="M 460.08 266.10 L 460.16 265.27 L 460.40 264.59 L 460.63 263.76 L 460.75 263.10 L 460.88 262.30 L 461.10 261.63 L 461.20 260.93 L 461.46 260.16 L 461.61 259.51 L 461.82 258.69 L 461.93 258.01 L 462.16 257.20 L 462.23 256.42 L 462.47 255.68 L 462.59 254.81 L 462.75 254.12 L 462.86 253.30 L 462.98 252.52 L 463.03 251.65 L 463.17 250.86 L 463.17 250.03 L 463.29 249.13 L 463.34 248.16 L 463.36 247.35 L 463.33 246.47 L 463.38 245.52 L 463.30 244.60 L 463.38 243.66 L 463.37 242.68 L 463.34 241.77 L 463.37 240.72 L 463.29 239.86 L 463.19 238.83 L 463.24 237.94 L 463.25 236.91 L 463.19 236.03 L 463.15 235.10 L 463.15 234.13 L 463.22 233.13 L 463.13 232.25" fill="none" stroke="black" stroke-width="1"/>
  <path d="M 466.22 241.56 L 471.35 241.31 L 476.48 241.08 L 481.60 240.86 L 486.73 240.65 L 491.86 240.43 L 496.99 240.21 L 502.12 239.98 L 507.25 239.74 L 512.37 239.47 L 517.50 239.17 L 522.63 238.85 L 527.76 238.48 L 532.93 238.07 L 538.19 237.60 L 543.50 237.09 L 548.84 236.55 L 554.18 235.98 L 559.49 235.41 L 564.74 234.83 L 569.92 234.27 L 574.99 233.72 L 579.93 233.21 L 584.70 232.74 L 589.29 232.33 L 593.68 231.97 L 597.88 231.64 L 601.91 231.34 L 605.82 231.08 L 609.61 230.83 L 613.33 230.60 L 616.99 230.38 L 620.63 230.16 L 624.27 229.95 L 627.93 229.73 L 631.65 229.50 L 635.45 229.25" fill="none" stroke="black" stroke-width="1"/>
  <path d="M 600.23 279.04 L 596.82 283.97" fill="none" stroke="black" stroke-width="1"/>
  <path d="M 591.91 319.93 L 586.68 323.18" fill="none" stroke="black" stroke-width="1"/>
  <path d="M 559.93 318.81 L 557.24 324.19" fill="none" stroke="black" stroke-width="1"/>
  <path d="M 555.70 335.09 L 561.35 332.64" fill="none" stroke="black" stroke-width="1"/>
  <path d="M 567.76 358.48 L 496.99 364.63" fill="none" stroke="black" stroke-width="1"/>
  <path d="M 512.37 352.33 L 517.50 352.08 L 522.63 351.85 L 527.76 351.63 L 532.89 351.41 L 538.01 351.20 L 543.14 350.98 L 548.27 350.75 L 553.40 350.50 L 558.53 350.23 L 563.65 349.94 L 568.78 349.61 L 573.91 349.25 L 579.04 348.84 L 584.17 348.40 L 589.29 347.93 L 594.42 347.43 L 599.55 346.90 L 604.68 346.36 L 609.81 345.82 L 614.93 345.26 L 620.06 344.71 L 625.19 344.16 L 630.32 343.62 L 635.45 343.10" fill="none" stroke="black" stroke-width="1"/>
  <path d="M 620.06 373.86 L 616.22 374.39 L 612.37 374.92 L 608.52 375.47 L 604.68 376.03 L 600.83 376.58 L 596.99 377.13 L 593.14 377.67 L 589.29 378.19 L 585.45 378.70 L 581.60 379.17 L 577.76 379.61 L 573.91 380.02 L 570.06 380.38 L 566.22 380.71 L 562.37 381.00 L 558.53 381.27 L 554.68 381.52 L 550.83 381.75 L 546.99 381.97 L 543.14 382.18 L 539.30 382.40 L 535.45 382.62 L 531.60 382.85 L 527.76 383.09" fill="none" stroke="black" stroke-width="1"/>
  <path d="M 540.14 396.10 L 546.14 394.71" fill="none" stroke="black" stroke-width="1"/>
  <path d="M 586.28 389.87 L 592.31 388.62" fill="none" stroke="black" stroke-width="1"/>
  <path d="M 635.45 404.63 L 630.32 404.89 L 625.19 405.14 L 620.06 405.40 L 614.93 405.66 L 609.81 405.91 L 604.68 406.17 L 599.55 406.43 L 594.42 406.68 L 589.29 406.94 L 584.17 407.20 L 579.04 407.45 L 573.91 407.71 L 568.78 407.97 L 563.65 408.22 L 558.53 408.48 L 553.40 408.73 L 548.27 408.99 L 543.14 409.25 L 538.01 409.50 L 532.89 409.76 L 527.76 410.02 L 522.63 410.27 L 517.50 410.53 L 512.37 410.79 L 507.25 411.04 L 502.12 411.30 L 496.99 411.55 L 491.86 411.81 L 486.73 412.07 L 481.60 412.32 L 476.48 412.58 L 471.35 412.84 L 466.22 413.09 L 461.09 413.35 L 455.96 413.61 L 450.84 413.86" fill="none" stroke="black" stroke-width="1"/>
  <path d="M 481.60 453.86 L 518.53 450.78" fill="none" stroke="black" stroke-width="1"/>
  <path d="M 573.91 456.94 L 610.83 453.86" fill="none" stroke="black" stroke-width="1"/>
  <path d="M 601.55 444.07 L 595.50 445.19" fill="none" stroke="black" stroke-width="1"/>
  <path d="M 555.56 439.29 L 561.49 437.66" fill="none" stroke="black" stroke-width="1"/>
  <path d="M 540.01 419.42 L 533.97 420.61" fill="none" stroke="black" stroke-width="1"/>
  <path d="M 513.91 432.32 L 512.37 430.78 L 510.83 432.32 L 512.37 433.86 L 513.91 432.32" fill="none" stroke="black" stroke-width="1"/>
  <path d="M 441.55 361.54 L 437.53 363.59 L 433.52 365.66 L 429.38 367.66" fill="none" stroke="black" stroke-width="1"/>
  <path d="M 427.80 367.71 L 426.26 369.25 L 424.72 367.71 L 426.26 366.17 L 427.80 367.71" fill="none" stroke="black" stroke-width="1"/>
  <path d="M 423.22 370.72 L 420.07 373.77 L 417.01 376.89" fill="none" stroke="black" stroke-width="1"/>
  <path d="M 413.93 373.87 L 410.89 376.99 L 407.71 380.04" fill="none" stroke="black" stroke-width="1"/>
  <path d="M 395.45 373.86 L 404.68 343.10" fill="none" stroke="black" stroke-width="1"/>
  <path d="M 407.81 355.46 L 406.24 360.09 L 404.60 364.68" fill="none" stroke="black" stroke-width="1"/>
  <path d="M 407.74 361.47 L 404.67 366.08 L 401.69 370.75" fill="none" stroke="black" stroke-width="1"/>
  <path d="M 401.58 355.49 L 398.48 358.56 L 395.35 361.54 L 392.35 364.64" fill="none" stroke="black" stroke-width="1"/>
  <path d="M 395.45 352.24 L 396.95 347.62 L 398.55 343.16" fill="none" stroke="black" stroke-width="1"/>
  <path d="M 395.53 340.06 L 393.38 334.89 L 391.46 329.68 L 389.35 324.59" fill="none" stroke="black" stroke-width="1"/>
  <path d="M 390.26 324.61 L 388.41 318.76" fill="none" stroke="black" stroke-width="1"/>
  <path d="M 383.12 315.40 L 383.41 316.10 L 383.74 316.95 L 383.97 317.64 L 384.37 318.50 L 384.62 319.30 L 384.99 320.05 L 385.34 320.78 L 385.61 321.60 L 385.92 322.41 L 386.24 323.14 L 386.51 323.86 L 386.86 324.69 L 387.16 325.41 L 387.48 326.24 L 387.79 327.08 L 388.10 327.79 L 388.47 328.63 L 388.72 329.33 L 389.00 330.02 L 389.33 330.87 L 389.63 331.59 L 389.94 332.41 L 390.19 333.12 L 390.55 333.95 L 390.91 334.75 L 391.15 335.49 L 391.40 336.21 L 391.76 337.02 L 392.15 337.76 L 392.36 338.56 L 392.69 339.27 L 392.96 340.09 L 393.22 340.86 L 393.56 341.63 L 393.90 342.32 L 394.17 343.16 L 394.42 343.91 L 394.77 344.70 L 395.10 345.50 L 395.37 346.23" fill="none" stroke="black" stroke-width="1"/>
  <path d="M 392.29 349.31 L 389.23 353.92 L 386.22 358.51" fill="none" stroke="black" stroke-width="1"/>
  <path d="M 384.77 355.07 L 381.65 349.65" fill="none" stroke="black" stroke-width="1"/>
  <path d="M 380.16 346.13 L 381.18 342.04 L 382.18 337.85 L 383.12 333.78" fill="none" stroke="black" stroke-width="1"/>
  <path d="M 382.12 337.83 L 378.00 342.24" fill="none" stroke="black" stroke-width="1"/>
  <path d="M 388.56 340.19 L 390.27 346.12" fill="none" stroke="black" stroke-width="1"/>
  <path d="M 392.34 343.11 L 390.27 338.97 L 388.38 334.98 L 386.28 330.80" fill="none" stroke="black" stroke-width="1"/>
  <path d="M 387.20 330.56 L 384.93 324.73" fill="none" stroke="black" stroke-width="1"/>
  <path d="M 384.02 327.60 L 382.35 321.61" fill="none" stroke="black" stroke-width="1"/>
  <path d="M 378.39 324.91 L 375.50 330.24" fill="none" stroke="black" stroke-width="1"/>
  <path d="M 377.02 330.81 L 378.02 326.64 L 379.11 322.61 L 380.04 318.52" fill="none" stroke="black" stroke-width="1"/>
  <path d="M 385.07 321.84 L 387.36 327.51" fill="none" stroke="black" stroke-width="1"/>
  <path d="M 391.17 327.92 L 393.41 333.72" fill="none" stroke="black" stroke-width="1"/>
  <path d="M 390.66 339.60 L 387.92 334.12" fill="none" stroke="black" stroke-width="1"/>
  <path d="M 389.24 333.91 L 387.24 328.76 L 385.30 323.68 L 383.22 318.55" fill="none" stroke="black" stroke-width="1"/>
  <path d="M 383.12 318.57 L 381.08 314.38 L 379.10 310.42 L 377.08 306.25" fill="none" stroke="black" stroke-width="1"/>
  <path d="M 380.01 299.93 L 383.13 304.99 L 386.08 310.14 L 389.22 315.33" fill="none" stroke="black" stroke-width="1"/>
  <path d="M 395.23 306.19 L 395.77 312.36" fill="none" stroke="black" stroke-width="1"/>
  <path d="M 404.62 315.53 L 404.89 309.29" fill="none" stroke="black" stroke-width="1"/>
  <path d="M 404.67 303.16 L 405.34 297.65 L 406.00 292.06 L 406.55 286.55 L 407.09 280.92 L 407.80 275.39" fill="none" stroke="black" stroke-width="1"/>
  <path d="M 413.99 281.65 L 414.43 276.59 L 414.94 271.29 L 415.56 266.20 L 416.07 261.15 L 416.57 255.92 L 417.02 250.80" fill="none" stroke="black" stroke-width="1"/>
  <path d="M 419.99 241.53 L 419.45 246.68 L 419.06 251.72 L 418.44 256.87 L 418.02 262.12 L 417.56 267.19 L 417.03 272.29" fill="none" stroke="black" stroke-width="1"/>
  <path d="M 429.24 278.44 L 428.72 283.40 L 427.96 288.22 L 427.36 293.21 L 426.85 298.03 L 426.19 303.03" fill="none" stroke="black" stroke-width="1"/>
  <path d="M 436.39 309.30 L 434.67 315.11" fill="none" stroke="black" stroke-width="1"/>
  <path d="M 443.73 312.15 L 445.76 306.46" fill="none" stroke="black" stroke-width="1"/>
  <path d="M 450.91 296.87 L 451.62 291.96 L 452.09 287.01 L 452.68 282.17 L 453.38 277.25 L 454.00 272.31" fill="none" stroke="black" stroke-width="1"/>
  <path d="M 438.45 272.29 L 438.93 266.73 L 439.51 260.99 L 440.04 255.49 L 440.54 249.78 L 441.22 244.24 L 441.67 238.57" fill="none" stroke="black" stroke-width="1"/>
  <path d="M 438.44 220.07 L 443.03 217.68 L 447.67 215.52 L 452.32 213.20 L 456.97 210.80" fill="none" stroke="black" stroke-width="1"/>
  <path d="M 453.92 210.72 L 454.64 205.43 L 455.43 200.01 L 456.26 194.52 L 457.07 189.16 L 457.77 183.83 L 458.48 178.46 L 459.30 173.01 L 460.04 167.71" fill="none" stroke="black" stroke-width="1"/>
  <path d="M 450.86 167.75 L 446.21 169.30 L 441.72 170.94 L 437.05 172.34 L 432.40 173.96" fill="none" stroke="black" stroke-width="1"/>
  <path d="M 432.33 204.59 L 432.73 199.22 L 433.14 193.87 L 433.45 188.46 L 433.92 183.06 L 434.19 177.79 L 434.71 172.26 L 435.00 166.86 L 435.43 161.58" fill="none" stroke="black" stroke-width="1"/>
  <path d="M 435.45 149.34 L 435.94 144.12 L 436.30 138.77 L 436.85 133.53 L 437.27 128.23 L 437.55 122.85 L 438.00 117.53 L 438.50 112.32" fill="none" stroke="black" stroke-width="1"/>
  <path d="M 407.82 112.29 L 407.30 117.58 L 406.94 122.82 L 406.54 128.07 L 406.05 133.41 L 405.57 138.66 L 405.18 143.85 L 404.78 149.19" fill="none" stroke="black" stroke-width="1"/>
  <path d="M 389.33 173.86 L 393.95 172.32 L 398.62 170.82 L 403.17 169.26 L 407.81 167.72" fill="none" stroke="black" stroke-width="1"/>
  <path d="M 395.43 167.67 L 394.65 173.08 L 393.92 178.45 L 393.20 183.86 L 392.36 189.18 L 391.65 194.55 L 390.85 200.03 L 390.20 205.37 L 389.38 210.81" fill="none" stroke="black" stroke-width="1"/>
  <path d="M 383.19 219.96 L 387.85 217.60 L 392.35 215.45 L 396.99 213.14 L 401.66 210.79" fill="none" stroke="black" stroke-width="1"/>
  <path d="M 410.78 204.57 L 411.10 198.72 L 411.62 193.04 L 412.00 187.17 L 412.33 181.57 L 412.64 175.72 L 413.10 169.88 L 413.45 164.12 L 413.84 158.41" fill="none" stroke="black" stroke-width="1"/>
  <path d="M 420.15 158.42 L 419.77 164.15 L 419.24 169.93 L 418.71 175.65 L 418.37 181.30 L 417.85 187.15 L 417.43 192.86 L 416.91 198.54" fill="none" stroke="black" stroke-width="1"/>
  <path d="M 420.05 204.60 L 420.05 210.82 L 420.06 216.98 L 419.96 223.10 L 419.94 229.16 L 419.92 235.34 L 419.98 241.52" fill="none" stroke="black" stroke-width="1"/>
  <path d="M 401.63 235.40 L 400.62 240.46 L 399.54 245.76 L 398.54 250.79 L 397.50 256.05 L 396.47 261.18 L 395.40 266.25" fill="none" stroke="black" stroke-width="1"/>
  <path d="M 389.25 272.34 L 387.96 277.28 L 386.86 282.22 L 385.68 287.12 L 384.32 291.91 L 383.14 296.89" fill="none" stroke="black" stroke-width="1"/>
  <path d="M 364.73 290.77 L 368.63 286.12 L 372.28 281.50 L 376.13 276.88 L 380.01 272.33" fill="none" stroke="black" stroke-width="1"/>
  <path d="M 373.88 260.10 L 374.04 259.35 L 374.17 258.55 L 374.32 257.81 L 374.44 256.99 L 374.49 256.27 L 374.69 255.43 L 374.89 254.68 L 374.94 253.87 L 375.03 253.12 L 375.20 252.31 L 375.31 251.56 L 375.47 250.76 L 375.56 249.89 L 375.77 249.20 L 375.98 248.39 L 376.11 247.65 L 376.25 246.87 L 376.48 246.10 L 376.64 245.32 L 376.92 244.55 L 377.20 243.77 L 377.41 243.01 L 377.73 242.20 L 377.96 241.48 L 378.28 240.73 L 378.55 239.94 L 378.81 239.23 L 379.18 238.41 L 379.55 237.62 L 379.83 236.89 L 380.10 236.17 L 380.50 235.36 L 380.83 234.66 L 381.17 233.83 L 381.59 233.11 L 381.84 232.30 L 382.22 231.47 L 382.50 230.78 L 382.77 230.06 L 383.14 229.25" fill="none" stroke="black" stroke-width="1"/>
  <path d="M 355.41 223.07 L 355.54 216.86" fill="none" stroke="black" stroke-width="1"/>
  <path d="M 355.18 213.79 L 355.72 207.76" fill="none" stroke="black" stroke-width="1"/>
  <path d="M 352.61 198.49 L 352.23 192.34" fill="none" stroke="black" stroke-width="1"/>
  <path d="M 352.44 189.34 L 351.89 188.53 L 351.20 187.73 L 350.59 186.83 L 349.97 186.01 L 349.43 185.07 L 348.73 184.23 L 348.11 183.30 L 347.50 182.44 L 346.88 181.50 L 346.26 180.68 L 345.69 179.84 L 345.03 178.99 L 344.44 178.17 L 343.80 177.43 L 343.22 176.80 L 342.56 176.04 L 342.02 175.40 L 341.33 174.86 L 340.70 174.41 L 340.10 173.94 L 339.50 173.68 L 338.86 173.31 L 338.30 173.09 L 337.63 172.95 L 336.96 172.88 L 336.40 172.79 L 335.85 172.84 L 335.17 172.81 L 334.58 172.95 L 333.94 172.95 L 333.35 173.15 L 332.71 173.17 L 332.07 173.23 L 331.48 173.41 L 330.83 173.52 L 330.25 173.64 L 329.72 173.68 L 329.02 173.81 L 328.50 173.76 L 327.79 173.88" fill="none" stroke="black" stroke-width="1"/>
  <path d="M 333.95 180.07 L 337.03 178.52 L 340.09 176.90" fill="none" stroke="black" stroke-width="1"/>
  <path d="M 362.13 146.23 L 361.01 152.46" fill="none" stroke="black" stroke-width="1"/>
  <path d="M 355.41 158.50 L 357.04 153.12 L 358.52 147.75 L 360.08 142.35 L 361.67 137.02" fill="none" stroke="black" stroke-width="1"/>
  <path d="M 361.54 100.07 L 364.64 103.14 L 367.75 106.13" fill="none" stroke="black" stroke-width="1"/>
  <path d="M 367.70 112.35 L 367.22 113.09 L 366.76 113.75 L 366.37 114.27 L 365.80 114.93 L 365.38 115.41 L 364.83 116.00 L 364.32 116.46 L 363.86 117.03 L 363.40 117.59 L 362.89 118.12 L 362.48 118.73 L 361.94 119.37 L 361.45 120.09 L 361.01 120.86 L 360.56 121.84 L 360.11 122.69 L 359.69 123.79 L 359.26 124.96 L 358.91 126.43 L 358.47 127.74 L 358.10 129.34 L 357.72 131.12 L 357.29 133.06 L 357.00 135.01 L 356.60 137.26 L 356.31 139.34 L 355.97 141.61 L 355.66 144.00 L 355.31 146.38 L 355.04 148.91 L 354.66 151.53 L 354.44 153.98 L 354.11 156.47 L 353.88 159.10 L 353.70 161.62 L 353.34 164.20 L 353.06 166.67 L 352.84 169.17 L 352.58 171.47 L 352.36 173.92 L 352.16 176.18 L 351.87 178.53 L 351.56 180.88 L 351.34 183.14 L 351.02 185.39 L 350.81 187.75 L 350.48 190.08 L 350.29 192.35 L 350.14 194.58 L 349.82 196.96 L 349.55 199.20 L 349.43 201.56 L 349.24 203.84 L 349.14 206.17 L 349.13 208.48 L 348.99 210.77 L 349.01 212.99 L 349.01 215.38 L 349.14 217.69 L 349.21 219.99 L 349.47 222.22 L 349.64 224.61 L 349.89 226.98 L 350.29 229.22 L 350.79 231.62 L 351.11 233.83 L 351.61 236.19 L 352.06 238.45 L 352.52 240.71 L 353.12 243.07 L 353.59 245.31 L 354.24 247.68 L 354.74 249.99 L 355.38 252.30 L 356.03 254.66 L 356.52 256.92 L 356.99 259.27 L 357.60 261.54 L 358.15 263.93 L 358.59 266.15" fill="none" stroke="black" stroke-width="1"/>
  <path d="M 364.56 253.91 L 364.67 247.75" fill="none" stroke="black" stroke-width="1"/>
  <path d="M 358.90 244.52 L 358.27 238.36" fill="none" stroke="black" stroke-width="1"/>
  <path d="M 361.57 235.37 L 359.53 240.57 L 357.42 245.66 L 355.48 250.74" fill="none" stroke="black" stroke-width="1"/>
  <path d="M 355.55 250.79 L 353.50 256.00 L 351.38 261.10 L 349.33 266.24" fill="none" stroke="black" stroke-width="1"/>
  <path d="M 346.25 272.25 L 345.74 270.43 L 345.33 268.56 L 344.96 266.67 L 344.40 264.88 L 343.94 263.04 L 343.48 261.19 L 342.97 259.39 L 342.55 257.51 L 342.17 255.75 L 341.63 253.82 L 341.13 252.06 L 340.70 250.13 L 340.33 248.28 L 339.78 246.45 L 339.35 244.57 L 338.85 242.76 L 338.35 240.88 L 337.93 239.08 L 337.42 237.23 L 337.01 235.39 L 336.44 233.53 L 336.05 231.65 L 335.47 229.67 L 335.03 227.83 L 334.49 225.90 L 333.97 223.96 L 333.41 221.98 L 332.90 220.08 L 332.30 218.18 L 331.85 216.22 L 331.30 214.28 L 330.85 212.42 L 330.41 210.59 L 329.92 208.72 L 329.49 206.96 L 329.09 205.15 L 328.71 203.40 L 328.39 201.75 L 328.10 200.13 L 327.84 198.56 L 327.56 197.01 L 327.46 195.61 L 327.34 194.25 L 327.23 192.85 L 327.10 191.55 L 327.13 190.27 L 327.14 188.96 L 327.13 187.82 L 327.23 186.64 L 327.20 185.47 L 327.26 184.30 L 327.32 183.18 L 327.40 181.98 L 327.46 180.92 L 327.60 179.87 L 327.59 178.64 L 327.63 177.54 L 327.68 176.32 L 327.69 175.13 L 327.70 173.90" fill="none" stroke="black" stroke-width="1"/>
  <path d="M 327.67 173.95 L 329.24 178.50 L 330.83 183.11" fill="none" stroke="black" stroke-width="1"/>
  <path d="M 334.35 195.51 L 333.45 189.42" fill="none" stroke="black" stroke-width="1"/>
  <path d="M 330.92 189.32 L 332.16 194.91 L 333.23 200.28 L 334.52 205.82 L 335.77 211.47 L 336.91 216.91" fill="none" stroke="black" stroke-width="1"/>
  <path d="M 340.77 223.04 L 339.41 217.03" fill="none" stroke="black" stroke-width="1"/>
  <path d="M 343.39 213.92 L 342.92 207.76" fill="none" stroke="black" stroke-width="1"/>
  <path d="M 337.49 207.80 L 336.53 201.66" fill="none" stroke="black" stroke-width="1"/>
  <path d="M 337.04 198.49 L 337.17 199.63 L 337.33 200.64 L 337.53 201.64 L 337.60 202.78 L 337.71 203.80 L 337.86 204.92 L 337.92 206.07 L 338.11 207.07 L 338.33 208.12 L 338.37 209.21 L 338.46 210.32 L 338.65 211.35 L 338.81 212.36 L 338.95 213.50 L 339.17 214.61 L 339.29 215.64 L 339.44 216.63 L 339.67 217.79 L 339.88 218.91 L 340.10 219.94 L 340.32 221.11 L 340.60 222.10 L 340.93 223.16 L 341.14 224.26 L 341.49 225.30 L 341.73 226.42 L 342.08 227.48 L 342.36 228.58 L 342.61 229.61 L 343.01 230.74 L 343.34 231.90 L 343.68 232.90 L 343.94 233.98 L 344.35 235.06 L 344.76 236.13 L 345.02 237.23 L 345.36 238.38 L 345.68 239.39 L 346.02 240.53 L 346.31 241.55" fill="none" stroke="black" stroke-width="1"/>
  <path d="M 349.27 241.58 L 349.45 244.35 L 349.80 247.20 L 350.42 249.82 L 350.55 252.30 L 350.83 255.21 L 351.28 258.10 L 351.99 260.54 L 351.92 263.67 L 352.47 266.19" fill="none" stroke="black" stroke-width="1"/>
  <path d="M 355.81 263.05 L 355.15 256.98" fill="none" stroke="black" stroke-width="1"/>
  <path d="M 352.65 250.69 L 352.14 244.67" fill="none" stroke="black" stroke-width="1"/>
  <path d="M 343.21 250.74 L 342.98 249.70 L 342.57 248.58 L 342.18 247.48 L 341.91 246.38 L 341.51 245.24 L 341.24 244.18 L 340.89 243.05 L 340.57 241.97 L 340.15 240.89 L 339.90 239.77 L 339.56 238.62 L 339.25 237.58 L 338.96 236.52 L 338.62 235.42 L 338.34 234.40 L 338.03 233.30 L 337.80 232.21 L 337.48 231.22 L 337.29 230.19 L 336.99 229.19 L 336.70 228.18 L 336.55 227.23 L 336.35 226.22 L 336.17 225.32 L 335.99 224.35 L 335.84 223.45 L 335.65 222.57 L 335.54 221.63 L 335.46 220.64 L 335.26 219.82 L 335.19 218.94 L 335.00 218.04 L 334.80 217.15 L 334.75 216.26 L 334.56 215.41 L 334.49 214.47 L 334.42 213.50 L 334.22 212.68 L 334.09 211.69 L 333.93 210.86" fill="none" stroke="black" stroke-width="1"/>
  <path d="M 334.00 204.69 L 335.30 209.51 L 336.46 214.53 L 337.57 219.34 L 338.93 224.24 L 340.09 229.21" fill="none" stroke="black" stroke-width="1"/>
  <path d="M 342.60 232.24 L 343.96 238.34" fill="none" stroke="black" stroke-width="1"/>
  <path d="M 349.31 235.48 L 349.30 234.30 L 349.32 233.30 L 349.28 232.10 L 349.35 231.09 L 349.34 230.04 L 349.40 228.87 L 349.40 227.81 L 349.45 226.65 L 349.44 225.54 L 349.49 224.44 L 349.48 223.33 L 349.51 222.24 L 349.49 221.19 L 349.52 220.07 L 349.53 218.91 L 349.48 217.93 L 349.41 216.86 L 349.41 215.84 L 349.37 214.79 L 349.28 213.80 L 349.18 212.85 L 349.09 211.83 L 348.88 210.79 L 348.85 209.91 L 348.77 208.99 L 348.56 208.03 L 348.33 207.20 L 348.25 206.20 L 348.06 205.38 L 347.90 204.39 L 347.79 203.45 L 347.54 202.59 L 347.33 201.72 L 347.18 200.80 L 347.05 199.94 L 346.82 199.01 L 346.55 198.04 L 346.47 197.20 L 346.26 196.26 L 346.14 195.38" fill="none" stroke="black" stroke-width="1"/>
  <path d="M 339.88 195.42 L 340.39 201.58" fill="none" stroke="black" stroke-width="1"/>
  <path d="M 352.42 204.55 L 354.47 199.50 L 356.51 194.38 L 358.52 189.26" fill="none" stroke="black" stroke-width="1"/>
  <path d="M 357.91 182.93 L 359.14 176.99" fill="none" stroke="black" stroke-width="1"/>
  <path d="M 364.73 189.17 L 364.85 188.08 L 365.02 187.01 L 365.22 185.93 L 365.28 184.82 L 365.39 183.78 L 365.53 182.61 L 365.61 181.55 L 365.77 180.41 L 365.94 179.29 L 366.02 178.21 L 366.16 177.17 L 366.29 176.03 L 366.47 174.91 L 366.58 173.87 L 366.72 172.73 L 366.91 171.75 L 367.14 170.66 L 367.28 169.66 L 367.59 168.64 L 367.71 167.64 L 367.88 166.74 L 368.20 165.67 L 368.51 164.76 L 368.74 163.75 L 368.95 162.84 L 369.32 161.87 L 369.67 160.92 L 369.94 160.03 L 370.20 159.05 L 370.59 158.22 L 370.93 157.26 L 371.25 156.42 L 371.63 155.48 L 371.92 154.62 L 372.32 153.72 L 372.58 152.83 L 372.88 151.92 L 373.24 151.02 L 373.47 150.13 L 373.87 149.18" fill="none" stroke="black" stroke-width="1"/>
  <path d="M 376.91 143.19 L 377.87 137.81 L 378.63 132.65 L 379.51 127.29 L 380.37 122.01 L 381.33 116.64 L 382.19 111.42 L 383.11 106.15" fill="none" stroke="black" stroke-width="1"/>
  <path d="M 380.13 99.94 L 377.08 101.46 L 374.00 103.05" fill="none" stroke="black" stroke-width="1"/>
  <path d="M 370.84 103.09 L 373.96 98.45 L 377.04 93.87" fill="none" stroke="black" stroke-width="1"/>
  <path d="M 373.97 96.96 L 373.49 96.18 L 373.06 95.37 L 372.63 94.55 L 372.17 93.72 L 371.77 92.87 L 371.29 92.03 L 370.90 91.09 L 370.42 90.33 L 369.94 89.53 L 369.54 88.65 L 369.14 87.88 L 368.65 87.02 L 368.12 86.30 L 367.73 85.46 L 367.34 84.71 L 366.78 84.00 L 366.31 83.26 L 365.78 82.67 L 365.20 82.06 L 364.73 81.51 L 364.16 81.02 L 363.61 80.52 L 363.06 80.05 L 362.45 79.69 L 361.93 79.37 L 361.24 78.99 L 360.69 78.75 L 359.99 78.39 L 359.34 78.11 L 358.72 77.86 L 358.12 77.65 L 357.43 77.39 L 356.71 77.21 L 356.14 76.93 L 355.50 76.64 L 354.85 76.46 L 354.30 76.25 L 353.58 75.96 L 353.04 75.69 L 352.32 75.39" fill="none" stroke="black" stroke-width="1"/>
  <path d="M 352.40 75.46 L 349.32 72.40 L 346.14 69.33" fill="none" stroke="black" stroke-width="1"/>
  <path d="M 346.17 69.28 L 344.20 73.38 L 342.15 77.50 L 340.16 81.62" fill="none" stroke="black" stroke-width="1"/>
  <path d="M 343.52 79.76 L 348.99 76.99" fill="none" stroke="black" stroke-width="1"/>
  <path d="M 351.69 71.42 L 346.79 67.49" fill="none" stroke="black" stroke-width="1"/>
  <path d="M 346.31 66.27 L 348.49 65.78 L 351.12 65.07 L 353.31 64.61 L 356.13 63.71 L 358.33 63.32" fill="none" stroke="black" stroke-width="1"/>
  <path d="M 358.10 66.14 L 359.09 72.37" fill="none" stroke="black" stroke-width="1"/>
  <path d="M 355.40 75.38 L 354.43 70.29 L 353.30 65.24 L 352.32 60.04" fill="none" stroke="black" stroke-width="1"/>
  <path d="M 349.87 70.35 L 354.68 74.34" fill="none" stroke="black" stroke-width="1"/>
  <path d="M 352.42 75.40 L 348.31 77.34 L 344.16 79.47 L 340.05 81.49" fill="none" stroke="black" stroke-width="1"/>
  <path d="M 340.06 81.53 L 340.62 82.12 L 341.25 82.80 L 341.87 83.39 L 342.37 84.13 L 342.86 84.85 L 343.45 85.50 L 344.03 86.20 L 344.52 86.88 L 345.09 87.55 L 345.61 88.24 L 346.20 88.91 L 346.75 89.55 L 347.38 90.13 L 347.96 90.80 L 348.60 91.39 L 349.28 91.94 L 349.91 92.49 L 350.73 92.95 L 351.60 93.46 L 352.33 93.81 L 353.25 94.14 L 354.11 94.50 L 355.13 94.81 L 356.05 95.03 L 357.05 95.21 L 358.13 95.43 L 359.13 95.65 L 360.30 95.74 L 361.39 95.79 L 362.55 95.97 L 363.65 96.01 L 364.85 96.15 L 365.92 96.31 L 367.16 96.32 L 368.33 96.43 L 369.47 96.49 L 370.55 96.65 L 371.74 96.71 L 372.79 96.81 L 373.94 96.98" fill="none" stroke="black" stroke-width="1"/>
  <path d="M 372.05 90.50 L 369.79 84.83" fill="none" stroke="black" stroke-width="1"/>
  <path d="M 366.81 83.94 L 362.70 79.43" fill="none" stroke="black" stroke-width="1"/>
  <path d="M 361.62 78.45 L 363.68 74.39 L 365.62 70.20 L 367.68 66.13" fill="none" stroke="black" stroke-width="1"/>
  <path d="M 383.55 60.08 L 382.89 66.17" fill="none" stroke="black" stroke-width="1"/>
  <path d="M 404.07 69.20 L 405.16 63.15" fill="none" stroke="black" stroke-width="1"/>
  <path d="M 425.78 66.10 L 426.58 59.99" fill="none" stroke="black" stroke-width="1"/>
  <path d="M 451.01 66.24 L 450.48 72.30" fill="none" stroke="black" stroke-width="1"/>
  <path d="M 467.96 90.59 L 470.61 85.02" fill="none" stroke="black" stroke-width="1"/>
  <path d="M 473.19 83.59 L 477.76 79.46" fill="none" stroke="black" stroke-width="1"/>
  <path d="M 478.49 78.47 L 476.47 74.39 L 474.36 70.31 L 472.30 66.13" fill="none" stroke="black" stroke-width="1"/>
  <path d="M 474.39 63.37 L 476.68 69.13" fill="none" stroke="black" stroke-width="1"/>
  <path d="M 484.75 75.47 L 485.71 70.38 L 486.68 65.12 L 487.78 60.02" fill="none" stroke="black" stroke-width="1"/>
  <path d="M 481.54 63.14 L 483.74 63.96 L 486.30 64.45 L 488.96 65.03 L 491.17 65.59 L 493.68 66.23" fill="none" stroke="black" stroke-width="1"/>
  <path d="M 493.74 67.44 L 488.80 70.87" fill="none" stroke="black" stroke-width="1"/>
  <path d="M 490.03 70.20 L 485.35 74.25" fill="none" stroke="black" stroke-width="1"/>
  <path d="M 487.72 75.37 L 491.83 77.44 L 495.99 79.61 L 500.06 81.64" fill="none" stroke="black" stroke-width="1"/>
  <path d="M 500.09 81.53 L 498.05 77.54 L 495.87 73.50 L 493.88 69.35" fill="none" stroke="black" stroke-width="1"/>
  <path d="M 493.91 69.23 L 490.88 72.31 L 487.82 75.43" fill="none" stroke="black" stroke-width="1"/>
  <path d="M 487.67 75.40 L 487.07 75.63 L 486.43 75.98 L 485.79 76.16 L 485.18 76.50 L 484.46 76.72 L 483.91 76.98 L 483.27 77.25 L 482.64 77.46 L 482.07 77.62 L 481.38 77.95 L 480.83 78.16 L 480.13 78.48 L 479.45 78.71 L 478.90 79.09 L 478.24 79.44 L 477.71 79.80 L 477.20 80.17 L 476.55 80.64 L 475.98 81.07 L 475.45 81.63 L 474.90 82.16 L 474.40 82.80 L 473.93 83.47 L 473.41 84.12 L 472.90 84.76 L 472.45 85.56 L 472.01 86.26 L 471.53 87.11 L 471.06 88.01 L 470.63 88.73 L 470.16 89.55 L 469.75 90.40 L 469.34 91.24 L 468.87 92.08 L 468.42 92.95 L 467.99 93.75 L 467.59 94.57 L 467.10 95.39 L 466.62 96.20 L 466.18 96.97" fill="none" stroke="black" stroke-width="1"/>
  <path d="M 466.19 96.94 L 467.26 96.79 L 468.38 96.67 L 469.49 96.64 L 470.63 96.47 L 471.77 96.35 L 472.92 96.31 L 474.00 96.22 L 475.22 96.15 L 476.38 96.00 L 477.50 95.98 L 478.58 95.83 L 479.74 95.76 L 480.88 95.63 L 481.90 95.46 L 482.88 95.28 L 483.96 95.07 L 484.86 94.88 L 485.90 94.54 L 486.74 94.20 L 487.68 93.86 L 488.50 93.38 L 489.29 93.00 L 490.06 92.44 L 490.75 91.99 L 491.43 91.46 L 492.08 90.84 L 492.61 90.27 L 493.31 89.59 L 493.90 88.90 L 494.47 88.27 L 495.06 87.64 L 495.58 86.90 L 496.09 86.22 L 496.67 85.52 L 497.28 84.86 L 497.78 84.14 L 498.40 83.46 L 498.92 82.80 L 499.59 82.08 L 500.12 81.52" fill="none" stroke="black" stroke-width="1"/>
  <path d="M 506.40 72.10 L 504.80 73.74 L 503.10 75.46 L 501.35 76.98 L 499.90 78.71" fill="none" stroke="black" stroke-width="1"/>
  <path d="M 498.59 78.51 L 495.75 72.86" fill="none" stroke="black" stroke-width="1"/>
  <path d="M 499.71 73.73 L 494.28 70.76" fill="none" stroke="black" stroke-width="1"/>
  <path d="M 493.84 72.31 L 496.99 69.15 L 500.12 66.11 L 503.14 63.05" fill="none" stroke="black" stroke-width="1"/>
  <path d="M 503.14 66.18 L 515.45 53.87" fill="none" stroke="black" stroke-width="1"/>
  <path d="M 543.08 50.87 L 544.95 50.55 L 546.77 50.17 L 548.64 49.69 L 550.43 49.33 L 552.34 48.87 L 554.08 48.43 L 555.93 48.00 L 557.73 47.50 L 559.47 47.13 L 561.39 46.61 L 563.28 46.21 L 565.06 45.81 L 566.89 45.44 L 568.75 45.16 L 570.60 44.89 L 572.48 44.72 L 574.38 44.59 L 576.25 44.53 L 578.23 44.63 L 580.07 44.65 L 582.04 44.82 L 583.96 45.13 L 585.99 45.52 L 587.89 45.92 L 589.94 46.42 L 591.87 46.97 L 593.83 47.68 L 595.88 48.22 L 597.94 48.98 L 599.92 49.62 L 601.86 50.29 L 603.97 51.11 L 606.07 51.89 L 608.03 52.63 L 610.06 53.48 L 612.08 54.14 L 614.19 54.87 L 616.12 55.58 L 618.22 56.30 L 620.14 56.88" fill="none" stroke="black" stroke-width="1"/>
  <path d="M 635.36 41.60 L 633.52 41.07 L 631.68 40.61 L 629.80 40.10 L 628.03 39.54 L 626.26 38.91 L 624.39 38.42 L 622.58 37.83 L 620.75 37.28 L 618.89 36.68 L 617.10 36.17 L 615.25 35.65 L 613.44 35.12 L 611.57 34.58 L 609.76 34.17 L 607.92 33.76 L 606.04 33.36 L 604.10 33.10 L 602.27 32.72 L 600.37 32.55 L 598.46 32.30 L 596.59 32.26 L 594.58 32.11 L 592.53 32.06 L 590.66 32.13 L 588.75 32.29 L 586.69 32.32 L 584.60 32.52 L 582.68 32.65 L 580.74 32.96 L 578.65 33.08 L 576.56 33.29 L 574.61 33.57 L 572.60 33.77 L 570.56 34.09 L 568.49 34.40 L 566.51 34.60 L 564.49 34.77 L 562.48 35.05 L 560.48 35.29 L 558.46 35.42" fill="none" stroke="black" stroke-width="1"/>
  <path d="M 558.55 63.12 L 557.50 63.34 L 556.41 63.41 L 555.34 63.49 L 554.30 63.68 L 553.19 63.77 L 552.20 63.94 L 551.20 64.09 L 550.10 64.19 L 549.06 64.32 L 548.00 64.45 L 546.92 64.59 L 545.88 64.73 L 544.77 64.83 L 543.73 65.03 L 542.56 65.24 L 541.55 65.36 L 540.37 65.49 L 539.32 65.74 L 538.26 65.86 L 537.04 66.17 L 535.79 66.46 L 534.70 66.65 L 533.52 66.98 L 532.30 67.19 L 531.16 67.42 L 529.86 67.78 L 528.54 68.14 L 527.38 68.40 L 526.06 68.75 L 524.88 69.04 L 523.59 69.36 L 522.36 69.70 L 521.11 70.04 L 519.83 70.36 L 518.49 70.63 L 517.31 71.02 L 516.01 71.27 L 514.80 71.67 L 513.62 72.04 L 512.31 72.30" fill="none" stroke="black" stroke-width="1"/>
  <path d="M 512.37 75.41 L 524.68 69.26" fill="none" stroke="black" stroke-width="1"/>
  <path d="M 527.74 81.54 L 530.12 81.62 L 532.35 81.84 L 534.65 82.06 L 536.97 82.12 L 539.36 82.31 L 541.58 82.39 L 543.80 82.57 L 546.19 82.66 L 548.53 82.81 L 550.81 82.94 L 553.05 83.07 L 555.42 83.23 L 557.75 83.35 L 560.04 83.54 L 562.27 83.73 L 564.65 83.88 L 567.05 84.14 L 569.27 84.27 L 571.50 84.54 L 573.88 84.71 L 576.31 85.02 L 578.63 85.22 L 581.06 85.46 L 583.60 85.80 L 586.14 86.11 L 588.69 86.44 L 591.24 86.72 L 593.81 87.11 L 596.25 87.48 L 598.87 87.80 L 601.40 88.13 L 603.78 88.50 L 606.15 88.87 L 608.43 89.17 L 610.56 89.40 L 612.76 89.80 L 614.77 90.06 L 616.65 90.38 L 618.42 90.62 L 620.02 90.89 L 621.49 91.19 L 622.80 91.32 L 623.98 91.56 L 625.06 91.70 L 625.89 91.90 L 626.89 92.03 L 627.69 92.22 L 628.39 92.34 L 629.00 92.53 L 629.64 92.62 L 630.20 92.68 L 630.73 92.88 L 631.22 93.03 L 631.76 93.13 L 632.38 93.27 L 632.83 93.39 L 633.39 93.62 L 634.01 93.66 L 634.77 93.81 L 635.41 93.96" fill="none" stroke="black" stroke-width="1"/>
  <path d="M 635.45 106.18 L 632.38 106.44 L 629.33 106.69 L 626.29 106.95 L 623.25 107.21 L 620.22 107.46 L 617.18 107.72 L 614.13 107.98 L 611.06 108.23 L 607.97 108.49 L 604.86 108.74 L 601.71 109.00 L 598.52 109.26 L 595.30 109.51 L 592.04 109.77 L 588.74 110.03 L 585.42 110.28 L 582.08 110.54 L 578.72 110.80 L 575.35 111.05 L 571.97 111.31 L 568.60 111.56 L 565.23 111.82 L 561.87 112.08 L 558.53 112.33" fill="none" stroke="black" stroke-width="1"/>
  <path d="M 527.74 87.81 L 521.99 86.94 L 516.32 85.99 L 510.57 85.07 L 504.90 84.17 L 499.15 83.37 L 493.37 82.42 L 487.73 81.58" fill="none" stroke="black" stroke-width="1"/>
  <path d="M 491.17 76.99 L 496.62 79.75" fill="none" stroke="black" stroke-width="1"/>
  <path d="M 493.84 84.67 L 487.78 84.76" fill="none" stroke="black" stroke-width="1"/>
  <path d="M 482.50 84.64 L 480.67 90.68" fill="none" stroke="black" stroke-width="1"/>
  <path d="M 478.53 90.75 L 475.41 95.27 L 472.41 99.94" fill="none" stroke="black" stroke-width="1"/>
  <path d="M 469.30 103.06 L 466.29 98.48 L 463.22 93.79" fill="none" stroke="black" stroke-width="1"/>
  <path d="M 460.14 100.10 L 463.18 101.65 L 466.20 103.18" fill="none" stroke="black" stroke-width="1"/>
  <path d="M 466.27 106.23 L 465.72 112.29 L 465.19 118.42 L 464.73 124.69 L 464.08 130.69 L 463.61 136.95 L 463.13 143.01" fill="none" stroke="black" stroke-width="1"/>
  <path d="M 478.54 133.87 L 480.15 138.45 L 481.70 143.19 L 483.25 147.77 L 484.71 152.34" fill="none" stroke="black" stroke-width="1"/>
  <path d="M 478.51 149.29 L 478.49 150.27 L 478.53 151.12 L 478.59 151.95 L 478.57 152.92 L 478.51 153.85 L 478.63 154.71 L 478.72 155.63 L 478.69 156.49 L 478.68 157.45 L 478.74 158.29 L 478.78 159.28 L 478.78 160.09 L 478.84 160.93 L 478.79 161.93 L 478.86 162.84 L 478.77 163.80 L 478.76 164.80 L 478.70 165.71 L 478.71 166.61 L 478.58 167.68 L 478.53 168.67 L 478.40 169.71 L 478.28 170.78 L 478.16 171.80 L 478.04 172.88 L 477.88 173.93 L 477.75 175.11 L 477.57 176.10 L 477.32 177.26 L 477.23 178.30 L 476.99 179.46 L 476.88 180.51 L 476.61 181.64 L 476.51 182.72 L 476.43 183.85 L 476.15 184.94 L 476.00 185.98 L 475.81 187.14 L 475.64 188.20 L 475.49 189.32" fill="none" stroke="black" stroke-width="1"/>
  <path d="M 484.88 183.10 L 484.31 176.97" fill="none" stroke="black" stroke-width="1"/>
  <path d="M 481.57 180.02 L 483.09 184.54 L 484.72 189.23 L 486.28 193.87 L 487.72 198.41" fill="none" stroke="black" stroke-width="1"/>
  <path d="M 487.75 192.25 L 488.30 191.53 L 488.97 190.63 L 489.63 189.82 L 490.19 188.88 L 490.83 188.04 L 491.41 187.05 L 491.94 186.04 L 492.63 185.21 L 493.21 184.27 L 493.85 183.40 L 494.44 182.48 L 495.07 181.68 L 495.64 180.83 L 496.29 180.12 L 496.97 179.43 L 497.51 178.76 L 498.09 178.26 L 498.74 177.66 L 499.44 177.25 L 499.98 176.87 L 500.54 176.72 L 501.21 176.44 L 501.80 176.31 L 502.45 176.33 L 503.11 176.46 L 503.70 176.47 L 504.34 176.58 L 504.95 176.82 L 505.65 177.02 L 506.19 177.32 L 506.86 177.70 L 507.45 177.92 L 507.99 178.29 L 508.70 178.55 L 509.40 178.81 L 509.95 179.16 L 510.49 179.40 L 511.20 179.69 L 511.76 179.91 L 512.45 180.10" fill="none" stroke="black" stroke-width="1"/>
  <path d="M 527.76 136.95 L 531.63 136.69 L 535.56 136.44 L 539.51 136.18 L 543.48 135.92 L 547.45 135.67 L 551.41 135.41 L 555.33 135.15 L 559.21 134.90 L 563.02 134.64 L 566.75 134.38 L 570.39 134.13 L 573.91 133.87 L 577.35 133.62 L 580.74 133.36 L 584.08 133.10 L 587.36 132.85 L 590.57 132.59 L 593.72 132.33 L 596.79 132.08 L 599.78 131.82 L 602.68 131.56 L 605.50 131.31 L 608.21 131.05 L 610.83 130.80 L 613.31 130.54 L 615.65 130.28 L 617.85 130.03 L 619.95 129.77 L 621.96 129.51 L 623.91 129.26 L 625.81 129.00 L 627.70 128.74 L 629.58 128.49 L 631.49 128.23 L 633.43 127.97 L 635.45 127.72" fill="none" stroke="black" stroke-width="1"/>
  <path d="M 607.69 118.03 L 601.61 118.87" fill="none" stroke="black" stroke-width="1"/>
  <path d="M 570.36 147.61 L 565.11 150.73" fill="none" stroke="black" stroke-width="1"/>
  <path d="M 581.60 180.02 L 580.06 178.49 L 578.52 180.02 L 580.06 181.56 L 581.60 180.02" fill="none" stroke="black" stroke-width="1"/>
  <path d="M 604.68 204.64 L 543.14 210.79" fill="none" stroke="black" stroke-width="1"/>
  <path d="M 509.22 204.65 L 507.75 210.00 L 506.21 215.40 L 504.52 220.74 L 503.07 226.10" fill="none" stroke="black" stroke-width="1"/>
  <path d="M 500.76 226.14 L 499.24 232.19" fill="none" stroke="black" stroke-width="1"/>
  <path d="M 496.82 220.11 L 497.17 214.00" fill="none" stroke="black" stroke-width="1"/>
  <path d="M 502.53 216.93 L 503.77 210.84" fill="none" stroke="black" stroke-width="1"/>
  <path d="M 503.08 195.53 L 503.30 189.24" fill="none" stroke="black" stroke-width="1"/>
  <path d="M 506.13 183.14 L 503.13 181.63 L 500.09 180.05" fill="none" stroke="black" stroke-width="1"/>
  <path d="M 505.88 201.59 L 506.60 195.47" fill="none" stroke="black" stroke-width="1"/>
  <path d="M 509.26 198.53 L 509.03 199.52 L 508.97 200.37 L 508.88 201.31 L 508.70 202.21 L 508.59 203.19 L 508.44 204.06 L 508.30 204.96 L 508.18 205.90 L 507.97 206.87 L 507.92 207.74 L 507.73 208.66 L 507.64 209.59 L 507.56 210.52 L 507.34 211.43 L 507.12 212.39 L 507.01 213.27 L 506.79 214.19 L 506.63 215.11 L 506.45 215.95 L 506.20 216.96 L 505.91 217.89 L 505.72 218.80 L 505.50 219.79 L 505.18 220.64 L 504.81 221.61 L 504.60 222.48 L 504.36 223.38 L 503.99 224.32 L 503.66 225.24 L 503.36 226.15 L 503.11 227.02 L 502.71 227.99 L 502.38 228.95 L 502.05 229.83 L 501.68 230.69 L 501.40 231.67 L 501.05 232.51 L 500.76 233.51 L 500.39 234.34 L 500.14 235.35" fill="none" stroke="black" stroke-width="1"/>
  <path d="M 490.80 241.54 L 490.88 240.61 L 490.82 239.70 L 490.81 238.84 L 490.86 237.86 L 490.94 236.95 L 490.92 236.02 L 491.02 235.04 L 490.98 234.17 L 490.99 233.31 L 491.03 232.33 L 491.04 231.41 L 491.07 230.49 L 491.16 229.60 L 491.08 228.65 L 491.08 227.82 L 491.06 226.81 L 491.03 225.89 L 490.99 224.97 L 490.97 224.13 L 490.87 223.13 L 490.76 222.21 L 490.69 221.28 L 490.59 220.41 L 490.45 219.44 L 490.29 218.49 L 490.17 217.60 L 490.00 216.77 L 489.85 215.76 L 489.64 214.82 L 489.51 213.91 L 489.34 213.07 L 489.15 212.07 L 488.94 211.14 L 488.79 210.23 L 488.55 209.37 L 488.43 208.38 L 488.33 207.53 L 488.08 206.54 L 487.84 205.68 L 487.75 204.70" fill="none" stroke="black" stroke-width="1"/>
  <path d="M 481.93 226.31 L 481.34 232.29" fill="none" stroke="black" stroke-width="1"/>
  <path d="M 478.50 235.33 L 480.51 240.41 L 482.62 245.64 L 484.70 250.84" fill="none" stroke="black" stroke-width="1"/>
  <path d="M 484.62 250.77 L 486.80 255.87 L 488.83 261.13 L 490.91 266.20" fill="none" stroke="black" stroke-width="1"/>
  <path d="M 493.99 272.40 L 494.51 270.52 L 494.90 268.71 L 495.41 266.85 L 495.81 265.02 L 496.30 263.15 L 496.71 261.33 L 497.16 259.54 L 497.61 257.64 L 497.99 255.78 L 498.52 253.95 L 499.03 252.14 L 499.42 250.26 L 499.85 248.38 L 500.33 246.56 L 500.76 244.78 L 501.24 242.87 L 501.67 241.01 L 502.15 239.18 L 502.52 237.31 L 503.07 235.48 L 503.47 233.64 L 504.04 231.70 L 504.55 229.69 L 505.08 227.78 L 505.64 225.74 L 506.16 223.79 L 506.70 221.82 L 507.25 219.78 L 507.85 217.81 L 508.32 215.80 L 508.77 213.81 L 509.35 211.92 L 509.88 210.10 L 510.31 208.19 L 510.73 206.51 L 511.16 204.66 L 511.58 203.09 L 511.87 201.40 L 512.15 199.95 L 512.43 198.45 L 512.60 197.13 L 512.80 195.85 L 512.84 194.65 L 513.02 193.58 L 513.00 192.62 L 513.10 191.56 L 513.06 190.67 L 513.08 189.75 L 513.05 188.98 L 512.98 188.09 L 512.91 187.26 L 512.83 186.52 L 512.80 185.74 L 512.67 184.99 L 512.64 184.13 L 512.51 183.44 L 512.49 182.59 L 512.40 181.82 L 512.45 180.86 L 512.35 180.06" fill="none" stroke="black" stroke-width="1"/>
  <path d="M 512.30 180.02 L 510.76 184.62 L 509.27 189.17" fill="none" stroke="black" stroke-width="1"/>
  <path d="M 509.38 189.19 L 508.51 194.63 L 507.82 200.02 L 507.00 205.37 L 506.18 210.84" fill="none" stroke="black" stroke-width="1"/>
  <path d="M 506.26 210.88 L 506.07 211.74 L 505.96 212.70 L 505.80 213.69 L 505.68 214.50 L 505.54 215.46 L 505.42 216.29 L 505.31 217.21 L 505.16 218.07 L 504.94 219.00 L 504.89 219.87 L 504.68 220.68 L 504.61 221.67 L 504.43 222.53 L 504.30 223.51 L 504.10 224.35 L 503.96 225.37 L 503.70 226.34 L 503.58 227.29 L 503.31 228.24 L 503.14 229.26 L 502.89 230.34 L 502.64 231.29 L 502.45 232.26 L 502.09 233.37 L 501.85 234.45 L 501.50 235.50 L 501.25 236.54 L 500.87 237.67 L 500.52 238.70 L 500.22 239.86 L 499.97 240.89 L 499.55 242.07 L 499.25 243.13 L 498.88 244.28 L 498.57 245.30 L 498.21 246.49 L 497.84 247.56 L 497.55 248.69 L 497.22 249.75 L 496.91 250.86" fill="none" stroke="black" stroke-width="1"/>
  <path d="M 487.53 250.65 L 487.92 244.50" fill="none" stroke="black" stroke-width="1"/>
  <path d="M 490.78 241.77 L 490.30 244.59 L 489.81 248.06 L 489.61 251.02 L 489.39 254.05 L 488.61 256.99 L 488.65 259.88 L 487.90 262.98 L 487.67 266.14" fill="none" stroke="black" stroke-width="1"/>
  <path d="M 485.08 257.00 L 484.32 263.14" fill="none" stroke="black" stroke-width="1"/>
  <path d="M 481.62 266.24 L 482.19 263.84 L 482.58 261.60 L 483.07 259.31 L 483.64 256.97 L 484.15 254.61 L 484.74 252.34 L 485.22 249.99 L 485.85 247.71 L 486.37 245.44 L 486.94 243.07 L 487.39 240.84 L 487.97 238.44 L 488.45 236.06 L 488.90 233.81 L 489.28 231.56 L 489.70 229.19 L 490.05 226.88 L 490.33 224.56 L 490.50 222.19 L 490.75 219.94 L 490.93 217.70 L 490.95 215.32 L 490.97 213.03 L 490.98 210.71 L 490.91 208.38 L 490.84 206.10 L 490.66 203.79 L 490.57 201.50 L 490.30 199.17 L 490.21 196.89 L 490.07 194.64 L 489.76 192.29 L 489.47 189.92 L 489.27 187.69 L 488.96 185.31 L 488.75 183.08 L 488.42 180.85 L 488.24 178.47 L 488.03 176.19 L 487.76 173.86 L 487.61 171.56 L 487.29 169.10 L 487.10 166.71 L 486.80 164.13 L 486.54 161.61 L 486.27 159.03 L 486.03 156.42 L 485.71 153.89 L 485.35 151.41 L 485.12 148.82 L 484.72 146.39 L 484.50 143.90 L 484.09 141.62 L 483.85 139.23 L 483.44 137.06 L 483.16 134.90 L 482.83 132.99 L 482.44 131.01 L 481.99 129.25 L 481.69 127.64 L 481.29 126.21 L 480.89 124.86 L 480.40 123.74 L 480.04 122.60 L 479.59 121.61 L 479.14 120.78 L 478.61 119.98 L 478.21 119.30 L 477.74 118.62 L 477.25 118.07 L 476.84 117.45 L 476.27 116.99 L 475.82 116.47 L 475.29 115.98 L 474.76 115.42 L 474.31 114.93 L 473.79 114.31 L 473.34 113.76 L 472.91 113.06 L 472.40 112.37" fill="none" stroke="black" stroke-width="1"/>
  <path d="M 472.47 106.27 L 475.55 103.22 L 478.61 100.00" fill="none" stroke="black" stroke-width="1"/>
  <path d="M 475.39 96.96 L 475.90 98.02 L 476.34 99.04 L 476.80 99.97 L 477.31 100.99 L 477.82 101.97 L 478.30 102.86 L 478.75 103.81 L 479.29 104.72 L 479.71 105.65 L 480.27 106.61 L 480.71 107.58 L 481.24 108.60 L 481.65 109.64 L 482.18 110.73 L 482.70 111.81 L 483.09 113.06 L 483.43 114.28 L 483.94 115.65 L 484.37 117.06 L 484.74 118.55 L 485.12 120.08 L 485.52 121.77 L 485.86 123.61 L 486.30 125.26 L 486.67 127.19 L 487.07 128.98 L 487.51 130.94 L 487.82 132.90 L 488.18 134.85 L 488.52 136.98 L 488.78 139.06 L 489.15 141.17 L 489.49 143.28 L 489.71 145.46 L 490.01 147.58 L 490.18 149.80 L 490.38 152.00 L 490.53 154.15 L 490.68 156.30 L 490.75 158.48 L 490.79 160.77 L 490.78 162.91 L 490.75 165.31 L 490.59 167.56 L 490.45 169.95 L 490.24 172.36 L 490.04 174.79 L 489.78 177.24 L 489.48 179.70 L 489.27 182.14 L 488.99 184.62 L 488.76 187.00 L 488.56 189.36 L 488.30 191.74 L 488.11 194.01 L 487.95 196.31 L 487.88 198.43 L 487.77 200.64 L 487.73 202.71 L 487.80 204.66 L 488.00 206.45 L 488.13 208.29 L 488.35 209.99 L 488.74 211.54 L 489.06 213.11 L 489.55 214.52 L 489.99 215.94 L 490.48 217.31 L 491.02 218.68 L 491.45 220.01 L 491.98 221.30 L 492.37 222.71 L 492.72 224.05 L 493.16 225.50 L 493.49 227.06 L 493.74 228.48 L 493.91 230.03 L 494.02 231.73 L 493.95 233.55 L 493.93 235.36 L 493.66 237.40 L 493.46 239.42 L 493.16 241.71 L 492.71 243.86 L 492.22 246.21 L 491.70 248.57 L 491.11 251.11 L 490.50 253.47 L 489.88 255.92 L 489.15 258.46 L 488.37 260.98 L 487.69 263.46 L 486.90 265.89 L 486.16 268.36 L 485.40 270.78 L 484.62 273.07 L 483.81 275.27 L 483.11 277.50 L 482.32 279.61 L 481.67 281.57 L 480.98 283.35 L 480.25 285.27 L 479.43 287.05 L 478.78 288.70 L 478.09 290.32 L 477.26 291.92 L 476.40 293.46 L 475.71 294.97 L 475.00 296.44 L 474.13 297.90 L 473.30 299.26 L 472.54 300.74 L 471.67 302.08 L 470.94 303.56 L 470.09 304.99 L 469.34 306.39 L 468.52 307.90 L 467.75 309.28 L 466.99 310.78 L 466.19 312.29" fill="none" stroke="black" stroke-width="1"/>
  <path d="M 466.22 312.36 L 466.24 312.37 L 466.16 312.31" fill="none" stroke="black" stroke-width="1"/>
  <path d="M 466.15 312.36 L 466.09 313.12 L 465.87 313.91 L 465.71 314.69 L 465.61 315.45 L 465.52 316.17 L 465.36 317.00 L 465.24 317.74 L 465.11 318.55 L 464.97 319.36 L 464.86 320.09 L 464.69 320.95 L 464.59 321.64 L 464.39 322.35 L 464.29 323.18 L 464.06 323.98 L 463.97 324.73 L 463.83 325.57 L 463.59 326.26 L 463.45 327.12 L 463.17 327.80 L 462.99 328.50 L 462.71 329.33 L 462.54 330.12 L 462.25 330.86 L 461.99 331.70 L 461.76 332.38 L 461.51 333.12 L 461.25 333.90 L 461.00 334.58 L 460.70 335.42 L 460.39 336.17 L 460.10 336.94 L 459.87 337.75 L 459.45 338.46 L 459.07 339.27 L 458.73 339.98 L 458.32 340.84 L 457.94 341.51 L 457.46 342.24 L 457.06 343.03 L 456.48 343.89 L 456.07 344.57 L 455.51 345.29 L 454.98 346.10 L 454.38 346.92 L 453.80 347.64 L 453.20 348.38 L 452.55 349.18 L 451.84 349.96 L 451.25 350.72 L 450.64 351.52 L 449.92 352.26 L 449.29 353.07 L 448.57 353.80 L 447.82 354.65 L 447.24 355.34 L 446.52 356.03 L 445.92 356.88 L 445.30 357.65 L 444.66 358.42" fill="none" stroke="black" stroke-width="1"/>
  <path d="M 444.71 358.48 L 440.06 361.58 L 435.48 364.69 L 430.93 367.74 L 426.24 370.74" fill="none" stroke="black" stroke-width="1"/>
  <path d="M 426.21 370.76 L 425.94 371.10 L 425.60 371.37 L 425.29 371.66 L 424.98 371.98 L 424.66 372.20 L 424.36 372.60 L 424.12 372.89 L 423.74 373.21 L 423.49 373.57 L 423.12 373.82 L 422.81 374.08 L 422.50 374.43 L 422.27 374.75 L 421.88 375.04 L 421.62 375.39 L 421.26 375.66 L 420.87 375.90 L 420.65 376.27 L 420.42 376.55 L 420.03 376.88 L 419.68 377.12 L 419.42 377.50 L 419.11 377.87 L 418.81 378.11 L 418.44 378.48 L 418.20 378.73 L 417.91 379.05 L 417.59 379.34 L 417.27 379.64 L 416.98 379.95 L 416.65 380.20 L 416.38 380.57 L 416.00 380.93 L 415.77 381.18 L 415.51 381.57 L 415.16 381.80 L 414.90 382.18 L 414.56 382.41 L 414.28 382.71 L 413.95 383.03" fill="none" stroke="black" stroke-width="1"/>
  <path d="M 413.95 383.09 L 412.61 382.16 L 411.38 381.21 L 410.08 380.22 L 408.66 379.28 L 407.20 378.26 L 405.85 377.33 L 404.39 376.37 L 403.02 375.37 L 401.72 374.39 L 400.24 373.42 L 398.91 372.54 L 397.56 371.51 L 396.31 370.48 L 395.06 369.64 L 393.89 368.81 L 392.79 367.85 L 391.90 367.01 L 390.83 366.14 L 389.95 365.41 L 389.23 364.55 L 388.72 363.87 L 388.06 363.10 L 387.71 362.47 L 387.28 361.81 L 386.97 361.28 L 386.81 360.63 L 386.74 360.03 L 386.59 359.53 L 386.48 358.99 L 386.53 358.47 L 386.58 357.97 L 386.56 357.40 L 386.54 356.90 L 386.61 356.30 L 386.58 355.71 L 386.61 355.12 L 386.53 354.41 L 386.48 353.83 L 386.37 353.16 L 386.15 352.39 L 385.88 351.65 L 385.66 350.81 L 385.35 349.90 L 385.13 349.14 L 384.87 348.18 L 384.55 347.40 L 384.26 346.51 L 383.95 345.59 L 383.63 344.68 L 383.31 343.72 L 382.97 342.76 L 382.67 341.81 L 382.28 340.93 L 382.01 339.86 L 381.69 338.96 L 381.36 337.88 L 380.98 336.86 L 380.71 335.89 L 380.38 334.94 L 380.08 333.88 L 379.71 332.93 L 379.47 331.85 L 379.17 330.79 L 378.84 329.76 L 378.47 328.67 L 378.22 327.64 L 377.90 326.47 L 377.60 325.47 L 377.33 324.38 L 376.97 323.29 L 376.69 322.21 L 376.34 321.08 L 375.99 320.06 L 375.71 318.87 L 375.34 317.73 L 375.08 316.67 L 374.73 315.52 L 374.46 314.47 L 374.18 313.35 L 373.83 312.30" fill="none" stroke="black" stroke-width="1"/>
  <path d="M 373.88 312.32 L 373.96 312.27 L 373.97 312.26" fill="none" stroke="black" stroke-width="1"/>
  <path d="M 373.85 312.37 L 373.04 310.93 L 372.31 309.36 L 371.49 307.83 L 370.75 306.45 L 370.01 304.94 L 369.18 303.61 L 368.40 302.20 L 367.60 300.79 L 366.82 299.36 L 366.03 297.93 L 365.27 296.48 L 364.48 295.00 L 363.81 293.39 L 362.95 291.94 L 362.23 290.34 L 361.45 288.72 L 360.63 286.92 L 359.99 285.28 L 359.21 283.49 L 358.58 281.57 L 357.80 279.47 L 357.13 277.51 L 356.46 275.33 L 355.61 273.07 L 354.86 270.71 L 354.05 268.36 L 353.31 265.84 L 352.50 263.46 L 351.81 260.99 L 351.02 258.47 L 350.25 255.90 L 349.64 253.48 L 348.99 251.11 L 348.42 248.58 L 347.99 246.17 L 347.39 243.87 L 347.00 241.74 L 346.62 239.43 L 346.45 237.44 L 346.15 235.37 L 346.06 233.59 L 346.05 231.74 L 346.23 230.03 L 346.34 228.49 L 346.60 227.00 L 346.93 225.51 L 347.28 224.15 L 347.73 222.72 L 348.22 221.34 L 348.66 220.02 L 349.06 218.60 L 349.64 217.32 L 350.10 215.89 L 350.58 214.53 L 350.99 213.06 L 351.40 211.56 L 351.73 210.02 L 352.02 208.30 L 352.20 206.41 L 352.35 204.68 L 352.35 202.71 L 352.37 200.66 L 352.24 198.57 L 352.18 196.34 L 352.02 193.99 L 351.81 191.78 L 351.65 189.49 L 351.34 187.04 L 351.09 184.53 L 350.81 182.19 L 350.51 179.73 L 350.28 177.29 L 350.00 174.91 L 349.80 172.41 L 349.54 170.07 L 349.44 167.61 L 349.40 165.30 L 349.25 162.97 L 349.24 160.81 L 349.28 158.53 L 349.45 156.34 L 349.51 154.20 L 349.73 151.95 L 349.88 149.85 L 350.07 147.62 L 350.37 145.51 L 350.70 143.28 L 350.96 141.22 L 351.30 139.05 L 351.63 137.01 L 351.92 134.97 L 352.36 132.93 L 352.71 131.02 L 353.14 129.01 L 353.46 127.21 L 353.93 125.28 L 354.38 123.63 L 354.73 121.79 L 355.21 120.23 L 355.52 118.57 L 355.97 117.13 L 356.32 115.67 L 356.82 114.34 L 357.17 113.08 L 357.70 111.91 L 358.06 110.74 L 358.59 109.75 L 358.98 108.62 L 359.39 107.70 L 359.92 106.63 L 360.44 105.70 L 360.88 104.74 L 361.43 103.78 L 361.85 102.89 L 362.32 102.04 L 362.81 101.02 L 363.25 100.12 L 363.76 99.07 L 364.23 97.97 L 364.70 97.00" fill="none" stroke="black" stroke-width="1"/>
  <path d="M 367.70 100.11 L 364.68 95.45 L 361.58 90.73" fill="none" stroke="black" stroke-width="1"/>
  <path d="M 359.28 90.81 L 357.86 84.75" fill="none" stroke="black" stroke-width="1"/>
  <path d="M 352.34 84.75 L 346.34 84.45" fill="none" stroke="black" stroke-width="1"/>
  <path d="M 352.39 81.52 L 346.75 82.21 L 341.21 82.67 L 335.80 83.30 L 330.12 84.06 L 324.59 84.51 L 319.13 85.17 L 313.49 85.78 L 307.94 86.53 L 302.46 87.16 L 296.91 87.69" fill="none" stroke="black" stroke-width="1"/>
  <path d="M 281.58 66.13 L 282.69 66.32 L 283.73 66.44 L 284.79 66.54 L 285.85 66.75 L 286.88 66.93 L 287.96 67.06 L 288.97 67.16 L 290.07 67.37 L 291.11 67.59 L 292.19 67.67 L 293.33 67.86 L 294.32 67.98 L 295.31 68.21 L 296.47 68.29 L 297.64 68.53 L 298.65 68.60 L 299.72 68.69 L 300.88 68.90 L 301.97 69.04 L 303.16 69.21 L 304.36 69.44 L 305.49 69.52 L 306.75 69.73 L 307.88 69.82 L 309.18 70.02 L 310.31 70.13 L 311.48 70.20 L 312.76 70.43 L 314.06 70.59 L 315.25 70.73 L 316.51 70.97 L 317.74 71.04 L 319.05 71.17 L 320.25 71.34 L 321.55 71.56 L 322.75 71.65 L 324.08 71.85 L 325.24 71.95 L 326.50 72.10 L 327.71 72.25" fill="none" stroke="black" stroke-width="1"/>
  <path d="M 324.69 53.87 L 336.99 66.18" fill="none" stroke="black" stroke-width="1"/>
  <path d="M 337.01 63.05 L 340.17 66.22 L 343.14 69.30 L 346.26 72.31" fill="none" stroke="black" stroke-width="1"/>
  <path d="M 344.29 72.78 L 341.51 78.11" fill="none" stroke="black" stroke-width="1"/>
  <path d="M 339.83 78.41 L 338.04 76.50 L 336.05 74.11 L 333.97 72.10" fill="none" stroke="black" stroke-width="1"/>
  <path d="M 345.73 70.66 L 340.41 73.81" fill="none" stroke="black" stroke-width="1"/>
  <path d="M 327.76 75.41 L 315.46 69.26" fill="none" stroke="black" stroke-width="1"/>
  <path d="M 312.45 75.33 L 310.08 75.48 L 307.89 75.62 L 305.68 75.73 L 303.44 75.90 L 301.24 75.98 L 299.05 76.16 L 296.84 76.37 L 294.67 76.42 L 292.49 76.55 L 290.26 76.68 L 288.10 76.90 L 285.78 76.97 L 283.49 77.17 L 281.18 77.27 L 278.79 77.46 L 276.41 77.61 L 273.88 77.87 L 271.42 78.00 L 268.88 78.17 L 266.18 78.44 L 263.45 78.71 L 260.79 78.98 L 258.06 79.25 L 255.35 79.64 L 252.52 79.96 L 249.83 80.38 L 247.08 80.73 L 244.17 81.17 L 241.20 81.63 L 238.33 81.96 L 235.21 82.28 L 232.25 82.72 L 229.15 83.08 L 225.90 83.42 L 222.52 83.62 L 219.23 84.00 L 215.78 84.16 L 212.18 84.44 L 208.52 84.56 L 204.71 84.70 L 200.69 84.65 L 196.72 84.73 L 192.45 84.64 L 188.21 84.52 L 183.76 84.39 L 179.27 84.15 L 174.67 83.92 L 169.98 83.67 L 165.17 83.45 L 160.45 83.13 L 155.63 82.80 L 150.76 82.58 L 145.98 82.41 L 141.02 82.10 L 136.20 81.97 L 131.30 81.73 L 126.44 81.62 L 121.71 81.52 L 116.96 81.59 L 112.33 81.54 L 107.76 81.59 L 103.10 81.79 L 98.43 81.93 L 93.86 82.19 L 89.24 82.52 L 84.63 82.72 L 80.06 83.06 L 75.40 83.36 L 70.83 83.78 L 66.16 84.07 L 61.63 84.49 L 56.93 84.83 L 52.35 85.19 L 47.70 85.60 L 43.06 86.07 L 38.47 86.37 L 33.92 86.76 L 29.23 87.10 L 24.67 87.51 L 20.00 87.76" fill="none" stroke="black" stroke-width="1"/>
  <path d="M 35.47 127.72 L 38.81 127.46 L 42.17 127.21 L 45.54 126.95 L 48.91 126.69 L 52.29 126.44 L 55.66 126.18 L 59.02 125.92 L 62.36 125.67 L 65.68 125.41 L 68.98 125.15 L 72.24 124.90 L 75.46 124.64 L 78.67 124.38 L 81.87 124.13 L 85.06 123.87 L 88.23 123.62 L 91.38 123.36 L 94.50 123.10 L 97.59 122.85 L 100.65 122.59 L 103.66 122.33 L 106.62 122.08 L 109.54 121.82 L 112.39 121.56 L 115.17 121.31 L 117.87 121.05 L 120.51 120.80 L 123.10 120.54 L 125.64 120.28 L 128.16 120.03 L 130.65 119.77 L 133.13 119.51 L 135.61 119.26 L 138.10 119.00 L 140.61 118.74 L 143.15 118.49" fill="none" stroke="black" stroke-width="1"/>
  <path d="M 186.36 113.37 L 192.21 111.38" fill="none" stroke="black" stroke-width="1"/>
  <path d="M 173.92 143.10 L 177.72 142.85 L 181.44 142.59 L 185.10 142.33 L 188.74 142.08 L 192.37 141.82 L 196.04 141.56 L 199.75 141.31 L 203.55 141.05 L 207.46 140.79 L 211.49 140.54 L 215.69 140.28 L 220.08 140.03 L 224.66 139.77 L 229.44 139.51 L 234.38 139.26 L 239.45 139.00 L 244.62 138.74 L 249.88 138.49 L 255.19 138.23 L 260.53 137.97 L 265.87 137.72 L 271.18 137.46 L 276.43 137.21 L 281.61 136.95" fill="none" stroke="black" stroke-width="1"/>
  <path d="M 261.61 167.72 L 260.07 166.18 L 258.54 167.72 L 260.07 169.26 L 261.61 167.72" fill="none" stroke="black" stroke-width="1"/>
  <path d="M 266.23 198.49 L 204.69 204.64" fill="none" stroke="black" stroke-width="1"/>
  <path d="M 189.31 220.02 L 185.51 220.27 L 181.79 220.50 L 178.13 220.72 L 174.49 220.93 L 170.86 221.15 L 167.19 221.37 L 163.48 221.60 L 159.68 221.85 L 155.77 222.11 L 151.74 222.41 L 147.54 222.74 L 143.15 223.10 L 138.57 223.50 L 133.79 223.95 L 128.85 224.42 L 123.78 224.92 L 118.61 225.45 L 113.35 225.98 L 108.04 226.53 L 102.70 227.09 L 97.36 227.64 L 92.05 228.19 L 86.80 228.73 L 81.62 229.25 L 76.49 229.77 L 71.36 230.28 L 66.23 230.79 L 61.11 231.30 L 55.98 231.82 L 50.85 232.33 L 45.72 232.84 L 40.59 233.36 L 35.47 233.87 L 30.34 234.38 L 25.21 234.89 L 20.08 235.41" fill="none" stroke="black" stroke-width="1"/>
  <path d="M 50.85 189.25 L 97.00 183.10" fill="none" stroke="black" stroke-width="1"/>
  <path d="M 89.31 158.49 L 87.77 156.95 L 86.23 158.49 L 87.77 160.02 L 89.31 158.49" fill="none" stroke="black" stroke-width="1"/>
  <path d="M 69.21 105.71 L 63.10 106.60" fill="none" stroke="black" stroke-width="1"/>
  <path d="M 103.10 97.13 L 109.28 96.58" fill="none" stroke="black" stroke-width="1"/>
  <path d="M 81.60 66.12 L 83.51 66.27 L 85.28 66.51 L 87.08 66.71 L 88.94 67.01 L 90.67 67.34 L 92.58 67.57 L 94.33 67.89 L 96.22 68.14 L 98.06 68.49 L 99.87 68.68 L 101.76 68.88 L 103.53 69.15 L 105.46 69.28 L 107.22 69.49 L 109.13 69.55 L 110.94 69.66 L 112.80 69.55 L 114.70 69.61 L 116.64 69.43 L 118.52 69.30 L 120.44 69.06 L 122.40 68.69 L 124.43 68.21 L 126.34 67.82 L 128.30 67.34 L 130.32 66.73 L 132.30 66.18 L 134.33 65.47 L 136.43 64.70 L 138.37 64.08 L 140.38 63.38 L 142.42 62.62 L 144.44 61.86 L 146.48 61.13 L 148.47 60.36 L 150.54 59.65 L 152.47 59.03 L 154.58 58.24 L 156.54 57.66 L 158.61 56.93" fill="none" stroke="black" stroke-width="1"/>
  <path d="M 127.70 35.42 L 126.25 35.80 L 124.67 36.08 L 123.20 36.38 L 121.70 36.80 L 120.21 37.11 L 118.76 37.56 L 117.25 37.98 L 115.84 38.33 L 114.29 38.76 L 112.90 39.09 L 111.40 39.50 L 109.91 39.79 L 108.32 40.13 L 106.85 40.43 L 105.24 40.71 L 103.68 40.96 L 102.01 41.20 L 100.39 41.36 L 98.59 41.51 L 96.94 41.60 L 95.06 41.59 L 93.31 41.63 L 91.46 41.54 L 89.50 41.44 L 87.54 41.20 L 85.54 41.08 L 83.46 40.76 L 81.49 40.61 L 79.49 40.31 L 77.36 40.09 L 75.25 39.89 L 73.21 39.56 L 71.19 39.38 L 69.06 39.09 L 67.07 38.91 L 64.95 38.73 L 62.98 38.68 L 60.92 38.53 L 58.92 38.45 L 57.01 38.55 L 55.12 38.73 L 53.20 38.78 L 51.40 38.95 L 49.44 39.17 L 47.62 39.45 L 45.72 39.69 L 43.88 40.06 L 42.04 40.30 L 40.19 40.74 L 38.38 40.99 L 36.59 41.29 L 34.73 41.72 L 32.92 42.09 L 31.09 42.47 L 29.34 42.90 L 27.45 43.21 L 25.60 43.53 L 23.80 43.92 L 21.98 44.27 L 20.12 44.56" fill="none" stroke="black" stroke-width="1"/>
  <path d="M 112.38 20.00 L 114.61 20.13 L 117.02 20.29 L 119.33 20.47 L 121.70 20.57 L 124.07 20.64 L 126.40 20.82 L 128.69 21.03 L 131.11 21.08 L 133.42 21.18 L 135.81 21.34 L 138.22 21.48 L 140.48 21.62 L 142.87 21.76 L 145.10 21.92 L 147.32 22.11 L 149.65 22.26 L 151.95 22.46 L 154.12 22.64 L 156.25 22.89 L 158.48 23.08 L 160.53 23.35 L 162.74 23.62 L 164.77 23.97 L 166.92 24.27 L 168.91 24.66 L 171.02 25.01 L 173.03 25.48 L 175.06 25.79 L 177.07 26.17 L 179.04 26.58 L 181.08 27.01 L 182.97 27.34 L 185.01 27.60 L 186.87 28.03 L 188.75 28.36 L 190.75 28.61 L 192.61 28.85 L 194.61 29.05 L 196.48 29.19 L 198.46 29.30 L 200.37 29.32 L 202.28 29.36 L 204.21 29.38 L 206.05 29.27 L 207.93 29.13 L 209.78 29.04 L 211.60 28.85 L 213.48 28.70 L 215.33 28.44 L 217.16 28.29 L 218.92 28.11 L 220.82 27.84 L 222.65 27.60 L 224.48 27.36 L 226.30 27.21 L 228.13 26.90 L 230.00 26.68 L 231.80 26.47 L 233.65 26.22 L 235.50 26.11" fill="none" stroke="black" stroke-width="1"/>
  <path d="M 244.33 116.87 L 239.00 120.00" fill="none" stroke="black" stroke-width="1"/>
</svg>