<svg xmlns="http://www.w3.org/2000/svg" width="800" height="600" viewBox="0 0 800 600">
  <rect width="100%" height="100%" fill="white"/>
  <path d="M 20.09 460.95 L 663.64 460.95" fill="none" stroke="black" stroke-width="1"/>
  <path d="M 663.67 460.99 L 662.05 461.49 L 660.51 461.89 L 659.07 462.20 L 657.47 462.69 L 655.91 462.99 L 654.48 463.45 L 652.99 463.86 L 651.52 464.20 L 649.97 464.63 L 648.52 464.97 L 646.93 465.39 L 645.44 465.80 L 643.92 466.22 L 642.24 466.74 L 640.46 467.29 L 638.86 467.82 L 637.08 468.42 L 635.26 469.08 L 633.32 469.83 L 631.39 470.56 L 629.36 471.51 L 627.15 472.32 L 624.81 473.31 L 622.53 474.34 L 620.12 475.54 L 617.62 476.56 L 615.01 477.77 L 612.52 478.94 L 609.84 480.13 L 607.33 481.40 L 604.77 482.71 L 602.14 483.90 L 599.65 485.10 L 597.04 486.38 L 594.58 487.55 L 592.14 488.77 L 589.79 489.83 L 587.52 491.02 L 585.42 492.11 L 583.28 493.07 L 581.35 493.97 L 579.42 494.95 L 577.66 495.84 L 575.82 496.71 L 574.12 497.52 L 572.45 498.39 L 570.92 499.25 L 569.26 500.00 L 567.79 500.72 L 566.19 501.56 L 564.65 502.32 L 563.20 503.08 L 561.70 503.80 L 560.25 504.60 L 558.70 505.44 L 557.28 506.12 L 555.67 506.93 L 554.24 507.66 L 552.58 508.42 L 551.09 509.25" fill="none" stroke="black" stroke-width="1"/>
  <path d="M 550.94 509.17 L 549.91 508.58 L 548.71 507.92 L 547.52 507.41 L 546.51 506.71 L 545.45 506.16 L 544.33 505.53 L 543.15 504.89 L 542.14 504.36 L 541.02 503.73 L 539.95 503.17 L 538.93 502.64 L 537.75 501.96 L 536.60 501.40 L 535.51 500.69 L 534.41 500.11 L 533.24 499.34 L 532.11 498.65 L 530.92 497.91 L 529.67 497.05 L 528.55 496.37 L 527.27 495.48 L 526.14 494.69 L 525.00 493.69 L 523.72 492.87 L 522.53 491.87 L 521.28 490.95 L 519.98 490.00 L 518.81 488.96 L 517.47 487.87 L 516.30 486.92 L 515.04 485.89 L 513.74 484.87 L 512.50 483.93 L 511.12 482.82 L 509.77 481.74 L 508.43 480.82 L 506.99 479.78 L 505.67 478.89 L 504.27 477.89 L 502.82 477.07 L 501.34 476.14 L 499.87 475.33 L 498.37 474.39 L 496.80 473.64 L 495.29 472.78 L 493.65 472.01 L 491.94 471.26 L 490.42 470.40 L 488.78 469.61 L 487.14 468.83 L 485.48 467.97 L 483.83 467.27 L 482.24 466.56 L 480.51 465.71 L 478.85 464.98 L 477.19 464.16 L 475.55 463.45 L 473.90 462.59 L 472.29 461.86 L 470.66 460.99" fill="none" stroke="black" stroke-width="1"/>
  <path d="M 486.60 460.86 L 485.86 461.26 L 485.08 461.74 L 484.28 462.11 L 483.67 462.46 L 483.09 462.73 L 482.33 463.10 L 481.74 463.38 L 481.00 463.71 L 480.34 464.12 L 479.64 464.37 L 478.98 464.76 L 478.20 465.14 L 477.44 465.53 L 476.63 466.08 L 475.73 466.75 L 474.88 467.28 L 473.89 467.95 L 472.90 468.78 L 471.84 469.80 L 470.65 470.67 L 469.32 471.80 L 468.09 472.98 L 466.62 474.24 L 465.25 475.67 L 463.65 477.21 L 462.18 478.67 L 460.55 480.33 L 458.93 481.91 L 457.16 483.62 L 455.55 485.34 L 453.73 487.15 L 452.10 488.88 L 450.36 490.61 L 448.60 492.46 L 446.85 494.21 L 445.13 496.02 L 443.46 497.78 L 441.71 499.49 L 440.10 501.14 L 438.42 502.80 L 436.79 504.31 L 435.19 506.02 L 433.64 507.69 L 431.96 509.23 L 430.27 510.80 L 428.73 512.44 L 427.12 513.99 L 425.51 515.65 L 423.85 517.33 L 422.28 518.87 L 420.67 520.54 L 419.05 522.08 L 417.47 523.72 L 415.82 525.29 L 414.17 526.94 L 412.59 528.51 L 410.89 530.10 L 409.36 531.72 L 407.81 533.31 L 406.13 534.93" fill="none" stroke="black" stroke-width="1"/>
  <path d="M 406.20 535.03 L 404.62 534.09 L 402.98 533.15 L 401.41 532.20 L 399.76 531.36 L 398.20 530.50 L 396.54 529.61 L 395.00 528.76 L 393.31 527.88 L 391.68 527.07 L 390.09 526.13 L 388.44 525.24 L 386.87 524.31 L 385.30 523.39 L 383.65 522.39 L 382.04 521.43 L 380.43 520.33 L 378.79 519.29 L 377.21 518.09 L 375.58 516.91 L 373.99 515.63 L 372.41 514.34 L 370.77 512.89 L 369.23 511.34 L 367.56 509.86 L 366.01 508.30 L 364.35 506.62 L 362.76 504.91 L 361.14 503.23 L 359.57 501.55 L 357.93 499.76 L 356.37 498.01 L 354.72 496.27 L 353.05 494.52 L 351.51 492.83 L 349.84 491.24 L 348.30 489.51 L 346.76 487.95 L 345.09 486.38 L 343.43 485.02 L 341.87 483.50 L 340.19 482.16 L 338.65 480.86 L 337.10 479.60 L 335.43 478.38 L 333.78 477.28 L 332.20 476.04 L 330.65 474.86 L 328.98 473.81 L 327.30 472.73 L 325.75 471.65 L 324.18 470.53 L 322.52 469.54 L 320.97 468.49 L 319.30 467.45 L 317.63 466.41 L 316.07 465.35 L 314.46 464.32 L 312.84 463.21 L 311.32 462.08 L 309.62 461.01" fill="none" stroke="black" stroke-width="1"/>
  <path d="M 341.87 461.03 L 341.14 461.80 L 340.28 462.56 L 339.54 463.19 L 338.73 463.97 L 338.04 464.73 L 337.21 465.31 L 336.38 465.93 L 335.70 466.64 L 334.92 467.26 L 334.17 468.00 L 333.38 468.80 L 332.61 469.44 L 331.71 470.15 L 331.00 471.01 L 330.21 471.92 L 329.32 472.76 L 328.50 473.77 L 327.56 474.74 L 326.65 475.91 L 325.68 476.99 L 324.79 478.26 L 323.74 479.48 L 322.79 480.79 L 321.75 482.13 L 320.81 483.44 L 319.72 484.93 L 318.58 486.49 L 317.62 487.91 L 316.52 489.46 L 315.46 491.04 L 314.31 492.67 L 313.22 494.33 L 311.98 495.97 L 310.88 497.79 L 309.67 499.55 L 308.45 501.41 L 307.13 503.35 L 305.91 505.20 L 304.66 507.11 L 303.24 509.14 L 301.72 511.26 L 300.39 513.44 L 298.82 515.85 L 297.33 518.20 L 295.76 520.70 L 294.11 523.29 L 292.52 525.87 L 290.78 528.59 L 289.01 531.33 L 287.38 533.96 L 285.63 536.59 L 283.97 539.28 L 282.32 541.91 L 280.58 544.43 L 279.01 546.83 L 277.28 549.28 L 275.67 551.53 L 274.10 553.70 L 272.55 555.65 L 271.10 557.56 L 269.61 559.27 L 268.27 560.86 L 266.99 562.27 L 265.54 563.71 L 264.31 564.90 L 262.90 566.20 L 261.56 567.34 L 260.33 568.41 L 259.08 569.46 L 257.81 570.41 L 256.59 571.31 L 255.32 572.27 L 254.09 573.11 L 252.85 574.09 L 251.57 575.08 L 250.36 575.93 L 249.08 576.85 L 247.86 577.87 L 246.65 578.99 L 245.31 580.00" fill="none" stroke="black" stroke-width="1"/>
  <path d="M 245.32 579.93 L 244.12 579.31 L 242.72 578.72 L 241.35 578.23 L 240.10 577.60 L 238.69 577.11 L 237.47 576.53 L 236.22 576.09 L 234.83 575.48 L 233.49 574.86 L 232.20 574.40 L 230.97 573.85 L 229.58 573.26 L 228.27 572.62 L 227.00 572.01 L 225.65 571.35 L 224.45 570.61 L 223.19 569.76 L 221.95 569.03 L 220.71 568.17 L 219.50 567.23 L 218.27 566.35 L 217.17 565.28 L 216.08 564.20 L 214.97 563.26 L 213.95 562.13 L 212.85 561.15 L 211.78 560.10 L 210.78 558.92 L 209.67 557.80 L 208.72 556.53 L 207.64 555.17 L 206.63 553.97 L 205.62 552.58 L 204.47 551.20 L 203.41 549.66 L 202.19 548.20 L 200.90 546.64 L 199.76 544.93 L 198.50 543.23 L 197.13 541.38 L 195.72 539.36 L 194.30 537.39 L 192.78 535.11 L 191.30 532.91 L 189.68 530.49 L 188.16 528.04 L 186.53 525.50 L 184.90 522.92 L 183.33 520.22 L 181.57 517.64 L 179.80 515.08 L 178.19 512.34 L 176.42 509.76 L 174.79 507.12 L 173.11 504.65 L 171.41 502.09 L 169.78 499.70 L 168.06 497.38 L 166.46 495.20 L 164.79 493.10 L 163.23 491.13 L 161.57 489.23 L 159.98 487.39 L 158.35 485.63 L 156.77 483.92 L 155.14 482.25 L 153.49 480.57 L 151.93 479.05 L 150.34 477.52 L 148.72 475.98 L 147.10 474.51 L 145.50 472.99 L 143.84 471.42 L 142.30 470.03 L 140.72 468.54 L 139.08 467.05 L 137.49 465.62 L 135.87 464.01 L 134.26 462.47 L 132.66 460.86" fill="none" stroke="black" stroke-width="1"/>
  <path d="M 164.88 460.95 L 164.02 461.77 L 163.31 462.46 L 162.62 463.22 L 161.81 463.81 L 161.07 464.47 L 160.34 465.08 L 159.52 465.72 L 158.89 466.33 L 158.11 466.89 L 157.41 467.61 L 156.70 468.38 L 155.89 469.02 L 155.10 469.76 L 154.29 470.60 L 153.40 471.48 L 152.59 472.42 L 151.63 473.56 L 150.75 474.56 L 149.83 475.82 L 148.75 477.08 L 147.70 478.59 L 146.56 480.06 L 145.42 481.68 L 144.18 483.46 L 142.85 485.38 L 141.65 487.20 L 140.33 489.22 L 139.02 491.19 L 137.60 493.22 L 136.31 495.35 L 134.93 497.46 L 133.58 499.59 L 132.20 501.76 L 130.85 503.82 L 129.42 505.82 L 128.16 507.96 L 126.84 510.02 L 125.56 511.93 L 124.39 513.68 L 123.08 515.63 L 121.82 517.43 L 120.70 519.10 L 119.49 520.70 L 118.38 522.47 L 117.31 524.16 L 116.10 525.75 L 114.96 527.46 L 113.86 528.97 L 112.68 530.58 L 111.64 532.13 L 110.53 533.74 L 109.44 535.26 L 108.25 536.89 L 107.24 538.37 L 106.17 540.03 L 105.04 541.50 L 103.93 543.14 L 102.83 544.65 L 101.66 546.16 L 100.60 547.84" fill="none" stroke="black" stroke-width="1"/>
  <path d="M 100.50 547.86 L 99.36 546.86 L 98.26 545.69 L 97.22 544.64 L 96.05 543.66 L 94.94 542.69 L 93.86 541.70 L 92.78 540.80 L 91.66 539.76 L 90.65 538.75 L 89.46 537.79 L 88.37 536.82 L 87.25 535.72 L 86.18 534.65 L 85.00 533.49 L 83.79 532.20 L 82.72 531.06 L 81.62 529.78 L 80.40 528.35 L 79.20 526.81 L 78.02 525.31 L 76.74 523.51 L 75.61 521.83 L 74.48 519.77 L 73.19 517.87 L 71.87 515.78 L 70.75 513.58 L 69.44 511.40 L 68.28 509.05 L 67.08 506.78 L 65.77 504.40 L 64.50 502.14 L 63.21 499.76 L 61.84 497.50 L 60.59 495.23 L 59.29 492.99 L 57.91 490.94 L 56.45 489.03 L 55.15 486.99 L 53.69 485.31 L 52.30 483.50 L 50.88 482.02 L 49.35 480.46 L 47.90 479.03 L 46.28 477.76 L 44.72 476.53 L 43.13 475.32 L 41.53 474.26 L 39.90 473.10 L 38.23 472.13 L 36.62 471.03 L 34.88 470.03 L 33.31 469.05 L 31.67 468.01 L 29.99 467.12 L 28.27 466.07 L 26.67 465.16 L 24.98 464.05 L 23.38 463.13 L 21.71 461.98 L 20.14 460.96" fill="none" stroke="black" stroke-width="1"/>
  <path d="M 20.09 396.60 L 25.45 396.33 L 30.81 396.06 L 36.17 395.79 L 41.54 395.53 L 46.90 395.26 L 52.26 394.99 L 57.63 394.72 L 62.99 394.45 L 68.35 394.19 L 73.72 393.92 L 79.08 393.65 L 84.44 393.38 L 89.80 393.11 L 95.17 392.84 L 100.53 392.58 L 105.89 392.31 L 111.26 392.04 L 116.62 391.77 L 121.98 391.50 L 127.34 391.24 L 132.71 390.97 L 138.07 390.70 L 143.43 390.43 L 148.80 390.16 L 154.16 389.89 L 159.52 389.63 L 164.89 389.36 L 170.25 389.09 L 175.61 388.82 L 180.97 388.55 L 186.34 388.29 L 191.70 388.02 L 197.06 387.75 L 202.43 387.48 L 207.79 387.21 L 213.15 386.95" fill="none" stroke="black" stroke-width="1"/>
  <path d="M 261.42 419.12 L 325.77 412.69" fill="none" stroke="black" stroke-width="1"/>
  <path d="M 412.65 364.42 L 422.31 332.24" fill="none" stroke="black" stroke-width="1"/>
  <path d="M 412.65 341.80 L 414.21 336.98 L 415.89 332.31" fill="none" stroke="black" stroke-width="1"/>
  <path d="M 412.74 329.07 L 410.48 323.66 L 408.48 318.21 L 406.27 312.89" fill="none" stroke="black" stroke-width="1"/>
  <path d="M 407.22 312.91 L 405.28 306.79" fill="none" stroke="black" stroke-width="1"/>
  <path d="M 401.79 310.01 L 404.19 315.94" fill="none" stroke="black" stroke-width="1"/>
  <path d="M 408.17 316.37 L 410.51 322.44" fill="none" stroke="black" stroke-width="1"/>
  <path d="M 406.15 322.64 L 404.06 317.25 L 402.03 311.94 L 399.86 306.57" fill="none" stroke="black" stroke-width="1"/>
  <path d="M 399.75 306.59 L 397.62 302.21 L 395.55 298.07 L 393.43 293.71" fill="none" stroke="black" stroke-width="1"/>
  <path d="M 399.76 303.28 L 400.06 304.01 L 400.41 304.90 L 400.64 305.62 L 401.06 306.52 L 401.33 307.36 L 401.71 308.14 L 402.08 308.91 L 402.36 309.76 L 402.68 310.61 L 403.01 311.38 L 403.30 312.13 L 403.66 313.00 L 403.97 313.75 L 404.31 314.62 L 404.63 315.49 L 404.96 316.23 L 405.35 317.11 L 405.61 317.85 L 405.91 318.57 L 406.25 319.46 L 406.56 320.21 L 406.89 321.07 L 407.15 321.81 L 407.52 322.68 L 407.91 323.51 L 408.16 324.29 L 408.41 325.04 L 408.79 325.89 L 409.20 326.66 L 409.42 327.50 L 409.76 328.24 L 410.05 329.10 L 410.31 329.91 L 410.68 330.71 L 411.03 331.43 L 411.31 332.31 L 411.57 333.10 L 411.94 333.92 L 412.28 334.76 L 412.57 335.52" fill="none" stroke="black" stroke-width="1"/>
  <path d="M 409.39 332.26 L 407.23 327.93 L 405.26 323.75 L 403.06 319.38" fill="none" stroke="black" stroke-width="1"/>
  <path d="M 404.03 319.14 L 401.65 313.03" fill="none" stroke="black" stroke-width="1"/>
  <path d="M 394.81 313.22 L 391.79 318.80" fill="none" stroke="black" stroke-width="1"/>
  <path d="M 393.38 319.39 L 394.42 315.04 L 395.56 310.82 L 396.53 306.54" fill="none" stroke="black" stroke-width="1"/>
  <path d="M 398.95 309.77 L 400.70 316.04" fill="none" stroke="black" stroke-width="1"/>
  <path d="M 399.75 322.50 L 398.77 326.75 L 397.73 331.14 L 396.66 335.42" fill="none" stroke="black" stroke-width="1"/>
  <path d="M 398.21 339.10 L 401.48 344.76" fill="none" stroke="black" stroke-width="1"/>
  <path d="M 394.39 331.35 L 398.70 326.74" fill="none" stroke="black" stroke-width="1"/>
  <path d="M 404.77 322.85 L 407.64 328.59" fill="none" stroke="black" stroke-width="1"/>
  <path d="M 405.44 329.21 L 407.23 335.41" fill="none" stroke="black" stroke-width="1"/>
  <path d="M 409.34 338.74 L 406.14 343.56 L 402.99 348.36" fill="none" stroke="black" stroke-width="1"/>
  <path d="M 409.41 354.77 L 412.54 351.53 L 415.82 348.42 L 419.06 345.21" fill="none" stroke="black" stroke-width="1"/>
  <path d="M 425.58 345.17 L 423.94 350.01 L 422.22 354.81" fill="none" stroke="black" stroke-width="1"/>
  <path d="M 425.50 351.46 L 422.29 356.28 L 419.17 361.17" fill="none" stroke="black" stroke-width="1"/>
  <path d="M 425.47 370.88 L 428.79 367.69 L 431.98 364.43" fill="none" stroke="black" stroke-width="1"/>
  <path d="M 435.19 367.59 L 438.40 364.32 L 441.69 361.14" fill="none" stroke="black" stroke-width="1"/>
  <path d="M 446.48 357.98 L 444.87 359.59 L 443.26 357.98 L 444.87 356.38 L 446.48 357.98" fill="none" stroke="black" stroke-width="1"/>
  <path d="M 448.14 357.94 L 452.46 355.84 L 456.65 353.67 L 460.87 351.54" fill="none" stroke="black" stroke-width="1"/>
  <path d="M 663.64 396.60 L 658.28 396.87 L 652.91 397.13 L 647.55 397.40 L 642.19 397.67 L 636.82 397.94 L 631.46 398.21 L 626.10 398.48 L 620.74 398.74 L 615.37 399.01 L 610.01 399.28 L 604.65 399.55 L 599.28 399.82 L 593.92 400.08 L 588.56 400.35 L 583.19 400.62 L 577.83 400.89 L 572.47 401.16 L 567.11 401.43 L 561.74 401.69 L 556.38 401.96 L 551.02 402.23 L 545.65 402.50 L 540.29 402.77 L 534.93 403.03 L 529.57 403.30 L 524.20 403.57 L 518.84 403.84 L 513.48 404.11 L 508.11 404.37 L 502.75 404.64 L 497.39 404.91 L 492.02 405.18 L 486.66 405.45 L 481.30 405.72 L 475.94 405.98 L 470.57 406.25" fill="none" stroke="black" stroke-width="1"/>
  <path d="M 419.09 451.30 L 425.52 428.78" fill="none" stroke="black" stroke-width="1"/>
  <path d="M 422.31 412.69 L 431.96 380.51" fill="none" stroke="black" stroke-width="1"/>
  <path d="M 431.99 374.07 L 430.60 373.10 L 429.31 372.10 L 427.94 371.07 L 426.46 370.09 L 424.94 369.02 L 423.53 368.04 L 421.99 367.05 L 420.57 365.99 L 419.20 364.97 L 417.66 363.96 L 416.27 363.03 L 414.86 361.95 L 413.55 360.89 L 412.24 360.01 L 411.02 359.14 L 409.87 358.13 L 408.93 357.25 L 407.81 356.35 L 406.90 355.58 L 406.15 354.68 L 405.61 353.97 L 404.92 353.17 L 404.55 352.51 L 404.10 351.81 L 403.78 351.26 L 403.61 350.58 L 403.54 349.95 L 403.38 349.43 L 403.27 348.86 L 403.32 348.32 L 403.37 347.80 L 403.35 347.21 L 403.33 346.68 L 403.41 346.05 L 403.37 345.43 L 403.40 344.82 L 403.32 344.07 L 403.27 343.47 L 403.15 342.77 L 402.92 341.96 L 402.64 341.19 L 402.42 340.31 L 402.09 339.36 L 401.86 338.57 L 401.58 337.56 L 401.25 336.74 L 400.95 335.81 L 400.62 334.85 L 400.28 333.91 L 399.96 332.90 L 399.59 331.89 L 399.28 330.90 L 398.87 329.98 L 398.59 328.86 L 398.26 327.92 L 397.91 326.79 L 397.52 325.72 L 397.24 324.71 L 396.89 323.71 L 396.58 322.61 L 396.19 321.61 L 395.93 320.48 L 395.63 319.37 L 395.28 318.30 L 394.89 317.16 L 394.63 316.08 L 394.29 314.85 L 393.98 313.81 L 393.70 312.67 L 393.32 311.53 L 393.03 310.40 L 392.66 309.22 L 392.30 308.15 L 392.01 306.91 L 391.62 305.72 L 391.35 304.61 L 390.98 303.41 L 390.69 302.31 L 390.41 301.14 L 390.04 300.04" fill="none" stroke="black" stroke-width="1"/>
  <path d="M 390.09 300.06 L 390.18 300.00 L 390.19 300.00" fill="none" stroke="black" stroke-width="1"/>
  <path d="M 390.05 300.11 L 389.21 298.60 L 388.44 296.96 L 387.60 295.36 L 386.81 293.92 L 386.04 292.34 L 385.17 290.95 L 384.36 289.47 L 383.52 288.00 L 382.71 286.50 L 381.88 285.01 L 381.09 283.49 L 380.26 281.95 L 379.55 280.26 L 378.66 278.75 L 377.90 277.07 L 377.09 275.38 L 376.23 273.50 L 375.56 271.78 L 374.75 269.91 L 374.08 267.90 L 373.28 265.71 L 372.58 263.65 L 371.88 261.37 L 370.98 259.01 L 370.20 256.54 L 369.35 254.08 L 368.58 251.45 L 367.74 248.96 L 367.01 246.37 L 366.18 243.74 L 365.38 241.05 L 364.74 238.52 L 364.06 236.04 L 363.46 233.40 L 363.01 230.87 L 362.39 228.47 L 361.98 226.25 L 361.58 223.83 L 361.40 221.75 L 361.09 219.59 L 361.00 217.72 L 360.99 215.79 L 361.17 214.00 L 361.29 212.39 L 361.56 210.83 L 361.90 209.27 L 362.27 207.85 L 362.74 206.35 L 363.25 204.91 L 363.72 203.53 L 364.14 202.05 L 364.74 200.71 L 365.22 199.21 L 365.72 197.79 L 366.15 196.25 L 366.58 194.68 L 366.92 193.07 L 367.23 191.28 L 367.42 189.30 L 367.57 187.49 L 367.58 185.43 L 367.60 183.29 L 367.46 181.10 L 367.39 178.76 L 367.23 176.31 L 367.01 173.99 L 366.84 171.60 L 366.52 169.04 L 366.26 166.41 L 365.96 163.96 L 365.65 161.39 L 365.41 158.84 L 365.12 156.35 L 364.91 153.74 L 364.63 151.29 L 364.53 148.72 L 364.49 146.30 L 364.33 143.86 L 364.32 141.61 L 364.36 139.23 L 364.54 136.93 L 364.60 134.70 L 364.84 132.34 L 364.99 130.15 L 365.19 127.81 L 365.51 125.61 L 365.85 123.27 L 366.12 121.12 L 366.48 118.85 L 366.82 116.72 L 367.13 114.58 L 367.59 112.45 L 367.95 110.45 L 368.40 108.35 L 368.74 106.47 L 369.23 104.45 L 369.70 102.72 L 370.07 100.80 L 370.57 99.17 L 370.89 97.43 L 371.36 95.93 L 371.72 94.40 L 372.25 93.01 L 372.61 91.69 L 373.17 90.47 L 373.54 89.25 L 374.10 88.21 L 374.51 87.02 L 374.93 86.07 L 375.50 84.95 L 376.04 83.97 L 376.50 82.97 L 377.07 81.97 L 377.51 81.03 L 378.00 80.14 L 378.52 79.08 L 378.97 78.14 L 379.51 77.04 L 380.00 75.89 L 380.49 74.87" fill="none" stroke="black" stroke-width="1"/>
  <path d="M 390.16 74.86 L 388.95 74.68 L 387.85 74.57 L 386.61 74.51 L 385.48 74.35 L 384.28 74.28 L 383.07 74.16 L 381.77 74.15 L 380.65 73.99 L 379.40 73.84 L 378.24 73.79 L 377.03 73.61 L 375.89 73.55 L 374.67 73.46 L 373.62 73.23 L 372.49 73.00 L 371.45 72.81 L 370.48 72.59 L 369.42 72.26 L 368.51 71.89 L 367.55 71.54 L 366.80 71.17 L 365.88 70.64 L 365.02 70.16 L 364.36 69.58 L 363.65 69.01 L 362.99 68.39 L 362.38 67.69 L 361.72 67.09 L 361.14 66.42 L 360.53 65.71 L 359.98 64.99 L 359.39 64.29 L 358.87 63.58 L 358.27 62.85 L 357.65 62.16 L 357.13 61.42 L 356.61 60.64 L 355.96 60.02 L 355.31 59.31 L 354.72 58.69" fill="none" stroke="black" stroke-width="1"/>
  <path d="M 354.72 58.65 L 359.01 56.54 L 363.35 54.31 L 367.65 52.28" fill="none" stroke="black" stroke-width="1"/>
  <path d="M 367.54 52.27 L 368.29 52.59 L 368.86 52.87 L 369.61 53.17 L 370.19 53.40 L 370.87 53.58 L 371.54 53.88 L 372.14 54.18 L 372.89 54.36 L 373.61 54.64 L 374.24 54.86 L 374.89 55.11 L 375.57 55.41 L 376.29 55.79 L 376.87 56.04 L 377.59 56.43 L 378.13 56.77 L 378.77 57.15 L 379.35 57.64 L 379.92 58.16 L 380.52 58.67 L 381.01 59.25 L 381.62 59.89 L 382.18 60.51 L 382.66 61.28 L 383.25 62.02 L 383.66 62.80 L 384.06 63.68 L 384.62 64.43 L 385.13 65.33 L 385.56 66.14 L 385.97 67.06 L 386.47 67.90 L 386.97 68.70 L 387.39 69.67 L 387.89 70.55 L 388.30 71.44 L 388.78 72.32 L 389.23 73.17 L 389.68 74.02 L 390.18 74.83" fill="none" stroke="black" stroke-width="1"/>
  <path d="M 399.75 84.45 L 398.78 89.96 L 397.88 95.42 L 396.88 101.03 L 395.98 106.56 L 395.06 112.16 L 394.26 117.56 L 393.26 123.18" fill="none" stroke="black" stroke-width="1"/>
  <path d="M 390.08 129.45 L 389.66 130.44 L 389.42 131.36 L 389.04 132.31 L 388.74 133.26 L 388.46 134.19 L 388.04 135.14 L 387.73 136.03 L 387.34 137.01 L 387.01 137.90 L 386.65 138.90 L 386.24 139.77 L 385.97 140.80 L 385.69 141.72 L 385.33 142.72 L 384.93 143.73 L 384.71 144.68 L 384.48 145.74 L 384.15 146.69 L 383.81 147.81 L 383.64 148.75 L 383.51 149.79 L 383.19 150.87 L 383.05 151.91 L 382.80 153.04 L 382.60 154.07 L 382.46 155.27 L 382.34 156.36 L 382.15 157.52 L 382.02 158.72 L 381.87 159.81 L 381.79 160.94 L 381.61 162.11 L 381.44 163.30 L 381.35 164.41 L 381.21 165.63 L 381.09 166.71 L 381.03 167.88 L 380.82 169.00 L 380.65 170.12 L 380.52 171.27" fill="none" stroke="black" stroke-width="1"/>
  <path d="M 374.68 158.53 L 373.39 164.74" fill="none" stroke="black" stroke-width="1"/>
  <path d="M 406.25 155.25 L 411.08 153.65 L 415.96 152.07 L 420.73 150.45 L 425.57 148.83" fill="none" stroke="black" stroke-width="1"/>
  <path d="M 412.62 148.78 L 411.81 154.43 L 411.04 160.06 L 410.29 165.72 L 409.42 171.27 L 408.67 176.89 L 407.84 182.63 L 407.16 188.20 L 406.30 193.90" fill="none" stroke="black" stroke-width="1"/>
  <path d="M 399.83 203.46 L 404.70 201.00 L 409.40 198.75 L 414.25 196.34 L 419.14 193.88" fill="none" stroke="black" stroke-width="1"/>
  <path d="M 428.68 187.38 L 429.02 181.26 L 429.56 175.31 L 429.96 169.18 L 430.30 163.32 L 430.63 157.20 L 431.11 151.09 L 431.48 145.07 L 431.88 139.10" fill="none" stroke="black" stroke-width="1"/>
  <path d="M 422.40 129.46 L 422.83 123.87 L 423.23 118.44 L 423.73 112.95 L 424.24 107.37 L 424.66 101.87 L 425.04 96.39 L 425.59 90.87" fill="none" stroke="black" stroke-width="1"/>
  <path d="M 457.67 90.89 L 457.15 96.35 L 456.68 101.91 L 456.38 107.53 L 455.94 113.07 L 455.37 118.56 L 454.99 124.15 L 454.48 129.61" fill="none" stroke="black" stroke-width="1"/>
  <path d="M 454.46 142.41 L 454.01 147.94 L 453.71 153.58 L 453.17 159.37 L 452.88 164.88 L 452.38 170.53 L 452.06 176.18 L 451.64 181.78 L 451.22 187.40" fill="none" stroke="black" stroke-width="1"/>
  <path d="M 457.61 203.58 L 462.41 201.08 L 467.26 198.83 L 472.12 196.40 L 476.98 193.89" fill="none" stroke="black" stroke-width="1"/>
  <path d="M 473.80 193.81 L 474.55 188.27 L 475.37 182.60 L 476.24 176.86 L 477.09 171.26 L 477.82 165.68 L 478.57 160.07 L 479.42 154.37 L 480.20 148.82" fill="none" stroke="black" stroke-width="1"/>
  <path d="M 470.60 148.87 L 465.73 150.49 L 461.04 152.20 L 456.16 153.66 L 451.29 155.36" fill="none" stroke="black" stroke-width="1"/>
  <path d="M 438.48 139.10 L 438.08 145.10 L 437.53 151.14 L 436.97 157.13 L 436.62 163.03 L 436.07 169.15 L 435.64 175.13 L 435.10 181.06" fill="none" stroke="black" stroke-width="1"/>
  <path d="M 438.38 187.40 L 438.37 193.91 L 438.38 200.35 L 438.28 206.75 L 438.26 213.09 L 438.24 219.55 L 438.30 226.01" fill="none" stroke="black" stroke-width="1"/>
  <path d="M 438.31 226.03 L 437.75 231.41 L 437.34 236.68 L 436.69 242.07 L 436.25 247.55 L 435.77 252.86 L 435.22 258.19" fill="none" stroke="black" stroke-width="1"/>
  <path d="M 447.98 264.63 L 447.44 269.81 L 446.64 274.86 L 446.02 280.07 L 445.49 285.11 L 444.80 290.34" fill="none" stroke="black" stroke-width="1"/>
  <path d="M 455.47 296.90 L 453.67 302.98" fill="none" stroke="black" stroke-width="1"/>
  <path d="M 451.34 338.73 L 451.83 338.50 L 452.30 338.09 L 452.72 337.75 L 453.26 337.46 L 453.78 337.14 L 454.23 336.86 L 454.79 336.57 L 455.19 336.25 L 455.69 335.89 L 456.16 335.64 L 456.69 335.42 L 457.12 335.01 L 457.54 334.77 L 458.08 334.36 L 458.49 333.94 L 459.05 333.67 L 459.52 333.24 L 460.01 332.95 L 460.50 332.62 L 460.97 332.16 L 461.49 331.83 L 461.92 331.32 L 462.31 330.92 L 462.88 330.43 L 463.41 329.97 L 463.84 329.50 L 464.26 329.02 L 464.79 328.53 L 465.22 328.04 L 465.74 327.53 L 466.30 327.10 L 466.70 326.52 L 467.14 326.04 L 467.65 325.51 L 468.18 325.04 L 468.60 324.50 L 469.09 324.04 L 469.56 323.50 L 469.97 323.00 L 470.51 322.52" fill="none" stroke="black" stroke-width="1"/>
  <path d="M 473.85 322.61 L 473.77 322.88 L 473.51 323.24 L 473.39 323.63 L 473.18 323.86 L 472.97 324.14 L 472.85 324.46 L 472.61 324.76 L 472.51 325.06 L 472.37 325.37 L 472.18 325.67 L 471.99 325.94 L 471.84 326.29 L 471.63 326.56 L 471.51 326.94 L 471.34 327.24 L 471.18 327.62 L 470.95 327.94 L 470.86 328.34 L 470.73 328.78 L 470.53 329.11 L 470.30 329.45 L 470.22 329.94 L 469.99 330.38 L 469.90 330.82 L 469.72 331.29 L 469.59 331.75 L 469.41 332.25 L 469.28 332.70 L 469.15 333.19 L 468.97 333.68 L 468.84 334.15 L 468.67 334.68 L 468.54 335.22 L 468.36 335.68 L 468.14 336.18 L 468.05 336.68 L 467.81 337.25 L 467.75 337.66 L 467.58 338.22 L 467.44 338.63" fill="none" stroke="black" stroke-width="1"/>
  <path d="M 460.99 338.45 L 461.26 339.43 L 461.15 341.09 L 461.16 342.12" fill="none" stroke="black" stroke-width="1"/>
  <path d="M 459.27 341.85 L 457.66 343.46 L 456.05 341.85 L 457.66 340.24 L 459.27 341.85" fill="none" stroke="black" stroke-width="1"/>
  <path d="M 454.52 345.14 L 456.74 345.30 L 458.66 345.19 L 460.89 344.88" fill="none" stroke="black" stroke-width="1"/>
  <path d="M 464.07 345.19 L 459.86 348.50 L 455.58 351.58 L 451.35 354.85" fill="none" stroke="black" stroke-width="1"/>
  <path d="M 448.03 354.80 L 444.78 357.89 L 441.66 361.07 L 438.45 364.35" fill="none" stroke="black" stroke-width="1"/>
  <path d="M 438.31 364.45 L 435.21 367.61 L 431.94 370.76" fill="none" stroke="black" stroke-width="1"/>
  <path d="M 431.99 374.01 L 432.34 373.67 L 432.63 373.36 L 432.99 373.12 L 433.27 372.72 L 433.62 372.48 L 433.90 372.08 L 434.14 371.81 L 434.53 371.43 L 434.82 371.04 L 435.17 370.79 L 435.46 370.47 L 435.80 370.15 L 436.13 369.85 L 436.44 369.51 L 436.69 369.25 L 437.08 368.86 L 437.39 368.61 L 437.72 368.22 L 437.99 367.82 L 438.36 367.58 L 438.76 367.23 L 439.00 366.94 L 439.23 366.55 L 439.64 366.30 L 440.02 366.01 L 440.29 365.66 L 440.70 365.34 L 440.94 365.02 L 441.26 364.64 L 441.58 364.38 L 441.97 364.11 L 442.23 363.73 L 442.63 363.40 L 442.88 363.09 L 443.20 362.68 L 443.53 362.45 L 443.85 362.12 L 444.18 361.81 L 444.54 361.53 L 444.82 361.17" fill="none" stroke="black" stroke-width="1"/>
  <path d="M 444.85 361.16 L 449.75 358.01 L 454.51 354.83 L 459.30 351.57 L 464.17 348.33" fill="none" stroke="black" stroke-width="1"/>
  <path d="M 464.11 348.26 L 464.78 347.47 L 465.44 346.66 L 466.06 345.77 L 466.81 345.05 L 467.42 344.33 L 468.21 343.43 L 468.95 342.68 L 469.61 341.82 L 470.36 341.06 L 471.00 340.21 L 471.62 339.42 L 472.36 338.60 L 473.04 337.77 L 473.67 336.99 L 474.28 336.24 L 474.90 335.39 L 475.46 334.53 L 476.05 333.78 L 476.47 333.07 L 477.08 332.18 L 477.50 331.35 L 478.00 330.58 L 478.39 329.88 L 478.83 328.99 L 479.19 328.24 L 479.58 327.40 L 480.01 326.66 L 480.27 325.81 L 480.57 325.00 L 480.89 324.22 L 481.20 323.34 L 481.46 322.63 L 481.73 321.81 L 482.00 321.04 L 482.23 320.32 L 482.51 319.44 L 482.81 318.67 L 482.99 317.85 L 483.28 316.98 L 483.47 316.25 L 483.77 315.54 L 483.92 314.64 L 484.16 313.91 L 484.30 313.03 L 484.40 312.25 L 484.65 311.42 L 484.75 310.55 L 484.95 309.80 L 485.06 309.08 L 485.24 308.19 L 485.36 307.42 L 485.50 306.57 L 485.63 305.73 L 485.76 304.95 L 485.93 304.08 L 486.02 303.34 L 486.13 302.53 L 486.29 301.72 L 486.53 300.90 L 486.59 300.10" fill="none" stroke="black" stroke-width="1"/>
  <path d="M 480.28 306.46 L 481.34 302.11 L 482.36 297.88 L 483.51 293.54" fill="none" stroke="black" stroke-width="1"/>
  <path d="M 486.59 300.05 L 486.68 300.11 L 486.66 300.10" fill="none" stroke="black" stroke-width="1"/>
  <path d="M 486.63 300.02 L 487.47 298.45 L 488.27 296.88 L 489.06 295.43 L 489.92 293.86 L 490.71 292.39 L 491.59 290.90 L 492.36 289.35 L 493.27 287.95 L 494.07 286.40 L 494.94 284.97 L 495.85 283.45 L 496.59 281.91 L 497.30 280.33 L 498.21 278.73 L 499.07 277.06 L 499.80 275.36 L 500.48 273.63 L 501.34 271.77 L 502.10 269.76 L 502.82 267.90 L 503.50 265.85 L 504.32 263.65 L 505.05 261.31 L 505.91 259.01 L 506.72 256.61 L 507.52 254.08 L 508.29 251.50 L 509.11 248.95 L 509.82 246.37 L 510.64 243.73 L 511.40 241.07 L 512.06 238.51 L 512.69 236.04 L 513.31 233.39 L 513.86 230.91 L 514.36 228.46 L 514.84 226.21 L 515.15 223.82 L 515.36 221.70 L 515.64 219.57 L 515.66 217.68 L 515.74 215.78 L 515.62 214.00 L 515.44 212.37 L 515.18 210.89 L 514.83 209.26 L 514.37 207.74 L 514.00 206.34 L 513.60 204.87 L 513.04 203.52 L 512.59 202.13 L 512.03 200.70 L 511.52 199.26 L 511.06 197.78 L 510.55 196.30 L 510.21 194.66 L 509.80 193.04 L 509.57 191.26 L 509.44 189.34 L 509.23 187.46 L 509.15 185.43 L 509.20 183.26 L 509.31 180.95 L 509.39 178.74 L 509.55 176.33 L 509.75 173.96 L 510.03 171.46 L 510.23 169.00 L 510.47 166.51 L 510.77 163.92 L 510.98 161.37 L 511.30 158.79 L 511.57 156.23 L 511.78 153.68 L 512.00 151.17 L 512.15 148.67 L 512.31 146.32 L 512.35 143.80 L 512.36 141.56 L 512.32 139.17 L 512.24 136.89 L 512.08 134.64 L 511.93 132.40 L 511.72 130.09 L 511.54 127.77 L 511.23 125.55 L 510.99 123.28 L 510.65 121.07 L 510.25 118.86 L 509.98 116.68 L 509.62 114.46 L 509.25 112.42 L 508.92 110.37 L 508.47 108.32 L 508.05 106.45 L 507.66 104.43 L 507.20 102.70 L 506.84 100.78 L 506.43 99.01 L 506.03 97.41 L 505.64 95.85 L 505.19 94.38 L 504.66 92.94 L 504.30 91.67 L 503.89 90.37 L 503.35 89.23 L 502.80 88.09 L 502.37 87.00 L 501.82 85.94 L 501.36 84.93 L 500.76 83.93 L 500.33 82.95 L 499.77 82.00 L 499.29 81.00 L 498.79 80.07 L 498.26 79.04 L 497.72 77.98 L 497.24 77.01 L 496.79 75.94 L 496.25 74.83" fill="none" stroke="black" stroke-width="1"/>
  <path d="M 551.00 58.70 L 553.49 58.79 L 555.82 59.02 L 558.22 59.25 L 560.65 59.32 L 563.15 59.51 L 565.47 59.60 L 567.80 59.78 L 570.30 59.88 L 572.74 60.04 L 575.13 60.17 L 577.47 60.31 L 579.95 60.47 L 582.38 60.60 L 584.78 60.80 L 587.11 60.99 L 589.60 61.16 L 592.11 61.42 L 594.43 61.56 L 596.76 61.85 L 599.25 62.02 L 601.79 62.35 L 604.22 62.56 L 606.76 62.80 L 609.42 63.17 L 612.08 63.49 L 614.74 63.83 L 617.41 64.13 L 620.10 64.54 L 622.65 64.91 L 625.39 65.26 L 628.03 65.60 L 630.52 65.98 L 633.00 66.37 L 635.39 66.68 L 637.61 66.93 L 639.91 67.35 L 642.01 67.62 L 643.98 67.95 L 645.83 68.20 L 647.50 68.48 L 649.04 68.80 L 650.41 68.93 L 651.65 69.19 L 652.78 69.33 L 653.65 69.54 L 654.70 69.68 L 655.53 69.88 L 656.26 70.00 L 656.89 70.20 L 657.56 70.29 L 658.15 70.36 L 658.71 70.56 L 659.22 70.72 L 659.79 70.83 L 660.43 70.97 L 660.90 71.10 L 661.49 71.34 L 662.14 71.39 L 662.93 71.54 L 663.61 71.69" fill="none" stroke="black" stroke-width="1"/>
  <path d="M 647.64 32.92 L 645.62 32.31 L 643.43 31.55 L 641.41 30.82 L 639.20 30.05 L 637.09 29.36 L 634.96 28.47 L 632.92 27.70 L 630.72 26.88 L 628.52 26.02 L 626.48 25.32 L 624.42 24.66 L 622.26 23.86 L 620.12 23.29 L 618.06 22.55 L 616.05 21.98 L 613.90 21.45 L 611.92 21.04 L 609.79 20.63 L 607.79 20.31 L 605.73 20.13 L 603.80 20.10 L 601.73 20.00 L 599.78 20.06 L 597.79 20.20 L 595.83 20.38 L 593.89 20.66 L 591.95 20.95 L 590.02 21.34 L 588.17 21.76 L 586.19 22.18 L 584.18 22.72 L 582.36 23.11 L 580.48 23.63 L 578.55 24.08 L 576.72 24.54 L 574.73 25.03 L 572.85 25.40 L 570.90 25.90 L 568.99 26.30 L 567.04 26.64" fill="none" stroke="black" stroke-width="1"/>
  <path d="M 486.63 74.81 L 487.75 74.66 L 488.92 74.53 L 490.08 74.49 L 491.28 74.32 L 492.47 74.19 L 493.67 74.15 L 494.80 74.06 L 496.07 73.99 L 497.29 73.83 L 498.46 73.81 L 499.59 73.65 L 500.80 73.58 L 501.99 73.44 L 503.06 73.27 L 504.09 73.08 L 505.22 72.85 L 506.16 72.65 L 507.24 72.31 L 508.12 71.94 L 509.10 71.59 L 509.96 71.09 L 510.79 70.69 L 511.59 70.11 L 512.31 69.63 L 513.03 69.08 L 513.70 68.43 L 514.26 67.83 L 514.99 67.13 L 515.61 66.40 L 516.20 65.75 L 516.82 65.09 L 517.37 64.31 L 517.90 63.60 L 518.51 62.86 L 519.14 62.17 L 519.66 61.42 L 520.31 60.71 L 520.86 60.02 L 521.56 59.27 L 522.12 58.69" fill="none" stroke="black" stroke-width="1"/>
  <path d="M 522.05 58.81 L 517.79 56.69 L 513.45 54.42 L 509.14 52.25" fill="none" stroke="black" stroke-width="1"/>
  <path d="M 509.09 52.29 L 508.46 52.52 L 507.80 52.89 L 507.12 53.08 L 506.49 53.44 L 505.74 53.67 L 505.16 53.94 L 504.49 54.22 L 503.83 54.44 L 503.24 54.61 L 502.51 54.95 L 501.94 55.17 L 501.20 55.51 L 500.50 55.74 L 499.92 56.15 L 499.24 56.51 L 498.67 56.89 L 498.14 57.27 L 497.47 57.77 L 496.87 58.22 L 496.31 58.80 L 495.74 59.35 L 495.22 60.02 L 494.72 60.72 L 494.18 61.40 L 493.64 62.07 L 493.18 62.91 L 492.71 63.64 L 492.22 64.53 L 491.72 65.47 L 491.28 66.23 L 490.78 67.08 L 490.35 67.97 L 489.92 68.85 L 489.43 69.73 L 488.97 70.64 L 488.51 71.48 L 488.09 72.33 L 487.58 73.19 L 487.07 74.03 L 486.62 74.84" fill="none" stroke="black" stroke-width="1"/>
  <path d="M 486.71 84.52 L 486.14 90.86 L 485.58 97.27 L 485.10 103.83 L 484.43 110.10 L 483.93 116.66 L 483.42 122.99" fill="none" stroke="black" stroke-width="1"/>
  <path d="M 505.58 158.51 L 506.17 164.91" fill="none" stroke="black" stroke-width="1"/>
  <path d="M 509.18 174.49 L 509.76 173.73 L 510.45 172.79 L 511.14 171.95 L 511.73 170.96 L 512.40 170.08 L 513.00 169.05 L 513.55 167.99 L 514.28 167.12 L 514.88 166.14 L 515.55 165.23 L 516.18 164.27 L 516.83 163.44 L 517.43 162.54 L 518.11 161.80 L 518.82 161.08 L 519.39 160.38 L 519.99 159.86 L 520.67 159.23 L 521.40 158.80 L 521.96 158.41 L 522.55 158.25 L 523.26 157.96 L 523.87 157.81 L 524.55 157.84 L 525.25 157.98 L 525.86 157.99 L 526.53 158.10 L 527.16 158.35 L 527.90 158.56 L 528.47 158.88 L 529.16 159.27 L 529.77 159.50 L 530.35 159.89 L 531.08 160.16 L 531.82 160.44 L 532.39 160.79 L 532.96 161.05 L 533.70 161.36 L 534.28 161.58 L 535.00 161.78" fill="none" stroke="black" stroke-width="1"/>
  <path d="M 534.90 161.74 L 535.01 162.58 L 534.95 163.58 L 535.05 164.39 L 535.07 165.28 L 535.20 166.00 L 535.24 166.90 L 535.37 167.68 L 535.41 168.50 L 535.49 169.27 L 535.56 170.14 L 535.63 171.07 L 535.66 171.88 L 535.65 172.84 L 535.69 173.77 L 535.58 174.87 L 535.60 175.88 L 535.42 177.00 L 535.38 178.26 L 535.17 179.59 L 534.99 180.97 L 534.69 182.54 L 534.41 184.05 L 534.09 185.82 L 533.66 187.47 L 533.21 189.40 L 532.77 191.16 L 532.32 193.15 L 531.77 195.06 L 531.16 197.03 L 530.69 199.12 L 530.20 201.21 L 529.57 203.28 L 529.00 205.41 L 528.43 207.47 L 527.88 209.51 L 527.30 211.65 L 526.75 213.64 L 526.21 215.74 L 525.62 217.77 L 525.20 219.70 L 524.63 221.62 L 524.24 223.56 L 523.74 225.48 L 523.28 227.43 L 522.79 229.42 L 522.33 231.29 L 521.83 233.19 L 521.38 235.15 L 520.97 237.12 L 520.44 239.01 L 519.89 240.93 L 519.49 242.87 L 519.02 244.86 L 518.55 246.73 L 518.12 248.63 L 517.60 250.59 L 517.19 252.51 L 516.66 254.45 L 516.25 256.35 L 515.71 258.31" fill="none" stroke="black" stroke-width="1"/>
  <path d="M 502.76 251.86 L 503.36 249.36 L 503.77 247.02 L 504.28 244.62 L 504.87 242.18 L 505.41 239.70 L 506.03 237.33 L 506.53 234.87 L 507.19 232.48 L 507.73 230.12 L 508.33 227.64 L 508.80 225.30 L 509.41 222.80 L 509.91 220.31 L 510.38 217.95 L 510.78 215.60 L 511.21 213.11 L 511.58 210.71 L 511.87 208.28 L 512.05 205.80 L 512.31 203.45 L 512.50 201.10 L 512.53 198.62 L 512.54 196.22 L 512.55 193.80 L 512.48 191.36 L 512.41 188.98 L 512.22 186.56 L 512.13 184.16 L 511.85 181.72 L 511.74 179.34 L 511.61 176.98 L 511.28 174.53 L 510.98 172.05 L 510.76 169.71 L 510.44 167.23 L 510.22 164.90 L 509.88 162.56 L 509.69 160.08 L 509.47 157.69 L 509.19 155.25 L 509.03 152.85 L 508.70 150.28 L 508.50 147.77 L 508.18 145.08 L 507.91 142.44 L 507.63 139.74 L 507.37 137.02 L 507.04 134.37 L 506.67 131.78 L 506.43 129.07 L 506.01 126.53 L 505.78 123.93 L 505.35 121.54 L 505.09 119.04 L 504.67 116.77 L 504.38 114.51 L 504.03 112.51 L 503.63 110.44 L 503.15 108.60 L 502.84 106.91 L 502.42 105.43 L 502.00 104.01 L 501.49 102.84 L 501.11 101.65 L 500.65 100.61 L 500.17 99.75 L 499.62 98.91 L 499.19 98.20 L 498.71 97.48 L 498.19 96.91 L 497.77 96.26 L 497.17 95.78 L 496.70 95.23 L 496.14 94.72 L 495.59 94.14 L 495.12 93.62 L 494.57 92.98 L 494.11 92.40 L 493.66 91.67 L 493.12 90.95" fill="none" stroke="black" stroke-width="1"/>
  <path d="M 499.55 113.43 L 501.22 118.22 L 502.85 123.19 L 504.47 127.97 L 505.99 132.75" fill="none" stroke="black" stroke-width="1"/>
  <path d="M 499.51 129.56 L 499.49 130.58 L 499.53 131.47 L 499.60 132.34 L 499.58 133.35 L 499.51 134.33 L 499.64 135.23 L 499.73 136.19 L 499.70 137.09 L 499.69 138.09 L 499.75 138.97 L 499.79 140.00 L 499.79 140.86 L 499.86 141.73 L 499.81 142.78 L 499.88 143.73 L 499.78 144.73 L 499.78 145.78 L 499.71 146.73 L 499.72 147.67 L 499.59 148.80 L 499.53 149.83 L 499.40 150.92 L 499.27 152.03 L 499.15 153.10 L 499.03 154.23 L 498.86 155.33 L 498.72 156.56 L 498.53 157.60 L 498.27 158.81 L 498.18 159.90 L 497.93 161.11 L 497.80 162.21 L 497.52 163.39 L 497.43 164.53 L 497.33 165.70 L 497.05 166.84 L 496.89 167.93 L 496.69 169.14 L 496.51 170.26 L 496.35 171.42" fill="none" stroke="black" stroke-width="1"/>
  <path d="M 502.72 161.70 L 504.30 166.42 L 506.01 171.33 L 507.64 176.18 L 509.15 180.93" fill="none" stroke="black" stroke-width="1"/>
  <path d="M 503.09 210.11 L 502.47 216.36" fill="none" stroke="black" stroke-width="1"/>
  <path d="M 505.99 235.77 L 503.81 230.33 L 501.61 224.86 L 499.50 219.55" fill="none" stroke="black" stroke-width="1"/>
  <path d="M 483.43 216.32 L 483.52 217.24 L 483.45 218.28 L 483.45 219.30 L 483.49 220.27 L 483.55 221.19 L 483.54 222.27 L 483.49 223.20 L 483.60 224.27 L 483.68 225.18 L 483.65 226.27 L 483.68 227.22 L 483.69 228.25 L 483.61 229.24 L 483.70 230.20 L 483.64 231.19 L 483.67 232.11 L 483.65 232.96 L 483.60 233.98 L 483.47 234.91 L 483.47 235.78 L 483.33 236.61 L 483.28 237.52 L 483.14 238.33 L 483.03 239.19 L 482.86 239.91 L 482.74 240.82 L 482.49 241.59 L 482.41 242.41 L 482.17 243.26 L 482.06 243.97 L 481.83 244.82 L 481.69 245.51 L 481.41 246.31 L 481.31 247.05 L 481.07 247.74 L 480.94 248.59 L 480.82 249.28 L 480.58 250.14 L 480.32 250.85 L 480.24 251.72" fill="none" stroke="black" stroke-width="1"/>
  <path d="M 480.26 258.14 L 484.34 263.03 L 488.16 267.91 L 492.33 272.75 L 496.22 277.51" fill="none" stroke="black" stroke-width="1"/>
  <path d="M 480.23 287.23 L 478.12 292.51 L 475.84 297.91 L 473.79 303.20" fill="none" stroke="black" stroke-width="1"/>
  <path d="M 463.14 299.88 L 465.26 293.93" fill="none" stroke="black" stroke-width="1"/>
  <path d="M 470.65 283.90 L 471.39 278.76 L 471.89 273.58 L 472.50 268.52 L 473.23 263.39 L 473.89 258.21" fill="none" stroke="black" stroke-width="1"/>
  <path d="M 457.62 258.20 L 458.12 252.38 L 458.72 246.38 L 459.28 240.63 L 459.80 234.65 L 460.51 228.86 L 460.99 222.93" fill="none" stroke="black" stroke-width="1"/>
  <path d="M 435.20 235.72 L 434.74 241.07 L 434.21 246.54 L 433.68 251.82 L 433.03 257.15 L 432.50 262.69 L 432.04 267.98" fill="none" stroke="black" stroke-width="1"/>
  <path d="M 425.56 261.43 L 424.82 267.22 L 424.26 273.11 L 423.68 278.87 L 422.99 284.72 L 422.29 290.48" fill="none" stroke="black" stroke-width="1"/>
  <path d="M 422.52 296.89 L 422.24 303.41" fill="none" stroke="black" stroke-width="1"/>
  <path d="M 412.99 300.10 L 412.42 293.65" fill="none" stroke="black" stroke-width="1"/>
  <path d="M 406.13 303.21 L 402.85 297.78 L 399.76 292.39 L 396.51 287.10" fill="none" stroke="black" stroke-width="1"/>
  <path d="M 399.78 283.92 L 401.01 278.71 L 402.43 273.71 L 403.67 268.58 L 404.81 263.42 L 406.17 258.25" fill="none" stroke="black" stroke-width="1"/>
  <path d="M 396.50 258.24 L 392.45 263.00 L 388.41 267.83 L 384.60 272.66 L 380.52 277.52" fill="none" stroke="black" stroke-width="1"/>
  <path d="M 412.59 251.87 L 413.72 246.57 L 414.79 241.21 L 415.88 235.71 L 416.93 230.44 L 418.06 224.91 L 419.11 219.61" fill="none" stroke="black" stroke-width="1"/>
  <path d="M 399.77 213.18 L 399.39 214.03 L 399.11 214.78 L 398.81 215.50 L 398.42 216.38 L 398.16 217.22 L 397.72 217.97 L 397.36 218.84 L 397.01 219.57 L 396.60 220.42 L 396.31 221.17 L 396.03 221.93 L 395.63 222.77 L 395.25 223.62 L 394.97 224.37 L 394.69 225.19 L 394.36 225.97 L 394.12 226.73 L 393.78 227.58 L 393.56 228.37 L 393.27 229.19 L 392.97 229.99 L 392.81 230.80 L 392.57 231.61 L 392.42 232.42 L 392.29 233.20 L 392.07 234.05 L 391.85 234.77 L 391.76 235.67 L 391.58 236.52 L 391.47 237.30 L 391.29 238.14 L 391.20 238.93 L 391.14 239.77 L 390.94 240.56 L 390.73 241.44 L 390.67 242.19 L 390.55 243.06 L 390.39 243.82 L 390.26 244.66 L 390.09 245.45" fill="none" stroke="black" stroke-width="1"/>
  <path d="M 380.35 238.97 L 380.46 232.53" fill="none" stroke="black" stroke-width="1"/>
  <path d="M 373.77 222.71 L 374.42 229.15" fill="none" stroke="black" stroke-width="1"/>
  <path d="M 370.85 235.65 L 372.88 230.34 L 375.08 225.02 L 377.22 219.58" fill="none" stroke="black" stroke-width="1"/>
  <path d="M 370.77 206.72 L 370.91 200.22" fill="none" stroke="black" stroke-width="1"/>
  <path d="M 370.53 197.02 L 371.10 190.71" fill="none" stroke="black" stroke-width="1"/>
  <path d="M 367.65 187.35 L 369.79 182.07 L 371.92 176.72 L 374.02 171.37" fill="none" stroke="black" stroke-width="1"/>
  <path d="M 367.85 181.01 L 367.45 174.58" fill="none" stroke="black" stroke-width="1"/>
  <path d="M 367.67 171.44 L 367.10 170.60 L 366.38 169.76 L 365.73 168.82 L 365.08 167.96 L 364.52 166.98 L 363.79 166.10 L 363.14 165.13 L 362.50 164.23 L 361.86 163.25 L 361.21 162.39 L 360.61 161.51 L 359.92 160.63 L 359.30 159.77 L 358.63 158.99 L 358.03 158.33 L 357.34 157.53 L 356.77 156.87 L 356.05 156.30 L 355.39 155.83 L 354.76 155.34 L 354.13 155.07 L 353.47 154.68 L 352.88 154.45 L 352.18 154.30 L 351.48 154.23 L 350.90 154.14 L 350.31 154.19 L 349.61 154.16 L 348.99 154.30 L 348.32 154.30 L 347.70 154.51 L 347.04 154.53 L 346.37 154.59 L 345.75 154.79 L 345.07 154.90 L 344.46 155.03 L 343.90 155.07 L 343.18 155.21 L 342.63 155.15 L 341.89 155.27" fill="none" stroke="black" stroke-width="1"/>
  <path d="M 341.80 155.30 L 341.78 156.58 L 341.77 157.82 L 341.72 159.10 L 341.68 160.26 L 341.69 161.54 L 341.54 162.64 L 341.49 163.74 L 341.40 165.01 L 341.33 166.17 L 341.28 167.40 L 341.31 168.62 L 341.20 169.86 L 341.21 171.04 L 341.20 172.42 L 341.17 173.75 L 341.30 175.12 L 341.42 176.58 L 341.54 178.00 L 341.64 179.46 L 341.94 181.09 L 342.21 182.73 L 342.51 184.43 L 342.85 186.14 L 343.25 187.98 L 343.67 189.87 L 344.12 191.71 L 344.63 193.67 L 345.09 195.58 L 345.56 197.53 L 346.14 199.55 L 346.60 201.61 L 347.23 203.59 L 347.77 205.58 L 348.35 207.65 L 348.90 209.67 L 349.46 211.70 L 349.92 213.62 L 350.53 215.70 L 350.94 217.66 L 351.53 219.61 L 351.96 221.53 L 352.50 223.46 L 352.93 225.35 L 353.46 227.31 L 353.98 229.20 L 354.43 231.17 L 355.01 233.09 L 355.39 235.02 L 355.85 237.03 L 356.36 238.88 L 356.93 240.89 L 357.33 242.73 L 357.76 244.70 L 358.30 246.59 L 358.78 248.52 L 359.27 250.44 L 359.84 252.31 L 360.23 254.30 L 360.66 256.25 L 361.20 258.15" fill="none" stroke="black" stroke-width="1"/>
  <path d="M 374.10 251.77 L 373.64 249.45 L 373.06 246.95 L 372.43 244.57 L 371.93 242.12 L 371.42 239.75 L 370.75 237.29 L 370.07 234.87 L 369.55 232.46 L 368.87 229.98 L 368.38 227.63 L 367.75 225.17 L 367.27 222.80 L 366.80 220.44 L 366.27 217.98 L 365.94 215.66 L 365.42 213.15 L 365.00 210.81 L 364.74 208.33 L 364.56 205.83 L 364.29 203.50 L 364.21 201.09 L 364.08 198.68 L 364.08 196.18 L 364.06 193.86 L 364.20 191.46 L 364.22 189.04 L 364.33 186.61 L 364.52 184.23 L 364.65 181.76 L 364.93 179.41 L 365.26 176.92 L 365.42 174.59 L 365.61 172.22 L 365.96 169.78 L 366.18 167.31 L 366.52 164.96 L 366.75 162.60 L 367.07 160.14 L 367.38 157.68 L 367.59 155.32 L 367.81 152.75 L 368.09 150.35 L 368.32 147.74 L 368.61 145.15 L 368.98 142.46 L 369.17 139.82 L 369.41 137.07 L 369.76 134.46 L 369.99 131.90 L 370.38 129.17 L 370.67 126.51 L 371.04 124.03 L 371.36 121.53 L 371.72 119.15 L 372.02 116.97 L 372.44 114.63 L 372.74 112.59 L 373.19 110.55 L 373.59 108.70 L 373.97 107.03 L 374.44 105.66 L 374.81 104.11 L 375.25 102.89 L 375.69 101.75 L 376.16 100.85 L 376.63 99.83 L 377.10 99.02 L 377.60 98.27 L 378.16 97.59 L 378.60 96.96 L 379.13 96.41 L 379.61 95.82 L 380.09 95.23 L 380.63 94.74 L 381.20 94.12 L 381.64 93.63 L 382.24 92.93 L 382.65 92.39 L 383.12 91.70 L 383.63 90.92" fill="none" stroke="black" stroke-width="1"/>
  <path d="M 377.32 116.72 L 375.66 122.30 L 374.03 127.95 L 372.48 133.56 L 370.77 139.19" fill="none" stroke="black" stroke-width="1"/>
  <path d="M 377.80 126.36 L 376.63 132.87" fill="none" stroke="black" stroke-width="1"/>
  <path d="M 325.85 52.21 L 323.37 52.37 L 321.08 52.52 L 318.77 52.63 L 316.42 52.81 L 314.12 52.89 L 311.83 53.08 L 309.52 53.30 L 307.25 53.35 L 304.97 53.48 L 302.65 53.63 L 300.38 53.85 L 297.96 53.92 L 295.56 54.14 L 293.14 54.24 L 290.65 54.44 L 288.15 54.60 L 285.51 54.86 L 282.94 55.00 L 280.28 55.19 L 277.45 55.46 L 274.60 55.75 L 271.82 56.03 L 268.96 56.31 L 266.13 56.72 L 263.17 57.05 L 260.36 57.50 L 257.48 57.86 L 254.44 58.32 L 251.33 58.80 L 248.33 59.15 L 245.07 59.47 L 241.98 59.94 L 238.73 60.31 L 235.33 60.67 L 231.80 60.88 L 228.35 61.28 L 224.75 61.44 L 220.98 61.74 L 217.16 61.87 L 213.17 62.01 L 208.96 61.96 L 204.82 62.04 L 200.35 61.95 L 195.92 61.83 L 191.26 61.69 L 186.56 61.44 L 181.76 61.20 L 176.85 60.93 L 171.82 60.70 L 166.89 60.37 L 161.84 60.03 L 156.75 59.80 L 151.75 59.61 L 146.56 59.29 L 141.53 59.15 L 136.40 58.90 L 131.32 58.79 L 126.37 58.69 L 121.40 58.75 L 116.56 58.71 L 111.78 58.76 L 106.90 58.96 L 102.03 59.11 L 97.25 59.38 L 92.41 59.73 L 87.59 59.94 L 82.81 60.30 L 77.93 60.61 L 73.16 61.04 L 68.28 61.35 L 63.54 61.80 L 58.62 62.14 L 53.83 62.52 L 48.97 62.95 L 44.12 63.45 L 39.31 63.76 L 34.56 64.17 L 29.66 64.52 L 24.88 64.95 L 20.00 65.21" fill="none" stroke="black" stroke-width="1"/>
  <path d="M 84.43 42.58 L 86.41 42.74 L 88.27 42.99 L 90.15 43.20 L 92.10 43.51 L 93.91 43.85 L 95.91 44.09 L 97.73 44.43 L 99.71 44.69 L 101.64 45.06 L 103.52 45.26 L 105.51 45.47 L 107.35 45.74 L 109.38 45.88 L 111.21 46.10 L 113.21 46.17 L 115.10 46.28 L 117.05 46.17 L 119.04 46.23 L 121.06 46.04 L 123.04 45.90 L 125.04 45.65 L 127.09 45.27 L 129.22 44.76 L 131.21 44.35 L 133.26 43.86 L 135.37 43.22 L 137.45 42.65 L 139.57 41.90 L 141.77 41.10 L 143.79 40.45 L 145.90 39.72 L 148.03 38.92 L 150.14 38.12 L 152.28 37.36 L 154.35 36.56 L 156.52 35.82 L 158.54 35.16 L 160.75 34.34 L 162.79 33.73 L 164.96 32.97" fill="none" stroke="black" stroke-width="1"/>
</svg>