<svg xmlns="http://www.w3.org/2000/svg" width="800" height="600" viewBox="0 0 800 600">
  <rect width="100%" height="100%" fill="white"/>
  <path d="M 20.08 472.31 L 32.90 472.32 L 45.72 472.35 L 58.54 472.39 L 71.36 472.43 L 84.18 472.47 L 97.00 472.51 L 109.82 472.53 L 122.64 472.54 L 135.46 472.53 L 148.28 472.49 L 161.10 472.42 L 173.92 472.31 L 186.74 472.15 L 199.56 471.91 L 212.38 471.62 L 225.20 471.29 L 238.02 470.94 L 250.84 470.58 L 263.66 470.24 L 276.48 469.92 L 289.30 469.65 L 302.12 469.43 L 314.94 469.29 L 327.76 469.24 L 340.58 469.30 L 353.40 469.46 L 366.22 469.72 L 379.04 470.03 L 391.86 470.39 L 404.68 470.77 L 417.50 471.16 L 430.32 471.52 L 443.14 471.83 L 455.96 472.09 L 468.78 472.25 L 481.60 472.31 L 494.42 472.27 L 507.24 472.16 L 520.06 471.98 L 532.88 471.74 L 545.70 471.47 L 558.52 471.16 L 571.34 470.83 L 584.15 470.49 L 596.97 470.15 L 609.79 469.82 L 622.61 469.51 L 635.43 469.24" fill="none" stroke="black" stroke-width="1"/>
  <path d="M 635.46 466.19 L 633.92 466.67 L 632.44 467.05 L 631.06 467.35 L 629.53 467.82 L 628.05 468.11 L 626.68 468.55 L 625.25 468.94 L 623.84 469.26 L 622.36 469.68 L 620.98 470.00 L 619.46 470.41 L 618.04 470.80 L 616.58 471.19 L 614.97 471.69 L 613.27 472.22 L 611.74 472.73 L 610.03 473.29 L 608.30 473.93 L 606.45 474.64 L 604.60 475.35 L 602.66 476.26 L 600.55 477.03 L 598.30 477.98 L 596.13 478.96 L 593.82 480.11 L 591.43 481.09 L 588.94 482.24 L 586.56 483.36 L 583.99 484.50 L 581.59 485.71 L 579.15 486.97 L 576.63 488.10 L 574.25 489.25 L 571.76 490.47 L 569.40 491.59 L 567.06 492.75 L 564.82 493.77 L 562.65 494.91 L 560.64 495.95 L 558.60 496.87 L 556.75 497.73 L 554.90 498.66 L 553.22 499.52 L 551.47 500.35 L 549.84 501.13 L 548.24 501.96 L 546.78 502.78 L 545.19 503.49 L 543.79 504.18 L 542.26 504.98 L 540.78 505.71 L 539.40 506.44 L 537.96 507.13 L 536.57 507.89 L 535.09 508.70 L 533.73 509.34 L 532.20 510.12 L 530.83 510.82 L 529.24 511.55 L 527.82 512.34" fill="none" stroke="black" stroke-width="1"/>
  <path d="M 534.36 501.58 L 539.68 498.53" fill="none" stroke="black" stroke-width="1"/>
  <path d="M 552.05 489.43 L 546.48 492.15" fill="none" stroke="black" stroke-width="1"/>
  <path d="M 533.91 475.59 L 540.05 475.19" fill="none" stroke="black" stroke-width="1"/>
  <path d="M 518.52 450.78 L 481.60 453.85" fill="none" stroke="black" stroke-width="1"/>
  <path d="M 478.50 456.63 L 472.38 457.23" fill="none" stroke="black" stroke-width="1"/>
  <path d="M 513.90 432.32 L 512.36 433.85 L 510.83 432.32 L 512.36 430.78 L 513.90 432.32" fill="none" stroke="black" stroke-width="1"/>
  <path d="M 533.96 420.61 L 540.00 419.41" fill="none" stroke="black" stroke-width="1"/>
  <path d="M 561.48 437.65 L 555.55 439.28" fill="none" stroke="black" stroke-width="1"/>
  <path d="M 586.21 466.16 L 592.36 466.16" fill="none" stroke="black" stroke-width="1"/>
  <path d="M 592.36 469.08 L 586.21 469.40" fill="none" stroke="black" stroke-width="1"/>
  <path d="M 573.90 456.93 L 610.82 453.85" fill="none" stroke="black" stroke-width="1"/>
  <path d="M 595.49 445.18 L 601.54 444.06" fill="none" stroke="black" stroke-width="1"/>
  <path d="M 601.58 456.73 L 595.44 457.13" fill="none" stroke="black" stroke-width="1"/>
  <path d="M 610.82 463.08 L 558.52 466.16" fill="none" stroke="black" stroke-width="1"/>
  <path d="M 543.13 466.16 L 541.07 465.88 L 538.99 465.58 L 536.91 465.25 L 534.81 464.91 L 532.72 464.57 L 530.63 464.24 L 528.56 463.93 L 526.49 463.65 L 524.45 463.42 L 522.44 463.24 L 520.46 463.12 L 518.52 463.08 L 516.61 463.12 L 514.75 463.24 L 512.92 463.42 L 511.11 463.65 L 509.33 463.93 L 507.56 464.24 L 505.80 464.57 L 504.05 464.91 L 502.29 465.25 L 500.53 465.58 L 498.76 465.88 L 496.98 466.16" fill="none" stroke="black" stroke-width="1"/>
  <path d="M 509.29 469.14 L 503.14 469.34" fill="none" stroke="black" stroke-width="1"/>
  <path d="M 499.93 471.43 L 494.03 473.20" fill="none" stroke="black" stroke-width="1"/>
  <path d="M 496.92 481.54 L 497.73 482.29 L 498.46 483.07 L 499.14 483.89 L 500.00 484.60 L 500.77 485.43 L 501.55 486.13 L 502.30 486.85 L 503.09 487.66 L 503.91 488.37 L 504.63 489.19 L 505.42 489.91 L 506.18 490.72 L 506.86 491.46 L 507.72 492.25 L 508.50 493.00 L 509.26 493.78 L 510.02 494.61 L 510.80 495.32 L 511.48 496.14 L 512.34 496.86 L 513.10 497.61 L 513.88 498.40 L 514.64 499.25 L 515.42 499.94 L 516.11 500.67 L 516.95 501.49 L 517.67 502.18 L 518.49 503.04 L 519.24 503.74 L 520.02 504.59 L 520.73 505.34 L 521.56 506.14 L 522.34 506.89 L 523.09 507.69 L 523.89 508.52 L 524.62 509.24 L 525.46 509.95 L 526.16 510.79 L 526.95 511.65 L 527.69 512.34" fill="none" stroke="black" stroke-width="1"/>
  <path d="M 527.67 512.26 L 526.69 511.70 L 525.54 511.06 L 524.40 510.58 L 523.44 509.91 L 522.42 509.38 L 521.35 508.79 L 520.22 508.17 L 519.26 507.66 L 518.19 507.06 L 517.17 506.53 L 516.19 506.02 L 515.06 505.37 L 513.96 504.83 L 512.92 504.15 L 511.87 503.60 L 510.75 502.87 L 509.67 502.20 L 508.54 501.50 L 507.33 500.68 L 506.27 500.02 L 505.04 499.17 L 503.96 498.41 L 502.87 497.46 L 501.65 496.68 L 500.51 495.72 L 499.31 494.85 L 498.07 493.93 L 496.95 492.94 L 495.67 491.89 L 494.55 490.99 L 493.35 490.01 L 492.10 489.02 L 490.92 488.13 L 489.60 487.07 L 488.31 486.03 L 487.03 485.16 L 485.65 484.16 L 484.39 483.31 L 483.05 482.36 L 481.67 481.57 L 480.25 480.68 L 478.84 479.90 L 477.41 479.01 L 475.91 478.29 L 474.46 477.46 L 472.89 476.73 L 471.26 476.02 L 469.81 475.20 L 468.24 474.44 L 466.67 473.69 L 465.09 472.87 L 463.51 472.20 L 461.98 471.52 L 460.33 470.71 L 458.75 470.01 L 457.16 469.22 L 455.59 468.55 L 454.01 467.72 L 452.47 467.03 L 450.91 466.20" fill="none" stroke="black" stroke-width="1"/>
  <path d="M 444.68 466.16 L 460.06 463.08" fill="none" stroke="black" stroke-width="1"/>
  <path d="M 466.15 466.07 L 465.44 466.46 L 464.70 466.91 L 463.94 467.26 L 463.35 467.60 L 462.80 467.86 L 462.07 468.21 L 461.51 468.48 L 460.80 468.80 L 460.17 469.18 L 459.50 469.42 L 458.87 469.80 L 458.12 470.16 L 457.40 470.53 L 456.62 471.06 L 455.76 471.71 L 454.95 472.21 L 454.00 472.84 L 453.06 473.65 L 452.04 474.62 L 450.90 475.45 L 449.63 476.53 L 448.45 477.66 L 447.05 478.87 L 445.74 480.23 L 444.21 481.70 L 442.80 483.10 L 441.24 484.68 L 439.70 486.20 L 438.00 487.84 L 436.47 489.48 L 434.73 491.21 L 433.16 492.86 L 431.50 494.52 L 429.82 496.28 L 428.14 497.96 L 426.50 499.69 L 424.90 501.37 L 423.24 503.01 L 421.70 504.58 L 420.08 506.17 L 418.53 507.62 L 417.00 509.25 L 415.51 510.85 L 413.91 512.32 L 412.29 513.82 L 410.82 515.39 L 409.28 516.87 L 407.74 518.46 L 406.15 520.07 L 404.65 521.54 L 403.12 523.14 L 401.56 524.61 L 400.05 526.18 L 398.47 527.68 L 396.90 529.25 L 395.39 530.75 L 393.76 532.27 L 392.30 533.82 L 390.81 535.35 L 389.21 536.90" fill="none" stroke="black" stroke-width="1"/>
  <path d="M 395.38 527.78 L 396.32 526.92 L 397.27 526.24 L 398.32 525.39 L 399.20 524.69 L 400.19 523.91 L 401.16 523.15 L 402.10 522.45 L 403.13 521.61 L 404.18 520.92 L 405.08 520.06 L 405.98 519.20 L 407.00 518.52 L 407.94 517.77 L 408.87 516.98 L 409.75 516.28 L 410.67 515.44 L 411.57 514.59 L 412.38 513.89 L 413.21 513.08 L 413.98 512.36 L 414.64 511.61 L 415.47 510.79 L 416.27 510.02 L 416.88 509.19 L 417.54 508.31 L 418.21 507.56 L 418.76 506.67 L 419.47 505.92 L 420.06 505.12 L 420.67 504.30 L 421.22 503.50 L 421.83 502.71 L 422.47 501.94 L 422.95 501.17 L 423.57 500.37 L 424.04 499.69 L 424.59 499.08 L 425.12 498.30 L 425.73 497.59 L 426.19 497.01 L 426.72 496.50 L 427.24 495.83 L 427.77 495.25 L 428.23 494.75 L 428.61 494.25 L 429.18 493.76 L 429.62 493.22 L 430.10 492.84 L 430.46 492.46 L 430.99 491.96 L 431.44 491.51 L 431.87 491.11 L 432.25 490.73 L 432.75 490.28 L 433.16 489.92 L 433.62 489.44 L 434.05 488.92 L 434.51 488.57 L 434.98 488.16 L 435.42 487.66" fill="none" stroke="black" stroke-width="1"/>
  <path d="M 423.11 474.97 L 417.01 475.81" fill="none" stroke="black" stroke-width="1"/>
  <path d="M 450.76 475.45 L 450.28 475.81 L 449.88 476.02 L 449.48 476.24 L 449.03 476.52 L 448.61 476.70 L 448.22 476.99 L 447.72 477.28 L 447.40 477.46 L 447.02 477.77 L 446.58 477.93 L 446.20 478.15 L 445.72 478.46 L 445.32 478.71 L 444.82 479.06 L 444.30 479.43 L 443.84 479.76 L 443.30 480.26 L 442.78 480.59 L 442.24 481.12 L 441.61 481.58 L 441.06 482.15 L 440.35 482.75 L 439.75 483.38 L 439.02 484.07 L 438.38 484.79 L 437.64 485.53 L 437.00 486.31 L 436.19 487.09 L 435.41 487.86 L 434.68 488.72 L 433.82 489.47 L 433.10 490.39 L 432.37 491.22 L 431.47 492.09 L 430.67 492.97 L 429.77 493.77 L 428.85 494.62 L 428.01 495.42 L 427.18 496.19 L 426.19 497.00 L 425.25 497.79 L 424.29 498.53 L 423.31 499.39 L 422.28 500.07 L 421.21 500.86 L 420.18 501.60 L 419.08 502.28 L 418.01 503.13 L 416.94 503.85 L 415.80 504.66 L 414.73 505.42 L 413.56 506.19 L 412.43 506.99 L 411.30 507.71 L 410.17 508.48 L 409.05 509.24 L 407.87 510.01 L 406.83 510.77 L 405.82 511.56 L 404.64 512.30" fill="none" stroke="black" stroke-width="1"/>
  <path d="M 392.29 518.45 L 387.72 521.45 L 383.12 524.58" fill="none" stroke="black" stroke-width="1"/>
  <path d="M 373.91 518.46 L 343.14 506.16" fill="none" stroke="black" stroke-width="1"/>
  <path d="M 352.43 487.69 L 353.05 488.32 L 353.67 488.90 L 354.39 489.54 L 354.93 490.07 L 355.62 490.71 L 356.20 491.22 L 356.78 491.84 L 357.48 492.36 L 358.07 492.88 L 358.75 493.51 L 359.30 494.15 L 360.00 494.69 L 360.61 495.25 L 361.23 495.92 L 361.79 496.56 L 362.43 497.22 L 362.99 497.98 L 363.59 498.60 L 364.10 499.30 L 364.69 500.08 L 365.13 500.92 L 365.71 501.68 L 366.10 502.49 L 366.64 503.38 L 367.05 504.33 L 367.50 505.17 L 367.93 506.04 L 368.33 507.02 L 368.65 507.94 L 369.14 508.92 L 369.47 509.94 L 369.96 510.85 L 370.47 511.85 L 370.83 512.79 L 371.37 513.68 L 371.77 514.73 L 372.21 515.67 L 372.80 516.65 L 373.40 517.61 L 373.96 518.52 L 374.68 519.36 L 375.24 520.36 L 375.87 521.31 L 376.63 522.21 L 377.38 523.13 L 378.10 524.06 L 378.95 525.01 L 379.64 525.91 L 380.44 526.77 L 381.23 527.75 L 381.98 528.69 L 382.85 529.60 L 383.72 530.58 L 384.48 531.45 L 385.22 532.45 L 386.10 533.30 L 386.84 534.17 L 387.70 535.15 L 388.48 536.15 L 389.25 536.99" fill="none" stroke="black" stroke-width="1"/>
  <path d="M 389.28 536.99 L 387.76 536.09 L 386.20 535.19 L 384.70 534.28 L 383.12 533.48 L 381.63 532.66 L 380.04 531.81 L 378.57 530.99 L 376.95 530.16 L 375.40 529.38 L 373.87 528.48 L 372.30 527.62 L 370.79 526.74 L 369.30 525.86 L 367.71 524.90 L 366.17 523.99 L 364.63 522.93 L 363.06 521.94 L 361.55 520.79 L 360.00 519.66 L 358.48 518.44 L 356.96 517.21 L 355.40 515.82 L 353.93 514.34 L 352.33 512.93 L 350.84 511.43 L 349.26 509.83 L 347.74 508.19 L 346.19 506.58 L 344.69 504.97 L 343.12 503.26 L 341.63 501.60 L 340.05 499.93 L 338.45 498.26 L 336.98 496.64 L 335.39 495.12 L 333.91 493.46 L 332.44 491.97 L 330.84 490.47 L 329.25 489.18 L 327.76 487.71 L 326.16 486.44 L 324.69 485.19 L 323.21 483.99 L 321.60 482.82 L 320.03 481.77 L 318.52 480.59 L 317.04 479.46 L 315.44 478.45 L 313.84 477.42 L 312.35 476.39 L 310.85 475.32 L 309.27 474.37 L 307.78 473.36 L 306.18 472.37 L 304.59 471.38 L 303.10 470.37 L 301.56 469.38 L 300.01 468.32 L 298.55 467.24 L 296.93 466.21" fill="none" stroke="black" stroke-width="1"/>
  <path d="M 290.84 466.16 L 306.22 469.24" fill="none" stroke="black" stroke-width="1"/>
  <path d="M 333.99 481.53 L 328.55 480.03 L 323.12 478.53 L 317.78 477.03 L 312.40 475.42" fill="none" stroke="black" stroke-width="1"/>
  <path d="M 312.44 481.56 L 311.99 481.97 L 311.56 482.43 L 311.11 482.75 L 310.77 483.21 L 310.32 483.58 L 310.04 483.93 L 309.61 484.28 L 309.31 484.65 L 308.97 484.93 L 308.56 485.39 L 308.24 485.83 L 307.75 486.19 L 307.29 486.68 L 306.84 487.09 L 306.26 487.62 L 305.79 488.13 L 305.15 488.71 L 304.57 489.34 L 303.92 490.11 L 303.15 490.76 L 302.23 491.53 L 301.49 492.40 L 300.64 493.39 L 299.61 494.22 L 298.66 495.15 L 297.57 496.21 L 296.48 497.27 L 295.39 498.33 L 294.22 499.37 L 293.11 500.55 L 291.89 501.66 L 290.77 502.85 L 289.64 504.01 L 288.41 505.20 L 287.33 506.37 L 286.06 507.57 L 284.83 508.82 L 283.76 509.94 L 282.72 511.11 L 281.55 512.27 L 280.50 513.47 L 279.40 514.60 L 278.33 515.87 L 277.24 516.99 L 276.22 518.13 L 275.09 519.42 L 274.05 520.70 L 272.94 521.88 L 271.93 523.15 L 270.80 524.37 L 269.72 525.58 L 268.65 526.87 L 267.56 528.17 L 266.50 529.38 L 265.39 530.69 L 264.35 531.88 L 263.31 533.07 L 262.20 534.38 L 261.07 535.55 L 260.05 536.85" fill="none" stroke="black" stroke-width="1"/>
  <path d="M 268.06 540.63 L 264.32 545.49" fill="none" stroke="black" stroke-width="1"/>
  <path d="M 250.81 549.28 L 251.93 548.16 L 252.99 547.12 L 254.13 545.96 L 255.22 544.97 L 256.30 543.94 L 257.48 542.81 L 258.60 541.76 L 259.74 540.65 L 260.87 539.58 L 261.99 538.50 L 263.10 537.43 L 264.20 536.34 L 265.28 535.19 L 266.37 534.19 L 267.48 533.06 L 268.47 532.03 L 269.54 530.88 L 270.48 529.87 L 271.37 528.86 L 272.39 527.71 L 273.30 526.59 L 274.21 525.49 L 275.11 524.35 L 275.96 523.19 L 276.86 522.09 L 277.65 520.83 L 278.54 519.58 L 279.28 518.46 L 279.97 517.31 L 280.85 516.12 L 281.69 515.02 L 282.35 513.83 L 283.06 512.82 L 283.79 511.65 L 284.52 510.55 L 285.18 509.61 L 285.90 508.72 L 286.50 507.74 L 287.07 506.96 L 287.76 506.08 L 288.32 505.42 L 288.93 504.66 L 289.48 504.07 L 290.00 503.45 L 290.53 502.96 L 290.98 502.42 L 291.41 502.04 L 291.89 501.52 L 292.40 501.09 L 292.76 500.72 L 293.11 500.37 L 293.59 499.99 L 294.06 499.64 L 294.42 499.28 L 294.90 498.96 L 295.25 498.56 L 295.76 498.10 L 296.10 497.79 L 296.50 497.38 L 297.00 496.93" fill="none" stroke="black" stroke-width="1"/>
  <path d="M 292.77 503.95 L 288.63 508.48" fill="none" stroke="black" stroke-width="1"/>
  <path d="M 286.49 515.93 L 282.96 521.01" fill="none" stroke="black" stroke-width="1"/>
  <path d="M 273.42 533.09 L 277.23 528.29" fill="none" stroke="black" stroke-width="1"/>
  <path d="M 281.59 518.49 L 281.23 519.17 L 280.71 519.70 L 280.32 520.27 L 279.87 520.86 L 279.42 521.38 L 279.05 522.00 L 278.69 522.59 L 278.25 523.14 L 277.80 523.64 L 277.43 524.29 L 277.09 524.86 L 276.57 525.46 L 276.15 526.06 L 275.67 526.69 L 275.25 527.37 L 274.70 527.98 L 274.25 528.68 L 273.64 529.36 L 273.08 530.11 L 272.47 530.84 L 271.87 531.68 L 271.18 532.43 L 270.57 533.36 L 269.78 534.13 L 268.97 534.99 L 268.29 535.91 L 267.56 536.84 L 266.74 537.76 L 265.92 538.65 L 265.13 539.66 L 264.38 540.63 L 263.49 541.59 L 262.65 542.61 L 261.84 543.53 L 261.03 544.44 L 260.20 545.46 L 259.33 546.48 L 258.59 547.37 L 257.72 548.40 L 257.01 549.24 L 256.17 550.19 L 255.47 551.09 L 254.76 552.01 L 253.93 552.93 L 253.11 553.87 L 252.39 554.78 L 251.57 555.75 L 250.86 556.63 L 250.00 557.60 L 249.32 558.47 L 248.50 559.44 L 247.78 560.32 L 246.93 561.18 L 246.24 562.17 L 245.45 563.06 L 244.71 564.02 L 244.01 564.91 L 243.17 565.86 L 242.37 566.77 L 241.63 567.71" fill="none" stroke="black" stroke-width="1"/>
  <path d="M 235.45 579.92 L 234.30 579.33 L 232.96 578.76 L 231.65 578.30 L 230.46 577.69 L 229.11 577.22 L 227.94 576.67 L 226.74 576.25 L 225.41 575.67 L 224.14 575.07 L 222.90 574.64 L 221.73 574.11 L 220.40 573.54 L 219.14 572.93 L 217.92 572.35 L 216.64 571.72 L 215.49 571.01 L 214.28 570.20 L 213.10 569.50 L 211.92 568.68 L 210.76 567.78 L 209.58 566.94 L 208.53 565.91 L 207.49 564.88 L 206.42 563.98 L 205.46 562.90 L 204.40 561.97 L 203.37 560.96 L 202.42 559.83 L 201.36 558.76 L 200.45 557.55 L 199.42 556.25 L 198.45 555.10 L 197.49 553.77 L 196.38 552.45 L 195.38 550.98 L 194.20 549.58 L 192.97 548.09 L 191.88 546.46 L 190.68 544.83 L 189.37 543.06 L 188.02 541.13 L 186.66 539.25 L 185.21 537.06 L 183.79 534.96 L 182.25 532.65 L 180.79 530.31 L 179.24 527.88 L 177.68 525.41 L 176.17 522.83 L 174.49 520.36 L 172.80 517.91 L 171.26 515.29 L 169.56 512.83 L 168.01 510.30 L 166.41 507.94 L 164.77 505.50 L 163.22 503.21 L 161.58 500.99 L 160.04 498.90 L 158.45 496.90 L 156.95 495.02 L 155.37 493.20 L 153.85 491.44 L 152.29 489.75 L 150.78 488.12 L 149.22 486.53 L 147.65 484.92 L 146.15 483.47 L 144.63 482.00 L 143.07 480.53 L 141.53 479.12 L 140.01 477.67 L 138.41 476.17 L 136.94 474.84 L 135.43 473.41 L 133.87 471.99 L 132.34 470.62 L 130.80 469.09 L 129.25 467.61 L 127.72 466.07" fill="none" stroke="black" stroke-width="1"/>
  <path d="M 137.05 475.48 L 135.73 476.05 L 134.58 476.68 L 133.41 477.26 L 132.10 477.83 L 130.86 478.30 L 129.62 478.96 L 128.37 479.59 L 127.15 480.09 L 125.85 480.63 L 124.67 481.22 L 123.49 481.76 L 122.20 482.39 L 120.95 482.92 L 119.72 483.61 L 118.45 484.27 L 117.25 484.89 L 116.05 485.52 L 114.78 486.26 L 113.58 487.05 L 112.32 487.74 L 111.07 488.55 L 109.84 489.37 L 108.53 490.23 L 107.35 491.14 L 106.12 492.05 L 104.85 493.02 L 103.53 494.05 L 102.35 494.98 L 101.08 495.90 L 99.86 496.98 L 98.57 498.06 L 97.38 498.97 L 96.10 499.88 L 94.93 500.93 L 93.64 501.88 L 92.51 502.82 L 91.40 503.63 L 90.13 504.59 L 88.88 505.43 L 87.80 506.21 L 86.72 506.92 L 85.53 507.69 L 84.41 508.33 L 83.30 509.06 L 82.26 509.71 L 81.12 510.35 L 80.09 511.04 L 78.97 511.57 L 77.85 512.15 L 76.85 512.74 L 75.85 513.30 L 74.74 513.87 L 73.76 514.35 L 72.63 515.00 L 71.56 515.59 L 70.52 516.13 L 69.53 516.77 L 68.41 517.29 L 67.36 517.92 L 66.26 518.48" fill="none" stroke="black" stroke-width="1"/>
  <path d="M 90.88 536.87 L 95.51 533.79 L 100.04 530.73" fill="none" stroke="black" stroke-width="1"/>
  <path d="M 100.16 543.15 L 100.78 542.30 L 101.40 541.30 L 101.94 540.41 L 102.65 539.46 L 103.29 538.48 L 103.92 537.62 L 104.59 536.63 L 105.20 535.78 L 105.80 534.84 L 106.46 533.93 L 107.02 532.96 L 107.71 532.09 L 108.39 531.15 L 108.94 530.25 L 109.59 529.40 L 110.13 528.40 L 110.63 527.55 L 111.28 526.56 L 111.81 525.58 L 112.38 524.71 L 112.82 523.70 L 113.43 522.82 L 113.87 521.87 L 114.45 520.86 L 114.97 519.87 L 115.44 518.86 L 115.99 517.80 L 116.40 516.86 L 116.80 515.94 L 117.33 514.87 L 117.76 513.87 L 118.23 512.93 L 118.76 511.96 L 119.10 511.06 L 119.47 510.10 L 119.94 509.29 L 120.39 508.49 L 120.75 507.65 L 121.24 506.87 L 121.54 506.17 L 121.99 505.52 L 122.28 504.87 L 122.69 504.24 L 122.97 503.72 L 123.37 503.14 L 123.62 502.70 L 123.99 502.31 L 124.24 501.78 L 124.52 501.44 L 124.84 500.93 L 125.11 500.58 L 125.42 500.13 L 125.67 499.70 L 125.99 499.35 L 126.31 499.01 L 126.57 498.56 L 126.89 498.13 L 127.16 497.74 L 127.47 497.24 L 127.77 496.85" fill="none" stroke="black" stroke-width="1"/>
  <path d="M 106.24 530.76 L 107.05 529.80 L 107.80 528.91 L 108.57 528.00 L 109.38 527.06 L 110.16 526.15 L 110.98 525.20 L 111.79 524.28 L 112.57 523.35 L 113.36 522.33 L 114.17 521.49 L 114.91 520.52 L 115.74 519.64 L 116.45 518.68 L 117.29 517.79 L 118.03 516.88 L 118.81 515.94 L 119.49 514.97 L 120.28 514.09 L 120.94 513.17 L 121.70 512.24 L 122.39 511.38 L 123.07 510.37 L 123.67 509.32 L 124.41 508.46 L 125.13 507.56 L 125.72 506.52 L 126.29 505.62 L 127.00 504.58 L 127.54 503.64 L 128.25 502.66 L 128.89 501.69 L 129.47 500.76 L 130.08 499.79 L 130.65 498.91 L 131.30 498.02 L 131.80 497.14 L 132.34 496.33 L 132.92 495.44 L 133.48 494.65 L 134.01 493.85 L 134.45 493.15 L 135.05 492.37 L 135.63 491.70 L 136.03 491.00 L 136.46 490.33 L 136.97 489.71 L 137.38 489.14 L 137.88 488.49 L 138.34 487.88 L 138.76 487.31 L 139.15 486.79 L 139.62 486.17 L 140.11 485.66 L 140.48 485.04 L 140.88 484.44 L 141.34 483.91 L 141.78 483.31 L 142.21 482.75 L 142.69 482.06 L 143.11 481.54" fill="none" stroke="black" stroke-width="1"/>
  <path d="M 149.25 475.39 L 154.12 477.90 L 159.12 480.33 L 164.01 482.67 L 169.02 485.20 L 173.91 487.64" fill="none" stroke="black" stroke-width="1"/>
  <path d="M 167.79 481.54 L 168.11 482.10 L 168.38 482.74 L 168.59 483.36 L 168.96 483.90 L 169.22 484.50 L 169.53 485.03 L 169.89 485.53 L 170.09 486.16 L 170.30 486.73 L 170.66 487.30 L 171.00 487.85 L 171.24 488.47 L 171.50 489.14 L 171.85 489.69 L 172.09 490.28 L 172.49 490.98 L 172.83 491.63 L 173.18 492.35 L 173.53 493.11 L 173.91 493.83 L 174.21 494.62 L 174.68 495.40 L 174.99 496.15 L 175.46 497.03 L 175.77 497.89 L 176.25 498.73 L 176.65 499.62 L 177.08 500.49 L 177.52 501.44 L 177.94 502.30 L 178.33 503.17 L 178.84 504.18 L 179.35 505.15 L 179.81 506.13 L 180.27 507.12 L 180.83 508.13 L 181.45 509.23 L 181.93 510.19 L 182.51 511.17 L 183.11 512.31 L 183.74 513.36 L 184.40 514.52 L 185.16 515.72 L 185.79 516.84 L 186.55 518.07 L 187.26 519.24 L 188.11 520.45 L 188.81 521.70 L 189.57 523.01 L 190.40 524.22 L 191.30 525.57 L 192.02 526.76 L 192.82 528.02 L 193.66 529.32 L 194.48 530.57 L 195.29 531.87 L 196.11 533.19 L 196.89 534.40 L 197.71 535.55 L 198.46 536.88" fill="none" stroke="black" stroke-width="1"/>
  <path d="M 189.30 524.62 L 213.92 527.70" fill="none" stroke="black" stroke-width="1"/>
  <path d="M 210.84 549.23 L 229.30 552.31" fill="none" stroke="black" stroke-width="1"/>
  <path d="M 232.34 555.36 L 227.67 558.43 L 223.15 561.54" fill="none" stroke="black" stroke-width="1"/>
  <path d="M 241.58 543.14 L 244.73 540.09 L 247.75 536.95" fill="none" stroke="black" stroke-width="1"/>
  <path d="M 251.72 530.05 L 255.99 525.43" fill="none" stroke="black" stroke-width="1"/>
  <path d="M 261.19 517.72 L 265.32 513.23" fill="none" stroke="black" stroke-width="1"/>
  <path d="M 275.43 475.05 L 269.32 475.73" fill="none" stroke="black" stroke-width="1"/>
  <path d="M 269.25 471.76 L 263.20 472.87" fill="none" stroke="black" stroke-width="1"/>
  <path d="M 263.15 469.16 L 256.99 469.31" fill="none" stroke="black" stroke-width="1"/>
  <path d="M 241.61 463.08 L 210.84 466.16" fill="none" stroke="black" stroke-width="1"/>
  <path d="M 198.53 453.85 L 173.92 456.93" fill="none" stroke="black" stroke-width="1"/>
  <path d="M 152.31 440.89 L 146.30 442.20" fill="none" stroke="black" stroke-width="1"/>
  <path d="M 138.54 426.16 L 137.00 427.70 L 135.46 426.16 L 137.00 424.62 L 138.54 426.16" fill="none" stroke="black" stroke-width="1"/>
  <path d="M 100.06 388.94 L 93.94 389.54" fill="none" stroke="black" stroke-width="1"/>
  <path d="M 78.56 328.07 L 84.67 327.34" fill="none" stroke="black" stroke-width="1"/>
  <path d="M 125.29 298.68 L 130.36 295.08" fill="none" stroke="black" stroke-width="1"/>
  <path d="M 176.73 311.07 L 171.11 313.58" fill="none" stroke="black" stroke-width="1"/>
  <path d="M 158.54 333.86 L 152.63 334.38 L 146.71 334.92 L 140.77 335.47 L 134.83 336.02 L 128.89 336.58 L 122.96 337.13 L 117.04 337.67 L 111.13 338.19 L 105.25 338.69 L 99.39 339.17 L 93.56 339.61 L 87.77 340.01 L 82.02 340.38 L 76.31 340.70 L 70.63 341.00 L 64.98 341.27 L 59.35 341.51 L 53.73 341.74 L 48.13 341.96 L 42.53 342.18 L 36.93 342.39 L 31.33 342.61 L 25.71 342.84 L 20.08 343.09" fill="none" stroke="black" stroke-width="1"/>
  <path d="M 35.47 373.86 L 38.76 373.60 L 41.99 373.34 L 45.18 373.09 L 48.34 372.83 L 51.51 372.58 L 54.70 372.32 L 57.93 372.06 L 61.22 371.81 L 64.60 371.55 L 68.09 371.29 L 71.70 371.04 L 75.46 370.78 L 79.39 370.52 L 83.47 370.27 L 87.67 370.01 L 91.99 369.75 L 96.39 369.50 L 100.85 369.24 L 105.35 368.99 L 109.88 368.73 L 114.40 368.47 L 118.91 368.22 L 123.37 367.96 L 127.77 367.70" fill="none" stroke="black" stroke-width="1"/>
  <path d="M 112.38 358.47 L 173.92 355.40" fill="none" stroke="black" stroke-width="1"/>
  <path d="M 186.30 383.75 L 192.31 382.43" fill="none" stroke="black" stroke-width="1"/>
  <path d="M 204.69 395.39 L 199.56 395.65 L 194.43 395.91 L 189.30 396.16 L 184.18 396.42 L 179.05 396.68 L 173.92 396.93 L 168.79 397.19 L 163.66 397.45 L 158.54 397.70 L 153.41 397.96 L 148.28 398.21 L 143.15 398.47 L 138.02 398.73 L 132.90 398.98 L 127.77 399.24 L 122.64 399.50 L 117.51 399.75 L 112.38 400.01 L 107.26 400.27 L 102.13 400.52 L 97.00 400.78 L 91.87 401.04 L 86.75 401.29 L 81.62 401.55 L 76.49 401.80 L 71.36 402.06 L 66.23 402.32 L 61.11 402.57 L 55.98 402.83 L 50.85 403.09 L 45.72 403.34 L 40.59 403.60 L 35.47 403.86 L 30.34 404.11 L 25.21 404.37 L 20.08 404.62" fill="none" stroke="black" stroke-width="1"/>
  <path d="M 41.63 414.07 L 47.77 413.64" fill="none" stroke="black" stroke-width="1"/>
  <path d="M 53.93 435.58 L 60.07 435.21" fill="none" stroke="black" stroke-width="1"/>
  <path d="M 53.93 456.92 L 47.77 456.94" fill="none" stroke="black" stroke-width="1"/>
  <path d="M 63.16 472.34 L 69.31 472.29" fill="none" stroke="black" stroke-width="1"/>
  <path d="M 69.31 469.22 L 63.16 469.25" fill="none" stroke="black" stroke-width="1"/>
  <path d="M 66.23 450.78 L 97.00 447.70" fill="none" stroke="black" stroke-width="1"/>
  <path d="M 100.07 475.23 L 93.93 475.55" fill="none" stroke="black" stroke-width="1"/>
  <path d="M 87.77 463.08 L 44.70 463.08" fill="none" stroke="black" stroke-width="1"/>
  <path d="M 20.08 460.01 L 29.95 460.00 L 39.17 459.97 L 47.97 459.93 L 56.55 459.89 L 65.13 459.85 L 73.93 459.81 L 83.15 459.79 L 93.01 459.78 L 103.73 459.79 L 115.52 459.83 L 128.59 459.90 L 143.15 460.01 L 159.55 460.17 L 177.77 460.41 L 197.48 460.70 L 218.36 461.03 L 240.10 461.38 L 262.38 461.74 L 284.87 462.08 L 307.25 462.40 L 329.20 462.67 L 350.41 462.89 L 370.54 463.03 L 389.29 463.08 L 407.22 463.02 L 425.05 462.86 L 442.66 462.60 L 459.94 462.29 L 476.81 461.93 L 493.13 461.54 L 508.82 461.16 L 523.76 460.80 L 537.84 460.49 L 550.97 460.23 L 563.02 460.07 L 573.90 460.01 L 583.34 460.05 L 591.28 460.16 L 597.94 460.34 L 603.53 460.58 L 608.26 460.85 L 612.36 461.16 L 616.03 461.49 L 619.48 461.83 L 622.93 462.17 L 626.60 462.50 L 630.70 462.81 L 635.43 463.08" fill="none" stroke="black" stroke-width="1"/>
  <path d="M 635.43 466.16 L 20.08 466.16" fill="none" stroke="black" stroke-width="1"/>
  <path d="M 20.13 466.17 L 21.64 467.14 L 23.24 468.24 L 24.76 469.12 L 26.38 470.18 L 27.91 471.06 L 29.55 472.05 L 31.16 472.91 L 32.73 473.90 L 34.23 474.84 L 35.89 475.79 L 37.43 476.84 L 39.03 477.77 L 40.59 478.89 L 42.11 479.90 L 43.63 481.06 L 45.13 482.23 L 46.68 483.44 L 48.06 484.81 L 49.53 486.30 L 50.89 487.72 L 52.21 489.45 L 53.61 491.05 L 54.85 493.01 L 56.25 494.83 L 57.57 496.79 L 58.81 498.94 L 60.00 501.11 L 61.32 503.27 L 62.55 505.54 L 63.76 507.71 L 65.02 509.98 L 66.16 512.15 L 67.28 514.40 L 68.52 516.48 L 69.60 518.58 L 70.86 520.59 L 72.09 522.40 L 73.17 524.36 L 74.26 525.98 L 75.48 527.70 L 76.60 529.13 L 77.75 530.60 L 78.92 531.97 L 79.98 533.19 L 81.00 534.28 L 82.15 535.52 L 83.28 536.62 L 84.30 537.65 L 85.37 538.71 L 86.42 539.63 L 87.55 540.54 L 88.52 541.52 L 89.59 542.51 L 90.62 543.37 L 91.66 544.31 L 92.72 545.24 L 93.83 546.18 L 94.83 547.18 L 95.89 548.30 L 96.97 549.26" fill="none" stroke="black" stroke-width="1"/>
  <path d="M 97.07 549.24 L 98.08 547.63 L 99.20 546.18 L 100.25 544.75 L 101.32 543.17 L 102.39 541.77 L 103.42 540.19 L 104.38 538.77 L 105.52 537.21 L 106.56 535.76 L 107.62 534.21 L 108.62 532.73 L 109.74 531.19 L 110.79 529.75 L 111.89 528.12 L 113.05 526.59 L 114.07 524.98 L 115.13 523.29 L 116.29 521.76 L 117.35 520.16 L 118.56 518.44 L 119.81 516.58 L 120.94 514.90 L 122.15 513.07 L 123.42 511.11 L 124.62 509.06 L 125.99 507.15 L 127.28 505.18 L 128.60 503.10 L 129.90 501.06 L 131.22 499.05 L 132.45 497.01 L 133.80 495.07 L 135.06 493.18 L 136.32 491.26 L 137.47 489.52 L 138.74 487.68 L 139.92 485.98 L 141.01 484.43 L 142.10 483.03 L 143.11 481.58 L 144.15 480.37 L 145.02 479.17 L 145.87 478.21 L 146.78 477.13 L 147.55 476.22 L 148.41 475.38 L 149.18 474.58 L 149.94 473.87 L 150.71 473.26 L 151.39 472.53 L 152.06 471.84 L 152.80 471.30 L 153.41 470.71 L 154.19 470.11 L 154.89 469.52 L 155.59 468.90 L 156.37 468.33 L 157.03 467.60 L 157.71 466.94 L 158.53 466.15" fill="none" stroke="black" stroke-width="1"/>
  <path d="M 161.17 467.65 L 155.90 470.83" fill="none" stroke="black" stroke-width="1"/>
  <path d="M 149.31 466.16 L 167.77 463.08" fill="none" stroke="black" stroke-width="1"/>
  <path d="M 177.02 457.30 L 183.13 456.56" fill="none" stroke="black" stroke-width="1"/>
  <path d="M 186.23 463.15 L 192.38 463.02" fill="none" stroke="black" stroke-width="1"/>
  <path d="M 189.30 506.16 L 190.59 508.21 L 191.87 510.26 L 193.15 512.31 L 194.43 514.36 L 195.71 516.41 L 197.00 518.46 L 198.28 520.52 L 199.56 522.57 L 200.84 524.62 L 202.12 526.67 L 203.41 528.72 L 204.69 530.77 L 205.97 532.82 L 207.25 534.87 L 208.53 536.93 L 209.82 538.98 L 211.10 541.03 L 212.38 543.08 L 213.66 545.13 L 214.94 547.18 L 216.23 549.23 L 217.51 551.28 L 218.79 553.33 L 220.07 555.39 L 221.35 557.44 L 222.64 559.49 L 223.92 561.54 L 225.20 563.59 L 226.48 565.64 L 227.76 567.69 L 229.05 569.74 L 230.33 571.80 L 231.61 573.85 L 232.89 575.90 L 234.17 577.95 L 235.46 580.00" fill="none" stroke="black" stroke-width="1"/>
  <path d="M 235.43 579.99 L 236.72 579.03 L 237.87 577.96 L 239.04 576.98 L 240.27 576.10 L 241.42 575.28 L 242.64 574.34 L 243.83 573.40 L 245.01 572.60 L 246.22 571.68 L 247.39 570.81 L 248.60 569.91 L 249.80 568.91 L 250.97 567.89 L 252.26 566.80 L 253.61 565.56 L 254.78 564.42 L 256.17 563.04 L 257.39 561.69 L 258.68 560.17 L 260.10 558.54 L 261.49 556.71 L 262.97 554.84 L 264.47 552.77 L 266.01 550.62 L 267.66 548.27 L 269.17 545.98 L 270.83 543.57 L 272.40 541.06 L 273.99 538.48 L 275.66 535.97 L 277.22 533.45 L 278.91 530.83 L 280.58 528.23 L 282.10 525.77 L 283.67 523.29 L 285.18 520.90 L 286.61 518.65 L 288.10 516.35 L 289.38 514.26 L 290.83 512.24 L 292.19 510.29 L 293.38 508.46 L 294.55 506.70 L 295.81 504.85 L 296.98 503.07 L 298.14 501.38 L 299.19 499.64 L 300.37 498.08 L 301.41 496.48 L 302.51 494.93 L 303.52 493.42 L 304.58 491.93 L 305.50 490.58 L 306.58 489.09 L 307.63 487.66 L 308.53 486.40 L 309.52 485.12 L 310.43 483.87 L 311.44 482.71 L 312.29 481.50 L 313.22 480.46 L 314.08 479.34 L 314.98 478.41 L 315.77 477.45 L 316.61 476.64 L 317.37 475.78 L 318.05 474.95 L 318.91 474.28 L 319.65 473.67 L 320.40 472.90 L 321.12 472.19 L 321.86 471.60 L 322.52 470.92 L 323.31 470.33 L 324.10 469.77 L 324.77 469.04 L 325.54 468.29 L 326.25 467.69 L 327.07 466.97 L 327.77 466.24" fill="none" stroke="black" stroke-width="1"/>
  <path d="M 333.91 466.16 L 335.44 466.44 L 336.95 466.74 L 338.45 467.07 L 339.95 467.41 L 341.45 467.75 L 342.95 468.08 L 344.46 468.39 L 345.99 468.67 L 347.54 468.90 L 349.12 469.08 L 350.73 469.20 L 352.37 469.24 L 354.06 469.20 L 355.78 469.08 L 357.54 468.90 L 359.32 468.67 L 361.13 468.39 L 362.95 468.08 L 364.78 467.75 L 366.62 467.41 L 368.45 467.07 L 370.28 466.74 L 372.10 466.44 L 373.91 466.16" fill="none" stroke="black" stroke-width="1"/>
  <path d="M 361.60 463.05 L 367.76 463.12" fill="none" stroke="black" stroke-width="1"/>
  <path d="M 370.84 469.42 L 376.98 469.05" fill="none" stroke="black" stroke-width="1"/>
  <path d="M 389.29 456.93 L 401.60 463.08" fill="none" stroke="black" stroke-width="1"/>
  <path d="M 401.60 456.93 L 407.75 435.39" fill="none" stroke="black" stroke-width="1"/>
  <path d="M 404.68 420.01 L 413.91 389.24" fill="none" stroke="black" stroke-width="1"/>
  <path d="M 418.18 392.96 L 421.94 397.83" fill="none" stroke="black" stroke-width="1"/>
  <path d="M 450.83 413.85 L 455.96 413.60 L 461.08 413.34 L 466.21 413.09 L 471.34 412.83 L 476.47 412.57 L 481.60 412.32 L 486.72 412.06 L 491.85 411.80 L 496.98 411.55 L 502.11 411.29 L 507.24 411.03 L 512.36 410.78 L 517.49 410.52 L 522.62 410.27 L 527.75 410.01 L 532.88 409.75 L 538.00 409.50 L 543.13 409.24 L 548.26 408.98 L 553.39 408.73 L 558.52 408.47 L 563.64 408.21 L 568.77 407.96 L 573.90 407.70 L 579.03 407.44 L 584.15 407.19 L 589.28 406.93 L 594.41 406.68 L 599.54 406.42 L 604.67 406.16 L 609.79 405.91 L 614.92 405.65 L 620.05 405.39 L 625.18 405.14 L 630.31 404.88 L 635.43 404.62" fill="none" stroke="black" stroke-width="1"/>
  <path d="M 592.30 388.62 L 586.27 389.86" fill="none" stroke="black" stroke-width="1"/>
  <path d="M 546.13 394.70 L 540.13 396.09" fill="none" stroke="black" stroke-width="1"/>
  <path d="M 527.75 383.09 L 531.59 382.84 L 535.44 382.61 L 539.29 382.39 L 543.13 382.18 L 546.98 381.96 L 550.82 381.74 L 554.67 381.51 L 558.52 381.26 L 562.36 381.00 L 566.21 380.70 L 570.05 380.37 L 573.90 380.01 L 577.74 379.61 L 581.59 379.16 L 585.44 378.69 L 589.28 378.19 L 593.13 377.66 L 596.97 377.13 L 600.82 376.58 L 604.67 376.02 L 608.51 375.47 L 612.36 374.92 L 616.20 374.38 L 620.05 373.86" fill="none" stroke="black" stroke-width="1"/>
  <path d="M 635.43 343.09 L 630.31 343.61 L 625.18 344.15 L 620.05 344.70 L 614.92 345.25 L 609.79 345.81 L 604.67 346.36 L 599.54 346.90 L 594.41 347.42 L 589.28 347.92 L 584.15 348.40 L 579.03 348.84 L 573.90 349.24 L 568.77 349.61 L 563.64 349.93 L 558.52 350.23 L 553.39 350.50 L 548.26 350.74 L 543.13 350.97 L 538.00 351.19 L 532.88 351.41 L 527.75 351.62 L 522.62 351.84 L 517.49 352.07 L 512.36 352.32" fill="none" stroke="black" stroke-width="1"/>
  <path d="M 496.98 364.63 L 567.75 358.47" fill="none" stroke="black" stroke-width="1"/>
  <path d="M 561.34 332.63 L 555.69 335.09" fill="none" stroke="black" stroke-width="1"/>
  <path d="M 557.23 324.18 L 559.92 318.80" fill="none" stroke="black" stroke-width="1"/>
  <path d="M 586.67 323.18 L 591.89 319.93" fill="none" stroke="black" stroke-width="1"/>
  <path d="M 596.81 283.96 L 600.22 279.04" fill="none" stroke="black" stroke-width="1"/>
  <path d="M 635.43 229.25 L 631.64 229.50 L 627.92 229.73 L 624.26 229.95 L 620.62 230.16 L 616.98 230.38 L 613.32 230.60 L 609.60 230.83 L 605.81 231.07 L 601.90 231.34 L 597.86 231.64 L 593.67 231.96 L 589.28 232.33 L 584.69 232.74 L 579.92 233.21 L 574.98 233.72 L 569.91 234.26 L 564.73 234.83 L 559.48 235.40 L 554.17 235.98 L 548.83 236.54 L 543.49 237.09 L 538.18 237.60 L 532.92 238.06 L 527.75 238.48 L 522.62 238.84 L 517.49 239.17 L 512.36 239.47 L 507.24 239.73 L 502.11 239.98 L 496.98 240.21 L 491.85 240.43 L 486.72 240.64 L 481.60 240.86 L 476.47 241.08 L 471.34 241.31 L 466.21 241.56" fill="none" stroke="black" stroke-width="1"/>
  <path d="M 460.07 266.09 L 460.15 265.26 L 460.39 264.58 L 460.62 263.76 L 460.74 263.10 L 460.87 262.29 L 461.10 261.63 L 461.20 260.92 L 461.46 260.16 L 461.60 259.50 L 461.81 258.68 L 461.92 258.00 L 462.15 257.19 L 462.22 256.41 L 462.46 255.67 L 462.58 254.81 L 462.74 254.12 L 462.85 253.30 L 462.98 252.51 L 463.02 251.65 L 463.16 250.85 L 463.16 250.02 L 463.28 249.13 L 463.33 248.16 L 463.35 247.35 L 463.32 246.47 L 463.38 245.52 L 463.30 244.60 L 463.37 243.65 L 463.36 242.67 L 463.33 241.76 L 463.36 240.72 L 463.28 239.85 L 463.18 238.82 L 463.23 237.93 L 463.24 236.91 L 463.18 236.02 L 463.14 235.10 L 463.14 234.12 L 463.21 233.13 L 463.12 232.25" fill="none" stroke="black" stroke-width="1"/>
  <path d="M 441.67 238.57 L 441.21 244.23 L 440.53 249.78 L 440.03 255.49 L 439.50 260.99 L 438.92 266.73 L 438.44 272.29" fill="none" stroke="black" stroke-width="1"/>
  <path d="M 429.23 278.44 L 428.71 283.40 L 427.95 288.22 L 427.35 293.20 L 426.84 298.02 L 426.19 303.02" fill="none" stroke="black" stroke-width="1"/>
  <path d="M 436.39 309.29 L 434.66 315.11" fill="none" stroke="black" stroke-width="1"/>
  <path d="M 443.72 312.15 L 445.75 306.45" fill="none" stroke="black" stroke-width="1"/>
  <path d="M 450.90 296.86 L 451.61 291.95 L 452.08 287.00 L 452.67 282.16 L 453.37 277.25 L 454.00 272.30" fill="none" stroke="black" stroke-width="1"/>
  <path d="M 460.09 272.23 L 463.99 276.91 L 467.65 281.57 L 471.63 286.21 L 475.35 290.75" fill="none" stroke="black" stroke-width="1"/>
  <path d="M 460.06 300.05 L 458.04 305.10 L 455.87 310.26 L 453.90 315.32" fill="none" stroke="black" stroke-width="1"/>
  <path d="M 453.96 333.87 L 453.89 334.14 L 453.64 334.48 L 453.52 334.85 L 453.32 335.07 L 453.12 335.34 L 453.00 335.65 L 452.78 335.93 L 452.68 336.22 L 452.55 336.52 L 452.36 336.81 L 452.18 337.06 L 452.04 337.40 L 451.84 337.65 L 451.73 338.02 L 451.56 338.30 L 451.41 338.67 L 451.19 338.97 L 451.10 339.36 L 450.97 339.78 L 450.79 340.10 L 450.57 340.42 L 450.49 340.89 L 450.27 341.31 L 450.19 341.73 L 450.02 342.18 L 449.89 342.61 L 449.72 343.10 L 449.59 343.53 L 449.47 344.00 L 449.30 344.47 L 449.17 344.91 L 449.00 345.42 L 448.89 345.93 L 448.71 346.37 L 448.50 346.85 L 448.42 347.33 L 448.19 347.87 L 448.12 348.27 L 447.96 348.81 L 447.83 349.19" fill="none" stroke="black" stroke-width="1"/>
  <path d="M 440.02 352.28 L 438.48 353.82 L 436.94 352.28 L 438.48 350.74 L 440.02 352.28" fill="none" stroke="black" stroke-width="1"/>
  <path d="M 441.82 352.54 L 441.81 351.55 L 441.92 349.96 L 441.67 349.03" fill="none" stroke="black" stroke-width="1"/>
  <path d="M 450.77 333.79 L 450.25 334.25 L 449.86 334.73 L 449.41 335.25 L 448.95 335.68 L 448.54 336.20 L 448.03 336.65 L 447.55 337.15 L 447.12 337.62 L 446.74 338.17 L 446.21 338.59 L 445.71 339.07 L 445.30 339.54 L 444.79 340.01 L 444.39 340.46 L 443.98 340.92 L 443.47 341.36 L 442.93 341.82 L 442.56 342.21 L 442.14 342.70 L 441.64 343.01 L 441.20 343.45 L 440.73 343.76 L 440.26 344.05 L 439.81 344.46 L 439.28 344.71 L 438.89 345.11 L 438.37 345.50 L 437.97 345.74 L 437.56 346.13 L 437.04 346.34 L 436.60 346.58 L 436.12 346.92 L 435.74 347.23 L 435.20 347.50 L 434.77 347.77 L 434.28 348.08 L 433.76 348.36 L 433.36 348.68 L 432.91 349.08 L 432.44 349.29" fill="none" stroke="black" stroke-width="1"/>
  <path d="M 435.48 355.42 L 437.60 355.57 L 439.44 355.47 L 441.57 355.18" fill="none" stroke="black" stroke-width="1"/>
  <path d="M 444.61 355.47 L 440.58 358.63 L 436.49 361.58 L 432.44 364.71" fill="none" stroke="black" stroke-width="1"/>
  <path d="M 429.28 364.66 L 426.17 367.62 L 423.18 370.66 L 420.12 373.79" fill="none" stroke="black" stroke-width="1"/>
  <path d="M 419.97 373.88 L 417.01 376.91 L 413.89 379.92" fill="none" stroke="black" stroke-width="1"/>
  <path d="M 413.94 383.02 L 414.27 382.70 L 414.55 382.41 L 414.89 382.18 L 415.16 381.79 L 415.50 381.57 L 415.76 381.18 L 415.99 380.92 L 416.37 380.56 L 416.64 380.19 L 416.98 379.95 L 417.26 379.64 L 417.58 379.33 L 417.90 379.05 L 418.19 378.72 L 418.43 378.48 L 418.80 378.10 L 419.10 377.87 L 419.41 377.49 L 419.67 377.11 L 420.02 376.88 L 420.41 376.54 L 420.64 376.26 L 420.86 375.89 L 421.25 375.65 L 421.61 375.38 L 421.87 375.04 L 422.26 374.74 L 422.49 374.43 L 422.80 374.07 L 423.11 373.81 L 423.48 373.56 L 423.73 373.20 L 424.11 372.88 L 424.35 372.59 L 424.65 372.19 L 424.97 371.98 L 425.28 371.65 L 425.59 371.36 L 425.94 371.09 L 426.21 370.75" fill="none" stroke="black" stroke-width="1"/>
  <path d="M 426.24 370.74 L 430.92 367.73 L 435.47 364.69 L 440.05 361.57 L 444.70 358.47" fill="none" stroke="black" stroke-width="1"/>
  <path d="M 444.65 358.41 L 445.29 357.65 L 445.92 356.87 L 446.52 356.03 L 447.23 355.33 L 447.81 354.65 L 448.57 353.79 L 449.28 353.07 L 449.91 352.25 L 450.63 351.52 L 451.24 350.71 L 451.83 349.95 L 452.54 349.17 L 453.19 348.37 L 453.79 347.63 L 454.38 346.91 L 454.97 346.10 L 455.50 345.28 L 456.06 344.56 L 456.47 343.88 L 457.05 343.03 L 457.45 342.24 L 457.93 341.50 L 458.31 340.83 L 458.72 339.98 L 459.07 339.26 L 459.44 338.45 L 459.86 337.75 L 460.10 336.93 L 460.39 336.16 L 460.69 335.41 L 460.99 334.57 L 461.24 333.90 L 461.50 333.11 L 461.76 332.37 L 461.98 331.69 L 462.24 330.85 L 462.53 330.11 L 462.70 329.33 L 462.98 328.49 L 463.16 327.79 L 463.44 327.12 L 463.59 326.26 L 463.82 325.56 L 463.96 324.72 L 464.05 323.97 L 464.29 323.18 L 464.38 322.34 L 464.58 321.63 L 464.68 320.94 L 464.85 320.09 L 464.96 319.36 L 465.10 318.54 L 465.23 317.74 L 465.35 317.00 L 465.51 316.16 L 465.60 315.45 L 465.71 314.68 L 465.86 313.90 L 466.08 313.12 L 466.14 312.36" fill="none" stroke="black" stroke-width="1"/>
  <path d="M 466.15 312.30 L 466.23 312.36 L 466.21 312.36" fill="none" stroke="black" stroke-width="1"/>
  <path d="M 460.11 318.43 L 461.12 314.28 L 462.10 310.24 L 463.19 306.08" fill="none" stroke="black" stroke-width="1"/>
  <path d="M 466.18 312.28 L 466.98 310.78 L 467.75 309.28 L 468.51 307.89 L 469.33 306.39 L 470.08 304.98 L 470.93 303.55 L 471.66 302.07 L 472.53 300.74 L 473.29 299.25 L 474.12 297.89 L 475.00 296.44 L 475.70 294.97 L 476.39 293.45 L 477.25 291.92 L 478.08 290.32 L 478.77 288.70 L 479.42 287.05 L 480.24 285.26 L 480.97 283.35 L 481.66 281.56 L 482.31 279.61 L 483.10 277.50 L 483.80 275.27 L 484.61 273.06 L 485.39 270.77 L 486.15 268.35 L 486.89 265.89 L 487.68 263.45 L 488.36 260.97 L 489.14 258.46 L 489.87 255.91 L 490.50 253.47 L 491.10 251.10 L 491.70 248.57 L 492.21 246.20 L 492.70 243.85 L 493.15 241.71 L 493.45 239.42 L 493.65 237.39 L 493.92 235.36 L 493.94 233.54 L 494.01 231.73 L 493.90 230.03 L 493.73 228.47 L 493.48 227.05 L 493.15 225.49 L 492.71 224.04 L 492.36 222.70 L 491.97 221.30 L 491.44 220.00 L 491.01 218.68 L 490.47 217.31 L 489.98 215.94 L 489.54 214.51 L 489.05 213.11 L 488.73 211.54 L 488.34 209.98 L 488.12 208.28 L 487.99 206.45 L 487.79 204.65 L 487.72 202.71 L 487.76 200.64 L 487.87 198.42 L 487.94 196.31 L 488.10 194.01 L 488.29 191.74 L 488.55 189.35 L 488.75 187.00 L 488.98 184.62 L 489.26 182.14 L 489.47 179.70 L 489.77 177.24 L 490.03 174.79 L 490.23 172.35 L 490.44 169.95 L 490.58 167.56 L 490.74 165.31 L 490.77 162.91 L 490.78 160.76 L 490.74 158.47 L 490.67 156.30 L 490.52 154.14 L 490.37 152.00 L 490.17 149.79 L 490.00 147.58 L 489.70 145.46 L 489.48 143.28 L 489.15 141.17 L 488.77 139.06 L 488.51 136.97 L 488.17 134.85 L 487.81 132.90 L 487.50 130.93 L 487.06 128.98 L 486.66 127.19 L 486.29 125.26 L 485.85 123.60 L 485.51 121.77 L 485.11 120.08 L 484.73 118.55 L 484.36 117.06 L 483.93 115.65 L 483.42 114.28 L 483.08 113.06 L 482.69 111.81 L 482.17 110.73 L 481.64 109.64 L 481.23 108.59 L 480.70 107.58 L 480.26 106.61 L 479.70 105.65 L 479.28 104.72 L 478.74 103.81 L 478.29 102.86 L 477.81 101.97 L 477.30 100.98 L 476.79 99.97 L 476.33 99.04 L 475.89 98.02 L 475.38 96.96" fill="none" stroke="black" stroke-width="1"/>
  <path d="M 478.60 100.00 L 475.54 103.22 L 472.46 106.27" fill="none" stroke="black" stroke-width="1"/>
  <path d="M 472.40 99.94 L 475.41 95.27 L 478.52 90.74" fill="none" stroke="black" stroke-width="1"/>
  <path d="M 480.66 90.67 L 482.49 84.64" fill="none" stroke="black" stroke-width="1"/>
  <path d="M 487.77 84.76 L 493.83 84.67" fill="none" stroke="black" stroke-width="1"/>
  <path d="M 496.62 79.75 L 491.16 76.99" fill="none" stroke="black" stroke-width="1"/>
  <path d="M 493.83 72.31 L 496.98 69.15 L 500.11 66.10 L 503.13 63.05" fill="none" stroke="black" stroke-width="1"/>
  <path d="M 503.13 66.18 L 515.44 53.87" fill="none" stroke="black" stroke-width="1"/>
  <path d="M 558.45 35.42 L 560.47 35.29 L 562.47 35.05 L 564.48 34.77 L 566.50 34.60 L 568.47 34.40 L 570.55 34.09 L 572.59 33.77 L 574.60 33.57 L 576.55 33.29 L 578.64 33.08 L 580.72 32.96 L 582.67 32.65 L 584.59 32.52 L 586.68 32.32 L 588.74 32.29 L 590.65 32.13 L 592.52 32.06 L 594.57 32.11 L 596.57 32.26 L 598.45 32.30 L 600.36 32.55 L 602.26 32.72 L 604.09 33.10 L 606.03 33.36 L 607.90 33.76 L 609.74 34.17 L 611.56 34.58 L 613.43 35.12 L 615.24 35.65 L 617.09 36.17 L 618.88 36.68 L 620.74 37.28 L 622.57 37.83 L 624.37 38.42 L 626.25 38.91 L 628.02 39.54 L 629.79 40.10 L 631.67 40.61 L 633.51 41.07 L 635.35 41.60" fill="none" stroke="black" stroke-width="1"/>
  <path d="M 620.13 56.88 L 618.21 56.30 L 616.11 55.58 L 614.18 54.87 L 612.07 54.14 L 610.05 53.48 L 608.01 52.63 L 606.06 51.89 L 603.96 51.11 L 601.85 50.29 L 599.91 49.61 L 597.93 48.98 L 595.87 48.22 L 593.82 47.68 L 591.86 46.97 L 589.93 46.42 L 587.88 45.92 L 585.98 45.52 L 583.94 45.13 L 582.03 44.82 L 580.06 44.65 L 578.22 44.63 L 576.24 44.53 L 574.37 44.59 L 572.47 44.72 L 570.59 44.89 L 568.74 45.16 L 566.88 45.44 L 565.04 45.81 L 563.27 46.21 L 561.38 46.61 L 559.46 47.13 L 557.72 47.50 L 555.92 48.00 L 554.07 48.43 L 552.33 48.87 L 550.42 49.33 L 548.63 49.69 L 546.76 50.17 L 544.94 50.55 L 543.07 50.87" fill="none" stroke="black" stroke-width="1"/>
  <path d="M 524.67 69.26 L 512.36 75.41" fill="none" stroke="black" stroke-width="1"/>
  <path d="M 512.31 72.30 L 513.61 72.04 L 514.79 71.67 L 516.00 71.27 L 517.30 71.02 L 518.49 70.63 L 519.82 70.36 L 521.10 70.04 L 522.35 69.70 L 523.58 69.36 L 524.87 69.04 L 526.05 68.75 L 527.37 68.40 L 528.53 68.14 L 529.85 67.78 L 531.15 67.41 L 532.29 67.19 L 533.51 66.98 L 534.69 66.65 L 535.78 66.46 L 537.03 66.16 L 538.25 65.86 L 539.31 65.74 L 540.36 65.49 L 541.54 65.36 L 542.55 65.24 L 543.72 65.02 L 544.76 64.83 L 545.87 64.73 L 546.91 64.59 L 547.99 64.45 L 549.05 64.32 L 550.09 64.19 L 551.19 64.08 L 552.19 63.94 L 553.18 63.77 L 554.29 63.68 L 555.33 63.49 L 556.40 63.41 L 557.49 63.34 L 558.54 63.12" fill="none" stroke="black" stroke-width="1"/>
  <path d="M 601.60 118.87 L 607.68 118.02" fill="none" stroke="black" stroke-width="1"/>
  <path d="M 635.43 127.72 L 633.42 127.97 L 631.47 128.23 L 629.57 128.49 L 627.69 128.74 L 625.80 129.00 L 623.90 129.25 L 621.95 129.51 L 619.94 129.77 L 617.84 130.02 L 615.63 130.28 L 613.30 130.54 L 610.82 130.79 L 608.20 131.05 L 605.49 131.31 L 602.67 131.56 L 599.77 131.82 L 596.78 132.07 L 593.71 132.33 L 590.56 132.59 L 587.35 132.84 L 584.07 133.10 L 580.73 133.36 L 577.34 133.61 L 573.90 133.87 L 570.38 134.13 L 566.74 134.38 L 563.01 134.64 L 559.20 134.90 L 555.32 135.15 L 551.40 135.41 L 547.44 135.66 L 543.47 135.92 L 539.50 136.18 L 535.55 136.43 L 531.62 136.69 L 527.75 136.95" fill="none" stroke="black" stroke-width="1"/>
  <path d="M 512.44 180.10 L 511.75 179.91 L 511.19 179.69 L 510.48 179.39 L 509.94 179.15 L 509.39 178.81 L 508.69 178.54 L 507.98 178.29 L 507.44 177.91 L 506.85 177.70 L 506.19 177.32 L 505.64 177.02 L 504.94 176.82 L 504.33 176.58 L 503.69 176.47 L 503.11 176.46 L 502.44 176.32 L 501.79 176.30 L 501.20 176.44 L 500.53 176.72 L 499.97 176.87 L 499.43 177.24 L 498.73 177.65 L 498.08 178.26 L 497.51 178.75 L 496.96 179.43 L 496.28 180.12 L 495.63 180.82 L 495.06 181.68 L 494.43 182.48 L 493.84 183.40 L 493.20 184.26 L 492.62 185.20 L 491.93 186.04 L 491.40 187.05 L 490.82 188.03 L 490.18 188.87 L 489.62 189.82 L 488.96 190.63 L 488.29 191.52 L 487.74 192.25" fill="none" stroke="black" stroke-width="1"/>
  <path d="M 475.48 189.31 L 475.63 188.20 L 475.80 187.14 L 475.99 185.98 L 476.15 184.94 L 476.42 183.85 L 476.50 182.72 L 476.60 181.63 L 476.87 180.50 L 476.98 179.46 L 477.22 178.29 L 477.31 177.25 L 477.56 176.10 L 477.74 175.10 L 477.88 173.93 L 478.03 172.88 L 478.16 171.80 L 478.27 170.77 L 478.39 169.71 L 478.52 168.67 L 478.57 167.68 L 478.70 166.61 L 478.69 165.71 L 478.76 164.79 L 478.76 163.79 L 478.85 162.84 L 478.78 161.92 L 478.83 160.92 L 478.77 160.09 L 478.77 159.28 L 478.73 158.28 L 478.67 157.45 L 478.68 156.49 L 478.71 155.63 L 478.62 154.71 L 478.50 153.85 L 478.56 152.92 L 478.58 151.95 L 478.52 151.11 L 478.48 150.27 L 478.50 149.29" fill="none" stroke="black" stroke-width="1"/>
  <path d="M 484.70 152.34 L 483.24 147.77 L 481.69 143.19 L 480.14 138.45 L 478.54 133.87" fill="none" stroke="black" stroke-width="1"/>
  <path d="M 463.12 143.01 L 463.60 136.95 L 464.07 130.68 L 464.72 124.68 L 465.18 118.42 L 465.71 112.29 L 466.26 106.22" fill="none" stroke="black" stroke-width="1"/>
  <path d="M 466.19 103.18 L 463.17 101.65 L 460.13 100.10" fill="none" stroke="black" stroke-width="1"/>
  <path d="M 463.21 93.79 L 466.28 98.48 L 469.29 103.06" fill="none" stroke="black" stroke-width="1"/>
  <path d="M 472.39 112.37 L 472.90 113.06 L 473.33 113.76 L 473.78 114.31 L 474.30 114.93 L 474.75 115.42 L 475.28 115.97 L 475.81 116.47 L 476.26 116.99 L 476.83 117.44 L 477.24 118.07 L 477.73 118.61 L 478.20 119.30 L 478.60 119.98 L 479.13 120.78 L 479.58 121.61 L 480.03 122.60 L 480.39 123.74 L 480.88 124.85 L 481.28 126.21 L 481.68 127.63 L 481.98 129.25 L 482.43 131.00 L 482.82 132.98 L 483.15 134.90 L 483.43 137.05 L 483.84 139.23 L 484.08 141.62 L 484.49 143.90 L 484.71 146.39 L 485.11 148.82 L 485.35 151.41 L 485.70 153.89 L 486.02 156.42 L 486.26 159.02 L 486.53 161.61 L 486.79 164.12 L 487.09 166.70 L 487.28 169.10 L 487.60 171.56 L 487.75 173.85 L 488.02 176.18 L 488.23 178.47 L 488.42 180.84 L 488.74 183.08 L 488.95 185.31 L 489.26 187.68 L 489.47 189.92 L 489.75 192.29 L 490.06 194.63 L 490.20 196.89 L 490.29 199.16 L 490.57 201.49 L 490.65 203.79 L 490.83 206.10 L 490.90 208.38 L 490.97 210.71 L 490.96 213.03 L 490.95 215.32 L 490.92 217.70 L 490.74 219.94 L 490.49 222.19 L 490.32 224.56 L 490.04 226.88 L 489.69 229.18 L 489.27 231.56 L 488.89 233.81 L 488.44 236.06 L 487.96 238.44 L 487.38 240.84 L 486.93 243.07 L 486.36 245.44 L 485.84 247.70 L 485.21 249.98 L 484.73 252.34 L 484.14 254.61 L 483.63 256.97 L 483.06 259.30 L 482.57 261.60 L 482.18 263.84 L 481.61 266.23" fill="none" stroke="black" stroke-width="1"/>
  <path d="M 484.31 263.14 L 485.07 257.00" fill="none" stroke="black" stroke-width="1"/>
  <path d="M 487.67 266.14 L 487.89 262.97 L 488.64 259.88 L 488.60 256.99 L 489.38 254.05 L 489.60 251.01 L 489.80 248.06 L 490.29 244.59 L 490.77 241.77" fill="none" stroke="black" stroke-width="1"/>
  <path d="M 487.91 244.49 L 487.52 250.65" fill="none" stroke="black" stroke-width="1"/>
  <path d="M 496.90 250.86 L 497.21 249.75 L 497.54 248.68 L 497.83 247.56 L 498.20 246.49 L 498.56 245.30 L 498.87 244.27 L 499.24 243.12 L 499.54 242.06 L 499.96 240.89 L 500.21 239.85 L 500.51 238.70 L 500.86 237.66 L 501.24 236.53 L 501.49 235.50 L 501.84 234.45 L 502.08 233.37 L 502.45 232.25 L 502.63 231.28 L 502.88 230.33 L 503.13 229.25 L 503.30 228.24 L 503.57 227.28 L 503.69 226.33 L 503.95 225.37 L 504.09 224.35 L 504.29 223.50 L 504.42 222.52 L 504.60 221.67 L 504.67 220.67 L 504.88 219.86 L 504.93 219.00 L 505.15 218.07 L 505.31 217.20 L 505.41 216.29 L 505.53 215.46 L 505.68 214.50 L 505.79 213.69 L 505.95 212.70 L 506.06 211.74 L 506.25 210.87" fill="none" stroke="black" stroke-width="1"/>
  <path d="M 506.17 210.84 L 506.99 205.36 L 507.82 200.02 L 508.50 194.63 L 509.38 189.18" fill="none" stroke="black" stroke-width="1"/>
  <path d="M 506.12 183.14 L 503.12 181.63 L 500.09 180.05" fill="none" stroke="black" stroke-width="1"/>
  <path d="M 484.87 183.09 L 484.30 176.96" fill="none" stroke="black" stroke-width="1"/>
  <path d="M 481.56 180.02 L 483.08 184.54 L 484.72 189.22 L 486.27 193.86 L 487.72 198.41" fill="none" stroke="black" stroke-width="1"/>
  <path d="M 487.75 204.70 L 487.83 205.68 L 488.07 206.54 L 488.32 207.53 L 488.42 208.38 L 488.54 209.36 L 488.78 210.22 L 488.93 211.13 L 489.14 212.07 L 489.33 213.07 L 489.50 213.91 L 489.63 214.82 L 489.84 215.75 L 489.99 216.76 L 490.16 217.60 L 490.28 218.49 L 490.44 219.44 L 490.58 220.40 L 490.68 221.28 L 490.75 222.20 L 490.86 223.12 L 490.96 224.13 L 490.98 224.96 L 491.02 225.89 L 491.05 226.81 L 491.07 227.82 L 491.07 228.65 L 491.15 229.60 L 491.06 230.49 L 491.03 231.40 L 491.02 232.33 L 490.98 233.31 L 490.97 234.17 L 491.01 235.03 L 490.91 236.01 L 490.94 236.94 L 490.85 237.85 L 490.80 238.84 L 490.81 239.69 L 490.88 240.61 L 490.79 241.54" fill="none" stroke="black" stroke-width="1"/>
  <path d="M 500.13 235.35 L 500.38 234.34 L 500.75 233.51 L 501.04 232.51 L 501.39 231.67 L 501.67 230.69 L 502.05 229.83 L 502.37 228.94 L 502.70 227.99 L 503.10 227.02 L 503.35 226.15 L 503.65 225.24 L 503.98 224.31 L 504.35 223.38 L 504.59 222.47 L 504.80 221.61 L 505.17 220.63 L 505.49 219.79 L 505.71 218.79 L 505.90 217.88 L 506.19 216.95 L 506.44 215.94 L 506.62 215.11 L 506.78 214.19 L 507.00 213.27 L 507.11 212.38 L 507.33 211.43 L 507.55 210.51 L 507.63 209.58 L 507.72 208.65 L 507.91 207.74 L 507.96 206.86 L 508.17 205.90 L 508.29 204.96 L 508.43 204.05 L 508.58 203.19 L 508.69 202.21 L 508.87 201.31 L 508.96 200.37 L 509.03 199.52 L 509.26 198.52" fill="none" stroke="black" stroke-width="1"/>
  <path d="M 506.59 195.47 L 505.87 201.58" fill="none" stroke="black" stroke-width="1"/>
  <path d="M 503.07 195.53 L 503.30 189.23" fill="none" stroke="black" stroke-width="1"/>
  <path d="M 509.26 189.16 L 510.75 184.62 L 512.29 180.01" fill="none" stroke="black" stroke-width="1"/>
  <path d="M 512.34 180.06 L 512.44 180.86 L 512.39 181.82 L 512.48 182.59 L 512.50 183.44 L 512.63 184.13 L 512.66 184.99 L 512.79 185.74 L 512.82 186.52 L 512.90 187.26 L 512.97 188.09 L 513.04 188.98 L 513.07 189.75 L 513.05 190.67 L 513.09 191.56 L 512.99 192.61 L 513.01 193.58 L 512.83 194.64 L 512.79 195.85 L 512.60 197.12 L 512.42 198.45 L 512.14 199.95 L 511.86 201.39 L 511.57 203.08 L 511.15 204.66 L 510.72 206.50 L 510.30 208.19 L 509.87 210.10 L 509.34 211.92 L 508.76 213.81 L 508.31 215.80 L 507.84 217.80 L 507.24 219.78 L 506.69 221.82 L 506.15 223.79 L 505.63 225.74 L 505.07 227.78 L 504.54 229.68 L 504.03 231.69 L 503.46 233.64 L 503.06 235.47 L 502.52 237.31 L 502.14 239.17 L 501.66 241.01 L 501.23 242.87 L 500.75 244.77 L 500.32 246.56 L 499.84 248.37 L 499.41 250.25 L 499.02 252.13 L 498.51 253.94 L 497.98 255.77 L 497.60 257.63 L 497.15 259.53 L 496.70 261.32 L 496.29 263.14 L 495.80 265.02 L 495.40 266.85 L 494.89 268.71 L 494.50 270.52 L 493.99 272.40" fill="none" stroke="black" stroke-width="1"/>
  <path d="M 490.90 266.20 L 488.82 261.12 L 486.79 255.87 L 484.61 250.77" fill="none" stroke="black" stroke-width="1"/>
  <path d="M 484.69 250.84 L 482.61 245.64 L 480.50 240.41 L 478.49 235.33" fill="none" stroke="black" stroke-width="1"/>
  <path d="M 481.33 232.29 L 481.92 226.30" fill="none" stroke="black" stroke-width="1"/>
  <path d="M 496.81 220.10 L 497.16 213.99" fill="none" stroke="black" stroke-width="1"/>
  <path d="M 502.53 216.92 L 503.76 210.84" fill="none" stroke="black" stroke-width="1"/>
  <path d="M 499.23 232.19 L 500.75 226.13" fill="none" stroke="black" stroke-width="1"/>
  <path d="M 503.06 226.09 L 504.51 220.74 L 506.20 215.39 L 507.75 210.00 L 509.21 204.65" fill="none" stroke="black" stroke-width="1"/>
  <path d="M 543.13 210.79 L 604.67 204.64" fill="none" stroke="black" stroke-width="1"/>
  <path d="M 581.59 180.02 L 580.05 181.56 L 578.51 180.02 L 580.05 178.48 L 581.59 180.02" fill="none" stroke="black" stroke-width="1"/>
  <path d="M 565.10 150.73 L 570.35 147.61" fill="none" stroke="black" stroke-width="1"/>
  <path d="M 558.52 112.33 L 561.86 112.08 L 565.22 111.82 L 568.59 111.56 L 571.96 111.31 L 575.34 111.05 L 578.71 110.79 L 582.07 110.54 L 585.41 110.28 L 588.73 110.02 L 592.02 109.77 L 595.29 109.51 L 598.51 109.26 L 601.70 109.00 L 604.84 108.74 L 607.96 108.49 L 611.05 108.23 L 614.12 107.97 L 617.17 107.72 L 620.21 107.46 L 623.24 107.20 L 626.28 106.95 L 629.32 106.69 L 632.37 106.44 L 635.43 106.18" fill="none" stroke="black" stroke-width="1"/>
  <path d="M 635.40 93.96 L 634.75 93.81 L 634.00 93.66 L 633.38 93.62 L 632.82 93.39 L 632.37 93.26 L 631.75 93.13 L 631.21 93.02 L 630.72 92.88 L 630.18 92.68 L 629.62 92.61 L 628.99 92.53 L 628.38 92.34 L 627.68 92.22 L 626.88 92.03 L 625.88 91.90 L 625.05 91.70 L 623.97 91.56 L 622.79 91.32 L 621.47 91.19 L 620.00 90.88 L 618.41 90.62 L 616.64 90.38 L 614.76 90.06 L 612.74 89.80 L 610.55 89.40 L 608.42 89.17 L 606.14 88.87 L 603.76 88.49 L 601.39 88.13 L 598.86 87.80 L 596.24 87.47 L 593.80 87.11 L 591.23 86.72 L 588.68 86.44 L 586.13 86.11 L 583.59 85.80 L 581.05 85.45 L 578.62 85.22 L 576.30 85.02 L 573.87 84.71 L 571.48 84.54 L 569.26 84.27 L 567.04 84.14 L 564.64 83.88 L 562.26 83.73 L 560.03 83.54 L 557.74 83.35 L 555.41 83.22 L 553.04 83.07 L 550.80 82.94 L 548.52 82.81 L 546.18 82.66 L 543.79 82.57 L 541.57 82.39 L 539.35 82.31 L 536.96 82.12 L 534.64 82.06 L 532.34 81.84 L 530.11 81.62 L 527.73 81.53" fill="none" stroke="black" stroke-width="1"/>
  <path d="M 527.73 87.80 L 521.98 86.93 L 516.31 85.99 L 510.56 85.07 L 504.89 84.17 L 499.14 83.37 L 493.36 82.42 L 487.72 81.57" fill="none" stroke="black" stroke-width="1"/>
  <path d="M 487.81 75.43 L 490.87 72.31 L 493.90 69.22" fill="none" stroke="black" stroke-width="1"/>
  <path d="M 493.87 69.35 L 495.86 73.50 L 498.04 77.54 L 500.09 81.53" fill="none" stroke="black" stroke-width="1"/>
  <path d="M 500.05 81.64 L 495.98 79.61 L 491.82 77.44 L 487.71 75.37" fill="none" stroke="black" stroke-width="1"/>
  <path d="M 487.66 75.40 L 487.06 75.63 L 486.43 75.98 L 485.78 76.16 L 485.17 76.50 L 484.45 76.72 L 483.90 76.98 L 483.26 77.25 L 482.63 77.46 L 482.07 77.62 L 481.37 77.95 L 480.82 78.16 L 480.12 78.48 L 479.44 78.70 L 478.89 79.09 L 478.24 79.44 L 477.70 79.80 L 477.19 80.17 L 476.54 80.64 L 475.97 81.07 L 475.44 81.63 L 474.89 82.16 L 474.40 82.80 L 473.92 83.47 L 473.40 84.12 L 472.89 84.76 L 472.44 85.56 L 472.00 86.26 L 471.52 87.11 L 471.05 88.01 L 470.62 88.73 L 470.15 89.55 L 469.74 90.39 L 469.33 91.24 L 468.86 92.08 L 468.42 92.95 L 467.98 93.75 L 467.58 94.57 L 467.09 95.39 L 466.61 96.19 L 466.17 96.96" fill="none" stroke="black" stroke-width="1"/>
  <path d="M 466.18 96.94 L 467.25 96.79 L 468.37 96.67 L 469.48 96.63 L 470.63 96.47 L 471.76 96.35 L 472.91 96.31 L 473.99 96.22 L 475.21 96.15 L 476.37 96.00 L 477.49 95.98 L 478.57 95.83 L 479.73 95.76 L 480.87 95.63 L 481.89 95.46 L 482.87 95.28 L 483.95 95.07 L 484.86 94.87 L 485.89 94.54 L 486.73 94.20 L 487.67 93.86 L 488.49 93.38 L 489.28 93.00 L 490.05 92.44 L 490.74 91.98 L 491.42 91.46 L 492.07 90.84 L 492.60 90.27 L 493.30 89.59 L 493.89 88.90 L 494.46 88.27 L 495.05 87.64 L 495.57 86.90 L 496.08 86.22 L 496.67 85.52 L 497.27 84.86 L 497.77 84.14 L 498.39 83.46 L 498.91 82.80 L 499.58 82.08 L 500.11 81.52" fill="none" stroke="black" stroke-width="1"/>
  <path d="M 506.39 72.10 L 504.79 73.74 L 503.09 75.46 L 501.34 76.98 L 499.89 78.71" fill="none" stroke="black" stroke-width="1"/>
  <path d="M 498.58 78.51 L 495.74 72.86" fill="none" stroke="black" stroke-width="1"/>
  <path d="M 499.70 73.73 L 494.27 70.75" fill="none" stroke="black" stroke-width="1"/>
  <path d="M 493.73 67.44 L 488.79 70.87" fill="none" stroke="black" stroke-width="1"/>
  <path d="M 490.02 70.20 L 485.34 74.25" fill="none" stroke="black" stroke-width="1"/>
  <path d="M 484.74 75.47 L 485.70 70.38 L 486.67 65.12 L 487.78 60.02" fill="none" stroke="black" stroke-width="1"/>
  <path d="M 481.53 63.14 L 483.73 63.96 L 486.30 64.45 L 488.96 65.03 L 491.16 65.59 L 493.67 66.23" fill="none" stroke="black" stroke-width="1"/>
  <path d="M 476.67 69.13 L 474.38 63.36" fill="none" stroke="black" stroke-width="1"/>
  <path d="M 472.29 66.13 L 474.35 70.31 L 476.46 74.39 L 478.48 78.47" fill="none" stroke="black" stroke-width="1"/>
  <path d="M 477.75 79.46 L 473.18 83.59" fill="none" stroke="black" stroke-width="1"/>
  <path d="M 470.60 85.02 L 467.95 90.59" fill="none" stroke="black" stroke-width="1"/>
  <path d="M 450.47 72.30 L 451.00 66.24" fill="none" stroke="black" stroke-width="1"/>
  <path d="M 426.57 59.99 L 425.77 66.10" fill="none" stroke="black" stroke-width="1"/>
  <path d="M 405.15 63.15 L 404.06 69.20" fill="none" stroke="black" stroke-width="1"/>
  <path d="M 382.88 66.17 L 383.54 60.08" fill="none" stroke="black" stroke-width="1"/>
  <path d="M 367.67 66.13 L 365.61 70.20 L 363.68 74.39 L 361.61 78.45" fill="none" stroke="black" stroke-width="1"/>
  <path d="M 362.69 79.43 L 366.81 83.94" fill="none" stroke="black" stroke-width="1"/>
  <path d="M 369.79 84.83 L 372.05 90.50" fill="none" stroke="black" stroke-width="1"/>
  <path d="M 377.04 93.87 L 373.95 98.45 L 370.84 103.09" fill="none" stroke="black" stroke-width="1"/>
  <path d="M 373.99 103.04 L 377.08 101.46 L 380.13 99.94" fill="none" stroke="black" stroke-width="1"/>
  <path d="M 383.11 106.15 L 382.18 111.42 L 381.32 116.64 L 380.36 122.01 L 379.51 127.29 L 378.63 132.65 L 377.86 137.81 L 376.90 143.18" fill="none" stroke="black" stroke-width="1"/>
  <path d="M 373.86 149.18 L 373.46 150.13 L 373.23 151.01 L 372.87 151.91 L 372.58 152.82 L 372.32 153.71 L 371.91 154.62 L 371.62 155.48 L 371.24 156.41 L 370.92 157.26 L 370.58 158.22 L 370.20 159.05 L 369.94 160.03 L 369.67 160.92 L 369.32 161.87 L 368.94 162.84 L 368.73 163.75 L 368.51 164.76 L 368.19 165.66 L 367.87 166.74 L 367.70 167.63 L 367.58 168.63 L 367.28 169.66 L 367.14 170.66 L 366.91 171.74 L 366.71 172.73 L 366.58 173.87 L 366.46 174.91 L 366.28 176.03 L 366.16 177.17 L 366.02 178.21 L 365.94 179.29 L 365.76 180.41 L 365.61 181.55 L 365.52 182.61 L 365.38 183.78 L 365.27 184.81 L 365.21 185.93 L 365.01 187.00 L 364.84 188.07 L 364.73 189.17" fill="none" stroke="black" stroke-width="1"/>
  <path d="M 358.51 189.26 L 356.50 194.38 L 354.46 199.50 L 352.41 204.55" fill="none" stroke="black" stroke-width="1"/>
  <path d="M 355.72 207.75 L 355.17 213.79" fill="none" stroke="black" stroke-width="1"/>
  <path d="M 355.53 216.85 L 355.40 223.07" fill="none" stroke="black" stroke-width="1"/>
  <path d="M 361.56 235.36 L 359.52 240.57 L 357.42 245.65 L 355.48 250.73" fill="none" stroke="black" stroke-width="1"/>
  <path d="M 355.54 250.78 L 353.50 256.00 L 351.37 261.09 L 349.33 266.23" fill="none" stroke="black" stroke-width="1"/>
  <path d="M 346.25 272.25 L 345.73 270.42 L 345.32 268.56 L 344.95 266.66 L 344.40 264.87 L 343.93 263.04 L 343.47 261.19 L 342.96 259.38 L 342.55 257.50 L 342.17 255.74 L 341.62 253.81 L 341.13 252.05 L 340.70 250.13 L 340.33 248.28 L 339.77 246.44 L 339.34 244.56 L 338.85 242.76 L 338.34 240.88 L 337.93 239.07 L 337.42 237.22 L 337.00 235.39 L 336.44 233.52 L 336.04 231.65 L 335.46 229.66 L 335.02 227.83 L 334.49 225.89 L 333.96 223.95 L 333.41 221.97 L 332.90 220.07 L 332.29 218.18 L 331.85 216.21 L 331.29 214.28 L 330.84 212.41 L 330.41 210.59 L 329.92 208.71 L 329.48 206.95 L 329.08 205.15 L 328.70 203.39 L 328.38 201.75 L 328.09 200.13 L 327.83 198.56 L 327.55 197.00 L 327.45 195.60 L 327.34 194.25 L 327.22 192.85 L 327.10 191.55 L 327.13 190.27 L 327.13 188.95 L 327.13 187.82 L 327.23 186.64 L 327.20 185.47 L 327.25 184.29 L 327.32 183.18 L 327.40 181.97 L 327.45 180.92 L 327.59 179.86 L 327.58 178.64 L 327.62 177.54 L 327.67 176.31 L 327.68 175.13 L 327.70 173.90" fill="none" stroke="black" stroke-width="1"/>
  <path d="M 327.67 173.95 L 329.24 178.50 L 330.82 183.10" fill="none" stroke="black" stroke-width="1"/>
  <path d="M 334.35 195.51 L 333.44 189.41" fill="none" stroke="black" stroke-width="1"/>
  <path d="M 330.92 189.32 L 332.15 194.91 L 333.23 200.28 L 334.51 205.82 L 335.76 211.47 L 336.91 216.91" fill="none" stroke="black" stroke-width="1"/>
  <path d="M 340.76 223.04 L 339.41 217.02" fill="none" stroke="black" stroke-width="1"/>
  <path d="M 343.38 213.92 L 342.91 207.75" fill="none" stroke="black" stroke-width="1"/>
  <path d="M 337.48 207.79 L 336.53 201.65" fill="none" stroke="black" stroke-width="1"/>
  <path d="M 337.03 198.49 L 337.16 199.63 L 337.33 200.63 L 337.53 201.64 L 337.60 202.78 L 337.71 203.80 L 337.85 204.92 L 337.91 206.06 L 338.11 207.06 L 338.32 208.12 L 338.37 209.21 L 338.46 210.32 L 338.65 211.35 L 338.80 212.36 L 338.95 213.49 L 339.16 214.61 L 339.28 215.64 L 339.44 216.63 L 339.66 217.79 L 339.88 218.90 L 340.10 219.94 L 340.31 221.10 L 340.59 222.10 L 340.92 223.16 L 341.14 224.25 L 341.49 225.29 L 341.73 226.41 L 342.07 227.47 L 342.35 228.57 L 342.61 229.60 L 343.00 230.73 L 343.33 231.90 L 343.67 232.90 L 343.94 233.97 L 344.34 235.06 L 344.75 236.13 L 345.01 237.22 L 345.35 238.38 L 345.67 239.39 L 346.01 240.53 L 346.30 241.55" fill="none" stroke="black" stroke-width="1"/>
  <path d="M 349.26 241.58 L 349.45 244.34 L 349.80 247.20 L 350.41 249.82 L 350.54 252.30 L 350.82 255.20 L 351.27 258.10 L 351.99 260.54 L 351.91 263.67 L 352.46 266.19" fill="none" stroke="black" stroke-width="1"/>
  <path d="M 343.20 250.74 L 342.97 249.69 L 342.57 248.57 L 342.17 247.48 L 341.91 246.38 L 341.50 245.24 L 341.24 244.17 L 340.89 243.04 L 340.56 241.96 L 340.14 240.88 L 339.89 239.76 L 339.56 238.61 L 339.24 237.58 L 338.96 236.52 L 338.61 235.42 L 338.34 234.39 L 338.02 233.29 L 337.80 232.21 L 337.47 231.21 L 337.29 230.19 L 336.98 229.19 L 336.69 228.18 L 336.55 227.22 L 336.34 226.22 L 336.17 225.31 L 335.98 224.35 L 335.83 223.45 L 335.65 222.56 L 335.53 221.62 L 335.46 220.64 L 335.25 219.82 L 335.18 218.93 L 334.99 218.03 L 334.79 217.14 L 334.74 216.25 L 334.56 215.40 L 334.48 214.47 L 334.42 213.49 L 334.21 212.67 L 334.08 211.68 L 333.92 210.85" fill="none" stroke="black" stroke-width="1"/>
  <path d="M 334.00 204.69 L 335.29 209.51 L 336.45 214.52 L 337.57 219.34 L 338.92 224.23 L 340.08 229.21" fill="none" stroke="black" stroke-width="1"/>
  <path d="M 342.59 232.23 L 343.95 238.33" fill="none" stroke="black" stroke-width="1"/>
  <path d="M 349.30 235.47 L 349.29 234.29 L 349.31 233.29 L 349.27 232.10 L 349.35 231.09 L 349.34 230.03 L 349.39 228.87 L 349.39 227.80 L 349.44 226.65 L 349.44 225.54 L 349.48 224.43 L 349.47 223.33 L 349.51 222.23 L 349.48 221.19 L 349.51 220.06 L 349.52 218.91 L 349.48 217.92 L 349.40 216.86 L 349.40 215.83 L 349.36 214.78 L 349.27 213.80 L 349.18 212.84 L 349.08 211.82 L 348.87 210.79 L 348.84 209.90 L 348.77 208.99 L 348.56 208.03 L 348.32 207.19 L 348.24 206.19 L 348.06 205.37 L 347.90 204.38 L 347.78 203.45 L 347.54 202.59 L 347.32 201.71 L 347.17 200.80 L 347.04 199.93 L 346.81 199.01 L 346.55 198.04 L 346.46 197.20 L 346.26 196.26 L 346.13 195.37" fill="none" stroke="black" stroke-width="1"/>
  <path d="M 339.87 195.42 L 340.38 201.57" fill="none" stroke="black" stroke-width="1"/>
  <path d="M 352.61 198.48 L 352.22 192.33" fill="none" stroke="black" stroke-width="1"/>
  <path d="M 352.43 189.33 L 351.89 188.53 L 351.20 187.72 L 350.58 186.83 L 349.96 186.01 L 349.42 185.07 L 348.73 184.23 L 348.11 183.30 L 347.49 182.44 L 346.88 181.50 L 346.26 180.68 L 345.68 179.84 L 345.02 178.99 L 344.44 178.17 L 343.79 177.43 L 343.22 176.80 L 342.56 176.04 L 342.01 175.40 L 341.32 174.86 L 340.69 174.40 L 340.09 173.94 L 339.49 173.68 L 338.86 173.31 L 338.29 173.08 L 337.63 172.94 L 336.95 172.88 L 336.40 172.79 L 335.84 172.84 L 335.16 172.81 L 334.57 172.94 L 333.93 172.95 L 333.34 173.15 L 332.70 173.16 L 332.07 173.22 L 331.47 173.41 L 330.82 173.52 L 330.24 173.64 L 329.71 173.68 L 329.01 173.81 L 328.49 173.76 L 327.78 173.87" fill="none" stroke="black" stroke-width="1"/>
  <path d="M 333.95 180.06 L 337.03 178.52 L 340.09 176.89" fill="none" stroke="black" stroke-width="1"/>
  <path d="M 357.91 182.92 L 359.13 176.98" fill="none" stroke="black" stroke-width="1"/>
  <path d="M 355.40 158.50 L 357.04 153.12 L 358.51 147.75 L 360.08 142.34 L 361.66 137.01" fill="none" stroke="black" stroke-width="1"/>
  <path d="M 362.12 146.23 L 361.00 152.45" fill="none" stroke="black" stroke-width="1"/>
  <path d="M 389.33 173.86 L 393.94 172.32 L 398.61 170.81 L 403.17 169.26 L 407.80 167.71" fill="none" stroke="black" stroke-width="1"/>
  <path d="M 395.42 167.67 L 394.64 173.07 L 393.91 178.45 L 393.19 183.86 L 392.35 189.17 L 391.64 194.54 L 390.85 200.03 L 390.19 205.36 L 389.37 210.81" fill="none" stroke="black" stroke-width="1"/>
  <path d="M 383.19 219.95 L 387.85 217.59 L 392.34 215.44 L 396.98 213.14 L 401.65 210.79" fill="none" stroke="black" stroke-width="1"/>
  <path d="M 410.77 204.57 L 411.09 198.72 L 411.61 193.04 L 411.99 187.17 L 412.32 181.57 L 412.63 175.72 L 413.09 169.87 L 413.45 164.12 L 413.83 158.41" fill="none" stroke="black" stroke-width="1"/>
  <path d="M 404.77 149.19 L 405.18 143.84 L 405.56 138.66 L 406.04 133.41 L 406.53 128.07 L 406.93 122.81 L 407.29 117.58 L 407.81 112.29" fill="none" stroke="black" stroke-width="1"/>
  <path d="M 438.49 112.32 L 437.99 117.53 L 437.54 122.85 L 437.26 128.23 L 436.84 133.52 L 436.29 138.77 L 435.93 144.12 L 435.44 149.33" fill="none" stroke="black" stroke-width="1"/>
  <path d="M 420.15 158.41 L 419.76 164.15 L 419.23 169.93 L 418.70 175.65 L 418.36 181.29 L 417.84 187.14 L 417.43 192.86 L 416.91 198.53" fill="none" stroke="black" stroke-width="1"/>
  <path d="M 432.32 204.59 L 432.72 199.22 L 433.13 193.87 L 433.44 188.46 L 433.91 183.06 L 434.18 177.79 L 434.70 172.26 L 435.00 166.86 L 435.42 161.58" fill="none" stroke="black" stroke-width="1"/>
  <path d="M 432.39 173.95 L 437.05 172.33 L 441.71 170.94 L 446.20 169.30 L 450.86 167.75" fill="none" stroke="black" stroke-width="1"/>
  <path d="M 460.03 167.71 L 459.29 173.01 L 458.47 178.46 L 457.76 183.83 L 457.06 189.16 L 456.25 194.51 L 455.42 200.01 L 454.63 205.42 L 453.91 210.72" fill="none" stroke="black" stroke-width="1"/>
  <path d="M 456.96 210.80 L 452.31 213.20 L 447.66 215.52 L 443.02 217.67 L 438.43 220.06" fill="none" stroke="black" stroke-width="1"/>
  <path d="M 420.05 204.59 L 420.04 210.82 L 420.05 216.98 L 419.95 223.09 L 419.93 229.16 L 419.91 235.33 L 419.97 241.51" fill="none" stroke="black" stroke-width="1"/>
  <path d="M 419.98 241.53 L 419.44 246.67 L 419.05 251.71 L 418.43 256.87 L 418.01 262.11 L 417.55 267.18 L 417.02 272.28" fill="none" stroke="black" stroke-width="1"/>
  <path d="M 413.98 281.64 L 414.42 276.58 L 414.94 271.28 L 415.56 266.19 L 416.06 261.14 L 416.57 255.92 L 417.01 250.80" fill="none" stroke="black" stroke-width="1"/>
  <path d="M 407.79 275.38 L 407.08 280.92 L 406.54 286.55 L 405.99 292.06 L 405.33 297.65 L 404.66 303.16" fill="none" stroke="black" stroke-width="1"/>
  <path d="M 404.88 309.29 L 404.61 315.52" fill="none" stroke="black" stroke-width="1"/>
  <path d="M 395.76 312.36 L 395.23 306.19" fill="none" stroke="black" stroke-width="1"/>
  <path d="M 389.21 315.33 L 386.07 310.13 L 383.12 304.98 L 380.01 299.92" fill="none" stroke="black" stroke-width="1"/>
  <path d="M 383.13 296.89 L 384.31 291.90 L 385.67 287.12 L 386.86 282.22 L 387.95 277.28 L 389.24 272.34" fill="none" stroke="black" stroke-width="1"/>
  <path d="M 364.72 290.77 L 368.62 286.11 L 372.27 281.50 L 376.13 276.88 L 380.00 272.33" fill="none" stroke="black" stroke-width="1"/>
  <path d="M 395.39 266.24 L 396.47 261.17 L 397.49 256.05 L 398.53 250.79 L 399.54 245.75 L 400.61 240.46 L 401.62 235.39" fill="none" stroke="black" stroke-width="1"/>
  <path d="M 383.13 229.24 L 382.76 230.06 L 382.50 230.77 L 382.21 231.46 L 381.84 232.30 L 381.59 233.11 L 381.17 233.83 L 380.82 234.65 L 380.49 235.35 L 380.10 236.17 L 379.82 236.88 L 379.55 237.61 L 379.17 238.41 L 378.81 239.22 L 378.54 239.94 L 378.27 240.73 L 377.95 241.47 L 377.72 242.20 L 377.40 243.01 L 377.19 243.77 L 376.91 244.55 L 376.63 245.32 L 376.48 246.09 L 376.25 246.87 L 376.10 247.64 L 375.98 248.38 L 375.76 249.20 L 375.55 249.88 L 375.47 250.75 L 375.30 251.56 L 375.19 252.31 L 375.02 253.11 L 374.93 253.87 L 374.88 254.67 L 374.68 255.43 L 374.49 256.27 L 374.43 256.99 L 374.32 257.81 L 374.16 258.54 L 374.03 259.35 L 373.87 260.10" fill="none" stroke="black" stroke-width="1"/>
  <path d="M 364.56 253.90 L 364.66 247.75" fill="none" stroke="black" stroke-width="1"/>
  <path d="M 358.26 238.36 L 358.89 244.52" fill="none" stroke="black" stroke-width="1"/>
  <path d="M 352.13 244.67 L 352.64 250.69" fill="none" stroke="black" stroke-width="1"/>
  <path d="M 355.14 256.97 L 355.81 263.04" fill="none" stroke="black" stroke-width="1"/>
  <path d="M 358.59 266.15 L 358.14 263.92 L 357.59 261.53 L 356.99 259.26 L 356.51 256.91 L 356.02 254.65 L 355.38 252.30 L 354.73 249.98 L 354.23 247.68 L 353.58 245.31 L 353.11 243.06 L 352.51 240.71 L 352.06 238.45 L 351.60 236.18 L 351.10 233.83 L 350.78 231.61 L 350.28 229.22 L 349.89 226.97 L 349.64 224.60 L 349.46 222.21 L 349.21 219.99 L 349.13 217.68 L 349.00 215.38 L 349.00 212.99 L 348.99 210.77 L 349.12 208.47 L 349.14 206.16 L 349.24 203.84 L 349.42 201.56 L 349.54 199.20 L 349.81 196.95 L 350.13 194.58 L 350.28 192.35 L 350.47 190.08 L 350.80 187.74 L 351.01 185.38 L 351.34 183.14 L 351.55 180.88 L 351.86 178.53 L 352.16 176.17 L 352.36 173.92 L 352.57 171.46 L 352.83 169.16 L 353.06 166.67 L 353.34 164.20 L 353.69 161.62 L 353.87 159.10 L 354.10 156.47 L 354.44 153.98 L 354.65 151.52 L 355.03 148.91 L 355.30 146.37 L 355.65 144.00 L 355.96 141.61 L 356.31 139.34 L 356.59 137.25 L 356.99 135.01 L 357.28 133.06 L 357.71 131.11 L 358.09 129.34 L 358.46 127.74 L 358.91 126.43 L 359.26 124.96 L 359.68 123.78 L 360.11 122.69 L 360.56 121.84 L 361.00 120.86 L 361.45 120.09 L 361.93 119.37 L 362.47 118.72 L 362.88 118.12 L 363.39 117.59 L 363.85 117.03 L 364.31 116.46 L 364.82 115.99 L 365.38 115.40 L 365.80 114.93 L 366.37 114.27 L 366.75 113.75 L 367.21 113.08 L 367.69 112.34" fill="none" stroke="black" stroke-width="1"/>
  <path d="M 367.75 106.12 L 364.63 103.14 L 361.53 100.07" fill="none" stroke="black" stroke-width="1"/>
  <path d="M 361.57 90.73 L 364.68 95.44 L 367.70 100.11" fill="none" stroke="black" stroke-width="1"/>
  <path d="M 364.69 97.00 L 364.22 97.97 L 363.76 99.07 L 363.24 100.12 L 362.81 101.02 L 362.31 102.04 L 361.84 102.89 L 361.42 103.78 L 360.88 104.74 L 360.44 105.69 L 359.92 106.63 L 359.38 107.70 L 358.97 108.61 L 358.59 109.75 L 358.05 110.74 L 357.70 111.91 L 357.16 113.07 L 356.81 114.34 L 356.31 115.66 L 355.96 117.13 L 355.51 118.57 L 355.21 120.23 L 354.73 121.79 L 354.37 123.63 L 353.93 125.28 L 353.46 127.21 L 353.13 129.01 L 352.70 131.02 L 352.36 132.93 L 351.92 134.96 L 351.63 137.01 L 351.29 139.05 L 350.96 141.22 L 350.70 143.28 L 350.37 145.51 L 350.07 147.62 L 349.88 149.85 L 349.73 151.95 L 349.50 154.20 L 349.45 156.34 L 349.27 158.53 L 349.23 160.81 L 349.24 162.96 L 349.39 165.29 L 349.44 167.61 L 349.53 170.06 L 349.80 172.41 L 349.99 174.90 L 350.27 177.29 L 350.51 179.72 L 350.80 182.18 L 351.08 184.53 L 351.33 187.03 L 351.64 189.48 L 351.81 191.77 L 352.01 193.99 L 352.17 196.34 L 352.24 198.57 L 352.37 200.66 L 352.35 202.70 L 352.34 204.68 L 352.20 206.41 L 352.01 208.30 L 351.72 210.01 L 351.39 211.55 L 350.99 213.05 L 350.57 214.53 L 350.09 215.89 L 349.63 217.32 L 349.06 218.60 L 348.65 220.02 L 348.21 221.34 L 347.72 222.72 L 347.27 224.14 L 346.92 225.51 L 346.59 227.00 L 346.34 228.48 L 346.22 230.03 L 346.05 231.74 L 346.06 233.58 L 346.14 235.37 L 346.44 237.44 L 346.62 239.43 L 347.00 241.74 L 347.39 243.86 L 347.98 246.16 L 348.41 248.57 L 348.99 251.10 L 349.63 253.47 L 350.24 255.90 L 351.01 258.46 L 351.80 260.98 L 352.50 263.45 L 353.30 265.83 L 354.04 268.35 L 354.86 270.71 L 355.60 273.07 L 356.46 275.32 L 357.13 277.50 L 357.79 279.47 L 358.57 281.57 L 359.20 283.48 L 359.98 285.27 L 360.62 286.92 L 361.44 288.71 L 362.22 290.33 L 362.94 291.94 L 363.80 293.38 L 364.47 295.00 L 365.26 296.47 L 366.03 297.93 L 366.82 299.35 L 367.59 300.78 L 368.39 302.19 L 369.17 303.61 L 370.00 304.94 L 370.74 306.45 L 371.49 307.82 L 372.30 309.35 L 373.03 310.92 L 373.84 312.36" fill="none" stroke="black" stroke-width="1"/>
  <path d="M 373.97 312.26 L 373.96 312.26 L 373.88 312.32" fill="none" stroke="black" stroke-width="1"/>
  <path d="M 373.82 312.30 L 374.17 313.35 L 374.45 314.47 L 374.73 315.52 L 375.08 316.66 L 375.33 317.73 L 375.70 318.87 L 375.98 320.05 L 376.33 321.08 L 376.69 322.20 L 376.96 323.28 L 377.32 324.38 L 377.59 325.47 L 377.89 326.46 L 378.21 327.63 L 378.47 328.66 L 378.84 329.76 L 379.17 330.78 L 379.46 331.84 L 379.71 332.92 L 380.08 333.88 L 380.38 334.93 L 380.70 335.88 L 380.97 336.86 L 381.35 337.88 L 381.68 338.96 L 382.00 339.86 L 382.27 340.92 L 382.66 341.81 L 382.96 342.75 L 383.31 343.72 L 383.62 344.68 L 383.94 345.58 L 384.25 346.50 L 384.55 347.39 L 384.86 348.18 L 385.12 349.14 L 385.34 349.90 L 385.66 350.80 L 385.87 351.64 L 386.14 352.38 L 386.36 353.15 L 386.47 353.83 L 386.52 354.40 L 386.60 355.12 L 386.57 355.70 L 386.61 356.29 L 386.53 356.90 L 386.55 357.40 L 386.57 357.96 L 386.52 358.46 L 386.47 358.98 L 386.58 359.52 L 386.73 360.02 L 386.80 360.62 L 386.96 361.27 L 387.27 361.80 L 387.70 362.46 L 388.05 363.10 L 388.71 363.86 L 389.23 364.54 L 389.94 365.40 L 390.82 366.14 L 391.89 367.00 L 392.78 367.84 L 393.89 368.80 L 395.05 369.64 L 396.31 370.48 L 397.55 371.50 L 398.90 372.53 L 400.23 373.41 L 401.71 374.38 L 403.01 375.36 L 404.38 376.37 L 405.84 377.32 L 407.20 378.26 L 408.65 379.27 L 410.07 380.21 L 411.37 381.20 L 412.61 382.16 L 413.94 383.08" fill="none" stroke="black" stroke-width="1"/>
  <path d="M 417.00 376.89 L 420.06 373.76 L 423.21 370.72" fill="none" stroke="black" stroke-width="1"/>
  <path d="M 441.55 361.54 L 437.52 363.58 L 433.51 365.65 L 429.38 367.66" fill="none" stroke="black" stroke-width="1"/>
  <path d="M 427.79 367.70 L 426.25 366.16 L 424.71 367.70 L 426.25 369.24 L 427.79 367.70" fill="none" stroke="black" stroke-width="1"/>
  <path d="M 413.93 373.87 L 410.88 376.98 L 407.70 380.03" fill="none" stroke="black" stroke-width="1"/>
  <path d="M 401.68 370.75 L 404.67 366.08 L 407.73 361.46" fill="none" stroke="black" stroke-width="1"/>
  <path d="M 404.60 364.67 L 406.23 360.08 L 407.81 355.45" fill="none" stroke="black" stroke-width="1"/>
  <path d="M 401.58 355.48 L 398.47 358.56 L 395.34 361.53 L 392.35 364.63" fill="none" stroke="black" stroke-width="1"/>
  <path d="M 386.21 358.50 L 389.22 353.91 L 392.28 349.31" fill="none" stroke="black" stroke-width="1"/>
  <path d="M 390.26 346.11 L 388.55 340.19" fill="none" stroke="black" stroke-width="1"/>
  <path d="M 377.99 342.23 L 382.11 337.82" fill="none" stroke="black" stroke-width="1"/>
  <path d="M 383.11 333.77 L 382.18 337.84 L 381.17 342.03 L 380.15 346.13" fill="none" stroke="black" stroke-width="1"/>
  <path d="M 381.64 349.65 L 384.77 355.06" fill="none" stroke="black" stroke-width="1"/>
  <path d="M 395.44 352.23 L 396.94 347.62 L 398.54 343.15" fill="none" stroke="black" stroke-width="1"/>
  <path d="M 395.37 346.22 L 395.09 345.49 L 394.76 344.69 L 394.41 343.90 L 394.16 343.15 L 393.89 342.31 L 393.56 341.62 L 393.21 340.86 L 392.96 340.09 L 392.68 339.26 L 392.35 338.55 L 392.14 337.75 L 391.75 337.02 L 391.39 336.20 L 391.15 335.48 L 390.91 334.74 L 390.54 333.94 L 390.19 333.11 L 389.93 332.41 L 389.62 331.58 L 389.32 330.87 L 389.00 330.02 L 388.71 329.32 L 388.47 328.62 L 388.09 327.78 L 387.78 327.07 L 387.47 326.23 L 387.15 325.41 L 386.85 324.69 L 386.50 323.86 L 386.23 323.14 L 385.91 322.40 L 385.61 321.59 L 385.33 320.78 L 384.98 320.04 L 384.62 319.29 L 384.36 318.49 L 383.96 317.63 L 383.74 316.95 L 383.40 316.09 L 383.11 315.40" fill="none" stroke="black" stroke-width="1"/>
  <path d="M 377.07 306.25 L 379.10 310.42 L 381.07 314.37 L 383.11 318.56" fill="none" stroke="black" stroke-width="1"/>
  <path d="M 383.21 318.54 L 385.29 323.67 L 387.23 328.76 L 389.23 333.90" fill="none" stroke="black" stroke-width="1"/>
  <path d="M 393.40 333.71 L 391.16 327.92" fill="none" stroke="black" stroke-width="1"/>
  <path d="M 387.91 334.11 L 390.65 339.59" fill="none" stroke="black" stroke-width="1"/>
  <path d="M 392.33 343.11 L 390.26 338.97 L 388.38 334.97 L 386.28 330.79" fill="none" stroke="black" stroke-width="1"/>
  <path d="M 387.20 330.56 L 384.93 324.72" fill="none" stroke="black" stroke-width="1"/>
  <path d="M 378.39 324.90 L 375.49 330.23" fill="none" stroke="black" stroke-width="1"/>
  <path d="M 377.02 330.80 L 378.01 326.64 L 379.10 322.61 L 380.03 318.51" fill="none" stroke="black" stroke-width="1"/>
  <path d="M 382.34 321.60 L 384.02 327.60" fill="none" stroke="black" stroke-width="1"/>
  <path d="M 387.35 327.50 L 385.06 321.83" fill="none" stroke="black" stroke-width="1"/>
  <path d="M 388.40 318.75 L 390.25 324.60" fill="none" stroke="black" stroke-width="1"/>
  <path d="M 389.34 324.58 L 391.46 329.67 L 393.37 334.88 L 395.53 340.05" fill="none" stroke="black" stroke-width="1"/>
  <path d="M 404.68 343.09 L 395.45 373.86" fill="none" stroke="black" stroke-width="1"/>
  <path d="M 373.91 386.16 L 352.37 389.24" fill="none" stroke="black" stroke-width="1"/>
  <path d="M 330.60 403.44 L 324.92 405.81" fill="none" stroke="black" stroke-width="1"/>
  <path d="M 318.55 457.31 L 324.66 456.55" fill="none" stroke="black" stroke-width="1"/>
  <path d="M 312.37 420.01 L 250.84 426.16" fill="none" stroke="black" stroke-width="1"/>
  <path d="M 253.92 416.93 L 309.30 413.85" fill="none" stroke="black" stroke-width="1"/>
  <path d="M 303.14 401.55 L 281.61 404.62" fill="none" stroke="black" stroke-width="1"/>
  <path d="M 313.91 373.86 L 312.37 372.32 L 310.84 373.86 L 312.37 375.40 L 313.91 373.86" fill="none" stroke="black" stroke-width="1"/>
  <path d="M 227.67 314.82 L 230.99 309.68" fill="none" stroke="black" stroke-width="1"/>
  <path d="M 189.30 220.02 L 185.51 220.27 L 181.79 220.50 L 178.13 220.72 L 174.49 220.93 L 170.85 221.15 L 167.19 221.37 L 163.47 221.60 L 159.68 221.84 L 155.77 222.11 L 151.73 222.40 L 147.54 222.73 L 143.15 223.10 L 138.56 223.50 L 133.79 223.94 L 128.85 224.42 L 123.78 224.92 L 118.60 225.44 L 113.35 225.98 L 108.04 226.53 L 102.70 227.08 L 97.36 227.64 L 92.05 228.19 L 86.79 228.73 L 81.62 229.25 L 76.49 229.76 L 71.36 230.27 L 66.23 230.79 L 61.11 231.30 L 55.98 231.81 L 50.85 232.33 L 45.72 232.84 L 40.59 233.35 L 35.47 233.86 L 30.34 234.38 L 25.21 234.89 L 20.08 235.40" fill="none" stroke="black" stroke-width="1"/>
  <path d="M 50.85 189.25 L 97.00 183.10" fill="none" stroke="black" stroke-width="1"/>
  <path d="M 89.31 158.48 L 87.77 156.95 L 86.23 158.48 L 87.77 160.02 L 89.31 158.48" fill="none" stroke="black" stroke-width="1"/>
  <path d="M 69.21 105.71 L 63.10 106.60" fill="none" stroke="black" stroke-width="1"/>
  <path d="M 35.47 127.72 L 38.81 127.46 L 42.17 127.20 L 45.54 126.95 L 48.91 126.69 L 52.29 126.43 L 55.66 126.18 L 59.02 125.92 L 62.36 125.66 L 65.68 125.41 L 68.98 125.15 L 72.24 124.90 L 75.46 124.64 L 78.67 124.38 L 81.87 124.13 L 85.05 123.87 L 88.23 123.61 L 91.38 123.36 L 94.50 123.10 L 97.59 122.84 L 100.65 122.59 L 103.66 122.33 L 106.62 122.08 L 109.53 121.82 L 112.38 121.56 L 115.16 121.31 L 117.87 121.05 L 120.51 120.79 L 123.10 120.54 L 125.64 120.28 L 128.15 120.02 L 130.64 119.77 L 133.12 119.51 L 135.60 119.26 L 138.10 119.00 L 140.61 118.74 L 143.15 118.49" fill="none" stroke="black" stroke-width="1"/>
  <path d="M 173.92 143.10 L 177.72 142.84 L 181.43 142.59 L 185.10 142.33 L 188.73 142.07 L 192.37 141.82 L 196.03 141.56 L 199.75 141.31 L 203.55 141.05 L 207.45 140.79 L 211.49 140.54 L 215.69 140.28 L 220.07 140.02 L 224.66 139.77 L 229.44 139.51 L 234.37 139.25 L 239.44 139.00 L 244.62 138.74 L 249.88 138.48 L 255.19 138.23 L 260.53 137.97 L 265.86 137.72 L 271.17 137.46 L 276.43 137.20 L 281.61 136.95" fill="none" stroke="black" stroke-width="1"/>
  <path d="M 261.61 167.71 L 260.07 166.18 L 258.53 167.71 L 260.07 169.25 L 261.61 167.71" fill="none" stroke="black" stroke-width="1"/>
  <path d="M 266.22 198.48 L 204.69 204.64" fill="none" stroke="black" stroke-width="1"/>
  <path d="M 239.00 120.00 L 244.33 116.87" fill="none" stroke="black" stroke-width="1"/>
  <path d="M 192.21 111.38 L 186.36 113.37" fill="none" stroke="black" stroke-width="1"/>
  <path d="M 109.27 96.58 L 103.10 97.13" fill="none" stroke="black" stroke-width="1"/>
  <path d="M 81.60 66.12 L 83.50 66.27 L 85.28 66.51 L 87.08 66.71 L 88.94 67.01 L 90.67 67.34 L 92.58 67.56 L 94.33 67.89 L 96.22 68.14 L 98.06 68.49 L 99.86 68.68 L 101.76 68.88 L 103.53 69.15 L 105.46 69.27 L 107.21 69.49 L 109.13 69.55 L 110.94 69.66 L 112.80 69.55 L 114.70 69.61 L 116.64 69.43 L 118.52 69.30 L 120.44 69.06 L 122.40 68.69 L 124.43 68.21 L 126.34 67.82 L 128.29 67.34 L 130.31 66.73 L 132.30 66.18 L 134.33 65.47 L 136.43 64.70 L 138.37 64.08 L 140.38 63.38 L 142.42 62.62 L 144.44 61.86 L 146.48 61.13 L 148.46 60.36 L 150.54 59.65 L 152.47 59.03 L 154.58 58.24 L 156.54 57.66 L 158.60 56.93" fill="none" stroke="black" stroke-width="1"/>
  <path d="M 127.70 35.42 L 126.25 35.80 L 124.67 36.08 L 123.19 36.38 L 121.70 36.80 L 120.20 37.11 L 118.76 37.56 L 117.25 37.98 L 115.84 38.33 L 114.29 38.76 L 112.90 39.09 L 111.40 39.50 L 109.91 39.79 L 108.32 40.13 L 106.84 40.42 L 105.23 40.71 L 103.68 40.96 L 102.01 41.20 L 100.39 41.36 L 98.59 41.51 L 96.94 41.60 L 95.06 41.58 L 93.31 41.63 L 91.46 41.54 L 89.49 41.44 L 87.53 41.20 L 85.54 41.08 L 83.46 40.76 L 81.48 40.61 L 79.49 40.31 L 77.36 40.09 L 75.25 39.89 L 73.21 39.56 L 71.19 39.38 L 69.06 39.09 L 67.07 38.91 L 64.95 38.73 L 62.98 38.68 L 60.92 38.53 L 58.92 38.45 L 57.01 38.55 L 55.12 38.73 L 53.20 38.78 L 51.40 38.95 L 49.44 39.17 L 47.62 39.44 L 45.72 39.69 L 43.88 40.06 L 42.04 40.30 L 40.19 40.74 L 38.38 40.99 L 36.59 41.29 L 34.73 41.72 L 32.92 42.09 L 31.09 42.47 L 29.34 42.90 L 27.45 43.21 L 25.60 43.53 L 23.80 43.92 L 21.98 44.27 L 20.12 44.56" fill="none" stroke="black" stroke-width="1"/>
  <path d="M 20.00 87.76 L 24.67 87.51 L 29.23 87.10 L 33.92 86.76 L 38.47 86.37 L 43.06 86.07 L 47.70 85.60 L 52.35 85.19 L 56.93 84.82 L 61.63 84.49 L 66.16 84.07 L 70.83 83.77 L 75.40 83.36 L 80.06 83.06 L 84.63 82.72 L 89.24 82.51 L 93.86 82.19 L 98.43 81.93 L 103.10 81.79 L 107.76 81.59 L 112.33 81.54 L 116.96 81.58 L 121.71 81.52 L 126.44 81.62 L 131.30 81.73 L 136.20 81.97 L 141.01 82.10 L 145.98 82.41 L 150.76 82.58 L 155.62 82.80 L 160.45 83.13 L 165.17 83.45 L 169.98 83.67 L 174.67 83.92 L 179.27 84.15 L 183.76 84.39 L 188.21 84.52 L 192.44 84.64 L 196.72 84.73 L 200.68 84.65 L 204.71 84.70 L 208.52 84.56 L 212.17 84.44 L 215.78 84.16 L 219.22 84.00 L 222.52 83.62 L 225.90 83.42 L 229.15 83.08 L 232.25 82.72 L 235.21 82.27 L 238.32 81.96 L 241.20 81.63 L 244.16 81.17 L 247.08 80.73 L 249.82 80.38 L 252.52 79.96 L 255.35 79.64 L 258.06 79.24 L 260.78 78.98 L 263.45 78.71 L 266.17 78.44 L 268.88 78.17 L 271.42 78.00 L 273.88 77.86 L 276.40 77.61 L 278.79 77.46 L 281.17 77.27 L 283.48 77.17 L 285.78 76.96 L 288.10 76.89 L 290.26 76.68 L 292.49 76.55 L 294.67 76.42 L 296.84 76.37 L 299.04 76.16 L 301.23 75.98 L 303.44 75.90 L 305.68 75.73 L 307.89 75.62 L 310.08 75.48 L 312.45 75.32" fill="none" stroke="black" stroke-width="1"/>
  <path d="M 327.70 72.25 L 326.49 72.10 L 325.23 71.95 L 324.07 71.85 L 322.74 71.64 L 321.55 71.56 L 320.24 71.34 L 319.04 71.17 L 317.74 71.04 L 316.50 70.97 L 315.24 70.73 L 314.05 70.59 L 312.76 70.43 L 311.47 70.20 L 310.30 70.12 L 309.18 70.01 L 307.87 69.82 L 306.74 69.73 L 305.49 69.51 L 304.35 69.43 L 303.15 69.21 L 301.97 69.04 L 300.88 68.90 L 299.72 68.69 L 298.65 68.60 L 297.63 68.53 L 296.46 68.29 L 295.31 68.21 L 294.31 67.98 L 293.32 67.86 L 292.18 67.67 L 291.10 67.59 L 290.07 67.37 L 288.97 67.16 L 287.96 67.06 L 286.87 66.93 L 285.85 66.75 L 284.78 66.54 L 283.72 66.44 L 282.68 66.32 L 281.58 66.13" fill="none" stroke="black" stroke-width="1"/>
  <path d="M 296.91 87.69 L 302.45 87.16 L 307.94 86.53 L 313.49 85.78 L 319.12 85.17 L 324.59 84.51 L 330.11 84.06 L 335.80 83.30 L 341.20 82.67 L 346.75 82.21 L 352.38 81.51" fill="none" stroke="black" stroke-width="1"/>
  <path d="M 359.28 90.81 L 357.85 84.75" fill="none" stroke="black" stroke-width="1"/>
  <path d="M 352.33 84.75 L 346.33 84.44" fill="none" stroke="black" stroke-width="1"/>
  <path d="M 343.51 79.76 L 348.98 76.99" fill="none" stroke="black" stroke-width="1"/>
  <path d="M 344.28 72.78 L 341.51 78.10" fill="none" stroke="black" stroke-width="1"/>
  <path d="M 340.41 73.81 L 345.72 70.66" fill="none" stroke="black" stroke-width="1"/>
  <path d="M 346.26 72.31 L 343.13 69.30 L 340.17 66.21 L 337.01 63.05" fill="none" stroke="black" stroke-width="1"/>
  <path d="M 336.99 66.18 L 324.68 53.87" fill="none" stroke="black" stroke-width="1"/>
  <path d="M 352.31 60.04 L 353.29 65.23 L 354.43 70.29 L 355.39 75.38" fill="none" stroke="black" stroke-width="1"/>
  <path d="M 359.08 72.37 L 358.09 66.14" fill="none" stroke="black" stroke-width="1"/>
  <path d="M 358.32 63.32 L 356.13 63.71 L 353.31 64.61 L 351.12 65.07 L 348.48 65.78 L 346.30 66.27" fill="none" stroke="black" stroke-width="1"/>
  <path d="M 346.79 67.49 L 351.69 71.42" fill="none" stroke="black" stroke-width="1"/>
  <path d="M 349.87 70.35 L 354.67 74.34" fill="none" stroke="black" stroke-width="1"/>
  <path d="M 352.42 75.40 L 348.30 77.34 L 344.16 79.47 L 340.05 81.49" fill="none" stroke="black" stroke-width="1"/>
  <path d="M 340.06 81.53 L 340.62 82.11 L 341.24 82.80 L 341.86 83.39 L 342.36 84.13 L 342.85 84.85 L 343.44 85.50 L 344.02 86.20 L 344.52 86.88 L 345.08 87.55 L 345.61 88.24 L 346.19 88.91 L 346.74 89.55 L 347.37 90.13 L 347.96 90.79 L 348.59 91.39 L 349.27 91.94 L 349.91 92.49 L 350.72 92.95 L 351.60 93.46 L 352.32 93.81 L 353.24 94.14 L 354.11 94.50 L 355.13 94.81 L 356.05 95.03 L 357.04 95.21 L 358.12 95.43 L 359.13 95.64 L 360.30 95.73 L 361.39 95.79 L 362.55 95.96 L 363.65 96.01 L 364.84 96.15 L 365.92 96.31 L 367.16 96.32 L 368.32 96.43 L 369.46 96.49 L 370.55 96.65 L 371.73 96.71 L 372.78 96.81 L 373.94 96.98" fill="none" stroke="black" stroke-width="1"/>
  <path d="M 373.96 96.95 L 373.48 96.18 L 373.05 95.37 L 372.62 94.55 L 372.16 93.72 L 371.77 92.87 L 371.29 92.03 L 370.89 91.09 L 370.42 90.33 L 369.93 89.53 L 369.54 88.65 L 369.13 87.88 L 368.64 87.01 L 368.11 86.30 L 367.72 85.46 L 367.33 84.71 L 366.77 84.00 L 366.31 83.26 L 365.77 82.67 L 365.19 82.06 L 364.72 81.51 L 364.15 81.02 L 363.61 80.52 L 363.05 80.05 L 362.44 79.69 L 361.92 79.36 L 361.23 78.98 L 360.68 78.75 L 359.98 78.39 L 359.34 78.10 L 358.71 77.86 L 358.11 77.65 L 357.43 77.39 L 356.70 77.21 L 356.14 76.93 L 355.49 76.64 L 354.85 76.46 L 354.29 76.25 L 353.57 75.96 L 353.03 75.69 L 352.31 75.39" fill="none" stroke="black" stroke-width="1"/>
  <path d="M 352.40 75.46 L 349.31 72.40 L 346.13 69.32" fill="none" stroke="black" stroke-width="1"/>
  <path d="M 346.16 69.28 L 344.19 73.38 L 342.15 77.50 L 340.16 81.62" fill="none" stroke="black" stroke-width="1"/>
  <path d="M 339.83 78.41 L 338.04 76.50 L 336.04 74.11 L 333.96 72.10" fill="none" stroke="black" stroke-width="1"/>
  <path d="M 327.76 75.41 L 315.45 69.26" fill="none" stroke="black" stroke-width="1"/>
  <path d="M 235.49 26.11 L 233.64 26.22 L 231.80 26.47 L 229.99 26.68 L 228.13 26.90 L 226.29 27.21 L 224.47 27.36 L 222.64 27.60 L 220.82 27.84 L 218.91 28.11 L 217.16 28.29 L 215.33 28.44 L 213.48 28.70 L 211.59 28.85 L 209.78 29.04 L 207.92 29.13 L 206.05 29.27 L 204.21 29.38 L 202.28 29.36 L 200.37 29.32 L 198.45 29.30 L 196.48 29.19 L 194.60 29.05 L 192.61 28.85 L 190.74 28.61 L 188.75 28.36 L 186.87 28.03 L 185.00 27.60 L 182.97 27.34 L 181.08 27.01 L 179.03 26.58 L 177.07 26.17 L 175.05 25.79 L 173.03 25.48 L 171.02 25.01 L 168.90 24.66 L 166.91 24.27 L 164.76 23.97 L 162.74 23.62 L 160.52 23.35 L 158.48 23.08 L 156.25 22.89 L 154.12 22.64 L 151.95 22.46 L 149.65 22.26 L 147.31 22.11 L 145.10 21.92 L 142.87 21.76 L 140.48 21.62 L 138.21 21.48 L 135.81 21.34 L 133.42 21.18 L 131.11 21.08 L 128.68 21.03 L 126.40 20.82 L 124.07 20.64 L 121.70 20.57 L 119.33 20.47 L 117.01 20.29 L 114.61 20.13 L 112.38 20.00" fill="none" stroke="black" stroke-width="1"/>
</svg>