<svg xmlns="http://www.w3.org/2000/svg" width="800" height="600" viewBox="0 0 800 600">
  <rect width="100%" height="100%" fill="white"/>
  <path d="M 108.16 464.81 L 111.65 459.51" fill="none" stroke="black" stroke-width="1"/>
  <path d="M 140.85 493.16 L 138.27 488.00 L 135.69 482.84 L 133.11 477.68 L 130.53 472.53 L 127.95 467.37 L 125.37 462.21 L 122.80 457.05 L 120.22 451.90 L 117.64 446.74 L 115.06 441.58 L 112.48 436.42 L 109.90 431.27 L 107.32 426.11 L 104.74 420.95 L 102.16 415.79 L 99.59 410.63 L 97.01 405.48 L 94.43 400.32 L 91.85 395.16 L 89.27 390.00 L 86.69 384.85 L 84.11 379.69 L 81.53 374.53 L 78.96 369.37" fill="none" stroke="black" stroke-width="1"/>
  <path d="M 114.01 398.03 L 118.17 402.61" fill="none" stroke="black" stroke-width="1"/>
  <path d="M 122.87 413.97 L 127.87 417.62" fill="none" stroke="black" stroke-width="1"/>
  <path d="M 131.97 408.04 L 137.35 404.98" fill="none" stroke="black" stroke-width="1"/>
  <path d="M 202.74 369.37 L 198.77 373.14 L 194.64 376.75 L 190.41 380.25 L 186.12 383.70 L 181.83 387.15 L 177.60 390.65 L 173.47 394.26 L 169.50 398.03 L 165.75 402.01 L 162.27 406.26 L 159.10 410.84 L 156.32 415.79 L 153.95 421.16 L 151.95 426.90 L 150.28 432.96 L 148.87 439.29 L 147.68 445.83 L 146.65 452.54 L 145.73 459.35 L 144.86 466.22 L 143.99 473.09 L 143.07 479.90 L 142.04 486.61 L 140.85 493.16" fill="none" stroke="black" stroke-width="1"/>
  <path d="M 335.74 425.72 L 329.69 424.43" fill="none" stroke="black" stroke-width="1"/>
  <path d="M 338.91 446.53 L 345.08 446.95" fill="none" stroke="black" stroke-width="1"/>
  <path d="M 348.25 431.90 L 354.31 430.63" fill="none" stroke="black" stroke-width="1"/>
  <path d="M 478.20 478.05 L 484.29 477.12" fill="none" stroke="black" stroke-width="1"/>
  <path d="M 509.50 392.62 L 514.90 395.64" fill="none" stroke="black" stroke-width="1"/>
  <path d="M 524.58 384.87 L 530.77 384.83" fill="none" stroke="black" stroke-width="1"/>
  <path d="M 586.97 432.92 L 592.07 429.75" fill="none" stroke="black" stroke-width="1"/>
  <path d="M 620.51 369.37 L 616.59 371.90 L 612.59 374.35 L 608.54 376.75 L 604.46 379.12 L 600.38 381.48 L 596.33 383.88 L 592.33 386.33 L 588.42 388.86 L 584.61 391.49 L 580.93 394.27 L 577.42 397.20 L 574.09 400.32 L 570.97 403.65 L 568.04 407.16 L 565.27 410.84 L 562.63 414.65 L 560.10 418.56 L 557.65 422.56 L 555.26 426.61 L 552.89 430.69 L 550.52 434.77 L 548.12 438.82 L 545.67 442.82 L 543.14 446.74" fill="none" stroke="black" stroke-width="1"/>
  <path d="M 543.14 446.74 L 539.23 444.21 L 535.23 441.76 L 531.18 439.36 L 527.10 437.00 L 523.02 434.63 L 518.97 432.23 L 514.97 429.78 L 511.05 427.25 L 507.24 424.62 L 503.57 421.85 L 500.05 418.91 L 496.73 415.79 L 493.60 412.47 L 490.67 408.95 L 487.90 405.28 L 485.26 401.47 L 482.73 397.55 L 480.29 393.55 L 477.89 389.50 L 475.52 385.42 L 473.15 381.34 L 470.76 377.29 L 468.31 373.29 L 465.78 369.37" fill="none" stroke="black" stroke-width="1"/>
  <path d="M 450.31 369.37 L 446.44 377.21 L 442.57 385.20 L 438.70 393.31 L 434.83 401.47 L 430.97 409.62 L 427.10 417.73 L 423.23 425.72 L 419.36 433.56 L 415.49 441.18 L 411.62 448.53 L 407.76 455.56 L 403.89 462.21 L 400.02 468.45 L 396.15 474.32 L 392.28 479.86 L 388.41 485.13 L 384.55 490.19 L 380.68 495.09 L 376.81 499.88 L 372.94 504.62 L 369.07 509.36 L 365.21 514.15 L 361.34 519.04 L 357.47 524.10" fill="none" stroke="black" stroke-width="1"/>
  <path d="M 357.47 524.10 L 352.31 520.43 L 347.15 517.08 L 342.00 513.95 L 336.84 510.92 L 331.68 507.90 L 326.52 504.76 L 321.37 501.41 L 316.21 497.74 L 311.05 493.64 L 305.89 489.00 L 300.73 483.72 L 295.58 477.68 L 290.42 470.83 L 285.26 463.21 L 280.10 454.96 L 274.95 446.17 L 269.79 436.94 L 264.63 427.40 L 259.47 417.64 L 254.32 407.77 L 249.16 397.90 L 244.00 388.14 L 238.84 378.60 L 233.68 369.37" fill="none" stroke="black" stroke-width="1"/>
  <path d="M 267.70 230.08 L 261.46 230.07" fill="none" stroke="black" stroke-width="1"/>
  <path d="M 304.66 177.72 L 307.33 178.49 L 309.67 179.57 L 312.56 180.78 L 314.98 181.38 L 317.52 182.46 L 320.27 183.45" fill="none" stroke="black" stroke-width="1"/>
  <path d="M 320.38 183.57 L 318.08 181.68 L 316.14 179.85 L 313.77 178.33 L 311.65 176.23 L 309.29 174.47 L 307.45 172.80 L 305.06 171.15" fill="none" stroke="black" stroke-width="1"/>
  <path d="M 310.95 168.44 L 309.03 170.91 L 307.49 173.55 L 305.85 176.02 L 303.88 178.47 L 302.43 181.09 L 300.35 183.44 L 298.58 185.93 L 297.11 188.42 L 295.01 190.99 L 293.60 193.62 L 291.78 196.06 L 289.98 198.21 L 288.06 200.68 L 286.35 203.57 L 284.89 206.11 L 283.05 208.22 L 281.47 210.90 L 279.59 213.31 L 277.60 215.78 L 276.05 218.59 L 274.39 220.63 L 272.36 223.14 L 270.78 225.83 L 269.20 228.49 L 267.47 230.66 L 265.55 233.61 L 263.83 235.74 L 262.23 238.71 L 260.15 241.24 L 258.58 243.80 L 256.71 245.88 L 255.02 248.66 L 253.32 251.16 L 251.54 253.93 L 249.70 256.11 L 247.80 258.95 L 246.42 261.52 L 244.53 263.84 L 242.91 266.46 L 240.81 268.87 L 239.42 271.31 L 237.42 274.00 L 235.74 276.70 L 234.03 278.84 L 232.27 281.76 L 230.31 284.31 L 228.77 286.77 L 226.71 289.09 L 225.16 291.71 L 223.31 294.39 L 221.51 296.41 L 219.88 299.09 L 218.10 301.76 L 216.58 304.10 L 214.70 306.38 L 212.97 308.79 L 211.70 311.48 L 209.99 314.00 L 208.11 316.38 L 206.58 319.10 L 204.51 321.52 L 203.12 323.70 L 201.02 326.31 L 199.68 328.69 L 198.06 331.40 L 196.37 333.97 L 194.29 336.14 L 192.89 338.73 L 190.92 341.24 L 189.52 343.69 L 187.38 346.20 L 185.86 348.37 L 184.37 351.17 L 182.54 353.59 L 180.64 356.09 L 179.27 358.51 L 177.37 360.98 L 175.61 363.30 L 173.82 366.09 L 172.26 368.55 L 170.58 370.86 L 168.81 373.56 L 166.92 375.77 L 165.49 378.40 L 163.42 380.93 L 161.73 383.27 L 160.29 385.92 L 158.27 388.57 L 156.40 390.88 L 154.81 393.76 L 153.08 396.04 L 151.35 398.54 L 149.46 401.20 L 147.94 403.60 L 146.13 406.02 L 144.75 408.77 L 142.88 410.85 L 141.11 413.63 L 139.37 416.28 L 137.54 418.58 L 135.98 421.13 L 134.12 423.55 L 132.51 426.05 L 130.66 428.56 L 128.99 431.06 L 127.09 433.84 L 125.28 436.40 L 123.49 438.50 L 121.77 441.25 L 119.83 443.87 L 118.16 446.44 L 116.34 449.02 L 114.90 451.17 L 113.15 453.89 L 111.38 456.24 L 109.71 459.07 L 107.52 461.70 L 106.20 464.24 L 104.28 466.30 L 102.19 469.00 L 100.52 471.45 L 98.66 474.01 L 97.35 476.56 L 95.20 479.23 L 93.72 481.70 L 92.00 484.19 L 90.28 487.05 L 88.31 489.34 L 86.79 491.92 L 84.88 494.22 L 83.16 496.70 L 81.31 498.92 L 79.83 501.60 L 78.13 504.15 L 76.06 506.44 L 74.32 508.70 L 72.54 511.10 L 70.91 513.71 L 69.12 516.04 L 67.51 518.82 L 65.67 521.02 L 63.94 523.55 L 62.45 525.99 L 60.69 528.64 L 58.65 530.95 L 57.11 533.42 L 55.35 535.92 L 53.57 538.24 L 51.69 540.72 L 50.01 542.91 L 48.03 545.81 L 46.00 548.17 L 44.29 550.41 L 42.63 552.82 L 40.52 555.39 L 39.07 557.82 L 36.83 560.39 L 35.24 562.98 L 33.30 565.04 L 31.65 567.82 L 29.71 570.15 L 27.59 572.07 L 26.07 574.04 L 23.98 576.10 L 21.96 577.98 L 20.00 579.98 L 21.18 577.34 L 21.97 574.89 L 23.34 571.97 L 24.56 569.54 L 25.45 566.88 L 26.60 564.33 L 28.12 561.39 L 29.66 559.17 L 30.87 556.49 L 32.47 553.68 L 33.86 550.73 L 35.59 547.98 L 36.80 545.50 L 38.46 542.57 L 40.02 540.11 L 41.59 537.17 L 43.07 534.57 L 44.37 531.83 L 45.81 529.11 L 47.35 526.60 L 48.76 523.81 L 50.44 521.57 L 51.63 518.61 L 53.26 516.37 L 55.02 513.70 L 56.34 510.72 L 57.72 508.17 L 59.19 505.64 L 61.11 503.27 L 62.66 500.70 L 63.87 497.96 L 65.56 495.53 L 66.85 492.69 L 68.44 490.34 L 69.71 487.56 L 71.41 484.86 L 73.01 482.22 L 74.38 479.80 L 75.77 477.13 L 77.40 474.29 L 78.98 471.89 L 80.71 469.11 L 82.36 466.39 L 83.59 463.84 L 85.23 460.99 L 86.59 458.54 L 88.25 455.85 L 89.83 453.37 L 91.72 450.36 L 93.02 447.84 L 94.46 445.47 L 96.18 442.75 L 97.94 439.73 L 99.14 437.37 L 101.12 434.68 L 102.43 432.08 L 104.15 429.50 L 105.82 426.37 L 107.46 423.88 L 108.89 421.38 L 110.56 418.38 L 112.05 415.87 L 113.50 413.32 L 115.14 410.65 L 116.71 408.18 L 118.22 405.29 L 119.56 402.82 L 121.17 400.20 L 122.66 397.48 L 124.70 394.85 L 126.05 392.03 L 127.54 389.50 L 129.26 386.85 L 130.62 384.42 L 132.33 381.86 L 133.85 378.88 L 135.28 376.46 L 136.97 373.82 L 138.70 371.07 L 140.14 368.39 L 141.51 366.08 L 143.02 363.57 L 144.62 360.70 L 146.27 357.91 L 147.71 355.24 L 149.52 352.67 L 150.73 350.46 L 152.58 347.55 L 153.91 344.99 L 155.68 342.46 L 157.18 339.77 L 158.63 337.17 L 160.14 334.39 L 161.82 331.89 L 163.36 329.15 L 164.97 326.52 L 166.31 324.12 L 168.05 321.76 L 169.72 318.70 L 171.27 316.37 L 172.45 313.54 L 173.94 310.96 L 175.53 308.41 L 177.16 306.03 L 178.77 303.40 L 180.41 300.86 L 181.74 298.06 L 183.40 295.41 L 184.83 293.07 L 186.66 290.32 L 187.94 287.74 L 189.76 285.33 L 190.87 282.78 L 192.55 280.09 L 194.37 277.49 L 195.82 274.82 L 197.29 272.18 L 198.63 269.55 L 200.45 267.06 L 201.66 264.64 L 203.54 262.12 L 204.76 259.62 L 206.50 256.80 L 208.32 254.10 L 209.77 251.37 L 211.14 248.61 L 212.88 246.08 L 214.40 243.65 L 216.07 240.81 L 217.42 238.31 L 219.07 235.72 L 220.87 232.95 L 222.18 230.21 L 223.68 227.37 L 225.26 224.74 L 227.09 222.06 L 228.74 219.62 L 230.15 217.09 L 231.53 214.42 L 233.45 211.53 L 234.86 209.19 L 236.56 206.50 L 238.22 203.50 L 239.36 201.17 L 241.15 198.57 L 242.79 195.93 L 244.14 193.17 L 245.69 190.29 L 247.25 187.68 L 249.01 185.10 L 250.51 182.35 L 251.86 179.71 L 253.81 177.14 L 255.35 174.74 L 256.89 171.86 L 258.12 169.09 L 259.64 166.88 L 261.43 164.05 L 263.11 161.63 L 264.68 158.61 L 265.96 156.20 L 267.64 153.30 L 268.89 150.67 L 270.77 147.99 L 272.21 145.50 L 273.52 143.00 L 275.15 140.42 L 276.85 137.47 L 278.21 135.15 L 279.78 132.33 L 281.42 129.74 L 282.93 126.92 L 284.31 124.47 L 286.08 121.89" fill="none" stroke="black" stroke-width="1"/>
  <path d="M 286.05 121.61 L 284.27 123.97 L 282.91 126.49 L 280.90 129.06 L 279.53 132.00 L 277.78 134.15 L 276.21 136.70 L 274.75 139.60 L 272.72 141.93 L 271.18 144.73 L 269.54 146.96 L 267.80 149.83 L 266.48 152.46 L 264.43 154.69 L 262.88 157.38 L 261.51 159.70 L 259.52 162.33 L 258.07 165.20 L 256.51 167.60 L 254.57 170.01 L 253.24 172.53 L 251.58 174.99 L 249.84 177.74 L 248.16 180.53 L 246.59 182.83 L 244.94 185.72 L 243.31 188.25 L 241.59 190.61 L 239.72 193.40 L 238.07 195.93 L 236.68 198.17 L 235.12 201.07 L 233.22 203.69 L 231.41 206.23 L 230.05 208.59 L 228.12 211.39 L 226.66 213.90 L 225.05 216.29 L 223.35 218.97 L 221.43 221.56 L 219.83 224.14 L 218.40 226.63 L 216.46 229.06 L 214.88 231.96 L 213.18 234.53 L 211.83 237.11 L 209.79 239.79 L 208.31 242.20 L 206.75 244.83 L 205.13 247.29 L 203.26 249.51 L 201.83 252.22 L 200.13 254.97 L 198.60 257.35 L 196.76 259.86 L 195.23 262.18 L 194.01 264.79 L 192.39 267.25 L 190.72 269.61 L 189.15 272.43 L 187.13 274.69 L 185.53 277.38 L 184.19 279.63 L 182.28 282.25 L 180.75 284.69 L 178.99 287.32 L 177.61 290.04 L 176.20 292.42 L 174.48 295.03 L 172.83 297.38 L 171.08 300.12 L 169.32 302.53 L 168.04 305.11 L 166.52 307.60 L 164.66 309.98 L 162.90 312.32 L 161.25 315.10 L 159.73 317.47 L 158.33 320.34 L 156.71 322.72 L 154.85 325.48 L 153.39 327.83 L 151.34 330.13 L 150.04 333.05 L 148.16 335.63 L 146.81 337.89 L 145.19 340.48 L 143.44 342.85 L 141.90 345.67 L 140.13 348.02 L 138.42 350.52 L 136.79 353.07 L 135.34 355.75 L 133.29 358.50 L 131.97 360.95 L 130.48 363.35 L 128.73 365.76 L 127.04 368.54 L 125.37 371.04 L 123.93 373.37 L 122.07 376.09 L 120.24 378.88 L 118.58 381.47 L 116.83 384.08 L 115.28 386.35 L 113.71 388.97 L 112.03 391.69 L 110.63 394.00 L 108.68 397.01 L 106.98 399.56 L 105.57 401.83 L 103.66 404.71 L 102.13 407.06 L 100.35 409.48 L 98.87 412.24 L 97.31 414.76 L 95.58 417.38 L 93.78 420.27 L 91.87 422.74 L 90.16 425.36 L 88.64 427.68 L 87.23 430.27 L 85.36 433.07 L 83.73 435.56 L 82.29 438.02 L 80.44 440.44 L 78.99 443.11 L 77.15 445.87 L 75.84 448.15 L 73.91 450.71 L 72.39 453.01 L 70.69 455.84 L 69.24 458.30 L 67.24 460.82 L 65.98 463.39 L 64.43 466.01 L 62.83 468.24 L 61.15 470.71 L 59.25 473.09 L 57.84 475.94 L 56.30 478.29 L 54.24 480.91 L 52.85 483.38 L 51.25 485.64 L 49.72 488.15 L 48.02 490.43 L 46.75 493.12 L 44.84 495.51 L 43.75 497.94 L 41.73 500.22 L 40.43 502.50 L 38.65 504.95 L 37.34 507.41 L 35.48 509.88 L 34.38 512.32 L 32.60 514.57 L 30.96 517.18 L 29.60 519.19 L 27.66 521.99 L 26.18 524.14 L 27.69 521.77 L 29.27 519.24 L 30.89 516.37 L 32.30 513.92 L 34.17 511.25 L 35.72 508.77 L 37.25 506.16 L 38.79 504.06 L 40.45 501.36 L 42.16 499.09 L 43.53 496.58 L 45.07 494.02 L 46.54 491.66 L 48.41 488.92 L 49.66 486.57 L 51.28 483.93 L 52.67 481.49 L 54.64 479.05 L 55.85 476.89 L 57.33 474.06 L 59.09 471.77 L 60.91 469.24 L 62.22 466.42 L 64.15 463.93 L 65.77 461.52 L 67.10 458.84 L 68.75 456.48 L 70.47 454.04 L 72.16 451.38 L 73.54 448.93 L 75.33 446.10 L 77.15 443.86 L 78.65 441.28 L 79.97 438.55 L 81.60 436.16 L 83.49 433.26 L 84.88 430.76 L 86.61 428.52 L 88.37 425.87 L 90.01 423.42 L 91.70 420.83 L 93.10 418.15 L 94.86 415.47 L 96.37 413.15 L 98.28 410.39 L 99.87 407.92 L 101.26 404.95 L 103.10 402.64 L 104.56 399.81 L 106.56 397.03 L 107.80 394.77 L 109.62 392.00 L 111.28 389.60 L 112.98 386.71 L 114.46 384.18 L 116.37 381.42 L 117.87 378.88 L 119.80 376.41 L 121.16 373.80 L 122.78 371.34 L 124.47 368.53 L 126.31 365.80 L 128.03 363.19 L 129.64 360.84 L 131.03 358.23 L 132.94 355.40 L 134.56 352.88 L 136.28 350.45 L 137.72 347.76 L 139.60 345.25 L 141.22 342.57 L 142.90 339.81 L 144.14 337.43 L 145.91 334.87 L 147.77 332.22 L 149.36 329.93 L 150.88 327.14 L 152.51 324.82 L 154.04 321.94 L 155.82 319.31 L 157.36 316.69 L 158.82 314.30 L 160.65 311.86 L 162.49 308.99 L 164.16 306.50 L 165.40 303.85 L 167.05 301.48 L 169.02 298.80 L 170.42 296.19 L 172.02 293.64 L 173.79 291.25 L 175.28 288.44 L 177.04 285.88 L 178.57 283.77 L 180.27 280.96 L 181.80 278.39 L 183.57 275.90 L 185.10 273.44 L 186.85 270.80 L 188.27 268.32 L 189.95 265.91 L 191.32 263.16 L 193.07 260.70 L 194.65 258.03 L 196.26 255.72 L 198.04 253.12 L 199.41 250.70 L 201.11 247.84 L 202.76 245.26 L 204.25 243.06 L 205.96 240.30 L 207.82 237.96 L 209.37 235.26 L 211.12 232.96 L 212.29 230.33 L 214.08 227.74 L 215.82 225.02 L 217.41 222.64 L 219.04 220.03 L 220.72 217.55 L 222.08 215.07 L 223.98 212.25 L 225.35 209.78 L 227.05 207.37 L 228.57 204.60 L 230.42 202.25 L 231.99 199.46 L 233.62 196.99 L 235.34 194.12 L 236.92 191.55 L 238.74 189.12 L 240.52 186.60 L 242.15 184.05 L 243.58 181.20 L 245.03 178.89 L 247.01 176.21 L 248.51 173.49 L 250.39 171.12 L 252.08 168.42 L 253.59 165.59 L 255.13 163.16 L 256.67 160.46 L 258.56 157.73 L 260.36 155.27 L 261.58 152.90 L 263.53 150.25 L 264.95 147.64 L 266.84 144.70 L 268.50 142.30 L 270.08 139.74 L 271.70 137.11 L 273.27 134.58 L 275.08 131.80 L 276.46 129.30 L 278.39 126.80 L 279.74 124.44 L 281.65 121.81 L 283.24 119.24 L 284.58 116.22 L 286.36 113.79 L 288.05 111.15 L 289.62 108.52 L 291.55 106.12 L 292.90 103.70 L 294.85 100.93 L 296.13 98.58 L 297.82 95.61 L 299.66 93.40 L 301.25 90.48 L 303.04 87.93 L 304.57 85.71 L 305.90 83.07 L 307.97 80.24 L 309.16 77.68 L 311.03 75.17" fill="none" stroke="black" stroke-width="1"/>
  <path d="M 310.88 75.46 L 309.61 78.35 L 308.16 80.63 L 306.58 83.43 L 305.16 86.00 L 303.70 88.88 L 302.13 91.50 L 300.71 94.46 L 299.12 97.03 L 297.58 99.81 L 296.09 102.20 L 294.78 105.00 L 293.34 107.84 L 292.05 110.61 L 290.43 113.37 L 289.09 115.96 L 287.32 118.39 L 286.22 121.27 L 284.59 124.01 L 283.18 126.49 L 281.64 129.17 L 279.98 132.14 L 278.51 134.66 L 277.28 137.38 L 275.74 140.05 L 274.26 142.94 L 272.77 145.40 L 271.51 148.29 L 269.68 150.85 L 268.38 153.74 L 267.02 156.22 L 265.58 158.96 L 264.10 161.61 L 262.60 164.30 L 260.78 167.29 L 259.41 169.91 L 258.23 172.70 L 256.72 175.21 L 255.04 177.80 L 253.76 180.48 L 252.07 183.22 L 250.60 185.85 L 249.21 188.72 L 247.70 191.30 L 246.27 194.29 L 244.85 196.69 L 243.15 199.54 L 241.74 202.37 L 240.35 204.80 L 238.73 207.62 L 237.13 210.28 L 236.00 212.98 L 234.45 215.68 L 233.00 218.38 L 231.43 220.59 L 229.95 223.38 L 228.82 225.89 L 227.40 228.42 L 225.77 231.46 L 224.42 234.11 L 222.88 236.54 L 221.36 239.20 L 219.91 241.94 L 218.66 244.63 L 217.05 246.83 L 215.55 249.58 L 214.30 252.26 L 212.70 254.67 L 211.02 257.50 L 209.78 260.24 L 208.09 262.59 L 206.85 265.36 L 205.36 267.90 L 203.94 270.74 L 202.62 273.37 L 200.95 275.84 L 199.43 278.66 L 198.20 281.19 L 196.68 283.74 L 195.26 286.52 L 193.63 288.97 L 192.11 291.86 L 190.75 294.49 L 189.29 297.07 L 188.04 299.74 L 186.73 302.47 L 184.94 305.37 L 183.78 308.04 L 181.97 310.59 L 180.62 313.17 L 179.40 315.67 L 177.56 318.53 L 176.43 321.35 L 174.81 323.76 L 173.15 326.55 L 171.92 328.91 L 170.32 331.58 L 168.69 334.22 L 167.30 337.18 L 166.09 339.67 L 164.50 342.54 L 162.96 344.96 L 161.55 347.63 L 160.12 350.61 L 158.66 353.09 L 157.42 355.89 L 155.77 358.10 L 154.38 360.77 L 152.83 363.36 L 151.72 366.22 L 149.97 368.63 L 148.94 371.28 L 147.35 373.82 L 145.73 376.60 L 144.52 378.99 L 142.88 381.76 L 141.67 384.51 L 140.24 387.25 L 138.67 389.63 L 137.10 392.40 L 135.79 394.74 L 134.61 397.54 L 132.87 400.03 L 131.62 402.79 L 130.30 405.23 L 128.68 407.89 L 127.51 410.34 L 126.01 413.10 L 124.61 415.94 L 123.08 418.35 L 121.75 421.25 L 120.02 423.84 L 118.70 426.21 L 117.30 429.06 L 115.95 431.80 L 114.31 434.61 L 113.03 437.30 L 111.50 439.59 L 110.40 442.39 L 108.54 444.97 L 107.45 447.93 L 106.12 450.53 L 104.47 453.06 L 103.20 456.03 L 101.79 458.51 L 100.15 461.00 L 98.74 463.87 L 97.41 466.69 L 95.77 469.13 L 94.44 471.96 L 93.19 474.43 L 91.74 477.17 L 90.60 480.05 L 89.08 482.75 L 87.64 485.25 L 86.46 487.69 L 85.14 490.45 L 83.74 493.12 L 82.24 495.54 L 80.82 498.61 L 79.83 501.15 L 78.51 503.76 L 76.87 506.34 L 75.69 508.95 L 74.78 511.43 L 73.72 514.21 L 72.70 516.50 L 71.55 519.44 L 70.71 521.69 L 69.82 524.32 L 71.57 522.66 L 73.37 520.62 L 75.45 518.73 L 76.98 516.63 L 78.80 514.76 L 80.54 512.14 L 82.17 509.91 L 83.80 507.78 L 85.69 505.22 L 87.34 502.59 L 89.08 500.61 L 90.71 498.16 L 92.06 495.64 L 93.79 493.00 L 95.54 490.99 L 97.27 488.49 L 98.98 485.89 L 100.66 483.58 L 102.43 480.91 L 103.94 478.56 L 105.89 476.00 L 107.52 473.35 L 109.08 471.24 L 110.62 468.31 L 112.18 466.07 L 113.90 463.49 L 115.86 460.87 L 117.24 458.32 L 118.91 455.97 L 120.95 453.38 L 122.42 451.07 L 124.07 448.11 L 125.65 446.02 L 127.63 443.36 L 128.86 440.97 L 130.93 438.41 L 132.42 435.78 L 134.20 433.23 L 135.58 430.76 L 137.57 427.88 L 138.94 425.41 L 140.92 422.95 L 142.39 420.40 L 144.11 417.67 L 145.82 414.91 L 147.69 412.65 L 149.16 410.07 L 150.80 407.15 L 152.66 404.53 L 154.31 402.21 L 155.95 399.66 L 157.58 396.98 L 159.16 394.67 L 161.03 392.09 L 162.55 389.19 L 164.34 386.82 L 165.89 384.25 L 167.79 381.45 L 169.26 378.84 L 171.10 376.33 L 172.72 373.56 L 174.52 371.25 L 176.13 368.76 L 177.57 366.38 L 179.15 363.52 L 180.85 360.95 L 182.69 358.44 L 184.05 355.77 L 185.67 353.62 L 187.55 350.96 L 189.23 348.36 L 190.55 345.76 L 192.54 343.27 L 193.97 340.66 L 195.60 338.11 L 197.45 335.62 L 199.22 332.89 L 200.68 330.39 L 202.10 327.88 L 203.92 325.28 L 205.37 322.99 L 207.18 320.32 L 208.63 317.68 L 210.55 315.41 L 211.94 312.75 L 213.75 310.24 L 215.15 307.88 L 216.74 305.30 L 218.44 302.86 L 220.32 300.10 L 221.85 297.78 L 223.60 295.43 L 225.28 292.89 L 226.77 290.22 L 228.11 287.84 L 229.78 284.95 L 231.43 282.45 L 233.39 280.25 L 234.53 277.53 L 236.25 275.08 L 238.00 272.53 L 239.62 270.13 L 241.44 267.76 L 242.74 264.91 L 244.56 262.59 L 246.03 260.22 L 247.73 257.36 L 249.14 255.25 L 250.86 252.67 L 252.35 249.92 L 254.05 247.38 L 255.67 245.05 L 257.39 242.48 L 259.29 239.70 L 260.96 237.11 L 262.40 234.72 L 263.83 231.95 L 265.78 229.70 L 267.42 227.18 L 269.02 224.55 L 270.97 221.67 L 272.57 219.13 L 273.99 216.58 L 275.79 214.18 L 277.56 211.51 L 279.01 208.91 L 280.73 206.56 L 282.39 203.72 L 284.18 201.47 L 285.73 198.44 L 287.20 196.09 L 288.89 193.74 L 290.67 190.79 L 292.29 188.14 L 293.84 186.00 L 295.58 183.01 L 297.61 180.55 L 299.05 178.05 L 300.65 175.47 L 302.33 172.74 L 304.18 170.27 L 305.61 167.97 L 307.25 165.15 L 308.88 162.83 L 310.96 159.99 L 312.20 157.49 L 313.96 155.04 L 315.90 152.56 L 317.43 149.76 L 319.15 147.44 L 320.85 144.67 L 322.22 142.51 L 324.33 140.03 L 325.81 137.36 L 327.22 134.57 L 328.84 131.97 L 330.57 129.58 L 332.64 127.17 L 333.93 124.59 L 335.76 121.94" fill="none" stroke="black" stroke-width="1"/>
  <path d="M 335.83 122.01 L 334.10 124.56 L 332.67 127.31 L 331.51 129.84 L 329.97 132.59 L 328.29 135.07 L 326.90 137.93 L 325.26 140.51 L 323.67 143.05 L 322.26 145.65 L 320.72 148.29 L 319.57 150.76 L 317.68 153.40 L 316.48 156.13 L 314.88 158.65 L 313.27 161.74 L 311.87 164.32 L 310.59 166.76 L 308.95 169.17 L 307.27 172.00 L 306.08 174.57 L 304.61 177.17 L 303.02 180.02 L 301.55 182.54 L 299.96 185.20 L 298.52 188.06 L 297.12 190.73 L 295.53 193.15 L 294.02 195.81 L 292.29 198.51 L 290.85 201.27 L 289.50 203.75 L 287.85 206.41 L 286.44 208.97 L 284.73 211.93 L 283.48 214.36 L 281.65 217.26 L 280.13 219.93 L 278.78 222.45 L 277.49 225.09 L 276.05 227.55 L 274.21 230.19 L 272.94 233.18 L 271.41 235.46 L 269.74 238.31 L 268.20 240.98 L 267.01 243.81 L 265.34 246.25 L 263.79 249.16 L 262.42 251.45 L 260.63 254.29 L 259.26 256.89 L 257.66 259.53 L 256.23 262.43 L 254.53 264.90 L 252.98 267.82 L 251.70 270.13 L 249.90 273.17 L 248.78 275.70 L 246.84 278.37 L 245.78 281.05 L 243.95 283.55 L 242.32 286.20 L 240.86 289.11 L 239.38 291.92 L 237.98 294.42 L 236.58 297.29 L 234.67 299.77 L 233.49 302.53 L 231.90 305.04 L 230.50 307.87 L 228.63 310.56 L 227.21 313.10 L 225.76 315.71 L 224.13 318.77 L 222.68 321.48 L 221.36 323.84 L 219.77 326.64 L 217.97 329.51 L 216.62 331.98 L 215.34 334.79 L 213.89 337.23 L 212.37 339.77 L 210.81 342.50 L 209.42 345.23 L 207.82 347.95 L 206.01 350.49 L 204.61 353.07 L 203.03 355.55 L 201.75 358.01 L 200.35 360.58 L 198.62 363.27 L 197.38 365.85 L 195.95 368.60 L 194.23 371.46 L 192.95 373.93 L 191.09 376.68 L 189.72 379.31 L 188.27 381.75 L 186.91 384.18 L 185.56 387.23 L 183.95 389.47 L 182.32 392.45 L 180.90 394.98 L 179.48 397.28 L 177.98 400.35 L 176.45 402.77 L 174.95 405.37 L 173.40 407.92 L 171.70 410.51 L 170.48 413.28 L 168.76 416.11 L 167.30 418.69 L 165.96 421.13 L 164.28 424.09 L 163.03 426.79 L 161.34 429.58 L 160.06 431.85 L 158.23 434.88 L 156.60 437.14 L 155.42 440.05 L 153.87 442.47 L 152.36 445.31 L 151.00 448.08 L 149.11 450.46 L 147.54 453.48 L 145.98 455.77 L 144.79 458.65 L 143.45 461.08 L 141.73 463.99 L 140.19 466.62 L 138.69 469.29 L 137.15 471.96 L 135.80 474.32 L 134.11 476.96 L 132.62 479.94 L 131.41 482.59 L 129.69 485.11 L 128.20 487.70 L 126.60 490.10 L 125.44 492.84 L 123.88 495.53 L 122.18 498.11 L 120.81 500.74 L 119.62 502.97 L 117.78 505.62 L 116.43 508.52 L 114.85 511.16 L 113.37 513.66 L 112.22 516.10 L 110.32 518.87 L 109.10 521.36 L 107.58 524.06 L 106.12 526.66 L 104.91 529.36 L 103.18 531.64 L 101.95 534.44 L 100.25 536.76 L 98.76 539.13 L 97.66 541.90 L 96.30 544.17 L 94.69 546.72 L 93.19 549.14 L 91.93 551.97 L 90.45 554.22 L 89.13 556.87 L 87.54 559.27 L 86.34 562.00 L 84.75 564.37 L 83.45 566.83 L 81.68 569.57 L 80.27 572.09 L 78.72 575.01 L 77.19 577.50 L 75.94 580.00 L 77.15 577.45 L 78.62 574.96 L 80.43 572.45 L 81.64 570.15 L 83.24 567.57 L 84.88 564.90 L 86.44 562.26 L 87.49 559.74 L 89.32 556.92 L 90.55 554.02 L 92.23 551.41 L 94.02 549.05 L 95.26 546.40 L 96.95 543.76 L 98.46 540.91 L 99.91 538.21 L 101.19 535.41 L 102.65 532.93 L 104.49 530.25 L 105.86 527.80 L 107.08 525.44 L 108.51 522.57 L 110.25 520.18 L 111.84 517.82 L 113.12 514.82 L 114.43 512.24 L 116.14 509.66 L 117.54 507.16 L 119.11 504.49 L 120.64 502.03 L 121.71 499.73 L 123.43 496.99 L 124.89 494.24 L 126.54 492.04 L 127.84 489.28 L 129.35 486.75 L 130.86 484.21 L 132.38 481.53 L 134.02 478.75 L 135.57 476.12 L 136.68 473.28 L 138.61 470.87 L 139.96 468.04 L 141.18 465.50 L 143.16 462.71 L 144.64 460.13 L 145.99 457.75 L 147.59 454.93 L 149.02 452.04 L 150.39 449.80 L 151.96 446.75 L 153.64 444.53 L 154.86 441.63 L 156.37 438.84 L 157.84 436.50 L 159.49 433.84 L 160.81 431.10 L 162.53 428.46 L 163.79 425.97 L 165.54 423.11 L 166.94 420.59 L 168.56 418.12 L 170.05 415.44 L 171.40 412.62 L 173.08 410.44 L 174.19 407.56 L 175.90 404.90 L 177.26 402.64 L 178.88 400.03 L 180.43 397.34 L 181.73 394.75 L 183.08 392.01 L 184.94 389.42 L 186.47 387.01 L 187.80 384.29 L 189.07 381.40 L 190.49 378.97 L 192.26 376.44 L 193.79 373.71 L 195.30 371.28 L 196.85 368.67 L 198.08 366.21 L 199.52 363.49 L 201.10 360.85 L 202.74 358.28 L 204.15 355.71 L 205.59 353.06 L 207.14 350.31 L 208.77 347.73 L 210.39 344.75 L 211.87 342.33 L 213.29 339.48 L 214.87 336.99 L 216.41 334.19 L 217.65 331.46 L 219.19 329.04 L 221.04 326.21 L 222.25 323.75 L 223.72 320.82 L 225.60 318.15 L 226.87 315.71 L 228.63 312.70 L 229.83 310.19 L 231.62 307.36 L 233.18 304.84 L 234.42 302.22 L 236.08 299.63 L 237.82 296.78 L 238.98 294.13 L 240.63 291.53 L 242.15 288.94 L 243.60 286.44 L 244.97 283.77 L 246.81 280.99 L 248.23 278.16 L 249.82 275.96 L 250.97 272.97 L 252.62 270.30 L 254.14 268.02 L 255.43 264.96 L 257.29 262.61 L 258.84 259.93 L 260.27 257.36 L 261.90 254.69 L 263.30 251.94 L 264.90 249.12 L 265.97 246.90 L 267.64 244.05 L 269.13 241.39 L 270.54 238.57 L 272.23 236.03 L 273.60 233.65 L 275.44 230.74 L 276.48 228.17 L 278.23 225.62 L 279.62 223.08 L 281.29 220.29 L 282.90 217.60 L 284.01 215.33 L 285.57 212.49 L 287.28 210.09 L 288.85 207.28 L 290.09 204.84 L 291.50 202.19 L 292.94 199.67 L 294.84 196.87 L 296.34 194.16 L 297.44 191.78 L 299.11 189.21 L 300.63 186.40 L 302.07 183.67 L 303.46 181.42 L 304.96 178.51 L 306.70 176.17 L 307.78 173.29 L 309.48 170.61 L 310.99 168.20" fill="none" stroke="black" stroke-width="1"/>
  <path d="M 318.93 174.45 L 317.38 172.91 L 315.83 174.45 L 317.38 176.00 L 318.93 174.45" fill="none" stroke="black" stroke-width="1"/>
  <path d="M 321.58 149.18 L 324.70 143.78" fill="none" stroke="black" stroke-width="1"/>
  <path d="M 324.59 136.82 L 328.03 131.55" fill="none" stroke="black" stroke-width="1"/>
  <path d="M 324.40 112.69 L 322.84 118.59" fill="none" stroke="black" stroke-width="1"/>
  <path d="M 290.49 99.83 L 288.11 94.13" fill="none" stroke="black" stroke-width="1"/>
  <path d="M 280.56 93.87 L 279.71 87.83" fill="none" stroke="black" stroke-width="1"/>
  <path d="M 264.14 78.51 L 264.99 72.24" fill="none" stroke="black" stroke-width="1"/>
  <path d="M 254.89 72.15 L 255.97 66.08" fill="none" stroke="black" stroke-width="1"/>
  <path d="M 239.00 56.66 L 240.84 50.77" fill="none" stroke="black" stroke-width="1"/>
  <path d="M 231.68 44.68 L 229.58 50.44" fill="none" stroke="black" stroke-width="1"/>
  <path d="M 213.87 34.84 L 216.31 29.12" fill="none" stroke="black" stroke-width="1"/>
  <path d="M 204.10 20.00 L 201.46 25.65" fill="none" stroke="black" stroke-width="1"/>
  <path d="M 267.69 106.53 L 269.36 108.51 L 271.22 110.87 L 273.19 113.06 L 275.03 115.28 L 277.01 117.38 L 278.84 119.47 L 280.72 121.82 L 282.33 123.88 L 284.13 126.24 L 286.19 128.22" fill="none" stroke="black" stroke-width="1"/>
  <path d="M 292.41 152.98 L 292.62 149.80 L 293.01 147.23 L 293.03 143.91 L 293.39 140.89 L 293.63 138.02 L 294.23 135.01 L 294.53 132.15 L 294.82 129.06 L 294.90 126.24 L 295.05 123.48 L 295.50 120.21 L 295.81 117.55 L 295.84 114.57 L 296.44 111.41 L 296.81 108.63 L 296.82 105.55 L 297.30 102.78 L 297.72 99.81 L 297.84 96.79 L 298.11 93.79 L 298.40 90.78 L 298.59 87.79 L 298.89 84.88" fill="none" stroke="black" stroke-width="1"/>
  <path d="M 301.55 75.50 L 300.67 72.98 L 299.75 70.58 L 298.54 67.70 L 297.72 65.00 L 296.81 62.79 L 295.72 60.07" fill="none" stroke="black" stroke-width="1"/>
  <path d="M 295.76 60.11 L 298.97 60.25 L 301.91 59.76 L 304.81 59.86" fill="none" stroke="black" stroke-width="1"/>
  <path d="M 323.60 56.70 L 326.62 56.63 L 329.93 57.00 L 332.74 56.99" fill="none" stroke="black" stroke-width="1"/>
  <path d="M 323.63 56.66 L 323.21 59.52 L 322.57 62.05 L 322.38 64.68 L 321.72 67.53 L 320.93 69.93 L 320.89 72.49 L 320.15 75.40" fill="none" stroke="black" stroke-width="1"/>
  <path d="M 351.10 96.95 L 349.69 99.35 L 348.61 102.31 L 347.29 104.50 L 346.26 107.23 L 344.86 110.14 L 343.38 112.49 L 342.05 115.12 L 341.02 117.75 L 339.63 120.22 L 338.30 122.78 L 337.13 125.42 L 335.88 128.13" fill="none" stroke="black" stroke-width="1"/>
  <path d="M 416.33 220.84 L 422.60 220.87" fill="none" stroke="black" stroke-width="1"/>
  <path d="M 555.38 208.76 L 561.71 208.30" fill="none" stroke="black" stroke-width="1"/>
  <path d="M 666.90 261.09 L 660.75 261.01 L 654.48 261.15 L 648.25 261.16 L 642.11 261.01 L 636.02 261.08 L 629.85 261.05 L 623.51 261.16 L 617.45 261.15 L 611.20 261.06 L 605.00 261.05 L 598.78 261.10 L 592.64 261.11 L 586.54 261.03 L 580.18 261.17 L 574.00 261.12 L 567.90 261.12 L 561.74 261.05 L 555.53 261.04 L 549.36 261.05 L 543.15 261.05 L 536.96 261.06 L 530.72 261.00 L 524.58 261.09 L 518.37 261.11 L 512.13 261.00 L 506.03 261.08 L 499.82 261.17 L 493.61 261.12 L 487.35 261.17 L 481.31 261.07 L 474.97 261.06 L 468.86 261.00 L 462.64 260.99 L 456.42 261.15 L 450.36 261.16 L 444.11 261.10 L 437.83 261.09 L 431.70 261.00 L 425.60 261.14 L 419.37 261.03 L 413.13 261.05 L 406.95 261.15 L 400.88 261.07 L 394.65 261.10 L 388.47 261.00 L 382.17 261.13 L 376.04 261.10 L 369.79 261.03 L 363.65 261.07 L 357.46 261.14 L 351.21 261.01 L 345.08 261.15 L 338.98 260.99 L 332.65 261.14 L 326.48 261.00 L 320.42 261.12 L 314.14 261.17 L 307.90 261.11 L 301.77 261.13 L 295.50 261.15 L 289.43 261.17 L 283.21 261.15 L 276.97 261.00 L 270.80 261.12 L 264.68 261.05 L 258.46 261.07 L 252.34 261.08 L 246.07 261.16 L 239.95 261.05 L 233.70 261.09 L 227.54 261.14 L 221.42 261.05 L 215.16 261.14 L 209.01 261.12 L 202.70 261.00 L 196.64 261.15 L 190.38 261.06 L 184.14 261.02 L 178.09 261.00 L 171.74 261.12 L 165.57 261.16 L 159.50 261.12 L 153.28 261.13 L 147.01 261.08 L 140.92 260.98 L 134.62 261.15 L 128.47 261.14 L 122.37 261.11 L 116.22 261.00 L 109.96 261.07 L 103.78 261.13 L 97.53 261.14 L 91.29 261.07 L 85.20 261.01 L 78.94 261.01 L 72.76 260.98 L 66.58 261.01 L 60.45 261.08 L 54.29 261.09 L 48.06 261.07" fill="none" stroke="black" stroke-width="1"/>
  <path d="M 184.11 214.57 L 190.36 214.70" fill="none" stroke="black" stroke-width="1"/>
</svg>