<svg xmlns="http://www.w3.org/2000/svg" width="800" height="600" viewBox="0 0 800 600">
  <rect width="100%" height="100%" fill="white"/>
  <path d="M 52.01 544.70 L 55.45 544.77 L 58.28 545.34 L 61.38 545.44 L 64.65 545.52 L 68.08 546.05 L 71.01 546.43 L 74.21 546.57 L 77.46 546.61 L 80.98 547.16 L 84.17 547.56 L 87.13 547.54 L 90.47 547.65 L 93.57 548.11" fill="none" stroke="black" stroke-width="1"/>
  <path d="M 64.88 536.36 L 71.03 533.75" fill="none" stroke="black" stroke-width="1"/>
  <path d="M 71.24 535.60 L 64.46 534.64" fill="none" stroke="black" stroke-width="1"/>
  <path d="M 42.22 528.52 L 45.39 528.73 L 48.43 529.63 L 51.24 529.82 L 54.53 530.17 L 57.62 530.82 L 60.75 531.45 L 63.46 531.85 L 66.70 532.33 L 69.87 532.81 L 72.82 533.36 L 76.00 533.72 L 78.85 534.27 L 82.22 534.33 L 85.01 534.73 L 87.94 535.41 L 91.17 535.98 L 94.03 536.47 L 97.42 536.89 L 100.46 537.38 L 103.56 537.76 L 106.53 538.20" fill="none" stroke="black" stroke-width="1"/>
  <path d="M 177.24 557.98 L 183.31 557.70" fill="none" stroke="black" stroke-width="1"/>
  <path d="M 289.35 551.40 L 295.94 551.14" fill="none" stroke="black" stroke-width="1"/>
  <path d="M 366.62 480.47 L 340.94 480.47" fill="none" stroke="black" stroke-width="1"/>
  <path d="M 340.94 480.47 L 315.26 480.47" fill="none" stroke="black" stroke-width="1"/>
  <path d="M 308.82 454.89 L 312.93 458.93 L 316.92 462.95 L 320.93 466.91 L 324.89 470.94 L 328.87 474.82 L 332.98 478.79 L 336.89 482.93 L 340.98 486.87" fill="none" stroke="black" stroke-width="1"/>
  <path d="M 340.98 486.82 L 342.78 480.77 L 344.64 474.65 L 346.51 468.68 L 348.31 462.66 L 350.04 456.52 L 351.91 450.51 L 353.60 444.49 L 355.50 438.31 L 357.40 432.36 L 359.22 426.28 L 360.99 420.19 L 362.74 414.07 L 364.58 408.00 L 366.37 402.05 L 368.20 395.95 L 370.05 389.96 L 371.78 383.81 L 373.62 377.77 L 375.52 371.69 L 377.23 365.74 L 379.14 359.66 L 380.93 353.59 L 382.74 347.56 L 384.56 341.44 L 386.33 335.46 L 388.08 329.42 L 390.07 323.40 L 391.83 317.25 L 393.67 311.26 L 395.39 305.13 L 397.16 299.16 L 399.03 292.97 L 400.83 286.94 L 402.61 281.00 L 404.52 274.90 L 406.27 268.87 L 408.09 262.73 L 409.91 256.72 L 411.68 250.64 L 413.58 244.67 L 415.37 238.56 L 417.26 232.48 L 419.02 226.47 L 420.87 220.38 L 422.63 214.31 L 424.45 208.36 L 426.30 202.13 L 428.07 196.07 L 429.94 190.11 L 431.70 183.98 L 433.53 177.92 L 435.44 171.88 L 437.18 165.87" fill="none" stroke="black" stroke-width="1"/>
  <path d="M 437.24 165.90 L 340.94 486.89" fill="none" stroke="black" stroke-width="1"/>
  <path d="M 340.94 486.89 L 244.64 165.90" fill="none" stroke="black" stroke-width="1"/>
  <path d="M 244.58 165.89 L 245.84 172.10 L 247.00 178.33 L 248.09 184.71 L 249.19 190.92 L 250.43 197.11 L 251.64 203.39 L 252.76 209.68 L 253.97 216.06 L 255.15 222.23 L 256.36 228.57 L 257.55 234.72 L 258.64 241.02 L 259.76 247.28 L 261.09 253.47 L 262.25 259.80 L 263.42 266.10 L 264.50 272.35 L 265.75 278.65 L 266.90 284.82 L 267.98 291.17 L 269.26 297.43 L 270.46 303.59 L 271.60 309.86 L 272.71 316.16 L 273.87 322.50 L 275.06 328.70 L 276.35 334.97 L 277.42 341.17 L 278.65 347.40 L 279.73 353.72 L 280.97 359.95 L 282.13 366.32 L 283.30 372.50 L 284.42 378.83 L 285.75 384.95 L 286.80 391.28 L 288.05 397.63 L 289.15 403.77 L 290.43 410.17 L 291.63 416.38 L 292.72 422.61" fill="none" stroke="black" stroke-width="1"/>
  <path d="M 314.42 419.91 L 316.64 425.76" fill="none" stroke="black" stroke-width="1"/>
  <path d="M 324.38 435.54 L 326.22 441.98" fill="none" stroke="black" stroke-width="1"/>
  <path d="M 333.64 457.90 L 335.40 464.30" fill="none" stroke="black" stroke-width="1"/>
  <path d="M 337.65 455.51 L 344.39 454.57" fill="none" stroke="black" stroke-width="1"/>
  <path d="M 355.88 451.37 L 357.97 445.56" fill="none" stroke="black" stroke-width="1"/>
  <path d="M 365.59 431.89 L 367.70 426.07" fill="none" stroke="black" stroke-width="1"/>
  <path d="M 373.08 438.80 L 369.94 443.54 L 366.72 448.41 L 363.39 453.16 L 360.17 458.05 L 357.00 462.90 L 353.80 467.67 L 350.49 472.52 L 347.33 477.22 L 344.19 482.15 L 340.87 486.89" fill="none" stroke="black" stroke-width="1"/>
  <path d="M 340.93 486.84 L 339.20 480.77 L 337.22 474.80 L 335.51 468.73 L 333.61 462.67 L 331.88 456.48 L 330.06 450.51 L 328.21 444.47 L 326.36 438.42 L 324.61 432.29 L 322.69 426.27 L 320.98 420.25 L 319.05 414.28 L 317.34 408.21 L 315.50 402.16 L 313.57 395.93 L 311.80 389.93 L 310.00 383.86 L 308.16 377.78 L 306.45 371.80 L 304.52 365.81 L 302.82 359.68 L 300.87 353.72 L 299.07 347.51 L 297.33 341.60 L 295.49 335.41 L 293.73 329.37 L 291.87 323.46 L 289.93 317.38 L 288.28 311.23 L 286.29 305.18 L 284.49 299.17 L 282.65 293.02 L 280.91 286.96 L 279.18 281.07 L 277.37 274.85 L 275.50 268.85 L 273.70 262.74 L 271.88 256.76 L 270.02 250.68 L 268.22 244.73 L 266.35 238.62 L 264.50 232.60 L 262.67 226.43 L 260.91 220.42 L 259.10 214.42 L 257.35 208.40 L 255.47 202.37 L 253.70 196.27 L 251.76 190.12 L 250.08 184.14 L 248.19 178.10 L 246.39 171.97 L 244.56 165.96" fill="none" stroke="black" stroke-width="1"/>
  <path d="M 244.57 165.97 L 243.89 165.85 L 243.19 165.60 L 242.65 165.42 L 242.15 165.16 L 241.82 164.85 L 241.30 164.68 L 240.97 164.38 L 240.50 164.20 L 240.03 163.91 L 239.61 163.73 L 239.06 163.54 L 238.47 163.31 L 237.78 163.12 L 236.95 162.97 L 235.90 162.83 L 234.89 162.73 L 233.53 162.74 L 232.17 162.63 L 230.39 162.62 L 228.62 162.69 L 226.32 162.92 L 223.94 162.98 L 221.02 163.15 L 218.10 163.49 L 214.67 163.83 L 211.39 164.18 L 207.69 164.67 L 204.11 164.98 L 200.30 165.35 L 196.53 165.84 L 192.70 166.19 L 188.95 166.71 L 185.23 167.19 L 181.67 167.51 L 178.26 167.78 L 174.96 168.21 L 172.13 168.44 L 169.12 168.73 L 166.75 168.87 L 164.44 169.03 L 162.63 168.98 L 160.88 169.10 L 159.57 169.01 L 158.15 169.02 L 157.08 168.96 L 156.10 168.81 L 155.27 168.59 L 154.57 168.49 L 153.92 168.32 L 153.43 168.10 L 153.06 167.80 L 152.52 167.66 L 152.05 167.37 L 151.72 167.20 L 151.25 166.95 L 150.87 166.75 L 150.41 166.55 L 149.82 166.34 L 149.14 166.08 L 148.44 166.00" fill="none" stroke="black" stroke-width="1"/>
  <path d="M 141.32 211.77 L 136.37 216.11" fill="none" stroke="black" stroke-width="1"/>
  <path d="M 129.77 231.88 L 134.88 227.78" fill="none" stroke="black" stroke-width="1"/>
  <path d="M 134.38 227.63 L 130.75 232.41" fill="none" stroke="black" stroke-width="1"/>
  <path d="M 128.74 244.68 L 123.18 248.37" fill="none" stroke="black" stroke-width="1"/>
  <path d="M 122.42 254.94 L 116.34 256.67" fill="none" stroke="black" stroke-width="1"/>
  <path d="M 125.27 260.80 L 119.71 264.20" fill="none" stroke="black" stroke-width="1"/>
  <path d="M 149.42 252.41 L 147.28 258.48" fill="none" stroke="black" stroke-width="1"/>
  <path d="M 193.29 230.17 L 193.52 231.12 L 193.91 232.14 L 194.25 233.24 L 194.47 234.20 L 194.73 235.16 L 195.02 236.31 L 195.32 237.36 L 195.55 238.43 L 195.86 239.50 L 196.10 240.52 L 196.38 241.51 L 196.68 242.55 L 197.01 243.46 L 197.31 244.49 L 197.57 245.42 L 198.02 246.28 L 198.33 247.08 L 198.81 247.90 L 199.25 248.63 L 199.71 249.30 L 200.15 249.92 L 200.73 250.46 L 201.24 250.86 L 201.86 251.41 L 202.41 251.78 L 203.08 252.19 L 203.78 252.59 L 204.36 252.83 L 205.03 253.01 L 205.70 253.36 L 206.36 253.67 L 207.08 253.83 L 207.80 253.97 L 208.46 254.28 L 209.21 254.52 L 209.84 254.74 L 210.54 255.07 L 211.19 255.25 L 211.93 255.53 L 212.50 255.85" fill="none" stroke="black" stroke-width="1"/>
  <path d="M 212.63 255.73 L 213.37 255.48 L 213.94 255.15 L 214.53 254.85 L 215.29 254.66 L 216.05 254.46 L 216.67 254.21 L 217.42 254.02 L 218.05 253.79 L 218.74 253.63 L 219.42 253.33 L 220.09 253.16 L 220.76 252.81 L 221.40 252.54 L 222.05 252.19 L 222.72 251.88 L 223.26 251.43 L 223.82 250.88 L 224.39 250.49 L 224.90 249.90 L 225.40 249.33 L 225.75 248.69 L 226.29 247.92 L 226.75 247.07 L 227.08 246.30 L 227.46 245.31 L 227.77 244.50 L 228.08 243.48 L 228.39 242.56 L 228.70 241.45 L 228.96 240.52 L 229.16 239.38 L 229.50 238.41 L 229.75 237.26 L 230.02 236.28 L 230.36 235.30 L 230.55 234.16 L 230.85 233.12 L 231.11 232.09 L 231.32 231.03 L 231.71 230.11" fill="none" stroke="black" stroke-width="1"/>
  <path d="M 231.27 231.58 L 225.38 228.27" fill="none" stroke="black" stroke-width="1"/>
  <path d="M 224.10 237.44 L 220.04 242.48" fill="none" stroke="black" stroke-width="1"/>
  <path d="M 219.02 242.96 L 217.39 246.22 L 215.83 249.31" fill="none" stroke="black" stroke-width="1"/>
  <path d="M 209.32 249.39 L 210.88 246.03 L 212.55 242.85" fill="none" stroke="black" stroke-width="1"/>
  <path d="M 206.08 239.69 L 204.59 242.82 L 202.99 246.09" fill="none" stroke="black" stroke-width="1"/>
  <path d="M 201.05 245.95 L 197.89 240.54" fill="none" stroke="black" stroke-width="1"/>
  <path d="M 197.26 242.86 L 195.35 236.79" fill="none" stroke="black" stroke-width="1"/>
  <path d="M 197.79 234.08 L 201.89 239.11" fill="none" stroke="black" stroke-width="1"/>
  <path d="M 214.00 245.53 L 217.39 239.83" fill="none" stroke="black" stroke-width="1"/>
  <path d="M 220.57 239.73 L 218.96 238.13 L 217.36 239.73 L 218.96 241.34 L 220.57 239.73" fill="none" stroke="black" stroke-width="1"/>
  <path d="M 222.17 241.34 L 220.57 239.73 L 218.96 241.34 L 220.57 242.94 L 222.17 241.34" fill="none" stroke="black" stroke-width="1"/>
  <path d="M 228.55 236.50 L 231.89 236.51 L 235.05 236.60" fill="none" stroke="black" stroke-width="1"/>
  <path d="M 233.41 239.73 L 231.80 238.13 L 230.20 239.73 L 231.80 241.34 L 233.41 239.73" fill="none" stroke="black" stroke-width="1"/>
  <path d="M 228.52 242.99 L 232.90 240.73 L 237.07 238.60 L 241.46 236.48" fill="none" stroke="black" stroke-width="1"/>
  <path d="M 241.36 236.43 L 237.15 234.42 L 232.83 232.30 L 228.62 230.12" fill="none" stroke="black" stroke-width="1"/>
  <path d="M 238.15 197.96 L 238.87 191.98 L 239.69 186.01 L 240.53 179.87 L 241.30 173.89 L 242.22 167.82 L 243.02 161.91 L 243.74 155.81 L 244.56 149.82" fill="none" stroke="black" stroke-width="1"/>
  <path d="M 212.62 117.68 L 211.18 121.92 L 209.92 126.22 L 208.57 130.83 L 207.05 135.55 L 205.51 140.49 L 204.07 145.33 L 202.57 150.23 L 201.06 155.22 L 199.52 159.97 L 198.11 164.89 L 196.66 169.42 L 195.28 173.99 L 193.95 178.08 L 192.66 182.20 L 191.41 185.75 L 190.33 189.16 L 189.42 191.77 L 188.36 194.55 L 187.63 196.28 L 186.82 198.03 L 186.39 198.73 L 185.78 199.37 L 185.52 199.12 L 185.18 198.80 L 185.13 197.74 L 184.94 196.65 L 185.01 194.99 L 184.99 193.26 L 185.03 191.04 L 185.24 188.98 L 185.43 186.64 L 185.63 184.13 L 185.83 181.54 L 186.06 179.06 L 186.19 176.53 L 186.47 174.10 L 186.68 171.94 L 186.77 169.58 L 186.87 167.65 L 186.90 165.86" fill="none" stroke="black" stroke-width="1"/>
  <path d="M 186.93 165.91 L 189.75 171.33 L 192.61 176.64 L 195.39 181.95 L 198.37 187.30 L 201.12 192.72 L 203.91 198.05 L 206.86 203.39 L 209.68 208.69 L 212.47 214.11" fill="none" stroke="black" stroke-width="1"/>
  <path d="M 212.48 214.05 L 215.32 208.77 L 218.28 203.32 L 221.01 197.97 L 223.90 192.71 L 226.88 187.27 L 229.62 181.98 L 232.48 176.53 L 235.46 171.20 L 238.28 165.84" fill="none" stroke="black" stroke-width="1"/>
  <path d="M 238.25 162.57 L 238.14 155.86" fill="none" stroke="black" stroke-width="1"/>
  <path d="M 235.03 156.19 L 234.51 162.15 L 234.00 168.03 L 233.48 173.77 L 232.97 179.74 L 232.49 185.61 L 231.87 191.50" fill="none" stroke="black" stroke-width="1"/>
  <path d="M 234.25 188.22 L 235.98 182.23" fill="none" stroke="black" stroke-width="1"/>
  <path d="M 237.23 181.63 L 239.06 175.41" fill="none" stroke="black" stroke-width="1"/>
  <path d="M 244.80 165.94 L 238.31 166.14" fill="none" stroke="black" stroke-width="1"/>
  <path d="M 238.25 165.96 L 238.38 164.27 L 238.37 162.67 L 238.55 161.06 L 238.67 159.28 L 238.85 157.60 L 239.07 155.82 L 239.25 154.17 L 239.50 152.35 L 239.69 150.70 L 239.87 148.91 L 240.04 147.27 L 240.12 145.55 L 240.10 143.95 L 240.16 142.31 L 240.02 140.85 L 239.91 139.26 L 239.69 137.85 L 239.31 136.42 L 238.84 135.15 L 238.27 133.86 L 237.55 132.67 L 236.74 131.60 L 235.78 130.60 L 234.77 129.61 L 233.52 128.70 L 232.45 127.85 L 231.08 126.96 L 229.84 126.26 L 228.45 125.55 L 227.02 124.80 L 225.63 124.17 L 224.08 123.42 L 222.64 122.73 L 221.08 122.07 L 219.51 121.37 L 218.11 120.71 L 216.64 120.03 L 215.24 119.28 L 213.93 118.55 L 212.55 117.74" fill="none" stroke="black" stroke-width="1"/>
  <path d="M 212.53 117.71 L 208.30 114.54 L 204.01 111.39 L 199.73 108.21" fill="none" stroke="black" stroke-width="1"/>
  <path d="M 202.93 102.07 L 196.58 101.40" fill="none" stroke="black" stroke-width="1"/>
  <path d="M 206.19 98.42 L 202.92 96.90 L 199.68 95.23" fill="none" stroke="black" stroke-width="1"/>
  <path d="M 199.79 95.27 L 196.44 96.98 L 193.23 98.54" fill="none" stroke="black" stroke-width="1"/>
  <path d="M 190.36 99.98 L 196.11 97.10" fill="none" stroke="black" stroke-width="1"/>
  <path d="M 196.50 95.35 L 202.85 95.19" fill="none" stroke="black" stroke-width="1"/>
  <path d="M 202.93 91.98 L 196.89 92.08" fill="none" stroke="black" stroke-width="1"/>
  <path d="M 190.11 88.90 L 195.35 89.48 L 200.77 89.98 L 206.02 90.57 L 211.51 90.99 L 216.70 91.71 L 222.09 92.16" fill="none" stroke="black" stroke-width="1"/>
  <path d="M 225.65 85.66 L 231.62 85.46" fill="none" stroke="black" stroke-width="1"/>
  <path d="M 247.83 95.74 L 241.34 95.32" fill="none" stroke="black" stroke-width="1"/>
  <path d="M 237.81 96.61 L 232.00 93.76" fill="none" stroke="black" stroke-width="1"/>
  <path d="M 231.92 92.19 L 225.42 91.95" fill="none" stroke="black" stroke-width="1"/>
  <path d="M 226.12 93.17 L 231.03 97.23" fill="none" stroke="black" stroke-width="1"/>
  <path d="M 234.95 95.19 L 231.73 93.65 L 228.57 91.98" fill="none" stroke="black" stroke-width="1"/>
  <path d="M 228.50 92.04 L 225.31 93.63 L 222.18 95.36" fill="none" stroke="black" stroke-width="1"/>
  <path d="M 225.10 93.96 L 219.29 96.83" fill="none" stroke="black" stroke-width="1"/>
  <path d="M 218.91 104.83 L 224.42 107.57 L 229.98 110.28 L 235.34 113.05 L 240.87 115.85 L 246.42 118.58 L 252.00 121.30 L 257.42 124.14" fill="none" stroke="black" stroke-width="1"/>
  <path d="M 257.59 122.98 L 263.57 125.43" fill="none" stroke="black" stroke-width="1"/>
  <path d="M 257.39 115.34 L 251.22 113.79" fill="none" stroke="black" stroke-width="1"/>
  <path d="M 254.28 108.54 L 247.89 107.52" fill="none" stroke="black" stroke-width="1"/>
  <path d="M 244.67 117.69 L 239.22 115.09 L 233.90 112.44 L 228.56 109.72 L 223.25 107.00 L 217.94 104.51 L 212.51 101.78" fill="none" stroke="black" stroke-width="1"/>
  <path d="M 208.93 99.82 L 203.28 97.06" fill="none" stroke="black" stroke-width="1"/>
  <path d="M 202.83 95.23 L 207.99 97.88 L 213.21 100.31 L 218.27 102.95 L 223.38 105.54 L 228.64 108.16" fill="none" stroke="black" stroke-width="1"/>
  <path d="M 225.42 108.22 L 221.21 111.45 L 216.78 114.60 L 212.53 117.67" fill="none" stroke="black" stroke-width="1"/>
  <path d="M 225.42 104.83 L 219.96 103.89 L 214.47 103.11 L 208.92 102.04 L 203.31 101.21 L 197.84 100.27 L 192.39 99.39 L 186.89 98.55" fill="none" stroke="black" stroke-width="1"/>
  <path d="M 181.42 98.35 L 179.25 92.48" fill="none" stroke="black" stroke-width="1"/>
  <path d="M 174.35 92.26 L 174.04 86.10" fill="none" stroke="black" stroke-width="1"/>
  <path d="M 149.34 89.15 L 147.11 94.94" fill="none" stroke="black" stroke-width="1"/>
  <path d="M 132.31 92.00 L 126.31 93.21 L 120.16 94.39 L 114.27 95.61 L 108.16 96.79 L 102.12 97.99 L 96.18 99.22 L 90.20 100.35 L 84.08 101.64" fill="none" stroke="black" stroke-width="1"/>
  <path d="M 71.29 101.18 L 64.71 102.10" fill="none" stroke="black" stroke-width="1"/>
  <path d="M 42.48 76.19 L 49.10 75.64" fill="none" stroke="black" stroke-width="1"/>
  <path d="M 48.88 82.02 L 55.19 82.18" fill="none" stroke="black" stroke-width="1"/>
  <path d="M 74.75 80.50 L 80.63 78.63" fill="none" stroke="black" stroke-width="1"/>
  <path d="M 80.98 86.57 L 87.24 84.85" fill="none" stroke="black" stroke-width="1"/>
  <path d="M 96.90 86.04 L 103.17 85.01" fill="none" stroke="black" stroke-width="1"/>
  <path d="M 107.06 84.73 L 112.24 80.67" fill="none" stroke="black" stroke-width="1"/>
  <path d="M 118.79 86.54 L 113.67 90.91" fill="none" stroke="black" stroke-width="1"/>
  <path d="M 143.44 82.78 L 140.53 88.40" fill="none" stroke="black" stroke-width="1"/>
  <path d="M 183.76 107.29 L 177.21 108.99" fill="none" stroke="black" stroke-width="1"/>
  <path d="M 196.05 138.41 L 191.14 142.24" fill="none" stroke="black" stroke-width="1"/>
  <path d="M 199.69 149.86 L 198.26 155.91 L 197.03 161.89 L 195.61 167.78 L 194.29 173.79 L 192.78 179.71 L 191.55 185.64 L 190.09 191.66" fill="none" stroke="black" stroke-width="1"/>
  <path d="M 189.07 187.86 L 191.43 182.22" fill="none" stroke="black" stroke-width="1"/>
  <path d="M 191.18 178.87 L 189.30 184.89" fill="none" stroke="black" stroke-width="1"/>
  <path d="M 186.92 182.07 L 186.91 175.53" fill="none" stroke="black" stroke-width="1"/>
  <path d="M 196.46 166.00 L 196.38 167.45 L 196.39 168.97 L 196.27 170.68 L 196.20 172.57 L 196.17 174.52 L 195.96 176.53 L 195.80 178.58 L 195.70 180.59 L 195.50 182.47 L 195.47 184.46 L 195.36 186.26 L 195.32 187.88 L 195.28 189.24 L 195.29 190.58 L 195.34 191.45 L 195.45 192.29 L 195.55 192.59 L 195.83 192.75 L 196.14 192.23 L 196.48 191.67 L 196.91 190.27 L 197.43 188.88 L 198.14 186.81 L 198.66 184.56 L 199.42 181.69 L 200.11 178.98 L 200.95 175.73 L 201.73 172.41 L 202.63 168.85 L 203.49 165.11 L 204.39 161.26 L 205.32 157.37 L 206.30 153.44 L 207.19 149.45 L 208.11 145.53 L 209.04 141.62 L 209.98 137.88 L 210.82 134.15 L 211.69 130.72 L 212.50 127.31" fill="none" stroke="black" stroke-width="1"/>
  <path d="M 212.63 127.46 L 213.50 128.00 L 214.31 128.69 L 215.24 129.32 L 216.10 129.82 L 216.98 130.44 L 217.95 130.90 L 218.93 131.49 L 219.82 131.97 L 220.66 132.48 L 221.66 133.06 L 222.49 133.73 L 223.42 134.22 L 224.14 134.76 L 225.05 135.48 L 225.71 136.17 L 226.50 136.89 L 227.02 137.74 L 227.73 138.47 L 228.18 139.37 L 228.67 140.27 L 228.91 141.22 L 229.32 142.31 L 229.41 143.34 L 229.68 144.57 L 229.83 145.78 L 229.82 147.00 L 229.88 148.30 L 229.78 149.58 L 229.71 150.90 L 229.62 152.27 L 229.57 153.71 L 229.37 155.01 L 229.16 156.44 L 229.09 157.78 L 229.01 159.09 L 228.82 160.54 L 228.63 161.88 L 228.62 163.25 L 228.63 164.51 L 228.53 165.87" fill="none" stroke="black" stroke-width="1"/>
  <path d="M 228.61 165.91 L 226.37 171.43 L 223.96 176.94 L 221.78 182.44 L 219.31 187.96 L 217.08 193.34 L 214.86 198.97 L 212.49 204.45" fill="none" stroke="black" stroke-width="1"/>
  <path d="M 212.51 204.33 L 210.32 198.84 L 207.95 193.27 L 205.65 187.88 L 203.44 182.37 L 201.19 176.80 L 198.90 171.38 L 196.58 165.86" fill="none" stroke="black" stroke-width="1"/>
  <path d="M 193.20 158.59 L 186.92 160.78" fill="none" stroke="black" stroke-width="1"/>
  <path d="M 180.42 149.81 L 181.32 155.79 L 182.08 161.91 L 182.94 167.94 L 183.77 173.99 L 184.40 180.07 L 185.34 186.05 L 186.04 191.99 L 186.94 198.08" fill="none" stroke="black" stroke-width="1"/>
  <path d="M 193.18 201.17 L 193.79 194.33" fill="none" stroke="black" stroke-width="1"/>
  <path d="M 193.36 191.52 L 192.74 185.59 L 192.33 179.81 L 191.86 173.85 L 191.21 167.97 L 190.73 162.14 L 190.17 156.18" fill="none" stroke="black" stroke-width="1"/>
  <path d="M 188.33 156.46 L 185.73 162.60" fill="none" stroke="black" stroke-width="1"/>
  <path d="M 186.80 165.61 L 180.17 165.94" fill="none" stroke="black" stroke-width="1"/>
  <path d="M 180.43 165.87 L 179.53 172.16 L 178.55 178.48 L 177.45 184.91 L 176.52 191.21 L 175.67 197.56 L 174.69 203.81 L 173.64 210.09 L 172.75 216.41 L 171.70 222.75 L 170.73 229.04 L 169.80 235.43 L 168.82 241.71 L 167.87 248.14 L 166.92 254.34 L 165.87 260.73 L 164.92 267.10 L 163.99 273.32 L 162.91 279.70 L 162.06 286.05 L 161.05 292.40 L 160.08 298.75 L 159.06 304.91 L 158.08 311.30 L 157.23 317.58 L 156.27 323.86 L 155.23 330.35 L 154.30 336.68 L 153.29 342.93 L 152.29 349.26 L 151.32 355.63 L 150.43 361.98 L 149.39 368.13 L 148.41 374.54" fill="none" stroke="black" stroke-width="1"/>
  <path d="M 131.30 387.39 L 132.87 381.22" fill="none" stroke="black" stroke-width="1"/>
  <path d="M 132.29 416.28 L 116.24 413.07" fill="none" stroke="black" stroke-width="1"/>
  <path d="M 100.19 416.28 L 116.24 413.07" fill="none" stroke="black" stroke-width="1"/>
  <path d="M 119.15 391.00 L 113.04 390.13" fill="none" stroke="black" stroke-width="1"/>
  <path d="M 101.17 377.77 L 99.67 371.34" fill="none" stroke="black" stroke-width="1"/>
  <path d="M 108.27 313.35 L 105.05 307.65" fill="none" stroke="black" stroke-width="1"/>
  <path d="M 112.39 296.39 L 107.81 292.15" fill="none" stroke="black" stroke-width="1"/>
  <path d="M 119.36 278.43 L 113.13 278.17" fill="none" stroke="black" stroke-width="1"/>
  <path d="M 112.95 278.65 L 119.01 278.58" fill="none" stroke="black" stroke-width="1"/>
  <path d="M 102.13 297.49 L 104.72 303.54" fill="none" stroke="black" stroke-width="1"/>
  <path d="M 99.34 322.97 L 101.25 329.22" fill="none" stroke="black" stroke-width="1"/>
  <path d="M 100.98 329.17 L 99.18 323.35" fill="none" stroke="black" stroke-width="1"/>
  <path d="M 84.09 358.53 L 83.06 352.21 L 81.94 346.08 L 80.99 339.91 L 79.86 333.58 L 78.91 327.42 L 77.86 321.18 L 76.84 315.04 L 75.86 308.83 L 74.74 302.55 L 73.68 296.41 L 72.71 290.12 L 71.70 283.95 L 70.60 277.65 L 69.54 271.52 L 68.55 265.29 L 67.52 259.05 L 66.57 252.83 L 65.60 246.65 L 64.44 240.52 L 63.53 234.31 L 62.36 228.05 L 61.38 221.81 L 60.44 215.53 L 59.26 209.39 L 58.36 203.24 L 57.27 196.92 L 56.16 190.76 L 55.22 184.43 L 54.13 178.21 L 53.03 171.99 L 52.09 165.86" fill="none" stroke="black" stroke-width="1"/>
  <path d="M 52.05 165.90 L 116.24 422.70" fill="none" stroke="black" stroke-width="1"/>
  <path d="M 116.24 422.70 L 180.44 165.90" fill="none" stroke="black" stroke-width="1"/>
  <path d="M 180.51 165.96 L 178.97 172.11 L 177.41 178.13 L 175.91 184.24 L 174.39 190.48 L 172.93 196.60 L 171.32 202.55 L 169.80 208.69 L 168.23 214.79 L 166.82 221.00 L 165.16 227.04 L 163.79 233.16 L 162.19 239.25 L 160.59 245.43 L 159.15 251.45 L 157.53 257.63 L 156.08 263.80 L 154.56 269.96 L 152.97 275.98 L 151.38 282.16 L 149.90 288.17 L 148.47 294.35 L 146.82 300.41 L 145.36 306.58 L 143.87 312.63 L 142.26 318.76 L 140.83 324.81 L 139.27 330.98 L 137.75 337.19 L 136.23 343.31 L 134.58 349.38 L 133.10 355.38 L 131.58 361.55 L 130.08 367.69 L 128.47 373.85 L 127.01 379.97 L 125.44 385.93 L 124.04 392.09 L 122.34 398.16 L 120.95 404.38 L 119.46 410.46 L 117.85 416.51 L 116.32 422.68" fill="none" stroke="black" stroke-width="1"/>
  <path d="M 116.31 422.63 L 114.78 416.43 L 113.26 410.39 L 111.76 404.34 L 110.16 398.13 L 108.70 392.01 L 107.13 385.94 L 105.68 379.92 L 104.07 373.84 L 102.51 367.67 L 101.04 361.48 L 99.52 355.42 L 97.96 349.32 L 96.37 343.12 L 94.81 337.18 L 93.42 331.03 L 91.90 324.91 L 90.25 318.77 L 88.81 312.61 L 87.25 306.59 L 85.70 300.37 L 84.10 294.41 L 82.63 288.18 L 81.11 282.19 L 79.59 276.03 L 78.17 269.93 L 76.54 263.75 L 75.04 257.57 L 73.49 251.52 L 71.94 245.51 L 70.49 239.34 L 68.95 233.14 L 67.44 227.19 L 65.89 221.06 L 64.24 214.90 L 62.72 208.70 L 61.22 202.74 L 59.71 196.59 L 58.19 190.40 L 56.70 184.27 L 55.11 178.22 L 53.69 172.09 L 52.07 166.00" fill="none" stroke="black" stroke-width="1"/>
  <path d="M 20.00 165.91 L 26.46 165.93 L 32.85 165.92 L 39.21 165.85 L 45.62 165.82 L 52.03 165.85 L 58.53 165.84 L 64.85 165.91 L 71.32 165.98 L 77.79 165.97 L 84.20 165.91 L 90.70 165.84 L 97.08 165.96 L 103.41 165.98 L 109.79 165.99 L 116.32 165.82 L 122.64 165.92 L 129.14 165.97 L 135.60 165.97 L 141.89 166.00 L 148.28 165.97 L 154.88 165.84 L 161.15 165.86 L 167.62 165.90 L 174.11 166.00 L 180.40 165.84 L 186.95 165.96 L 193.33 165.99 L 199.81 165.89 L 206.17 165.99 L 212.55 165.93 L 219.04 165.89 L 225.39 166.00 L 231.89 165.92 L 238.24 165.91 L 244.69 165.89 L 251.04 165.96 L 257.44 165.84 L 263.91 165.99 L 270.36 166.02 L 276.66 165.99 L 283.17 165.97 L 289.52 165.95 L 295.99 166.02 L 302.51 165.96 L 308.80 165.84 L 315.20 165.98 L 321.76 165.83 L 328.08 165.99 L 334.44 165.84 L 340.93 165.98 L 347.35 165.91 L 353.72 165.87 L 360.20 165.94 L 366.56 165.97 L 373.10 165.84 L 379.50 165.94 L 385.96 165.91 L 392.26 165.99 L 398.68 165.89 L 405.15 165.87 L 411.61 165.98 L 417.94 165.84 L 424.30 165.94 L 430.81 165.94 L 437.29 166.01 L 443.58 166.00 L 450.02 165.83 L 456.48 165.84 L 462.82 165.90 L 469.40 165.91 L 475.66 166.01 L 482.15 165.96 L 488.60 166.01 L 495.03 165.92 L 501.36 165.84 L 507.83 165.95 L 514.28 165.93 L 520.64 165.84 L 527.12 165.90 L 533.54 165.89 L 539.98 165.89 L 546.38 165.88 L 552.82 165.89 L 559.21 165.97 L 565.54 165.96 L 571.95 166.01 L 578.54 165.87 L 584.87 165.95 L 591.25 165.94 L 597.69 165.89 L 604.13 165.90 L 610.60 166.00 L 616.89 166.00 L 623.47 165.89 L 629.87 165.93 L 636.18 165.85 L 642.56 166.00 L 649.02 165.99 L 655.52 165.85 L 661.90 165.93" fill="none" stroke="black" stroke-width="1"/>
  <path d="M 616.76 81.96 L 610.27 82.93" fill="none" stroke="black" stroke-width="1"/>
  <path d="M 536.47 31.04 L 530.13 31.48" fill="none" stroke="black" stroke-width="1"/>
  <path d="M 530.76 32.73 L 536.65 29.52" fill="none" stroke="black" stroke-width="1"/>
  <path d="M 540.28 21.84 L 546.37 21.38" fill="none" stroke="black" stroke-width="1"/>
  <path d="M 552.95 24.64 L 549.81 25.09 L 546.99 25.27 L 544.41 25.64 L 541.16 26.04 L 538.32 26.26 L 535.58 26.35 L 532.44 26.96 L 529.83 27.47 L 526.53 27.73 L 523.85 27.90" fill="none" stroke="black" stroke-width="1"/>
  <path d="M 520.44 38.16 L 513.94 37.37" fill="none" stroke="black" stroke-width="1"/>
  <path d="M 510.89 28.05 L 508.30 26.97 L 505.90 26.50 L 503.95 25.67 L 501.35 24.64" fill="none" stroke="black" stroke-width="1"/>
  <path d="M 488.56 37.70 L 482.31 37.58" fill="none" stroke="black" stroke-width="1"/>
  <path d="M 462.99 30.79 L 456.53 31.49" fill="none" stroke="black" stroke-width="1"/>
  <path d="M 456.65 21.25 L 450.11 21.56" fill="none" stroke="black" stroke-width="1"/>
  <path d="M 450.85 23.44 L 455.75 20.00" fill="none" stroke="black" stroke-width="1"/>
  <path d="M 466.09 21.65 L 463.38 21.78 L 460.25 22.31 L 457.24 22.33 L 454.37 22.56 L 451.36 22.80 L 448.59 23.36 L 445.64 23.73 L 443.04 23.73 L 439.80 24.04 L 436.93 24.70 L 434.09 24.73" fill="none" stroke="black" stroke-width="1"/>
  <path d="M 424.37 27.71 L 418.20 28.35" fill="none" stroke="black" stroke-width="1"/>
  <path d="M 392.31 46.06 L 386.21 47.91" fill="none" stroke="black" stroke-width="1"/>
  <path d="M 371.09 46.17 L 375.06 41.15" fill="none" stroke="black" stroke-width="1"/>
  <path d="M 376.39 43.26 L 370.16 44.58" fill="none" stroke="black" stroke-width="1"/>
  <path d="M 363.36 36.55 L 357.19 38.06" fill="none" stroke="black" stroke-width="1"/>
  <path d="M 344.17 49.81 L 338.15 50.95" fill="none" stroke="black" stroke-width="1"/>
  <path d="M 321.90 42.73 L 315.53 44.36" fill="none" stroke="black" stroke-width="1"/>
  <path d="M 311.91 36.09 L 305.64 38.43" fill="none" stroke="black" stroke-width="1"/>
  <path d="M 307.41 40.23 L 310.31 34.48" fill="none" stroke="black" stroke-width="1"/>
  <path d="M 311.95 30.84 L 309.27 31.79 L 306.88 32.32 L 304.58 33.27 L 302.24 34.31" fill="none" stroke="black" stroke-width="1"/>
  <path d="M 295.86 47.48 L 289.56 46.68" fill="none" stroke="black" stroke-width="1"/>
  <path d="M 286.31 50.27 L 283.94 49.74 L 281.44 48.73 L 279.15 48.26 L 276.81 47.26" fill="none" stroke="black" stroke-width="1"/>
  <path d="M 277.07 50.59 L 270.34 50.29" fill="none" stroke="black" stroke-width="1"/>
  <path d="M 270.28 47.15 L 267.63 47.79 L 265.00 48.05 L 262.37 48.84 L 259.58 49.16 L 256.69 50.00 L 254.27 50.29" fill="none" stroke="black" stroke-width="1"/>
  <path d="M 257.91 54.56 L 264.08 52.99" fill="none" stroke="black" stroke-width="1"/>
  <path d="M 261.33 50.63 L 259.75 56.48" fill="none" stroke="black" stroke-width="1"/>
  <path d="M 251.25 53.19 L 244.74 54.20" fill="none" stroke="black" stroke-width="1"/>
  <path d="M 251.21 60.21 L 253.93 59.61 L 256.57 59.37 L 259.19 58.75 L 262.14 58.12 L 264.51 57.52 L 267.28 56.97" fill="none" stroke="black" stroke-width="1"/>
  <path d="M 324.81 85.72 L 318.86 84.91 L 312.84 84.13 L 306.75 83.38 L 300.72 82.45 L 294.74 81.63 L 288.81 80.83 L 282.69 79.97 L 276.75 79.26" fill="none" stroke="black" stroke-width="1"/>
  <path d="M 369.85 76.48 L 375.93 76.12" fill="none" stroke="black" stroke-width="1"/>
  <path d="M 434.09 89.12 L 440.68 88.30" fill="none" stroke="black" stroke-width="1"/>
  <path d="M 501.42 95.19 L 507.27 95.47 L 513.02 95.85 L 518.90 96.14 L 524.69 96.36 L 530.59 96.78 L 536.35 97.07 L 542.22 97.26 L 548.07 97.60 L 553.92 97.88 L 559.76 98.08 L 565.57 98.46" fill="none" stroke="black" stroke-width="1"/>
  <path d="M 552.81 105.07 L 546.10 104.73" fill="none" stroke="black" stroke-width="1"/>
  <path d="M 549.49 165.82 L 548.08 165.64 L 546.66 165.63 L 545.46 165.54 L 544.40 165.42 L 543.42 165.27 L 542.45 165.18 L 541.44 164.99 L 540.59 164.94 L 539.60 164.86 L 538.56 164.71 L 537.28 164.59 L 536.14 164.50 L 534.51 164.48 L 533.07 164.34 L 530.99 164.31 L 529.11 164.22 L 526.50 164.26 L 524.03 164.18 L 520.84 164.15 L 517.57 164.21 L 513.37 164.32 L 509.16 164.37 L 503.99 164.59 L 498.70 164.63 L 492.79 164.90 L 486.72 164.99 L 482.44 165.15 L 478.01 165.34 L 473.77 165.41 L 469.25 165.48 L 464.79 165.63 L 460.36 165.85 L 456.01 166.05 L 451.39 166.12 L 447.04 166.30 L 440.62 166.49 L 434.32 166.71 L 428.53 166.86 L 422.74 167.07 L 417.80 167.22 L 412.84 167.34 L 409.07 167.49 L 405.14 167.50 L 402.35 167.45 L 399.63 167.54 L 397.73 167.52 L 395.76 167.49 L 394.48 167.50 L 393.24 167.38 L 392.53 167.23 L 391.79 167.22 L 391.38 167.21 L 391.10 167.02 L 390.97 166.96 L 390.89 166.80 L 390.81 166.64 L 390.88 166.56 L 390.79 166.40 L 390.77 166.33 L 390.48 166.25 L 390.28 166.12 L 389.78 165.95 L 389.11 165.94" fill="none" stroke="black" stroke-width="1"/>
  <path d="M 376.15 203.45 L 369.95 205.32" fill="none" stroke="black" stroke-width="1"/>
  <path d="M 350.59 197.16 L 344.21 198.14" fill="none" stroke="black" stroke-width="1"/>
  <path d="M 343.91 213.35 L 337.48 214.10" fill="none" stroke="black" stroke-width="1"/>
  <path d="M 337.33 214.36 L 344.16 214.15" fill="none" stroke="black" stroke-width="1"/>
  <path d="M 312.20 214.19 L 305.95 213.62" fill="none" stroke="black" stroke-width="1"/>
  <path d="M 295.36 232.05 L 290.03 228.53" fill="none" stroke="black" stroke-width="1"/>
  <path d="M 266.27 226.88 L 268.26 232.91" fill="none" stroke="black" stroke-width="1"/>
  <path d="M 261.52 249.15 L 260.22 243.09" fill="none" stroke="black" stroke-width="1"/>
  <path d="M 259.46 242.75 L 261.81 249.16" fill="none" stroke="black" stroke-width="1"/>
  <path d="M 269.52 259.23 L 271.15 265.28" fill="none" stroke="black" stroke-width="1"/>
  <path d="M 282.28 265.56 L 284.19 271.57" fill="none" stroke="black" stroke-width="1"/>
  <path d="M 300.34 266.35 L 304.58 271.15" fill="none" stroke="black" stroke-width="1"/>
  <path d="M 321.97 261.76 L 328.21 262.69" fill="none" stroke="black" stroke-width="1"/>
  <path d="M 327.81 264.47 L 322.54 260.06" fill="none" stroke="black" stroke-width="1"/>
  <path d="M 327.87 246.16 L 334.23 245.83" fill="none" stroke="black" stroke-width="1"/>
  <path d="M 360.33 235.61 L 354.12 238.00" fill="none" stroke="black" stroke-width="1"/>
  <path d="M 331.23 284.09 L 337.56 284.52" fill="none" stroke="black" stroke-width="1"/>
  <path d="M 317.36 296.44 L 313.03 291.85" fill="none" stroke="black" stroke-width="1"/>
  <path d="M 307.51 307.29 L 309.88 313.16" fill="none" stroke="black" stroke-width="1"/>
  <path d="M 310.18 313.51 L 307.58 307.57" fill="none" stroke="black" stroke-width="1"/>
  <path d="M 241.77 267.25 L 247.43 269.80" fill="none" stroke="black" stroke-width="1"/>
  <path d="M 275.77 291.41 L 277.71 297.54" fill="none" stroke="black" stroke-width="1"/>
  <path d="M 285.32 306.99 L 287.22 313.31" fill="none" stroke="black" stroke-width="1"/>
  <path d="M 298.37 339.25 L 300.34 345.15" fill="none" stroke="black" stroke-width="1"/>
  <path d="M 293.74 361.47 L 291.67 355.50" fill="none" stroke="black" stroke-width="1"/>
  <path d="M 291.87 355.38 L 293.67 361.87" fill="none" stroke="black" stroke-width="1"/>
  <path d="M 316.69 330.24 L 320.42 335.28" fill="none" stroke="black" stroke-width="1"/>
  <path d="M 389.04 406.55 L 390.20 400.31 L 391.47 394.28 L 392.84 387.99 L 393.92 381.82 L 395.22 375.64 L 396.44 369.53 L 397.80 363.32 L 398.91 357.25 L 400.19 351.04 L 401.43 344.91 L 402.74 338.75 L 403.92 332.50 L 405.12 326.43 L 406.36 320.11 L 407.63 313.97 L 408.75 307.84 L 410.06 301.63 L 411.29 295.58 L 412.53 289.39 L 413.75 283.24 L 415.12 276.91 L 416.26 270.89 L 417.60 264.69 L 418.66 258.51 L 420.01 252.31 L 421.15 246.12 L 422.48 239.93 L 423.62 233.80 L 425.03 227.68 L 426.09 221.50 L 427.47 215.33 L 428.59 209.04 L 429.89 202.92 L 431.11 196.71 L 432.27 190.61 L 433.68 184.40 L 434.88 178.29 L 436.04 172.00 L 437.32 165.91" fill="none" stroke="black" stroke-width="1"/>
  <path d="M 501.36 165.94 L 503.17 171.99 L 504.93 178.05 L 506.62 184.15 L 508.29 190.15 L 510.07 196.29 L 511.76 202.46 L 513.59 208.42 L 515.23 214.61 L 516.97 220.70 L 518.82 226.61 L 520.46 232.79 L 522.20 238.81 L 523.90 244.88 L 525.59 251.07 L 527.36 257.14 L 529.10 263.21 L 530.98 269.13 L 532.65 275.29 L 534.40 281.38 L 536.15 287.36 L 537.93 293.49 L 539.61 299.62 L 541.23 305.73 L 543.12 311.72 L 544.79 317.74 L 546.52 323.82 L 548.29 329.90 L 550.08 336.05 L 551.78 342.02 L 553.56 348.16 L 555.29 354.22 L 556.92 360.40 L 558.75 366.46 L 560.35 372.39 L 562.25 378.56 L 563.92 384.71 L 565.65 390.68" fill="none" stroke="black" stroke-width="1"/>
  <path d="M 565.72 390.61 L 567.45 384.49 L 569.14 378.48 L 570.88 372.32 L 572.76 366.38 L 574.46 360.31 L 576.06 354.21 L 577.85 348.18 L 579.64 342.02 L 581.39 336.02 L 583.16 329.90 L 584.81 323.88 L 586.46 317.73 L 588.25 311.61 L 589.95 305.57 L 591.80 299.45 L 593.43 293.48 L 595.15 287.34 L 597.04 281.37 L 598.76 275.18 L 600.52 269.17 L 602.25 263.12 L 603.83 257.00 L 605.54 251.01 L 607.36 244.93 L 609.06 238.92 L 610.82 232.75 L 612.49 226.60 L 614.32 220.64 L 616.06 214.59 L 617.70 208.54 L 619.58 202.43 L 621.20 196.36 L 622.95 190.29 L 624.65 184.10 L 626.49 178.08 L 628.14 172.04 L 629.92 165.98" fill="none" stroke="black" stroke-width="1"/>
  <path d="M 574.94 228.79 L 568.81 231.57" fill="none" stroke="black" stroke-width="1"/>
  <path d="M 568.77 246.19 L 562.45 246.47" fill="none" stroke="black" stroke-width="1"/>
  <path d="M 556.26 260.47 L 561.48 264.12" fill="none" stroke="black" stroke-width="1"/>
  <path d="M 554.16 271.34 L 550.85 266.16" fill="none" stroke="black" stroke-width="1"/>
  <path d="M 532.89 265.35 L 534.59 271.27" fill="none" stroke="black" stroke-width="1"/>
  <path d="M 553.99 275.57 L 557.56 281.15" fill="none" stroke="black" stroke-width="1"/>
  <path d="M 548.77 291.16 L 550.72 297.19" fill="none" stroke="black" stroke-width="1"/>
  <path d="M 550.69 297.33 L 548.37 291.43" fill="none" stroke="black" stroke-width="1"/>
  <path d="M 542.14 306.96 L 544.27 313.01" fill="none" stroke="black" stroke-width="1"/>
  <path d="M 533.57 342.44 L 532.40 336.07 L 531.21 329.89 L 530.19 323.61 L 528.88 317.18 L 527.77 310.93 L 526.72 304.54 L 525.44 298.26 L 524.37 292.08 L 523.25 285.72 L 521.99 279.36 L 520.96 273.04 L 519.80 266.70 L 518.61 260.55 L 517.49 254.14 L 516.35 247.96 L 515.21 241.63 L 514.04 235.24 L 512.81 229.02 L 511.66 222.70 L 510.62 216.26 L 509.51 210.08 L 508.26 203.79 L 507.06 197.47 L 506.02 191.08 L 504.77 184.86 L 503.69 178.53 L 502.57 172.16 L 501.37 165.90" fill="none" stroke="black" stroke-width="1"/>
  <path d="M 501.43 165.90 L 565.63 390.60" fill="none" stroke="black" stroke-width="1"/>
  <path d="M 565.63 390.60 L 629.83 165.90" fill="none" stroke="black" stroke-width="1"/>
  <path d="M 629.77 165.87 L 628.76 172.05 L 627.57 178.21 L 626.49 184.58 L 625.52 190.72 L 624.50 197.01 L 623.44 203.07 L 622.27 209.36 L 621.26 215.47 L 620.07 221.68 L 619.13 227.87 L 618.03 234.13 L 616.86 240.39 L 615.83 246.62 L 614.82 252.71 L 613.68 259.04 L 612.62 265.17 L 611.59 271.40 L 610.51 277.54 L 609.37 283.82 L 608.33 290.12 L 607.29 296.34 L 606.17 302.50 L 605.14 308.60 L 604.18 314.80 L 602.97 321.02 L 602.00 327.37 L 600.90 333.43 L 599.86 339.64 L 598.86 345.98 L 597.71 352.14" fill="none" stroke="black" stroke-width="1"/>
  <path d="M 582.60 358.98 L 580.56 365.06" fill="none" stroke="black" stroke-width="1"/>
  <path d="M 568.62 364.76 L 562.18 364.63" fill="none" stroke="black" stroke-width="1"/>
  <path d="M 548.90 355.58 L 550.52 361.60" fill="none" stroke="black" stroke-width="1"/>
  <path d="M 546.37 384.18 L 565.63 380.97" fill="none" stroke="black" stroke-width="1"/>
  <path d="M 565.63 380.97 L 584.89 384.18" fill="none" stroke="black" stroke-width="1"/>
  <path d="M 652.19 509.89 L 658.67 508.55" fill="none" stroke="black" stroke-width="1"/>
  <path d="M 665.12 534.39 L 658.66 535.90" fill="none" stroke="black" stroke-width="1"/>
  <path d="M 632.55 543.84 L 626.74 545.08" fill="none" stroke="black" stroke-width="1"/>
  <path d="M 594.69 519.76 L 601.33 518.13" fill="none" stroke="black" stroke-width="1"/>
  <path d="M 600.55 517.87 L 594.38 519.65" fill="none" stroke="black" stroke-width="1"/>
  <path d="M 552.75 502.63 L 546.43 503.64" fill="none" stroke="black" stroke-width="1"/>
  <path d="M 536.64 528.25 L 530.56 529.52" fill="none" stroke="black" stroke-width="1"/>
  <path d="M 488.69 543.79 L 482.46 545.51" fill="none" stroke="black" stroke-width="1"/>
  <path d="M 453.18 560.54 L 451.49 561.34 L 449.85 562.28 L 447.98 563.17 L 446.24 564.11 L 444.30 564.98 L 442.75 566.11 L 440.87 566.94 L 439.21 568.04 L 437.51 569.17 L 435.52 570.32 L 434.08 571.34 L 432.28 572.16 L 430.36 572.94 L 428.79 573.93 L 427.07 574.91 L 425.23 575.55 L 423.77 576.23 L 421.90 577.23 L 420.09 577.68 L 418.62 578.48 L 416.79 578.92 L 414.87 579.07 L 413.45 579.40 L 411.75 579.80 L 409.96 580.00 L 408.61 579.82 L 406.79 579.75 L 404.99 579.50 L 403.37 579.09 L 401.91 578.88 L 400.52 578.61 L 398.57 578.10 L 397.08 577.40 L 395.53 576.61 L 393.99 576.05 L 392.29 575.48 L 390.67 574.76 L 389.20 574.00 L 387.52 573.31 L 386.19 572.72 L 384.19 571.89 L 382.76 571.08 L 381.30 570.39 L 379.35 569.86 L 377.99 568.98 L 376.46 568.52 L 374.63 567.54 L 373.19 567.18" fill="none" stroke="black" stroke-width="1"/>
  <path d="M 402.10 566.79 L 408.18 567.26" fill="none" stroke="black" stroke-width="1"/>
  <path d="M 408.26 566.61 L 402.16 568.03" fill="none" stroke="black" stroke-width="1"/>
</svg>