<svg xmlns="http://www.w3.org/2000/svg" width="800" height="600" viewBox="0 0 800 600">
  <rect width="100%" height="100%" fill="white"/>
  <path d="M 108.16 464.81 L 111.65 459.51" fill="none" stroke="black" stroke-width="1"/>
  <path d="M 128.52 468.46 L 132.60 472.62 L 136.72 476.75 L 140.77 480.82" fill="none" stroke="black" stroke-width="1"/>
  <path d="M 134.69 487.03 L 138.80 491.06 L 142.91 495.22 L 146.98 499.32" fill="none" stroke="black" stroke-width="1"/>
  <path d="M 146.04 498.01 L 141.37 493.80" fill="none" stroke="black" stroke-width="1"/>
  <path d="M 140.86 493.12 L 141.49 489.11 L 142.28 485.24 L 142.89 481.21 L 143.47 477.14 L 144.08 472.94 L 144.54 468.92 L 144.98 464.76 L 145.58 460.66 L 146.22 456.64 L 146.69 452.47 L 147.37 448.53 L 147.94 444.44 L 148.70 440.49 L 149.45 436.65 L 150.28 432.85 L 151.29 429.21 L 152.47 425.77 L 153.57 422.20 L 155.06 418.87 L 156.38 415.72 L 158.15 412.78 L 159.77 409.83 L 161.73 407.08 L 163.69 404.47 L 165.88 402.06 L 168.04 399.54 L 170.39 397.22 L 172.73 394.96 L 175.19 392.75 L 177.67 390.63 L 180.27 388.61 L 182.76 386.45 L 185.32 384.43 L 187.92 382.33 L 190.42 380.25 L 193.04 378.19 L 195.47 376.11 L 198.04 373.92 L 200.49 371.76 L 202.83 369.43" fill="none" stroke="black" stroke-width="1"/>
  <path d="M 202.74 369.37 L 198.77 373.14 L 194.64 376.75 L 190.41 380.25 L 186.12 383.70 L 181.83 387.15 L 177.60 390.65 L 173.47 394.26 L 169.50 398.03 L 165.75 402.01 L 162.27 406.26 L 159.10 410.84 L 156.32 415.79 L 153.95 421.16 L 151.95 426.90 L 150.28 432.96 L 148.87 439.29 L 147.68 445.83 L 146.65 452.54 L 145.73 459.35 L 144.86 466.22 L 143.99 473.09 L 143.07 479.90 L 142.04 486.61 L 140.85 493.16" fill="none" stroke="black" stroke-width="1"/>
  <path d="M 140.85 493.16 L 138.27 488.00 L 135.69 482.84 L 133.11 477.68 L 130.53 472.53 L 127.95 467.37 L 125.37 462.21 L 122.80 457.05 L 120.22 451.90 L 117.64 446.74 L 115.06 441.58 L 112.48 436.42 L 109.90 431.27 L 107.32 426.11 L 104.74 420.95 L 102.16 415.79 L 99.59 410.63 L 97.01 405.48 L 94.43 400.32 L 91.85 395.16 L 89.27 390.00 L 86.69 384.85 L 84.11 379.69 L 81.53 374.53 L 78.96 369.37" fill="none" stroke="black" stroke-width="1"/>
  <path d="M 78.96 369.44 L 80.49 372.44 L 82.05 375.62 L 83.54 378.62 L 85.15 381.79 L 86.66 384.94 L 88.24 387.96 L 89.76 391.10 L 91.33 394.14 L 92.85 397.22 L 94.42 400.31 L 95.95 403.39 L 97.51 406.48 L 99.03 409.61 L 100.60 412.66 L 102.18 415.66 L 103.70 418.84 L 105.20 421.90 L 106.79 425.01 L 108.36 428.07 L 109.88 431.20 L 111.42 434.32 L 112.97 437.38 L 114.42 440.40 L 116.06 443.57 L 117.67 446.69 L 119.14 449.76 L 120.61 452.94 L 122.23 455.96 L 123.76 459.14 L 125.32 462.15 L 126.93 465.21 L 128.41 468.35 L 129.92 471.46 L 131.50 474.54 L 133.09 477.67 L 134.58 480.74 L 136.04 483.77 L 137.67 486.93 L 139.18 490.00 L 140.76 493.12" fill="none" stroke="black" stroke-width="1"/>
  <path d="M 140.00 492.25 L 135.73 487.78" fill="none" stroke="black" stroke-width="1"/>
  <path d="M 153.26 468.45 L 151.25 464.27 L 149.06 460.30 L 147.03 456.10" fill="none" stroke="black" stroke-width="1"/>
  <path d="M 156.32 415.83 L 159.34 411.12 L 162.44 406.58" fill="none" stroke="black" stroke-width="1"/>
  <path d="M 148.37 396.31 L 152.05 391.33" fill="none" stroke="black" stroke-width="1"/>
  <path d="M 142.15 397.45 L 139.11 402.93" fill="none" stroke="black" stroke-width="1"/>
  <path d="M 137.35 404.98 L 131.97 408.04" fill="none" stroke="black" stroke-width="1"/>
  <path d="M 133.47 409.31 L 136.39 403.95" fill="none" stroke="black" stroke-width="1"/>
  <path d="M 126.60 413.39 L 123.66 418.62" fill="none" stroke="black" stroke-width="1"/>
  <path d="M 127.87 417.62 L 122.87 413.97" fill="none" stroke="black" stroke-width="1"/>
  <path d="M 115.93 403.54 L 116.39 397.01" fill="none" stroke="black" stroke-width="1"/>
  <path d="M 114.01 398.03 L 118.17 402.61" fill="none" stroke="black" stroke-width="1"/>
  <path d="M 121.07 397.21 L 123.59 391.44" fill="none" stroke="black" stroke-width="1"/>
  <path d="M 127.16 390.60 L 130.01 385.51" fill="none" stroke="black" stroke-width="1"/>
  <path d="M 106.76 224.27 L 113.01 223.71" fill="none" stroke="black" stroke-width="1"/>
  <path d="M 125.29 248.67 L 123.98 248.90 L 122.82 248.97 L 121.56 249.21 L 120.33 249.27 L 119.09 249.37 L 117.82 249.57 L 116.49 249.69 L 115.32 249.87 L 114.08 250.09 L 112.82 250.17 L 111.65 250.23 L 110.34 250.47 L 109.06 250.58 L 107.87 250.78 L 106.61 250.97 L 105.44 251.08 L 104.33 251.19 L 103.05 251.38 L 101.92 251.48 L 100.71 251.69 L 99.54 251.79 L 98.41 252.00 L 97.30 252.08 L 96.17 252.31 L 95.10 252.45 L 93.97 252.62 L 92.88 252.69 L 91.79 252.94 L 90.70 253.09 L 89.64 253.25 L 88.64 253.40 L 87.50 253.57 L 86.42 253.78 L 85.37 253.88 L 84.28 253.97 L 83.24 254.20 L 82.15 254.32 L 81.09 254.51 L 80.06 254.61 L 78.93 254.83" fill="none" stroke="black" stroke-width="1"/>
  <path d="M 48.06 261.07 L 54.29 261.09 L 60.45 261.08 L 66.58 261.01 L 72.76 260.98 L 78.94 261.01 L 85.20 261.01 L 91.29 261.07 L 97.53 261.14 L 103.78 261.13 L 109.96 261.07 L 116.22 261.00 L 122.37 261.11 L 128.47 261.14 L 134.62 261.15 L 140.92 260.98 L 147.01 261.08 L 153.28 261.13 L 159.50 261.12 L 165.57 261.16 L 171.74 261.12 L 178.09 261.00 L 184.14 261.02 L 190.38 261.06 L 196.64 261.15 L 202.70 261.00 L 209.01 261.12 L 215.16 261.14 L 221.42 261.05 L 227.54 261.14 L 233.70 261.09 L 239.95 261.05 L 246.07 261.16 L 252.34 261.08 L 258.46 261.07 L 264.68 261.05 L 270.80 261.12 L 276.97 261.00 L 283.21 261.15 L 289.43 261.17 L 295.50 261.15 L 301.77 261.13 L 307.90 261.11 L 314.14 261.17 L 320.42 261.12 L 326.48 261.00 L 332.65 261.14 L 338.98 260.99 L 345.08 261.15 L 351.21 261.01 L 357.46 261.14 L 363.65 261.07 L 369.79 261.03 L 376.04 261.10 L 382.17 261.13 L 388.47 261.00 L 394.65 261.10 L 400.88 261.07 L 406.95 261.15 L 413.13 261.05 L 419.37 261.03 L 425.60 261.14 L 431.70 261.00 L 437.83 261.09 L 444.11 261.10 L 450.36 261.16 L 456.42 261.15 L 462.64 260.99 L 468.86 261.00 L 474.97 261.06 L 481.31 261.07 L 487.35 261.17 L 493.61 261.12 L 499.82 261.17 L 506.03 261.08 L 512.13 261.00 L 518.37 261.11 L 524.58 261.09 L 530.72 261.00 L 536.96 261.06 L 543.15 261.05 L 549.36 261.05 L 555.53 261.04 L 561.74 261.05 L 567.90 261.12 L 574.00 261.12 L 580.18 261.17 L 586.54 261.03 L 592.64 261.11 L 598.78 261.10 L 605.00 261.05 L 611.20 261.06 L 617.45 261.15 L 623.51 261.16 L 629.85 261.05 L 636.02 261.08 L 642.11 261.01 L 648.25 261.16 L 654.48 261.15 L 660.75 261.01 L 666.90 261.09" fill="none" stroke="black" stroke-width="1"/>
  <path d="M 636.01 251.73 L 634.51 251.97 L 632.90 252.04 L 631.38 252.21 L 629.80 252.34 L 628.24 252.58 L 626.70 252.64 L 625.06 252.88 L 623.59 252.95 L 622.07 253.10 L 620.49 253.25 L 618.97 253.40 L 617.38 253.56 L 615.83 253.67 L 614.28 253.86 L 612.80 253.98 L 611.18 254.17 L 609.59 254.34 L 608.08 254.48 L 606.54 254.59 L 604.98 254.78 L 603.41 254.87 L 601.88 255.09 L 600.35 255.17 L 598.78 255.40 L 597.22 255.58 L 595.69 255.72 L 594.06 255.83 L 592.59 256.03 L 591.03 256.27 L 589.50 256.34 L 587.92 256.51 L 586.40 256.66 L 584.77 256.89 L 583.31 256.97 L 581.68 257.05 L 580.22 257.28 L 578.72 257.37 L 577.12 257.60 L 575.49 257.83 L 574.03 257.91" fill="none" stroke="black" stroke-width="1"/>
  <path d="M 608.18 214.54 L 602.08 214.90" fill="none" stroke="black" stroke-width="1"/>
  <path d="M 561.71 208.30 L 555.38 208.76" fill="none" stroke="black" stroke-width="1"/>
  <path d="M 558.70 262.86 L 557.47 262.88 L 556.20 262.78 L 555.01 262.67 L 553.68 262.69 L 552.33 262.70 L 551.14 262.61 L 549.80 262.60 L 548.61 262.53 L 547.31 262.48 L 546.07 262.44 L 544.83 262.41 L 543.56 262.36 L 542.23 262.26 L 541.07 262.27 L 539.80 262.15 L 538.61 262.18 L 537.47 262.20 L 536.20 262.09 L 535.08 262.03 L 533.84 262.00 L 532.72 261.97 L 531.54 261.91 L 530.36 261.82 L 529.30 261.81 L 528.28 261.76 L 527.10 261.71 L 526.11 261.70 L 524.93 261.60 L 523.86 261.59 L 522.79 261.50 L 521.69 261.45 L 520.67 261.39 L 519.58 261.27 L 518.55 261.29 L 517.43 261.28 L 516.43 261.18 L 515.30 261.05 L 514.29 261.08 L 513.23 260.96 L 512.14 260.98" fill="none" stroke="black" stroke-width="1"/>
  <path d="M 499.81 233.15 L 493.57 233.42" fill="none" stroke="black" stroke-width="1"/>
  <path d="M 468.63 210.55 L 462.81 212.42" fill="none" stroke="black" stroke-width="1"/>
  <path d="M 428.72 205.43 L 425.64 210.63 L 422.34 215.67 L 419.28 220.87" fill="none" stroke="black" stroke-width="1"/>
  <path d="M 416.33 220.84 L 422.60 220.87" fill="none" stroke="black" stroke-width="1"/>
  <path d="M 420.90 218.14 L 417.83 223.51" fill="none" stroke="black" stroke-width="1"/>
  <path d="M 388.49 263.57 L 386.85 263.57 L 385.38 263.45 L 383.78 263.44 L 382.27 263.33 L 380.74 263.30 L 379.15 263.21 L 377.67 263.13 L 376.04 263.09 L 374.41 262.98 L 372.93 262.98 L 371.40 263.00 L 369.81 262.86 L 368.34 262.78 L 366.70 262.74 L 365.18 262.68 L 363.60 262.62 L 362.13 262.61 L 360.49 262.50 L 358.99 262.50 L 357.39 262.38 L 355.89 262.29 L 354.29 262.26 L 352.75 262.28 L 351.20 262.13 L 349.70 262.08 L 348.11 262.01 L 346.50 261.87 L 345.02 261.89 L 343.57 261.87 L 341.93 261.76 L 340.45 261.76 L 338.84 261.64 L 337.33 261.65 L 335.76 261.51 L 334.17 261.43 L 332.67 261.39 L 331.08 261.26 L 329.59 261.26 L 328.12 261.29 L 326.50 261.14" fill="none" stroke="black" stroke-width="1"/>
  <path d="M 354.35 227.29 L 360.50 226.65" fill="none" stroke="black" stroke-width="1"/>
  <path d="M 318.93 174.45 L 317.38 176.00 L 315.83 174.45 L 317.38 172.91 L 318.93 174.45" fill="none" stroke="black" stroke-width="1"/>
  <path d="M 310.99 168.20 L 309.48 170.61 L 307.78 173.29 L 306.70 176.17 L 304.96 178.51 L 303.46 181.42 L 302.07 183.67 L 300.63 186.40 L 299.11 189.21 L 297.44 191.78 L 296.34 194.16 L 294.84 196.87 L 292.94 199.67 L 291.50 202.19 L 290.09 204.84 L 288.85 207.28 L 287.28 210.09 L 285.57 212.49 L 284.01 215.33 L 282.90 217.60 L 281.29 220.29 L 279.62 223.08 L 278.23 225.62 L 276.48 228.17 L 275.44 230.74 L 273.60 233.65 L 272.23 236.03 L 270.54 238.57 L 269.13 241.39 L 267.64 244.05 L 265.97 246.90 L 264.90 249.12 L 263.30 251.94 L 261.90 254.69 L 260.27 257.36 L 258.84 259.93 L 257.29 262.61 L 255.43 264.96 L 254.14 268.02 L 252.62 270.30 L 250.97 272.97 L 249.82 275.96 L 248.23 278.16 L 246.81 280.99 L 244.97 283.77 L 243.60 286.44 L 242.15 288.94 L 240.63 291.53 L 238.98 294.13 L 237.82 296.78 L 236.08 299.63 L 234.42 302.22 L 233.18 304.84 L 231.62 307.36 L 229.83 310.19 L 228.63 312.70 L 226.87 315.71 L 225.60 318.15 L 223.72 320.82 L 222.25 323.75 L 221.04 326.21 L 219.19 329.04 L 217.65 331.46 L 216.41 334.19 L 214.87 336.99 L 213.29 339.48 L 211.87 342.33 L 210.39 344.75 L 208.77 347.73 L 207.14 350.31 L 205.59 353.06 L 204.15 355.71 L 202.74 358.28 L 201.10 360.85 L 199.52 363.49 L 198.08 366.21 L 196.85 368.67 L 195.30 371.28 L 193.79 373.71 L 192.26 376.44 L 190.49 378.97 L 189.07 381.40 L 187.80 384.29 L 186.47 387.01 L 184.94 389.42 L 183.08 392.01 L 181.73 394.75 L 180.43 397.34 L 178.88 400.03 L 177.26 402.64 L 175.90 404.90 L 174.19 407.56 L 173.08 410.44 L 171.40 412.62 L 170.05 415.44 L 168.56 418.12 L 166.94 420.59 L 165.54 423.11 L 163.79 425.97 L 162.53 428.46 L 160.81 431.10 L 159.49 433.84 L 157.84 436.50 L 156.37 438.84 L 154.86 441.63 L 153.64 444.53 L 151.96 446.75 L 150.39 449.80 L 149.02 452.04 L 147.59 454.93 L 145.99 457.75 L 144.64 460.13 L 143.16 462.71 L 141.18 465.50 L 139.96 468.04 L 138.61 470.87 L 136.68 473.28 L 135.57 476.12 L 134.02 478.75 L 132.38 481.53 L 130.86 484.21 L 129.35 486.75 L 127.84 489.28 L 126.54 492.04 L 124.89 494.24 L 123.43 496.99 L 121.71 499.73 L 120.64 502.03 L 119.11 504.49 L 117.54 507.16 L 116.14 509.66 L 114.43 512.24 L 113.12 514.82 L 111.84 517.82 L 110.25 520.18 L 108.51 522.57 L 107.08 525.44 L 105.86 527.80 L 104.49 530.25 L 102.65 532.93 L 101.19 535.41 L 99.91 538.21 L 98.46 540.91 L 96.95 543.76 L 95.26 546.40 L 94.02 549.05 L 92.23 551.41 L 90.55 554.02 L 89.32 556.92 L 87.49 559.74 L 86.44 562.26 L 84.88 564.90 L 83.24 567.57 L 81.64 570.15 L 80.43 572.45 L 78.62 574.96 L 77.15 577.45 L 75.94 580.00 L 77.19 577.50 L 78.72 575.01 L 80.27 572.09 L 81.68 569.57 L 83.45 566.83 L 84.75 564.37 L 86.34 562.00 L 87.54 559.27 L 89.13 556.87 L 90.45 554.22 L 91.93 551.97 L 93.19 549.14 L 94.69 546.72 L 96.30 544.17 L 97.66 541.90 L 98.76 539.13 L 100.25 536.76 L 101.95 534.44 L 103.18 531.64 L 104.91 529.36 L 106.12 526.66 L 107.58 524.06 L 109.10 521.36 L 110.32 518.87 L 112.22 516.10 L 113.37 513.66 L 114.85 511.16 L 116.43 508.52 L 117.78 505.62 L 119.62 502.97 L 120.81 500.74 L 122.18 498.11 L 123.88 495.53 L 125.44 492.84 L 126.60 490.10 L 128.20 487.70 L 129.69 485.11 L 131.41 482.59 L 132.62 479.94 L 134.11 476.96 L 135.80 474.32 L 137.15 471.96 L 138.69 469.29 L 140.19 466.62 L 141.73 463.99 L 143.45 461.08 L 144.79 458.65 L 145.98 455.77 L 147.54 453.48 L 149.11 450.46 L 151.00 448.08 L 152.36 445.31 L 153.87 442.47 L 155.42 440.05 L 156.60 437.14 L 158.23 434.88 L 160.06 431.85 L 161.34 429.58 L 163.03 426.79 L 164.28 424.09 L 165.96 421.13 L 167.30 418.69 L 168.76 416.11 L 170.48 413.28 L 171.70 410.51 L 173.40 407.92 L 174.95 405.37 L 176.45 402.77 L 177.98 400.35 L 179.48 397.28 L 180.90 394.98 L 182.32 392.45 L 183.95 389.47 L 185.56 387.23 L 186.91 384.18 L 188.27 381.75 L 189.72 379.31 L 191.09 376.68 L 192.95 373.93 L 194.23 371.46 L 195.95 368.60 L 197.38 365.85 L 198.62 363.27 L 200.35 360.58 L 201.75 358.01 L 203.03 355.55 L 204.61 353.07 L 206.01 350.49 L 207.82 347.95 L 209.42 345.23 L 210.81 342.50 L 212.37 339.77 L 213.89 337.23 L 215.34 334.79 L 216.62 331.98 L 217.97 329.51 L 219.77 326.64 L 221.36 323.84 L 222.68 321.48 L 224.13 318.77 L 225.76 315.71 L 227.21 313.10 L 228.63 310.56 L 230.50 307.87 L 231.90 305.04 L 233.49 302.53 L 234.67 299.77 L 236.58 297.29 L 237.98 294.42 L 239.38 291.92 L 240.86 289.11 L 242.32 286.20 L 243.95 283.55 L 245.78 281.05 L 246.84 278.37 L 248.78 275.70 L 249.90 273.17 L 251.70 270.13 L 252.98 267.82 L 254.53 264.90 L 256.23 262.43 L 257.66 259.53 L 259.26 256.89 L 260.63 254.29 L 262.42 251.45 L 263.79 249.16 L 265.34 246.25 L 267.01 243.81 L 268.20 240.98 L 269.74 238.31 L 271.41 235.46 L 272.94 233.18 L 274.21 230.19 L 276.05 227.55 L 277.49 225.09 L 278.78 222.45 L 280.13 219.93 L 281.65 217.26 L 283.48 214.36 L 284.73 211.93 L 286.44 208.97 L 287.85 206.41 L 289.50 203.75 L 290.85 201.27 L 292.29 198.51 L 294.02 195.81 L 295.53 193.15 L 297.12 190.73 L 298.52 188.06 L 299.96 185.20 L 301.55 182.54 L 303.02 180.02 L 304.61 177.17 L 306.08 174.57 L 307.27 172.00 L 308.95 169.17 L 310.59 166.76 L 311.87 164.32 L 313.27 161.74 L 314.88 158.65 L 316.48 156.13 L 317.68 153.40 L 319.57 150.76 L 320.72 148.29 L 322.26 145.65 L 323.67 143.05 L 325.26 140.51 L 326.90 137.93 L 328.29 135.07 L 329.97 132.59 L 331.51 129.84 L 332.67 127.31 L 334.10 124.56 L 335.83 122.01" fill="none" stroke="black" stroke-width="1"/>
  <path d="M 351.10 96.95 L 349.69 99.35 L 348.61 102.31 L 347.29 104.50 L 346.26 107.23 L 344.86 110.14 L 343.38 112.49 L 342.05 115.12 L 341.02 117.75 L 339.63 120.22 L 338.30 122.78 L 337.13 125.42 L 335.88 128.13" fill="none" stroke="black" stroke-width="1"/>
  <path d="M 328.03 131.55 L 324.59 136.82" fill="none" stroke="black" stroke-width="1"/>
  <path d="M 324.70 143.78 L 321.58 149.18" fill="none" stroke="black" stroke-width="1"/>
  <path d="M 292.41 152.98 L 292.62 149.80 L 293.01 147.23 L 293.03 143.91 L 293.39 140.89 L 293.63 138.02 L 294.23 135.01 L 294.53 132.15 L 294.82 129.06 L 294.90 126.24 L 295.05 123.48 L 295.50 120.21 L 295.81 117.55 L 295.84 114.57 L 296.44 111.41 L 296.81 108.63 L 296.82 105.55 L 297.30 102.78 L 297.72 99.81 L 297.84 96.79 L 298.11 93.79 L 298.40 90.78 L 298.59 87.79 L 298.89 84.88" fill="none" stroke="black" stroke-width="1"/>
  <path d="M 320.15 75.40 L 320.89 72.49 L 320.93 69.93 L 321.72 67.53 L 322.38 64.68 L 322.57 62.05 L 323.21 59.52 L 323.63 56.66" fill="none" stroke="black" stroke-width="1"/>
  <path d="M 332.74 56.99 L 329.93 57.00 L 326.62 56.63 L 323.60 56.70" fill="none" stroke="black" stroke-width="1"/>
  <path d="M 304.81 59.86 L 301.91 59.76 L 298.97 60.25 L 295.76 60.11" fill="none" stroke="black" stroke-width="1"/>
  <path d="M 295.72 60.07 L 296.81 62.79 L 297.72 65.00 L 298.54 67.70 L 299.75 70.58 L 300.67 72.98 L 301.55 75.50" fill="none" stroke="black" stroke-width="1"/>
  <path d="M 288.11 94.13 L 290.49 99.83" fill="none" stroke="black" stroke-width="1"/>
  <path d="M 280.56 93.87 L 279.71 87.83" fill="none" stroke="black" stroke-width="1"/>
  <path d="M 264.14 78.51 L 264.99 72.24" fill="none" stroke="black" stroke-width="1"/>
  <path d="M 254.89 72.15 L 255.97 66.08" fill="none" stroke="black" stroke-width="1"/>
  <path d="M 239.00 56.66 L 240.84 50.77" fill="none" stroke="black" stroke-width="1"/>
  <path d="M 231.68 44.68 L 229.58 50.44" fill="none" stroke="black" stroke-width="1"/>
  <path d="M 213.87 34.84 L 216.31 29.12" fill="none" stroke="black" stroke-width="1"/>
  <path d="M 204.10 20.00 L 201.46 25.65" fill="none" stroke="black" stroke-width="1"/>
  <path d="M 267.69 106.53 L 269.36 108.51 L 271.22 110.87 L 273.19 113.06 L 275.03 115.28 L 277.01 117.38 L 278.84 119.47 L 280.72 121.82 L 282.33 123.88 L 284.13 126.24 L 286.19 128.22" fill="none" stroke="black" stroke-width="1"/>
  <path d="M 324.40 112.69 L 322.84 118.59" fill="none" stroke="black" stroke-width="1"/>
  <path d="M 335.76 121.94 L 333.93 124.59 L 332.64 127.17 L 330.57 129.58 L 328.84 131.97 L 327.22 134.57 L 325.81 137.36 L 324.33 140.03 L 322.22 142.51 L 320.85 144.67 L 319.15 147.44 L 317.43 149.76 L 315.90 152.56 L 313.96 155.04 L 312.20 157.49 L 310.96 159.99 L 308.88 162.83 L 307.25 165.15 L 305.61 167.97 L 304.18 170.27 L 302.33 172.74 L 300.65 175.47 L 299.05 178.05 L 297.61 180.55 L 295.58 183.01 L 293.84 186.00 L 292.29 188.14 L 290.67 190.79 L 288.89 193.74 L 287.20 196.09 L 285.73 198.44 L 284.18 201.47 L 282.39 203.72 L 280.73 206.56 L 279.01 208.91 L 277.56 211.51 L 275.79 214.18 L 273.99 216.58 L 272.57 219.13 L 270.97 221.67 L 269.02 224.55 L 267.42 227.18 L 265.78 229.70 L 263.83 231.95 L 262.40 234.72 L 260.96 237.11 L 259.29 239.70 L 257.39 242.48 L 255.67 245.05 L 254.05 247.38 L 252.35 249.92 L 250.86 252.67 L 249.14 255.25 L 247.73 257.36 L 246.03 260.22 L 244.56 262.59 L 242.74 264.91 L 241.44 267.76 L 239.62 270.13 L 238.00 272.53 L 236.25 275.08 L 234.53 277.53 L 233.39 280.25 L 231.43 282.45 L 229.78 284.95 L 228.11 287.84 L 226.77 290.22 L 225.28 292.89 L 223.60 295.43 L 221.85 297.78 L 220.32 300.10 L 218.44 302.86 L 216.74 305.30 L 215.15 307.88 L 213.75 310.24 L 211.94 312.75 L 210.55 315.41 L 208.63 317.68 L 207.18 320.32 L 205.37 322.99 L 203.92 325.28 L 202.10 327.88 L 200.68 330.39 L 199.22 332.89 L 197.45 335.62 L 195.60 338.11 L 193.97 340.66 L 192.54 343.27 L 190.55 345.76 L 189.23 348.36 L 187.55 350.96 L 185.67 353.62 L 184.05 355.77 L 182.69 358.44 L 180.85 360.95 L 179.15 363.52 L 177.57 366.38 L 176.13 368.76 L 174.52 371.25 L 172.72 373.56 L 171.10 376.33 L 169.26 378.84 L 167.79 381.45 L 165.89 384.25 L 164.34 386.82 L 162.55 389.19 L 161.03 392.09 L 159.16 394.67 L 157.58 396.98 L 155.95 399.66 L 154.31 402.21 L 152.66 404.53 L 150.80 407.15 L 149.16 410.07 L 147.69 412.65 L 145.82 414.91 L 144.11 417.67 L 142.39 420.40 L 140.92 422.95 L 138.94 425.41 L 137.57 427.88 L 135.58 430.76 L 134.20 433.23 L 132.42 435.78 L 130.93 438.41 L 128.86 440.97 L 127.63 443.36 L 125.65 446.02 L 124.07 448.11 L 122.42 451.07 L 120.95 453.38 L 118.91 455.97 L 117.24 458.32 L 115.86 460.87 L 113.90 463.49 L 112.18 466.07 L 110.62 468.31 L 109.08 471.24 L 107.52 473.35 L 105.89 476.00 L 103.94 478.56 L 102.43 480.91 L 100.66 483.58 L 98.98 485.89 L 97.27 488.49 L 95.54 490.99 L 93.79 493.00 L 92.06 495.64 L 90.71 498.16 L 89.08 500.61 L 87.34 502.59 L 85.69 505.22 L 83.80 507.78 L 82.17 509.91 L 80.54 512.14 L 78.80 514.76 L 76.98 516.63 L 75.45 518.73 L 73.37 520.62 L 71.57 522.66 L 69.82 524.32 L 70.71 521.69 L 71.55 519.44 L 72.70 516.50 L 73.72 514.21 L 74.78 511.43 L 75.69 508.95 L 76.87 506.34 L 78.51 503.76 L 79.83 501.15 L 80.82 498.61 L 82.24 495.54 L 83.74 493.12 L 85.14 490.45 L 86.46 487.69 L 87.64 485.25 L 89.08 482.75 L 90.60 480.05 L 91.74 477.17 L 93.19 474.43 L 94.44 471.96 L 95.77 469.13 L 97.41 466.69 L 98.74 463.87 L 100.15 461.00 L 101.79 458.51 L 103.20 456.03 L 104.47 453.06 L 106.12 450.53 L 107.45 447.93 L 108.54 444.97 L 110.40 442.39 L 111.50 439.59 L 113.03 437.30 L 114.31 434.61 L 115.95 431.80 L 117.30 429.06 L 118.70 426.21 L 120.02 423.84 L 121.75 421.25 L 123.08 418.35 L 124.61 415.94 L 126.01 413.10 L 127.51 410.34 L 128.68 407.89 L 130.30 405.23 L 131.62 402.79 L 132.87 400.03 L 134.61 397.54 L 135.79 394.74 L 137.10 392.40 L 138.67 389.63 L 140.24 387.25 L 141.67 384.51 L 142.88 381.76 L 144.52 378.99 L 145.73 376.60 L 147.35 373.82 L 148.94 371.28 L 149.97 368.63 L 151.72 366.22 L 152.83 363.36 L 154.38 360.77 L 155.77 358.10 L 157.42 355.89 L 158.66 353.09 L 160.12 350.61 L 161.55 347.63 L 162.96 344.96 L 164.50 342.54 L 166.09 339.67 L 167.30 337.18 L 168.69 334.22 L 170.32 331.58 L 171.92 328.91 L 173.15 326.55 L 174.81 323.76 L 176.43 321.35 L 177.56 318.53 L 179.40 315.67 L 180.62 313.17 L 181.97 310.59 L 183.78 308.04 L 184.94 305.37 L 186.73 302.47 L 188.04 299.74 L 189.29 297.07 L 190.75 294.49 L 192.11 291.86 L 193.63 288.97 L 195.26 286.52 L 196.68 283.74 L 198.20 281.19 L 199.43 278.66 L 200.95 275.84 L 202.62 273.37 L 203.94 270.74 L 205.36 267.90 L 206.85 265.36 L 208.09 262.59 L 209.78 260.24 L 211.02 257.50 L 212.70 254.67 L 214.30 252.26 L 215.55 249.58 L 217.05 246.83 L 218.66 244.63 L 219.91 241.94 L 221.36 239.20 L 222.88 236.54 L 224.42 234.11 L 225.77 231.46 L 227.40 228.42 L 228.82 225.89 L 229.95 223.38 L 231.43 220.59 L 233.00 218.38 L 234.45 215.68 L 236.00 212.98 L 237.13 210.28 L 238.73 207.62 L 240.35 204.80 L 241.74 202.37 L 243.15 199.54 L 244.85 196.69 L 246.27 194.29 L 247.70 191.30 L 249.21 188.72 L 250.60 185.85 L 252.07 183.22 L 253.76 180.48 L 255.04 177.80 L 256.72 175.21 L 258.23 172.70 L 259.41 169.91 L 260.78 167.29 L 262.60 164.30 L 264.10 161.61 L 265.58 158.96 L 267.02 156.22 L 268.38 153.74 L 269.68 150.85 L 271.51 148.29 L 272.77 145.40 L 274.26 142.94 L 275.74 140.05 L 277.28 137.38 L 278.51 134.66 L 279.98 132.14 L 281.64 129.17 L 283.18 126.49 L 284.59 124.01 L 286.22 121.27 L 287.32 118.39 L 289.09 115.96 L 290.43 113.37 L 292.05 110.61 L 293.34 107.84 L 294.78 105.00 L 296.09 102.20 L 297.58 99.81 L 299.12 97.03 L 300.71 94.46 L 302.13 91.50 L 303.70 88.88 L 305.16 86.00 L 306.58 83.43 L 308.16 80.63 L 309.61 78.35 L 310.88 75.46" fill="none" stroke="black" stroke-width="1"/>
  <path d="M 311.03 75.17 L 309.16 77.68 L 307.97 80.24 L 305.90 83.07 L 304.57 85.71 L 303.04 87.93 L 301.25 90.48 L 299.66 93.40 L 297.82 95.61 L 296.13 98.58 L 294.85 100.93 L 292.90 103.70 L 291.55 106.12 L 289.62 108.52 L 288.05 111.15 L 286.36 113.79 L 284.58 116.22 L 283.24 119.24 L 281.65 121.81 L 279.74 124.44 L 278.39 126.80 L 276.46 129.30 L 275.08 131.80 L 273.27 134.58 L 271.70 137.11 L 270.08 139.74 L 268.50 142.30 L 266.84 144.70 L 264.95 147.64 L 263.53 150.25 L 261.58 152.90 L 260.36 155.27 L 258.56 157.73 L 256.67 160.46 L 255.13 163.16 L 253.59 165.59 L 252.08 168.42 L 250.39 171.12 L 248.51 173.49 L 247.01 176.21 L 245.03 178.89 L 243.58 181.20 L 242.15 184.05 L 240.52 186.60 L 238.74 189.12 L 236.92 191.55 L 235.34 194.12 L 233.62 196.99 L 231.99 199.46 L 230.42 202.25 L 228.57 204.60 L 227.05 207.37 L 225.35 209.78 L 223.98 212.25 L 222.08 215.07 L 220.72 217.55 L 219.04 220.03 L 217.41 222.64 L 215.82 225.02 L 214.08 227.74 L 212.29 230.33 L 211.12 232.96 L 209.37 235.26 L 207.82 237.96 L 205.96 240.30 L 204.25 243.06 L 202.76 245.26 L 201.11 247.84 L 199.41 250.70 L 198.04 253.12 L 196.26 255.72 L 194.65 258.03 L 193.07 260.70 L 191.32 263.16 L 189.95 265.91 L 188.27 268.32 L 186.85 270.80 L 185.10 273.44 L 183.57 275.90 L 181.80 278.39 L 180.27 280.96 L 178.57 283.77 L 177.04 285.88 L 175.28 288.44 L 173.79 291.25 L 172.02 293.64 L 170.42 296.19 L 169.02 298.80 L 167.05 301.48 L 165.40 303.85 L 164.16 306.50 L 162.49 308.99 L 160.65 311.86 L 158.82 314.30 L 157.36 316.69 L 155.82 319.31 L 154.04 321.94 L 152.51 324.82 L 150.88 327.14 L 149.36 329.93 L 147.77 332.22 L 145.91 334.87 L 144.14 337.43 L 142.90 339.81 L 141.22 342.57 L 139.60 345.25 L 137.72 347.76 L 136.28 350.45 L 134.56 352.88 L 132.94 355.40 L 131.03 358.23 L 129.64 360.84 L 128.03 363.19 L 126.31 365.80 L 124.47 368.53 L 122.78 371.34 L 121.16 373.80 L 119.80 376.41 L 117.87 378.88 L 116.37 381.42 L 114.46 384.18 L 112.98 386.71 L 111.28 389.60 L 109.62 392.00 L 107.80 394.77 L 106.56 397.03 L 104.56 399.81 L 103.10 402.64 L 101.26 404.95 L 99.87 407.92 L 98.28 410.39 L 96.37 413.15 L 94.86 415.47 L 93.10 418.15 L 91.70 420.83 L 90.01 423.42 L 88.37 425.87 L 86.61 428.52 L 84.88 430.76 L 83.49 433.26 L 81.60 436.16 L 79.97 438.55 L 78.65 441.28 L 77.15 443.86 L 75.33 446.10 L 73.54 448.93 L 72.16 451.38 L 70.47 454.04 L 68.75 456.48 L 67.10 458.84 L 65.77 461.52 L 64.15 463.93 L 62.22 466.42 L 60.91 469.24 L 59.09 471.77 L 57.33 474.06 L 55.85 476.89 L 54.64 479.05 L 52.67 481.49 L 51.28 483.93 L 49.66 486.57 L 48.41 488.92 L 46.54 491.66 L 45.07 494.02 L 43.53 496.58 L 42.16 499.09 L 40.45 501.36 L 38.79 504.06 L 37.25 506.16 L 35.72 508.77 L 34.17 511.25 L 32.30 513.92 L 30.89 516.37 L 29.27 519.24 L 27.69 521.77 L 26.18 524.14 L 27.66 521.99 L 29.60 519.19 L 30.96 517.18 L 32.60 514.57 L 34.38 512.32 L 35.48 509.88 L 37.34 507.41 L 38.65 504.95 L 40.43 502.50 L 41.73 500.22 L 43.75 497.94 L 44.84 495.51 L 46.75 493.12 L 48.02 490.43 L 49.72 488.15 L 51.25 485.64 L 52.85 483.38 L 54.24 480.91 L 56.30 478.29 L 57.84 475.94 L 59.25 473.09 L 61.15 470.71 L 62.83 468.24 L 64.43 466.01 L 65.98 463.39 L 67.24 460.82 L 69.24 458.30 L 70.69 455.84 L 72.39 453.01 L 73.91 450.71 L 75.84 448.15 L 77.15 445.87 L 78.99 443.11 L 80.44 440.44 L 82.29 438.02 L 83.73 435.56 L 85.36 433.07 L 87.23 430.27 L 88.64 427.68 L 90.16 425.36 L 91.87 422.74 L 93.78 420.27 L 95.58 417.38 L 97.31 414.76 L 98.87 412.24 L 100.35 409.48 L 102.13 407.06 L 103.66 404.71 L 105.57 401.83 L 106.98 399.56 L 108.68 397.01 L 110.63 394.00 L 112.03 391.69 L 113.71 388.97 L 115.28 386.35 L 116.83 384.08 L 118.58 381.47 L 120.24 378.88 L 122.07 376.09 L 123.93 373.37 L 125.37 371.04 L 127.04 368.54 L 128.73 365.76 L 130.48 363.35 L 131.97 360.95 L 133.29 358.50 L 135.34 355.75 L 136.79 353.07 L 138.42 350.52 L 140.13 348.02 L 141.90 345.67 L 143.44 342.85 L 145.19 340.48 L 146.81 337.89 L 148.16 335.63 L 150.04 333.05 L 151.34 330.13 L 153.39 327.83 L 154.85 325.48 L 156.71 322.72 L 158.33 320.34 L 159.73 317.47 L 161.25 315.10 L 162.90 312.32 L 164.66 309.98 L 166.52 307.60 L 168.04 305.11 L 169.32 302.53 L 171.08 300.12 L 172.83 297.38 L 174.48 295.03 L 176.20 292.42 L 177.61 290.04 L 178.99 287.32 L 180.75 284.69 L 182.28 282.25 L 184.19 279.63 L 185.53 277.38 L 187.13 274.69 L 189.15 272.43 L 190.72 269.61 L 192.39 267.25 L 194.01 264.79 L 195.23 262.18 L 196.76 259.86 L 198.60 257.35 L 200.13 254.97 L 201.83 252.22 L 203.26 249.51 L 205.13 247.29 L 206.75 244.83 L 208.31 242.20 L 209.79 239.79 L 211.83 237.11 L 213.18 234.53 L 214.88 231.96 L 216.46 229.06 L 218.40 226.63 L 219.83 224.14 L 221.43 221.56 L 223.35 218.97 L 225.05 216.29 L 226.66 213.90 L 228.12 211.39 L 230.05 208.59 L 231.41 206.23 L 233.22 203.69 L 235.12 201.07 L 236.68 198.17 L 238.07 195.93 L 239.72 193.40 L 241.59 190.61 L 243.31 188.25 L 244.94 185.72 L 246.59 182.83 L 248.16 180.53 L 249.84 177.74 L 251.58 174.99 L 253.24 172.53 L 254.57 170.01 L 256.51 167.60 L 258.07 165.20 L 259.52 162.33 L 261.51 159.70 L 262.88 157.38 L 264.43 154.69 L 266.48 152.46 L 267.80 149.83 L 269.54 146.96 L 271.18 144.73 L 272.72 141.93 L 274.75 139.60 L 276.21 136.70 L 277.78 134.15 L 279.53 132.00 L 280.90 129.06 L 282.91 126.49 L 284.27 123.97 L 286.05 121.61" fill="none" stroke="black" stroke-width="1"/>
  <path d="M 286.08 121.89 L 284.31 124.47 L 282.93 126.92 L 281.42 129.74 L 279.78 132.33 L 278.21 135.15 L 276.85 137.47 L 275.15 140.42 L 273.52 143.00 L 272.21 145.50 L 270.77 147.99 L 268.89 150.67 L 267.64 153.30 L 265.96 156.20 L 264.68 158.61 L 263.11 161.63 L 261.43 164.05 L 259.64 166.88 L 258.12 169.09 L 256.89 171.86 L 255.35 174.74 L 253.81 177.14 L 251.86 179.71 L 250.51 182.35 L 249.01 185.10 L 247.25 187.68 L 245.69 190.29 L 244.14 193.17 L 242.79 195.93 L 241.15 198.57 L 239.36 201.17 L 238.22 203.50 L 236.56 206.50 L 234.86 209.19 L 233.45 211.53 L 231.53 214.42 L 230.15 217.09 L 228.74 219.62 L 227.09 222.06 L 225.26 224.74 L 223.68 227.37 L 222.18 230.21 L 220.87 232.95 L 219.07 235.72 L 217.42 238.31 L 216.07 240.81 L 214.40 243.65 L 212.88 246.08 L 211.14 248.61 L 209.77 251.37 L 208.32 254.10 L 206.50 256.80 L 204.76 259.62 L 203.54 262.12 L 201.66 264.64 L 200.45 267.06 L 198.63 269.55 L 197.29 272.18 L 195.82 274.82 L 194.37 277.49 L 192.55 280.09 L 190.87 282.78 L 189.76 285.33 L 187.94 287.74 L 186.66 290.32 L 184.83 293.07 L 183.40 295.41 L 181.74 298.06 L 180.41 300.86 L 178.77 303.40 L 177.16 306.03 L 175.53 308.41 L 173.94 310.96 L 172.45 313.54 L 171.27 316.37 L 169.72 318.70 L 168.05 321.76 L 166.31 324.12 L 164.97 326.52 L 163.36 329.15 L 161.82 331.89 L 160.14 334.39 L 158.63 337.17 L 157.18 339.77 L 155.68 342.46 L 153.91 344.99 L 152.58 347.55 L 150.73 350.46 L 149.52 352.67 L 147.71 355.24 L 146.27 357.91 L 144.62 360.70 L 143.02 363.57 L 141.51 366.08 L 140.14 368.39 L 138.70 371.07 L 136.97 373.82 L 135.28 376.46 L 133.85 378.88 L 132.33 381.86 L 130.62 384.42 L 129.26 386.85 L 127.54 389.50 L 126.05 392.03 L 124.70 394.85 L 122.66 397.48 L 121.17 400.20 L 119.56 402.82 L 118.22 405.29 L 116.71 408.18 L 115.14 410.65 L 113.50 413.32 L 112.05 415.87 L 110.56 418.38 L 108.89 421.38 L 107.46 423.88 L 105.82 426.37 L 104.15 429.50 L 102.43 432.08 L 101.12 434.68 L 99.14 437.37 L 97.94 439.73 L 96.18 442.75 L 94.46 445.47 L 93.02 447.84 L 91.72 450.36 L 89.83 453.37 L 88.25 455.85 L 86.59 458.54 L 85.23 460.99 L 83.59 463.84 L 82.36 466.39 L 80.71 469.11 L 78.98 471.89 L 77.40 474.29 L 75.77 477.13 L 74.38 479.80 L 73.01 482.22 L 71.41 484.86 L 69.71 487.56 L 68.44 490.34 L 66.85 492.69 L 65.56 495.53 L 63.87 497.96 L 62.66 500.70 L 61.11 503.27 L 59.19 505.64 L 57.72 508.17 L 56.34 510.72 L 55.02 513.70 L 53.26 516.37 L 51.63 518.61 L 50.44 521.57 L 48.76 523.81 L 47.35 526.60 L 45.81 529.11 L 44.37 531.83 L 43.07 534.57 L 41.59 537.17 L 40.02 540.11 L 38.46 542.57 L 36.80 545.50 L 35.59 547.98 L 33.86 550.73 L 32.47 553.68 L 30.87 556.49 L 29.66 559.17 L 28.12 561.39 L 26.60 564.33 L 25.45 566.88 L 24.56 569.54 L 23.34 571.97 L 21.97 574.89 L 21.18 577.34 L 20.00 579.98 L 21.96 577.98 L 23.98 576.10 L 26.07 574.04 L 27.59 572.07 L 29.71 570.15 L 31.65 567.82 L 33.30 565.04 L 35.24 562.98 L 36.83 560.39 L 39.07 557.82 L 40.52 555.39 L 42.63 552.82 L 44.29 550.41 L 46.00 548.17 L 48.03 545.81 L 50.01 542.91 L 51.69 540.72 L 53.57 538.24 L 55.35 535.92 L 57.11 533.42 L 58.65 530.95 L 60.69 528.64 L 62.45 525.99 L 63.94 523.55 L 65.67 521.02 L 67.51 518.82 L 69.12 516.04 L 70.91 513.71 L 72.54 511.10 L 74.32 508.70 L 76.06 506.44 L 78.13 504.15 L 79.83 501.60 L 81.31 498.92 L 83.16 496.70 L 84.88 494.22 L 86.79 491.92 L 88.31 489.34 L 90.28 487.05 L 92.00 484.19 L 93.72 481.70 L 95.20 479.23 L 97.35 476.56 L 98.66 474.01 L 100.52 471.45 L 102.19 469.00 L 104.28 466.30 L 106.20 464.24 L 107.52 461.70 L 109.71 459.07 L 111.38 456.24 L 113.15 453.89 L 114.90 451.17 L 116.34 449.02 L 118.16 446.44 L 119.83 443.87 L 121.77 441.25 L 123.49 438.50 L 125.28 436.40 L 127.09 433.84 L 128.99 431.06 L 130.66 428.56 L 132.51 426.05 L 134.12 423.55 L 135.98 421.13 L 137.54 418.58 L 139.37 416.28 L 141.11 413.63 L 142.88 410.85 L 144.75 408.77 L 146.13 406.02 L 147.94 403.60 L 149.46 401.20 L 151.35 398.54 L 153.08 396.04 L 154.81 393.76 L 156.40 390.88 L 158.27 388.57 L 160.29 385.92 L 161.73 383.27 L 163.42 380.93 L 165.49 378.40 L 166.92 375.77 L 168.81 373.56 L 170.58 370.86 L 172.26 368.55 L 173.82 366.09 L 175.61 363.30 L 177.37 360.98 L 179.27 358.51 L 180.64 356.09 L 182.54 353.59 L 184.37 351.17 L 185.86 348.37 L 187.38 346.20 L 189.52 343.69 L 190.92 341.24 L 192.89 338.73 L 194.29 336.14 L 196.37 333.97 L 198.06 331.40 L 199.68 328.69 L 201.02 326.31 L 203.12 323.70 L 204.51 321.52 L 206.58 319.10 L 208.11 316.38 L 209.99 314.00 L 211.70 311.48 L 212.97 308.79 L 214.70 306.38 L 216.58 304.10 L 218.10 301.76 L 219.88 299.09 L 221.51 296.41 L 223.31 294.39 L 225.16 291.71 L 226.71 289.09 L 228.77 286.77 L 230.31 284.31 L 232.27 281.76 L 234.03 278.84 L 235.74 276.70 L 237.42 274.00 L 239.42 271.31 L 240.81 268.87 L 242.91 266.46 L 244.53 263.84 L 246.42 261.52 L 247.80 258.95 L 249.70 256.11 L 251.54 253.93 L 253.32 251.16 L 255.02 248.66 L 256.71 245.88 L 258.58 243.80 L 260.15 241.24 L 262.23 238.71 L 263.83 235.74 L 265.55 233.61 L 267.47 230.66 L 269.20 228.49 L 270.78 225.83 L 272.36 223.14 L 274.39 220.63 L 276.05 218.59 L 277.60 215.78 L 279.59 213.31 L 281.47 210.90 L 283.05 208.22 L 284.89 206.11 L 286.35 203.57 L 288.06 200.68 L 289.98 198.21 L 291.78 196.06 L 293.60 193.62 L 295.01 190.99 L 297.11 188.42 L 298.58 185.93 L 300.35 183.44 L 302.43 181.09 L 303.88 178.47 L 305.85 176.02 L 307.49 173.55 L 309.03 170.91 L 310.95 168.44" fill="none" stroke="black" stroke-width="1"/>
  <path d="M 320.27 183.45 L 317.52 182.46 L 314.98 181.38 L 312.56 180.78 L 309.67 179.57 L 307.33 178.49 L 304.66 177.72" fill="none" stroke="black" stroke-width="1"/>
  <path d="M 305.06 171.15 L 307.45 172.80 L 309.29 174.47 L 311.65 176.23 L 313.77 178.33 L 316.14 179.85 L 318.08 181.68 L 320.38 183.57" fill="none" stroke="black" stroke-width="1"/>
  <path d="M 308.08 218.25 L 314.05 217.16" fill="none" stroke="black" stroke-width="1"/>
  <path d="M 267.70 230.08 L 261.46 230.07" fill="none" stroke="black" stroke-width="1"/>
  <path d="M 262.93 232.81 L 266.11 227.47" fill="none" stroke="black" stroke-width="1"/>
  <path d="M 264.58 230.17 L 261.44 235.25 L 258.50 240.50 L 255.37 245.52" fill="none" stroke="black" stroke-width="1"/>
  <path d="M 216.95 211.19 L 219.36 205.54" fill="none" stroke="black" stroke-width="1"/>
  <path d="M 196.48 199.13 L 193.38 204.26 L 190.29 209.55 L 187.18 214.67" fill="none" stroke="black" stroke-width="1"/>
  <path d="M 184.11 214.57 L 190.36 214.70" fill="none" stroke="black" stroke-width="1"/>
  <path d="M 188.71 211.98 L 185.68 217.26" fill="none" stroke="black" stroke-width="1"/>
  <path d="M 140.87 261.04 L 142.37 261.16 L 143.97 261.19 L 145.46 261.29 L 147.08 261.34 L 148.58 261.43 L 150.18 261.48 L 151.73 261.54 L 153.28 261.63 L 154.88 261.76 L 156.38 261.77 L 157.94 261.83 L 159.48 261.92 L 160.99 261.98 L 162.58 262.07 L 164.14 262.08 L 165.68 262.22 L 167.16 262.34 L 168.78 262.37 L 170.33 262.45 L 171.88 262.53 L 173.42 262.69 L 174.97 262.69 L 176.55 262.77 L 178.07 262.85 L 179.61 262.86 L 181.17 263.02 L 182.68 263.06 L 184.26 263.19 L 185.75 263.19 L 187.35 263.36 L 188.91 263.39 L 190.45 263.53 L 192.02 263.65 L 193.54 263.70 L 195.08 263.73 L 196.63 263.87 L 198.15 263.98 L 199.72 264.04 L 201.22 264.08 L 202.82 264.21" fill="none" stroke="black" stroke-width="1"/>
  <path d="M 233.68 369.37 L 238.84 378.60 L 244.00 388.14 L 249.16 397.90 L 254.32 407.77 L 259.47 417.64 L 264.63 427.40 L 269.79 436.94 L 274.95 446.17 L 280.10 454.96 L 285.26 463.21 L 290.42 470.83 L 295.58 477.68 L 300.73 483.72 L 305.89 489.00 L 311.05 493.64 L 316.21 497.74 L 321.37 501.41 L 326.52 504.76 L 331.68 507.90 L 336.84 510.92 L 342.00 513.95 L 347.15 517.08 L 352.31 520.43 L 357.47 524.10" fill="none" stroke="black" stroke-width="1"/>
  <path d="M 357.47 524.10 L 361.34 519.04 L 365.21 514.15 L 369.07 509.36 L 372.94 504.62 L 376.81 499.88 L 380.68 495.09 L 384.55 490.19 L 388.41 485.13 L 392.28 479.86 L 396.15 474.32 L 400.02 468.45 L 403.89 462.21 L 407.76 455.56 L 411.62 448.53 L 415.49 441.18 L 419.36 433.56 L 423.23 425.72 L 427.10 417.73 L 430.97 409.62 L 434.83 401.47 L 438.70 393.31 L 442.57 385.20 L 446.44 377.21 L 450.31 369.37" fill="none" stroke="black" stroke-width="1"/>
  <path d="M 450.24 369.38 L 447.87 374.10 L 445.60 378.79 L 443.34 383.68 L 440.96 388.42 L 438.56 393.35 L 436.32 398.17 L 434.06 403.05 L 431.69 407.95 L 429.35 412.82 L 427.05 417.67 L 424.80 422.40 L 422.41 427.24 L 420.08 431.94 L 417.77 436.56 L 415.40 441.00 L 413.13 445.54 L 410.78 449.74 L 408.49 454.09 L 406.10 458.02 L 403.85 462.12 L 401.51 465.85 L 399.21 469.56 L 396.86 473.07 L 394.57 476.48 L 392.32 479.67 L 389.92 482.97 L 387.56 486.00 L 385.28 489.12 L 382.93 492.16 L 380.64 495.02 L 378.31 497.97 L 376.00 500.77 L 373.70 503.64 L 371.35 506.46 L 368.94 509.35 L 366.71 512.18 L 364.31 515.01 L 362.07 518.02 L 359.71 520.98 L 357.42 524.07" fill="none" stroke="black" stroke-width="1"/>
  <path d="M 356.83 523.46 L 352.45 518.94" fill="none" stroke="black" stroke-width="1"/>
  <path d="M 351.25 517.83 L 355.34 522.01 L 359.38 526.17 L 363.58 530.28" fill="none" stroke="black" stroke-width="1"/>
  <path d="M 362.58 529.56 L 357.92 525.35" fill="none" stroke="black" stroke-width="1"/>
  <path d="M 357.48 524.08 L 354.39 521.97 L 351.29 519.73 L 348.28 517.70 L 345.10 515.81 L 342.06 513.99 L 338.91 512.14 L 335.88 510.29 L 332.72 508.53 L 329.59 506.61 L 326.53 504.80 L 323.52 502.71 L 320.33 500.76 L 317.27 498.44 L 314.14 496.22 L 311.08 493.53 L 307.95 491.00 L 304.82 487.93 L 301.77 484.91 L 298.66 481.32 L 295.58 477.77 L 292.48 473.61 L 289.39 469.45 L 286.34 464.85 L 283.21 460.07 L 280.04 455.02 L 277.02 449.83 L 275.04 446.14 L 272.92 442.62 L 270.84 438.91 L 268.72 435.08 L 266.80 431.32 L 264.66 427.48 L 262.61 423.62 L 260.56 419.61 L 258.48 415.75 L 256.45 411.84 L 254.35 407.82 L 252.29 403.90 L 250.14 400.05 L 248.16 396.04 L 246.11 392.10 L 244.05 388.23 L 241.96 384.41 L 239.93 380.56 L 237.95 376.88 L 235.79 373.21 L 233.75 369.45" fill="none" stroke="black" stroke-width="1"/>
  <path d="M 329.69 424.43 L 335.74 425.72" fill="none" stroke="black" stroke-width="1"/>
  <path d="M 342.16 415.54 L 348.39 415.99" fill="none" stroke="black" stroke-width="1"/>
  <path d="M 354.40 425.66 L 360.21 425.12" fill="none" stroke="black" stroke-width="1"/>
  <path d="M 354.31 430.63 L 348.25 431.90" fill="none" stroke="black" stroke-width="1"/>
  <path d="M 348.00 431.01 L 354.14 431.00" fill="none" stroke="black" stroke-width="1"/>
  <path d="M 360.57 438.52 L 366.67 436.58" fill="none" stroke="black" stroke-width="1"/>
  <path d="M 370.71 448.17 L 375.84 445.00" fill="none" stroke="black" stroke-width="1"/>
  <path d="M 345.08 446.95 L 338.91 446.53" fill="none" stroke="black" stroke-width="1"/>
  <path d="M 338.87 446.00 L 344.57 447.53" fill="none" stroke="black" stroke-width="1"/>
  <path d="M 329.26 439.08 L 323.50 436.17" fill="none" stroke="black" stroke-width="1"/>
  <path d="M 320.28 486.89 L 324.37 491.10 L 328.53 495.21 L 332.74 499.36" fill="none" stroke="black" stroke-width="1"/>
  <path d="M 345.12 505.56 L 349.28 509.70 L 353.35 513.83 L 357.49 517.95" fill="none" stroke="black" stroke-width="1"/>
  <path d="M 357.39 511.81 L 361.53 514.90 L 365.67 517.88 L 369.94 520.94" fill="none" stroke="black" stroke-width="1"/>
  <path d="M 403.86 462.23 L 406.00 457.10 L 407.99 451.87 L 410.12 446.78" fill="none" stroke="black" stroke-width="1"/>
  <path d="M 478.20 478.05 L 484.29 477.12" fill="none" stroke="black" stroke-width="1"/>
  <path d="M 518.46 425.01 L 514.35 420.93 L 510.03 416.77 L 505.95 412.65" fill="none" stroke="black" stroke-width="1"/>
  <path d="M 514.90 395.64 L 509.50 392.62" fill="none" stroke="black" stroke-width="1"/>
  <path d="M 508.67 389.40 L 503.32 386.09" fill="none" stroke="black" stroke-width="1"/>
  <path d="M 515.57 377.71 L 521.23 379.64" fill="none" stroke="black" stroke-width="1"/>
  <path d="M 524.32 384.09 L 530.73 385.44" fill="none" stroke="black" stroke-width="1"/>
  <path d="M 530.77 384.83 L 524.58 384.87" fill="none" stroke="black" stroke-width="1"/>
  <path d="M 533.49 390.77 L 539.65 390.81" fill="none" stroke="black" stroke-width="1"/>
  <path d="M 546.74 401.45 L 551.96 398.80" fill="none" stroke="black" stroke-width="1"/>
  <path d="M 574.16 400.25 L 577.21 395.65 L 580.22 390.95" fill="none" stroke="black" stroke-width="1"/>
  <path d="M 592.07 429.75 L 586.97 432.92" fill="none" stroke="black" stroke-width="1"/>
  <path d="M 549.41 452.96 L 545.22 448.79 L 541.14 444.73 L 536.91 440.48" fill="none" stroke="black" stroke-width="1"/>
  <path d="M 537.76 441.47 L 541.98 446.07" fill="none" stroke="black" stroke-width="1"/>
  <path d="M 543.11 446.73 L 540.79 445.31 L 538.40 443.71 L 536.00 442.26 L 533.58 440.80 L 531.14 439.47 L 528.69 437.96 L 526.32 436.57 L 523.79 435.12 L 521.34 433.68 L 518.92 432.26 L 516.51 430.85 L 514.12 429.32 L 511.86 427.72 L 509.46 426.25 L 507.26 424.64 L 504.96 423.01 L 502.79 421.35 L 500.68 419.55 L 498.75 417.68 L 496.67 415.83 L 494.84 413.84 L 492.95 411.81 L 491.22 409.72 L 489.50 407.52 L 487.84 405.25 L 486.27 403.01 L 484.65 400.75 L 483.20 398.34 L 481.78 395.96 L 480.27 393.53 L 478.85 391.15 L 477.41 388.65 L 475.98 386.18 L 474.58 383.74 L 473.07 381.34 L 471.73 378.84 L 470.23 376.42 L 468.83 374.01 L 467.39 371.66 L 465.81 369.29" fill="none" stroke="black" stroke-width="1"/>
  <path d="M 465.78 369.37 L 468.31 373.29 L 470.76 377.29 L 473.15 381.34 L 475.52 385.42 L 477.89 389.50 L 480.29 393.55 L 482.73 397.55 L 485.26 401.47 L 487.90 405.28 L 490.67 408.95 L 493.60 412.47 L 496.73 415.79 L 500.05 418.91 L 503.57 421.85 L 507.24 424.62 L 511.05 427.25 L 514.97 429.78 L 518.97 432.23 L 523.02 434.63 L 527.10 437.00 L 531.18 439.36 L 535.23 441.76 L 539.23 444.21 L 543.14 446.74" fill="none" stroke="black" stroke-width="1"/>
  <path d="M 543.14 446.74 L 545.67 442.82 L 548.12 438.82 L 550.52 434.77 L 552.89 430.69 L 555.26 426.61 L 557.65 422.56 L 560.10 418.56 L 562.63 414.65 L 565.27 410.84 L 568.04 407.16 L 570.97 403.65 L 574.09 400.32 L 577.42 397.20 L 580.93 394.27 L 584.61 391.49 L 588.42 388.86 L 592.33 386.33 L 596.33 383.88 L 600.38 381.48 L 604.46 379.12 L 608.54 376.75 L 612.59 374.35 L 616.59 371.90 L 620.51 369.37" fill="none" stroke="black" stroke-width="1"/>
  <path d="M 620.53 369.42 L 618.21 370.84 L 615.82 372.44 L 613.37 373.87 L 610.99 375.34 L 608.48 376.73 L 606.11 378.19 L 603.58 379.64 L 601.20 381.02 L 598.81 382.46 L 596.33 383.88 L 593.95 385.29 L 591.54 386.82 L 589.29 388.28 L 586.87 389.89 L 584.58 391.55 L 582.37 393.12 L 580.30 394.84 L 578.09 396.57 L 576.15 398.46 L 574.07 400.29 L 572.12 402.31 L 570.35 404.31 L 568.54 406.46 L 566.89 408.59 L 565.19 410.75 L 563.65 413.08 L 562.03 415.48 L 560.57 417.75 L 559.18 420.21 L 557.63 422.54 L 556.13 425.04 L 554.76 427.41 L 553.31 429.85 L 551.92 432.32 L 550.49 434.84 L 549.06 437.20 L 547.56 439.60 L 546.15 442.03 L 544.62 444.47 L 543.12 446.74" fill="none" stroke="black" stroke-width="1"/>
  <path d="M 544.24 447.58 L 548.40 452.19" fill="none" stroke="black" stroke-width="1"/>
  <path d="M 543.17 437.49 L 539.03 433.41 L 534.89 429.15 L 530.80 425.00" fill="none" stroke="black" stroke-width="1"/>
</svg>