<svg xmlns="http://www.w3.org/2000/svg" width="800" height="600" viewBox="0 0 800 600">
  <rect width="100%" height="100%" fill="white"/>
  <path d="M 49.58 470.96 L 55.51 470.92 L 61.38 470.84 L 67.20 470.71 L 73.09 470.62 L 78.97 470.58 L 84.93 470.51 L 90.73 470.50 L 96.67 470.50 L 102.61 470.43 L 108.49 470.31 L 114.45 470.17 L 120.31 470.22 L 126.12 470.18 L 131.97 470.12 L 137.96 469.90 L 143.76 469.92 L 149.72 469.90 L 155.65 469.83 L 161.42 469.80 L 167.29 469.70 L 173.34 469.52 L 179.09 469.47 L 185.03 469.45 L 190.99 469.47 L 196.76 469.26 L 202.77 469.30 L 208.62 469.26 L 214.57 469.10 L 220.40 469.13 L 226.26 469.01 L 232.22 468.91 L 238.04 468.95 L 244.01 468.81 L 249.83 468.73 L 255.75 468.65 L 261.57 468.65 L 267.45 468.47 L 273.38 468.55 L 279.31 468.50 L 285.09 468.42 L 291.05 468.33 L 296.89 468.25 L 302.82 468.24 L 308.80 468.13 L 314.57 467.95 L 320.44 468.02 L 326.46 467.81 L 332.27 467.89 L 338.10 467.69 L 344.06 467.75 L 349.95 467.62 L 355.79 467.52 L 361.74 467.52 L 367.57 467.48 L 373.57 467.30 L 379.45 467.33 L 385.38 467.23 L 391.16 467.24 L 397.04 467.08 L 402.98 467.00 L 408.91 467.03 L 414.72 466.84 L 420.55 466.86 L 426.53 466.80 L 432.47 466.79 L 438.24 466.72 L 444.16 466.50 L 450.08 466.44 L 455.90 466.43 L 461.93 466.38 L 467.68 466.41 L 473.64 466.29 L 479.55 466.27 L 485.45 466.13 L 491.26 465.98 L 497.20 466.02 L 503.11 465.94 L 508.95 465.79 L 514.90 465.78 L 520.79 465.71 L 526.70 465.64 L 532.57 465.57 L 538.48 465.51 L 544.34 465.51 L 550.15 465.44 L 556.03 465.43 L 562.08 465.23 L 567.89 465.24 L 573.74 465.16 L 579.66 465.09" fill="none" stroke="black" stroke-width="1"/>
  <path d="M 550.24 441.56 L 548.69 440.14 L 547.30 438.61 L 545.90 437.20 L 544.36 435.66 L 542.83 434.24 L 541.42 432.71 L 539.92 431.23 L 538.48 429.76 L 537.01 428.37 L 535.54 426.82 L 534.02 425.33 L 532.59 423.87 L 531.11 422.48 L 529.65 420.92 L 528.16 419.42 L 526.71 417.97 L 525.26 416.54 L 523.77 415.02 L 522.27 413.55 L 520.82 412.07 L 519.38 410.68 L 517.87 409.12 L 516.40 407.65 L 514.92 406.17 L 513.45 404.78 L 511.97 403.22 L 510.57 401.78 L 509.02 400.27 L 507.53 398.79 L 506.06 397.32 L 504.57 395.90 L 503.11 394.37 L 501.70 392.84 L 500.16 391.42 L 498.73 389.96 L 497.20 388.47 L 495.70 387.06 L 494.25 385.52 L 492.85 384.04 L 491.30 382.57" fill="none" stroke="black" stroke-width="1"/>
  <path d="M 491.33 382.59 L 493.79 385.05 L 496.24 387.50 L 498.70 389.96 L 501.15 392.41 L 503.61 394.87 L 506.06 397.32 L 508.52 399.77 L 510.97 402.23 L 513.42 404.68 L 515.88 407.14 L 518.33 409.59 L 520.79 412.05 L 523.24 414.50 L 525.70 416.96 L 528.15 419.41 L 530.61 421.86 L 533.06 424.32 L 535.51 426.77 L 537.97 429.23 L 540.42 431.68 L 542.88 434.14 L 545.33 436.59 L 547.79 439.05 L 550.24 441.50" fill="none" stroke="black" stroke-width="1"/>
  <path d="M 550.24 441.50 L 552.70 438.52 L 555.15 435.47 L 557.60 432.39 L 560.06 429.28 L 562.51 426.18 L 564.97 423.09 L 567.42 420.05 L 569.88 417.06 L 572.33 414.16 L 574.79 411.36 L 577.24 408.69 L 579.69 406.16 L 582.15 403.78 L 584.60 401.55 L 587.06 399.44 L 589.51 397.43 L 591.97 395.50 L 594.42 393.64 L 596.88 391.81 L 599.33 390.01 L 601.78 388.21 L 604.24 386.38 L 606.69 384.52 L 609.15 382.59" fill="none" stroke="black" stroke-width="1"/>
  <path d="M 609.07 382.60 L 607.63 383.80 L 606.13 384.91 L 604.64 386.10 L 603.18 387.13 L 601.74 388.26 L 600.23 389.30 L 598.75 390.43 L 597.29 391.47 L 595.75 392.60 L 594.34 393.65 L 592.92 394.83 L 591.39 395.90 L 589.95 397.07 L 588.45 398.24 L 587.00 399.40 L 585.50 400.70 L 583.97 401.99 L 582.56 403.34 L 581.11 404.81 L 579.61 406.17 L 578.18 407.60 L 576.67 409.22 L 575.17 410.83 L 573.72 412.47 L 572.18 414.14 L 570.78 415.88 L 569.23 417.69 L 567.83 419.43 L 566.40 421.25 L 564.89 423.06 L 563.44 424.85 L 561.95 426.76 L 560.56 428.55 L 559.00 430.48 L 557.50 432.38 L 556.06 434.18 L 554.66 436.01 L 553.12 437.84 L 551.71 439.66 L 550.17 441.42" fill="none" stroke="black" stroke-width="1"/>
  <path d="M 550.24 429.69 L 544.38 429.74 L 538.54 429.60 L 532.85 429.57 L 526.94 429.61 L 521.21 429.45 L 515.28 429.47 L 509.55 429.38 L 503.75 429.39 L 497.83 429.37 L 492.06 429.36 L 486.33 429.26 L 480.38 429.23 L 474.61 429.23 L 468.78 429.25 L 462.91 429.19 L 457.21 429.11 L 451.36 429.00 L 445.57 429.12 L 439.63 428.96 L 433.86 428.91 L 428.05 429.00 L 422.16 428.82 L 416.46 428.88 L 410.67 428.83 L 404.82 428.81 L 399.04 428.77 L 393.19 428.69 L 387.41 428.59 L 381.43 428.70 L 375.68 428.59 L 369.85 428.54 L 364.00 428.44 L 358.25 428.44 L 352.38 428.49 L 346.69 428.36 L 340.70 428.35 L 334.94 428.37 L 329.18 428.27 L 323.41 428.20 L 317.45 428.29 L 311.66 428.17 L 305.92 428.21 L 300.13 428.10 L 294.22 428.12 L 288.38 428.07 L 282.54 428.07 L 276.87 427.96 L 271.06 427.89 L 265.10 427.94 L 259.34 427.91 L 253.54 427.81 L 247.70 427.73 L 241.85 427.82 L 236.03 427.67 L 230.30 427.74 L 224.34 427.60 L 218.60 427.54 L 212.82 427.64 L 206.98 427.61 L 201.13 427.49 L 195.42 427.46 L 189.46 427.50 L 183.62 427.43 L 177.94 427.43 L 172.04 427.25 L 166.32 427.30 L 160.41 427.23 L 154.54 427.25 L 148.78 427.12 L 142.96 427.17 L 137.09 427.19 L 131.35 427.00 L 125.56 426.96 L 119.66 427.05 L 113.81 427.02 L 108.03 426.85 L 102.31 426.88 L 96.51 426.81 L 90.54 426.88 L 84.84 426.84 L 78.97 426.74" fill="none" stroke="black" stroke-width="1"/>
  <path d="M 85.38 444.58 L 84.46 450.28" fill="none" stroke="black" stroke-width="1"/>
  <path d="M 77.62 453.68 L 80.39 458.92" fill="none" stroke="black" stroke-width="1"/>
  <path d="M 73.12 465.11 L 77.06 469.05 L 80.85 473.00 L 84.80 476.91" fill="none" stroke="black" stroke-width="1"/>
  <path d="M 93.74 485.74 L 92.37 483.48 L 90.87 481.38 L 89.46 479.28 L 88.10 477.13 L 86.73 474.99 L 85.39 472.93 L 84.03 470.79 L 82.70 468.75 L 81.27 466.62 L 79.98 464.54 L 78.64 462.38 L 77.18 460.25 L 75.77 458.01 L 74.26 455.85 L 72.74 453.60 L 71.18 451.28 L 69.56 448.92 L 67.89 446.51 L 66.11 443.95 L 64.35 441.49 L 62.35 438.86 L 60.52 436.20 L 58.46 433.40 L 56.43 430.65 L 54.22 427.73 L 52.14 424.89 L 49.85 421.94 L 47.68 418.98 L 45.48 416.00 L 43.11 412.94 L 40.78 409.83 L 38.46 406.83 L 36.13 403.83 L 33.78 400.70 L 31.50 397.59 L 29.11 394.57 L 26.83 391.61 L 24.50 388.51 L 22.23 385.54 L 20.00 382.55" fill="none" stroke="black" stroke-width="1"/>
  <path d="M 20.08 382.59 L 23.81 387.55 L 27.61 392.58 L 31.47 397.66 L 35.35 402.77 L 39.23 407.88 L 43.09 412.97 L 46.90 418.00 L 50.62 422.96 L 54.25 427.81 L 57.75 432.53 L 61.09 437.11 L 64.26 441.50 L 67.23 445.70 L 70.02 449.72 L 72.66 453.58 L 75.17 457.32 L 77.58 460.95 L 79.91 464.51 L 82.19 468.02 L 84.44 471.50 L 86.69 474.98 L 88.97 478.49 L 91.31 482.05 L 93.71 485.68" fill="none" stroke="black" stroke-width="1"/>
  <path d="M 93.71 485.68 L 96.17 480.72 L 98.62 475.69 L 101.08 470.61 L 103.53 465.50 L 105.99 460.39 L 108.44 455.31 L 110.89 450.27 L 113.35 445.32 L 115.80 440.46 L 118.26 435.74 L 120.71 431.17 L 123.17 426.77 L 125.62 422.58 L 128.08 418.56 L 130.53 414.69 L 132.98 410.96 L 135.44 407.32 L 137.89 403.76 L 140.35 400.26 L 142.80 396.77 L 145.26 393.29 L 147.71 389.79 L 150.17 386.23 L 152.62 382.59" fill="none" stroke="black" stroke-width="1"/>
  <path d="M 152.62 382.59 L 156.35 388.84 L 160.15 395.27 L 164.01 401.83 L 167.89 408.45 L 171.77 415.06 L 175.63 421.62 L 179.44 428.05 L 183.16 434.30 L 186.79 440.30 L 190.29 446.00 L 193.63 451.33 L 196.80 456.23 L 199.72 460.71 L 202.39 464.86 L 204.85 468.70 L 207.16 472.26 L 209.37 475.58 L 211.53 478.68 L 213.68 481.60 L 215.89 484.37 L 218.20 487.01 L 220.66 489.57 L 223.33 492.06 L 226.25 494.52 L 229.42 496.85 L 232.76 498.98 L 236.26 500.91 L 239.89 502.70 L 243.62 504.36 L 247.42 505.93 L 251.28 507.44 L 255.16 508.92 L 259.04 510.39 L 262.90 511.90 L 266.71 513.47 L 270.43 515.13" fill="none" stroke="black" stroke-width="1"/>
  <path d="M 270.36 515.20 L 268.20 514.13 L 265.89 513.21 L 263.63 512.29 L 261.32 511.33 L 258.93 510.37 L 256.69 509.53 L 254.43 508.57 L 252.05 507.74 L 249.82 506.88 L 247.43 505.92 L 245.18 504.93 L 242.89 504.01 L 240.64 502.96 L 238.46 501.96 L 236.24 500.78 L 234.20 499.72 L 232.22 498.51 L 230.13 497.23 L 228.19 495.86 L 226.32 494.45 L 224.64 492.94 L 222.84 491.49 L 221.27 490.07 L 219.71 488.48 L 218.21 487.00 L 216.85 485.37 L 215.56 483.75 L 214.16 482.10 L 212.77 480.29 L 211.55 478.62 L 210.25 476.78 L 208.95 474.87 L 207.63 472.81 L 206.25 470.81 L 204.79 468.57 L 203.39 466.37 L 201.85 463.87 L 200.26 461.51 L 198.50 458.88 L 196.78 456.18 L 194.85 453.21 L 192.96 450.25 L 190.91 446.99 L 188.90 443.72 L 186.74 440.25 L 184.63 436.69 L 182.38 433.04 L 180.20 429.28 L 177.87 425.35 L 175.65 421.59 L 173.33 417.56 L 171.03 413.71 L 168.68 409.68 L 166.38 405.77 L 163.98 401.79 L 161.75 397.86 L 159.47 394.05 L 157.17 390.10 L 154.92 386.40 L 152.70 382.58" fill="none" stroke="black" stroke-width="1"/>
  <path d="M 152.55 382.59 L 151.03 384.81 L 149.60 386.95 L 148.14 389.02 L 146.66 391.20 L 145.23 393.34 L 143.71 395.40 L 142.21 397.41 L 140.77 399.58 L 139.29 401.72 L 137.82 403.79 L 136.32 406.01 L 134.88 408.07 L 133.47 410.26 L 131.94 412.47 L 130.52 414.72 L 128.99 417.03 L 127.55 419.40 L 126.05 421.80 L 124.51 424.26 L 123.11 426.82 L 121.64 429.54 L 120.17 432.11 L 118.64 434.87 L 117.24 437.65 L 115.84 440.51 L 114.30 443.40 L 112.85 446.42 L 111.37 449.31 L 109.93 452.38 L 108.44 455.34 L 107.00 458.31 L 105.50 461.44 L 104.08 464.51 L 102.57 467.57 L 101.19 470.61 L 99.64 473.68 L 98.19 476.63 L 96.70 479.74 L 95.30 482.64 L 93.77 485.69" fill="none" stroke="black" stroke-width="1"/>
  <path d="M 102.64 471.00 L 104.97 466.28 L 107.36 461.53 L 109.69 456.78 L 111.98 452.18 L 114.36 447.38" fill="none" stroke="black" stroke-width="1"/>
  <path d="M 106.74 443.93 L 109.98 438.98" fill="none" stroke="black" stroke-width="1"/>
  <path d="M 115.93 438.10 L 118.68 432.90" fill="none" stroke="black" stroke-width="1"/>
  <path d="M 167.32 417.90 L 172.06 415.56 L 176.81 413.16 L 181.50 410.98 L 186.24 408.61 L 190.97 406.21" fill="none" stroke="black" stroke-width="1"/>
  <path d="M 220.38 441.49 L 219.11 446.48 L 217.78 451.56 L 216.61 456.70 L 215.24 461.76 L 214.08 466.68 L 212.76 471.85 L 211.52 476.81" fill="none" stroke="black" stroke-width="1"/>
  <path d="M 231.24 473.73 L 232.88 468.03" fill="none" stroke="black" stroke-width="1"/>
  <path d="M 249.75 506.25 L 251.64 501.41 L 253.69 496.43 L 255.64 491.51 L 257.60 486.64 L 259.64 481.78 L 261.61 476.91" fill="none" stroke="black" stroke-width="1"/>
  <path d="M 291.07 485.65 L 288.78 490.38 L 286.41 495.11 L 283.99 499.74 L 281.61 504.60 L 279.32 509.24" fill="none" stroke="black" stroke-width="1"/>
  <path d="M 270.43 515.13 L 274.12 511.50 L 277.80 507.94 L 281.48 504.43 L 285.16 500.95 L 288.84 497.47 L 292.52 493.96 L 296.21 490.41 L 299.89 486.77 L 303.57 483.03 L 307.25 479.17 L 310.93 475.15 L 314.61 470.95 L 318.34 466.47 L 322.15 461.65 L 326.00 456.57 L 329.89 451.32 L 333.77 445.96 L 337.62 440.58 L 341.43 435.25 L 345.16 430.05 L 348.78 425.05 L 352.28 420.33 L 355.63 415.97 L 358.79 412.05 L 361.76 408.56 L 364.56 405.43 L 367.19 402.61 L 369.70 400.05 L 372.11 397.69 L 374.44 395.48 L 376.72 393.37 L 378.98 391.32 L 381.23 389.27 L 383.51 387.16 L 385.84 384.95 L 388.25 382.59" fill="none" stroke="black" stroke-width="1"/>
  <path d="M 388.33 382.66 L 386.96 384.02 L 385.44 385.46 L 384.06 386.82 L 382.65 388.05 L 381.23 389.27 L 379.93 390.52 L 378.64 391.77 L 377.21 392.97 L 375.85 394.26 L 374.47 395.47 L 373.09 396.74 L 371.66 398.12 L 370.23 399.61 L 368.73 401.01 L 367.17 402.59 L 365.64 404.22 L 363.90 406.12 L 362.34 407.86 L 360.55 409.93 L 358.79 411.99 L 356.88 414.36 L 354.97 416.76 L 352.91 419.45 L 350.91 422.14 L 348.85 425.09 L 346.63 427.99 L 344.40 431.14 L 342.20 434.19 L 339.93 437.47 L 337.65 440.59 L 335.35 443.81 L 333.03 447.07 L 330.76 450.34 L 328.37 453.48 L 326.11 456.67 L 323.73 459.70 L 321.37 462.70 L 319.15 465.60 L 316.85 468.30 L 314.66 471.03 L 312.44 473.57 L 310.24 476.04 L 308.08 478.49 L 305.81 480.80 L 303.59 483.03 L 301.38 485.35 L 299.18 487.51 L 296.95 489.73 L 294.75 491.92 L 292.52 494.00 L 290.31 496.03 L 288.09 498.19 L 285.94 500.28 L 283.65 502.35 L 281.52 504.35 L 279.22 506.53 L 277.04 508.71 L 274.79 510.76 L 272.49 512.86 L 270.35 515.10" fill="none" stroke="black" stroke-width="1"/>
  <path d="M 255.76 500.34 L 257.09 495.35 L 258.31 490.24 L 259.51 485.27 L 260.73 480.12 L 262.05 475.10 L 263.28 470.02 L 264.62 465.03" fill="none" stroke="black" stroke-width="1"/>
  <path d="M 239.51 459.35 L 236.76 464.69" fill="none" stroke="black" stroke-width="1"/>
  <path d="M 242.45 455.75 L 245.26 450.62" fill="none" stroke="black" stroke-width="1"/>
  <path d="M 248.10 449.72 L 251.67 444.93" fill="none" stroke="black" stroke-width="1"/>
  <path d="M 248.66 433.38 L 244.99 438.02" fill="none" stroke="black" stroke-width="1"/>
  <path d="M 240.27 429.68 L 241.70 423.82" fill="none" stroke="black" stroke-width="1"/>
  <path d="M 241.04 426.71 L 239.76 432.41 L 238.66 437.96 L 237.27 443.76 L 236.09 449.35 L 234.90 455.00 L 233.65 460.69 L 232.42 466.33 L 231.07 472.00 L 229.91 477.65 L 228.61 483.27 L 227.42 488.85 L 226.21 494.59" fill="none" stroke="black" stroke-width="1"/>
  <path d="M 226.25 494.52 L 240.98 426.77" fill="none" stroke="black" stroke-width="1"/>
  <path d="M 299.89 412.05 L 285.16 485.68" fill="none" stroke="black" stroke-width="1"/>
  <path d="M 285.08 485.66 L 286.25 480.01 L 287.29 474.38 L 288.43 468.67 L 289.58 462.92 L 290.83 457.35 L 291.96 451.73 L 293.01 445.97 L 294.20 440.24 L 295.32 434.68 L 296.40 428.96 L 297.55 423.38 L 298.64 417.60 L 299.84 411.97" fill="none" stroke="black" stroke-width="1"/>
  <path d="M 299.92 406.17 L 304.85 404.75 L 309.71 403.13 L 314.70 401.78 L 319.64 400.26 L 324.55 398.82 L 329.41 397.29" fill="none" stroke="black" stroke-width="1"/>
  <path d="M 344.00 382.66 L 346.20 384.83 L 348.42 387.05 L 350.60 389.19 L 352.85 391.39 L 355.09 393.47 L 357.27 395.71 L 359.52 397.82 L 361.70 400.02 L 363.99 402.11 L 366.12 404.34 L 368.30 406.46 L 370.55 408.70 L 372.82 410.85 L 374.97 413.10 L 377.24 415.35 L 379.40 417.57 L 381.69 419.78 L 383.82 422.12 L 386.03 424.51 L 388.24 426.78 L 390.41 429.14 L 392.67 431.55 L 394.82 433.99 L 397.09 436.42 L 399.27 438.81 L 401.51 441.38 L 403.69 443.83 L 405.93 446.40 L 408.07 448.85 L 410.36 451.47 L 412.48 454.05 L 414.78 456.58 L 417.01 459.16 L 419.20 461.69 L 421.40 464.31 L 423.62 466.80 L 425.81 469.43 L 428.04 471.88 L 430.22 474.36 L 432.47 476.92" fill="none" stroke="black" stroke-width="1"/>
  <path d="M 432.50 476.79 L 434.67 473.71 L 436.98 470.80 L 439.24 467.65 L 441.55 464.64 L 443.83 461.47 L 446.19 458.40 L 448.51 455.29 L 450.84 452.12 L 453.22 448.96 L 455.46 445.90 L 457.72 442.85 L 460.01 439.79 L 462.28 436.82 L 464.44 433.87 L 466.49 431.09 L 468.71 428.21 L 470.79 425.62 L 472.77 422.88 L 474.63 420.42 L 476.59 417.95 L 478.39 415.62 L 480.13 413.46 L 481.74 411.42 L 483.42 409.38 L 484.90 407.53 L 486.50 405.62 L 488.02 403.88 L 489.42 402.13 L 490.78 400.47 L 492.23 398.82 L 493.51 397.27 L 494.96 395.63 L 496.30 394.04 L 497.66 392.49 L 499.04 390.96 L 500.38 389.32 L 501.81 387.71 L 503.15 386.06 L 504.51 384.42 L 506.03 382.63" fill="none" stroke="black" stroke-width="1"/>
  <path d="M 506.06 382.59 L 503.65 385.46 L 501.32 388.21 L 499.04 390.88 L 496.79 393.50 L 494.53 396.13 L 492.25 398.79 L 489.92 401.54 L 487.52 404.41 L 485.01 407.44 L 482.37 410.68 L 479.58 414.17 L 476.61 417.94 L 473.44 422.02 L 470.10 426.39 L 466.60 431.01 L 462.97 435.83 L 459.24 440.81 L 455.44 445.92 L 451.58 451.11 L 447.70 456.34 L 443.82 461.57 L 439.96 466.75 L 436.16 471.86 L 432.43 476.84" fill="none" stroke="black" stroke-width="1"/>
  <path d="M 432.43 476.84 L 428.75 472.65 L 425.06 468.43 L 421.38 464.19 L 417.70 459.94 L 414.02 455.68 L 410.34 451.44 L 406.66 447.22 L 402.97 443.03 L 399.29 438.88 L 395.61 434.78 L 391.93 430.74 L 388.25 426.77 L 384.57 422.89 L 380.88 419.07 L 377.20 415.31 L 373.52 411.61 L 369.84 407.95 L 366.16 404.31 L 362.48 400.70 L 358.79 397.10 L 355.11 393.50 L 351.43 389.89 L 347.75 386.26 L 344.07 382.59" fill="none" stroke="black" stroke-width="1"/>
  <path d="M 376.15 343.56 L 370.54 344.96" fill="none" stroke="black" stroke-width="1"/>
  <path d="M 346.27 427.92 L 341.75 431.57" fill="none" stroke="black" stroke-width="1"/>
  <path d="M 338.18 435.67 L 337.14 440.77 L 335.98 445.96 L 334.82 451.10 L 333.73 456.19 L 332.59 461.39 L 331.54 466.54 L 330.53 471.65 L 329.38 476.88" fill="none" stroke="black" stroke-width="1"/>
  <path d="M 311.49 464.13 L 305.92 466.14" fill="none" stroke="black" stroke-width="1"/>
  <path d="M 318.53 455.58 L 322.30 451.00" fill="none" stroke="black" stroke-width="1"/>
  <path d="M 330.66 443.95 L 333.79 439.10" fill="none" stroke="black" stroke-width="1"/>
  <path d="M 395.13 433.38 L 399.08 437.76" fill="none" stroke="black" stroke-width="1"/>
  <path d="M 407.85 426.66 L 409.83 421.13" fill="none" stroke="black" stroke-width="1"/>
  <path d="M 411.78 417.93 L 410.39 422.81 L 408.91 427.71 L 407.28 432.74 L 405.86 437.61 L 404.47 442.50 L 402.95 447.40" fill="none" stroke="black" stroke-width="1"/>
  <path d="M 417.70 456.23 L 426.54 397.32" fill="none" stroke="black" stroke-width="1"/>
  <path d="M 426.45 397.32 L 425.61 402.58 L 424.94 407.95 L 424.05 413.30 L 423.35 418.73 L 422.55 424.11 L 421.69 429.44 L 420.90 434.69 L 420.07 440.19 L 419.35 445.51 L 418.62 450.85 L 417.77 456.17" fill="none" stroke="black" stroke-width="1"/>
  <path d="M 429.48 456.27 L 426.58 461.16 L 423.68 466.15 L 420.68 471.02" fill="none" stroke="black" stroke-width="1"/>
  <path d="M 438.25 473.88 L 440.46 468.68 L 442.68 463.61 L 445.07 458.33 L 447.23 453.25" fill="none" stroke="black" stroke-width="1"/>
  <path d="M 447.24 465.12 L 448.72 460.24 L 450.21 455.38 L 451.71 450.40 L 453.04 445.55 L 454.55 440.56 L 456.03 435.65" fill="none" stroke="black" stroke-width="1"/>
  <path d="M 458.86 429.76 L 464.81 429.66" fill="none" stroke="black" stroke-width="1"/>
  <path d="M 468.94 422.98 L 472.73 418.56" fill="none" stroke="black" stroke-width="1"/>
  <path d="M 447.12 412.11 L 452.56 410.33 L 458.11 408.66 L 463.63 407.03 L 469.00 405.29 L 474.47 403.65 L 480.00 401.97 L 485.51 400.23" fill="none" stroke="black" stroke-width="1"/>
  <path d="M 458.77 359.35 L 464.55 358.72" fill="none" stroke="black" stroke-width="1"/>
  <path d="M 524.19 422.26 L 529.16 425.34" fill="none" stroke="black" stroke-width="1"/>
  <path d="M 535.60 429.80 L 537.09 425.44 L 538.52 420.99 L 540.08 416.54 L 541.48 412.02" fill="none" stroke="black" stroke-width="1"/>
  <path d="M 556.65 419.76 L 561.49 416.29" fill="none" stroke="black" stroke-width="1"/>
  <path d="M 609.09 394.44 L 603.20 394.44 L 597.35 394.51 L 591.41 394.50 L 585.60 394.61 L 579.70 394.53 L 573.71 394.61 L 567.84 394.61 L 561.92 394.75 L 556.01 394.74 L 550.12 394.70 L 544.25 394.72 L 538.50 394.73 L 532.55 394.85 L 526.71 394.87 L 520.83 394.91 L 514.77 394.99 L 509.00 394.96 L 503.00 394.90 L 497.17 394.95 L 491.37 395.09 L 485.38 395.12 L 479.55 395.16 L 473.66 395.12 L 467.68 395.05 L 461.79 395.12 L 456.03 395.11 L 450.10 395.18 L 444.12 395.29 L 438.22 395.21 L 432.43 395.30 L 426.58 395.41 L 420.62 395.29 L 414.68 395.32 L 408.87 395.34 L 402.96 395.40 L 397.10 395.40 L 391.24 395.46 L 385.20 395.59 L 379.40 395.56 L 373.51 395.53 L 367.68 395.69 L 361.73 395.69 L 355.85 395.76 L 349.96 395.78 L 344.12 395.76 L 338.24 395.79 L 332.21 395.75 L 326.47 395.86 L 320.53 395.82 L 314.53 395.89 L 308.81 395.87 L 302.91 395.92 L 296.97 396.04 L 291.11 396.01 L 285.19 395.95 L 279.25 396.12 L 273.39 396.01 L 267.56 396.19 L 261.56 396.12 L 255.68 396.10 L 249.77 396.24 L 243.93 396.26 L 237.98 396.26 L 232.08 396.33 L 226.29 396.26 L 220.37 396.32 L 214.53 396.40 L 208.64 396.39 L 202.71 396.35 L 196.89 396.52 L 190.86 396.46 L 185.05 396.46 L 179.12 396.61 L 173.28 396.64 L 167.41 396.64 L 161.46 396.67 L 155.52 396.65 L 149.77 396.68 L 143.89 396.77 L 137.95 396.76 L 131.98 396.69 L 126.07 396.78 L 120.29 396.83 L 114.41 396.81 L 108.53 396.90 L 102.67 396.93 L 96.69 397.01 L 90.78 397.00 L 84.97 397.04 L 79.04 397.11 L 73.12 397.14 L 67.24 397.14 L 61.39 397.20 L 55.54 397.12 L 49.63 397.23 L 43.71 397.20 L 37.84 397.29 L 31.96 397.27 L 25.97 397.27 L 20.14 397.33" fill="none" stroke="black" stroke-width="1"/>
  <path d="M 105.20 353.33 L 111.13 353.15" fill="none" stroke="black" stroke-width="1"/>
  <path d="M 155.69 338.05 L 149.41 338.59" fill="none" stroke="black" stroke-width="1"/>
  <path d="M 252.86 347.64 L 258.83 346.67" fill="none" stroke="black" stroke-width="1"/>
  <path d="M 282.16 285.45 L 288.04 285.06" fill="none" stroke="black" stroke-width="1"/>
  <path d="M 341.22 240.93 L 347.40 240.95" fill="none" stroke="black" stroke-width="1"/>
  <path d="M 415.11 277.12 L 420.80 276.33" fill="none" stroke="black" stroke-width="1"/>
  <path d="M 488.09 256.20 L 494.29 255.40" fill="none" stroke="black" stroke-width="1"/>
  <path d="M 517.84 288.63 L 523.66 288.49" fill="none" stroke="black" stroke-width="1"/>
  <path d="M 547.67 351.02 L 553.22 350.08" fill="none" stroke="black" stroke-width="1"/>
  <path d="M 609.05 302.92 L 606.28 303.00 L 603.55 302.93 L 600.52 302.95 L 597.73 303.19 L 594.90 302.97 L 592.18 303.31 L 589.24 302.91 L 586.22 303.15 L 583.42 303.39 L 580.69 303.07 L 577.82 303.03 L 574.87 303.48 L 572.24 303.30 L 569.28 303.14 L 566.80 303.28 L 563.68 303.36 L 560.86 303.22 L 558.21 303.33 L 555.14 303.59 L 552.29 303.36 L 549.41 303.61 L 546.98 303.37 L 543.74 303.44 L 540.99 303.57 L 538.42 303.66 L 535.44 303.68 L 532.62 303.49 L 529.84 303.74 L 527.05 303.56 L 523.93 303.96 L 521.51 304.05 L 518.50 303.97 L 515.42 303.77 L 512.55 303.75 L 509.77 303.93 L 507.32 304.10 L 504.13 304.10 L 501.60 304.24 L 498.63 304.06 L 495.63 304.15 L 492.92 304.24 L 489.91 304.07 L 487.14 304.20 L 484.62 304.14 L 481.75 304.28 L 478.74 304.16 L 476.01 304.41 L 473.04 304.38 L 470.12 304.32 L 467.37 304.32 L 464.49 304.35 L 461.82 304.44 L 459.15 304.26 L 455.95 304.30 L 453.40 304.41 L 450.46 304.34 L 447.53 304.81 L 444.78 304.78 L 442.16 304.62 L 439.19 304.44 L 436.18 304.66 L 433.64 304.63 L 430.83 304.63 L 427.90 304.86 L 425.01 304.81 L 422.27 304.81 L 419.41 305.06 L 416.68 305.11 L 413.77 304.91 L 410.93 304.94 L 407.90 305.02 L 405.13 305.15 L 402.45 305.01 L 399.48 305.04 L 396.74 304.98 L 393.72 305.30 L 391.13 305.12 L 388.20 305.19 L 385.15 305.41 L 382.32 305.46 L 379.63 305.35 L 377.01 305.37 L 374.24 305.21 L 371.09 305.22 L 368.49 305.58 L 365.64 305.25 L 362.65 305.46 L 359.79 305.51 L 357.25 305.70 L 354.27 305.52 L 351.39 305.58 L 348.56 305.83 L 345.87 305.51 L 342.77 305.72 L 340.00 305.66 L 337.26 305.89 L 334.25 305.72 L 331.39 305.98 L 328.80 305.65 L 325.70 306.02 L 323.25 305.91 L 320.02 305.93 L 317.63 305.96 L 314.59 305.96 L 311.67 305.84 L 308.74 305.84 L 305.97 306.09 L 303.18 306.24 L 300.47 306.10 L 297.75 306.30 L 294.56 306.14 L 292.04 306.25 L 289.15 306.11 L 286.44 306.28 L 283.27 306.32 L 280.54 306.22 L 277.78 306.35 L 274.94 306.21 L 272.01 306.61 L 269.25 306.66 L 266.62 306.38 L 263.72 306.52 L 260.63 306.74 L 258.15 306.75 L 255.36 306.60 L 252.50 306.55 L 249.60 306.69 L 246.86 306.82 L 243.92 306.95 L 240.97 306.74 L 237.95 306.93 L 235.21 306.92 L 232.29 306.82 L 229.65 306.70 L 226.91 306.68 L 223.85 306.77 L 221.25 306.76 L 218.47 306.92 L 215.43 307.17 L 212.79 307.06 L 209.60 307.22 L 206.89 307.25 L 204.17 307.14 L 201.26 307.14 L 198.55 306.99 L 195.86 307.43 L 192.90 307.10 L 189.93 307.47 L 187.17 307.42 L 184.40 307.14 L 181.56 307.60 L 178.69 307.44 L 175.82 307.34 L 172.80 307.30 L 170.25 307.43 L 167.36 307.54 L 164.39 307.65 L 161.60 307.60 L 158.94 307.42 L 155.95 307.73 L 153.37 307.79 L 150.36 307.95 L 147.75 307.60 L 144.62 307.98 L 141.68 307.63 L 139.16 307.90 L 136.30 307.69 L 133.47 307.89 L 130.55 307.93 L 127.95 308.06 L 124.76 307.82 L 121.87 308.18 L 118.99 307.86 L 116.47 308.10 L 113.80 307.90 L 110.78 308.17 L 107.92 308.17 L 105.09 308.20 L 102.36 308.01 L 99.33 308.07 L 96.49 308.46 L 93.75 308.33 L 91.08 308.57 L 88.02 308.51 L 85.17 308.53 L 82.22 308.37 L 79.70 308.52 L 76.78 308.64 L 73.75 308.65 L 71.01 308.70 L 68.46 308.37 L 65.28 308.44 L 62.57 308.76 L 59.65 308.82 L 56.94 308.73 L 53.98 308.78 L 51.46 308.65 L 48.23 308.84 L 45.65 308.76 L 42.77 308.89 L 40.16 309.08 L 37.04 308.90 L 34.39 309.20 L 31.31 309.05 L 28.41 308.94 L 25.89 309.21 L 23.12 309.01 L 20.14 309.12" fill="none" stroke="black" stroke-width="1"/>
  <path d="M 76.34 279.56 L 82.16 279.62" fill="none" stroke="black" stroke-width="1"/>
  <path d="M 134.81 249.99 L 140.98 249.99" fill="none" stroke="black" stroke-width="1"/>
  <path d="M 179.24 271.01 L 185.02 270.46" fill="none" stroke="black" stroke-width="1"/>
  <path d="M 170.51 161.56 L 164.54 161.80" fill="none" stroke="black" stroke-width="1"/>
  <path d="M 126.24 132.20 L 120.03 132.69" fill="none" stroke="black" stroke-width="1"/>
  <path d="M 96.81 73.09 L 90.51 73.29" fill="none" stroke="black" stroke-width="1"/>
  <path d="M 149.74 29.51 L 155.45 29.11" fill="none" stroke="black" stroke-width="1"/>
  <path d="M 193.87 64.47 L 200.02 64.44" fill="none" stroke="black" stroke-width="1"/>
  <path d="M 223.50 123.80 L 228.95 123.65" fill="none" stroke="black" stroke-width="1"/>
  <path d="M 232.07 126.42 L 233.56 127.76 L 235.08 129.27" fill="none" stroke="black" stroke-width="1"/>
  <path d="M 232.18 132.23 L 231.18 137.16 L 230.22 142.10 L 229.18 147.04" fill="none" stroke="black" stroke-width="1"/>
  <path d="M 229.28 147.01 L 229.24 147.71 L 229.26 148.23 L 229.21 148.81 L 229.23 149.52 L 229.18 150.19 L 229.19 150.84 L 229.07 151.55 L 229.14 152.17 L 229.06 152.88 L 229.09 153.48 L 229.01 154.19 L 229.07 154.75 L 229.11 155.28 L 229.06 155.95 L 229.12 156.50 L 229.09 157.04 L 229.17 157.47 L 229.16 158.01 L 229.30 158.47 L 229.27 158.83 L 229.29 159.23 L 229.45 159.48 L 229.64 159.81 L 229.67 159.98 L 229.83 160.08 L 229.93 160.35 L 229.99 160.46 L 230.22 160.62 L 230.33 160.66 L 230.54 160.82 L 230.62 160.85 L 230.87 160.98 L 231.11 161.00 L 231.20 161.11 L 231.31 161.19 L 231.54 161.26 L 231.74 161.34 L 231.86 161.44 L 232.07 161.53 L 232.16 161.69" fill="none" stroke="black" stroke-width="1"/>
  <path d="M 235.06 164.70 L 232.44 169.81 L 229.93 174.69 L 227.23 179.81 L 224.63 184.79 L 221.99 189.81 L 219.34 194.94 L 216.76 199.96 L 214.15 204.99 L 211.60 209.94 L 209.03 214.98 L 206.31 220.16 L 203.67 225.28 L 201.03 230.29 L 198.42 235.44 L 195.72 240.59 L 192.95 245.73 L 190.45 250.75 L 187.73 255.81 L 185.09 260.96 L 182.51 265.85 L 179.96 270.80 L 177.44 275.80 L 174.84 280.64 L 172.31 285.64 L 169.73 290.56 L 167.06 295.60 L 164.58 300.52 L 161.89 305.33 L 159.46 310.35 L 156.83 315.27 L 154.22 320.37 L 151.69 325.31 L 149.08 330.38 L 146.39 335.28 L 143.73 340.35 L 141.13 345.28 L 138.65 350.41 L 136.01 355.43 L 133.28 360.42 L 130.72 365.46 L 128.13 370.41 L 125.63 375.26 L 123.11 380.18 L 120.62 385.01 L 118.02 389.92 L 115.41 394.70 L 112.93 399.52 L 110.37 404.41 L 107.94 409.23 L 105.31 414.19 L 102.78 418.99 L 100.31 423.90 L 97.83 428.88 L 95.25 433.70 L 92.70 438.69 L 90.14 443.65 L 87.43 448.55 L 84.84 453.55 L 82.35 458.49 L 79.76 463.47 L 77.22 468.32 L 74.66 473.27 L 72.13 477.94 L 69.76 482.80 L 67.30 487.57 L 64.75 492.34 L 62.42 497.05 L 59.85 501.80 L 57.40 506.56 L 54.91 511.20 L 52.51 516.03 L 50.07 520.81 L 47.51 525.66 L 45.01 530.47 L 42.62 535.28 L 40.15 540.06 L 37.65 544.94 L 35.15 549.73 L 32.85 554.20 L 30.70 558.56 L 28.34 563.06 L 26.14 567.50 L 23.89 571.88 L 22.05 575.98 L 20.05 580.00 L 22.31 576.16 L 24.49 572.45 L 26.81 568.19 L 29.18 563.89 L 31.62 559.50 L 34.01 555.27 L 36.34 550.88 L 38.94 546.24 L 41.50 541.40 L 44.03 536.77 L 46.64 531.89 L 49.21 527.19 L 51.66 522.47 L 54.30 517.77 L 56.86 513.11 L 59.36 508.47 L 61.81 503.67 L 64.47 498.95 L 66.89 494.35 L 69.39 489.61 L 72.06 485.04 L 74.47 480.33 L 77.05 475.58 L 79.66 470.64 L 82.28 465.88 L 84.87 460.91 L 87.63 456.11 L 90.19 451.11 L 92.78 446.23 L 95.44 441.49 L 97.97 436.48 L 100.72 431.59 L 103.29 426.79 L 105.83 421.91 L 108.38 417.20 L 111.01 412.44 L 113.57 407.61 L 116.13 402.72 L 118.78 397.85 L 121.37 393.10 L 123.92 388.28 L 126.50 383.53 L 129.15 378.61 L 131.72 373.88 L 134.34 368.95 L 136.97 363.97 L 139.72 358.97 L 142.42 353.96 L 144.96 349.01 L 147.73 344.05 L 150.34 339.19 L 153.10 334.15 L 155.76 329.33 L 158.37 324.29 L 161.01 319.32 L 163.57 314.51 L 166.20 309.48 L 168.94 304.64 L 171.56 299.84 L 174.19 294.87 L 176.66 289.97 L 179.36 285.08 L 181.93 280.21 L 184.56 275.31 L 187.19 270.51 L 189.87 265.58 L 192.61 260.61 L 195.29 255.57 L 197.93 250.50 L 200.79 245.34 L 203.48 240.42 L 206.14 235.39 L 208.91 230.24 L 211.50 225.27 L 214.28 220.24 L 216.98 215.15 L 219.72 210.19 L 222.37 205.14 L 224.95 200.19 L 227.62 195.22 L 230.32 190.32 L 233.09 185.39 L 235.68 180.47 L 238.33 175.48 L 241.04 170.48" fill="none" stroke="black" stroke-width="1"/>
  <path d="M 241.02 170.51 L 238.39 175.39 L 235.85 180.39 L 233.28 185.38 L 230.52 190.43 L 228.02 195.36 L 225.29 200.30 L 222.80 205.19 L 220.09 210.12 L 217.55 215.15 L 214.90 220.13 L 212.28 225.19 L 209.65 230.26 L 206.90 235.30 L 204.19 240.37 L 201.69 245.40 L 198.94 250.37 L 196.37 255.41 L 193.62 260.50 L 191.00 265.53 L 188.43 270.33 L 185.81 275.23 L 183.31 280.19 L 180.71 285.05 L 178.11 289.95 L 175.50 294.75 L 172.91 299.62 L 170.36 304.49 L 167.91 309.46 L 165.34 314.24 L 162.69 319.21 L 160.10 324.24 L 157.42 329.12 L 154.88 334.00 L 152.24 338.97 L 149.58 343.94 L 146.99 348.95 L 144.41 353.89 L 141.82 358.87 L 139.13 363.80 L 136.60 368.72 L 133.95 373.70 L 131.35 378.59 L 128.94 383.25 L 126.31 388.03 L 123.82 392.86 L 121.26 397.72 L 118.71 402.61 L 116.19 407.38 L 113.72 412.07 L 111.23 416.90 L 108.64 421.75 L 106.08 426.56 L 103.49 431.44 L 100.97 436.24 L 98.41 441.24 L 95.79 446.09 L 93.30 450.90 L 90.67 455.78 L 88.13 460.62 L 85.63 465.57 L 82.89 470.45 L 80.41 475.30 L 77.89 480.04 L 75.41 484.73 L 73.04 489.44 L 70.58 494.06 L 68.09 498.75 L 65.67 503.39 L 63.24 508.02 L 60.74 512.83 L 58.25 517.47 L 55.85 522.19 L 53.35 526.86 L 50.84 531.76 L 48.31 536.46 L 45.92 541.17 L 43.30 545.91 L 40.92 550.61 L 38.72 554.86 L 36.42 559.32 L 34.12 563.66 L 31.93 567.88 L 29.73 572.24 L 27.93 575.99 L 26.00 579.90 L 28.25 575.97 L 30.61 571.95 L 32.97 567.55 L 35.35 563.17 L 37.84 558.71 L 40.23 554.39 L 42.68 550.03 L 45.36 545.19 L 47.94 540.44 L 50.45 535.63 L 53.01 530.94 L 55.66 526.19 L 58.31 521.35 L 60.89 516.61 L 63.44 511.87 L 65.93 507.19 L 68.57 502.53 L 71.10 497.72 L 73.74 493.09 L 76.23 488.31 L 78.90 483.64 L 81.44 478.91 L 83.93 474.15 L 86.51 469.20 L 89.18 464.27 L 91.88 459.35 L 94.60 454.58 L 97.17 449.70 L 99.77 444.67 L 102.54 439.89 L 105.14 434.86 L 107.80 429.95 L 110.48 425.12 L 113.09 420.23 L 115.77 415.42 L 118.38 410.55 L 120.96 405.81 L 123.55 400.89 L 126.10 396.14 L 128.81 391.24 L 131.33 386.42 L 133.98 381.68 L 136.55 376.89 L 139.23 371.98 L 141.96 367.08 L 144.63 361.93 L 147.29 357.01 L 150.06 352.05 L 152.71 347.01 L 155.30 342.14 L 158.11 337.10 L 160.78 332.12 L 163.50 327.17 L 166.24 322.16 L 168.85 317.19 L 171.44 312.27 L 174.19 307.43 L 176.78 302.40 L 179.47 297.64 L 182.04 292.69 L 184.83 287.74 L 187.35 282.84 L 190.10 277.89 L 192.69 273.00 L 195.30 268.18 L 198.04 263.23 L 200.77 258.24 L 203.56 253.01 L 206.25 248.04 L 209.02 243.00 L 211.77 237.92 L 214.45 232.84 L 217.30 227.82 L 220.05 222.68 L 222.71 217.61 L 225.47 212.55 L 228.15 207.52 L 230.90 202.62 L 233.55 197.51 L 236.28 192.56 L 238.95 187.51 L 241.67 182.53 L 244.38 177.61 L 247.20 172.67 L 249.82 167.63" fill="none" stroke="black" stroke-width="1"/>
  <path d="M 249.89 167.59 L 246.92 164.62 L 243.91 161.62" fill="none" stroke="black" stroke-width="1"/>
  <path d="M 243.84 161.75 L 246.76 157.29 L 249.80 152.86" fill="none" stroke="black" stroke-width="1"/>
  <path d="M 249.89 152.86 L 249.66 152.05 L 249.59 151.36 L 249.37 150.51 L 249.32 149.82 L 249.26 149.04 L 249.06 148.26 L 249.00 147.49 L 248.80 146.70 L 248.67 145.89 L 248.53 145.14 L 248.46 144.44 L 248.25 143.62 L 248.04 142.92 L 247.95 142.14 L 247.83 141.37 L 247.61 140.72 L 247.34 140.04 L 247.24 139.39 L 247.08 138.72 L 246.82 138.15 L 246.66 137.63 L 246.35 137.02 L 246.17 136.58 L 245.83 136.00 L 245.50 135.49 L 245.27 135.05 L 245.03 134.61 L 244.68 134.17 L 244.34 133.76 L 244.07 133.33 L 243.83 132.93 L 243.45 132.52 L 243.05 132.14 L 242.81 131.72 L 242.49 131.24 L 242.19 130.92 L 241.94 130.54 L 241.57 130.09 L 241.29 129.67 L 240.97 129.23" fill="none" stroke="black" stroke-width="1"/>
  <path d="M 240.97 129.31 L 240.80 129.34 L 240.69 129.30 L 240.59 129.31 L 240.43 129.27 L 240.36 129.21 L 240.19 129.24 L 240.10 129.24 L 239.94 129.20 L 239.79 129.10 L 239.70 129.17 L 239.65 129.12 L 239.43 129.15 L 239.25 129.12 L 239.15 129.15 L 238.96 129.08 L 238.83 129.18 L 238.73 129.19 L 238.47 129.26 L 238.24 129.34 L 238.06 129.38 L 237.75 129.42 L 237.59 129.55 L 237.31 129.75 L 237.07 129.77 L 236.77 129.91 L 236.51 130.04 L 236.19 130.19 L 235.92 130.33 L 235.53 130.55 L 235.31 130.64 L 234.98 130.83 L 234.68 130.97 L 234.32 131.14 L 234.04 131.31 L 233.81 131.56 L 233.41 131.64 L 233.14 131.74 L 232.79 131.96 L 232.51 132.15 L 232.19 132.27" fill="none" stroke="black" stroke-width="1"/>
  <path d="M 229.21 138.20 L 228.88 138.20 L 228.62 138.17 L 228.38 138.21 L 228.00 138.12 L 227.65 138.09 L 227.37 138.05 L 227.01 138.03 L 226.74 137.99 L 226.48 137.97 L 226.12 137.93 L 225.73 137.94 L 225.51 137.88 L 225.26 137.95 L 224.92 137.86 L 224.66 137.93 L 224.37 137.88 L 224.10 137.84 L 223.85 137.93 L 223.55 137.92 L 223.38 138.04 L 223.12 138.20 L 222.97 138.21 L 222.83 138.41 L 222.60 138.44 L 222.46 138.52 L 222.27 138.70 L 222.20 138.87 L 221.98 139.00 L 221.87 139.15 L 221.71 139.33 L 221.52 139.47 L 221.45 139.67 L 221.33 139.93 L 221.20 140.01 L 221.11 140.11 L 220.94 140.36 L 220.75 140.46 L 220.67 140.69 L 220.60 140.89 L 220.39 141.00" fill="none" stroke="black" stroke-width="1"/>
  <path d="M 220.31 141.15 L 220.69 141.68 L 220.90 142.05 L 221.15 142.60 L 221.48 142.99 L 221.81 143.55 L 222.07 143.95 L 222.35 144.36 L 222.66 144.92 L 222.97 145.41 L 223.25 145.88 L 223.57 146.34 L 223.83 146.81 L 224.15 147.33 L 224.42 147.69 L 224.70 148.06 L 225.01 148.51 L 225.24 148.94 L 225.59 149.24 L 225.96 149.64 L 226.18 149.88 L 226.50 150.15 L 226.77 150.41 L 227.13 150.65 L 227.36 150.83 L 227.60 150.99 L 227.94 151.18 L 228.32 151.27 L 228.53 151.46 L 228.82 151.58 L 229.12 151.69 L 229.43 151.86 L 229.71 151.90 L 230.03 151.92 L 230.29 152.09 L 230.62 152.25 L 230.88 152.29 L 231.13 152.47 L 231.47 152.51 L 231.80 152.69 L 232.06 152.77" fill="none" stroke="black" stroke-width="1"/>
  <path d="M 237.98 158.74 L 238.65 153.96 L 239.15 149.25 L 239.84 144.52 L 240.38 139.89 L 241.00 135.14" fill="none" stroke="black" stroke-width="1"/>
  <path d="M 242.42 164.58 L 240.95 166.05 L 239.48 164.58 L 240.95 163.11 L 242.42 164.58" fill="none" stroke="black" stroke-width="1"/>
  <path d="M 267.71 182.67 L 273.46 182.40" fill="none" stroke="black" stroke-width="1"/>
  <path d="M 326.29 141.18 L 332.39 140.95" fill="none" stroke="black" stroke-width="1"/>
  <path d="M 385.24 167.79 L 391.18 167.60" fill="none" stroke="black" stroke-width="1"/>
  <path d="M 502.84 173.56 L 508.69 173.58" fill="none" stroke="black" stroke-width="1"/>
  <path d="M 609.32 211.61 L 606.70 211.80 L 603.53 211.66 L 600.82 211.55 L 598.21 211.36 L 595.03 211.53 L 592.51 211.65 L 589.54 211.38 L 586.51 211.47 L 583.91 211.15 L 580.94 211.12 L 577.95 211.08 L 575.20 211.34 L 572.51 211.24 L 569.78 211.11 L 566.83 211.28 L 563.92 211.02 L 561.15 210.99 L 558.34 211.27 L 555.69 211.24 L 552.64 210.84 L 549.85 210.87 L 546.90 210.82 L 544.36 211.02 L 541.22 210.81 L 538.77 210.82 L 535.71 210.87 L 532.94 210.69 L 529.92 210.82 L 527.30 210.58 L 524.27 210.71 L 521.63 210.81 L 518.80 210.91 L 515.83 210.66 L 512.85 210.78 L 510.13 210.50 L 507.53 210.65 L 504.40 210.50 L 501.74 210.62 L 498.91 210.49 L 496.17 210.40 L 493.16 210.42 L 490.56 210.24 L 487.66 210.35 L 484.85 210.54 L 482.02 210.53 L 478.90 210.42 L 476.18 210.09 L 473.37 210.22 L 470.62 210.26 L 467.59 210.34 L 464.91 210.32 L 462.10 210.12 L 459.16 209.90 L 456.64 209.98 L 453.40 209.86 L 450.90 210.09 L 448.16 209.99 L 445.12 209.82 L 442.44 210.06 L 439.64 209.84 L 436.61 209.63 L 433.80 209.79 L 431.06 209.89 L 428.04 209.63 L 425.30 209.74 L 422.55 209.55 L 419.62 209.61 L 416.98 209.81 L 413.97 209.84 L 411.05 209.68 L 408.37 209.46 L 405.55 209.54 L 402.66 209.53 L 399.67 209.29 L 396.77 209.67 L 394.26 209.55 L 391.46 209.49 L 388.49 209.37 L 385.50 209.38 L 382.89 209.24 L 379.98 209.41 L 377.11 209.13 L 374.11 209.46 L 371.41 209.13 L 368.62 209.40 L 365.79 209.26 L 363.23 209.25 L 360.15 209.05 L 357.39 208.85 L 354.51 208.97 L 351.67 209.00 L 348.79 209.17 L 346.16 209.00 L 343.30 208.75 L 340.52 209.11 L 337.64 209.04 L 334.50 208.89 L 331.71 208.64 L 328.94 208.97 L 326.15 208.85 L 323.35 208.64 L 320.61 208.54 L 317.62 208.67 L 314.85 208.63 L 312.22 208.57 L 309.35 208.42 L 306.41 208.77 L 303.45 208.35 L 300.51 208.58 L 297.72 208.50 L 295.16 208.37 L 292.05 208.31 L 289.22 208.44 L 286.73 208.34 L 283.71 208.51 L 280.86 208.06 L 278.01 208.27 L 275.10 208.40 L 272.56 208.25 L 269.30 208.33 L 266.85 208.27 L 263.94 208.16 L 260.81 208.25 L 258.28 207.94 L 255.14 208.02 L 252.59 208.11 L 249.55 208.12 L 246.76 207.95 L 243.95 207.75 L 241.16 207.90 L 238.46 208.00 L 235.42 207.98 L 232.54 207.63 L 229.89 207.57 L 227.01 207.80 L 224.15 207.80 L 221.26 207.68 L 218.33 207.91 L 215.67 207.89 L 212.68 207.56 L 209.95 207.74 L 206.99 207.73 L 204.31 207.54 L 201.52 207.47 L 198.49 207.41 L 195.78 207.23 L 193.10 207.44 L 190.24 207.46 L 187.21 207.58 L 184.32 207.25 L 181.54 207.20 L 178.89 207.20 L 175.79 207.05 L 172.94 207.39 L 170.32 207.26 L 167.45 207.18 L 164.70 207.15 L 161.56 207.06 L 159.05 207.09 L 156.02 206.99 L 153.17 206.96 L 150.54 206.97 L 147.82 206.77 L 144.81 206.79 L 141.77 206.78 L 139.11 206.70 L 136.09 206.91 L 133.42 206.76 L 130.59 206.82 L 127.56 206.62 L 124.99 206.85 L 121.92 206.71 L 119.04 206.85 L 116.18 206.76 L 113.43 206.80 L 110.84 206.53 L 107.92 206.69 L 105.22 206.81 L 102.44 206.75 L 99.48 206.57 L 96.39 206.67 L 93.73 206.46 L 90.77 206.25 L 87.96 206.23 L 85.45 206.50 L 82.17 206.27 L 79.42 206.30 L 76.72 206.23 L 73.89 206.31 L 71.24 206.41 L 68.12 206.06 L 65.46 206.21 L 62.49 206.32 L 59.74 205.96 L 56.87 206.10 L 53.87 206.28 L 51.13 206.19 L 48.18 205.93 L 45.43 205.87 L 42.59 206.02 L 40.08 205.74 L 37.24 205.70 L 34.20 205.85 L 31.13 205.64 L 28.58 205.92 L 25.71 205.95 L 22.81 205.87 L 20.01 205.74" fill="none" stroke="black" stroke-width="1"/>
  <path d="M 66.95 176.29 L 61.12 176.12" fill="none" stroke="black" stroke-width="1"/>
  <path d="M 20.00 102.99 L 22.72 102.86 L 25.54 102.91 L 28.28 102.91 L 31.16 102.67 L 34.16 102.83 L 36.94 102.69 L 39.63 102.86 L 42.53 102.65 L 45.57 102.77 L 48.29 102.73 L 51.10 102.50 L 53.97 102.54 L 56.84 102.58 L 59.44 102.35 L 62.51 102.58 L 65.14 102.45 L 68.19 102.22 L 71.17 102.40 L 73.82 102.31 L 76.71 102.16 L 79.69 102.54 L 82.34 102.45 L 85.17 102.31 L 88.07 102.25 L 90.99 102.41 L 93.68 102.17 L 96.57 102.32 L 99.58 101.89 L 102.39 101.95 L 104.92 102.03 L 107.79 101.85 L 110.73 102.21 L 113.57 102.11 L 116.50 102.01 L 119.03 101.91 L 122.15 101.74 L 124.89 101.97 L 127.65 101.80 L 130.51 101.76 L 133.53 101.60 L 136.30 101.86 L 139.09 101.56 L 141.95 101.64 L 144.69 101.44 L 147.51 101.48 L 150.55 101.41 L 153.18 101.40 L 156.20 101.48 L 159.06 101.63 L 161.61 101.51 L 164.34 101.56 L 167.35 101.35 L 170.33 101.22 L 173.17 101.19 L 176.00 101.22 L 178.80 101.15 L 181.52 101.33 L 184.17 101.12 L 187.33 101.22 L 189.96 101.01 L 192.80 101.21 L 195.63 101.00 L 198.30 100.97 L 201.15 101.10 L 204.19 100.94 L 207.00 100.78 L 209.91 100.76 L 212.69 100.93 L 215.69 100.85 L 218.18 100.64 L 221.31 100.86 L 224.03 100.93 L 227.01 100.83 L 229.69 100.73 L 232.50 100.56 L 235.19 100.42 L 238.05 100.68 L 241.03 100.53 L 243.79 100.53 L 246.75 100.62 L 249.55 100.33 L 252.48 100.37 L 255.31 100.17 L 258.11 100.26 L 261.06 100.12 L 263.88 100.48 L 266.51 100.05 L 269.13 100.04 L 272.04 100.24 L 274.81 100.10 L 277.86 100.14 L 280.91 100.01 L 283.33 100.23 L 286.46 100.26 L 289.40 99.88 L 292.09 99.82 L 294.96 100.12 L 297.61 99.73 L 300.39 100.07 L 303.57 99.82 L 306.11 99.97 L 309.22 99.79 L 311.76 99.59 L 314.70 99.75 L 317.50 99.57 L 320.28 99.60 L 322.99 99.43 L 326.11 99.82 L 328.98 99.78 L 331.55 99.80 L 334.67 99.56 L 337.22 99.45 L 340.30 99.34 L 342.98 99.50 L 345.90 99.46 L 348.81 99.39 L 351.54 99.37 L 354.47 99.13 L 357.08 99.43 L 360.14 99.40 L 362.68 99.42 L 365.93 99.18 L 368.63 99.02 L 371.24 99.10 L 374.18 99.17 L 377.11 98.98 L 380.09 99.16 L 382.89 99.23 L 385.51 98.98 L 388.37 99.00 L 391.32 99.04 L 393.84 99.09 L 396.87 98.78 L 399.92 98.99 L 402.77 98.91 L 405.49 98.80 L 408.16 98.61 L 411.06 98.56 L 413.84 98.78 L 416.69 98.63 L 419.61 98.78 L 422.25 98.51 L 425.21 98.64 L 427.96 98.50 L 431.02 98.40 L 433.58 98.64 L 436.66 98.56 L 439.43 98.48 L 442.25 98.52 L 445.10 98.35 L 447.82 98.50 L 450.48 98.51 L 453.74 98.57 L 456.44 98.32 L 459.33 98.45 L 462.04 98.29 L 464.77 98.20 L 467.51 98.39 L 470.46 98.05 L 473.26 98.06 L 476.00 98.34 L 479.07 98.20 L 481.75 98.23 L 484.58 97.99 L 487.45 98.08 L 490.15 97.99 L 493.21 98.16 L 495.99 98.01 L 498.88 97.94 L 501.83 97.90 L 504.53 97.97 L 507.45 97.87 L 510.13 97.80 L 512.98 98.03 L 515.91 97.57 L 518.63 97.54 L 521.60 97.74 L 524.30 97.55 L 527.16 97.50 L 530.22 97.51 L 532.73 97.59 L 535.71 97.58 L 538.38 97.34 L 541.58 97.39 L 544.38 97.29 L 547.02 97.56 L 549.66 97.40 L 552.66 97.21 L 555.58 97.23 L 558.27 97.26 L 561.21 97.53 L 564.05 97.27 L 566.99 97.45 L 569.86 97.15 L 572.55 97.23 L 575.31 97.18 L 578.02 97.15 L 581.22 96.94 L 584.01 97.10 L 586.85 97.17 L 589.45 97.09 L 592.47 97.18 L 595.25 96.93 L 597.85 97.11 L 600.93 97.08 L 603.82 96.80 L 606.59 96.78 L 609.38 96.87" fill="none" stroke="black" stroke-width="1"/>
  <path d="M 568.04 135.16 L 562.01 135.31" fill="none" stroke="black" stroke-width="1"/>
  <path d="M 523.99 81.96 L 517.81 82.11" fill="none" stroke="black" stroke-width="1"/>
  <path d="M 582.82 37.70 L 576.83 37.91" fill="none" stroke="black" stroke-width="1"/>
  <path d="M 473.89 23.61 L 479.82 23.15" fill="none" stroke="black" stroke-width="1"/>
  <path d="M 449.70 126.42 L 444.25 126.64" fill="none" stroke="black" stroke-width="1"/>
  <path d="M 405.66 67.58 L 399.94 67.71" fill="none" stroke="black" stroke-width="1"/>
  <path d="M 361.47 34.89 L 355.54 35.20" fill="none" stroke="black" stroke-width="1"/>
  <path d="M 340.93 42.48 L 335.50 44.93" fill="none" stroke="black" stroke-width="1"/>
  <path d="M 332.08 42.43 L 326.80 45.28" fill="none" stroke="black" stroke-width="1"/>
  <path d="M 326.46 57.60 L 320.86 59.54" fill="none" stroke="black" stroke-width="1"/>
  <path d="M 317.37 57.53 L 312.08 59.91" fill="none" stroke="black" stroke-width="1"/>
  <path d="M 305.91 74.29 L 311.69 72.85" fill="none" stroke="black" stroke-width="1"/>
  <path d="M 302.94 72.12 L 296.96 73.73" fill="none" stroke="black" stroke-width="1"/>
  <path d="M 303.17 79.27 L 297.36 79.46" fill="none" stroke="black" stroke-width="1"/>
  <path d="M 296.89 87.64 L 291.19 88.42" fill="none" stroke="black" stroke-width="1"/>
  <path d="M 287.93 87.82 L 281.89 88.76" fill="none" stroke="black" stroke-width="1"/>
  <path d="M 285.22 102.73 L 279.17 102.90" fill="none" stroke="black" stroke-width="1"/>
  <path d="M 276.09 102.54 L 270.21 102.89" fill="none" stroke="black" stroke-width="1"/>
  <path d="M 272.69 115.87 L 267.85 119.26" fill="none" stroke="black" stroke-width="1"/>
  <path d="M 263.78 115.46 L 259.19 119.17" fill="none" stroke="black" stroke-width="1"/>
  <path d="M 258.67 129.25 L 258.29 135.11" fill="none" stroke="black" stroke-width="1"/>
  <path d="M 252.78 135.19 L 255.76 136.66 L 258.68 138.15" fill="none" stroke="black" stroke-width="1"/>
  <path d="M 258.66 138.17 L 258.60 138.51 L 258.37 138.77 L 258.27 139.12 L 258.10 139.39 L 257.94 139.68 L 257.84 140.01 L 257.78 140.35 L 257.59 140.65 L 257.49 140.92 L 257.33 141.27 L 257.10 141.60 L 257.05 141.88 L 256.91 142.21 L 256.75 142.47 L 256.59 142.68 L 256.42 143.03 L 256.18 143.32 L 256.06 143.54 L 255.84 143.74 L 255.64 144.01 L 255.47 144.13 L 255.18 144.43 L 254.97 144.57 L 254.67 144.79 L 254.43 144.88 L 254.11 145.12 L 253.75 145.21 L 253.53 145.41 L 253.18 145.46 L 252.93 145.68 L 252.54 145.75 L 252.31 145.94 L 252.01 146.13 L 251.69 146.19 L 251.35 146.24 L 251.07 146.45 L 250.84 146.66 L 250.46 146.71 L 250.14 146.94 L 249.87 147.00" fill="none" stroke="black" stroke-width="1"/>
  <path d="M 249.23 134.74 L 250.87 129.46" fill="none" stroke="black" stroke-width="1"/>
  <path d="M 246.80 126.33 L 245.41 127.85 L 243.95 129.23" fill="none" stroke="black" stroke-width="1"/>
  <path d="M 252.90 20.51 L 258.98 20.00" fill="none" stroke="black" stroke-width="1"/>
</svg>