<svg xmlns="http://www.w3.org/2000/svg" width="800" height="600" viewBox="0 0 800 600">
  <rect width="100%" height="100%" fill="white"/>
  <path d="M 47.78 477.55 L 53.25 477.54 L 58.66 477.47 L 64.16 477.39 L 69.65 477.24 L 75.16 477.19 L 80.69 477.23 L 86.09 477.09 L 91.61 476.99 L 97.00 476.97 L 102.45 476.98 L 107.92 476.86 L 113.45 476.85 L 118.96 476.70 L 124.36 476.77 L 129.86 476.60 L 135.43 476.58 L 140.92 476.50 L 146.26 476.47 L 151.85 476.40 L 157.22 476.36 L 162.67 476.27 L 168.16 476.23 L 173.64 476.16 L 179.16 476.16 L 184.67 476.01 L 190.19 476.01 L 195.67 475.83 L 201.01 475.88 L 206.48 475.81 L 211.97 475.74 L 217.49 475.65 L 223.00 475.65 L 228.44 475.52 L 233.88 475.46 L 239.40 475.36 L 244.80 475.39 L 250.33 475.30 L 255.80 475.30 L 261.31 475.18 L 266.75 475.05 L 272.21 475.01 L 277.65 474.92 L 283.19 474.89 L 288.68 474.90 L 294.13 474.76 L 299.58 474.77 L 305.04 474.64 L 310.53 474.69 L 316.10 474.59 L 321.43 474.57 L 327.05 474.52 L 332.41 474.33 L 337.88 474.30 L 343.43 474.33 L 348.93 474.25 L 354.43 474.18 L 359.77 474.01 L 365.34 474.02 L 370.78 474.03 L 376.29 473.87 L 381.77 473.89 L 387.27 473.82 L 392.70 473.72 L 398.22 473.64 L 403.65 473.67 L 409.03 473.48 L 414.64 473.45 L 420.07 473.44 L 425.48 473.40 L 430.92 473.35 L 436.41 473.15 L 442.02 473.12 L 447.40 473.11 L 452.90 472.99 L 458.31 472.91 L 463.79 472.96 L 469.29 472.80 L 474.75 472.80 L 480.26 472.78 L 485.82 472.72 L 491.29 472.62 L 496.63 472.52 L 502.18 472.51 L 507.68 472.42 L 513.17 472.43 L 518.54 472.24 L 523.99 472.20 L 529.54 472.20 L 534.98 472.12 L 540.41 472.10 L 545.96 472.01" fill="none" stroke="black" stroke-width="1"/>
  <path d="M 545.98 472.01 L 540.41 472.09 L 534.91 472.15 L 529.45 472.15 L 523.77 472.33 L 518.24 472.35 L 512.78 472.42 L 507.28 472.41 L 501.72 472.46 L 496.21 472.54 L 490.65 472.60 L 485.12 472.67 L 479.53 472.68 L 474.04 472.81 L 468.49 472.89 L 462.90 472.86 L 457.45 472.99 L 451.90 473.13 L 446.34 473.15 L 440.75 473.26 L 435.34 473.23 L 429.67 473.28 L 424.21 473.29 L 418.64 473.34 L 413.08 473.55 L 407.66 473.62 L 402.08 473.63 L 396.46 473.68 L 390.97 473.66 L 385.52 473.84 L 379.94 473.81 L 374.37 473.89 L 368.84 474.03 L 363.40 474.03 L 357.83 474.12 L 352.31 474.09 L 346.67 474.27 L 341.19 474.30 L 335.61 474.30 L 330.11 474.39 L 324.58 474.52 L 318.98 474.46 L 313.50 474.65 L 308.04 474.57 L 302.39 474.77 L 296.87 474.70 L 291.44 474.87 L 285.83 474.98 L 280.25 474.98 L 274.77 475.06 L 269.16 475.14 L 263.73 475.23 L 258.16 475.27 L 252.59 475.19 L 247.06 475.36 L 241.59 475.36 L 236.03 475.44 L 230.56 475.51 L 224.95 475.64 L 219.48 475.61 L 213.88 475.70 L 208.37 475.81 L 202.90 475.79 L 197.30 475.94 L 191.80 475.98 L 186.16 475.94 L 180.74 476.13 L 175.14 476.11 L 169.55 476.14 L 164.15 476.18 L 158.46 476.35 L 152.95 476.45 L 147.53 476.47 L 141.95 476.54 L 136.35 476.56 L 130.90 476.53 L 125.27 476.74 L 119.77 476.80 L 114.31 476.83 L 108.81 476.79 L 103.21 476.92 L 97.68 477.03 L 92.10 477.10 L 86.52 477.10 L 81.07 477.11 L 75.47 477.17 L 69.94 477.21 L 64.41 477.29 L 58.93 477.42 L 53.42 477.49 L 47.85 477.54" fill="none" stroke="black" stroke-width="1"/>
  <path d="M 33.95 455.33 L 38.92 455.05 L 44.11 454.91 L 49.10 454.63 L 54.12 454.35 L 59.22 454.11 L 64.23 453.88 L 69.24 453.59 L 74.33 453.35 L 79.26 453.05 L 84.36 452.88 L 89.36 452.62" fill="none" stroke="black" stroke-width="1"/>
  <path d="M 100.49 475.51 L 105.90 474.13" fill="none" stroke="black" stroke-width="1"/>
  <path d="M 130.85 491.37 L 132.47 491.66 L 134.17 491.99 L 135.78 492.38 L 137.47 492.70 L 139.14 493.06 L 140.76 493.47 L 142.37 493.90 L 144.04 494.25 L 145.74 494.67 L 147.33 495.00 L 148.96 495.32 L 150.64 495.69 L 152.30 495.96 L 153.96 496.26 L 155.66 496.40 L 157.31 496.69 L 158.93 496.76 L 160.70 496.92 L 162.43 496.91 L 164.13 496.91 L 165.84 496.78 L 167.61 496.64 L 169.37 496.37 L 171.13 496.14 L 172.95 495.72 L 174.69 495.45 L 176.51 495.07 L 178.28 494.60 L 180.09 494.09 L 181.89 493.64 L 183.68 493.10 L 185.51 492.61 L 187.40 492.15 L 189.14 491.55 L 190.92 491.08 L 192.76 490.51 L 194.63 490.00 L 196.37 489.53 L 198.19 489.11 L 199.97 488.64" fill="none" stroke="black" stroke-width="1"/>
  <path d="M 200.03 483.03 L 201.19 478.37 L 202.43 473.51 L 203.52 468.89 L 204.81 464.13 L 205.91 459.30 L 207.16 454.53 L 208.35 449.84" fill="none" stroke="black" stroke-width="1"/>
  <path d="M 213.83 458.10 L 215.46 458.46 L 217.15 458.73 L 218.81 459.10 L 220.45 459.46 L 222.11 459.86 L 223.75 460.24 L 225.39 460.57 L 227.04 461.04 L 228.71 461.38 L 230.33 461.80 L 232.00 462.07 L 233.64 462.50 L 235.26 462.84 L 236.97 463.09 L 238.64 463.33 L 240.32 463.52 L 242.02 463.64 L 243.72 463.75 L 245.44 463.77 L 247.15 463.75 L 248.89 463.55 L 250.64 463.48 L 252.46 463.18 L 254.17 462.97 L 256.02 462.56 L 257.74 462.27 L 259.48 461.90 L 261.34 461.41 L 263.15 460.92 L 264.96 460.44 L 266.80 459.93 L 268.59 459.40 L 270.46 458.94 L 272.23 458.33 L 274.11 457.74 L 275.86 457.27 L 277.59 456.79 L 279.49 456.28 L 281.37 455.86 L 283.09 455.37" fill="none" stroke="black" stroke-width="1"/>
  <path d="M 300.59 463.08 L 304.13 458.78" fill="none" stroke="black" stroke-width="1"/>
  <path d="M 311.99 452.15 L 314.93 447.59" fill="none" stroke="black" stroke-width="1"/>
  <path d="M 310.82 408.30 L 306.25 409.74 L 301.63 411.09 L 296.99 412.52 L 292.30 413.79 L 287.73 415.31 L 283.10 416.65" fill="none" stroke="black" stroke-width="1"/>
  <path d="M 296.87 416.61 L 302.06 416.99 L 307.33 417.34 L 312.47 417.58 L 317.57 418.00 L 322.74 418.37 L 327.95 418.65 L 333.18 419.04 L 338.38 419.41" fill="none" stroke="black" stroke-width="1"/>
  <path d="M 321.74 436.68 L 327.17 435.53" fill="none" stroke="black" stroke-width="1"/>
  <path d="M 326.65 437.09 L 322.41 440.52" fill="none" stroke="black" stroke-width="1"/>
  <path d="M 319.05 444.37 L 318.07 449.16 L 316.99 454.04 L 315.90 458.87 L 314.87 463.66 L 313.80 468.54 L 312.81 473.38 L 311.86 478.18 L 310.78 483.09" fill="none" stroke="black" stroke-width="1"/>
  <path d="M 293.97 471.12 L 288.73 473.00" fill="none" stroke="black" stroke-width="1"/>
  <path d="M 258.11 474.67 L 252.66 474.77" fill="none" stroke="black" stroke-width="1"/>
  <path d="M 249.92 471.96 L 248.67 476.65 L 247.51 481.42 L 246.27 486.14 L 245.12 490.98 L 244.00 495.65 L 242.85 500.45 L 241.60 505.14" fill="none" stroke="black" stroke-width="1"/>
  <path d="M 235.96 510.70 L 237.73 506.15 L 239.65 501.47 L 241.49 496.85 L 243.33 492.27 L 245.25 487.70 L 247.10 483.12" fill="none" stroke="black" stroke-width="1"/>
  <path d="M 218.56 480.13 L 220.10 474.78" fill="none" stroke="black" stroke-width="1"/>
  <path d="M 223.75 471.64 L 226.33 466.63" fill="none" stroke="black" stroke-width="1"/>
  <path d="M 229.10 463.24 L 231.73 458.42" fill="none" stroke="black" stroke-width="1"/>
  <path d="M 234.41 457.57 L 237.76 453.08" fill="none" stroke="black" stroke-width="1"/>
  <path d="M 231.48 446.58 L 234.93 442.21" fill="none" stroke="black" stroke-width="1"/>
  <path d="M 227.77 435.95 L 226.57 441.31 L 225.53 446.52 L 224.22 451.97 L 223.11 457.22 L 222.00 462.53 L 220.82 467.88 L 219.67 473.18 L 218.40 478.51 L 217.30 483.82 L 216.09 489.10 L 214.97 494.35 L 213.84 499.74" fill="none" stroke="black" stroke-width="1"/>
  <path d="M 213.87 499.67 L 227.71 436.01" fill="none" stroke="black" stroke-width="1"/>
  <path d="M 227.05 438.74 L 228.38 433.23" fill="none" stroke="black" stroke-width="1"/>
  <path d="M 227.76 422.16 L 222.63 422.21 L 217.31 422.12 L 212.28 422.23 L 207.08 422.10 L 201.83 422.16 L 196.62 422.09 L 191.42 422.12 L 186.28 422.16" fill="none" stroke="black" stroke-width="1"/>
  <path d="M 180.72 416.69 L 176.28 418.94 L 171.81 421.17 L 167.41 423.22 L 162.95 425.47 L 158.49 427.68" fill="none" stroke="black" stroke-width="1"/>
  <path d="M 161.28 433.39 L 155.65 433.18" fill="none" stroke="black" stroke-width="1"/>
  <path d="M 112.78 441.76 L 110.20 446.65" fill="none" stroke="black" stroke-width="1"/>
  <path d="M 104.61 447.48 L 101.56 452.13" fill="none" stroke="black" stroke-width="1"/>
  <path d="M 108.73 455.37 L 106.48 459.88 L 104.33 464.20 L 102.15 468.67 L 99.90 473.13 L 97.71 477.57" fill="none" stroke="black" stroke-width="1"/>
  <path d="M 89.38 491.37 L 90.82 488.51 L 92.13 485.78 L 93.53 482.86 L 94.89 480.09 L 96.34 477.21 L 97.65 474.34 L 99.06 471.47 L 100.40 468.58 L 101.81 465.65 L 103.16 462.85 L 104.56 460.07 L 105.91 457.19 L 107.30 454.48 L 108.67 451.63 L 110.12 448.92 L 111.43 446.23 L 112.75 443.62 L 114.19 441.02 L 115.56 438.61 L 116.95 436.05 L 118.27 433.65 L 119.71 431.34 L 121.12 429.08 L 122.48 426.86 L 123.91 424.68 L 125.24 422.57 L 126.68 420.49 L 128.01 418.44 L 129.36 416.50 L 130.77 414.41 L 132.15 412.47 L 133.54 410.46 L 134.89 408.41 L 136.31 406.53 L 137.74 404.59 L 139.08 402.58 L 140.46 400.53 L 141.84 398.59 L 143.18 396.58 L 144.61 394.49" fill="none" stroke="black" stroke-width="1"/>
  <path d="M 144.68 394.49 L 142.37 397.91 L 140.06 401.25 L 137.76 404.55 L 135.45 407.82 L 133.15 411.09 L 130.84 414.39 L 128.53 417.73 L 126.23 421.15 L 123.92 424.66 L 121.61 428.29 L 119.31 432.07 L 117.00 436.01 L 114.69 440.14 L 112.39 444.43 L 110.08 448.88 L 107.77 453.44 L 105.47 458.09 L 103.16 462.82 L 100.85 467.60 L 98.55 472.40 L 96.24 477.20 L 93.93 481.98 L 91.63 486.71 L 89.32 491.37" fill="none" stroke="black" stroke-width="1"/>
  <path d="M 89.32 491.37 L 87.06 487.95 L 84.87 484.61 L 82.73 481.31 L 80.61 478.04 L 78.49 474.77 L 76.35 471.47 L 74.16 468.13 L 71.90 464.71 L 69.54 461.20 L 67.06 457.57 L 64.44 453.79 L 61.64 449.85 L 58.67 445.72 L 55.53 441.42 L 52.24 436.98 L 48.83 432.42 L 45.33 427.76 L 41.75 423.04 L 38.13 418.26 L 34.48 413.46 L 30.83 408.66 L 27.21 403.88 L 23.63 399.15 L 20.13 394.49" fill="none" stroke="black" stroke-width="1"/>
  <path d="M 20.05 394.45 L 22.15 397.26 L 24.28 400.05 L 26.47 402.96 L 28.61 405.75 L 30.86 408.59 L 33.00 411.51 L 35.21 414.45 L 37.40 417.27 L 39.58 420.09 L 41.77 423.01 L 44.00 425.88 L 46.07 428.68 L 48.10 431.46 L 50.26 434.24 L 52.21 436.91 L 54.29 439.65 L 56.20 442.23 L 58.13 444.86 L 59.85 447.37 L 61.73 449.84 L 63.38 452.15 L 65.06 454.56 L 66.63 456.82 L 68.15 459.04 L 69.61 461.22 L 71.05 463.33 L 72.46 465.36 L 73.79 467.47 L 75.16 469.47 L 76.42 471.50 L 77.63 473.45 L 78.97 475.45 L 80.23 477.37 L 81.50 479.38 L 82.76 481.32 L 84.05 483.33 L 85.32 485.35 L 86.65 487.33 L 88.06 489.30 L 89.35 491.42" fill="none" stroke="black" stroke-width="1"/>
  <path d="M 80.94 483.12 L 77.23 479.45 L 73.67 475.74 L 69.97 472.04" fill="none" stroke="black" stroke-width="1"/>
  <path d="M 74.20 461.29 L 76.80 466.22" fill="none" stroke="black" stroke-width="1"/>
  <path d="M 80.62 458.10 L 81.49 452.75" fill="none" stroke="black" stroke-width="1"/>
  <path d="M 75.47 435.97 L 80.99 436.07 L 86.34 436.11 L 91.95 436.04 L 97.40 436.11 L 102.77 436.08 L 108.20 436.25 L 113.71 436.27 L 119.25 436.18 L 124.69 436.22 L 130.08 436.40 L 135.60 436.38 L 141.07 436.33 L 146.49 436.46 L 152.00 436.44 L 157.55 436.51 L 162.93 436.45 L 168.47 436.63 L 173.81 436.63 L 179.30 436.69 L 184.90 436.65 L 190.27 436.69 L 195.76 436.80 L 201.25 436.83 L 206.68 436.73 L 212.08 436.79 L 217.68 436.91 L 223.06 436.86 L 228.53 436.99 L 234.03 436.91 L 239.51 436.98 L 244.97 437.08 L 250.38 437.10 L 255.97 437.06 L 261.44 437.13 L 266.77 437.23 L 272.25 437.23 L 277.75 437.28 L 283.30 437.26 L 288.74 437.36 L 294.13 437.32 L 299.57 437.43 L 305.17 437.35 L 310.60 437.41 L 316.00 437.51 L 321.42 437.49 L 327.05 437.50 L 332.40 437.63 L 337.91 437.58 L 343.32 437.58 L 348.81 437.67 L 354.29 437.71 L 359.70 437.82 L 365.31 437.71 L 370.75 437.81 L 376.25 437.88 L 381.67 437.93 L 387.17 437.94 L 392.62 437.99 L 397.97 437.93 L 403.51 438.10 L 408.97 438.02 L 414.39 438.06 L 419.97 438.22 L 425.41 438.10 L 430.91 438.21 L 436.26 438.29 L 441.78 438.33 L 447.26 438.32 L 452.68 438.32 L 458.27 438.35 L 463.66 438.44 L 469.08 438.45 L 474.64 438.47 L 480.10 438.45 L 485.47 438.55 L 491.05 438.53 L 496.43 438.68 L 501.99 438.63 L 507.34 438.67 L 512.82 438.79 L 518.33 438.75" fill="none" stroke="black" stroke-width="1"/>
  <path d="M 518.27 449.78 L 519.71 448.12 L 521.03 446.41 L 522.48 444.69 L 523.80 442.97 L 525.15 441.28 L 526.56 439.49 L 528.03 437.68 L 529.33 436.00 L 530.73 434.21 L 532.10 432.52 L 533.52 430.82 L 534.86 429.11 L 536.18 427.47 L 537.63 425.78 L 538.95 424.14 L 540.40 422.57 L 541.75 421.02 L 543.16 419.51 L 544.58 418.00 L 545.93 416.64 L 547.34 415.37 L 548.70 413.98 L 550.03 412.72 L 551.47 411.51 L 552.87 410.29 L 554.23 409.19 L 555.65 408.09 L 557.00 407.00 L 558.44 405.99 L 559.77 404.89 L 561.09 403.89 L 562.54 402.83 L 563.92 401.85 L 565.31 400.80 L 566.72 399.82 L 568.08 398.76 L 569.45 397.78 L 570.85 396.67 L 572.26 395.63 L 573.61 394.50" fill="none" stroke="black" stroke-width="1"/>
  <path d="M 573.69 394.49 L 571.38 396.30 L 569.07 398.05 L 566.77 399.77 L 564.46 401.46 L 562.15 403.16 L 559.85 404.87 L 557.54 406.62 L 555.23 408.43 L 552.93 410.32 L 550.62 412.30 L 548.32 414.40 L 546.01 416.64 L 543.70 419.02 L 541.40 421.53 L 539.09 424.16 L 536.78 426.89 L 534.48 429.69 L 532.17 432.55 L 529.86 435.45 L 527.56 438.37 L 525.25 441.29 L 522.94 444.18 L 520.64 447.05 L 518.33 449.85" fill="none" stroke="black" stroke-width="1"/>
  <path d="M 518.33 449.85 L 516.02 447.54 L 513.72 445.24 L 511.41 442.93 L 509.10 440.62 L 506.80 438.32 L 504.49 436.01 L 502.19 433.70 L 499.88 431.40 L 497.57 429.09 L 495.27 426.78 L 492.96 424.48 L 490.65 422.17 L 488.35 419.86 L 486.04 417.56 L 483.73 415.25 L 481.43 412.94 L 479.12 410.64 L 476.81 408.33 L 474.51 406.03 L 472.20 403.72 L 469.89 401.41 L 467.59 399.11 L 465.28 396.80 L 462.97 394.49" fill="none" stroke="black" stroke-width="1"/>
  <path d="M 462.94 394.47 L 464.40 395.85 L 465.71 397.25 L 467.08 398.69 L 468.49 400.02 L 469.93 401.41 L 471.27 402.79 L 472.71 404.12 L 474.04 405.56 L 475.42 407.00 L 476.82 408.34 L 478.20 409.72 L 479.59 411.11 L 481.05 412.52 L 482.37 413.88 L 483.76 415.35 L 485.14 416.65 L 486.53 418.04 L 487.91 419.42 L 489.33 420.88 L 490.68 422.19 L 492.05 423.58 L 493.45 424.97 L 494.86 426.39 L 496.22 427.74 L 497.58 429.10 L 498.98 430.51 L 500.35 431.97 L 501.75 433.28 L 503.09 434.65 L 504.51 436.05 L 505.90 437.51 L 507.27 438.82 L 508.63 440.20 L 510.04 441.59 L 511.36 443.03 L 512.80 444.36 L 514.25 445.81 L 515.56 447.13 L 516.87 448.57 L 518.33 449.90" fill="none" stroke="black" stroke-width="1"/>
  <path d="M 504.52 452.55 L 499.55 452.35 L 494.50 452.07 L 489.35 451.84 L 484.44 451.56 L 479.32 451.42 L 474.34 451.13 L 469.29 450.89 L 464.22 450.68 L 459.15 450.44 L 454.22 450.20 L 449.13 449.92" fill="none" stroke="black" stroke-width="1"/>
  <path d="M 421.53 460.89 L 419.50 465.67 L 417.26 470.62 L 415.17 475.39 L 413.09 480.28" fill="none" stroke="black" stroke-width="1"/>
  <path d="M 404.74 474.86 L 410.23 474.63" fill="none" stroke="black" stroke-width="1"/>
  <path d="M 404.85 463.72 L 402.12 468.33 L 399.40 473.01 L 396.58 477.59" fill="none" stroke="black" stroke-width="1"/>
  <path d="M 393.78 463.69 L 402.08 408.33" fill="none" stroke="black" stroke-width="1"/>
  <path d="M 402.00 408.33 L 401.21 413.28 L 400.58 418.32 L 399.74 423.35 L 399.09 428.45 L 398.34 433.50 L 397.53 438.51 L 396.78 443.45 L 396.01 448.62 L 395.33 453.61 L 394.64 458.64 L 393.85 463.63" fill="none" stroke="black" stroke-width="1"/>
  <path d="M 379.92 455.39 L 381.35 450.79 L 382.65 446.19 L 383.99 441.62 L 385.52 436.89 L 386.91 432.28 L 388.22 427.70" fill="none" stroke="black" stroke-width="1"/>
  <path d="M 386.39 430.71 L 384.52 435.90" fill="none" stroke="black" stroke-width="1"/>
  <path d="M 376.28 446.33 L 372.57 442.22" fill="none" stroke="black" stroke-width="1"/>
  <path d="M 352.32 483.10 L 354.45 483.60 L 356.46 483.98 L 358.49 484.46 L 360.61 484.96 L 362.70 485.47 L 364.75 485.99 L 366.77 486.45 L 368.90 487.04 L 370.98 487.58 L 373.04 488.05 L 375.10 488.54 L 377.19 489.00 L 379.18 489.43 L 381.33 489.84 L 383.33 490.13 L 385.48 490.53 L 387.47 490.78 L 389.62 491.03 L 391.69 491.18 L 393.77 491.30 L 395.84 491.27 L 397.92 491.30 L 399.92 491.13 L 402.07 491.07 L 404.11 490.91 L 406.22 490.65 L 408.34 490.33 L 410.37 490.08 L 412.38 489.73 L 414.52 489.39 L 416.67 488.96 L 418.67 488.64 L 420.73 488.28 L 422.82 487.87 L 424.82 487.52 L 426.98 487.10 L 429.07 486.71 L 431.13 486.39 L 433.22 486.10 L 435.28 485.78" fill="none" stroke="black" stroke-width="1"/>
  <path d="M 421.54 472.04 L 422.93 467.46 L 424.33 462.89 L 425.73 458.21 L 426.99 453.66 L 428.41 448.97 L 429.80 444.35" fill="none" stroke="black" stroke-width="1"/>
  <path d="M 432.46 438.82 L 438.05 438.72" fill="none" stroke="black" stroke-width="1"/>
  <path d="M 441.93 432.45 L 445.49 428.29" fill="none" stroke="black" stroke-width="1"/>
  <path d="M 460.19 436.09 L 465.80 435.88" fill="none" stroke="black" stroke-width="1"/>
  <path d="M 457.50 411.07 L 452.32 412.70 L 447.12 414.28 L 441.99 415.82 L 436.94 417.45 L 431.75 418.99 L 426.54 420.56 L 421.43 422.23" fill="none" stroke="black" stroke-width="1"/>
  <path d="M 368.49 398.62 L 363.75 401.51" fill="none" stroke="black" stroke-width="1"/>
  <path d="M 366.18 394.55 L 364.89 395.83 L 363.46 397.18 L 362.17 398.46 L 360.85 399.62 L 359.51 400.76 L 358.28 401.94 L 357.08 403.12 L 355.73 404.24 L 354.45 405.45 L 353.16 406.59 L 351.85 407.79 L 350.51 409.08 L 349.17 410.48 L 347.76 411.80 L 346.30 413.28 L 344.85 414.82 L 343.22 416.60 L 341.76 418.23 L 340.08 420.18 L 338.42 422.12 L 336.63 424.34 L 334.83 426.60 L 332.89 429.13 L 331.01 431.65 L 329.07 434.43 L 327.00 437.15 L 324.90 440.12 L 322.83 442.98 L 320.70 446.06 L 318.56 448.99 L 316.40 452.01 L 314.21 455.08 L 312.08 458.16 L 309.84 461.11 L 307.71 464.11 L 305.48 466.95 L 303.25 469.77 L 301.17 472.49 L 299.01 475.03 L 296.95 477.60 L 294.86 479.99 L 292.80 482.31 L 290.76 484.61 L 288.64 486.78 L 286.55 488.88 L 284.47 491.06 L 282.40 493.08 L 280.31 495.18 L 278.24 497.23 L 276.14 499.18 L 274.06 501.09 L 271.98 503.12 L 269.97 505.08 L 267.81 507.03 L 265.81 508.91 L 263.65 510.96 L 261.60 513.01 L 259.48 514.94 L 257.32 516.90 L 255.32 519.01" fill="none" stroke="black" stroke-width="1"/>
  <path d="M 255.33 519.11 L 253.29 518.10 L 251.12 517.23 L 248.99 516.38 L 246.83 515.47 L 244.58 514.57 L 242.48 513.78 L 240.35 512.87 L 238.11 512.10 L 236.02 511.29 L 233.78 510.39 L 231.66 509.45 L 229.51 508.59 L 227.39 507.60 L 225.35 506.67 L 223.26 505.56 L 221.34 504.56 L 219.48 503.42 L 217.52 502.22 L 215.70 500.93 L 213.93 499.61 L 212.36 498.19 L 210.67 496.83 L 209.19 495.49 L 207.73 494.00 L 206.31 492.61 L 205.03 491.07 L 203.83 489.55 L 202.50 488.00 L 201.20 486.30 L 200.06 484.73 L 198.83 483.00 L 197.61 481.21 L 196.37 479.27 L 195.08 477.39 L 193.70 475.29 L 192.39 473.22 L 190.94 470.87 L 189.45 468.66 L 187.79 466.18 L 186.18 463.64 L 184.36 460.85 L 182.59 458.07 L 180.66 455.00 L 178.77 451.93 L 176.74 448.67 L 174.76 445.33 L 172.65 441.90 L 170.59 438.37 L 168.40 434.67 L 166.32 431.14 L 164.14 427.36 L 161.98 423.74 L 159.77 419.94 L 157.61 416.27 L 155.36 412.53 L 153.26 408.84 L 151.11 405.26 L 148.96 401.54 L 146.84 398.07 L 144.75 394.48" fill="none" stroke="black" stroke-width="1"/>
  <path d="M 144.68 394.49 L 148.18 400.36 L 151.76 406.41 L 155.38 412.57 L 159.03 418.79 L 162.68 425.01 L 166.30 431.17 L 169.88 437.21 L 173.38 443.08 L 176.79 448.72 L 180.08 454.08 L 183.22 459.08 L 186.19 463.69 L 188.94 467.90 L 191.45 471.80 L 193.76 475.41 L 195.93 478.76 L 198.01 481.88 L 200.03 484.79 L 202.06 487.54 L 204.13 490.14 L 206.30 492.62 L 208.62 495.02 L 211.13 497.36 L 213.87 499.67 L 216.85 501.87 L 219.99 503.86 L 223.28 505.68 L 226.69 507.36 L 230.19 508.92 L 233.77 510.39 L 237.39 511.81 L 241.04 513.20 L 244.69 514.59 L 248.31 516.01 L 251.89 517.48 L 255.39 519.04" fill="none" stroke="black" stroke-width="1"/>
  <path d="M 263.74 513.50 L 265.89 509.15 L 268.13 504.58 L 270.40 500.23 L 272.63 495.79 L 274.78 491.34" fill="none" stroke="black" stroke-width="1"/>
  <path d="M 269.23 491.37 L 283.07 422.17" fill="none" stroke="black" stroke-width="1"/>
  <path d="M 283.02 422.10 L 281.90 427.39 L 280.87 432.82 L 279.79 438.07 L 278.78 443.44 L 277.72 448.67 L 276.61 454.05 L 275.62 459.46 L 274.55 464.75 L 273.38 469.98 L 272.30 475.38 L 271.23 480.75 L 270.25 486.04 L 269.16 491.35" fill="none" stroke="black" stroke-width="1"/>
  <path d="M 255.39 519.04 L 258.85 515.63 L 262.31 512.28 L 265.77 508.99 L 269.23 505.72 L 272.69 502.45 L 276.15 499.15 L 279.61 495.81 L 283.07 492.39 L 286.53 488.88 L 289.99 485.25 L 293.45 481.47 L 296.91 477.53 L 300.41 473.31 L 303.99 468.78 L 307.61 464.01 L 311.26 459.07 L 314.91 454.04 L 318.53 448.98 L 322.11 443.97 L 325.61 439.09 L 329.02 434.39 L 332.31 429.96 L 335.45 425.86 L 338.42 422.17 L 341.21 418.90 L 343.84 415.96 L 346.32 413.31 L 348.68 410.89 L 350.94 408.68 L 353.13 406.60 L 355.27 404.62 L 357.39 402.69 L 359.51 400.76 L 361.65 398.79 L 363.84 396.71 L 366.10 394.49" fill="none" stroke="black" stroke-width="1"/>
  <path d="M 349.79 359.34 L 354.86 357.74" fill="none" stroke="black" stroke-width="1"/>
  <path d="M 354.73 357.81 L 349.46 359.13" fill="none" stroke="black" stroke-width="1"/>
  <path d="M 285.52 368.72 L 280.20 370.06" fill="none" stroke="black" stroke-width="1"/>
  <path d="M 244.24 402.69 L 238.76 402.80" fill="none" stroke="black" stroke-width="1"/>
  <path d="M 238.95 362.07 L 244.39 360.27" fill="none" stroke="black" stroke-width="1"/>
  <path d="M 244.48 360.74 L 238.88 361.64" fill="none" stroke="black" stroke-width="1"/>
  <path d="M 202.92 355.25 L 197.43 356.52" fill="none" stroke="black" stroke-width="1"/>
  <path d="M 147.47 400.45 L 141.95 399.58" fill="none" stroke="black" stroke-width="1"/>
  <path d="M 143.61 355.51 L 146.02 350.53" fill="none" stroke="black" stroke-width="1"/>
  <path d="M 147.56 352.64 L 141.66 353.14" fill="none" stroke="black" stroke-width="1"/>
  <path d="M 100.53 366.99 L 105.88 366.73" fill="none" stroke="black" stroke-width="1"/>
  <path d="M 105.69 366.82 L 100.12 366.99" fill="none" stroke="black" stroke-width="1"/>
  <path d="M 64.48 402.72 L 58.91 402.70" fill="none" stroke="black" stroke-width="1"/>
  <path d="M 20.19 408.34 L 25.66 408.29 L 31.29 408.28 L 36.82 408.30 L 42.33 408.22 L 47.90 408.25 L 53.45 408.14 L 58.95 408.22 L 64.45 408.16 L 69.97 408.16 L 75.53 408.13 L 81.11 408.07 L 86.57 408.03 L 92.12 408.04 L 97.73 407.97 L 103.25 407.94 L 108.77 407.86 L 114.29 407.87 L 119.73 407.82 L 125.28 407.74 L 130.89 407.81 L 136.48 407.82 L 142.00 407.73 L 147.40 407.70 L 152.98 407.72 L 158.58 407.69 L 164.09 407.69 L 169.58 407.67 L 175.15 407.53 L 180.62 407.52 L 186.28 407.58 L 191.74 407.42 L 197.32 407.46 L 202.86 407.46 L 208.34 407.39 L 213.90 407.34 L 219.35 407.40 L 224.89 407.33 L 230.49 407.34 L 235.97 407.32 L 241.52 407.19 L 247.05 407.21 L 252.69 407.27 L 258.16 407.10 L 263.68 407.21 L 269.26 407.05 L 274.82 407.10 L 280.32 407.13 L 285.91 407.01 L 291.45 406.97 L 296.83 406.99 L 302.46 406.93 L 308.05 406.96 L 313.44 406.85 L 319.11 406.89 L 324.63 406.86 L 330.12 406.88 L 335.65 406.86 L 341.19 406.80 L 346.78 406.80 L 352.25 406.65 L 357.79 406.68 L 363.24 406.71 L 368.91 406.59 L 374.42 406.52 L 379.93 406.53 L 385.48 406.47 L 390.94 406.45 L 396.52 406.42 L 402.12 406.54 L 407.62 406.44 L 413.06 406.35 L 418.61 406.42 L 424.23 406.32 L 429.80 406.25 L 435.21 406.26 L 440.74 406.20 L 446.37 406.26 L 451.90 406.30 L 457.38 406.26 L 463.01 406.23 L 468.46 406.11 L 473.94 406.06 L 479.57 406.12 L 485.00 406.14 L 490.69 406.07 L 496.22 406.03 L 501.71 406.01 L 507.29 405.90 L 512.70 405.89 L 518.22 405.87 L 523.75 405.90 L 529.30 405.92 L 534.87 405.78 L 540.38 405.79 L 546.02 405.71 L 551.55 405.78 L 557.01 405.68 L 562.60 405.69 L 568.10 405.62 L 573.63 405.63" fill="none" stroke="black" stroke-width="1"/>
  <path d="M 562.31 398.96 L 557.42 401.24" fill="none" stroke="black" stroke-width="1"/>
  <path d="M 528.90 426.16 L 524.35 429.42" fill="none" stroke="black" stroke-width="1"/>
  <path d="M 510.10 422.14 L 508.78 426.39 L 507.31 430.57 L 505.97 434.76 L 504.57 438.86" fill="none" stroke="black" stroke-width="1"/>
  <path d="M 498.52 434.66 L 493.85 431.77" fill="none" stroke="black" stroke-width="1"/>
  <path d="M 487.96 402.77 L 493.46 402.92" fill="none" stroke="black" stroke-width="1"/>
  <path d="M 476.81 394.49 L 474.55 397.19 L 472.36 399.77 L 470.22 402.28 L 468.10 404.74 L 465.98 407.21 L 463.84 409.72 L 461.65 412.30 L 459.39 414.99 L 457.03 417.85 L 454.55 420.89 L 451.93 424.16 L 449.14 427.71 L 446.16 431.54 L 443.02 435.65 L 439.73 439.99 L 436.32 444.52 L 432.82 449.20 L 429.24 454.00 L 425.62 458.88 L 421.97 463.79 L 418.32 468.70 L 414.70 473.58 L 411.12 478.38 L 407.62 483.06" fill="none" stroke="black" stroke-width="1"/>
  <path d="M 407.62 483.06 L 404.16 479.12 L 400.70 475.16 L 397.24 471.17 L 393.78 467.17 L 390.32 463.18 L 386.86 459.19 L 383.40 455.22 L 379.94 451.28 L 376.48 447.38 L 373.02 443.53 L 369.56 439.74 L 366.10 436.01 L 362.64 432.36 L 359.18 428.77 L 355.72 425.24 L 352.26 421.76 L 348.80 418.32 L 345.34 414.91 L 341.88 411.51 L 338.42 408.13 L 334.96 404.74 L 331.50 401.35 L 328.04 397.93 L 324.58 394.49" fill="none" stroke="black" stroke-width="1"/>
  <path d="M 324.52 394.56 L 326.59 396.60 L 328.68 398.68 L 330.72 400.69 L 332.83 402.76 L 334.94 404.71 L 336.99 406.82 L 339.10 408.80 L 341.15 410.87 L 343.31 412.84 L 345.31 414.93 L 347.36 416.92 L 349.47 419.02 L 351.61 421.05 L 353.63 423.16 L 355.75 425.28 L 357.78 427.36 L 359.94 429.43 L 361.94 431.64 L 364.02 433.88 L 366.10 436.01 L 368.14 438.23 L 370.26 440.50 L 372.27 442.79 L 374.41 445.08 L 376.46 447.32 L 378.57 449.73 L 380.62 452.04 L 382.72 454.46 L 384.73 456.76 L 386.88 459.22 L 388.87 461.65 L 391.03 464.02 L 393.13 466.44 L 395.19 468.82 L 397.26 471.28 L 399.34 473.62 L 401.40 476.09 L 403.50 478.40 L 405.54 480.72 L 407.65 483.14" fill="none" stroke="black" stroke-width="1"/>
  <path d="M 407.69 483.01 L 409.73 480.11 L 411.89 477.38 L 414.02 474.42 L 416.19 471.60 L 418.33 468.61 L 420.55 465.73 L 422.73 462.81 L 424.92 459.83 L 427.16 456.86 L 429.26 453.98 L 431.39 451.12 L 433.54 448.24 L 435.67 445.45 L 437.70 442.68 L 439.63 440.07 L 441.71 437.36 L 443.67 434.92 L 445.53 432.35 L 447.28 430.04 L 449.12 427.71 L 450.81 425.53 L 452.44 423.50 L 453.96 421.58 L 455.53 419.66 L 456.93 417.93 L 458.43 416.13 L 459.86 414.50 L 461.18 412.85 L 462.45 411.29 L 463.81 409.74 L 465.02 408.28 L 466.38 406.74 L 467.64 405.25 L 468.92 403.79 L 470.21 402.35 L 471.47 400.81 L 472.81 399.30 L 474.08 397.75 L 475.36 396.21 L 476.79 394.53" fill="none" stroke="black" stroke-width="1"/>
  <path d="M 432.38 372.94 L 437.62 371.40" fill="none" stroke="black" stroke-width="1"/>
  <path d="M 437.81 372.05 L 432.37 372.65" fill="none" stroke="black" stroke-width="1"/>
  <path d="M 474.06 350.87 L 479.81 349.66" fill="none" stroke="black" stroke-width="1"/>
  <path d="M 515.72 364.79 L 521.09 363.28" fill="none" stroke="black" stroke-width="1"/>
  <path d="M 521.13 363.94 L 515.91 364.82" fill="none" stroke="black" stroke-width="1"/>
  <path d="M 487.81 306.55 L 493.16 305.79" fill="none" stroke="black" stroke-width="1"/>
  <path d="M 493.35 306.06 L 487.88 306.19" fill="none" stroke="black" stroke-width="1"/>
  <path d="M 460.61 276.02 L 465.76 274.87" fill="none" stroke="black" stroke-width="1"/>
  <path d="M 465.75 274.97 L 459.92 275.72" fill="none" stroke="black" stroke-width="1"/>
  <path d="M 429.97 267.38 L 427.95 268.86 L 425.86 270.58 L 423.83 271.89 L 422.00 273.47 L 419.63 274.91 L 417.70 276.18 L 415.89 277.95 L 413.53 279.50 L 411.74 280.98 L 409.72 282.46 L 407.51 283.78" fill="none" stroke="black" stroke-width="1"/>
  <path d="M 391.35 295.38 L 396.69 294.63" fill="none" stroke="black" stroke-width="1"/>
  <path d="M 396.42 293.85 L 391.25 295.66" fill="none" stroke="black" stroke-width="1"/>
  <path d="M 349.57 287.04 L 354.67 285.98" fill="none" stroke="black" stroke-width="1"/>
  <path d="M 363.27 192.64 L 368.86 192.46" fill="none" stroke="black" stroke-width="1"/>
  <path d="M 368.96 191.89 L 363.66 192.61" fill="none" stroke="black" stroke-width="1"/>
  <path d="M 418.73 153.97 L 423.85 153.76" fill="none" stroke="black" stroke-width="1"/>
  <path d="M 424.14 153.13 L 418.81 153.84" fill="none" stroke="black" stroke-width="1"/>
  <path d="M 424.29 123.43 L 423.93 121.01 L 423.31 118.91 L 422.75 116.17 L 422.35 114.05 L 421.68 111.74 L 421.38 109.23" fill="none" stroke="black" stroke-width="1"/>
  <path d="M 429.74 123.36 L 427.21 122.61 L 424.97 121.94 L 422.49 121.61 L 419.82 120.69 L 417.73 120.19 L 415.27 119.62 L 412.58 118.89 L 410.39 118.41 L 407.83 117.56" fill="none" stroke="black" stroke-width="1"/>
  <path d="M 413.21 115.63 L 418.58 114.42" fill="none" stroke="black" stroke-width="1"/>
  <path d="M 382.46 98.47 L 377.09 98.59" fill="none" stroke="black" stroke-width="1"/>
  <path d="M 377.09 98.58 L 382.72 97.63" fill="none" stroke="black" stroke-width="1"/>
  <path d="M 390.81 46.69 L 396.09 44.47" fill="none" stroke="black" stroke-width="1"/>
  <path d="M 446.66 57.43 L 451.87 55.80" fill="none" stroke="black" stroke-width="1"/>
  <path d="M 452.15 56.72 L 446.58 57.15" fill="none" stroke="black" stroke-width="1"/>
  <path d="M 460.45 30.31 L 465.58 28.35" fill="none" stroke="black" stroke-width="1"/>
  <path d="M 515.52 38.10 L 520.92 36.77" fill="none" stroke="black" stroke-width="1"/>
  <path d="M 557.32 21.61 L 562.61 20.00" fill="none" stroke="black" stroke-width="1"/>
  <path d="M 548.57 69.98 L 543.16 71.08" fill="none" stroke="black" stroke-width="1"/>
  <path d="M 543.32 70.59 L 548.95 70.39" fill="none" stroke="black" stroke-width="1"/>
  <path d="M 573.91 126.00 L 571.28 125.91 L 568.68 125.93 L 565.97 126.20 L 563.07 126.22 L 560.63 126.05 L 558.01 126.28 L 555.17 126.20 L 552.74 126.27 L 550.07 126.21 L 547.44 126.06 L 544.43 126.25 L 541.89 126.28 L 539.29 126.33 L 536.77 126.26 L 534.07 126.54 L 531.30 126.37 L 528.64 126.61 L 525.88 126.36 L 523.35 126.33 L 520.61 126.31 L 517.79 126.49 L 515.30 126.64 L 512.82 126.39 L 510.19 126.49 L 507.19 126.44 L 504.68 126.66 L 501.88 126.67 L 499.51 126.59 L 496.64 126.59 L 493.95 126.63 L 491.41 126.81 L 488.62 126.62 L 486.07 126.65 L 483.32 127.08 L 480.64 126.87 L 478.12 126.93 L 475.38 127.03 L 472.84 126.96 L 470.06 127.00 L 467.35 127.06 L 464.74 127.21 L 461.86 127.04 L 459.32 127.13 L 456.63 127.05 L 453.96 127.27 L 451.45 127.24 L 448.57 127.37 L 445.99 127.11 L 443.36 127.10 L 440.58 127.42 L 438.01 127.25 L 435.45 127.33 L 432.90 127.48 L 430.19 127.36 L 427.65 127.59 L 424.58 127.54 L 422.08 127.52 L 419.53 127.38 L 416.84 127.55 L 414.20 127.51 L 411.59 127.58 L 408.71 127.66 L 406.30 127.43 L 403.42 127.52 L 400.83 127.66 L 398.06 127.54 L 395.57 127.79 L 392.83 127.65 L 390.15 127.79 L 387.54 127.58 L 384.82 127.63 L 382.30 127.81 L 379.75 127.91 L 377.07 127.98 L 374.21 127.79 L 371.36 128.08 L 368.99 128.03 L 366.22 128.00 L 363.53 127.98 L 361.07 128.21 L 358.44 128.15 L 355.64 127.97 L 352.88 128.15 L 350.12 128.09 L 347.67 128.01 L 345.13 128.16 L 342.08 128.39 L 339.68 128.37 L 336.82 128.40 L 334.36 128.12 L 331.60 128.34 L 329.04 128.36 L 326.31 128.42 L 323.56 128.47 L 321.05 128.31 L 318.15 128.42 L 315.75 128.52 L 312.83 128.74 L 310.41 128.73 L 307.71 128.77 L 304.78 128.40 L 302.24 128.56 L 299.62 128.53 L 296.99 128.70 L 294.23 128.55 L 291.83 128.74 L 288.91 128.91 L 286.52 128.77 L 283.54 129.00 L 280.92 128.68 L 278.44 129.04 L 275.74 128.76 L 273.21 128.82 L 270.45 129.18 L 267.51 129.15 L 265.23 128.95 L 262.37 129.06 L 259.51 129.03 L 256.90 129.16 L 254.17 128.97 L 251.70 128.98 L 249.23 129.39 L 246.58 129.04 L 243.81 129.18 L 241.18 129.09 L 238.52 129.29 L 235.76 129.25 L 233.13 129.52 L 230.35 129.44 L 227.76 129.44 L 224.96 129.57 L 222.27 129.33 L 219.74 129.46 L 217.10 129.62 L 214.59 129.72 L 211.78 129.81 L 209.23 129.74 L 206.29 129.54 L 203.95 129.73 L 201.13 129.81 L 198.51 129.65 L 195.78 129.67 L 193.14 129.81 L 190.28 129.97 L 187.60 129.85 L 185.09 129.87 L 182.44 130.07 L 179.77 129.88 L 177.30 130.08 L 174.33 129.99 L 171.83 130.18 L 169.28 130.02 L 166.65 130.08 L 163.99 130.06 L 161.32 130.08 L 158.52 130.20 L 155.69 130.40 L 153.13 130.35 L 150.73 130.47 L 148.04 130.32 L 145.21 130.25 L 142.73 130.26 L 139.88 130.33 L 137.22 130.29 L 134.65 130.47 L 131.96 130.40 L 129.34 130.68 L 126.74 130.44 L 123.90 130.59 L 121.21 130.63 L 118.62 130.78 L 116.04 130.57 L 113.11 130.73 L 110.73 130.83 L 107.98 130.92 L 105.32 131.01 L 102.55 130.67 L 99.85 130.84 L 97.47 130.77 L 94.83 130.71 L 92.01 131.11 L 89.29 130.97 L 86.77 131.20 L 84.02 131.05 L 81.30 131.10 L 78.63 131.24 L 76.15 131.32 L 73.34 130.97 L 70.63 131.10 L 68.14 131.19 L 65.34 131.02 L 62.47 131.23 L 60.00 131.36 L 57.11 131.14 L 54.67 131.36 L 51.98 131.33 L 49.28 131.28 L 46.64 131.50 L 44.08 131.53 L 41.23 131.42 L 38.50 131.62 L 35.98 131.47 L 33.35 131.60 L 30.54 131.44 L 27.83 131.67 L 25.26 131.67 L 22.61 131.62 L 20.05 131.74" fill="none" stroke="black" stroke-width="1"/>
  <path d="M 20.30 131.58 L 23.17 131.69 L 25.51 131.41 L 28.07 131.56 L 30.73 131.38 L 33.57 131.25 L 36.18 131.51 L 39.08 131.21 L 41.65 131.32 L 44.31 131.25 L 47.05 131.15 L 49.56 131.11 L 52.41 131.03 L 54.87 131.21 L 57.70 131.19 L 60.31 130.99 L 62.65 131.27 L 65.58 131.27 L 68.13 130.95 L 70.89 130.87 L 73.52 131.08 L 76.06 130.79 L 78.78 130.91 L 81.60 131.05 L 84.04 131.03 L 86.84 131.05 L 89.44 130.84 L 92.09 130.62 L 94.54 130.93 L 97.34 130.84 L 99.91 130.67 L 102.61 130.70 L 105.59 130.80 L 107.99 130.79 L 110.50 130.64 L 113.16 130.74 L 116.14 130.51 L 118.80 130.52 L 121.23 130.39 L 124.00 130.47 L 126.81 130.36 L 129.33 130.27 L 132.18 130.26 L 134.49 130.33 L 137.14 130.19 L 139.77 130.14 L 142.42 130.05 L 145.46 130.03 L 148.08 130.40 L 150.72 130.04 L 153.35 129.97 L 155.80 130.23 L 158.57 130.10 L 161.31 129.87 L 163.69 130.12 L 166.73 129.98 L 169.07 129.83 L 172.02 130.17 L 174.32 130.08 L 177.25 129.92 L 179.83 129.76 L 182.63 129.80 L 185.04 129.86 L 187.74 129.71 L 190.55 129.78 L 193.13 129.73 L 195.87 129.68 L 198.63 129.85 L 201.08 129.81 L 203.98 129.80 L 206.39 129.61 L 209.00 129.72 L 211.65 129.46 L 214.24 129.37 L 216.97 129.51 L 219.81 129.67 L 222.23 129.27 L 224.84 129.33 L 227.71 129.36 L 230.28 129.28 L 232.84 129.26 L 235.90 129.32 L 238.19 129.34 L 241.12 129.23 L 243.51 129.13 L 246.53 129.24 L 249.05 128.97 L 251.67 128.96 L 254.23 129.09 L 257.18 129.05 L 259.51 129.05 L 262.28 129.01 L 264.75 128.94 L 267.40 128.74 L 270.13 128.76 L 273.01 129.01 L 275.55 128.65 L 278.07 128.79 L 280.85 128.68 L 283.61 128.87 L 286.18 128.69 L 288.75 128.92 L 291.49 128.61 L 294.33 128.87 L 296.86 128.66 L 299.42 128.79 L 302.10 128.49 L 304.71 128.59 L 307.36 128.77 L 310.36 128.41 L 312.64 128.52 L 315.62 128.66 L 318.23 128.66 L 321.02 128.29 L 323.57 128.33 L 325.93 128.51 L 328.79 128.33 L 331.45 128.32 L 334.03 128.45 L 336.72 128.28 L 339.60 128.32 L 342.27 128.06 L 344.91 128.25 L 347.52 127.99 L 349.98 128.11 L 352.61 128.13 L 355.51 128.28 L 358.12 127.92 L 360.61 128.13 L 363.46 128.13 L 366.04 127.98 L 368.78 127.98 L 371.41 127.91 L 373.91 128.09 L 376.82 127.97 L 379.17 127.94 L 381.84 127.93 L 384.54 127.91 L 387.52 127.86 L 389.97 127.86 L 392.82 127.75 L 395.39 127.74 L 397.81 127.74 L 400.64 127.66 L 403.42 127.78 L 406.10 127.68 L 408.42 127.66 L 411.36 127.40 L 414.11 127.37 L 416.56 127.42 L 419.13 127.30 L 421.83 127.47 L 424.47 127.35 L 427.42 127.23 L 430.00 127.26 L 432.71 127.27 L 435.24 127.34 L 437.75 127.53 L 440.38 127.27 L 443.23 127.38 L 445.93 127.11 L 448.51 127.03 L 451.22 127.12 L 453.75 127.14 L 456.41 127.31 L 459.13 127.16 L 461.79 127.12 L 464.31 127.14 L 467.09 127.16 L 469.85 127.02 L 472.71 127.06 L 475.15 126.95 L 477.72 127.05 L 480.70 126.76 L 483.04 127.09 L 485.89 126.82 L 488.30 126.95 L 491.23 126.76 L 493.72 126.69 L 496.61 126.64 L 499.07 126.96 L 501.80 126.85 L 504.45 126.70 L 506.93 126.78 L 509.57 126.86 L 512.63 126.76 L 515.29 126.50 L 517.67 126.50 L 520.25 126.63 L 522.91 126.46 L 525.76 126.56 L 528.36 126.28 L 531.15 126.53 L 533.57 126.28 L 536.48 126.55 L 539.05 126.39 L 541.57 126.56 L 544.43 126.29 L 546.97 126.21 L 549.56 126.27 L 552.47 126.37 L 555.05 126.31 L 557.90 126.32 L 560.28 126.02 L 562.96 126.28 L 565.69 125.94 L 568.42 125.94 L 570.99 125.90 L 573.65 126.06" fill="none" stroke="black" stroke-width="1"/>
  <path d="M 493.66 111.99 L 487.85 112.12" fill="none" stroke="black" stroke-width="1"/>
  <path d="M 487.77 112.26 L 493.20 112.13" fill="none" stroke="black" stroke-width="1"/>
  <path d="M 479.29 198.08 L 473.78 198.06" fill="none" stroke="black" stroke-width="1"/>
  <path d="M 474.46 198.66 L 479.71 197.93" fill="none" stroke="black" stroke-width="1"/>
  <path d="M 548.61 255.78 L 543.44 256.61" fill="none" stroke="black" stroke-width="1"/>
  <path d="M 573.60 319.63 L 570.99 319.70 L 568.43 319.63 L 565.57 319.65 L 562.96 319.88 L 560.30 319.67 L 557.74 319.99 L 554.98 319.61 L 552.14 319.84 L 549.51 320.07 L 546.94 319.76 L 544.24 319.73 L 541.47 320.15 L 539.01 319.98 L 536.22 319.83 L 533.89 319.96 L 530.96 320.04 L 528.31 319.90 L 525.82 320.00 L 522.93 320.25 L 520.25 320.04 L 517.55 320.27 L 515.26 320.04 L 512.22 320.11 L 509.64 320.23 L 507.22 320.32 L 504.42 320.34 L 501.78 320.15 L 499.16 320.39 L 496.53 320.22 L 493.60 320.60 L 491.33 320.68 L 488.51 320.61 L 485.61 320.42 L 482.91 320.41 L 480.30 320.57 L 478.00 320.73 L 475.00 320.73 L 472.62 320.86 L 469.83 320.69 L 467.01 320.78 L 464.47 320.86 L 461.63 320.70 L 459.03 320.83 L 456.67 320.77 L 453.97 320.90 L 451.14 320.79 L 448.57 321.02 L 445.78 321.00 L 443.04 320.94 L 440.45 320.94 L 437.75 320.97 L 435.24 321.05 L 432.73 320.88 L 429.72 320.92 L 427.33 321.03 L 424.57 320.95 L 421.81 321.39 L 419.23 321.37 L 416.76 321.22 L 413.97 321.05 L 411.15 321.26 L 408.76 321.23 L 406.11 321.23 L 403.37 321.45 L 400.65 321.40 L 398.07 321.40 L 395.39 321.64 L 392.82 321.68 L 390.09 321.50 L 387.42 321.52 L 384.57 321.59 L 381.97 321.71 L 379.44 321.58 L 376.66 321.62 L 374.08 321.56 L 371.24 321.86 L 368.81 321.69 L 366.06 321.76 L 363.19 321.96 L 360.53 322.01 L 358.01 321.91 L 355.54 321.92 L 352.94 321.77 L 349.98 321.79 L 347.54 322.12 L 344.86 321.81 L 342.05 322.01 L 339.36 322.05 L 336.98 322.23 L 334.17 322.07 L 331.47 322.12 L 328.81 322.36 L 326.27 322.06 L 323.36 322.25 L 320.76 322.19 L 318.18 322.41 L 315.36 322.25 L 312.67 322.49 L 310.24 322.18 L 307.32 322.54 L 305.02 322.43 L 301.99 322.45 L 299.74 322.48 L 296.88 322.48 L 294.14 322.36 L 291.39 322.36 L 288.79 322.60 L 286.16 322.74 L 283.61 322.61 L 281.06 322.80 L 278.06 322.65 L 275.70 322.75 L 272.98 322.62 L 270.43 322.78 L 267.46 322.82 L 264.88 322.72 L 262.29 322.85 L 259.63 322.72 L 256.87 323.09 L 254.28 323.14 L 251.80 322.88 L 249.08 323.01 L 246.17 323.21 L 243.85 323.22 L 241.22 323.08 L 238.53 323.03 L 235.81 323.17 L 233.23 323.29 L 230.48 323.41 L 227.70 323.22 L 224.86 323.39 L 222.29 323.39 L 219.55 323.28 L 217.07 323.17 L 214.49 323.15 L 211.61 323.24 L 209.17 323.23 L 206.56 323.38 L 203.70 323.62 L 201.22 323.51 L 198.23 323.66 L 195.68 323.69 L 193.12 323.59 L 190.39 323.59 L 187.84 323.45 L 185.31 323.86 L 182.53 323.55 L 179.74 323.90 L 177.14 323.85 L 174.54 323.59 L 171.88 324.02 L 169.17 323.87 L 166.48 323.78 L 163.64 323.74 L 161.25 323.86 L 158.53 323.96 L 155.74 324.07 L 153.12 324.02 L 150.61 323.85 L 147.80 324.14 L 145.38 324.20 L 142.56 324.35 L 140.11 324.02 L 137.16 324.38 L 134.40 324.05 L 132.03 324.30 L 129.34 324.11 L 126.68 324.29 L 123.94 324.33 L 121.50 324.45 L 118.49 324.22 L 115.78 324.57 L 113.08 324.26 L 110.71 324.49 L 108.20 324.31 L 105.36 324.55 L 102.67 324.56 L 100.02 324.59 L 97.45 324.40 L 94.60 324.46 L 91.93 324.83 L 89.35 324.71 L 86.85 324.93 L 83.97 324.88 L 81.30 324.89 L 78.52 324.74 L 76.16 324.89 L 73.41 324.99 L 70.56 325.00 L 67.99 325.05 L 65.59 324.75 L 62.61 324.81 L 60.06 325.11 L 57.31 325.17 L 54.77 325.08 L 51.98 325.13 L 49.62 325.01 L 46.58 325.19 L 44.15 325.11 L 41.45 325.23 L 39.00 325.42 L 36.06 325.24 L 33.58 325.52 L 30.68 325.38 L 27.95 325.28 L 25.59 325.53 L 22.98 325.34 L 20.18 325.45" fill="none" stroke="black" stroke-width="1"/>
  <path d="M 20.00 325.25 L 22.51 325.16 L 25.11 324.98 L 27.89 325.12 L 30.62 325.15 L 33.51 325.23 L 36.02 325.00 L 38.47 325.27 L 41.09 324.90 L 43.85 325.00 L 46.52 325.06 L 49.08 325.08 L 52.02 324.85 L 54.60 324.90 L 57.39 324.96 L 60.06 324.90 L 62.72 325.03 L 65.15 324.96 L 68.05 324.74 L 70.69 324.87 L 73.26 324.90 L 75.91 324.87 L 78.41 324.52 L 81.04 324.83 L 84.02 324.74 L 86.41 324.61 L 89.20 324.55 L 91.88 324.38 L 94.71 324.56 L 97.21 324.47 L 99.69 324.49 L 102.71 324.22 L 105.23 324.46 L 107.64 324.32 L 110.65 324.14 L 113.33 324.38 L 115.61 324.42 L 118.27 324.18 L 121.18 324.09 L 123.80 324.20 L 126.40 324.31 L 128.93 324.06 L 131.61 324.20 L 134.36 323.99 L 137.07 324.24 L 139.65 324.01 L 142.41 323.87 L 144.92 324.10 L 147.65 323.83 L 150.28 324.06 L 153.21 324.08 L 155.95 324.02 L 158.40 323.85 L 161.06 323.89 L 163.56 324.00 L 166.32 323.69 L 169.22 323.85 L 171.66 323.91 L 174.35 323.48 L 177.24 323.48 L 179.72 323.62 L 182.25 323.78 L 185.21 323.80 L 187.53 323.35 L 190.36 323.57 L 193.00 323.50 L 195.61 323.65 L 198.43 323.27 L 201.05 323.32 L 203.44 323.49 L 206.53 323.44 L 208.97 323.19 L 211.46 323.14 L 214.28 323.31 L 216.89 323.26 L 219.81 323.24 L 222.45 323.07 L 224.97 323.39 L 227.60 323.16 L 230.45 322.97 L 232.94 323.30 L 235.67 322.98 L 238.03 323.03 L 240.87 322.84 L 243.37 323.15 L 246.27 322.92 L 248.76 323.02 L 251.51 323.08 L 254.19 322.69 L 256.93 322.98 L 259.47 322.81 L 262.21 322.81 L 264.72 322.92 L 267.48 322.93 L 270.23 322.83 L 273.07 322.76 L 275.36 322.69 L 278.18 322.66 L 280.85 322.73 L 283.64 322.61 L 286.25 322.48 L 288.79 322.36 L 291.47 322.60 L 294.23 322.72 L 296.83 322.47 L 299.50 322.50 L 302.33 322.37 L 304.72 322.45 L 307.61 322.45 L 310.36 322.28 L 312.63 322.10 L 315.41 322.19 L 318.33 322.26 L 320.90 322.22 L 323.60 322.14 L 326.32 322.15 L 328.89 322.24 L 331.44 322.13 L 334.08 322.30 L 336.71 322.12 L 339.55 321.93 L 342.21 321.92 L 344.83 322.17 L 347.21 322.12 L 350.06 321.80 L 352.80 321.86 L 355.32 322.09 L 357.94 321.94 L 360.59 321.85 L 363.35 321.65 L 366.07 321.80 L 368.79 321.99 L 371.57 321.59 L 374.14 321.85 L 376.77 321.64 L 379.25 321.63 L 382.02 321.48 L 384.58 321.41 L 387.20 321.48 L 390.02 321.76 L 392.67 321.51 L 395.16 321.64 L 398.00 321.63 L 400.70 321.47 L 403.39 321.40 L 405.81 321.37 L 408.72 321.29 L 411.47 321.25 L 413.98 321.23 L 416.66 321.46 L 419.13 321.42 L 422.11 321.22 L 424.85 321.34 L 427.36 321.34 L 429.85 321.12 L 432.74 321.08 L 435.33 321.14 L 437.82 321.28 L 440.58 321.16 L 443.33 321.07 L 445.89 320.96 L 448.47 320.98 L 451.25 321.14 L 453.96 321.03 L 456.80 321.03 L 459.37 320.77 L 461.89 320.78 L 464.76 320.84 L 467.25 320.74 L 469.96 320.81 L 472.44 320.75 L 475.32 320.59 L 477.82 320.73 L 480.60 320.57 L 483.13 320.82 L 485.97 320.75 L 488.52 320.46 L 491.38 320.63 L 494.00 320.66 L 496.80 320.53 L 499.23 320.72 L 501.75 320.64 L 504.60 320.48 L 507.16 320.52 L 510.04 320.44 L 512.70 320.35 L 515.07 320.33 L 518.09 320.56 L 520.49 320.55 L 523.24 320.27 L 525.88 320.42 L 528.51 320.25 L 531.45 320.03 L 533.83 320.37 L 536.35 320.13 L 539.23 320.15 L 541.85 320.17 L 544.56 319.98 L 547.03 320.17 L 549.84 320.04 L 552.39 319.84 L 555.04 320.21 L 558.05 320.09 L 560.50 319.95 L 563.06 319.73 L 565.66 319.76 L 568.52 320.02 L 571.34 319.64 L 573.86 319.82" fill="none" stroke="black" stroke-width="1"/>
  <path d="M 573.77 234.12 L 571.17 233.90 L 568.52 234.08 L 565.94 233.87 L 563.15 233.83 L 560.27 234.01 L 558.00 233.79 L 555.01 233.83 L 552.31 234.04 L 549.82 233.90 L 547.17 234.01 L 544.48 233.86 L 542.03 233.74 L 539.18 233.77 L 536.33 233.82 L 533.71 233.65 L 531.25 233.56 L 528.55 233.59 L 526.08 233.73 L 523.09 233.81 L 520.74 233.38 L 518.04 233.75 L 515.31 233.58 L 512.55 233.44 L 509.96 233.59 L 507.19 233.26 L 504.60 233.43 L 501.93 233.32 L 499.11 233.33 L 496.44 233.27 L 494.10 233.51 L 491.31 233.15 L 488.85 233.15 L 485.94 233.06 L 483.19 233.01 L 480.80 233.11 L 477.94 233.07 L 475.38 233.29 L 472.79 233.20 L 470.01 233.09 L 467.40 233.24 L 464.58 232.91 L 461.83 233.10 L 459.24 232.83 L 456.70 233.09 L 454.19 232.89 L 451.22 233.03 L 448.90 232.80 L 445.91 232.74 L 443.62 232.84 L 440.56 232.59 L 438.11 232.68 L 435.43 232.75 L 432.93 232.70 L 430.19 232.73 L 427.30 232.84 L 424.82 232.58 L 422.19 232.49 L 419.39 232.63 L 416.89 232.46 L 414.01 232.60 L 411.31 232.56 L 408.71 232.33 L 405.94 232.27 L 403.71 232.65 L 400.84 232.41 L 398.00 232.41 L 395.66 232.15 L 392.79 232.36 L 390.20 232.15 L 387.66 232.45 L 384.97 232.32 L 382.35 232.06 L 379.38 232.15 L 377.02 232.11 L 374.41 231.96 L 371.66 232.18 L 369.11 232.10 L 366.25 232.07 L 363.59 232.21 L 361.06 232.10 L 358.31 232.18 L 355.43 231.99 L 352.80 231.74 L 350.15 231.78 L 347.53 231.79 L 345.12 231.69 L 342.21 231.73 L 339.45 231.88 L 337.20 231.63 L 334.15 231.89 L 331.66 231.71 L 329.18 231.69 L 326.52 231.68 L 323.55 231.85 L 320.92 231.62 L 318.37 231.69 L 315.92 231.57 L 312.94 231.64 L 310.56 231.60 L 307.64 231.58 L 305.24 231.25 L 302.41 231.57 L 299.91 231.33 L 297.07 231.36 L 294.22 231.34 L 291.89 231.35 L 289.23 231.20 L 286.61 231.10 L 283.55 231.06 L 281.00 231.11 L 278.32 230.94 L 275.92 231.23 L 273.30 230.98 L 270.37 231.12 L 267.61 230.98 L 265.28 230.82 L 262.48 230.99 L 259.73 231.17 L 257.33 231.03 L 254.42 230.77 L 251.98 230.79 L 249.34 230.86 L 246.61 230.65 L 243.78 230.66 L 241.07 230.94 L 238.39 230.61 L 235.97 230.67 L 233.09 230.71 L 230.45 230.80 L 227.89 230.62 L 225.35 230.37 L 222.41 230.69 L 219.90 230.34 L 217.33 230.36 L 214.68 230.31 L 211.89 230.33 L 209.41 230.39 L 206.71 230.52 L 203.75 230.52 L 201.13 230.21 L 198.48 230.37 L 196.06 230.13 L 193.30 230.24 L 190.57 230.29 L 187.96 230.11 L 185.43 230.10 L 182.83 229.98 L 179.86 230.31 L 177.43 230.17 L 174.57 230.09 L 172.22 229.89 L 169.50 229.89 L 166.85 229.81 L 163.86 230.12 L 161.16 229.68 L 158.70 229.85 L 155.92 229.77 L 153.18 229.94 L 150.51 229.83 L 147.84 229.93 L 145.46 229.51 L 142.91 229.55 L 140.23 229.60 L 137.41 229.83 L 134.79 229.49 L 132.01 229.66 L 129.31 229.52 L 126.79 229.46 L 124.11 229.47 L 121.56 229.31 L 118.85 229.49 L 116.14 229.36 L 113.26 229.38 L 110.82 229.30 L 107.99 229.26 L 105.29 229.15 L 102.75 229.39 L 100.28 229.12 L 97.43 229.18 L 94.68 229.01 L 92.08 229.16 L 89.51 229.08 L 86.93 229.13 L 84.02 229.24 L 81.67 229.09 L 78.98 229.14 L 76.12 228.89 L 73.42 228.99 L 70.68 228.84 L 68.24 228.70 L 65.57 228.62 L 62.83 228.69 L 60.38 228.75 L 57.37 228.86 L 54.92 228.69 L 52.17 228.66 L 49.38 228.78 L 46.99 228.51 L 44.10 228.45 L 41.56 228.73 L 38.83 228.30 L 36.23 228.30 L 33.68 228.37 L 31.11 228.24 L 28.28 228.35 L 25.74 228.57 L 22.81 228.41 L 20.33 228.31" fill="none" stroke="black" stroke-width="1"/>
  <path d="M 20.07 228.30 L 22.70 228.42 L 25.42 228.50 L 28.11 228.47 L 30.52 228.21 L 33.39 228.40 L 36.26 228.26 L 38.92 228.30 L 41.28 228.56 L 43.95 228.43 L 46.54 228.48 L 49.31 228.72 L 51.88 228.81 L 54.70 228.64 L 57.40 228.51 L 59.98 228.84 L 62.78 228.74 L 65.27 228.60 L 68.21 228.93 L 70.70 228.84 L 73.35 228.76 L 75.90 228.83 L 78.47 228.80 L 81.56 229.01 L 83.92 228.76 L 86.56 228.78 L 89.34 228.98 L 91.84 229.17 L 94.74 229.08 L 97.52 229.25 L 100.13 229.30 L 102.67 229.19 L 105.42 229.04 L 107.85 229.29 L 110.44 229.26 L 113.12 229.34 L 115.83 229.21 L 118.72 229.34 L 121.13 229.12 L 123.98 229.32 L 126.64 229.26 L 129.15 229.40 L 131.98 229.20 L 134.49 229.28 L 137.34 229.28 L 140.17 229.27 L 142.72 229.46 L 145.20 229.44 L 147.87 229.47 L 150.72 229.57 L 153.08 229.54 L 156.03 229.62 L 158.62 229.65 L 161.32 229.73 L 163.77 229.86 L 166.45 229.53 L 169.37 229.67 L 171.86 229.67 L 174.46 229.72 L 177.18 230.03 L 180.03 229.91 L 182.71 229.89 L 185.24 229.70 L 187.78 229.87 L 190.63 229.92 L 193.25 229.99 L 195.77 230.17 L 198.55 230.18 L 201.12 230.01 L 203.93 230.32 L 206.43 230.34 L 209.18 230.12 L 211.89 230.24 L 214.59 230.24 L 217.29 230.02 L 219.78 230.08 L 222.49 230.40 L 225.35 230.43 L 227.89 230.33 L 230.50 230.19 L 233.14 230.37 L 235.77 230.53 L 238.62 230.53 L 241.02 230.44 L 243.96 230.37 L 246.35 230.66 L 249.29 230.58 L 252.02 230.67 L 254.33 230.74 L 257.39 230.66 L 259.77 230.80 L 262.51 230.67 L 265.19 230.48 L 267.87 230.90 L 270.70 230.74 L 273.04 230.84 L 275.70 230.71 L 278.63 230.78 L 281.03 230.90 L 283.65 230.97 L 286.41 230.76 L 289.20 231.15 L 291.96 230.82 L 294.66 230.96 L 297.13 231.02 L 299.73 231.05 L 302.54 230.93 L 305.12 231.02 L 307.75 231.22 L 310.37 231.34 L 312.97 231.02 L 315.59 231.26 L 318.55 231.40 L 321.25 231.47 L 323.86 231.13 L 326.55 231.36 L 329.03 231.53 L 331.73 231.36 L 334.39 231.34 L 337.11 231.22 L 339.69 231.41 L 342.59 231.60 L 345.00 231.61 L 347.66 231.74 L 350.28 231.49 L 352.82 231.79 L 355.64 231.49 L 358.34 231.75 L 361.07 231.59 L 363.52 231.72 L 366.33 231.71 L 369.12 231.83 L 371.76 231.88 L 374.11 232.00 L 376.84 231.64 L 379.64 231.87 L 382.36 231.87 L 385.01 231.79 L 387.53 232.00 L 390.27 232.15 L 393.10 232.13 L 395.58 231.94 L 398.34 231.88 L 400.92 232.06 L 403.49 231.95 L 406.33 232.20 L 408.91 232.10 L 411.55 231.96 L 414.39 232.16 L 417.03 232.36 L 419.55 232.13 L 422.40 232.30 L 424.98 232.39 L 427.32 232.17 L 430.37 232.29 L 432.74 232.21 L 435.51 232.41 L 438.15 232.61 L 440.66 232.63 L 443.51 232.54 L 446.10 232.51 L 448.73 232.39 L 451.29 232.69 L 454.22 232.80 L 456.88 232.81 L 459.52 232.63 L 462.24 232.53 L 464.69 232.70 L 467.52 232.68 L 470.09 232.77 L 472.75 232.88 L 475.25 232.78 L 478.20 232.91 L 480.64 232.77 L 483.19 233.04 L 485.99 232.93 L 488.78 233.16 L 491.44 233.07 L 493.92 232.97 L 496.77 232.85 L 499.24 233.07 L 502.07 232.95 L 504.67 233.12 L 507.55 233.07 L 509.86 233.06 L 512.80 233.26 L 515.19 233.07 L 517.96 233.12 L 520.59 233.09 L 523.45 233.47 L 525.94 233.49 L 528.58 233.24 L 531.19 233.26 L 533.92 233.51 L 536.69 233.35 L 539.26 233.47 L 541.78 233.56 L 544.37 233.32 L 547.18 233.36 L 549.97 233.39 L 552.42 233.69 L 555.26 233.60 L 558.05 233.85 L 560.42 233.74 L 563.41 233.58 L 565.86 233.76 L 568.41 233.86 L 571.38 233.99 L 573.84 233.82" fill="none" stroke="black" stroke-width="1"/>
  <path d="M 535.11 161.58 L 529.54 162.13" fill="none" stroke="black" stroke-width="1"/>
  <path d="M 529.39 162.12 L 535.05 161.97" fill="none" stroke="black" stroke-width="1"/>
  <path d="M 532.29 173.13 L 529.62 173.04 L 526.93 173.42 L 524.32 173.53 L 521.68 173.40 L 519.11 173.50 L 516.31 173.49 L 513.95 173.80 L 511.31 173.76 L 508.58 173.76 L 505.89 173.87 L 503.18 173.79 L 500.71 173.82 L 497.81 174.16 L 495.17 174.35 L 492.67 174.24 L 490.00 174.22 L 487.42 174.33 L 484.77 174.45 L 482.17 174.47 L 479.45 174.61 L 476.81 174.67 L 473.97 174.75 L 471.54 174.76 L 468.74 174.86 L 466.25 174.98 L 463.68 175.25 L 461.19 175.17 L 458.14 174.99 L 455.71 175.19 L 453.09 175.34 L 450.65 175.62 L 447.88 175.53 L 445.10 175.74 L 442.68 175.71 L 439.99 175.69 L 437.30 175.79 L 434.86 175.90 L 431.99 176.06 L 429.72 176.13 L 426.96 176.04 L 424.15 176.13 L 421.67 176.28 L 419.00 176.34 L 416.39 176.37 L 414.02 176.37 L 411.57 176.44 L 408.76 176.37 L 406.10 176.75 L 403.60 176.64 L 401.14 176.69 L 398.36 176.57 L 396.01 176.65 L 393.26 177.09 L 390.73 177.08 L 388.33 177.00 L 385.88 176.84 L 383.35 176.99 L 380.56 176.98 L 378.32 177.29 L 375.55 177.31 L 372.91 177.29 L 370.23 177.63 L 367.68 177.41 L 365.42 177.39 L 362.79 177.61 L 360.43 177.51 L 357.69 177.56 L 355.25 177.58 L 352.51 178.05 L 350.04 177.92 L 347.67 177.91 L 344.72 178.08 L 342.46 178.03 L 339.66 178.13 L 337.28 178.22 L 334.76 178.50 L 332.34 178.19 L 329.50 178.53 L 327.18 178.54 L 324.49 178.53" fill="none" stroke="black" stroke-width="1"/>
  <path d="M 352.58 161.55 L 347.02 162.10" fill="none" stroke="black" stroke-width="1"/>
  <path d="M 340.90 167.16 L 335.43 167.86" fill="none" stroke="black" stroke-width="1"/>
  <path d="M 313.61 167.42 L 307.88 167.63" fill="none" stroke="black" stroke-width="1"/>
  <path d="M 308.10 167.96 L 313.33 167.11" fill="none" stroke="black" stroke-width="1"/>
  <path d="M 269.28 131.50 L 263.60 131.66" fill="none" stroke="black" stroke-width="1"/>
  <path d="M 260.71 131.32 L 255.18 131.65" fill="none" stroke="black" stroke-width="1"/>
  <path d="M 255.32 131.29 L 260.55 131.25" fill="none" stroke="black" stroke-width="1"/>
  <path d="M 259.56 130.21 L 265.36 130.43" fill="none" stroke="black" stroke-width="1"/>
  <path d="M 267.75 132.83 L 262.39 133.07" fill="none" stroke="black" stroke-width="1"/>
  <path d="M 262.07 132.96 L 256.56 133.20" fill="none" stroke="black" stroke-width="1"/>
  <path d="M 258.11 129.49 L 263.28 129.25" fill="none" stroke="black" stroke-width="1"/>
  <path d="M 260.69 126.13 L 266.22 125.87" fill="none" stroke="black" stroke-width="1"/>
  <path d="M 267.68 119.29 L 273.11 118.83" fill="none" stroke="black" stroke-width="1"/>
  <path d="M 273.19 119.32 L 278.81 118.44" fill="none" stroke="black" stroke-width="1"/>
  <path d="M 280.35 117.43 L 274.63 118.48" fill="none" stroke="black" stroke-width="1"/>
  <path d="M 274.89 118.05 L 280.26 117.32" fill="none" stroke="black" stroke-width="1"/>
  <path d="M 275.94 115.66 L 270.58 116.77" fill="none" stroke="black" stroke-width="1"/>
  <path d="M 271.83 117.49 L 266.16 118.37" fill="none" stroke="black" stroke-width="1"/>
  <path d="M 266.48 118.33 L 271.87 117.29" fill="none" stroke="black" stroke-width="1"/>
  <path d="M 272.27 113.00 L 277.60 111.41" fill="none" stroke="black" stroke-width="1"/>
  <path d="M 275.75 109.92 L 270.68 111.52" fill="none" stroke="black" stroke-width="1"/>
  <path d="M 280.13 109.93 L 285.84 109.13" fill="none" stroke="black" stroke-width="1"/>
  <path d="M 286.15 109.45 L 280.69 109.63" fill="none" stroke="black" stroke-width="1"/>
  <path d="M 282.11 105.84 L 287.44 104.50" fill="none" stroke="black" stroke-width="1"/>
  <path d="M 288.67 104.51 L 294.07 102.97" fill="none" stroke="black" stroke-width="1"/>
  <path d="M 294.16 103.42 L 288.72 104.77" fill="none" stroke="black" stroke-width="1"/>
  <path d="M 287.36 105.88 L 292.61 104.50" fill="none" stroke="black" stroke-width="1"/>
  <path d="M 288.26 101.81 L 282.85 102.99" fill="none" stroke="black" stroke-width="1"/>
  <path d="M 280.65 104.47 L 285.55 102.87" fill="none" stroke="black" stroke-width="1"/>
  <path d="M 285.93 102.74 L 280.32 104.25" fill="none" stroke="black" stroke-width="1"/>
  <path d="M 284.66 98.03 L 289.68 96.24" fill="none" stroke="black" stroke-width="1"/>
  <path d="M 291.24 97.67 L 286.33 99.26" fill="none" stroke="black" stroke-width="1"/>
  <path d="M 295.53 92.44 L 301.08 90.30" fill="none" stroke="black" stroke-width="1"/>
  <path d="M 302.77 90.91 L 308.04 89.09" fill="none" stroke="black" stroke-width="1"/>
  <path d="M 307.69 89.31 L 302.47 91.03" fill="none" stroke="black" stroke-width="1"/>
  <path d="M 301.29 92.07 L 306.38 90.65" fill="none" stroke="black" stroke-width="1"/>
  <path d="M 303.94 87.57 L 298.53 89.30" fill="none" stroke="black" stroke-width="1"/>
  <path d="M 299.56 89.26 L 294.47 90.82" fill="none" stroke="black" stroke-width="1"/>
  <path d="M 294.53 91.26 L 299.49 89.02" fill="none" stroke="black" stroke-width="1"/>
  <path d="M 296.94 88.82 L 302.11 86.91" fill="none" stroke="black" stroke-width="1"/>
  <path d="M 299.64 85.70 L 305.09 83.47" fill="none" stroke="black" stroke-width="1"/>
  <path d="M 303.77 81.89 L 298.32 83.95" fill="none" stroke="black" stroke-width="1"/>
  <path d="M 308.14 76.91 L 313.17 75.16" fill="none" stroke="black" stroke-width="1"/>
  <path d="M 313.32 74.83 L 308.36 77.51" fill="none" stroke="black" stroke-width="1"/>
  <path d="M 309.63 78.86 L 314.94 76.94" fill="none" stroke="black" stroke-width="1"/>
  <path d="M 313.83 75.26 L 318.62 72.89" fill="none" stroke="black" stroke-width="1"/>
  <path d="M 316.12 72.67 L 311.07 75.03" fill="none" stroke="black" stroke-width="1"/>
  <path d="M 312.45 75.81 L 317.32 73.72" fill="none" stroke="black" stroke-width="1"/>
  <path d="M 320.32 76.42 L 315.40 78.72" fill="none" stroke="black" stroke-width="1"/>
  <path d="M 316.54 77.18 L 321.63 74.89" fill="none" stroke="black" stroke-width="1"/>
  <path d="M 335.43 68.72 L 340.87 66.94" fill="none" stroke="black" stroke-width="1"/>
  <path d="M 340.94 67.75 L 335.37 68.04" fill="none" stroke="black" stroke-width="1"/>
  <path d="M 321.96 35.60 L 327.11 33.64" fill="none" stroke="black" stroke-width="1"/>
  <path d="M 272.07 39.15 L 266.89 41.03" fill="none" stroke="black" stroke-width="1"/>
  <path d="M 243.95 52.93 L 238.80 54.54" fill="none" stroke="black" stroke-width="1"/>
  <path d="M 238.91 54.23 L 244.63 53.76" fill="none" stroke="black" stroke-width="1"/>
  <path d="M 227.77 79.02 L 225.52 79.03 L 223.07 79.16 L 220.44 79.42 L 218.16 79.10 L 215.67 79.35 L 213.23 79.41 L 210.70 79.37 L 208.62 79.56 L 206.19 79.46 L 203.56 79.68 L 201.29 79.86 L 198.81 80.01 L 196.36 79.98 L 194.09 79.98 L 191.46 80.01 L 189.15 80.02 L 186.52 80.04 L 184.34 80.23 L 181.90 80.08 L 179.35 80.34 L 176.79 80.24 L 174.46 80.68 L 172.06 80.34 L 169.89 80.71 L 167.25 80.67 L 165.04 80.70 L 162.33 80.97 L 160.03 80.80 L 157.54 80.90 L 155.15 81.00 L 152.90 81.20 L 150.32 81.08 L 147.69 81.08 L 145.40 81.30 L 143.04 81.34 L 140.49 81.36 L 138.17 81.66 L 135.78 81.72 L 133.34 81.82 L 130.94 81.68 L 128.49 81.68 L 126.22 81.80 L 123.89 81.97 L 121.06 81.75 L 118.84 82.02 L 116.59 82.07 L 113.94 82.37 L 111.61 82.44 L 109.23 82.30 L 106.74 82.37 L 104.41 82.26 L 101.94 82.40 L 99.56 82.38 L 96.94 82.78 L 94.64 82.71 L 92.14 82.63 L 89.82 82.70 L 87.22 83.08 L 85.11 82.88 L 82.54 83.07 L 79.94 83.20 L 77.53 83.14 L 75.19 83.14 L 72.89 83.45 L 70.44 83.42 L 67.98 83.39 L 65.38 83.35 L 63.15 83.77 L 60.70 83.64 L 58.34 83.77 L 55.76 83.85 L 53.39 84.13 L 51.27 83.96 L 48.60 83.91 L 46.24 84.12 L 43.68 84.36 L 41.50 84.20 L 38.98 84.50 L 36.65 84.61 L 34.14 84.47" fill="none" stroke="black" stroke-width="1"/>
  <path d="M 44.80 84.53 L 50.33 84.15" fill="none" stroke="black" stroke-width="1"/>
  <path d="M 45.08 73.13 L 39.54 73.67" fill="none" stroke="black" stroke-width="1"/>
  <path d="M 50.85 67.89 L 56.38 67.30" fill="none" stroke="black" stroke-width="1"/>
  <path d="M 141.97 62.69 L 147.34 62.32" fill="none" stroke="black" stroke-width="1"/>
  <path d="M 147.36 61.97 L 142.09 62.64" fill="none" stroke="black" stroke-width="1"/>
  <path d="M 169.27 49.19 L 174.87 47.72" fill="none" stroke="black" stroke-width="1"/>
  <path d="M 183.44 95.54 L 189.22 95.52" fill="none" stroke="black" stroke-width="1"/>
  <path d="M 189.04 95.11 L 183.58 96.19" fill="none" stroke="black" stroke-width="1"/>
  <path d="M 111.53 76.17 L 105.89 76.39" fill="none" stroke="black" stroke-width="1"/>
  <path d="M 86.31 103.83 L 92.24 103.65" fill="none" stroke="black" stroke-width="1"/>
  <path d="M 91.91 103.08 L 86.75 104.47" fill="none" stroke="black" stroke-width="1"/>
  <path d="M 103.03 128.93 L 104.06 131.17 L 105.48 133.28 L 106.36 135.71 L 107.48 137.53 L 108.66 139.94" fill="none" stroke="black" stroke-width="1"/>
  <path d="M 111.26 139.85 L 108.95 140.66 L 106.76 141.75 L 104.67 142.80 L 102.26 143.49 L 99.77 144.73 L 97.64 145.48" fill="none" stroke="black" stroke-width="1"/>
  <path d="M 114.05 159.66 L 119.89 159.19" fill="none" stroke="black" stroke-width="1"/>
  <path d="M 119.26 157.74 L 114.97 160.85" fill="none" stroke="black" stroke-width="1"/>
  <path d="M 122.28 137.53 L 127.77 136.60" fill="none" stroke="black" stroke-width="1"/>
  <path d="M 155.88 187.01 L 161.49 186.79" fill="none" stroke="black" stroke-width="1"/>
  <path d="M 160.80 185.38 L 156.42 188.44" fill="none" stroke="black" stroke-width="1"/>
  <path d="M 211.28 151.30 L 216.41 151.16" fill="none" stroke="black" stroke-width="1"/>
  <path d="M 214.86 148.38 L 212.99 153.58" fill="none" stroke="black" stroke-width="1"/>
  <path d="M 219.34 153.76 L 220.73 155.02 L 222.17 156.44" fill="none" stroke="black" stroke-width="1"/>
  <path d="M 227.70 156.47 L 227.54 156.50 L 227.44 156.47 L 227.34 156.48 L 227.20 156.44 L 227.13 156.38 L 226.97 156.41 L 226.88 156.41 L 226.74 156.37 L 226.60 156.28 L 226.50 156.34 L 226.46 156.30 L 226.26 156.32 L 226.09 156.30 L 225.99 156.33 L 225.82 156.26 L 225.69 156.36 L 225.59 156.36 L 225.35 156.43 L 225.13 156.50 L 224.96 156.54 L 224.67 156.58 L 224.52 156.70 L 224.26 156.89 L 224.04 156.91 L 223.75 157.04 L 223.51 157.16 L 223.21 157.30 L 222.96 157.44 L 222.59 157.64 L 222.38 157.73 L 222.08 157.91 L 221.79 158.04 L 221.46 158.20 L 221.19 158.36 L 220.98 158.59 L 220.60 158.67 L 220.34 158.76 L 220.01 158.97 L 219.76 159.14 L 219.45 159.25" fill="none" stroke="black" stroke-width="1"/>
  <path d="M 219.44 159.22 L 218.50 163.86 L 217.60 168.50 L 216.63 173.14" fill="none" stroke="black" stroke-width="1"/>
  <path d="M 219.33 178.52 L 219.09 178.45 L 218.78 178.28 L 218.46 178.24 L 218.22 178.07 L 217.98 178.04 L 217.67 177.88 L 217.43 177.73 L 217.12 177.70 L 216.86 177.67 L 216.57 177.51 L 216.28 177.41 L 216.01 177.29 L 215.81 177.12 L 215.46 177.03 L 215.14 176.85 L 214.91 176.70 L 214.70 176.54 L 214.36 176.30 L 214.10 176.06 L 213.80 175.81 L 213.60 175.58 L 213.25 175.21 L 212.92 174.93 L 212.70 174.52 L 212.42 174.09 L 212.15 173.75 L 211.90 173.41 L 211.60 172.92 L 211.35 172.49 L 211.05 172.05 L 210.78 171.61 L 210.49 171.15 L 210.21 170.62 L 209.94 170.24 L 209.70 169.86 L 209.39 169.33 L 209.08 168.96 L 208.84 168.45 L 208.64 168.10 L 208.29 167.60" fill="none" stroke="black" stroke-width="1"/>
  <path d="M 208.36 167.46 L 208.56 167.36 L 208.63 167.17 L 208.70 166.95 L 208.88 166.86 L 209.04 166.63 L 209.12 166.54 L 209.25 166.46 L 209.36 166.21 L 209.43 166.03 L 209.60 165.89 L 209.75 165.72 L 209.86 165.59 L 210.07 165.46 L 210.13 165.30 L 210.30 165.13 L 210.44 165.05 L 210.66 165.03 L 210.78 164.84 L 210.93 164.83 L 211.17 164.69 L 211.33 164.57 L 211.61 164.58 L 211.85 164.50 L 212.10 164.53 L 212.37 164.58 L 212.62 164.51 L 212.94 164.60 L 213.17 164.53 L 213.38 164.59 L 213.75 164.57 L 214.09 164.61 L 214.33 164.63 L 214.58 164.67 L 214.93 164.69 L 215.18 164.73 L 215.52 164.75 L 215.87 164.84 L 216.09 164.80 L 216.35 164.83 L 216.65 164.83" fill="none" stroke="black" stroke-width="1"/>
  <path d="M 216.71 173.11 L 216.68 173.77 L 216.70 174.26 L 216.65 174.80 L 216.67 175.47 L 216.63 176.10 L 216.63 176.71 L 216.52 177.37 L 216.58 177.96 L 216.51 178.63 L 216.54 179.19 L 216.46 179.85 L 216.52 180.38 L 216.55 180.88 L 216.51 181.51 L 216.57 182.03 L 216.54 182.54 L 216.61 182.94 L 216.60 183.45 L 216.73 183.88 L 216.71 184.22 L 216.72 184.60 L 216.87 184.83 L 217.06 185.14 L 217.08 185.30 L 217.23 185.39 L 217.33 185.65 L 217.38 185.75 L 217.60 185.90 L 217.70 185.94 L 217.90 186.09 L 217.97 186.12 L 218.21 186.24 L 218.44 186.26 L 218.52 186.36 L 218.62 186.44 L 218.84 186.50 L 219.03 186.57 L 219.14 186.67 L 219.34 186.76 L 219.42 186.90" fill="none" stroke="black" stroke-width="1"/>
  <path d="M 222.15 189.74 L 219.68 194.54 L 217.33 199.12 L 214.79 203.94 L 212.35 208.61 L 209.86 213.33 L 207.37 218.16 L 204.95 222.87 L 202.50 227.60 L 200.10 232.25 L 197.69 236.98 L 195.13 241.85 L 192.65 246.66 L 190.17 251.37 L 187.72 256.21 L 185.18 261.05 L 182.58 265.88 L 180.22 270.60 L 177.67 275.35 L 175.19 280.19 L 172.76 284.78 L 170.37 289.44 L 168.00 294.14 L 165.55 298.69 L 163.18 303.39 L 160.76 308.01 L 158.25 312.75 L 155.91 317.37 L 153.39 321.89 L 151.11 326.61 L 148.63 331.23 L 146.19 336.02 L 143.81 340.66 L 141.35 345.42 L 138.82 350.03 L 136.33 354.80 L 133.88 359.43 L 131.55 364.25 L 129.07 368.97 L 126.50 373.65 L 124.10 378.40 L 121.66 383.05 L 119.32 387.60 L 116.95 392.23 L 114.61 396.76 L 112.16 401.37 L 109.71 405.87 L 107.38 410.40 L 104.97 415.00 L 102.69 419.53 L 100.22 424.18 L 97.84 428.69 L 95.52 433.31 L 93.19 437.99 L 90.76 442.52 L 88.37 447.21 L 85.96 451.87 L 83.42 456.47 L 80.98 461.18 L 78.65 465.81 L 76.21 470.50 L 73.82 475.06 L 71.42 479.70 L 69.04 484.09 L 66.81 488.66 L 64.50 493.14 L 62.11 497.62 L 59.92 502.05 L 57.50 506.52 L 55.20 510.99 L 52.86 515.34 L 50.60 519.89 L 48.31 524.38 L 45.90 528.93 L 43.55 533.46 L 41.31 537.97 L 38.99 542.47 L 36.64 547.05 L 34.29 551.55 L 32.13 555.76 L 30.10 559.85 L 27.89 564.08 L 25.82 568.26 L 23.71 572.36 L 21.98 576.22 L 20.10 580.00 L 22.23 576.39 L 24.27 572.91 L 26.45 568.90 L 28.67 564.86 L 30.97 560.74 L 33.22 556.76 L 35.41 552.64 L 37.85 548.28 L 40.26 543.72 L 42.64 539.37 L 45.08 534.79 L 47.50 530.37 L 49.80 525.94 L 52.28 521.52 L 54.69 517.14 L 57.04 512.78 L 59.35 508.27 L 61.84 503.84 L 64.12 499.51 L 66.46 495.06 L 68.98 490.76 L 71.24 486.33 L 73.67 481.87 L 76.12 477.23 L 78.58 472.76 L 81.01 468.09 L 83.60 463.58 L 86.01 458.88 L 88.45 454.29 L 90.95 449.84 L 93.32 445.13 L 95.91 440.54 L 98.33 436.03 L 100.71 431.44 L 103.11 427.02 L 105.58 422.54 L 107.98 418.01 L 110.39 413.41 L 112.87 408.83 L 115.31 404.37 L 117.71 399.83 L 120.13 395.38 L 122.62 390.75 L 125.03 386.31 L 127.50 381.68 L 129.97 377.00 L 132.55 372.29 L 135.09 367.58 L 137.48 362.94 L 140.08 358.28 L 142.54 353.70 L 145.13 348.97 L 147.62 344.44 L 150.08 339.70 L 152.56 335.03 L 154.97 330.52 L 157.44 325.78 L 160.01 321.24 L 162.48 316.73 L 164.94 312.06 L 167.27 307.45 L 169.80 302.86 L 172.22 298.28 L 174.69 293.68 L 177.17 289.16 L 179.68 284.54 L 182.25 279.87 L 184.78 275.12 L 187.25 270.37 L 189.95 265.52 L 192.47 260.89 L 194.97 256.16 L 197.58 251.32 L 200.01 246.66 L 202.62 241.92 L 205.16 237.14 L 207.74 232.48 L 210.22 227.74 L 212.65 223.09 L 215.16 218.41 L 217.70 213.81 L 220.30 209.18 L 222.73 204.55 L 225.22 199.87 L 227.77 195.17" fill="none" stroke="black" stroke-width="1"/>
  <path d="M 227.75 195.20 L 225.27 199.78 L 222.89 204.48 L 220.48 209.16 L 217.88 213.92 L 215.54 218.55 L 212.97 223.18 L 210.63 227.79 L 208.08 232.42 L 205.69 237.14 L 203.21 241.83 L 200.74 246.58 L 198.27 251.34 L 195.68 256.08 L 193.14 260.84 L 190.79 265.57 L 188.20 270.24 L 185.79 274.97 L 183.20 279.76 L 180.74 284.49 L 178.33 289.00 L 175.87 293.60 L 173.52 298.26 L 171.07 302.83 L 168.63 307.43 L 166.18 311.95 L 163.74 316.52 L 161.34 321.10 L 159.05 325.76 L 156.63 330.26 L 154.14 334.93 L 151.71 339.66 L 149.19 344.24 L 146.80 348.83 L 144.32 353.50 L 141.83 358.17 L 139.39 362.88 L 136.97 367.52 L 134.53 372.20 L 132.00 376.83 L 129.62 381.46 L 127.13 386.14 L 124.69 390.73 L 122.42 395.11 L 119.96 399.60 L 117.62 404.14 L 115.21 408.71 L 112.81 413.31 L 110.45 417.78 L 108.13 422.20 L 105.78 426.73 L 103.35 431.29 L 100.95 435.81 L 98.51 440.39 L 96.14 444.90 L 93.74 449.60 L 91.28 454.16 L 88.93 458.68 L 86.46 463.27 L 84.07 467.82 L 81.73 472.47 L 79.15 477.05 L 76.82 481.61 L 74.45 486.07 L 72.12 490.47 L 69.90 494.90 L 67.58 499.24 L 65.25 503.64 L 62.97 508.01 L 60.69 512.36 L 58.34 516.88 L 56.00 521.24 L 53.74 525.67 L 51.39 530.06 L 49.03 534.67 L 46.66 539.09 L 44.41 543.51 L 41.95 547.97 L 39.71 552.38 L 37.64 556.38 L 35.48 560.57 L 33.32 564.65 L 31.27 568.61 L 29.19 572.70 L 27.50 576.23 L 25.69 579.90 L 27.81 576.21 L 30.02 572.43 L 32.24 568.30 L 34.48 564.19 L 36.81 559.99 L 39.06 555.94 L 41.36 551.84 L 43.89 547.29 L 46.30 542.82 L 48.67 538.31 L 51.07 533.90 L 53.56 529.43 L 56.05 524.89 L 58.48 520.43 L 60.87 515.98 L 63.21 511.58 L 65.69 507.20 L 68.07 502.68 L 70.55 498.33 L 72.89 493.84 L 75.40 489.45 L 77.79 485.00 L 80.13 480.53 L 82.55 475.88 L 85.06 471.25 L 87.60 466.62 L 90.15 462.14 L 92.57 457.56 L 95.02 452.83 L 97.62 448.34 L 100.06 443.61 L 102.56 439.00 L 105.08 434.45 L 107.53 429.86 L 110.05 425.34 L 112.50 420.76 L 114.93 416.31 L 117.36 411.69 L 119.75 407.23 L 122.30 402.61 L 124.68 398.09 L 127.16 393.64 L 129.58 389.14 L 132.09 384.52 L 134.66 379.91 L 137.17 375.07 L 139.67 370.45 L 142.27 365.79 L 144.76 361.05 L 147.20 356.48 L 149.84 351.75 L 152.34 347.06 L 154.90 342.41 L 157.48 337.70 L 159.93 333.03 L 162.36 328.41 L 164.95 323.86 L 167.38 319.14 L 169.91 314.66 L 172.32 310.01 L 174.95 305.36 L 177.32 300.75 L 179.90 296.11 L 182.34 291.51 L 184.79 286.97 L 187.36 282.32 L 189.92 277.63 L 192.55 272.72 L 195.08 268.05 L 197.68 263.32 L 200.27 258.54 L 202.78 253.77 L 205.46 249.05 L 208.04 244.22 L 210.54 239.46 L 213.13 234.70 L 215.66 229.98 L 218.24 225.37 L 220.73 220.57 L 223.30 215.91 L 225.80 211.17 L 228.36 206.49 L 230.91 201.86 L 233.56 197.23 L 236.02 192.49" fill="none" stroke="black" stroke-width="1"/>
  <path d="M 236.08 192.45 L 233.29 189.65 L 230.46 186.84" fill="none" stroke="black" stroke-width="1"/>
  <path d="M 230.40 186.96 L 233.15 182.77 L 236.00 178.61" fill="none" stroke="black" stroke-width="1"/>
  <path d="M 236.08 178.60 L 235.87 177.84 L 235.81 177.20 L 235.60 176.40 L 235.55 175.75 L 235.49 175.01 L 235.30 174.29 L 235.24 173.56 L 235.06 172.82 L 234.94 172.06 L 234.81 171.36 L 234.74 170.70 L 234.54 169.92 L 234.34 169.27 L 234.26 168.53 L 234.15 167.81 L 233.95 167.20 L 233.69 166.56 L 233.60 165.95 L 233.44 165.32 L 233.20 164.79 L 233.05 164.29 L 232.76 163.73 L 232.59 163.31 L 232.27 162.76 L 231.96 162.28 L 231.74 161.87 L 231.52 161.46 L 231.19 161.04 L 230.87 160.66 L 230.62 160.25 L 230.39 159.88 L 230.03 159.49 L 229.65 159.14 L 229.44 158.75 L 229.13 158.29 L 228.85 157.99 L 228.62 157.63 L 228.27 157.21 L 228.00 156.82 L 227.70 156.40" fill="none" stroke="black" stroke-width="1"/>
  <path d="M 230.50 156.40 L 231.87 155.10 L 233.18 153.67" fill="none" stroke="black" stroke-width="1"/>
  <path d="M 244.83 146.95 L 249.14 143.46" fill="none" stroke="black" stroke-width="1"/>
  <path d="M 249.02 145.54 L 253.52 142.06" fill="none" stroke="black" stroke-width="1"/>
  <path d="M 250.17 140.65 L 255.24 138.52" fill="none" stroke="black" stroke-width="1"/>
  <path d="M 257.83 143.89 L 253.31 147.06" fill="none" stroke="black" stroke-width="1"/>
  <path d="M 252.96 147.03 L 257.51 143.84" fill="none" stroke="black" stroke-width="1"/>
  <path d="M 255.79 145.32 L 251.57 148.63" fill="none" stroke="black" stroke-width="1"/>
  <path d="M 250.45 145.01 L 246.51 148.74" fill="none" stroke="black" stroke-width="1"/>
  <path d="M 243.97 161.93 L 244.34 156.42" fill="none" stroke="black" stroke-width="1"/>
  <path d="M 244.29 156.85 L 244.29 162.20" fill="none" stroke="black" stroke-width="1"/>
  <path d="M 243.90 163.33 L 241.70 158.02" fill="none" stroke="black" stroke-width="1"/>
  <path d="M 239.72 154.98 L 240.39 160.52" fill="none" stroke="black" stroke-width="1"/>
  <path d="M 238.80 162.01 L 241.60 163.39 L 244.34 164.79" fill="none" stroke="black" stroke-width="1"/>
  <path d="M 244.33 164.81 L 244.27 165.13 L 244.06 165.37 L 243.96 165.70 L 243.80 165.95 L 243.65 166.22 L 243.56 166.54 L 243.50 166.85 L 243.32 167.13 L 243.22 167.38 L 243.07 167.72 L 242.86 168.03 L 242.81 168.29 L 242.68 168.60 L 242.53 168.84 L 242.38 169.04 L 242.23 169.37 L 241.99 169.64 L 241.88 169.85 L 241.67 170.04 L 241.49 170.29 L 241.33 170.41 L 241.05 170.68 L 240.86 170.82 L 240.57 171.03 L 240.36 171.11 L 240.05 171.33 L 239.72 171.42 L 239.51 171.61 L 239.17 171.65 L 238.94 171.87 L 238.57 171.92 L 238.36 172.11 L 238.08 172.28 L 237.77 172.34 L 237.46 172.39 L 237.19 172.58 L 236.98 172.78 L 236.62 172.83 L 236.32 173.04 L 236.06 173.10" fill="none" stroke="black" stroke-width="1"/>
  <path d="M 239.99 162.26 L 235.27 158.90" fill="none" stroke="black" stroke-width="1"/>
  <path d="M 235.47 161.58 L 237.01 156.62" fill="none" stroke="black" stroke-width="1"/>
  <path d="M 236.85 156.64 L 235.26 161.97" fill="none" stroke="black" stroke-width="1"/>
  <path d="M 227.73 161.96 L 227.15 166.42 L 226.64 170.77 L 225.99 175.22 L 225.53 179.64 L 224.89 184.13" fill="none" stroke="black" stroke-width="1"/>
  <path d="M 229.07 189.62 L 227.68 191.00 L 226.30 189.62 L 227.68 188.24 L 229.07 189.62" fill="none" stroke="black" stroke-width="1"/>
  <path d="M 252.83 206.62 L 258.23 206.36" fill="none" stroke="black" stroke-width="1"/>
  <path d="M 257.21 204.75 L 253.11 208.33" fill="none" stroke="black" stroke-width="1"/>
  <path d="M 321.91 261.37 L 327.72 261.39" fill="none" stroke="black" stroke-width="1"/>
  <path d="M 327.30 261.11 L 321.85 262.18" fill="none" stroke="black" stroke-width="1"/>
  <path d="M 271.94 302.84 L 266.41 303.21" fill="none" stroke="black" stroke-width="1"/>
  <path d="M 266.48 303.65 L 271.80 302.80" fill="none" stroke="black" stroke-width="1"/>
  <path d="M 269.16 278.33 L 266.76 278.29 L 264.33 278.48 L 261.75 278.41 L 259.46 278.63 L 257.03 278.64 L 254.72 278.60 L 251.95 278.96 L 249.82 278.62 L 247.15 278.85 L 244.89 278.96 L 242.41 279.00 L 239.92 279.24 L 237.77 279.36 L 235.19 279.08 L 232.76 279.27 L 230.28 279.44 L 228.03 279.33 L 225.69 279.32 L 223.00 279.58 L 220.62 279.58 L 218.05 279.43 L 215.56 279.64 L 213.17 279.81 L 210.93 279.95 L 208.49 279.90 L 206.17 280.08 L 203.68 279.93 L 201.01 279.88 L 198.60 280.37 L 196.37 280.22 L 194.14 280.21 L 191.57 280.46 L 189.28 280.38 L 186.72 280.61 L 184.25 280.55 L 181.76 280.52 L 179.28 280.68 L 177.20 280.72 L 174.57 280.76 L 172.14 280.89 L 169.54 280.81 L 167.17 281.16 L 164.84 281.07 L 162.68 280.98 L 160.04 281.24 L 157.40 281.21 L 155.01 281.29 L 153.00 281.51 L 150.18 281.37 L 147.95 281.60 L 145.59 281.81 L 143.09 281.54 L 140.59 281.97 L 138.16 281.90 L 135.86 281.96 L 133.55 282.01 L 131.15 281.90 L 128.73 282.32 L 126.32 282.32 L 123.79 282.34 L 121.52 282.55 L 119.01 282.59 L 116.45 282.77 L 114.08 282.72 L 111.71 282.71 L 109.21 282.60 L 106.83 283.08 L 104.28 282.77 L 102.17 283.04 L 99.64 283.09 L 97.05 283.14 L 94.95 283.11 L 92.51 283.29 L 90.18 283.29 L 87.56 283.46 L 85.21 283.73 L 82.56 283.76 L 80.31 283.79 L 78.05 283.65 L 75.48 283.83" fill="none" stroke="black" stroke-width="1"/>
  <path d="M 44.81 344.37 L 50.55 344.46" fill="none" stroke="black" stroke-width="1"/>
  <path d="M 78.47 297.73 L 73.00 297.67" fill="none" stroke="black" stroke-width="1"/>
  <path d="M 72.79 297.61 L 78.28 297.36" fill="none" stroke="black" stroke-width="1"/>
  <path d="M 81.17 272.55 L 86.62 272.19" fill="none" stroke="black" stroke-width="1"/>
  <path d="M 92.05 267.45 L 97.86 266.72" fill="none" stroke="black" stroke-width="1"/>
  <path d="M 133.77 269.60 L 128.07 270.01" fill="none" stroke="black" stroke-width="1"/>
  <path d="M 127.94 269.88 L 133.74 269.89" fill="none" stroke="black" stroke-width="1"/>
  <path d="M 173.34 286.55 L 171.05 291.66" fill="none" stroke="black" stroke-width="1"/>
  <path d="M 169.69 289.64 L 175.12 289.12" fill="none" stroke="black" stroke-width="1"/>
  <path d="M 230.48 263.57 L 224.72 264.82" fill="none" stroke="black" stroke-width="1"/>
  <path d="M 191.90 242.48 L 189.16 243.35 L 186.76 244.51 L 184.33 245.33 L 181.33 246.28 L 179.09 246.88 L 176.42 247.93 L 173.90 248.94 L 171.17 249.83 L 168.50 250.60 L 166.16 251.50 L 163.55 252.64 L 160.53 253.42 L 158.19 254.19 L 155.55 254.94 L 152.96 256.05" fill="none" stroke="black" stroke-width="1"/>
  <path d="M 58.97 200.92 L 64.54 200.09" fill="none" stroke="black" stroke-width="1"/>
  <path d="M 64.17 200.62 L 58.69 200.46" fill="none" stroke="black" stroke-width="1"/>
</svg>