<svg xmlns="http://www.w3.org/2000/svg" width="800" height="600" viewBox="0 0 800 600">
  <rect width="100%" height="100%" fill="white"/>
  <path d="M 65.86 547.64 L 72.14 544.96" fill="none" stroke="black" stroke-width="1"/>
  <path d="M 101.95 424.93 L 118.35 421.65" fill="none" stroke="black" stroke-width="1"/>
  <path d="M 118.35 421.65 L 134.75 424.93" fill="none" stroke="black" stroke-width="1"/>
  <path d="M 135.34 389.11 L 133.73 395.42" fill="none" stroke="black" stroke-width="1"/>
  <path d="M 121.31 399.10 L 115.08 398.21" fill="none" stroke="black" stroke-width="1"/>
  <path d="M 102.94 385.59 L 101.41 379.01" fill="none" stroke="black" stroke-width="1"/>
  <path d="M 85.49 365.92 L 84.44 359.47 L 83.30 353.20 L 82.32 346.89 L 81.17 340.43 L 80.20 334.14 L 79.13 327.75 L 78.08 321.49 L 77.08 315.14 L 75.94 308.73 L 74.85 302.45 L 73.86 296.02 L 72.82 289.71 L 71.70 283.28 L 70.63 277.02 L 69.61 270.65 L 68.56 264.27 L 67.59 257.92 L 66.60 251.60 L 65.41 245.34 L 64.48 238.99 L 63.29 232.60 L 62.28 226.21 L 61.32 219.80 L 60.12 213.53 L 59.19 207.24 L 58.08 200.79 L 56.94 194.49 L 55.98 188.02 L 54.87 181.67 L 53.75 175.31 L 52.79 169.05" fill="none" stroke="black" stroke-width="1"/>
  <path d="M 52.75 169.09 L 118.35 431.49" fill="none" stroke="black" stroke-width="1"/>
  <path d="M 118.35 431.49 L 183.95 169.09" fill="none" stroke="black" stroke-width="1"/>
  <path d="M 183.94 169.06 L 183.01 175.48 L 182.01 181.94 L 180.89 188.52 L 179.94 194.94 L 179.07 201.44 L 178.06 207.83 L 177.00 214.24 L 176.09 220.69 L 175.01 227.17 L 174.02 233.60 L 173.07 240.13 L 172.07 246.55 L 171.09 253.12 L 170.13 259.46 L 169.05 265.98 L 168.09 272.50 L 167.14 278.85 L 166.03 285.37 L 165.16 291.86 L 164.13 298.35 L 163.14 304.84 L 162.10 311.14 L 161.09 317.66 L 160.23 324.08 L 159.25 330.50 L 158.18 337.13 L 157.23 343.60 L 156.20 349.98 L 155.18 356.45 L 154.19 362.96 L 153.28 369.45 L 152.22 375.74 L 151.21 382.28" fill="none" stroke="black" stroke-width="1"/>
  <path d="M 297.60 362.83 L 299.72 368.93" fill="none" stroke="black" stroke-width="1"/>
  <path d="M 299.65 369.34 L 297.80 362.71" fill="none" stroke="black" stroke-width="1"/>
  <path d="M 304.45 346.23 L 306.46 352.25" fill="none" stroke="black" stroke-width="1"/>
  <path d="M 326.98 342.17 L 323.17 337.01" fill="none" stroke="black" stroke-width="1"/>
  <path d="M 344.49 290.29 L 338.03 289.86" fill="none" stroke="black" stroke-width="1"/>
  <path d="M 319.43 297.79 L 323.86 302.48" fill="none" stroke="black" stroke-width="1"/>
  <path d="M 313.79 313.57 L 316.21 319.56" fill="none" stroke="black" stroke-width="1"/>
  <path d="M 316.51 319.92 L 313.86 313.86" fill="none" stroke="black" stroke-width="1"/>
  <path d="M 293.05 319.71 L 291.11 313.26" fill="none" stroke="black" stroke-width="1"/>
  <path d="M 283.33 303.60 L 281.35 297.34" fill="none" stroke="black" stroke-width="1"/>
  <path d="M 288.01 270.92 L 289.96 277.06" fill="none" stroke="black" stroke-width="1"/>
  <path d="M 306.46 271.73 L 310.80 276.63" fill="none" stroke="black" stroke-width="1"/>
  <path d="M 328.57 267.04 L 334.94 267.99" fill="none" stroke="black" stroke-width="1"/>
  <path d="M 334.54 269.81 L 329.15 265.30" fill="none" stroke="black" stroke-width="1"/>
  <path d="M 334.59 251.10 L 341.09 250.76" fill="none" stroke="black" stroke-width="1"/>
  <path d="M 361.42 242.76 L 367.77 240.32" fill="none" stroke="black" stroke-width="1"/>
  <path d="M 383.93 207.45 L 377.59 209.37" fill="none" stroke="black" stroke-width="1"/>
  <path d="M 357.81 201.03 L 351.29 202.03" fill="none" stroke="black" stroke-width="1"/>
  <path d="M 344.41 218.34 L 350.98 217.57" fill="none" stroke="black" stroke-width="1"/>
  <path d="M 351.24 218.39 L 344.26 218.60" fill="none" stroke="black" stroke-width="1"/>
  <path d="M 318.58 218.43 L 312.19 217.85" fill="none" stroke="black" stroke-width="1"/>
  <path d="M 301.38 236.68 L 295.93 233.08" fill="none" stroke="black" stroke-width="1"/>
  <path d="M 271.65 231.40 L 273.68 237.56" fill="none" stroke="black" stroke-width="1"/>
  <path d="M 266.79 254.16 L 265.47 247.96" fill="none" stroke="black" stroke-width="1"/>
  <path d="M 264.69 247.61 L 267.09 254.16" fill="none" stroke="black" stroke-width="1"/>
  <path d="M 274.97 264.45 L 276.64 270.64" fill="none" stroke="black" stroke-width="1"/>
  <path d="M 252.40 275.26 L 246.61 272.65" fill="none" stroke="black" stroke-width="1"/>
  <path d="M 224.95 244.53 L 223.31 246.17 L 221.67 244.53 L 223.31 242.89 L 224.95 244.53" fill="none" stroke="black" stroke-width="1"/>
  <path d="M 233.08 247.85 L 237.55 245.55 L 241.81 243.37 L 246.30 241.21" fill="none" stroke="black" stroke-width="1"/>
  <path d="M 246.19 241.16 L 241.89 239.10 L 237.48 236.94 L 233.17 234.71" fill="none" stroke="black" stroke-width="1"/>
  <path d="M 229.87 232.82 L 235.89 236.20" fill="none" stroke="black" stroke-width="1"/>
  <path d="M 236.33 234.70 L 235.94 235.63 L 235.72 236.72 L 235.46 237.78 L 235.15 238.83 L 234.95 240.00 L 234.61 241.00 L 234.33 242.01 L 234.07 243.18 L 233.73 244.17 L 233.52 245.33 L 233.26 246.29 L 232.94 247.42 L 232.62 248.36 L 232.31 249.41 L 231.99 250.23 L 231.60 251.25 L 231.26 252.02 L 230.80 252.90 L 230.25 253.68 L 229.89 254.34 L 229.37 254.92 L 228.85 255.52 L 228.27 255.92 L 227.70 256.48 L 227.15 256.95 L 226.46 257.26 L 225.80 257.62 L 225.14 257.90 L 224.46 258.25 L 223.78 258.43 L 223.08 258.73 L 222.38 258.89 L 221.73 259.13 L 220.96 259.33 L 220.33 259.58 L 219.55 259.78 L 218.78 259.98 L 218.17 260.28 L 217.59 260.62 L 216.84 260.88" fill="none" stroke="black" stroke-width="1"/>
  <path d="M 216.71 261.00 L 216.12 260.67 L 215.37 260.39 L 214.70 260.21 L 213.99 259.87 L 213.34 259.65 L 212.58 259.40 L 211.90 259.08 L 211.16 258.94 L 210.43 258.77 L 209.76 258.46 L 209.07 258.10 L 208.39 257.91 L 207.79 257.67 L 207.07 257.26 L 206.40 256.84 L 205.83 256.47 L 205.20 255.90 L 204.67 255.50 L 204.09 254.94 L 203.63 254.31 L 203.16 253.63 L 202.71 252.87 L 202.22 252.04 L 201.90 251.22 L 201.45 250.35 L 201.19 249.39 L 200.88 248.34 L 200.54 247.41 L 200.23 246.35 L 199.95 245.34 L 199.70 244.29 L 199.39 243.20 L 199.15 242.10 L 198.84 241.03 L 198.55 239.86 L 198.28 238.88 L 198.06 237.90 L 197.70 236.77 L 197.31 235.73 L 197.08 234.76" fill="none" stroke="black" stroke-width="1"/>
  <path d="M 152.25 257.49 L 150.06 263.69" fill="none" stroke="black" stroke-width="1"/>
  <path d="M 121.53 284.08 L 115.16 283.81" fill="none" stroke="black" stroke-width="1"/>
  <path d="M 114.98 284.30 L 121.17 284.23" fill="none" stroke="black" stroke-width="1"/>
  <path d="M 109.73 298.09 L 114.41 302.42" fill="none" stroke="black" stroke-width="1"/>
  <path d="M 106.91 313.94 L 110.20 319.76" fill="none" stroke="black" stroke-width="1"/>
  <path d="M 100.91 329.97 L 102.75 335.92" fill="none" stroke="black" stroke-width="1"/>
  <path d="M 103.03 335.98 L 101.07 329.59" fill="none" stroke="black" stroke-width="1"/>
  <path d="M 106.57 309.73 L 103.92 303.55" fill="none" stroke="black" stroke-width="1"/>
  <path d="M 127.56 266.06 L 121.88 269.53" fill="none" stroke="black" stroke-width="1"/>
  <path d="M 118.45 261.84 L 124.65 260.07" fill="none" stroke="black" stroke-width="1"/>
  <path d="M 125.43 253.36 L 131.12 249.58" fill="none" stroke="black" stroke-width="1"/>
  <path d="M 137.39 232.31 L 132.17 236.51" fill="none" stroke="black" stroke-width="1"/>
  <path d="M 133.17 237.04 L 136.88 232.16" fill="none" stroke="black" stroke-width="1"/>
  <path d="M 138.91 220.40 L 143.97 215.96" fill="none" stroke="black" stroke-width="1"/>
  <path d="M 151.24 169.18 L 151.96 169.27 L 152.66 169.54 L 153.25 169.75 L 153.73 169.96 L 154.12 170.16 L 154.60 170.41 L 154.93 170.59 L 155.42 170.88 L 155.97 171.02 L 156.34 171.33 L 156.85 171.56 L 157.51 171.73 L 158.23 171.83 L 159.07 172.06 L 160.07 172.21 L 161.17 172.27 L 162.61 172.27 L 163.96 172.36 L 165.75 172.24 L 167.59 172.28 L 169.95 172.12 L 172.38 171.98 L 175.45 171.68 L 178.34 171.44 L 181.71 171.01 L 185.20 170.73 L 188.84 170.41 L 192.64 169.91 L 196.48 169.38 L 200.39 169.03 L 204.24 168.53 L 208.13 168.15 L 211.78 167.83 L 215.57 167.33 L 218.92 166.98 L 222.42 166.63 L 225.41 166.27 L 228.39 166.10 L 230.83 166.04 L 233.17 165.81 L 234.99 165.73 L 236.80 165.75 L 238.20 165.86 L 239.59 165.85 L 240.62 165.94 L 241.69 166.09 L 242.53 166.25 L 243.24 166.44 L 243.85 166.67 L 244.40 166.87 L 244.83 167.05 L 245.32 167.35 L 245.80 167.53 L 246.13 167.84 L 246.66 168.01 L 247.00 168.33 L 247.51 168.60 L 248.06 168.78 L 248.78 169.03 L 249.47 169.16" fill="none" stroke="black" stroke-width="1"/>
  <path d="M 249.46 169.15 L 251.34 175.28 L 253.18 181.56 L 255.10 187.72 L 256.82 193.83 L 258.80 200.12 L 260.61 206.35 L 262.53 212.51 L 264.32 218.67 L 266.17 224.80 L 267.97 230.94 L 269.84 237.25 L 271.73 243.40 L 273.64 249.63 L 275.48 255.71 L 277.38 261.93 L 279.24 268.04 L 281.08 274.28 L 282.99 280.42 L 284.84 286.77 L 286.61 292.79 L 288.38 298.99 L 290.27 305.27 L 292.11 311.41 L 294.14 317.59 L 295.83 323.87 L 297.81 330.09 L 299.71 336.13 L 301.51 342.30 L 303.38 348.62 L 305.16 354.66 L 307.00 361.00 L 309.00 367.10 L 310.74 373.36 L 312.71 379.48 L 314.45 385.60 L 316.34 391.80 L 318.17 398.01 L 319.98 404.14 L 321.96 410.50 L 323.83 416.68 L 325.58 422.89 L 327.55 428.99 L 329.30 435.14 L 331.26 441.30 L 333.05 447.56 L 334.95 453.74 L 336.84 459.91 L 338.69 466.02 L 340.46 472.34 L 342.40 478.53 L 344.14 484.73 L 346.17 490.83 L 347.94 497.04" fill="none" stroke="black" stroke-width="1"/>
  <path d="M 347.99 497.01 L 349.83 490.83 L 351.73 484.58 L 353.64 478.48 L 355.48 472.33 L 357.25 466.05 L 359.16 459.91 L 360.89 453.76 L 362.82 447.45 L 364.77 441.36 L 366.63 435.15 L 368.44 428.93 L 370.23 422.68 L 372.11 416.48 L 373.94 410.39 L 375.80 404.16 L 377.69 398.04 L 379.47 391.75 L 381.34 385.58 L 383.29 379.37 L 385.03 373.29 L 386.98 367.08 L 388.82 360.87 L 390.66 354.71 L 392.53 348.46 L 394.33 342.35 L 396.12 336.18 L 398.15 330.03 L 399.95 323.74 L 401.83 317.62 L 403.59 311.36 L 405.40 305.26 L 407.30 298.94 L 409.15 292.77 L 410.96 286.70 L 412.91 280.47 L 414.70 274.31 L 416.56 268.03 L 418.43 261.89 L 420.23 255.68 L 422.18 249.57 L 424.01 243.33 L 425.94 237.12 L 427.74 230.98 L 429.63 224.76 L 431.42 218.55 L 433.28 212.47 L 435.18 206.10 L 436.98 199.91 L 438.89 193.82 L 440.69 187.56 L 442.56 181.37 L 444.51 175.19 L 446.29 169.06" fill="none" stroke="black" stroke-width="1"/>
  <path d="M 446.35 169.09 L 347.95 497.09" fill="none" stroke="black" stroke-width="1"/>
  <path d="M 347.95 497.09 L 249.55 169.09" fill="none" stroke="black" stroke-width="1"/>
  <path d="M 249.48 169.08 L 250.77 175.42 L 251.95 181.79 L 253.07 188.31 L 254.19 194.65 L 255.46 200.98 L 256.70 207.40 L 257.84 213.82 L 259.08 220.34 L 260.28 226.64 L 261.53 233.13 L 262.74 239.41 L 263.85 245.85 L 265.00 252.24 L 266.35 258.56 L 267.54 265.04 L 268.74 271.48 L 269.84 277.86 L 271.12 284.30 L 272.30 290.61 L 273.40 297.10 L 274.70 303.49 L 275.92 309.78 L 277.10 316.19 L 278.23 322.63 L 279.41 329.11 L 280.63 335.45 L 281.95 341.84 L 283.04 348.19 L 284.30 354.55 L 285.40 361.01 L 286.67 367.38 L 287.86 373.89 L 289.05 380.20 L 290.19 386.66 L 291.56 392.92 L 292.62 399.39 L 293.90 405.87 L 295.03 412.15 L 296.33 418.69 L 297.56 425.03 L 298.68 431.40" fill="none" stroke="black" stroke-width="1"/>
  <path d="M 315.13 464.38 L 319.32 468.52 L 323.40 472.62 L 327.50 476.66 L 331.55 480.79 L 335.61 484.75 L 339.82 488.81 L 343.81 493.04 L 347.99 497.07" fill="none" stroke="black" stroke-width="1"/>
  <path d="M 347.88 497.08 L 351.27 492.24 L 354.48 487.20 L 357.70 482.40 L 361.09 477.44 L 364.36 472.57 L 367.60 467.62 L 370.88 462.62 L 374.29 457.76 L 377.59 452.79 L 380.80 447.95" fill="none" stroke="black" stroke-width="1"/>
  <path d="M 373.14 440.88 L 375.30 434.94" fill="none" stroke="black" stroke-width="1"/>
  <path d="M 365.35 454.86 L 363.22 460.79" fill="none" stroke="black" stroke-width="1"/>
  <path d="M 374.19 490.53 L 347.95 490.53" fill="none" stroke="black" stroke-width="1"/>
  <path d="M 321.71 490.53 L 347.95 490.53" fill="none" stroke="black" stroke-width="1"/>
  <path d="M 342.29 474.00 L 340.49 467.47" fill="none" stroke="black" stroke-width="1"/>
  <path d="M 344.59 465.02 L 351.48 464.06" fill="none" stroke="black" stroke-width="1"/>
  <path d="M 332.91 451.20 L 331.03 444.62" fill="none" stroke="black" stroke-width="1"/>
  <path d="M 323.12 434.62 L 320.85 428.64" fill="none" stroke="black" stroke-width="1"/>
  <path d="M 397.10 414.99 L 398.29 408.62 L 399.58 402.46 L 400.99 396.03 L 402.09 389.72 L 403.42 383.40 L 404.66 377.17 L 406.05 370.81 L 407.19 364.62 L 408.49 358.27 L 409.76 352.00 L 411.10 345.71 L 412.30 339.33 L 413.53 333.12 L 414.80 326.67 L 416.09 320.39 L 417.24 314.12 L 418.58 307.78 L 419.84 301.59 L 421.10 295.27 L 422.35 288.99 L 423.75 282.52 L 424.91 276.37 L 426.28 270.04 L 427.37 263.71 L 428.75 257.38 L 429.92 251.05 L 431.27 244.73 L 432.43 238.47 L 433.88 232.21 L 434.96 225.90 L 436.37 219.60 L 437.51 213.17 L 438.84 206.91 L 440.09 200.57 L 441.28 194.33 L 442.71 187.99 L 443.94 181.75 L 445.13 175.31 L 446.43 169.10" fill="none" stroke="black" stroke-width="1"/>
  <path d="M 397.17 169.13 L 397.86 169.14 L 398.36 169.31 L 398.57 169.44 L 398.87 169.53 L 398.88 169.59 L 398.98 169.76 L 398.91 169.84 L 398.99 170.00 L 399.07 170.17 L 399.20 170.23 L 399.49 170.42 L 399.91 170.44 L 400.66 170.45 L 401.40 170.60 L 402.66 170.73 L 403.97 170.71 L 405.98 170.75 L 407.92 170.76 L 410.70 170.67 L 413.55 170.72 L 417.57 170.71 L 421.42 170.56 L 426.48 170.44 L 431.54 170.28 L 437.45 170.07 L 443.37 169.92 L 449.81 169.69 L 456.36 169.49 L 460.81 169.31 L 465.54 169.24 L 469.98 169.04 L 474.50 168.81 L 479.06 168.65 L 483.68 168.58 L 488.02 168.52 L 492.54 168.32 L 496.92 168.16 L 503.12 168.06 L 509.15 167.79 L 514.55 167.75 L 519.84 167.52 L 524.14 167.48 L 528.44 167.36 L 531.77 167.30 L 535.03 167.32 L 537.57 167.41 L 540.23 167.37 L 542.15 167.46 L 544.27 167.49 L 545.75 167.63 L 547.41 167.66 L 548.58 167.75 L 549.89 167.87 L 550.95 168.02 L 551.96 168.11 L 552.83 168.15 L 553.86 168.35 L 554.85 168.44 L 555.85 168.59 L 556.93 168.72 L 558.16 168.82 L 559.61 168.82 L 561.05 169.00" fill="none" stroke="black" stroke-width="1"/>
  <path d="M 580.79 236.20 L 587.06 233.35" fill="none" stroke="black" stroke-width="1"/>
  <path d="M 580.76 251.13 L 574.29 251.42" fill="none" stroke="black" stroke-width="1"/>
  <path d="M 567.98 265.72 L 573.30 269.45" fill="none" stroke="black" stroke-width="1"/>
  <path d="M 565.82 276.83 L 562.44 271.54" fill="none" stroke="black" stroke-width="1"/>
  <path d="M 544.09 270.71 L 545.83 276.76" fill="none" stroke="black" stroke-width="1"/>
  <path d="M 569.30 286.85 L 565.65 281.15" fill="none" stroke="black" stroke-width="1"/>
  <path d="M 560.31 297.09 L 562.31 303.24" fill="none" stroke="black" stroke-width="1"/>
  <path d="M 562.28 303.39 L 559.90 297.36" fill="none" stroke="black" stroke-width="1"/>
  <path d="M 555.71 319.41 L 553.54 313.22" fill="none" stroke="black" stroke-width="1"/>
  <path d="M 544.78 349.48 L 543.59 342.97 L 542.37 336.66 L 541.33 330.24 L 539.99 323.67 L 538.86 317.29 L 537.79 310.75 L 536.48 304.34 L 535.38 298.02 L 534.24 291.52 L 532.95 285.02 L 531.90 278.57 L 530.72 272.09 L 529.50 265.81 L 528.36 259.25 L 527.19 252.94 L 526.02 246.47 L 524.83 239.94 L 523.57 233.59 L 522.40 227.12 L 521.33 220.55 L 520.20 214.23 L 518.93 207.81 L 517.69 201.35 L 516.64 194.82 L 515.35 188.46 L 514.26 181.99 L 513.11 175.48 L 511.88 169.08" fill="none" stroke="black" stroke-width="1"/>
  <path d="M 511.87 169.13 L 513.72 175.30 L 515.52 181.50 L 517.25 187.73 L 518.95 193.87 L 520.77 200.14 L 522.50 206.44 L 524.37 212.53 L 526.04 218.86 L 527.83 225.08 L 529.72 231.12 L 531.39 237.44 L 533.17 243.59 L 534.91 249.79 L 536.63 256.12 L 538.44 262.31 L 540.22 268.52 L 542.14 274.57 L 543.84 280.86 L 545.63 287.09 L 547.42 293.20 L 549.24 299.46 L 550.96 305.72 L 552.61 311.97 L 554.55 318.09 L 556.25 324.24 L 558.02 330.45 L 559.83 336.67 L 561.66 342.96 L 563.39 349.05 L 565.21 355.33 L 566.98 361.52 L 568.64 367.84 L 570.51 374.02 L 572.15 380.08 L 574.09 386.39 L 575.80 392.67 L 577.57 398.78" fill="none" stroke="black" stroke-width="1"/>
  <path d="M 577.64 398.70 L 579.41 392.45 L 581.13 386.31 L 582.91 380.01 L 584.83 373.94 L 586.57 367.75 L 588.20 361.51 L 590.03 355.35 L 591.86 349.06 L 593.65 342.92 L 595.46 336.67 L 597.15 330.52 L 598.83 324.23 L 600.66 317.98 L 602.40 311.81 L 604.29 305.56 L 605.95 299.46 L 607.71 293.18 L 609.65 287.08 L 611.40 280.75 L 613.20 274.61 L 614.97 268.43 L 616.58 262.18 L 618.32 256.05 L 620.19 249.85 L 621.92 243.70 L 623.73 237.40 L 625.43 231.11 L 627.30 225.03 L 629.08 218.84 L 630.75 212.66 L 632.67 206.41 L 634.33 200.21 L 636.11 194.01 L 637.85 187.68 L 639.74 181.53 L 641.42 175.36 L 643.24 169.16" fill="none" stroke="black" stroke-width="1"/>
  <path d="M 675.91 169.11 L 669.40 169.04 L 662.75 169.18 L 656.15 169.19 L 649.64 169.04 L 643.19 169.11 L 636.65 169.07 L 629.93 169.19 L 623.50 169.18 L 616.88 169.08 L 610.31 169.07 L 603.72 169.13 L 597.21 169.14 L 590.74 169.06 L 584.01 169.20 L 577.45 169.15 L 570.98 169.15 L 564.45 169.07 L 557.88 169.07 L 551.34 169.08 L 544.75 169.08 L 538.20 169.09 L 531.57 169.03 L 525.07 169.11 L 518.49 169.14 L 511.87 169.02 L 505.40 169.11 L 498.83 169.20 L 492.25 169.15 L 485.61 169.20 L 479.21 169.09 L 472.49 169.08 L 466.01 169.02 L 459.42 169.02 L 452.83 169.18 L 446.41 169.19 L 439.78 169.13 L 433.13 169.12 L 426.63 169.03 L 420.16 169.17 L 413.56 169.06 L 406.95 169.08 L 400.39 169.18 L 393.96 169.10 L 387.35 169.13 L 380.81 169.02 L 374.13 169.16 L 367.63 169.13 L 361.01 169.06 L 354.50 169.09 L 347.94 169.17 L 341.31 169.03 L 334.81 169.18 L 328.35 169.01 L 321.64 169.17 L 315.10 169.02 L 308.68 169.15 L 302.02 169.20 L 295.41 169.14 L 288.91 169.16 L 282.27 169.18 L 275.83 169.20 L 269.24 169.18 L 262.63 169.02 L 256.08 169.15 L 249.60 169.07 L 243.01 169.10 L 236.52 169.11 L 229.87 169.19 L 223.39 169.07 L 216.76 169.12 L 210.23 169.17 L 203.74 169.07 L 197.11 169.18 L 190.60 169.15 L 183.90 169.03 L 177.48 169.18 L 170.84 169.09 L 164.23 169.05 L 157.82 169.02 L 151.09 169.15 L 144.55 169.19 L 138.12 169.16 L 131.52 169.16 L 124.88 169.11 L 118.42 169.00 L 111.75 169.18 L 105.23 169.17 L 98.77 169.14 L 92.24 169.02 L 85.61 169.10 L 79.05 169.16 L 72.44 169.17 L 65.82 169.10 L 59.37 169.03 L 52.73 169.03 L 46.18 169.01 L 39.63 169.03 L 33.13 169.10 L 26.60 169.12 L 20.00 169.10" fill="none" stroke="black" stroke-width="1"/>
  <path d="M 52.77 169.18 L 54.42 175.42 L 55.87 181.68 L 57.50 187.85 L 59.03 194.13 L 60.58 200.45 L 62.12 206.73 L 63.66 212.82 L 65.20 219.16 L 66.90 225.45 L 68.48 231.72 L 70.02 237.80 L 71.59 244.13 L 73.07 250.44 L 74.65 256.58 L 76.24 262.75 L 77.77 269.07 L 79.44 275.39 L 80.89 281.62 L 82.45 287.91 L 84.00 294.03 L 85.50 300.40 L 87.14 306.50 L 88.72 312.85 L 90.31 319.00 L 91.78 325.30 L 93.47 331.56 L 95.02 337.82 L 96.44 344.10 L 98.04 350.18 L 99.67 356.51 L 101.25 362.74 L 102.81 368.94 L 104.31 375.26 L 105.91 381.56 L 107.55 387.78 L 109.03 393.93 L 110.64 400.14 L 112.13 406.39 L 113.77 412.73 L 115.29 418.92 L 116.85 425.09 L 118.42 431.43" fill="none" stroke="black" stroke-width="1"/>
  <path d="M 118.42 431.47 L 119.98 425.17 L 121.63 418.99 L 123.16 412.77 L 124.58 406.42 L 126.31 400.21 L 127.74 393.92 L 129.34 387.83 L 130.84 381.58 L 132.49 375.28 L 134.01 369.01 L 135.57 362.70 L 137.08 356.58 L 138.76 350.37 L 140.32 344.11 L 141.88 337.78 L 143.47 331.47 L 144.93 325.29 L 146.57 319.02 L 148.09 312.84 L 149.58 306.54 L 151.27 300.34 L 152.74 294.02 L 154.25 287.88 L 155.87 281.57 L 157.49 275.42 L 159.06 269.12 L 160.54 262.82 L 162.18 256.51 L 163.66 250.35 L 165.30 244.04 L 166.93 237.82 L 168.33 231.56 L 170.02 225.39 L 171.46 219.05 L 173.07 212.81 L 174.62 206.54 L 176.27 200.45 L 177.76 194.20 L 179.31 187.83 L 180.85 181.58 L 182.44 175.44 L 184.01 169.15" fill="none" stroke="black" stroke-width="1"/>
  <path d="M 190.57 169.09 L 193.46 174.64 L 196.38 180.06 L 199.22 185.48 L 202.27 190.95 L 205.08 196.49 L 207.93 201.94 L 210.94 207.39 L 213.82 212.81 L 216.68 218.35" fill="none" stroke="black" stroke-width="1"/>
  <path d="M 216.68 218.29 L 219.58 212.89 L 222.61 207.32 L 225.40 201.85 L 228.35 196.48 L 231.40 190.93 L 234.20 185.52 L 237.12 179.95 L 240.16 174.50 L 243.05 169.03" fill="none" stroke="black" stroke-width="1"/>
  <path d="M 243.02 169.14 L 243.15 167.43 L 243.14 165.79 L 243.32 164.14 L 243.44 162.32 L 243.63 160.61 L 243.85 158.79 L 244.04 157.10 L 244.29 155.24 L 244.48 153.56 L 244.67 151.72 L 244.85 150.05 L 244.92 148.29 L 244.91 146.65 L 244.97 144.98 L 244.82 143.49 L 244.72 141.86 L 244.49 140.42 L 244.10 138.96 L 243.62 137.67 L 243.04 136.35 L 242.30 135.13 L 241.47 134.04 L 240.49 133.02 L 239.46 132.01 L 238.19 131.07 L 237.09 130.20 L 235.69 129.30 L 234.42 128.58 L 233.00 127.85 L 231.54 127.09 L 230.12 126.45 L 228.53 125.68 L 227.07 124.98 L 225.47 124.30 L 223.86 123.59 L 222.44 122.91 L 220.94 122.22 L 219.50 121.45 L 218.17 120.70 L 216.76 119.87" fill="none" stroke="black" stroke-width="1"/>
  <path d="M 216.83 119.82 L 215.35 124.15 L 214.07 128.54 L 212.69 133.25 L 211.13 138.08 L 209.57 143.12 L 208.09 148.07 L 206.56 153.07 L 205.01 158.18 L 203.44 163.02 L 202.00 168.05 L 200.52 172.69 L 199.11 177.36 L 197.75 181.54 L 196.43 185.74 L 195.15 189.37 L 194.05 192.86 L 193.12 195.52 L 192.03 198.36 L 191.30 200.13 L 190.47 201.92 L 190.02 202.63 L 189.40 203.29 L 189.13 203.04 L 188.79 202.70 L 188.73 201.62 L 188.55 200.51 L 188.62 198.81 L 188.59 197.05 L 188.63 194.78 L 188.85 192.67 L 189.04 190.28 L 189.24 187.71 L 189.45 185.06 L 189.69 182.53 L 189.82 179.95 L 190.10 177.46 L 190.32 175.25 L 190.41 172.85 L 190.51 170.87 L 190.54 169.05" fill="none" stroke="black" stroke-width="1"/>
  <path d="M 190.57 163.85 L 196.98 161.61" fill="none" stroke="black" stroke-width="1"/>
  <path d="M 200.44 169.05 L 202.80 174.69 L 205.15 180.23 L 207.45 185.92 L 209.71 191.55 L 212.06 197.05 L 214.47 202.74 L 216.72 208.36" fill="none" stroke="black" stroke-width="1"/>
  <path d="M 216.69 208.47 L 219.12 202.88 L 221.38 197.13 L 223.66 191.62 L 226.19 185.98 L 228.42 180.37 L 230.88 174.73 L 233.17 169.10" fill="none" stroke="black" stroke-width="1"/>
  <path d="M 233.09 169.05 L 233.18 167.66 L 233.18 166.38 L 233.18 164.98 L 233.38 163.61 L 233.58 162.13 L 233.65 160.79 L 233.73 159.42 L 233.94 157.96 L 234.15 156.63 L 234.19 155.15 L 234.29 153.76 L 234.37 152.41 L 234.46 151.11 L 234.40 149.78 L 234.41 148.53 L 234.26 147.29 L 233.98 146.04 L 233.89 144.98 L 233.47 143.87 L 233.23 142.89 L 232.73 141.98 L 232.26 141.05 L 231.55 140.31 L 231.01 139.44 L 230.21 138.71 L 229.53 138.01 L 228.60 137.27 L 227.86 136.72 L 226.91 136.21 L 226.07 135.53 L 225.05 134.94 L 224.19 134.41 L 223.27 133.92 L 222.28 133.32 L 221.28 132.85 L 220.38 132.22 L 219.50 131.71 L 218.55 131.06 L 217.73 130.36 L 216.84 129.81" fill="none" stroke="black" stroke-width="1"/>
  <path d="M 216.70 129.65 L 215.88 133.14 L 214.99 136.64 L 214.12 140.46 L 213.16 144.28 L 212.22 148.28 L 211.27 152.28 L 210.37 156.36 L 209.37 160.37 L 208.41 164.34 L 207.49 168.28 L 206.62 172.10 L 205.70 175.73 L 204.90 179.13 L 204.04 182.45 L 203.34 185.23 L 202.56 188.15 L 202.03 190.45 L 201.30 192.57 L 200.78 193.99 L 200.33 195.42 L 199.99 195.99 L 199.67 196.52 L 199.38 196.36 L 199.28 196.06 L 199.17 195.19 L 199.12 194.31 L 199.11 192.93 L 199.14 191.55 L 199.19 189.89 L 199.30 188.05 L 199.33 186.02 L 199.53 184.09 L 199.64 182.05 L 199.80 179.95 L 200.01 177.89 L 200.05 175.90 L 200.12 173.97 L 200.24 172.22 L 200.23 170.67 L 200.31 169.19" fill="none" stroke="black" stroke-width="1"/>
  <path d="M 194.92 182.34 L 192.99 188.50" fill="none" stroke="black" stroke-width="1"/>
  <path d="M 193.81 195.41 L 195.30 189.26 L 196.55 183.19 L 198.09 177.14 L 199.44 171.01 L 200.89 164.99 L 202.15 158.88 L 203.62 152.70" fill="none" stroke="black" stroke-width="1"/>
  <path d="M 194.88 144.91 L 199.90 141.00" fill="none" stroke="black" stroke-width="1"/>
  <path d="M 183.92 152.65 L 184.84 158.75 L 185.62 165.01 L 186.50 171.18 L 187.35 177.35 L 187.99 183.57 L 188.95 189.67 L 189.67 195.74 L 190.59 201.97" fill="none" stroke="black" stroke-width="1"/>
  <path d="M 196.96 205.13 L 197.58 198.13" fill="none" stroke="black" stroke-width="1"/>
  <path d="M 242.92 201.85 L 243.65 195.74 L 244.49 189.64 L 245.34 183.36 L 246.14 177.25 L 247.07 171.04 L 247.89 165.01 L 248.62 158.78 L 249.46 152.66" fill="none" stroke="black" stroke-width="1"/>
  <path d="M 249.57 119.82 L 244.00 117.17 L 238.57 114.46 L 233.11 111.68 L 227.69 108.90 L 222.27 106.36 L 216.72 103.57" fill="none" stroke="black" stroke-width="1"/>
  <path d="M 206.92 103.86 L 200.44 103.18" fill="none" stroke="black" stroke-width="1"/>
  <path d="M 182.73 94.07 L 184.95 100.06" fill="none" stroke="black" stroke-width="1"/>
  <path d="M 177.72 93.83 L 177.41 87.55" fill="none" stroke="black" stroke-width="1"/>
  <path d="M 152.16 90.66 L 149.89 96.58" fill="none" stroke="black" stroke-width="1"/>
  <path d="M 134.76 93.58 L 128.64 94.80 L 122.35 96.01 L 116.33 97.27 L 110.08 98.47 L 103.92 99.70 L 97.84 100.95 L 91.73 102.10 L 85.48 103.43" fill="none" stroke="black" stroke-width="1"/>
  <path d="M 72.41 102.95 L 65.69 103.90" fill="none" stroke="black" stroke-width="1"/>
  <path d="M 42.97 77.42 L 49.74 76.85" fill="none" stroke="black" stroke-width="1"/>
  <path d="M 49.51 83.37 L 55.96 83.53" fill="none" stroke="black" stroke-width="1"/>
  <path d="M 75.95 81.82 L 81.96 79.91" fill="none" stroke="black" stroke-width="1"/>
  <path d="M 82.32 88.02 L 88.70 86.26" fill="none" stroke="black" stroke-width="1"/>
  <path d="M 104.99 86.43 L 98.58 87.49" fill="none" stroke="black" stroke-width="1"/>
  <path d="M 114.25 82.00 L 108.96 86.14" fill="none" stroke="black" stroke-width="1"/>
  <path d="M 120.94 88.00 L 115.72 92.46" fill="none" stroke="black" stroke-width="1"/>
  <path d="M 146.13 84.15 L 143.16 89.89" fill="none" stroke="black" stroke-width="1"/>
  <path d="M 180.64 110.94 L 187.34 109.20" fill="none" stroke="black" stroke-width="1"/>
  <path d="M 203.65 110.14 L 208.03 113.38 L 212.41 116.61 L 216.74 119.84" fill="none" stroke="black" stroke-width="1"/>
  <path d="M 216.73 119.80 L 221.08 116.67 L 225.60 113.45 L 229.90 110.14" fill="none" stroke="black" stroke-width="1"/>
  <path d="M 230.63 94.76 L 235.64 98.92" fill="none" stroke="black" stroke-width="1"/>
  <path d="M 252.80 97.39 L 246.17 96.97" fill="none" stroke="black" stroke-width="1"/>
  <path d="M 266.60 51.30 L 264.98 57.27" fill="none" stroke="black" stroke-width="1"/>
  <path d="M 282.36 80.55 L 288.43 81.28 L 294.68 82.16 L 300.74 82.98 L 306.85 83.81 L 313.02 84.76 L 319.23 85.53 L 325.38 86.33 L 331.47 87.16" fill="none" stroke="black" stroke-width="1"/>
  <path d="M 313.69 40.67 L 316.65 34.80" fill="none" stroke="black" stroke-width="1"/>
  <path d="M 378.76 46.74 L 382.81 41.62" fill="none" stroke="black" stroke-width="1"/>
  <path d="M 377.49 77.72 L 383.70 77.35" fill="none" stroke="black" stroke-width="1"/>
  <path d="M 443.13 90.63 L 449.87 89.79" fill="none" stroke="black" stroke-width="1"/>
  <path d="M 460.26 23.52 L 465.26 20.00" fill="none" stroke="black" stroke-width="1"/>
  <path d="M 541.91 33.01 L 547.94 29.73" fill="none" stroke="black" stroke-width="1"/>
  <path d="M 629.80 83.32 L 623.16 84.31" fill="none" stroke="black" stroke-width="1"/>
  <path d="M 577.48 100.18 L 571.55 99.78 L 565.58 99.58 L 559.60 99.29 L 553.62 98.95 L 547.62 98.76 L 541.74 98.45 L 535.72 98.03 L 529.80 97.81 L 523.79 97.51 L 517.92 97.12 L 511.94 96.84" fill="none" stroke="black" stroke-width="1"/>
  <path d="M 557.59 106.58 L 564.45 106.93" fill="none" stroke="black" stroke-width="1"/>
  <path d="M 511.95 169.09 L 577.55 398.69" fill="none" stroke="black" stroke-width="1"/>
  <path d="M 577.55 398.69 L 643.15 169.09" fill="none" stroke="black" stroke-width="1"/>
  <path d="M 643.08 169.06 L 642.05 175.37 L 640.84 181.66 L 639.73 188.17 L 638.74 194.44 L 637.70 200.87 L 636.62 207.06 L 635.42 213.50 L 634.39 219.74 L 633.17 226.08 L 632.22 232.41 L 631.09 238.81 L 629.90 245.20 L 628.84 251.57 L 627.81 257.79 L 626.64 264.26 L 625.56 270.53 L 624.51 276.89 L 623.40 283.16 L 622.24 289.58 L 621.18 296.02 L 620.11 302.38 L 618.97 308.67 L 617.91 314.90 L 616.93 321.24 L 615.70 327.59 L 614.71 334.09 L 613.58 340.27 L 612.52 346.62 L 611.50 353.10 L 610.32 359.39" fill="none" stroke="black" stroke-width="1"/>
  <path d="M 594.88 366.38 L 592.80 372.60" fill="none" stroke="black" stroke-width="1"/>
  <path d="M 580.60 372.29 L 574.02 372.16" fill="none" stroke="black" stroke-width="1"/>
  <path d="M 562.11 369.06 L 560.45 362.91" fill="none" stroke="black" stroke-width="1"/>
  <path d="M 557.87 392.13 L 577.55 388.85" fill="none" stroke="black" stroke-width="1"/>
  <path d="M 577.55 388.85 L 597.23 392.13" fill="none" stroke="black" stroke-width="1"/>
  <path d="M 613.23 528.74 L 606.93 530.56" fill="none" stroke="black" stroke-width="1"/>
  <path d="M 416.74 578.54 L 410.51 580.00" fill="none" stroke="black" stroke-width="1"/>
</svg>