<svg xmlns="http://www.w3.org/2000/svg" width="800" height="600" viewBox="0 0 800 600">
  <rect width="100%" height="100%" fill="white"/>
  <path d="M 108.16 464.81 L 111.65 459.51" fill="none" stroke="black" stroke-width="1"/>
  <path d="M 112.90 463.03 L 106.91 461.33" fill="none" stroke="black" stroke-width="1"/>
  <path d="M 109.84 462.20 L 115.77 463.39 L 121.70 464.52 L 127.76 465.79 L 133.71 466.97 L 139.59 468.14 L 145.68 469.29 L 151.47 470.49 L 157.55 471.66 L 163.45 472.89 L 169.45 474.13 L 175.41 475.21 L 181.35 476.37 L 187.30 477.61" fill="none" stroke="black" stroke-width="1"/>
  <path d="M 159.26 487.80 L 153.38 485.97" fill="none" stroke="black" stroke-width="1"/>
  <path d="M 135.73 487.78 L 140.00 492.25" fill="none" stroke="black" stroke-width="1"/>
  <path d="M 140.76 493.12 L 139.18 490.00 L 137.67 486.93 L 136.04 483.77 L 134.58 480.74 L 133.09 477.67 L 131.50 474.54 L 129.92 471.46 L 128.41 468.35 L 126.93 465.21 L 125.32 462.15 L 123.76 459.14 L 122.23 455.96 L 120.61 452.94 L 119.14 449.76 L 117.67 446.69 L 116.06 443.57 L 114.42 440.40 L 112.97 437.38 L 111.42 434.32 L 109.88 431.20 L 108.36 428.07 L 106.79 425.01 L 105.20 421.90 L 103.70 418.84 L 102.18 415.66 L 100.60 412.66 L 99.03 409.61 L 97.51 406.48 L 95.95 403.39 L 94.42 400.31 L 92.85 397.22 L 91.33 394.14 L 89.76 391.10 L 88.24 387.96 L 86.66 384.94 L 85.15 381.79 L 83.54 378.62 L 82.05 375.62 L 80.49 372.44 L 78.96 369.44" fill="none" stroke="black" stroke-width="1"/>
  <path d="M 78.96 369.37 L 81.53 374.53 L 84.11 379.69 L 86.69 384.85 L 89.27 390.00 L 91.85 395.16 L 94.43 400.32 L 97.01 405.48 L 99.59 410.63 L 102.16 415.79 L 104.74 420.95 L 107.32 426.11 L 109.90 431.27 L 112.48 436.42 L 115.06 441.58 L 117.64 446.74 L 120.22 451.90 L 122.80 457.05 L 125.37 462.21 L 127.95 467.37 L 130.53 472.53 L 133.11 477.68 L 135.69 482.84 L 138.27 488.00 L 140.85 493.16" fill="none" stroke="black" stroke-width="1"/>
  <path d="M 140.85 493.16 L 142.04 486.61 L 143.07 479.90 L 143.99 473.09 L 144.86 466.22 L 145.73 459.35 L 146.65 452.54 L 147.68 445.83 L 148.87 439.29 L 150.28 432.96 L 151.95 426.90 L 153.95 421.16 L 156.32 415.79 L 159.10 410.84 L 162.27 406.26 L 165.75 402.01 L 169.50 398.03 L 173.47 394.26 L 177.60 390.65 L 181.83 387.15 L 186.12 383.70 L 190.41 380.25 L 194.64 376.75 L 198.77 373.14 L 202.74 369.37" fill="none" stroke="black" stroke-width="1"/>
  <path d="M 202.83 369.43 L 200.49 371.76 L 198.04 373.92 L 195.47 376.11 L 193.04 378.19 L 190.42 380.25 L 187.92 382.33 L 185.32 384.43 L 182.76 386.45 L 180.27 388.61 L 177.67 390.63 L 175.19 392.75 L 172.73 394.96 L 170.39 397.22 L 168.04 399.54 L 165.88 402.06 L 163.69 404.47 L 161.73 407.08 L 159.77 409.83 L 158.15 412.78 L 156.38 415.72 L 155.06 418.87 L 153.57 422.20 L 152.47 425.77 L 151.29 429.21 L 150.28 432.85 L 149.45 436.65 L 148.70 440.49 L 147.94 444.44 L 147.37 448.53 L 146.69 452.47 L 146.22 456.64 L 145.58 460.66 L 144.98 464.76 L 144.54 468.92 L 144.08 472.94 L 143.47 477.14 L 142.89 481.21 L 142.28 485.24 L 141.49 489.11 L 140.86 493.12" fill="none" stroke="black" stroke-width="1"/>
  <path d="M 141.37 493.80 L 146.04 498.01" fill="none" stroke="black" stroke-width="1"/>
  <path d="M 146.98 499.32 L 142.91 495.22 L 138.80 491.06 L 134.69 487.03" fill="none" stroke="black" stroke-width="1"/>
  <path d="M 140.77 480.82 L 136.72 476.75 L 132.60 472.62 L 128.52 468.46" fill="none" stroke="black" stroke-width="1"/>
  <path d="M 153.26 468.45 L 151.25 464.27 L 149.06 460.30 L 147.03 456.10" fill="none" stroke="black" stroke-width="1"/>
  <path d="M 165.57 452.87 L 160.00 451.90 L 154.54 450.77 L 149.10 449.88 L 143.49 448.71 L 138.07 447.81 L 132.49 446.69 L 127.09 445.69 L 121.53 444.64 L 116.03 443.68" fill="none" stroke="black" stroke-width="1"/>
  <path d="M 123.66 418.62 L 126.60 413.39" fill="none" stroke="black" stroke-width="1"/>
  <path d="M 122.87 413.97 L 127.87 417.62" fill="none" stroke="black" stroke-width="1"/>
  <path d="M 156.32 415.83 L 159.34 411.12 L 162.44 406.58" fill="none" stroke="black" stroke-width="1"/>
  <path d="M 152.05 391.33 L 148.37 396.31" fill="none" stroke="black" stroke-width="1"/>
  <path d="M 142.15 397.45 L 139.11 402.93" fill="none" stroke="black" stroke-width="1"/>
  <path d="M 133.47 409.31 L 136.39 403.95" fill="none" stroke="black" stroke-width="1"/>
  <path d="M 137.35 404.98 L 131.97 408.04" fill="none" stroke="black" stroke-width="1"/>
  <path d="M 127.16 390.60 L 130.01 385.51" fill="none" stroke="black" stroke-width="1"/>
  <path d="M 123.59 391.44 L 121.07 397.21" fill="none" stroke="black" stroke-width="1"/>
  <path d="M 116.39 397.01 L 115.93 403.54" fill="none" stroke="black" stroke-width="1"/>
  <path d="M 118.17 402.61 L 114.01 398.03" fill="none" stroke="black" stroke-width="1"/>
  <path d="M 48.06 261.07 L 54.29 261.09 L 60.45 261.08 L 66.58 261.01 L 72.76 260.98 L 78.94 261.01 L 85.20 261.01 L 91.29 261.07 L 97.53 261.14 L 103.78 261.13 L 109.96 261.07 L 116.22 261.00 L 122.37 261.11 L 128.47 261.14 L 134.62 261.15 L 140.92 260.98 L 147.01 261.08 L 153.28 261.13 L 159.50 261.12 L 165.57 261.16 L 171.74 261.12 L 178.09 261.00 L 184.14 261.02 L 190.38 261.06 L 196.64 261.15 L 202.70 261.00 L 209.01 261.12 L 215.16 261.14 L 221.42 261.05 L 227.54 261.14 L 233.70 261.09 L 239.95 261.05 L 246.07 261.16 L 252.34 261.08 L 258.46 261.07 L 264.68 261.05 L 270.80 261.12 L 276.97 261.00 L 283.21 261.15 L 289.43 261.17 L 295.50 261.15 L 301.77 261.13 L 307.90 261.11 L 314.14 261.17 L 320.42 261.12 L 326.48 261.00 L 332.65 261.14 L 338.98 260.99 L 345.08 261.15 L 351.21 261.01 L 357.46 261.14 L 363.65 261.07 L 369.79 261.03 L 376.04 261.10 L 382.17 261.13 L 388.47 261.00 L 394.65 261.10 L 400.88 261.07 L 406.95 261.15 L 413.13 261.05 L 419.37 261.03 L 425.60 261.14 L 431.70 261.00 L 437.83 261.09 L 444.11 261.10 L 450.36 261.16 L 456.42 261.15 L 462.64 260.99 L 468.86 261.00 L 474.97 261.06 L 481.31 261.07 L 487.35 261.17 L 493.61 261.12 L 499.82 261.17 L 506.03 261.08 L 512.13 261.00 L 518.37 261.11 L 524.58 261.09 L 530.72 261.00 L 536.96 261.06 L 543.15 261.05 L 549.36 261.05 L 555.53 261.04 L 561.74 261.05 L 567.90 261.12 L 574.00 261.12 L 580.18 261.17 L 586.54 261.03 L 592.64 261.11 L 598.78 261.10 L 605.00 261.05 L 611.20 261.06 L 617.45 261.15 L 623.51 261.16 L 629.85 261.05 L 636.02 261.08 L 642.11 261.01 L 648.25 261.16 L 654.48 261.15 L 660.75 261.01 L 666.90 261.09" fill="none" stroke="black" stroke-width="1"/>
  <path d="M 608.18 214.54 L 602.08 214.90" fill="none" stroke="black" stroke-width="1"/>
  <path d="M 561.71 208.30 L 555.38 208.76" fill="none" stroke="black" stroke-width="1"/>
  <path d="M 636.01 251.73 L 634.51 251.97 L 632.90 252.04 L 631.38 252.21 L 629.80 252.34 L 628.24 252.58 L 626.70 252.64 L 625.06 252.88 L 623.59 252.95 L 622.07 253.10 L 620.49 253.25 L 618.97 253.40 L 617.38 253.56 L 615.83 253.67 L 614.28 253.86 L 612.80 253.98 L 611.18 254.17 L 609.59 254.34 L 608.08 254.48 L 606.54 254.59 L 604.98 254.78 L 603.41 254.87 L 601.88 255.09 L 600.35 255.17 L 598.78 255.40 L 597.22 255.58 L 595.69 255.72 L 594.06 255.83 L 592.59 256.03 L 591.03 256.27 L 589.50 256.34 L 587.92 256.51 L 586.40 256.66 L 584.77 256.89 L 583.31 256.97 L 581.68 257.05 L 580.22 257.28 L 578.72 257.37 L 577.12 257.60 L 575.49 257.83 L 574.03 257.91" fill="none" stroke="black" stroke-width="1"/>
  <path d="M 558.70 262.86 L 557.47 262.88 L 556.20 262.78 L 555.01 262.67 L 553.68 262.69 L 552.33 262.70 L 551.14 262.61 L 549.80 262.60 L 548.61 262.53 L 547.31 262.48 L 546.07 262.44 L 544.83 262.41 L 543.56 262.36 L 542.23 262.26 L 541.07 262.27 L 539.80 262.15 L 538.61 262.18 L 537.47 262.20 L 536.20 262.09 L 535.08 262.03 L 533.84 262.00 L 532.72 261.97 L 531.54 261.91 L 530.36 261.82 L 529.30 261.81 L 528.28 261.76 L 527.10 261.71 L 526.11 261.70 L 524.93 261.60 L 523.86 261.59 L 522.79 261.50 L 521.69 261.45 L 520.67 261.39 L 519.58 261.27 L 518.55 261.29 L 517.43 261.28 L 516.43 261.18 L 515.30 261.05 L 514.29 261.08 L 513.23 260.96 L 512.14 260.98" fill="none" stroke="black" stroke-width="1"/>
  <path d="M 499.81 233.15 L 493.57 233.42" fill="none" stroke="black" stroke-width="1"/>
  <path d="M 468.63 210.55 L 462.81 212.42" fill="none" stroke="black" stroke-width="1"/>
  <path d="M 428.72 205.43 L 425.64 210.63 L 422.34 215.67 L 419.28 220.87" fill="none" stroke="black" stroke-width="1"/>
  <path d="M 416.33 220.84 L 422.60 220.87" fill="none" stroke="black" stroke-width="1"/>
  <path d="M 420.90 218.14 L 417.83 223.51" fill="none" stroke="black" stroke-width="1"/>
  <path d="M 388.49 263.57 L 386.85 263.57 L 385.38 263.45 L 383.78 263.44 L 382.27 263.33 L 380.74 263.30 L 379.15 263.21 L 377.67 263.13 L 376.04 263.09 L 374.41 262.98 L 372.93 262.98 L 371.40 263.00 L 369.81 262.86 L 368.34 262.78 L 366.70 262.74 L 365.18 262.68 L 363.60 262.62 L 362.13 262.61 L 360.49 262.50 L 358.99 262.50 L 357.39 262.38 L 355.89 262.29 L 354.29 262.26 L 352.75 262.28 L 351.20 262.13 L 349.70 262.08 L 348.11 262.01 L 346.50 261.87 L 345.02 261.89 L 343.57 261.87 L 341.93 261.76 L 340.45 261.76 L 338.84 261.64 L 337.33 261.65 L 335.76 261.51 L 334.17 261.43 L 332.67 261.39 L 331.08 261.26 L 329.59 261.26 L 328.12 261.29 L 326.50 261.14" fill="none" stroke="black" stroke-width="1"/>
  <path d="M 354.35 227.29 L 360.50 226.65" fill="none" stroke="black" stroke-width="1"/>
  <path d="M 314.05 217.16 L 308.08 218.25" fill="none" stroke="black" stroke-width="1"/>
  <path d="M 315.89 180.85 L 314.35 179.30 L 312.80 180.85 L 314.35 182.40 L 315.89 180.85" fill="none" stroke="black" stroke-width="1"/>
  <path d="M 318.93 174.45 L 317.38 176.00 L 315.83 174.45 L 317.38 172.91 L 318.93 174.45" fill="none" stroke="black" stroke-width="1"/>
  <path d="M 326.51 171.21 L 325.44 173.46 L 324.50 175.25 L 323.59 177.44" fill="none" stroke="black" stroke-width="1"/>
  <path d="M 320.27 183.45 L 317.52 182.46 L 314.98 181.38 L 312.56 180.78 L 309.67 179.57 L 307.33 178.49 L 304.66 177.72" fill="none" stroke="black" stroke-width="1"/>
  <path d="M 305.03 177.34 L 307.76 178.19 L 309.92 179.68 L 312.89 180.44 L 315.04 181.76 L 317.70 182.55 L 320.28 183.70" fill="none" stroke="black" stroke-width="1"/>
  <path d="M 320.38 183.57 L 318.08 181.68 L 316.14 179.85 L 313.77 178.33 L 311.65 176.23 L 309.29 174.47 L 307.45 172.80 L 305.06 171.15" fill="none" stroke="black" stroke-width="1"/>
  <path d="M 304.68 171.09 L 303.80 173.26 L 302.51 175.39 L 301.58 177.66" fill="none" stroke="black" stroke-width="1"/>
  <path d="M 310.95 168.44 L 309.03 170.91 L 307.49 173.55 L 305.85 176.02 L 303.88 178.47 L 302.43 181.09 L 300.35 183.44 L 298.58 185.93 L 297.11 188.42 L 295.01 190.99 L 293.60 193.62 L 291.78 196.06 L 289.98 198.21 L 288.06 200.68 L 286.35 203.57 L 284.89 206.11 L 283.05 208.22 L 281.47 210.90 L 279.59 213.31 L 277.60 215.78 L 276.05 218.59 L 274.39 220.63 L 272.36 223.14 L 270.78 225.83 L 269.20 228.49 L 267.47 230.66 L 265.55 233.61 L 263.83 235.74 L 262.23 238.71 L 260.15 241.24 L 258.58 243.80 L 256.71 245.88 L 255.02 248.66 L 253.32 251.16 L 251.54 253.93 L 249.70 256.11 L 247.80 258.95 L 246.42 261.52 L 244.53 263.84 L 242.91 266.46 L 240.81 268.87 L 239.42 271.31 L 237.42 274.00 L 235.74 276.70 L 234.03 278.84 L 232.27 281.76 L 230.31 284.31 L 228.77 286.77 L 226.71 289.09 L 225.16 291.71 L 223.31 294.39 L 221.51 296.41 L 219.88 299.09 L 218.10 301.76 L 216.58 304.10 L 214.70 306.38 L 212.97 308.79 L 211.70 311.48 L 209.99 314.00 L 208.11 316.38 L 206.58 319.10 L 204.51 321.52 L 203.12 323.70 L 201.02 326.31 L 199.68 328.69 L 198.06 331.40 L 196.37 333.97 L 194.29 336.14 L 192.89 338.73 L 190.92 341.24 L 189.52 343.69 L 187.38 346.20 L 185.86 348.37 L 184.37 351.17 L 182.54 353.59 L 180.64 356.09 L 179.27 358.51 L 177.37 360.98 L 175.61 363.30 L 173.82 366.09 L 172.26 368.55 L 170.58 370.86 L 168.81 373.56 L 166.92 375.77 L 165.49 378.40 L 163.42 380.93 L 161.73 383.27 L 160.29 385.92 L 158.27 388.57 L 156.40 390.88 L 154.81 393.76 L 153.08 396.04 L 151.35 398.54 L 149.46 401.20 L 147.94 403.60 L 146.13 406.02 L 144.75 408.77 L 142.88 410.85 L 141.11 413.63 L 139.37 416.28 L 137.54 418.58 L 135.98 421.13 L 134.12 423.55 L 132.51 426.05 L 130.66 428.56 L 128.99 431.06 L 127.09 433.84 L 125.28 436.40 L 123.49 438.50 L 121.77 441.25 L 119.83 443.87 L 118.16 446.44 L 116.34 449.02 L 114.90 451.17 L 113.15 453.89 L 111.38 456.24 L 109.71 459.07 L 107.52 461.70 L 106.20 464.24 L 104.28 466.30 L 102.19 469.00 L 100.52 471.45 L 98.66 474.01 L 97.35 476.56 L 95.20 479.23 L 93.72 481.70 L 92.00 484.19 L 90.28 487.05 L 88.31 489.34 L 86.79 491.92 L 84.88 494.22 L 83.16 496.70 L 81.31 498.92 L 79.83 501.60 L 78.13 504.15 L 76.06 506.44 L 74.32 508.70 L 72.54 511.10 L 70.91 513.71 L 69.12 516.04 L 67.51 518.82 L 65.67 521.02 L 63.94 523.55 L 62.45 525.99 L 60.69 528.64 L 58.65 530.95 L 57.11 533.42 L 55.35 535.92 L 53.57 538.24 L 51.69 540.72 L 50.01 542.91 L 48.03 545.81 L 46.00 548.17 L 44.29 550.41 L 42.63 552.82 L 40.52 555.39 L 39.07 557.82 L 36.83 560.39 L 35.24 562.98 L 33.30 565.04 L 31.65 567.82 L 29.71 570.15 L 27.59 572.07 L 26.07 574.04 L 23.98 576.10 L 21.96 577.98 L 20.00 579.98 L 21.18 577.34 L 21.97 574.89 L 23.34 571.97 L 24.56 569.54 L 25.45 566.88 L 26.60 564.33 L 28.12 561.39 L 29.66 559.17 L 30.87 556.49 L 32.47 553.68 L 33.86 550.73 L 35.59 547.98 L 36.80 545.50 L 38.46 542.57 L 40.02 540.11 L 41.59 537.17 L 43.07 534.57 L 44.37 531.83 L 45.81 529.11 L 47.35 526.60 L 48.76 523.81 L 50.44 521.57 L 51.63 518.61 L 53.26 516.37 L 55.02 513.70 L 56.34 510.72 L 57.72 508.17 L 59.19 505.64 L 61.11 503.27 L 62.66 500.70 L 63.87 497.96 L 65.56 495.53 L 66.85 492.69 L 68.44 490.34 L 69.71 487.56 L 71.41 484.86 L 73.01 482.22 L 74.38 479.80 L 75.77 477.13 L 77.40 474.29 L 78.98 471.89 L 80.71 469.11 L 82.36 466.39 L 83.59 463.84 L 85.23 460.99 L 86.59 458.54 L 88.25 455.85 L 89.83 453.37 L 91.72 450.36 L 93.02 447.84 L 94.46 445.47 L 96.18 442.75 L 97.94 439.73 L 99.14 437.37 L 101.12 434.68 L 102.43 432.08 L 104.15 429.50 L 105.82 426.37 L 107.46 423.88 L 108.89 421.38 L 110.56 418.38 L 112.05 415.87 L 113.50 413.32 L 115.14 410.65 L 116.71 408.18 L 118.22 405.29 L 119.56 402.82 L 121.17 400.20 L 122.66 397.48 L 124.70 394.85 L 126.05 392.03 L 127.54 389.50 L 129.26 386.85 L 130.62 384.42 L 132.33 381.86 L 133.85 378.88 L 135.28 376.46 L 136.97 373.82 L 138.70 371.07 L 140.14 368.39 L 141.51 366.08 L 143.02 363.57 L 144.62 360.70 L 146.27 357.91 L 147.71 355.24 L 149.52 352.67 L 150.73 350.46 L 152.58 347.55 L 153.91 344.99 L 155.68 342.46 L 157.18 339.77 L 158.63 337.17 L 160.14 334.39 L 161.82 331.89 L 163.36 329.15 L 164.97 326.52 L 166.31 324.12 L 168.05 321.76 L 169.72 318.70 L 171.27 316.37 L 172.45 313.54 L 173.94 310.96 L 175.53 308.41 L 177.16 306.03 L 178.77 303.40 L 180.41 300.86 L 181.74 298.06 L 183.40 295.41 L 184.83 293.07 L 186.66 290.32 L 187.94 287.74 L 189.76 285.33 L 190.87 282.78 L 192.55 280.09 L 194.37 277.49 L 195.82 274.82 L 197.29 272.18 L 198.63 269.55 L 200.45 267.06 L 201.66 264.64 L 203.54 262.12 L 204.76 259.62 L 206.50 256.80 L 208.32 254.10 L 209.77 251.37 L 211.14 248.61 L 212.88 246.08 L 214.40 243.65 L 216.07 240.81 L 217.42 238.31 L 219.07 235.72 L 220.87 232.95 L 222.18 230.21 L 223.68 227.37 L 225.26 224.74 L 227.09 222.06 L 228.74 219.62 L 230.15 217.09 L 231.53 214.42 L 233.45 211.53 L 234.86 209.19 L 236.56 206.50 L 238.22 203.50 L 239.36 201.17 L 241.15 198.57 L 242.79 195.93 L 244.14 193.17 L 245.69 190.29 L 247.25 187.68 L 249.01 185.10 L 250.51 182.35 L 251.86 179.71 L 253.81 177.14 L 255.35 174.74 L 256.89 171.86 L 258.12 169.09 L 259.64 166.88 L 261.43 164.05 L 263.11 161.63 L 264.68 158.61 L 265.96 156.20 L 267.64 153.30 L 268.89 150.67 L 270.77 147.99 L 272.21 145.50 L 273.52 143.00 L 275.15 140.42 L 276.85 137.47 L 278.21 135.15 L 279.78 132.33 L 281.42 129.74 L 282.93 126.92 L 284.31 124.47 L 286.08 121.89" fill="none" stroke="black" stroke-width="1"/>
  <path d="M 286.05 121.61 L 284.27 123.97 L 282.91 126.49 L 280.90 129.06 L 279.53 132.00 L 277.78 134.15 L 276.21 136.70 L 274.75 139.60 L 272.72 141.93 L 271.18 144.73 L 269.54 146.96 L 267.80 149.83 L 266.48 152.46 L 264.43 154.69 L 262.88 157.38 L 261.51 159.70 L 259.52 162.33 L 258.07 165.20 L 256.51 167.60 L 254.57 170.01 L 253.24 172.53 L 251.58 174.99 L 249.84 177.74 L 248.16 180.53 L 246.59 182.83 L 244.94 185.72 L 243.31 188.25 L 241.59 190.61 L 239.72 193.40 L 238.07 195.93 L 236.68 198.17 L 235.12 201.07 L 233.22 203.69 L 231.41 206.23 L 230.05 208.59 L 228.12 211.39 L 226.66 213.90 L 225.05 216.29 L 223.35 218.97 L 221.43 221.56 L 219.83 224.14 L 218.40 226.63 L 216.46 229.06 L 214.88 231.96 L 213.18 234.53 L 211.83 237.11 L 209.79 239.79 L 208.31 242.20 L 206.75 244.83 L 205.13 247.29 L 203.26 249.51 L 201.83 252.22 L 200.13 254.97 L 198.60 257.35 L 196.76 259.86 L 195.23 262.18 L 194.01 264.79 L 192.39 267.25 L 190.72 269.61 L 189.15 272.43 L 187.13 274.69 L 185.53 277.38 L 184.19 279.63 L 182.28 282.25 L 180.75 284.69 L 178.99 287.32 L 177.61 290.04 L 176.20 292.42 L 174.48 295.03 L 172.83 297.38 L 171.08 300.12 L 169.32 302.53 L 168.04 305.11 L 166.52 307.60 L 164.66 309.98 L 162.90 312.32 L 161.25 315.10 L 159.73 317.47 L 158.33 320.34 L 156.71 322.72 L 154.85 325.48 L 153.39 327.83 L 151.34 330.13 L 150.04 333.05 L 148.16 335.63 L 146.81 337.89 L 145.19 340.48 L 143.44 342.85 L 141.90 345.67 L 140.13 348.02 L 138.42 350.52 L 136.79 353.07 L 135.34 355.75 L 133.29 358.50 L 131.97 360.95 L 130.48 363.35 L 128.73 365.76 L 127.04 368.54 L 125.37 371.04 L 123.93 373.37 L 122.07 376.09 L 120.24 378.88 L 118.58 381.47 L 116.83 384.08 L 115.28 386.35 L 113.71 388.97 L 112.03 391.69 L 110.63 394.00 L 108.68 397.01 L 106.98 399.56 L 105.57 401.83 L 103.66 404.71 L 102.13 407.06 L 100.35 409.48 L 98.87 412.24 L 97.31 414.76 L 95.58 417.38 L 93.78 420.27 L 91.87 422.74 L 90.16 425.36 L 88.64 427.68 L 87.23 430.27 L 85.36 433.07 L 83.73 435.56 L 82.29 438.02 L 80.44 440.44 L 78.99 443.11 L 77.15 445.87 L 75.84 448.15 L 73.91 450.71 L 72.39 453.01 L 70.69 455.84 L 69.24 458.30 L 67.24 460.82 L 65.98 463.39 L 64.43 466.01 L 62.83 468.24 L 61.15 470.71 L 59.25 473.09 L 57.84 475.94 L 56.30 478.29 L 54.24 480.91 L 52.85 483.38 L 51.25 485.64 L 49.72 488.15 L 48.02 490.43 L 46.75 493.12 L 44.84 495.51 L 43.75 497.94 L 41.73 500.22 L 40.43 502.50 L 38.65 504.95 L 37.34 507.41 L 35.48 509.88 L 34.38 512.32 L 32.60 514.57 L 30.96 517.18 L 29.60 519.19 L 27.66 521.99 L 26.18 524.14 L 27.69 521.77 L 29.27 519.24 L 30.89 516.37 L 32.30 513.92 L 34.17 511.25 L 35.72 508.77 L 37.25 506.16 L 38.79 504.06 L 40.45 501.36 L 42.16 499.09 L 43.53 496.58 L 45.07 494.02 L 46.54 491.66 L 48.41 488.92 L 49.66 486.57 L 51.28 483.93 L 52.67 481.49 L 54.64 479.05 L 55.85 476.89 L 57.33 474.06 L 59.09 471.77 L 60.91 469.24 L 62.22 466.42 L 64.15 463.93 L 65.77 461.52 L 67.10 458.84 L 68.75 456.48 L 70.47 454.04 L 72.16 451.38 L 73.54 448.93 L 75.33 446.10 L 77.15 443.86 L 78.65 441.28 L 79.97 438.55 L 81.60 436.16 L 83.49 433.26 L 84.88 430.76 L 86.61 428.52 L 88.37 425.87 L 90.01 423.42 L 91.70 420.83 L 93.10 418.15 L 94.86 415.47 L 96.37 413.15 L 98.28 410.39 L 99.87 407.92 L 101.26 404.95 L 103.10 402.64 L 104.56 399.81 L 106.56 397.03 L 107.80 394.77 L 109.62 392.00 L 111.28 389.60 L 112.98 386.71 L 114.46 384.18 L 116.37 381.42 L 117.87 378.88 L 119.80 376.41 L 121.16 373.80 L 122.78 371.34 L 124.47 368.53 L 126.31 365.80 L 128.03 363.19 L 129.64 360.84 L 131.03 358.23 L 132.94 355.40 L 134.56 352.88 L 136.28 350.45 L 137.72 347.76 L 139.60 345.25 L 141.22 342.57 L 142.90 339.81 L 144.14 337.43 L 145.91 334.87 L 147.77 332.22 L 149.36 329.93 L 150.88 327.14 L 152.51 324.82 L 154.04 321.94 L 155.82 319.31 L 157.36 316.69 L 158.82 314.30 L 160.65 311.86 L 162.49 308.99 L 164.16 306.50 L 165.40 303.85 L 167.05 301.48 L 169.02 298.80 L 170.42 296.19 L 172.02 293.64 L 173.79 291.25 L 175.28 288.44 L 177.04 285.88 L 178.57 283.77 L 180.27 280.96 L 181.80 278.39 L 183.57 275.90 L 185.10 273.44 L 186.85 270.80 L 188.27 268.32 L 189.95 265.91 L 191.32 263.16 L 193.07 260.70 L 194.65 258.03 L 196.26 255.72 L 198.04 253.12 L 199.41 250.70 L 201.11 247.84 L 202.76 245.26 L 204.25 243.06 L 205.96 240.30 L 207.82 237.96 L 209.37 235.26 L 211.12 232.96 L 212.29 230.33 L 214.08 227.74 L 215.82 225.02 L 217.41 222.64 L 219.04 220.03 L 220.72 217.55 L 222.08 215.07 L 223.98 212.25 L 225.35 209.78 L 227.05 207.37 L 228.57 204.60 L 230.42 202.25 L 231.99 199.46 L 233.62 196.99 L 235.34 194.12 L 236.92 191.55 L 238.74 189.12 L 240.52 186.60 L 242.15 184.05 L 243.58 181.20 L 245.03 178.89 L 247.01 176.21 L 248.51 173.49 L 250.39 171.12 L 252.08 168.42 L 253.59 165.59 L 255.13 163.16 L 256.67 160.46 L 258.56 157.73 L 260.36 155.27 L 261.58 152.90 L 263.53 150.25 L 264.95 147.64 L 266.84 144.70 L 268.50 142.30 L 270.08 139.74 L 271.70 137.11 L 273.27 134.58 L 275.08 131.80 L 276.46 129.30 L 278.39 126.80 L 279.74 124.44 L 281.65 121.81 L 283.24 119.24 L 284.58 116.22 L 286.36 113.79 L 288.05 111.15 L 289.62 108.52 L 291.55 106.12 L 292.90 103.70 L 294.85 100.93 L 296.13 98.58 L 297.82 95.61 L 299.66 93.40 L 301.25 90.48 L 303.04 87.93 L 304.57 85.71 L 305.90 83.07 L 307.97 80.24 L 309.16 77.68 L 311.03 75.17" fill="none" stroke="black" stroke-width="1"/>
  <path d="M 310.88 75.46 L 309.61 78.35 L 308.16 80.63 L 306.58 83.43 L 305.16 86.00 L 303.70 88.88 L 302.13 91.50 L 300.71 94.46 L 299.12 97.03 L 297.58 99.81 L 296.09 102.20 L 294.78 105.00 L 293.34 107.84 L 292.05 110.61 L 290.43 113.37 L 289.09 115.96 L 287.32 118.39 L 286.22 121.27 L 284.59 124.01 L 283.18 126.49 L 281.64 129.17 L 279.98 132.14 L 278.51 134.66 L 277.28 137.38 L 275.74 140.05 L 274.26 142.94 L 272.77 145.40 L 271.51 148.29 L 269.68 150.85 L 268.38 153.74 L 267.02 156.22 L 265.58 158.96 L 264.10 161.61 L 262.60 164.30 L 260.78 167.29 L 259.41 169.91 L 258.23 172.70 L 256.72 175.21 L 255.04 177.80 L 253.76 180.48 L 252.07 183.22 L 250.60 185.85 L 249.21 188.72 L 247.70 191.30 L 246.27 194.29 L 244.85 196.69 L 243.15 199.54 L 241.74 202.37 L 240.35 204.80 L 238.73 207.62 L 237.13 210.28 L 236.00 212.98 L 234.45 215.68 L 233.00 218.38 L 231.43 220.59 L 229.95 223.38 L 228.82 225.89 L 227.40 228.42 L 225.77 231.46 L 224.42 234.11 L 222.88 236.54 L 221.36 239.20 L 219.91 241.94 L 218.66 244.63 L 217.05 246.83 L 215.55 249.58 L 214.30 252.26 L 212.70 254.67 L 211.02 257.50 L 209.78 260.24 L 208.09 262.59 L 206.85 265.36 L 205.36 267.90 L 203.94 270.74 L 202.62 273.37 L 200.95 275.84 L 199.43 278.66 L 198.20 281.19 L 196.68 283.74 L 195.26 286.52 L 193.63 288.97 L 192.11 291.86 L 190.75 294.49 L 189.29 297.07 L 188.04 299.74 L 186.73 302.47 L 184.94 305.37 L 183.78 308.04 L 181.97 310.59 L 180.62 313.17 L 179.40 315.67 L 177.56 318.53 L 176.43 321.35 L 174.81 323.76 L 173.15 326.55 L 171.92 328.91 L 170.32 331.58 L 168.69 334.22 L 167.30 337.18 L 166.09 339.67 L 164.50 342.54 L 162.96 344.96 L 161.55 347.63 L 160.12 350.61 L 158.66 353.09 L 157.42 355.89 L 155.77 358.10 L 154.38 360.77 L 152.83 363.36 L 151.72 366.22 L 149.97 368.63 L 148.94 371.28 L 147.35 373.82 L 145.73 376.60 L 144.52 378.99 L 142.88 381.76 L 141.67 384.51 L 140.24 387.25 L 138.67 389.63 L 137.10 392.40 L 135.79 394.74 L 134.61 397.54 L 132.87 400.03 L 131.62 402.79 L 130.30 405.23 L 128.68 407.89 L 127.51 410.34 L 126.01 413.10 L 124.61 415.94 L 123.08 418.35 L 121.75 421.25 L 120.02 423.84 L 118.70 426.21 L 117.30 429.06 L 115.95 431.80 L 114.31 434.61 L 113.03 437.30 L 111.50 439.59 L 110.40 442.39 L 108.54 444.97 L 107.45 447.93 L 106.12 450.53 L 104.47 453.06 L 103.20 456.03 L 101.79 458.51 L 100.15 461.00 L 98.74 463.87 L 97.41 466.69 L 95.77 469.13 L 94.44 471.96 L 93.19 474.43 L 91.74 477.17 L 90.60 480.05 L 89.08 482.75 L 87.64 485.25 L 86.46 487.69 L 85.14 490.45 L 83.74 493.12 L 82.24 495.54 L 80.82 498.61 L 79.83 501.15 L 78.51 503.76 L 76.87 506.34 L 75.69 508.95 L 74.78 511.43 L 73.72 514.21 L 72.70 516.50 L 71.55 519.44 L 70.71 521.69 L 69.82 524.32 L 71.57 522.66 L 73.37 520.62 L 75.45 518.73 L 76.98 516.63 L 78.80 514.76 L 80.54 512.14 L 82.17 509.91 L 83.80 507.78 L 85.69 505.22 L 87.34 502.59 L 89.08 500.61 L 90.71 498.16 L 92.06 495.64 L 93.79 493.00 L 95.54 490.99 L 97.27 488.49 L 98.98 485.89 L 100.66 483.58 L 102.43 480.91 L 103.94 478.56 L 105.89 476.00 L 107.52 473.35 L 109.08 471.24 L 110.62 468.31 L 112.18 466.07 L 113.90 463.49 L 115.86 460.87 L 117.24 458.32 L 118.91 455.97 L 120.95 453.38 L 122.42 451.07 L 124.07 448.11 L 125.65 446.02 L 127.63 443.36 L 128.86 440.97 L 130.93 438.41 L 132.42 435.78 L 134.20 433.23 L 135.58 430.76 L 137.57 427.88 L 138.94 425.41 L 140.92 422.95 L 142.39 420.40 L 144.11 417.67 L 145.82 414.91 L 147.69 412.65 L 149.16 410.07 L 150.80 407.15 L 152.66 404.53 L 154.31 402.21 L 155.95 399.66 L 157.58 396.98 L 159.16 394.67 L 161.03 392.09 L 162.55 389.19 L 164.34 386.82 L 165.89 384.25 L 167.79 381.45 L 169.26 378.84 L 171.10 376.33 L 172.72 373.56 L 174.52 371.25 L 176.13 368.76 L 177.57 366.38 L 179.15 363.52 L 180.85 360.95 L 182.69 358.44 L 184.05 355.77 L 185.67 353.62 L 187.55 350.96 L 189.23 348.36 L 190.55 345.76 L 192.54 343.27 L 193.97 340.66 L 195.60 338.11 L 197.45 335.62 L 199.22 332.89 L 200.68 330.39 L 202.10 327.88 L 203.92 325.28 L 205.37 322.99 L 207.18 320.32 L 208.63 317.68 L 210.55 315.41 L 211.94 312.75 L 213.75 310.24 L 215.15 307.88 L 216.74 305.30 L 218.44 302.86 L 220.32 300.10 L 221.85 297.78 L 223.60 295.43 L 225.28 292.89 L 226.77 290.22 L 228.11 287.84 L 229.78 284.95 L 231.43 282.45 L 233.39 280.25 L 234.53 277.53 L 236.25 275.08 L 238.00 272.53 L 239.62 270.13 L 241.44 267.76 L 242.74 264.91 L 244.56 262.59 L 246.03 260.22 L 247.73 257.36 L 249.14 255.25 L 250.86 252.67 L 252.35 249.92 L 254.05 247.38 L 255.67 245.05 L 257.39 242.48 L 259.29 239.70 L 260.96 237.11 L 262.40 234.72 L 263.83 231.95 L 265.78 229.70 L 267.42 227.18 L 269.02 224.55 L 270.97 221.67 L 272.57 219.13 L 273.99 216.58 L 275.79 214.18 L 277.56 211.51 L 279.01 208.91 L 280.73 206.56 L 282.39 203.72 L 284.18 201.47 L 285.73 198.44 L 287.20 196.09 L 288.89 193.74 L 290.67 190.79 L 292.29 188.14 L 293.84 186.00 L 295.58 183.01 L 297.61 180.55 L 299.05 178.05 L 300.65 175.47 L 302.33 172.74 L 304.18 170.27 L 305.61 167.97 L 307.25 165.15 L 308.88 162.83 L 310.96 159.99 L 312.20 157.49 L 313.96 155.04 L 315.90 152.56 L 317.43 149.76 L 319.15 147.44 L 320.85 144.67 L 322.22 142.51 L 324.33 140.03 L 325.81 137.36 L 327.22 134.57 L 328.84 131.97 L 330.57 129.58 L 332.64 127.17 L 333.93 124.59 L 335.76 121.94" fill="none" stroke="black" stroke-width="1"/>
  <path d="M 335.83 122.01 L 334.10 124.56 L 332.67 127.31 L 331.51 129.84 L 329.97 132.59 L 328.29 135.07 L 326.90 137.93 L 325.26 140.51 L 323.67 143.05 L 322.26 145.65 L 320.72 148.29 L 319.57 150.76 L 317.68 153.40 L 316.48 156.13 L 314.88 158.65 L 313.27 161.74 L 311.87 164.32 L 310.59 166.76 L 308.95 169.17 L 307.27 172.00 L 306.08 174.57 L 304.61 177.17 L 303.02 180.02 L 301.55 182.54 L 299.96 185.20 L 298.52 188.06 L 297.12 190.73 L 295.53 193.15 L 294.02 195.81 L 292.29 198.51 L 290.85 201.27 L 289.50 203.75 L 287.85 206.41 L 286.44 208.97 L 284.73 211.93 L 283.48 214.36 L 281.65 217.26 L 280.13 219.93 L 278.78 222.45 L 277.49 225.09 L 276.05 227.55 L 274.21 230.19 L 272.94 233.18 L 271.41 235.46 L 269.74 238.31 L 268.20 240.98 L 267.01 243.81 L 265.34 246.25 L 263.79 249.16 L 262.42 251.45 L 260.63 254.29 L 259.26 256.89 L 257.66 259.53 L 256.23 262.43 L 254.53 264.90 L 252.98 267.82 L 251.70 270.13 L 249.90 273.17 L 248.78 275.70 L 246.84 278.37 L 245.78 281.05 L 243.95 283.55 L 242.32 286.20 L 240.86 289.11 L 239.38 291.92 L 237.98 294.42 L 236.58 297.29 L 234.67 299.77 L 233.49 302.53 L 231.90 305.04 L 230.50 307.87 L 228.63 310.56 L 227.21 313.10 L 225.76 315.71 L 224.13 318.77 L 222.68 321.48 L 221.36 323.84 L 219.77 326.64 L 217.97 329.51 L 216.62 331.98 L 215.34 334.79 L 213.89 337.23 L 212.37 339.77 L 210.81 342.50 L 209.42 345.23 L 207.82 347.95 L 206.01 350.49 L 204.61 353.07 L 203.03 355.55 L 201.75 358.01 L 200.35 360.58 L 198.62 363.27 L 197.38 365.85 L 195.95 368.60 L 194.23 371.46 L 192.95 373.93 L 191.09 376.68 L 189.72 379.31 L 188.27 381.75 L 186.91 384.18 L 185.56 387.23 L 183.95 389.47 L 182.32 392.45 L 180.90 394.98 L 179.48 397.28 L 177.98 400.35 L 176.45 402.77 L 174.95 405.37 L 173.40 407.92 L 171.70 410.51 L 170.48 413.28 L 168.76 416.11 L 167.30 418.69 L 165.96 421.13 L 164.28 424.09 L 163.03 426.79 L 161.34 429.58 L 160.06 431.85 L 158.23 434.88 L 156.60 437.14 L 155.42 440.05 L 153.87 442.47 L 152.36 445.31 L 151.00 448.08 L 149.11 450.46 L 147.54 453.48 L 145.98 455.77 L 144.79 458.65 L 143.45 461.08 L 141.73 463.99 L 140.19 466.62 L 138.69 469.29 L 137.15 471.96 L 135.80 474.32 L 134.11 476.96 L 132.62 479.94 L 131.41 482.59 L 129.69 485.11 L 128.20 487.70 L 126.60 490.10 L 125.44 492.84 L 123.88 495.53 L 122.18 498.11 L 120.81 500.74 L 119.62 502.97 L 117.78 505.62 L 116.43 508.52 L 114.85 511.16 L 113.37 513.66 L 112.22 516.10 L 110.32 518.87 L 109.10 521.36 L 107.58 524.06 L 106.12 526.66 L 104.91 529.36 L 103.18 531.64 L 101.95 534.44 L 100.25 536.76 L 98.76 539.13 L 97.66 541.90 L 96.30 544.17 L 94.69 546.72 L 93.19 549.14 L 91.93 551.97 L 90.45 554.22 L 89.13 556.87 L 87.54 559.27 L 86.34 562.00 L 84.75 564.37 L 83.45 566.83 L 81.68 569.57 L 80.27 572.09 L 78.72 575.01 L 77.19 577.50 L 75.94 580.00 L 77.15 577.45 L 78.62 574.96 L 80.43 572.45 L 81.64 570.15 L 83.24 567.57 L 84.88 564.90 L 86.44 562.26 L 87.49 559.74 L 89.32 556.92 L 90.55 554.02 L 92.23 551.41 L 94.02 549.05 L 95.26 546.40 L 96.95 543.76 L 98.46 540.91 L 99.91 538.21 L 101.19 535.41 L 102.65 532.93 L 104.49 530.25 L 105.86 527.80 L 107.08 525.44 L 108.51 522.57 L 110.25 520.18 L 111.84 517.82 L 113.12 514.82 L 114.43 512.24 L 116.14 509.66 L 117.54 507.16 L 119.11 504.49 L 120.64 502.03 L 121.71 499.73 L 123.43 496.99 L 124.89 494.24 L 126.54 492.04 L 127.84 489.28 L 129.35 486.75 L 130.86 484.21 L 132.38 481.53 L 134.02 478.75 L 135.57 476.12 L 136.68 473.28 L 138.61 470.87 L 139.96 468.04 L 141.18 465.50 L 143.16 462.71 L 144.64 460.13 L 145.99 457.75 L 147.59 454.93 L 149.02 452.04 L 150.39 449.80 L 151.96 446.75 L 153.64 444.53 L 154.86 441.63 L 156.37 438.84 L 157.84 436.50 L 159.49 433.84 L 160.81 431.10 L 162.53 428.46 L 163.79 425.97 L 165.54 423.11 L 166.94 420.59 L 168.56 418.12 L 170.05 415.44 L 171.40 412.62 L 173.08 410.44 L 174.19 407.56 L 175.90 404.90 L 177.26 402.64 L 178.88 400.03 L 180.43 397.34 L 181.73 394.75 L 183.08 392.01 L 184.94 389.42 L 186.47 387.01 L 187.80 384.29 L 189.07 381.40 L 190.49 378.97 L 192.26 376.44 L 193.79 373.71 L 195.30 371.28 L 196.85 368.67 L 198.08 366.21 L 199.52 363.49 L 201.10 360.85 L 202.74 358.28 L 204.15 355.71 L 205.59 353.06 L 207.14 350.31 L 208.77 347.73 L 210.39 344.75 L 211.87 342.33 L 213.29 339.48 L 214.87 336.99 L 216.41 334.19 L 217.65 331.46 L 219.19 329.04 L 221.04 326.21 L 222.25 323.75 L 223.72 320.82 L 225.60 318.15 L 226.87 315.71 L 228.63 312.70 L 229.83 310.19 L 231.62 307.36 L 233.18 304.84 L 234.42 302.22 L 236.08 299.63 L 237.82 296.78 L 238.98 294.13 L 240.63 291.53 L 242.15 288.94 L 243.60 286.44 L 244.97 283.77 L 246.81 280.99 L 248.23 278.16 L 249.82 275.96 L 250.97 272.97 L 252.62 270.30 L 254.14 268.02 L 255.43 264.96 L 257.29 262.61 L 258.84 259.93 L 260.27 257.36 L 261.90 254.69 L 263.30 251.94 L 264.90 249.12 L 265.97 246.90 L 267.64 244.05 L 269.13 241.39 L 270.54 238.57 L 272.23 236.03 L 273.60 233.65 L 275.44 230.74 L 276.48 228.17 L 278.23 225.62 L 279.62 223.08 L 281.29 220.29 L 282.90 217.60 L 284.01 215.33 L 285.57 212.49 L 287.28 210.09 L 288.85 207.28 L 290.09 204.84 L 291.50 202.19 L 292.94 199.67 L 294.84 196.87 L 296.34 194.16 L 297.44 191.78 L 299.11 189.21 L 300.63 186.40 L 302.07 183.67 L 303.46 181.42 L 304.96 178.51 L 306.70 176.17 L 307.78 173.29 L 309.48 170.61 L 310.99 168.20" fill="none" stroke="black" stroke-width="1"/>
  <path d="M 311.11 168.29 L 309.45 170.58 L 307.42 173.43 L 305.72 175.74 L 304.26 178.50 L 302.54 180.80 L 300.61 183.04 L 299.07 185.65 L 297.17 188.18 L 295.64 190.53 L 293.63 193.23 L 291.99 195.53 L 290.29 198.31 L 288.52 200.65 L 286.48 203.44 L 285.04 205.62 L 282.96 208.28 L 281.41 210.50 L 279.72 213.31 L 278.01 215.54 L 276.07 218.34 L 274.51 220.62 L 272.69 223.19 L 270.95 225.67 L 269.25 228.09 L 267.38 230.63 L 265.61 233.31 L 264.14 235.66 L 262.25 238.46 L 260.32 240.99 L 258.78 243.32 L 256.99 245.80 L 255.39 248.24 L 253.56 251.08 L 251.79 253.77 L 249.81 255.88 L 248.38 258.68 L 246.54 261.07 L 244.80 263.46 L 242.78 265.96 L 241.07 268.69 L 239.18 271.37 L 237.78 273.67 L 235.69 276.43 L 234.24 278.78 L 232.45 281.21 L 230.79 283.75 L 228.85 286.27 L 227.17 288.92 L 225.35 291.53 L 223.74 293.99 L 221.98 296.49 L 220.26 299.10 L 218.45 301.32 L 216.72 303.86 L 215.12 306.31 L 213.50 308.86 L 211.68 311.55 L 209.92 313.60 L 208.10 316.37 L 206.34 318.59 L 204.98 321.03 L 203.32 323.57 L 201.27 326.25 L 199.88 328.51 L 198.18 330.93 L 196.49 333.60 L 194.71 335.99 L 192.68 338.38 L 190.99 341.05 L 189.73 343.40 L 187.90 345.77 L 185.96 348.65 L 184.23 350.65 L 182.53 353.37 L 180.88 355.79 L 179.10 358.13 L 177.57 360.79 L 175.71 363.17 L 174.23 366.04 L 172.25 368.21 L 170.52 370.99 L 168.74 373.23 L 166.99 375.98 L 165.47 378.41 L 163.64 380.63 L 162.00 383.55 L 160.42 385.75 L 158.46 388.11 L 156.88 391.03 L 154.98 393.21 L 153.47 395.68 L 151.69 398.54 L 149.70 400.73 L 148.36 403.39 L 146.60 405.98 L 144.59 408.38 L 143.12 411.07 L 141.23 413.46 L 139.75 415.67 L 137.69 418.39 L 136.29 420.79 L 134.28 423.54 L 132.54 425.62 L 130.88 428.36 L 128.97 431.05 L 127.31 433.51 L 125.54 435.81 L 123.87 438.51 L 122.30 441.17 L 120.38 443.42 L 118.37 446.29 L 116.54 448.60 L 115.02 451.25 L 112.99 453.67 L 111.25 456.24 L 109.78 458.58 L 108.14 461.47 L 106.33 463.64 L 104.39 466.09 L 102.64 468.71 L 100.73 471.48 L 98.90 473.90 L 97.24 476.30 L 95.65 478.89 L 93.66 481.30 L 92.06 484.30 L 90.53 486.64 L 88.54 489.13 L 86.74 491.37 L 84.86 493.98 L 83.23 496.23 L 81.57 499.05 L 79.92 501.17 L 77.98 503.56 L 76.39 506.18 L 74.75 508.58 L 72.75 511.08 L 71.11 513.78 L 69.44 516.01 L 67.64 518.34 L 66.13 521.05 L 64.08 523.42 L 62.50 525.65 L 60.84 528.16 L 58.98 530.53 L 57.19 533.24 L 55.79 535.43 L 53.82 538.01 L 51.86 540.56 L 50.18 542.81 L 48.38 545.15 L 46.36 548.01 L 44.78 550.30 L 42.77 552.64 L 40.97 555.31 L 38.99 557.70 L 37.44 560.07 L 35.31 562.55 L 33.81 565.00 L 31.94 567.54 L 29.97 569.91 L 27.97 572.07 L 26.30 574.09 L 24.38 575.95 L 22.16 577.58 L 20.27 579.74 L 21.55 577.03 L 22.66 574.47 L 23.37 571.91 L 24.81 569.56 L 25.58 566.88 L 26.89 564.10 L 28.23 561.45 L 30.00 558.82 L 31.45 555.94 L 32.81 553.13 L 34.18 550.46 L 35.99 547.85 L 37.05 545.12 L 38.92 542.76 L 40.30 539.91 L 41.50 537.16 L 43.32 534.30 L 44.58 531.81 L 46.40 528.94 L 47.66 526.38 L 48.98 523.65 L 50.52 521.07 L 52.20 518.55 L 53.66 516.20 L 55.19 513.40 L 56.92 510.89 L 58.07 508.23 L 59.70 505.38 L 61.46 503.09 L 62.61 500.55 L 64.40 497.93 L 65.93 495.31 L 67.48 492.76 L 68.63 489.92 L 70.10 487.27 L 71.83 484.95 L 73.51 482.25 L 74.58 479.70 L 76.48 476.75 L 77.91 474.31 L 79.30 471.68 L 81.06 469.16 L 82.48 466.48 L 83.97 463.68 L 85.83 461.00 L 87.39 458.61 L 88.48 455.80 L 90.34 452.98 L 91.85 450.15 L 93.63 447.96 L 94.98 444.99 L 96.56 442.51 L 98.35 439.53 L 99.86 437.06 L 101.23 434.29 L 102.81 431.82 L 104.47 429.08 L 106.08 426.38 L 107.43 423.50 L 109.26 421.07 L 110.50 418.35 L 112.26 415.95 L 113.78 413.30 L 115.26 410.21 L 116.89 407.52 L 118.56 405.10 L 120.32 402.60 L 121.55 399.62 L 123.31 397.22 L 124.71 394.82 L 126.20 391.91 L 127.88 389.26 L 129.37 386.62 L 131.08 384.03 L 132.68 381.36 L 134.12 378.87 L 135.79 376.03 L 137.12 373.50 L 138.69 370.94 L 140.62 368.43 L 141.78 365.85 L 143.57 363.19 L 144.84 360.49 L 146.43 357.79 L 148.10 355.19 L 149.78 352.65 L 151.23 350.11 L 152.97 347.60 L 154.31 344.75 L 155.80 342.05 L 157.69 339.69 L 159.02 337.06 L 160.83 334.44 L 162.17 331.72 L 163.70 329.07 L 165.46 326.65 L 166.82 323.98 L 168.39 321.35 L 169.70 318.72 L 171.36 316.24 L 172.76 313.40 L 174.64 310.88 L 176.06 308.64 L 177.65 305.67 L 178.93 303.11 L 180.69 300.80 L 182.35 298.11 L 183.95 295.41 L 185.46 292.89 L 186.76 290.52 L 188.46 287.50 L 189.91 285.11 L 191.32 282.40 L 193.24 279.95 L 194.77 277.18 L 196.26 274.90 L 197.73 272.40 L 199.23 269.70 L 200.95 267.04 L 202.37 264.35 L 203.68 261.71 L 205.49 259.26 L 206.88 256.65 L 208.59 253.78 L 209.86 251.15 L 211.54 248.92 L 213.14 245.81 L 214.99 243.50 L 216.56 240.67 L 217.81 238.25 L 219.52 235.33 L 221.02 232.72 L 222.82 230.24 L 224.21 227.39 L 225.55 224.65 L 227.28 222.16 L 228.77 219.43 L 230.46 217.04 L 232.07 214.37 L 233.63 211.75 L 235.19 208.79 L 236.93 206.19 L 238.61 203.65 L 239.72 200.68 L 241.72 198.22 L 243.03 195.82 L 244.71 193.17 L 246.33 190.28 L 247.93 187.43 L 249.40 184.97 L 250.99 182.21 L 252.58 179.48 L 253.90 177.22 L 255.50 174.27 L 257.15 171.63 L 258.49 169.34 L 260.39 166.41 L 261.57 163.97 L 263.12 161.20 L 264.75 158.48 L 266.43 156.12 L 267.90 153.26 L 269.25 150.51 L 271.00 148.27 L 272.51 145.41 L 273.95 142.85 L 275.55 140.45 L 277.43 137.55 L 278.69 134.78 L 280.15 132.49 L 281.96 129.61 L 283.39 127.23 L 285.04 124.64 L 286.48 121.78" fill="none" stroke="black" stroke-width="1"/>
  <path d="M 286.47 121.62 L 284.79 123.98 L 283.08 126.88 L 281.47 129.47 L 279.82 131.79 L 278.06 134.28 L 276.74 137.10 L 275.10 139.52 L 273.35 141.99 L 271.57 144.41 L 270.12 146.91 L 268.20 149.75 L 266.55 152.43 L 265.04 154.68 L 263.47 157.27 L 261.81 159.87 L 260.21 162.36 L 258.48 164.97 L 256.61 167.53 L 255.19 170.01 L 253.37 172.59 L 251.96 175.41 L 250.25 177.74 L 248.81 180.38 L 246.68 182.66 L 245.24 185.39 L 243.79 188.29 L 241.97 190.68 L 240.12 193.42 L 238.69 195.88 L 236.85 198.39 L 235.38 201.02 L 233.43 203.70 L 232.14 206.28 L 230.06 208.70 L 228.51 211.37 L 226.77 213.95 L 225.08 216.48 L 223.80 218.99 L 221.88 221.42 L 220.12 224.34 L 218.54 226.73 L 216.76 229.08 L 215.33 231.68 L 213.47 234.68 L 211.85 237.17 L 210.49 239.35 L 208.70 242.17 L 207.24 244.54 L 205.36 246.97 L 204.08 249.75 L 202.13 252.12 L 200.37 254.95 L 198.76 257.14 L 197.46 259.56 L 195.97 262.07 L 194.13 264.56 L 192.64 267.04 L 190.81 270.00 L 189.49 272.22 L 187.43 274.84 L 186.14 277.23 L 184.24 279.79 L 182.86 282.57 L 181.40 284.67 L 179.46 287.49 L 178.11 289.94 L 176.31 292.59 L 174.87 294.95 L 173.01 297.30 L 171.52 299.78 L 169.91 302.44 L 168.11 304.80 L 166.65 307.48 L 165.02 309.93 L 163.52 312.35 L 161.50 315.22 L 160.19 317.32 L 158.28 320.05 L 156.76 322.62 L 155.06 325.36 L 153.73 327.96 L 151.92 330.13 L 150.22 332.93 L 148.78 335.28 L 147.23 337.74 L 145.30 340.50 L 143.55 342.74 L 141.84 345.45 L 140.24 348.10 L 138.82 350.73 L 137.28 353.28 L 135.57 355.58 L 133.66 358.00 L 132.03 361.01 L 130.83 363.24 L 129.03 365.99 L 127.54 368.36 L 125.75 371.09 L 123.98 373.38 L 122.41 376.03 L 120.61 378.61 L 119.32 381.16 L 117.43 383.72 L 115.55 386.20 L 113.93 389.10 L 112.37 391.51 L 110.99 393.91 L 108.83 396.59 L 107.19 399.19 L 105.98 401.94 L 103.86 404.28 L 102.47 407.20 L 100.70 409.40 L 98.94 412.39 L 97.26 414.80 L 95.84 417.35 L 94.19 419.73 L 92.52 422.71 L 90.86 425.21 L 89.23 427.88 L 87.45 430.42 L 85.62 433.13 L 84.06 435.48 L 82.38 438.09 L 80.71 440.30 L 79.12 443.27 L 77.34 445.36 L 76.06 448.09 L 74.10 450.55 L 72.83 452.95 L 71.18 455.58 L 69.64 458.02 L 67.86 460.86 L 65.97 463.32 L 64.53 465.79 L 63.08 468.07 L 61.04 470.57 L 59.58 473.32 L 58.03 475.80 L 56.41 478.04 L 54.88 480.58 L 53.15 483.29 L 51.62 485.47 L 49.98 488.22 L 48.40 490.30 L 47.15 493.00 L 45.38 495.37 L 43.91 497.80 L 42.08 500.07 L 40.60 502.37 L 39.18 504.83 L 37.39 507.50 L 36.09 509.84 L 34.26 511.91 L 32.87 514.48 L 31.36 516.96 L 29.60 519.04 L 28.06 521.72 L 26.43 524.07 L 27.82 521.43 L 29.41 519.03 L 31.08 516.30 L 32.98 513.71 L 34.57 511.41 L 35.93 508.72 L 37.26 506.48 L 38.85 503.90 L 40.61 501.46 L 42.10 499.09 L 43.88 496.24 L 45.18 493.80 L 46.92 491.39 L 48.19 489.12 L 50.02 486.48 L 51.37 484.29 L 53.28 481.44 L 54.47 479.26 L 56.14 476.66 L 57.94 474.29 L 59.27 471.76 L 60.78 469.34 L 62.27 466.73 L 64.04 464.14 L 65.66 461.60 L 67.22 459.19 L 68.84 456.42 L 70.60 453.82 L 72.16 451.14 L 73.87 448.65 L 75.45 446.37 L 76.86 443.67 L 78.51 441.38 L 80.45 438.49 L 82.01 435.90 L 83.72 433.29 L 85.02 430.84 L 86.65 428.40 L 88.23 425.63 L 89.95 423.18 L 91.80 420.55 L 93.24 418.18 L 94.98 415.39 L 96.33 413.05 L 98.37 410.44 L 100.00 407.92 L 101.34 405.20 L 103.26 402.56 L 105.03 399.93 L 106.47 397.43 L 108.36 394.79 L 109.66 392.21 L 111.27 389.59 L 112.92 386.97 L 114.93 384.37 L 116.30 381.87 L 118.14 379.02 L 119.84 376.47 L 121.50 373.97 L 122.94 371.33 L 124.79 368.46 L 126.50 366.23 L 127.89 363.42 L 129.58 360.77 L 131.46 358.00 L 133.18 355.65 L 134.66 352.97 L 136.49 350.23 L 138.11 347.93 L 139.50 345.28 L 141.09 342.88 L 142.81 340.13 L 144.23 337.73 L 146.19 334.94 L 147.95 332.29 L 149.44 330.11 L 151.13 327.52 L 152.40 324.77 L 154.45 322.04 L 155.70 319.85 L 157.35 317.06 L 159.03 314.34 L 160.65 312.08 L 162.54 309.54 L 163.96 306.67 L 165.51 304.41 L 167.24 301.56 L 168.96 299.16 L 170.49 296.35 L 171.98 293.88 L 173.78 291.13 L 175.54 288.93 L 176.93 286.06 L 178.48 283.43 L 180.33 281.11 L 181.73 278.53 L 183.43 276.06 L 185.41 273.49 L 186.70 270.96 L 188.43 268.26 L 190.08 265.70 L 191.84 263.43 L 193.05 260.74 L 194.97 258.29 L 196.27 255.85 L 198.30 253.26 L 199.47 250.63 L 201.19 248.08 L 202.67 245.55 L 204.34 242.92 L 206.21 240.79 L 207.62 238.04 L 209.15 235.32 L 210.85 232.85 L 212.47 230.58 L 214.13 227.89 L 216.02 225.53 L 217.36 222.98 L 219.20 220.46 L 220.71 217.71 L 222.32 215.21 L 223.76 212.57 L 225.33 210.17 L 227.07 207.58 L 228.87 204.94 L 230.37 202.26 L 232.11 199.81 L 233.45 197.36 L 235.50 194.83 L 236.83 191.81 L 238.84 189.35 L 240.07 186.88 L 242.03 183.96 L 243.47 181.70 L 245.36 178.78 L 247.04 176.22 L 248.72 173.99 L 250.41 170.95 L 251.64 168.34 L 253.29 165.81 L 254.98 163.23 L 256.65 160.75 L 258.68 158.05 L 260.12 155.43 L 261.93 152.90 L 263.29 150.26 L 265.19 147.78 L 266.85 145.13 L 268.14 142.76 L 269.80 140.01 L 271.68 137.38 L 273.25 134.97 L 275.18 132.37 L 276.45 129.65 L 278.04 127.00 L 279.78 124.59 L 281.26 122.08 L 283.13 119.12 L 284.84 116.95 L 286.32 114.33 L 288.21 111.73 L 289.67 108.96 L 291.23 106.22 L 293.00 103.93 L 294.67 101.09 L 296.19 98.57 L 297.95 96.32 L 299.28 93.70 L 301.28 90.79 L 302.98 88.39 L 304.64 85.58 L 306.06 83.06 L 307.86 80.49 L 309.41 77.99 L 310.97 75.50" fill="none" stroke="black" stroke-width="1"/>
  <path d="M 310.99 75.57 L 309.50 78.05 L 307.84 80.84 L 306.37 83.71 L 305.03 86.19 L 303.92 89.17 L 302.17 91.56 L 300.72 94.45 L 299.49 97.12 L 297.90 99.56 L 296.45 102.48 L 295.08 104.96 L 293.47 107.64 L 291.76 110.56 L 290.74 113.03 L 288.91 115.79 L 287.40 118.74 L 286.13 121.31 L 284.68 124.15 L 283.17 126.71 L 281.95 129.29 L 280.06 132.12 L 278.64 134.65 L 277.36 137.42 L 275.92 139.97 L 274.40 142.73 L 273.13 145.62 L 271.27 148.43 L 270.13 150.67 L 268.60 153.82 L 267.05 156.35 L 265.44 158.93 L 264.04 161.82 L 262.44 164.18 L 261.02 167.00 L 259.36 169.74 L 257.86 172.40 L 256.73 175.40 L 255.10 177.73 L 253.85 180.45 L 252.08 183.08 L 250.50 185.75 L 249.32 188.59 L 247.61 191.27 L 246.24 194.24 L 244.83 196.87 L 243.27 199.68 L 241.61 202.03 L 240.02 204.97 L 238.76 207.57 L 237.16 210.02 L 235.85 212.96 L 234.57 215.40 L 232.77 218.20 L 231.71 220.60 L 229.90 223.18 L 228.86 225.95 L 226.96 228.33 L 225.75 231.08 L 224.46 233.79 L 222.92 236.47 L 221.21 239.25 L 219.96 241.61 L 218.55 244.16 L 216.94 246.98 L 215.67 249.44 L 213.99 252.25 L 212.49 254.85 L 211.11 257.25 L 209.54 259.84 L 208.57 262.92 L 206.68 265.33 L 205.59 267.70 L 203.91 270.58 L 202.54 273.01 L 201.22 275.99 L 199.74 278.50 L 198.19 281.05 L 196.87 283.52 L 195.06 286.31 L 193.93 288.96 L 192.52 291.48 L 190.96 294.42 L 189.61 297.02 L 187.92 299.86 L 186.60 302.43 L 185.04 305.21 L 183.32 307.69 L 181.89 310.10 L 180.44 312.82 L 179.02 315.53 L 177.84 318.11 L 176.09 320.85 L 174.51 323.70 L 173.50 326.12 L 171.60 329.10 L 170.53 331.58 L 169.07 334.27 L 167.25 337.15 L 165.82 339.59 L 164.48 342.36 L 163.25 344.90 L 161.43 347.68 L 160.28 350.32 L 158.60 352.86 L 157.09 355.60 L 155.96 357.87 L 154.35 360.86 L 153.10 363.24 L 151.26 365.91 L 150.20 368.56 L 148.78 371.04 L 147.40 373.56 L 145.53 376.15 L 144.23 378.85 L 142.78 381.30 L 141.66 384.26 L 140.27 386.61 L 138.55 389.41 L 137.01 391.90 L 135.96 394.35 L 134.28 397.42 L 133.15 399.90 L 131.44 402.25 L 130.26 404.90 L 128.87 407.63 L 127.37 410.03 L 125.74 412.68 L 124.26 415.63 L 122.98 418.04 L 121.39 420.58 L 120.22 423.36 L 118.54 426.11 L 117.13 428.92 L 115.94 431.18 L 114.20 434.25 L 112.93 436.57 L 111.60 439.30 L 110.18 441.96 L 108.60 444.69 L 107.37 447.47 L 105.90 450.32 L 104.13 453.03 L 102.73 455.39 L 101.32 458.29 L 100.14 460.73 L 98.52 463.65 L 97.15 466.15 L 95.86 468.85 L 94.30 471.58 L 93.16 474.06 L 91.47 477.11 L 90.38 479.62 L 88.82 482.21 L 87.83 484.65 L 86.43 487.33 L 85.10 489.91 L 83.38 492.92 L 82.00 495.11 L 80.75 497.91 L 79.33 500.77 L 77.97 503.32 L 76.62 506.11 L 75.53 508.52 L 74.62 510.86 L 73.76 513.50 L 72.75 516.15 L 71.59 519.00 L 70.65 521.21 L 69.63 523.87 L 71.33 522.08 L 73.08 520.04 L 75.04 518.10 L 76.93 516.08 L 78.61 514.31 L 80.36 512.01 L 81.98 509.50 L 83.43 507.17 L 85.35 504.71 L 86.84 502.31 L 88.49 499.82 L 90.29 497.73 L 92.19 495.06 L 93.66 492.76 L 95.24 490.21 L 97.00 488.01 L 98.86 485.65 L 100.46 483.16 L 101.94 480.90 L 103.96 478.24 L 105.60 475.82 L 107.05 473.06 L 108.68 470.69 L 110.26 468.05 L 112.18 465.41 L 113.84 462.84 L 115.43 460.44 L 117.33 458.03 L 118.62 455.67 L 120.43 453.00 L 121.95 450.65 L 123.93 447.87 L 125.34 445.32 L 127.15 443.15 L 128.74 440.19 L 130.48 437.71 L 132.23 435.41 L 133.97 432.73 L 135.75 430.03 L 137.24 427.61 L 139.06 425.31 L 140.44 422.58 L 142.51 420.10 L 144.10 417.51 L 145.91 414.63 L 147.54 411.94 L 149.05 409.75 L 150.50 406.86 L 152.26 404.21 L 154.06 401.85 L 155.98 399.40 L 157.27 396.92 L 158.97 393.89 L 160.79 391.51 L 162.30 389.04 L 164.21 386.21 L 165.83 383.82 L 167.32 381.14 L 169.17 378.80 L 170.93 376.03 L 172.81 373.27 L 174.15 370.94 L 175.82 368.56 L 177.49 365.83 L 179.04 363.58 L 180.97 361.02 L 182.21 358.20 L 184.19 355.65 L 185.83 353.19 L 187.23 350.70 L 188.78 348.24 L 190.58 345.76 L 192.48 342.98 L 193.97 340.56 L 195.66 337.97 L 197.08 335.20 L 198.85 332.96 L 200.30 330.47 L 202.09 327.62 L 203.59 325.24 L 205.43 322.51 L 206.83 320.12 L 208.62 317.51 L 210.46 315.05 L 211.87 312.43 L 213.60 310.00 L 215.29 307.34 L 217.01 305.09 L 218.42 302.56 L 219.99 300.14 L 221.48 297.43 L 223.19 294.88 L 224.92 292.46 L 226.45 290.03 L 227.96 287.63 L 229.85 284.84 L 231.21 282.35 L 233.03 280.06 L 234.81 277.52 L 236.34 274.85 L 237.61 272.54 L 239.45 270.05 L 241.04 267.26 L 242.83 264.75 L 244.35 262.25 L 245.70 259.81 L 247.58 257.31 L 249.13 255.00 L 250.55 252.48 L 252.36 249.80 L 253.99 247.54 L 255.43 244.69 L 257.25 242.32 L 258.77 239.51 L 260.55 236.98 L 262.10 234.54 L 263.97 231.96 L 265.68 229.59 L 267.44 226.69 L 268.99 224.53 L 270.53 221.53 L 272.09 219.14 L 273.77 216.64 L 275.48 214.20 L 277.31 211.35 L 278.89 208.67 L 280.36 206.43 L 282.34 203.89 L 284.05 200.99 L 285.72 198.41 L 287.19 196.01 L 288.90 193.61 L 290.72 190.91 L 292.49 188.21 L 294.08 185.60 L 295.72 183.08 L 297.48 180.52 L 298.93 177.95 L 300.53 175.29 L 302.08 172.61 L 304.18 170.24 L 305.75 167.85 L 307.17 165.27 L 309.15 162.61 L 310.63 160.18 L 312.36 157.81 L 313.91 155.10 L 315.57 152.26 L 317.37 149.82 L 319.09 147.38 L 320.63 144.94 L 322.29 142.29 L 323.77 139.73 L 325.87 137.24 L 327.33 134.74 L 328.91 132.27 L 330.47 129.68 L 332.22 126.96 L 334.02 124.56 L 335.65 121.89" fill="none" stroke="black" stroke-width="1"/>
  <path d="M 335.63 121.93 L 334.16 124.50 L 332.41 127.37 L 331.09 129.62 L 329.40 132.44 L 328.25 134.99 L 326.68 137.95 L 325.37 140.18 L 323.70 143.22 L 322.38 145.46 L 320.91 148.26 L 319.12 150.89 L 317.69 153.54 L 316.01 155.96 L 314.72 158.62 L 313.47 161.50 L 311.50 164.16 L 310.31 166.57 L 308.86 169.12 L 307.19 172.14 L 305.77 174.63 L 304.10 176.98 L 302.98 180.09 L 301.16 182.67 L 299.78 185.12 L 298.30 187.75 L 297.00 190.22 L 295.24 192.84 L 293.69 195.95 L 292.44 198.51 L 290.67 200.96 L 289.06 203.92 L 287.72 206.43 L 286.46 209.17 L 284.86 211.86 L 283.05 214.46 L 281.58 216.83 L 280.00 219.75 L 278.66 222.13 L 277.05 224.90 L 275.63 227.79 L 274.07 230.13 L 272.46 232.99 L 270.93 235.45 L 269.58 238.36 L 268.19 240.72 L 266.41 243.44 L 264.90 246.33 L 263.81 248.92 L 262.29 251.27 L 260.40 254.10 L 259.10 256.80 L 257.65 259.56 L 256.28 261.94 L 254.36 264.90 L 253.05 267.52 L 251.70 270.28 L 249.99 272.72 L 248.30 275.60 L 247.08 278.39 L 245.21 281.15 L 243.72 283.46 L 242.38 286.50 L 240.88 289.18 L 239.45 291.80 L 237.95 294.31 L 236.17 297.20 L 234.90 299.93 L 233.38 302.44 L 231.85 305.16 L 230.28 307.66 L 228.44 310.56 L 227.03 313.19 L 225.50 315.77 L 223.88 318.32 L 222.39 321.38 L 221.11 323.72 L 219.76 326.64 L 217.98 329.20 L 216.49 331.87 L 214.89 334.44 L 213.27 336.88 L 211.86 339.67 L 210.45 342.29 L 209.24 345.04 L 207.42 347.54 L 206.05 350.15 L 204.44 352.67 L 202.87 355.48 L 201.45 358.04 L 200.22 360.47 L 198.87 363.42 L 197.14 366.04 L 195.53 368.59 L 194.08 371.10 L 192.85 373.98 L 190.98 376.31 L 189.95 379.26 L 188.41 381.48 L 186.75 384.29 L 185.17 386.71 L 183.63 389.42 L 182.41 392.10 L 181.04 394.73 L 179.09 397.56 L 178.00 400.02 L 176.40 402.74 L 174.84 405.25 L 173.36 408.13 L 171.96 410.38 L 170.39 413.38 L 168.97 415.97 L 167.29 418.46 L 165.74 421.35 L 164.18 424.07 L 162.84 426.40 L 161.10 429.06 L 159.74 431.84 L 158.07 434.43 L 156.87 437.26 L 155.15 439.67 L 153.56 442.59 L 152.41 445.01 L 150.85 447.98 L 149.29 450.54 L 147.45 453.22 L 146.32 455.77 L 144.55 458.71 L 143.22 461.24 L 141.66 463.88 L 140.03 466.65 L 138.43 469.32 L 137.06 471.84 L 135.76 474.58 L 134.20 476.83 L 132.60 479.85 L 131.40 482.37 L 129.44 484.91 L 128.40 487.28 L 126.88 490.29 L 125.32 492.69 L 123.78 495.25 L 122.11 498.06 L 120.99 500.31 L 119.49 502.96 L 117.84 505.50 L 116.41 508.34 L 114.93 510.92 L 113.42 513.59 L 111.82 516.26 L 110.53 518.48 L 109.09 521.22 L 107.52 523.71 L 106.05 526.53 L 104.67 529.09 L 103.22 531.57 L 101.70 534.20 L 100.56 536.78 L 99.01 539.08 L 97.39 541.47 L 96.20 544.18 L 94.57 546.46 L 93.49 549.14 L 91.89 551.64 L 90.57 554.29 L 89.21 556.74 L 87.62 559.25 L 86.25 561.85 L 84.71 564.25 L 83.48 567.07 L 81.59 569.37 L 80.44 572.07 L 78.80 574.51 L 77.56 577.30 L 75.92 579.89 L 77.29 577.57 L 78.79 574.82 L 80.05 572.69 L 81.64 570.05 L 82.96 567.64 L 84.48 564.81 L 86.36 562.09 L 87.58 559.45 L 89.13 556.87 L 90.54 554.25 L 92.19 551.54 L 93.61 548.62 L 95.28 546.03 L 97.08 543.39 L 98.32 540.76 L 99.93 538.14 L 101.64 535.75 L 102.93 533.03 L 104.30 530.50 L 105.87 527.90 L 107.35 525.18 L 108.53 522.83 L 110.16 520.22 L 111.93 517.39 L 112.96 514.98 L 114.78 512.33 L 116.00 510.00 L 117.38 507.11 L 119.03 504.60 L 120.49 502.16 L 121.76 499.55 L 123.26 496.79 L 124.70 494.43 L 126.36 491.86 L 127.88 489.25 L 129.43 486.73 L 130.74 483.78 L 132.47 481.31 L 133.79 478.67 L 135.61 476.24 L 136.91 473.19 L 138.39 470.60 L 140.12 468.22 L 141.52 465.55 L 143.17 462.78 L 144.39 460.33 L 146.22 457.76 L 147.43 454.83 L 149.01 452.19 L 150.58 449.75 L 152.13 446.74 L 153.52 444.28 L 154.95 441.69 L 156.61 439.03 L 157.86 436.28 L 159.66 433.54 L 161.10 431.06 L 162.60 428.47 L 164.00 425.80 L 165.73 423.42 L 166.95 420.81 L 168.60 418.02 L 169.91 415.60 L 171.38 412.82 L 173.22 410.31 L 174.27 407.80 L 176.00 405.09 L 177.37 402.59 L 179.13 399.87 L 180.47 397.17 L 181.99 394.64 L 183.13 392.13 L 184.65 389.66 L 186.51 387.07 L 187.63 384.05 L 189.31 381.90 L 190.65 379.12 L 192.13 376.38 L 193.71 373.95 L 195.06 371.22 L 196.62 368.56 L 198.19 365.86 L 199.73 363.50 L 201.18 360.90 L 202.65 358.28 L 204.16 355.63 L 205.82 352.82 L 207.49 350.24 L 209.01 347.39 L 210.19 344.91 L 211.85 342.23 L 213.35 339.46 L 214.94 336.88 L 216.46 334.39 L 217.80 331.47 L 219.39 329.05 L 220.91 326.50 L 222.62 323.80 L 224.19 320.75 L 225.69 318.14 L 227.25 315.61 L 228.80 312.83 L 230.20 310.32 L 231.45 307.41 L 233.36 304.85 L 234.58 302.21 L 235.99 299.82 L 237.86 296.80 L 239.28 294.32 L 240.73 291.63 L 242.04 289.08 L 243.50 286.19 L 245.19 283.59 L 246.56 281.30 L 248.41 278.67 L 249.93 275.77 L 251.09 273.04 L 252.68 270.52 L 254.36 267.74 L 255.78 265.13 L 257.06 262.72 L 258.80 260.21 L 260.08 257.42 L 261.78 254.98 L 263.31 251.89 L 265.03 249.65 L 266.09 246.76 L 268.00 244.23 L 269.32 241.32 L 270.79 239.10 L 272.16 236.23 L 273.98 233.54 L 275.32 230.82 L 276.74 228.46 L 278.35 225.76 L 279.92 223.00 L 281.40 220.67 L 282.78 217.93 L 284.12 215.27 L 285.84 212.64 L 287.10 210.24 L 288.71 207.27 L 290.14 205.11 L 291.62 202.08 L 293.03 199.69 L 294.95 196.87 L 295.99 194.53 L 297.86 191.75 L 299.21 189.12 L 300.83 186.65 L 302.30 184.25 L 303.53 181.40 L 305.32 178.79 L 306.87 175.96 L 308.09 173.66 L 309.82 171.16 L 311.13 168.37" fill="none" stroke="black" stroke-width="1"/>
  <path d="M 315.95 155.53 L 318.43 149.53" fill="none" stroke="black" stroke-width="1"/>
  <path d="M 321.58 149.18 L 324.70 143.78" fill="none" stroke="black" stroke-width="1"/>
  <path d="M 324.57 143.99 L 322.01 149.10" fill="none" stroke="black" stroke-width="1"/>
  <path d="M 328.57 143.41 L 331.09 137.76" fill="none" stroke="black" stroke-width="1"/>
  <path d="M 324.91 137.06 L 328.35 131.90" fill="none" stroke="black" stroke-width="1"/>
  <path d="M 328.03 131.55 L 324.59 136.82" fill="none" stroke="black" stroke-width="1"/>
  <path d="M 319.49 130.89 L 320.40 124.71" fill="none" stroke="black" stroke-width="1"/>
  <path d="M 326.02 124.54 L 327.42 118.62" fill="none" stroke="black" stroke-width="1"/>
  <path d="M 322.84 118.59 L 324.40 112.69" fill="none" stroke="black" stroke-width="1"/>
  <path d="M 324.07 112.68 L 322.52 118.34" fill="none" stroke="black" stroke-width="1"/>
  <path d="M 311.55 118.92 L 311.03 125.11" fill="none" stroke="black" stroke-width="1"/>
  <path d="M 304.49 131.20 L 304.50 137.30" fill="none" stroke="black" stroke-width="1"/>
  <path d="M 292.41 152.98 L 292.62 149.80 L 293.01 147.23 L 293.03 143.91 L 293.39 140.89 L 293.63 138.02 L 294.23 135.01 L 294.53 132.15 L 294.82 129.06 L 294.90 126.24 L 295.05 123.48 L 295.50 120.21 L 295.81 117.55 L 295.84 114.57 L 296.44 111.41 L 296.81 108.63 L 296.82 105.55 L 297.30 102.78 L 297.72 99.81 L 297.84 96.79 L 298.11 93.79 L 298.40 90.78 L 298.59 87.79 L 298.89 84.88" fill="none" stroke="black" stroke-width="1"/>
  <path d="M 298.71 84.46 L 298.65 87.29 L 298.16 90.17 L 297.69 93.33 L 297.85 96.53 L 297.32 99.36 L 297.24 102.10 L 296.65 105.43 L 296.59 108.21 L 296.41 111.22 L 295.77 114.01 L 295.62 117.02 L 295.52 119.81 L 295.20 122.87 L 294.96 125.81 L 294.44 129.02 L 294.21 132.08 L 294.05 134.93 L 293.72 137.75 L 293.28 140.90 L 293.07 143.81 L 293.05 146.74 L 292.74 149.71 L 292.34 152.64" fill="none" stroke="black" stroke-width="1"/>
  <path d="M 286.19 128.22 L 284.13 126.24 L 282.33 123.88 L 280.72 121.82 L 278.84 119.47 L 277.01 117.38 L 275.03 115.28 L 273.19 113.06 L 271.22 110.87 L 269.36 108.51 L 267.69 106.53" fill="none" stroke="black" stroke-width="1"/>
  <path d="M 267.77 106.30 L 269.46 108.27 L 271.22 110.80 L 273.09 112.95 L 275.18 115.13 L 277.19 117.32 L 278.81 119.50 L 280.73 121.76 L 282.69 123.78 L 284.17 125.82 L 286.26 128.08" fill="none" stroke="black" stroke-width="1"/>
  <path d="M 279.90 121.88 L 278.54 119.56 L 277.13 117.01 L 275.38 115.01 L 274.06 112.54" fill="none" stroke="black" stroke-width="1"/>
  <path d="M 276.90 115.83 L 274.67 113.74 L 272.55 111.78 L 270.64 109.56" fill="none" stroke="black" stroke-width="1"/>
  <path d="M 280.56 93.87 L 279.71 87.83" fill="none" stroke="black" stroke-width="1"/>
  <path d="M 288.11 94.13 L 290.49 99.83" fill="none" stroke="black" stroke-width="1"/>
  <path d="M 307.48 112.56 L 307.90 106.49" fill="none" stroke="black" stroke-width="1"/>
  <path d="M 314.77 93.85 L 313.58 99.89" fill="none" stroke="black" stroke-width="1"/>
  <path d="M 324.12 100.04 L 322.26 106.10" fill="none" stroke="black" stroke-width="1"/>
  <path d="M 330.40 106.54 L 328.63 112.24" fill="none" stroke="black" stroke-width="1"/>
  <path d="M 341.99 118.89 L 342.69 116.09 L 342.96 113.56 L 343.68 111.40 L 344.06 108.45 L 344.85 106.13" fill="none" stroke="black" stroke-width="1"/>
  <path d="M 345.04 112.74 L 345.81 110.20 L 346.57 108.07 L 347.40 105.89 L 348.21 103.47" fill="none" stroke="black" stroke-width="1"/>
  <path d="M 351.17 97.21 L 349.90 99.98 L 348.42 102.33 L 347.50 104.82 L 346.10 107.61 L 344.79 110.02 L 343.74 112.57 L 342.30 115.21 L 341.19 117.89 L 339.84 120.22 L 338.58 123.04 L 337.35 125.54 L 335.99 128.22" fill="none" stroke="black" stroke-width="1"/>
  <path d="M 335.88 128.13 L 337.13 125.42 L 338.30 122.78 L 339.63 120.22 L 341.02 117.75 L 342.05 115.12 L 343.38 112.49 L 344.86 110.14 L 346.26 107.23 L 347.29 104.50 L 348.61 102.31 L 349.69 99.35 L 351.10 96.95" fill="none" stroke="black" stroke-width="1"/>
  <path d="M 329.47 57.01 L 328.66 57.02 L 327.60 56.74 L 326.38 56.67" fill="none" stroke="black" stroke-width="1"/>
  <path d="M 323.61 56.83 L 323.13 59.28 L 322.90 62.12 L 322.11 64.96 L 321.73 67.26 L 321.60 70.06 L 321.17 72.88 L 320.52 75.27" fill="none" stroke="black" stroke-width="1"/>
  <path d="M 320.15 75.40 L 320.89 72.49 L 320.93 69.93 L 321.72 67.53 L 322.38 64.68 L 322.57 62.05 L 323.21 59.52 L 323.63 56.66" fill="none" stroke="black" stroke-width="1"/>
  <path d="M 323.60 56.70 L 326.62 56.63 L 329.93 57.00 L 332.74 56.99" fill="none" stroke="black" stroke-width="1"/>
  <path d="M 332.49 56.64 L 329.28 56.84 L 326.52 56.60 L 323.52 56.94" fill="none" stroke="black" stroke-width="1"/>
  <path d="M 304.98 59.67 L 302.81 59.79 L 300.19 59.68 L 298.10 59.67 L 295.56 59.70" fill="none" stroke="black" stroke-width="1"/>
  <path d="M 295.68 59.79 L 296.59 62.24 L 297.46 64.77 L 298.42 67.37 L 299.45 70.11 L 300.78 72.76 L 301.57 75.21" fill="none" stroke="black" stroke-width="1"/>
  <path d="M 301.55 75.50 L 300.67 72.98 L 299.75 70.58 L 298.54 67.70 L 297.72 65.00 L 296.81 62.79 L 295.72 60.07" fill="none" stroke="black" stroke-width="1"/>
  <path d="M 295.76 60.11 L 298.97 60.25 L 301.91 59.76 L 304.81 59.86" fill="none" stroke="black" stroke-width="1"/>
  <path d="M 298.65 59.85 L 299.64 59.80 L 300.49 59.70 L 301.61 59.98" fill="none" stroke="black" stroke-width="1"/>
  <path d="M 264.14 78.51 L 264.99 72.24" fill="none" stroke="black" stroke-width="1"/>
  <path d="M 254.89 72.15 L 255.97 66.08" fill="none" stroke="black" stroke-width="1"/>
  <path d="M 239.00 56.66 L 240.84 50.77" fill="none" stroke="black" stroke-width="1"/>
  <path d="M 231.68 44.68 L 229.58 50.44" fill="none" stroke="black" stroke-width="1"/>
  <path d="M 213.87 34.84 L 216.31 29.12" fill="none" stroke="black" stroke-width="1"/>
  <path d="M 204.10 20.00 L 201.46 25.65" fill="none" stroke="black" stroke-width="1"/>
  <path d="M 261.46 230.07 L 267.70 230.08" fill="none" stroke="black" stroke-width="1"/>
  <path d="M 266.11 227.47 L 262.93 232.81" fill="none" stroke="black" stroke-width="1"/>
  <path d="M 264.58 230.17 L 261.44 235.25 L 258.50 240.50 L 255.37 245.52" fill="none" stroke="black" stroke-width="1"/>
  <path d="M 219.36 205.54 L 216.95 211.19" fill="none" stroke="black" stroke-width="1"/>
  <path d="M 196.48 199.13 L 193.38 204.26 L 190.29 209.55 L 187.18 214.67" fill="none" stroke="black" stroke-width="1"/>
  <path d="M 185.68 217.26 L 188.71 211.98" fill="none" stroke="black" stroke-width="1"/>
  <path d="M 190.36 214.70 L 184.11 214.57" fill="none" stroke="black" stroke-width="1"/>
  <path d="M 113.01 223.71 L 106.76 224.27" fill="none" stroke="black" stroke-width="1"/>
  <path d="M 78.93 254.83 L 80.06 254.61 L 81.09 254.51 L 82.15 254.32 L 83.24 254.20 L 84.28 253.97 L 85.37 253.88 L 86.42 253.78 L 87.50 253.57 L 88.64 253.40 L 89.64 253.25 L 90.70 253.09 L 91.79 252.94 L 92.88 252.69 L 93.97 252.62 L 95.10 252.45 L 96.17 252.31 L 97.30 252.08 L 98.41 252.00 L 99.54 251.79 L 100.71 251.69 L 101.92 251.48 L 103.05 251.38 L 104.33 251.19 L 105.44 251.08 L 106.61 250.97 L 107.87 250.78 L 109.06 250.58 L 110.34 250.47 L 111.65 250.23 L 112.82 250.17 L 114.08 250.09 L 115.32 249.87 L 116.49 249.69 L 117.82 249.57 L 119.09 249.37 L 120.33 249.27 L 121.56 249.21 L 122.82 248.97 L 123.98 248.90 L 125.29 248.67" fill="none" stroke="black" stroke-width="1"/>
  <path d="M 140.87 261.04 L 142.37 261.16 L 143.97 261.19 L 145.46 261.29 L 147.08 261.34 L 148.58 261.43 L 150.18 261.48 L 151.73 261.54 L 153.28 261.63 L 154.88 261.76 L 156.38 261.77 L 157.94 261.83 L 159.48 261.92 L 160.99 261.98 L 162.58 262.07 L 164.14 262.08 L 165.68 262.22 L 167.16 262.34 L 168.78 262.37 L 170.33 262.45 L 171.88 262.53 L 173.42 262.69 L 174.97 262.69 L 176.55 262.77 L 178.07 262.85 L 179.61 262.86 L 181.17 263.02 L 182.68 263.06 L 184.26 263.19 L 185.75 263.19 L 187.35 263.36 L 188.91 263.39 L 190.45 263.53 L 192.02 263.65 L 193.54 263.70 L 195.08 263.73 L 196.63 263.87 L 198.15 263.98 L 199.72 264.04 L 201.22 264.08 L 202.82 264.21" fill="none" stroke="black" stroke-width="1"/>
  <path d="M 235.93 417.63 L 230.90 414.31" fill="none" stroke="black" stroke-width="1"/>
  <path d="M 329.69 424.43 L 335.74 425.72" fill="none" stroke="black" stroke-width="1"/>
  <path d="M 342.16 415.54 L 348.39 415.99" fill="none" stroke="black" stroke-width="1"/>
  <path d="M 354.40 425.66 L 360.21 425.12" fill="none" stroke="black" stroke-width="1"/>
  <path d="M 354.31 430.63 L 348.25 431.90" fill="none" stroke="black" stroke-width="1"/>
  <path d="M 348.00 431.01 L 354.14 431.00" fill="none" stroke="black" stroke-width="1"/>
  <path d="M 360.57 438.52 L 366.67 436.58" fill="none" stroke="black" stroke-width="1"/>
  <path d="M 370.71 448.17 L 375.84 445.00" fill="none" stroke="black" stroke-width="1"/>
  <path d="M 345.08 446.95 L 338.91 446.53" fill="none" stroke="black" stroke-width="1"/>
  <path d="M 338.87 446.00 L 344.57 447.53" fill="none" stroke="black" stroke-width="1"/>
  <path d="M 329.26 439.08 L 323.50 436.17" fill="none" stroke="black" stroke-width="1"/>
  <path d="M 320.28 486.89 L 324.37 491.10 L 328.53 495.21 L 332.74 499.36" fill="none" stroke="black" stroke-width="1"/>
  <path d="M 313.41 501.07 L 308.58 497.43" fill="none" stroke="black" stroke-width="1"/>
  <path d="M 351.25 517.83 L 355.34 522.01 L 359.38 526.17 L 363.58 530.28" fill="none" stroke="black" stroke-width="1"/>
  <path d="M 362.58 529.56 L 357.92 525.35" fill="none" stroke="black" stroke-width="1"/>
  <path d="M 357.48 524.08 L 354.39 521.97 L 351.29 519.73 L 348.28 517.70 L 345.10 515.81 L 342.06 513.99 L 338.91 512.14 L 335.88 510.29 L 332.72 508.53 L 329.59 506.61 L 326.53 504.80 L 323.52 502.71 L 320.33 500.76 L 317.27 498.44 L 314.14 496.22 L 311.08 493.53 L 307.95 491.00 L 304.82 487.93 L 301.77 484.91 L 298.66 481.32 L 295.58 477.77 L 292.48 473.61 L 289.39 469.45 L 286.34 464.85 L 283.21 460.07 L 280.04 455.02 L 277.02 449.83 L 275.04 446.14 L 272.92 442.62 L 270.84 438.91 L 268.72 435.08 L 266.80 431.32 L 264.66 427.48 L 262.61 423.62 L 260.56 419.61 L 258.48 415.75 L 256.45 411.84 L 254.35 407.82 L 252.29 403.90 L 250.14 400.05 L 248.16 396.04 L 246.11 392.10 L 244.05 388.23 L 241.96 384.41 L 239.93 380.56 L 237.95 376.88 L 235.79 373.21 L 233.75 369.45" fill="none" stroke="black" stroke-width="1"/>
  <path d="M 233.68 369.37 L 238.84 378.60 L 244.00 388.14 L 249.16 397.90 L 254.32 407.77 L 259.47 417.64 L 264.63 427.40 L 269.79 436.94 L 274.95 446.17 L 280.10 454.96 L 285.26 463.21 L 290.42 470.83 L 295.58 477.68 L 300.73 483.72 L 305.89 489.00 L 311.05 493.64 L 316.21 497.74 L 321.37 501.41 L 326.52 504.76 L 331.68 507.90 L 336.84 510.92 L 342.00 513.95 L 347.15 517.08 L 352.31 520.43 L 357.47 524.10" fill="none" stroke="black" stroke-width="1"/>
  <path d="M 357.47 524.10 L 361.34 519.04 L 365.21 514.15 L 369.07 509.36 L 372.94 504.62 L 376.81 499.88 L 380.68 495.09 L 384.55 490.19 L 388.41 485.13 L 392.28 479.86 L 396.15 474.32 L 400.02 468.45 L 403.89 462.21 L 407.76 455.56 L 411.62 448.53 L 415.49 441.18 L 419.36 433.56 L 423.23 425.72 L 427.10 417.73 L 430.97 409.62 L 434.83 401.47 L 438.70 393.31 L 442.57 385.20 L 446.44 377.21 L 450.31 369.37" fill="none" stroke="black" stroke-width="1"/>
  <path d="M 450.24 369.38 L 447.87 374.10 L 445.60 378.79 L 443.34 383.68 L 440.96 388.42 L 438.56 393.35 L 436.32 398.17 L 434.06 403.05 L 431.69 407.95 L 429.35 412.82 L 427.05 417.67 L 424.80 422.40 L 422.41 427.24 L 420.08 431.94 L 417.77 436.56 L 415.40 441.00 L 413.13 445.54 L 410.78 449.74 L 408.49 454.09 L 406.10 458.02 L 403.85 462.12 L 401.51 465.85 L 399.21 469.56 L 396.86 473.07 L 394.57 476.48 L 392.32 479.67 L 389.92 482.97 L 387.56 486.00 L 385.28 489.12 L 382.93 492.16 L 380.64 495.02 L 378.31 497.97 L 376.00 500.77 L 373.70 503.64 L 371.35 506.46 L 368.94 509.35 L 366.71 512.18 L 364.31 515.01 L 362.07 518.02 L 359.71 520.98 L 357.42 524.07" fill="none" stroke="black" stroke-width="1"/>
  <path d="M 356.83 523.46 L 352.45 518.94" fill="none" stroke="black" stroke-width="1"/>
  <path d="M 345.12 505.56 L 349.28 509.70 L 353.35 513.83 L 357.49 517.95" fill="none" stroke="black" stroke-width="1"/>
  <path d="M 357.39 511.81 L 361.53 514.90 L 365.67 517.88 L 369.94 520.94" fill="none" stroke="black" stroke-width="1"/>
  <path d="M 403.86 462.23 L 406.00 457.10 L 407.99 451.87 L 410.12 446.78" fill="none" stroke="black" stroke-width="1"/>
  <path d="M 432.59 448.84 L 437.02 444.61" fill="none" stroke="black" stroke-width="1"/>
  <path d="M 478.23 477.36 L 484.45 478.05" fill="none" stroke="black" stroke-width="1"/>
  <path d="M 484.29 477.12 L 478.20 478.05" fill="none" stroke="black" stroke-width="1"/>
  <path d="M 481.29 477.73 L 487.11 478.46 L 492.91 479.21 L 498.60 480.02 L 504.52 480.81 L 510.22 481.50 L 515.96 482.42 L 521.89 483.14 L 527.61 483.88" fill="none" stroke="black" stroke-width="1"/>
  <path d="M 537.02 471.51 L 531.20 470.43 L 525.38 469.26 L 519.56 468.02 L 513.68 466.85 L 508.04 465.71 L 502.11 464.57 L 496.36 463.28 L 490.51 462.14" fill="none" stroke="black" stroke-width="1"/>
  <path d="M 524.68 455.41 L 530.66 456.62" fill="none" stroke="black" stroke-width="1"/>
  <path d="M 543.14 446.74 L 545.67 442.82 L 548.12 438.82 L 550.52 434.77 L 552.89 430.69 L 555.26 426.61 L 557.65 422.56 L 560.10 418.56 L 562.63 414.65 L 565.27 410.84 L 568.04 407.16 L 570.97 403.65 L 574.09 400.32 L 577.42 397.20 L 580.93 394.27 L 584.61 391.49 L 588.42 388.86 L 592.33 386.33 L 596.33 383.88 L 600.38 381.48 L 604.46 379.12 L 608.54 376.75 L 612.59 374.35 L 616.59 371.90 L 620.51 369.37" fill="none" stroke="black" stroke-width="1"/>
  <path d="M 620.53 369.42 L 618.21 370.84 L 615.82 372.44 L 613.37 373.87 L 610.99 375.34 L 608.48 376.73 L 606.11 378.19 L 603.58 379.64 L 601.20 381.02 L 598.81 382.46 L 596.33 383.88 L 593.95 385.29 L 591.54 386.82 L 589.29 388.28 L 586.87 389.89 L 584.58 391.55 L 582.37 393.12 L 580.30 394.84 L 578.09 396.57 L 576.15 398.46 L 574.07 400.29 L 572.12 402.31 L 570.35 404.31 L 568.54 406.46 L 566.89 408.59 L 565.19 410.75 L 563.65 413.08 L 562.03 415.48 L 560.57 417.75 L 559.18 420.21 L 557.63 422.54 L 556.13 425.04 L 554.76 427.41 L 553.31 429.85 L 551.92 432.32 L 550.49 434.84 L 549.06 437.20 L 547.56 439.60 L 546.15 442.03 L 544.62 444.47 L 543.12 446.74" fill="none" stroke="black" stroke-width="1"/>
  <path d="M 543.11 446.73 L 540.79 445.31 L 538.40 443.71 L 536.00 442.26 L 533.58 440.80 L 531.14 439.47 L 528.69 437.96 L 526.32 436.57 L 523.79 435.12 L 521.34 433.68 L 518.92 432.26 L 516.51 430.85 L 514.12 429.32 L 511.86 427.72 L 509.46 426.25 L 507.26 424.64 L 504.96 423.01 L 502.79 421.35 L 500.68 419.55 L 498.75 417.68 L 496.67 415.83 L 494.84 413.84 L 492.95 411.81 L 491.22 409.72 L 489.50 407.52 L 487.84 405.25 L 486.27 403.01 L 484.65 400.75 L 483.20 398.34 L 481.78 395.96 L 480.27 393.53 L 478.85 391.15 L 477.41 388.65 L 475.98 386.18 L 474.58 383.74 L 473.07 381.34 L 471.73 378.84 L 470.23 376.42 L 468.83 374.01 L 467.39 371.66 L 465.81 369.29" fill="none" stroke="black" stroke-width="1"/>
  <path d="M 465.78 369.37 L 468.31 373.29 L 470.76 377.29 L 473.15 381.34 L 475.52 385.42 L 477.89 389.50 L 480.29 393.55 L 482.73 397.55 L 485.26 401.47 L 487.90 405.28 L 490.67 408.95 L 493.60 412.47 L 496.73 415.79 L 500.05 418.91 L 503.57 421.85 L 507.24 424.62 L 511.05 427.25 L 514.97 429.78 L 518.97 432.23 L 523.02 434.63 L 527.10 437.00 L 531.18 439.36 L 535.23 441.76 L 539.23 444.21 L 543.14 446.74" fill="none" stroke="black" stroke-width="1"/>
  <path d="M 544.24 447.58 L 548.40 452.19" fill="none" stroke="black" stroke-width="1"/>
  <path d="M 549.41 452.96 L 545.22 448.79 L 541.14 444.73 L 536.91 440.48" fill="none" stroke="black" stroke-width="1"/>
  <path d="M 537.76 441.47 L 541.98 446.07" fill="none" stroke="black" stroke-width="1"/>
  <path d="M 543.17 437.49 L 539.03 433.41 L 534.89 429.15 L 530.80 425.00" fill="none" stroke="black" stroke-width="1"/>
  <path d="M 518.46 425.01 L 514.35 420.93 L 510.03 416.77 L 505.95 412.65" fill="none" stroke="black" stroke-width="1"/>
  <path d="M 514.90 395.64 L 509.50 392.62" fill="none" stroke="black" stroke-width="1"/>
  <path d="M 508.67 389.40 L 503.32 386.09" fill="none" stroke="black" stroke-width="1"/>
  <path d="M 515.57 377.71 L 521.23 379.64" fill="none" stroke="black" stroke-width="1"/>
  <path d="M 524.32 384.09 L 530.73 385.44" fill="none" stroke="black" stroke-width="1"/>
  <path d="M 530.77 384.83 L 524.58 384.87" fill="none" stroke="black" stroke-width="1"/>
  <path d="M 533.49 390.77 L 539.65 390.81" fill="none" stroke="black" stroke-width="1"/>
  <path d="M 546.74 401.45 L 551.96 398.80" fill="none" stroke="black" stroke-width="1"/>
  <path d="M 574.16 400.25 L 577.21 395.65 L 580.22 390.95" fill="none" stroke="black" stroke-width="1"/>
  <path d="M 638.78 399.41 L 632.88 401.27" fill="none" stroke="black" stroke-width="1"/>
  <path d="M 651.49 421.93 L 645.83 422.70 L 640.25 423.53 L 634.64 424.48 L 629.04 425.34 L 623.44 426.19 L 617.74 426.96 L 612.17 427.77 L 606.40 428.73 L 600.94 429.47 L 595.16 430.26 L 589.60 431.18" fill="none" stroke="black" stroke-width="1"/>
  <path d="M 592.07 429.75 L 586.97 432.92" fill="none" stroke="black" stroke-width="1"/>
  <path d="M 586.48 431.77 L 592.59 430.87" fill="none" stroke="black" stroke-width="1"/>
  <path d="M 574.05 440.49 L 579.89 439.88 L 585.67 439.17 L 591.66 438.52 L 597.51 437.78 L 603.24 437.11 L 609.17 436.44 L 614.96 435.65 L 620.78 435.05 L 626.63 434.31" fill="none" stroke="black" stroke-width="1"/>
  <path d="M 663.91 468.56 L 669.96 467.75" fill="none" stroke="black" stroke-width="1"/>
</svg>